<svg width="198" height="102" viewBox="0 0 198 102" fill="none" xmlns="http://www.w3.org/2000/svg">
<path fill-rule="evenodd" clip-rule="evenodd" d="M125.139 77.3047C125.139 80.6315 124.501 83.7533 123.225 86.6699C121.994 89.5866 120.285 92.1387 118.098 94.3262C115.91 96.5137 113.358 98.2454 110.441 99.5215C107.525 100.752 104.403 101.367 101.076 101.367H96.9062C93.5794 101.367 90.4349 100.752 87.4727 99.5215C84.556 98.2454 82.0039 96.5137 79.8164 94.3262C77.6289 92.1387 75.8971 89.5866 74.6211 86.6699C73.3906 83.7533 72.7754 80.6315 72.7754 77.3047V24.668C72.7754 21.3411 73.3906 18.2194 74.6211 15.3027C75.8971 12.3861 77.6289 9.83398 79.8164 7.64648C82.0039 5.45898 84.556 3.75 87.4727 2.51953C90.4349 1.24349 93.5794 0.605469 96.9062 0.605469H101.076C104.403 0.605469 107.525 1.24349 110.441 2.51953C113.358 3.75 115.91 5.45898 118.098 7.64648C120.285 9.83398 121.994 12.3861 123.225 15.3027C124.501 18.2194 125.139 21.3411 125.139 24.668V77.3047ZM116.32 24.668C116.32 22.4805 115.91 20.4525 115.09 18.584C114.27 16.6699 113.153 15.0065 111.74 13.5938C110.327 12.181 108.664 11.0645 106.75 10.2441C104.882 9.42383 102.854 9.01367 100.666 9.01367H97.3164C95.1289 9.01367 93.0781 9.42383 91.1641 10.2441C89.2956 11.0645 87.6322 12.181 86.1738 13.5938C84.7611 15.0065 83.6445 16.6699 82.8242 18.584C82.0039 20.4525 81.5938 22.4805 81.5938 24.668V77.3047C81.5938 79.4922 82.0039 81.543 82.8242 83.457C83.6445 85.3255 84.7611 86.9889 86.1738 88.4473C87.6322 89.86 89.2956 90.9766 91.1641 91.7969C93.0781 92.6172 95.1289 93.0273 97.3164 93.0273H100.666C102.854 93.0273 104.882 92.6172 106.75 91.7969C108.664 90.9766 110.327 89.86 111.74 88.4473C113.153 86.9889 114.27 85.3255 115.09 83.457C115.91 81.543 116.32 79.4922 116.32 77.3047V24.668ZM53.1387 77.3047C53.1387 80.6315 52.5007 83.7533 51.2246 86.6699C49.9941 89.5866 48.2852 92.1387 46.0977 94.3262C43.9102 96.5137 41.3581 98.2454 38.4414 99.5215C35.5247 100.752 32.403 101.367 29.0762 101.367H24.9062C21.5794 101.367 18.4349 100.752 15.4727 99.5215C12.556 98.2454 10.0039 96.5137 7.81641 94.3262C5.62891 92.1387 3.89714 89.5866 2.62109 86.6699C1.39062 83.7533 0.775391 80.6315 0.775391 77.3047C0.775391 76.4741 1.44871 75.8008 2.2793 75.8008H8.08984C8.92043 75.8008 9.59375 76.4741 9.59375 77.3047C9.59375 79.4922 10.0039 81.543 10.8242 83.457C11.6445 85.3255 12.7611 86.9889 14.1738 88.4473C15.6322 89.86 17.2956 90.9766 19.1641 91.7969C21.0781 92.6172 23.1289 93.0273 25.3164 93.0273H28.666C30.8535 93.0273 32.8815 92.6172 34.75 91.7969C36.6641 90.9766 38.3275 89.86 39.7402 88.4473C41.153 86.9889 42.2695 85.3255 43.0898 83.457C43.9102 81.543 44.3203 79.4922 44.3203 77.3047V58.3008C44.3203 56.1133 43.9102 54.0853 43.0898 52.2168C42.2695 50.3027 41.153 48.6393 39.7402 47.2266C38.3275 45.7682 36.6641 44.6289 34.75 43.8086C32.8815 42.9883 30.8535 42.5781 28.666 42.5781H25.3164C23.1289 42.5781 21.0781 42.9883 19.1641 43.8086C17.2956 44.6289 15.6322 45.7682 14.1738 47.2266C12.7611 48.6393 11.6445 50.3027 10.8242 52.2168C10.2591 53.504 9.88864 54.8669 9.71283 56.3055C9.57885 57.402 8.69832 58.3008 7.59375 58.3008H2.9843C1.80144 58.3008 0.876995 57.2798 0.994129 56.1027L5.8429 7.37851C6.14825 4.31005 8.7298 1.97266 11.8134 1.97266H48.2852C48.2852 6.61638 44.5207 10.3809 39.877 10.3809H14.6523L11.4395 40.5273C13.5358 38.5221 15.974 36.9727 18.7539 35.8789C21.5339 34.7396 24.5189 34.1699 27.709 34.1699H29.0762C32.403 34.1699 35.5247 34.8079 38.4414 36.084C41.3581 37.3145 43.9102 39.0234 46.0977 41.2109C48.2852 43.3984 49.9941 45.9733 51.2246 48.9355C52.5007 51.8522 53.1387 54.974 53.1387 58.3008V77.3047ZM195.225 86.6699C196.501 83.7533 197.139 80.6315 197.139 77.3047V24.668C197.139 21.3411 196.501 18.2194 195.225 15.3027C193.994 12.3861 192.285 9.83398 190.098 7.64648C187.91 5.45898 185.358 3.75 182.441 2.51953C179.525 1.24349 176.403 0.605469 173.076 0.605469H168.906C165.579 0.605469 162.435 1.24349 159.473 2.51953C156.556 3.75 154.004 5.45898 151.816 7.64648C149.629 9.83398 147.897 12.3861 146.621 15.3027C145.391 18.2194 144.775 21.3411 144.775 24.668V77.3047C144.775 80.6315 145.391 83.7533 146.621 86.6699C147.897 89.5866 149.629 92.1387 151.816 94.3262C154.004 96.5137 156.556 98.2454 159.473 99.5215C162.435 100.752 165.579 101.367 168.906 101.367H173.076C176.403 101.367 179.525 100.752 182.441 99.5215C185.358 98.2454 187.91 96.5137 190.098 94.3262C192.285 92.1387 193.994 89.5866 195.225 86.6699ZM187.09 18.584C187.91 20.4525 188.32 22.4805 188.32 24.668V77.3047C188.32 79.4922 187.91 81.543 187.09 83.457C186.27 85.3255 185.153 86.9889 183.74 88.4473C182.327 89.86 180.664 90.9766 178.75 91.7969C176.882 92.6172 174.854 93.0273 172.666 93.0273H169.316C167.129 93.0273 165.078 92.6172 163.164 91.7969C161.296 90.9766 159.632 89.86 158.174 88.4473C156.761 86.9889 155.645 85.3255 154.824 83.457C154.004 81.543 153.594 79.4922 153.594 77.3047V24.668C153.594 22.4805 154.004 20.4525 154.824 18.584C155.645 16.6699 156.761 15.0065 158.174 13.5938C159.632 12.181 161.296 11.0645 163.164 10.2441C165.078 9.42383 167.129 9.01367 169.316 9.01367H172.666C174.854 9.01367 176.882 9.42383 178.75 10.2441C180.664 11.0645 182.327 12.181 183.74 13.5938C185.153 15.0065 186.27 16.6699 187.09 18.584Z" fill="#606571"/>
</svg>

