<svg width="201" height="100" viewBox="0 0 201 100" fill="none" xmlns="http://www.w3.org/2000/svg">
<path fill-rule="evenodd" clip-rule="evenodd" d="M126.092 85.4138C127.359 82.5192 127.992 79.4211 127.992 76.1194V23.8806C127.992 20.5789 127.359 17.4808 126.092 14.5862C124.871 11.6915 123.175 9.15875 121.004 6.98779C118.833 4.81682 116.3 3.12076 113.406 1.89959C110.511 0.633198 107.413 0 104.111 0H99.9729C96.6712 0 93.5504 0.633198 90.6106 1.89959C87.716 3.12076 85.1832 4.81682 83.0122 6.98779C80.8412 9.15875 79.1226 11.6915 77.8562 14.5862C76.635 17.4808 76.0244 20.5789 76.0244 23.8806V76.1194C76.0244 79.4211 76.635 82.5192 77.8562 85.4138C79.1226 88.3085 80.8412 90.8412 83.0122 93.0122C85.1832 95.1832 87.716 96.9019 90.6106 98.1683C93.5504 99.3894 96.6712 100 99.9729 100H104.111C107.413 100 110.511 99.3894 113.406 98.1683C116.3 96.9019 118.833 95.1832 121.004 93.0122C123.175 90.8412 124.871 88.3085 126.092 85.4138ZM118.019 17.8426C118.833 19.697 119.24 21.7096 119.24 23.8806V76.1194C119.24 78.2904 118.833 80.3256 118.019 82.2252C117.205 84.0796 116.097 85.7304 114.695 87.1777C113.293 88.5798 111.642 89.6879 109.742 90.502C107.888 91.3161 105.875 91.7232 103.704 91.7232H100.38C98.2089 91.7232 96.1737 91.3161 94.2741 90.502C92.4197 89.6879 90.7689 88.5798 89.3216 87.1777C87.9195 85.7304 86.8114 84.0796 85.9973 82.2252C85.1832 80.3256 84.7761 78.2904 84.7761 76.1194V23.8806C84.7761 21.7096 85.1832 19.697 85.9973 17.8426C86.8114 15.943 87.9195 14.2922 89.3216 12.8901C90.7689 11.488 92.4197 10.3799 94.2741 9.56581C96.1737 8.7517 98.2089 8.34464 100.38 8.34464H103.704C105.875 8.34464 107.888 8.7517 109.742 9.56581C111.642 10.3799 113.293 11.488 114.695 12.8901C116.097 14.2922 117.205 15.943 118.019 17.8426ZM47.829 81.8182V98.6431C42.9956 98.6431 39.0773 94.7249 39.0773 89.8914V81.8182H3.27544C1.46646 81.8182 0 80.3517 0 78.5427C0 77.9771 0.146486 77.4211 0.425192 76.9288L42.3786 2.83524C42.896 1.92159 43.8647 1.35684 44.9147 1.35684C46.5242 1.35684 47.829 2.66164 47.829 4.2712V73.4735H56.1737C56.1737 78.0821 52.4377 81.8182 47.829 81.8182ZM39.0773 25.3053L12.2795 73.4735H39.0773V25.3053ZM191.788 81.8182V98.6431C186.955 98.6431 183.036 94.7249 183.036 89.8914V81.8182H147.234C145.425 81.8182 143.959 80.3517 143.959 78.5427C143.959 77.9771 144.105 77.4211 144.384 76.9288L186.338 2.83524C186.855 1.92159 187.824 1.35684 188.874 1.35684C190.483 1.35684 191.788 2.66164 191.788 4.2712V73.4735H200.133C200.133 78.0821 196.397 81.8182 191.788 81.8182ZM183.036 25.3053L156.238 73.4735H183.036V25.3053Z" fill="#606571"/>
</svg>

