<svg width="230" height="110" viewBox="0 0 230 110" fill="none" xmlns="http://www.w3.org/2000/svg">
<path fill-rule="evenodd" clip-rule="evenodd" d="M18 85.2319C18 79.8372 22.3733 75.4639 27.768 75.4639C33.1627 75.4639 37.536 79.8372 37.536 85.2319C37.536 90.6266 33.1627 94.9999 27.768 94.9999C22.3733 94.9999 18 90.6266 18 85.2319ZM42.7453 85.232C42.7453 83.0741 44.4946 81.3248 46.6525 81.3248H104.609C106.767 81.3248 108.517 83.0741 108.517 85.232C108.517 87.3899 106.767 89.1392 104.609 89.1392H46.6525C44.4946 89.1392 42.7453 87.3899 42.7453 85.232ZM122.192 85.2319C122.192 79.8372 126.565 75.4639 131.96 75.4639C137.355 75.4639 141.728 79.8372 141.728 85.2319C141.728 90.6266 137.355 94.9999 131.96 94.9999C126.565 94.9999 122.192 90.6266 122.192 85.2319ZM146.937 85.232C146.937 83.0741 148.687 81.3248 150.844 81.3248H208.801C210.959 81.3248 212.709 83.0741 212.709 85.232C212.709 87.3899 210.959 89.1392 208.801 89.1392H150.845C148.687 89.1392 146.937 87.3899 146.937 85.232Z" fill="#101112" fill-opacity="0.16"/>
<rect x="18" y="61" width="194" height="1" rx="0.5" fill="#101112" fill-opacity="0.16"/>
<rect x="57.0723" y="20.7633" width="123.077" height="7.8144" rx="3.9072" fill="#101112" fill-opacity="0.8"/>
<rect x="57.0723" y="35.0895" width="26.048" height="7.8144" rx="3.9072" fill="#101112" fill-opacity="0.16"/>
<rect x="18" y="15" width="30.4762" height="30.4762" rx="12" fill="#101112" fill-opacity="0.8"/>
<path fill-rule="evenodd" clip-rule="evenodd" d="M40.6317 28.2601C40.4343 28.4575 40.1666 28.5683 39.8875 28.5683H25.6799C25.4718 28.5688 25.2683 28.5075 25.095 28.3923C24.9217 28.2771 24.7865 28.1131 24.7064 27.9211C24.6271 27.7284 24.6068 27.5166 24.648 27.3124C24.6892 27.1082 24.7901 26.9208 24.9379 26.774L28.0952 23.6167C28.2965 23.4443 28.5555 23.3542 28.8203 23.3644C29.0852 23.3747 29.3365 23.4845 29.5239 23.6719C29.7113 23.8593 29.8211 24.1106 29.8313 24.3754C29.8416 24.6403 29.7515 24.8993 29.5791 25.1006L28.2215 26.4635H39.8875C40.1666 26.4635 40.4343 26.5744 40.6317 26.7717C40.829 26.9691 40.9399 27.2368 40.9399 27.5159C40.9399 27.795 40.829 28.0627 40.6317 28.2601ZM26.7319 32.2519H40.9395C41.1476 32.2515 41.3511 32.3128 41.5244 32.428C41.6977 32.5432 41.8329 32.7071 41.913 32.8992C41.9923 33.0918 42.0126 33.3037 41.9714 33.5079C41.9302 33.7121 41.8293 33.8995 41.6815 34.0463L38.5242 37.2036C38.4299 37.3137 38.3138 37.4032 38.1832 37.4664C38.0526 37.5295 37.9104 37.565 37.7655 37.5706C37.6205 37.5762 37.476 37.5518 37.341 37.4989C37.2059 37.446 37.0832 37.3657 36.9807 37.2632C36.8781 37.1606 36.7979 37.038 36.745 36.9029C36.692 36.7679 36.6676 36.6233 36.6732 36.4784C36.6788 36.3334 36.7143 36.1912 36.7775 36.0607C36.8407 35.9301 36.9301 35.814 37.0403 35.7197L38.3979 34.3568H26.7319C26.4528 34.3568 26.1851 34.2459 25.9877 34.0485C25.7903 33.8512 25.6795 33.5835 25.6795 33.3044C25.6795 33.0252 25.7903 32.7575 25.9877 32.5602C26.1851 32.3628 26.4528 32.2519 26.7319 32.2519Z" fill="white"/>
<rect x="0.5" y="0.5" width="229" height="109" rx="11.5" stroke="#101112" stroke-opacity="0.16"/>
</svg>
