<svg width="201" height="100" viewBox="0 0 201 100" fill="none" xmlns="http://www.w3.org/2000/svg">
<path fill-rule="evenodd" clip-rule="evenodd" d="M100.197 9.01367C98.0098 9.01367 95.959 9.42383 94.0449 10.2441C92.1764 11.0645 90.5358 12.181 89.123 13.5938C87.7103 15.0065 86.5938 16.6699 85.7734 18.584C84.9531 20.4525 84.543 22.4805 84.543 24.668C84.543 26.7463 82.6809 28.3297 80.6296 27.9958L78.221 27.6037C76.7818 27.3694 75.7246 26.1262 75.7246 24.668C75.7246 21.3411 76.3398 18.2194 77.5703 15.3027C78.8464 12.3861 80.5781 9.83398 82.7656 7.64648C84.9531 5.45898 87.5052 3.75 90.4219 2.51953C93.3385 1.24349 96.4603 0.605469 99.7871 0.605469H103.957C107.284 0.605469 110.406 1.19792 113.322 2.38281C116.285 3.56771 118.859 5.27669 121.047 7.50977C123.234 9.74284 124.943 12.4316 126.174 15.5762C127.45 18.6751 128.088 22.1842 128.088 26.1035C128.088 29.9772 127.495 33.8737 126.311 37.793C125.171 41.7122 123.645 45.5632 121.73 49.3457C119.862 53.1283 117.697 56.7969 115.236 60.3516C112.821 63.9062 110.337 67.2559 107.785 70.4004C101.815 77.7376 95.0475 84.8014 87.4824 91.5918H120.363C125.007 91.5918 128.771 95.3563 128.771 100H73.6055V97.7466C73.6055 94.7584 74.9506 91.9366 77.2181 89.9904C84.2932 83.9177 90.6997 77.6611 96.4375 71.2207C99.3086 67.985 102.111 64.5443 104.846 60.8984C107.58 57.2526 110.018 53.5156 112.16 49.6875C114.302 45.8138 116.011 41.8945 117.287 37.9297C118.609 33.9193 119.27 29.9772 119.27 26.1035C119.27 23.2324 118.837 20.7259 117.971 18.584C117.105 16.4421 115.943 14.6647 114.484 13.252C113.026 11.8392 111.34 10.791 109.426 10.1074C107.557 9.37825 105.598 9.01367 103.547 9.01367H100.197ZM48.3633 83.0469V100C43.493 100 39.5449 96.0519 39.5449 91.1816V83.0469H3.47032C1.64756 83.0469 0.169922 81.5692 0.169922 79.7465C0.169922 79.1765 0.317524 78.6163 0.598353 78.1203L42.8714 3.46232C43.3926 2.54172 44.3688 1.97266 45.4267 1.97266C47.0485 1.97266 48.3633 3.2874 48.3633 4.90921V74.6387H56.7715C56.7715 79.2824 53.007 83.0469 48.3633 83.0469ZM39.5449 26.1035L12.543 74.6387H39.5449V26.1035ZM166.045 10.2441C167.959 9.42383 170.01 9.01367 172.197 9.01367H175.547C177.598 9.01367 179.557 9.37825 181.426 10.1074C183.34 10.791 185.026 11.8392 186.484 13.252C187.943 14.6647 189.105 16.4421 189.971 18.584C190.837 20.7259 191.27 23.2324 191.27 26.1035C191.27 29.9772 190.609 33.9193 189.287 37.9297C188.011 41.8945 186.302 45.8138 184.16 49.6875C182.018 53.5156 179.58 57.2526 176.846 60.8984C174.111 64.5443 171.309 67.985 168.438 71.2207C162.7 77.6611 156.293 83.9177 149.218 89.9904C146.951 91.9366 145.605 94.7584 145.605 97.7466V100H200.771C200.771 95.3563 197.007 91.5918 192.363 91.5918H159.482C167.048 84.8014 173.815 77.7376 179.785 70.4004C182.337 67.2559 184.821 63.9062 187.236 60.3516C189.697 56.7969 191.862 53.1283 193.73 49.3457C195.645 45.5632 197.171 41.7122 198.311 37.793C199.495 33.8737 200.088 29.9772 200.088 26.1035C200.088 22.1842 199.45 18.6751 198.174 15.5762C196.943 12.4316 195.234 9.74284 193.047 7.50977C190.859 5.27669 188.285 3.56771 185.322 2.38281C182.406 1.19792 179.284 0.605469 175.957 0.605469H171.787C168.46 0.605469 165.339 1.24349 162.422 2.51953C159.505 3.75 156.953 5.45898 154.766 7.64648C152.578 9.83398 150.846 12.3861 149.57 15.3027C148.34 18.2194 147.725 21.3411 147.725 24.668C147.725 26.1262 148.782 27.3694 150.221 27.6037L152.63 27.9958C154.681 28.3297 156.543 26.7463 156.543 24.668C156.543 22.4805 156.953 20.4525 157.773 18.584C158.594 16.6699 159.71 15.0065 161.123 13.5938C162.536 12.181 164.176 11.0645 166.045 10.2441Z" fill="#606571"/>
</svg>

