<svg fill="none" height="87" viewBox="0 0 263 87" width="263" xmlns="http://www.w3.org/2000/svg"><path d="m216.5 37.5 41.5-32.5-8 58zm0 0-115.5 44m0 0-55.5-49m55.5 49 26-74 74 68m-100 6-99 2.5" stroke="#2e2e2e"/><circle cx="258" cy="5" fill="#4babd8" r="5"/><circle cx="216" cy="37" fill="#63d48b" r="7"/><circle cx="46" cy="33" fill="#ffd635" r="3"/><circle cx="127" cy="8" fill="#e87293" r="3"/><circle cx="3" cy="84" fill="#63d48b" r="3"/><path d="m106 81c0 2.7614-2.239 5-5 5-2.7614 0-5-2.2386-5-5s2.2386-5 5-5c2.761 0 5 2.2386 5 5z" fill="#4babd8"/><circle cx="250" cy="63" fill="#e87293" r="3"/><circle cx="200" cy="75" fill="#ffd635" r="3"/></svg>