<svg fill="none" height="30" viewBox="0 0 30 30" width="30" xmlns="http://www.w3.org/2000/svg"><path d="m.5.5h29v29h-29z" stroke="#75f94d"/><g fill="#75f94d"><path clip-rule="evenodd" d="m11.3939 9.38146-1.42118.19812-1.13897.329h-.00407c1.46602-1.77693 3.68632-2.90858 6.16952-2.90858 1.22 0 2.3712.28164 3.4057.76853l-.2862.04329-.7855-.11816-.5552.37077-.3938.43391-1.4288.13395-.5883-.09677-.4034.63408-1.1777.06518-.7371-.21237zm4.7606-2.03565-.817.44971-.4697.29233.3265.21187.7254-.07283.7595-.57805zm-2.8764.66565-.3607-.15024c-.011.0897-.4667.38771-.5192.42203-.0033.00211-.0049.00323-.0049.00323l.5241.30659 1.0901-.28622-.2573-.44563z" fill-rule="evenodd"/><path d="m21.6451 10.5488-.2394.0758-1.275.1136-.3601.575-.2614-.083-1.0146-.9147-.1472-.47567-.1972-.50726-.6377-.57194-.7524-.14718-.0173.34428.7371.71912.3606.42475-.4054.2119-.3301-.0973-.4946-.2063.0168-.39875-.6489-.26687-.2155.93762-.654.1482.0646.523.8522.164.1472-.8357.7035.1039.327.1915h.5247l.3591.7191.952.9656-.0698.3754-.7676-.0978-1.3264.6697-.9551 1.1454-.1243.5073h-.3428l-.6388-.2944-.6204.2944.1544.6544.2699-.3112.4748-.0147-.0331.5877.3932.1151.3927.441.6413-.1802.7325.1156.8507.2286.4248.0499.7202.8175 1.3901.8174-.899 1.7173-.949.4411-.3601.9814-1.3733.9167-.1462.5287c3.5106-.8455 6.1222-3.9985 6.1222-7.7683-.001-1.6466-.5002-3.179-1.3549-4.4507z"/><path d="m15.9197 19.1808-.5827-1.0802.5348-1.1144-.5348-.1599-.6006-.603-1.3305-.2984-.4416-.9239v.5485h-.1946l-1.1466-1.5543v-1.2768l-.8405-1.3665-1.33454.2379h-.89905l-.45232-.2964.57712-.4574-.5756.1329c-.69377 1.1847-1.09821 2.5592-1.09821 4.0316 0 4.4171 3.5814 7.9995 7.9997 7.9995.3403 0 .6739-.03 1.004-.0698l-.0835-.9692s.3672-1.4392.3672-1.4881c-.0005-.0494-.3677-1.2921-.3677-1.2921z"/></g></svg>