<svg fill="none" height="30" viewBox="0 0 30 30" width="30" xmlns="http://www.w3.org/2000/svg"><path d="m.5.5h29v29h-29z" stroke="#75f94d"/><g fill="#75f94d"><path d="m7 7h7v2h-7z"/><path d="m9 7v7h-2v-7z"/><path d="m9 16v7h-2v-7z"/><path d="m14 7v7h-2v-7z"/><path d="m14 16v7h-2v-7z"/><path d="m18 7v7h-2v-7z"/><path d="m23 7v7h-2v-7z"/><path d="m16 7h7v2h-7z"/><path d="m16 12h7v2h-7z"/><path d="m7 12h7v2h-7z"/><path d="m7 16h7v2h-7z"/><path d="m7 21h7v2h-7z"/><path d="m16 16h2v2h-2z"/><path d="m18 18h2v2h-2z"/><path d="m19 19h2v2h-2z"/><path d="m21 16h2v2h-2z"/><path d="m21 21h2v2h-2z"/><path d="m16 21h2v2h-2z"/></g></svg>