<svg xmlns="http://www.w3.org/2000/svg" width="60" height="60" viewBox="0 0 60 60">
  <defs>
    <style>
      .a {
        fill: #fff;
      }
    </style>
  </defs>
  <title>Artboard 8 copy 4</title>
  <g>
    <polygon class="a" points="16.87 29.94 22.44 24.39 16.68 18.57 0.58 29.94 16.68 41.31 22.44 35.49 16.87 29.94"/>
    <polygon class="a" points="30.12 43.07 24.57 37.5 18.75 43.26 30.12 59.36 41.48 43.26 35.66 37.5 30.12 43.07"/>
    <polygon class="a" points="43.48 18.57 37.72 24.39 43.29 29.94 37.72 35.49 43.48 41.31 59.58 29.94 43.48 18.57"/>
    <polygon class="a" points="30.12 16.65 35.66 22.22 41.48 16.46 30.12 0.36 18.75 16.46 24.57 22.22 30.12 16.65"/>
    <rect class="a" x="23.51" y="23.29" width="13.14" height="13.14" transform="translate(-12.3 30.02) rotate(-45)"/>
  </g>
</svg>
