<svg id="Layer_1" data-name="Layer 1" xmlns="http://www.w3.org/2000/svg" viewBox="0 0 784.802 295.795"><defs><style>.cls-1{fill:#fff;}</style></defs><title>poa_logo</title><path class="cls-1" d="M396.219,268.878c-67.974,3.629-128.341-52.06-131.534-121.338-3.13-67.91,51.1-129.093,117.646-132.732,73.163-4,132.938,49.141,137.089,121.875C523.353,205.623,467.972,265.048,396.219,268.878Z"/><path class="cls-1" d="M11.9,141.308c0-34.343.283-68.69-.17-103.027C11.59,27.8,15.167,23.995,25.764,24.09c44.441.4,88.889-.137,133.33.255,49.985.441,91.942,43.057,93.616,94.385,1.574,48.276-37.962,93.594-85.93,98.278a242.125,242.125,0,0,1-24.193,1.036c-7.854-.023-11.592,2.835-12.116,11.258-1.95,31.322-2.173,31.308-33.906,31.308q-33.333,0-66.666-.008c-17.414-.022-17.988-.582-18-17.477Q11.875,192.216,11.9,141.308Z"/><path class="cls-1" d="M633.094,260.608q-63.645,0-127.289-.025c-15.248-.026-18.476-5.46-10.744-18.3Q559.1,135.943,623.33,29.714c7.883-13.036,13.493-12.908,21.482.331q63.82,105.768,127.5,211.619c8.277,13.763,5.324,18.9-10.719,18.921Q697.345,260.685,633.094,260.608Z"/></svg>