<svg xmlns="http://www.w3.org/2000/svg" width="60" height="18">
    <path fill="#5C34A2" fill-rule="evenodd" d="M10.313 14.437h-.938v2.657h-.003l.003.015c0 .492-.42.891-.938.891h-7.5C.42 18 0 17.601 0 17.109l.003-.015H0V.937h.003L0 .922C0 .43.42.031.937.031h9.376c4.142 0 7.499 3.225 7.499 7.203 0 3.979-3.357 7.203-7.499 7.203zM29.062.031c5.178 0 9.375 4.023 9.375 8.985S34.24 18 29.062 18c-5.177 0-9.374-4.022-9.374-8.984S23.885.031 29.062.031zM60 17.43c0 .307-.26.556-.58.556H38.151c-.025.003-.047.014-.073.014a.57.57 0 0 1-.578-.562c0-.123.048-.23.116-.322l-.009-.018L48.165.449h.023a.566.566 0 0 1 .557-.444c.28 0 .502.192.557.444h.023L60 17.209l-.037.048a.51.51 0 0 1 .037.173z"/>
</svg>
