<svg xmlns="http://www.w3.org/2000/svg" width="292.83" height="77" viewBox="0 0 292.83 77">
  <defs>
    <style>
      .a {
        isolation: isolate;
      }

      .b {
        fill: #fff;
      }
    </style>
  </defs>
  <title>rinkeby_logo</title>
  <g class="a">
    <g class="a">
      <path class="b" d="M86.25,33.82a11.69,11.69,0,0,0-1.91-.15,5.13,5.13,0,0,0-5.2,3.26V53.09H75.25V30.33H79L79.1,33a6.06,6.06,0,0,1,5.43-3.05,4,4,0,0,1,1.72.29Z"/>
      <path class="b" d="M100.88,24.29a2.32,2.32,0,0,1,.58-1.6,2.17,2.17,0,0,1,1.71-.65,2.21,2.21,0,0,1,1.72.65,2.3,2.3,0,0,1,.59,1.6,2.3,2.3,0,1,1-4.61,0Zm4.21,28.8h-3.89V30.33h3.89Z"/>
      <path class="b" d="M126,30.33l.13,2.86A8.29,8.29,0,0,1,133,29.91q7.22,0,7.28,8.14v15h-3.89V38a5.24,5.24,0,0,0-1.13-3.64,4.51,4.51,0,0,0-3.44-1.18,5.62,5.62,0,0,0-3.32,1,6.85,6.85,0,0,0-2.23,2.65V53.09h-3.89V30.33Z"/>
    </g>
    <g class="a">
      <path class="b" d="M161.56,42.55l-2.44,2.54v8h-3.89V20.77h3.89V40.32l2.08-2.5,7.09-7.49H173l-8.86,9.51,9.89,13.25h-4.56Z"/>
    </g>
    <g class="a">
      <path class="b" d="M195.64,53.51a9.94,9.94,0,0,1-7.53-3,11.28,11.28,0,0,1-2.9-8.13v-.72a13.66,13.66,0,0,1,1.29-6,10.09,10.09,0,0,1,3.62-4.17,9.1,9.1,0,0,1,5-1.5,8.53,8.53,0,0,1,6.9,2.92q2.46,2.92,2.46,8.37v1.62H189.1a8.09,8.09,0,0,0,2,5.44,6.18,6.18,0,0,0,4.79,2.07,6.78,6.78,0,0,0,3.49-.84,8.78,8.78,0,0,0,2.5-2.23l2.38,1.85A9.56,9.56,0,0,1,195.64,53.51Zm-.48-20.41a5.19,5.19,0,0,0-4,1.71,8.34,8.34,0,0,0-2,4.81h11.4v-.29a7.41,7.41,0,0,0-1.6-4.6A4.89,4.89,0,0,0,195.16,33.1Z"/>
    </g>
    <g class="a">
      <path class="b" d="M238.21,42a13.53,13.53,0,0,1-2.4,8.38,7.66,7.66,0,0,1-6.44,3.17,7.93,7.93,0,0,1-6.67-3.05l-.19,2.63h-3.58V20.77h3.89V32.83a7.89,7.89,0,0,1,6.5-2.92A7.71,7.71,0,0,1,235.84,33q2.37,3.13,2.37,8.58Zm-3.89-.44a10.51,10.51,0,0,0-1.54-6.14,5.08,5.08,0,0,0-4.42-2.17,5.71,5.71,0,0,0-5.53,3.58v9.84a5.87,5.87,0,0,0,5.57,3.58A5.05,5.05,0,0,0,232.76,48Q234.31,45.87,234.31,41.52Z"/>
    </g>
    <g class="a">
      <path class="b" d="M260.76,47.39l5.3-17.06h4.17L261.08,56.6q-2.12,5.68-6.75,5.68l-.74-.06-1.45-.27V58.79l1.05.08a5.18,5.18,0,0,0,3.08-.8,5.79,5.79,0,0,0,1.82-2.92l.86-2.31-8.12-22.51h4.25Z"/>
    </g>
  </g>
  <g class="a">
    <path class="b" d="M18.51,18.53A23,23,0,0,1,30.3,15.38,23,23,0,0,1,42.1,18.53a23.4,23.4,0,0,1,8.55,8.55,23.65,23.65,0,0,1,0,23.59,23.4,23.4,0,0,1-8.55,8.55A23,23,0,0,1,30.3,62.37a23,23,0,0,1-11.79-3.15A23.39,23.39,0,0,1,10,50.67a23.65,23.65,0,0,1,0-23.59A23.39,23.39,0,0,1,18.51,18.53ZM38.69,31.32a1.75,1.75,0,0,0-.29.29.79.79,0,0,1-.41.29s.09-.05.14-.15.1-.21.15-.34a.93.93,0,0,1,.11-.21,2.23,2.23,0,0,1,.67-.46,7.76,7.76,0,0,1,1.59-.37,1.49,1.49,0,0,1,1.56.34s.06-.17.29-.4a2.1,2.1,0,0,1,.44-.37,1.64,1.64,0,0,1,.46-.14.68.68,0,0,0,.46-.23l.06-.67a.54.54,0,0,1-.54-.21,1.29,1.29,0,0,1-.2-.64s-.06.12-.18.25c0-.14,0-.22-.14-.25a.75.75,0,0,0-.35,0,.48.48,0,0,1-.28,0,1.21,1.21,0,0,1-.46-.23,1,1,0,0,1-.24-.5c-.06-.24-.1-.4-.12-.46a.83.83,0,0,0-.29-.32.81.81,0,0,1-.29-.32l-.08-.17-.09-.2a.65.65,0,0,0-.12-.17.24.24,0,0,0-.17-.08c-.06,0-.13.05-.21.15l-.23.31c-.07.1-.12.15-.14.15a.25.25,0,0,0-.18,0l-.14,0a.53.53,0,0,0-.14.09l-.15.11a.69.69,0,0,1-.26.09l-.26.06q.46-.15,0-.34a1,1,0,0,0-.49-.09.32.32,0,0,0,.23-.37.74.74,0,0,0-.26-.43h.15c0-.08-.11-.17-.26-.26a3.8,3.8,0,0,0-.54-.26,2.57,2.57,0,0,1-.4-.18,3.41,3.41,0,0,0-1-.29,1.9,1.9,0,0,0-1,0,.45.45,0,0,0-.14.32,2.06,2.06,0,0,0,.12.43,1.48,1.48,0,0,1,.11.38.48.48,0,0,1-.17.4.6.6,0,0,0-.2.37q0,.21.43.47a.54.54,0,0,1,.31.66,1.11,1.11,0,0,1-.49.49,2,2,0,0,0-.49.37.64.64,0,0,0,0,.57,1.1,1.1,0,0,0,.32.5.13.13,0,0,1,0,.12.3.3,0,0,1-.11.14l-.17.12-.2.11-.09.06a.5.5,0,0,1-.63-.18,2,2,0,0,1-.41-.8c-.14-.51-.31-.82-.49-.92q-.7-.24-.89,0-.15-.4-1.25-.8a3.61,3.61,0,0,0-1.77-.12q.18,0,0-.46t-.58-.37a1.53,1.53,0,0,0,.12-.54q0-.35,0-.41a1.57,1.57,0,0,1,.37-.7l.21-.26a3.51,3.51,0,0,0,.29-.41c.07-.12.08-.18,0-.18a1.8,1.8,0,0,0,1.53-.34,2.35,2.35,0,0,0,.35-.52,3.75,3.75,0,0,1,.32-.52.74.74,0,0,1,.43-.17,1.39,1.39,0,0,1,.44.17,1.07,1.07,0,0,0,.44.15q.43,0,.47-.34a.66.66,0,0,0-.23-.61q.37,0,.09-.52a1.18,1.18,0,0,0-.24-.28,1,1,0,0,0-.83.15c-.16.08-.14.16.06.24t-.29.32a2.6,2.6,0,0,1-.5.54q-.25.18-.49-.15a2.42,2.42,0,0,1-.17-.41q-.14-.38-.29-.41t-.49.46q.09-.24-.34-.46a2.21,2.21,0,0,0-.73-.25q.58-.37-.25-.83a1.52,1.52,0,0,0-.63-.15.83.83,0,0,0-.6.12.82.82,0,0,0-.17.35.26.26,0,0,0,.15.25,1.87,1.87,0,0,0,.32.17l.35.12.26.09q.43.31.24.43l-.26.11-.35.14a.35.35,0,0,0-.18.12.5.5,0,0,0,0,.43q.09.31-.06.43a1.33,1.33,0,0,1-.28-.54,2,2,0,0,0-.21-.5q.21.28-.76.18l-.31,0a3.82,3.82,0,0,0-.49.06,2.26,2.26,0,0,1-.63,0,.57.57,0,0,1-.41-.24.79.79,0,0,1,0-.61c0-.08.06-.1.12-.06a4.39,4.39,0,0,1-.34-.29,3.08,3.08,0,0,0-.31-.26,17.32,17.32,0,0,0-2.88,1.25.75.75,0,0,0,.37,0,3.53,3.53,0,0,0,.4-.2l.31-.17q1-.43,1.29-.21l.15-.15a8.11,8.11,0,0,1,.61.77,1.74,1.74,0,0,0-.92,0q-.61.18-.67.37a.75.75,0,0,1,.15.55l-.35-.31a2.46,2.46,0,0,0-.44-.34,1.23,1.23,0,0,0-.46-.15,4.93,4.93,0,0,0-.67,0,19.31,19.31,0,0,0-7.19,6.79.8.8,0,0,0,.37.25q.12,0,.15.28a1.16,1.16,0,0,0,.08.34q0,.09.35-.09a.43.43,0,0,1,.09.58,11.26,11.26,0,0,1,1.35.83,4.27,4.27,0,0,1,.64.64q.09.34-.31.55a1.63,1.63,0,0,0-.28-.28c-.16-.14-.26-.18-.28-.12a.82.82,0,0,0,0,.57c.07.28.18.4.32.38-.14,0-.24.16-.29.49A7,7,0,0,0,15.86,34a4.6,4.6,0,0,1,0,.72l.06,0a1.9,1.9,0,0,0,.17,1.06q.26.69.66.6-.4.09.61,1.32a1.16,1.16,0,0,0,.24.28l.37.23q.28.17.46.31a1.32,1.32,0,0,1,.31.32,2.72,2.72,0,0,1,.31.69,1.49,1.49,0,0,0,.43.72q-.06.18.29.61a1.06,1.06,0,0,1,.32.7l-.08,0-.08,0a1,1,0,0,0,.47.43,1.16,1.16,0,0,1,.47.4,2,2,0,0,1,.06.31,1.1,1.1,0,0,0,.09.34c0,.08.12.1.24.06a3.6,3.6,0,0,0-.73-1.9q-.46-.76-.52-.89a1.77,1.77,0,0,1-.17-.47,2.39,2.39,0,0,0-.14-.44.6.6,0,0,1,.18,0l.26.11.23.12c.06,0,.08.07.06.09a.64.64,0,0,0,.06.54,2.44,2.44,0,0,0,.37.57l.52.58.37.4a3.17,3.17,0,0,1,.43.6q.24.41,0,.41a1,1,0,0,1,.61.31,2.77,2.77,0,0,1,.52.61,2.29,2.29,0,0,1,.25.79,5.82,5.82,0,0,0,.15.73,1,1,0,0,0,.26.41,1.52,1.52,0,0,0,.38.29l.49.24.4.21a4.6,4.6,0,0,1,.57.32,4,4,0,0,0,.66.35,1.4,1.4,0,0,0,.49.12,1.62,1.62,0,0,0,.44-.08l.41-.11a1,1,0,0,1,.89.46,3,3,0,0,0,.64.64,2.1,2.1,0,0,0,1.68.34s0,.1,0,.23a3,3,0,0,0,.25.47l.28.44.17.26a2.92,2.92,0,0,0,.55.46,2.92,2.92,0,0,1,.55.46.45.45,0,0,0,.21-.28q-.09.24.21.61t.55.31q.43-.09.43-1a1,1,0,0,1-1.5-.55.62.62,0,0,0-.08-.17,1.82,1.82,0,0,1-.2-.52.43.43,0,0,1,0-.23A.14.14,0,0,1,32.6,49c.18,0,.29,0,.31-.11a.77.77,0,0,0-.06-.38c-.06-.18-.1-.32-.12-.4a1.33,1.33,0,0,0-.34-.61q-.31-.37-.37-.46a.47.47,0,0,1-.49.25A.6.6,0,0,1,31,47a.87.87,0,0,1,0,.17.72.72,0,0,0,0,.2,1.74,1.74,0,0,1-.46,0,3.89,3.89,0,0,0,.08-.54,5.13,5.13,0,0,1,.11-.69,1.66,1.66,0,0,1,.17-.37q.14-.24.23-.44a1.49,1.49,0,0,0,.12-.38.27.27,0,0,0-.14-.29.89.89,0,0,0-.54-.08.85.85,0,0,0-.8.61c0,.06-.05.17-.09.32a1,1,0,0,1-.15.35.77.77,0,0,1-.28.21A2.58,2.58,0,0,1,27.73,46a1.93,1.93,0,0,1-.69-.89A2.8,2.8,0,0,1,26.76,44a5.72,5.72,0,0,1,.08-.81q.08-.51.09-.76a2,2,0,0,0-.17-.75,1.55,1.55,0,0,0,.28-.29,1.85,1.85,0,0,1,.31-.32l.14,0a.3.3,0,0,1,.14,0,.13.13,0,0,0,.12,0,.4.4,0,0,0,.09-.18l-.12-.09c-.06-.06-.1-.09-.12-.09a1.76,1.76,0,0,0,.87,0c.44-.09.72-.08.84,0q.46.34.67-.06a2.52,2.52,0,0,0-.08-.29.64.64,0,0,1,0-.41q.15.83.89.28a1,1,0,0,0,.47.15,1.62,1.62,0,0,1,.54.15l.21.17.17.14s.08,0,.15,0a.93.93,0,0,0,.26-.2,2,2,0,0,1,.37.73q.34,1.22.58,1.35a.56.56,0,0,0,.34.06c.08,0,.13-.12.14-.29a3,3,0,0,0,0-.43c0-.11,0-.24,0-.38l0-.25v-.55l0-.24a.69.69,0,0,1-.57-.37.65.65,0,0,1,0-.57,2.06,2.06,0,0,1,.46-.57,1,1,0,0,1,.24-.11l.47-.2a1.38,1.38,0,0,0,.38-.24q.64-.58.46-1.07.21,0,.34-.28a.44.44,0,0,1-.15-.09l-.23-.15-.14-.06q.28-.15.06-.49a.57.57,0,0,0,.23-.34.44.44,0,0,1,.23-.31.39.39,0,0,0,.64.06.35.35,0,0,0,0-.49,1,1,0,0,1,.63-.32q.47-.11.57-.29c.14,0,.22,0,.25-.06a1.66,1.66,0,0,0,0-.37A.61.61,0,0,1,38,33.8a1,1,0,0,1,.46-.28l.4-.15.52-.34c.06-.08.06-.12,0-.12a1.11,1.11,0,0,0,.95-.34q.31-.34-.18-.61a.2.2,0,0,0-.09-.29,1.61,1.61,0,0,0-.46-.17,1.13,1.13,0,0,1,.35,0c.17,0,.28,0,.32,0q.46-.31-.21-.49A1.66,1.66,0,0,0,38.69,31.32Zm-5,26.83a18.94,18.94,0,0,0,10.74-5.78.73.73,0,0,0-.38-.14,1.11,1.11,0,0,1-.38-.11,4.86,4.86,0,0,0-.73-.25.6.6,0,0,0-.08-.4.83.83,0,0,0-.24-.28L42.24,51l-.34-.21-.21-.18-.21-.17-.23-.14A.36.36,0,0,0,41,50.2a1.06,1.06,0,0,1-.31,0l-.09,0-.17.08-.17.09a.32.32,0,0,0-.12.09s0,.06,0,.08a3.8,3.8,0,0,0-1.1-.67.85.85,0,0,1-.34-.17,2.88,2.88,0,0,0-.32-.21.45.45,0,0,0-.31,0,.7.7,0,0,0-.35.21.73.73,0,0,0-.18.46,2.36,2.36,0,0,1-.06.4q-.21-.15,0-.54t.06-.57a.26.26,0,0,0-.32-.14,1,1,0,0,0-.37.14l-.35.26-.28.2-.26.17a1,1,0,0,0-.26.23,1.49,1.49,0,0,0-.18.37,1.86,1.86,0,0,1-.15.34q-.06-.12-.35-.2c-.19,0-.29-.11-.29-.17q.06.31.12,1.07A8.47,8.47,0,0,0,35,52.89a1.41,1.41,0,0,1-.37,1.47,2.52,2.52,0,0,0-.89,1.22q-.12.67.37.8a1.42,1.42,0,0,1-.24.63,1.13,1.13,0,0,0-.21.66A2.61,2.61,0,0,0,33.7,58.15Z"/>
  </g>
</svg>
