<svg id="_-e-logo_top" data-name="-e-logo_top" xmlns="http://www.w3.org/2000/svg" width="120" height="28"><defs><style>.cls-1{fill:#213853;fill-rule:evenodd}</style></defs><path id="Forma_1" data-name="Forma 1" class="cls-1" d="M111.124 23.972a13.941 13.941 0 0 0-5.095-5.1 14.092 14.092 0 0 0-14.057 0 13.939 13.939 0 0 0-5.1 5.1 14.092 14.092 0 0 0 0 14.057 13.946 13.946 0 0 0 5.1 5.1 14.094 14.094 0 0 0 14.057 0 13.94 13.94 0 0 0 5.095-5.1 14.091 14.091 0 0 0 0-14.057zm-10.373 14.4a.386.386 0 0 1-.127-.372.267.267 0 0 1-.128.164 1.738 1.738 0 0 0-.328-.273 1.733 1.733 0 0 1-.328-.274q-.037-.054-.1-.155c-.043-.067-.1-.155-.164-.264a1.865 1.865 0 0 1-.145-.283c-.03-.079-.033-.125-.009-.136a1.247 1.247 0 0 1-1-.2 1.8 1.8 0 0 1-.383-.383.594.594 0 0 0-.529-.274 2.709 2.709 0 0 0-.246.064.961.961 0 0 1-.264.045.837.837 0 0 1-.3-.071 2.368 2.368 0 0 1-.392-.21 2.6 2.6 0 0 0-.337-.191l-.237-.128-.292-.145a.9.9 0 0 1-.228-.173.575.575 0 0 1-.155-.246 3.5 3.5 0 0 1-.091-.437 1.368 1.368 0 0 0-.146-.474 1.644 1.644 0 0 0-.31-.364.574.574 0 0 0-.364-.182c.1 0 .1-.082 0-.246a1.865 1.865 0 0 0-.255-.356q-.037-.036-.219-.237c-.121-.134-.225-.249-.31-.347a1.465 1.465 0 0 1-.219-.337.387.387 0 0 1-.037-.319c.012-.012 0-.031-.037-.055a.906.906 0 0 0-.137-.073 4.016 4.016 0 0 0-.155-.064.353.353 0 0 0-.109-.027 1.4 1.4 0 0 1 .082.265 1.048 1.048 0 0 0 .1.283q.037.073.31.529a2.147 2.147 0 0 1 .438 1.131.106.106 0 0 1-.146-.036.66.66 0 0 1-.055-.2 1.159 1.159 0 0 0-.037-.182.684.684 0 0 0-.283-.237.62.62 0 0 1-.283-.255.084.084 0 0 0 .046-.018.089.089 0 0 1 .046-.018.627.627 0 0 0-.191-.419.49.49 0 0 1-.173-.365.89.89 0 0 1-.255-.428 1.611 1.611 0 0 0-.182-.41.781.781 0 0 0-.182-.191q-.109-.082-.273-.182t-.219-.137a.708.708 0 0 1-.146-.164q-.6-.73-.365-.784-.237.055-.392-.356a1.136 1.136 0 0 1-.1-.629l-.036-.018a2.718 2.718 0 0 0 .018-.429 4.22 4.22 0 0 1 .046-.647q.046-.292.173-.292c-.085.012-.149-.064-.191-.228a.488.488 0 0 1-.009-.337c.012-.037.067-.012.164.073a.934.934 0 0 1 .164.164.277.277 0 0 0 .182-.328 2.5 2.5 0 0 0-.383-.383 6.753 6.753 0 0 0-.8-.492.256.256 0 0 0-.055-.346q-.182.11-.21.055a.709.709 0 0 1-.046-.2.167.167 0 0 0-.091-.164.482.482 0 0 1-.219-.146 11.506 11.506 0 0 1 4.283-4.055 2.9 2.9 0 0 1 .4-.018.727.727 0 0 1 .273.091 1.438 1.438 0 0 1 .264.2q.137.127.21.182a.446.446 0 0 0-.091-.328.62.62 0 0 1 .4-.219 1.033 1.033 0 0 1 .547.018 4.782 4.782 0 0 0-.365-.456l-.091.091a.936.936 0 0 0-.766.128c-.024.012-.085.046-.182.1a2.154 2.154 0 0 1-.237.119.45.45 0 0 1-.219.018 10.343 10.343 0 0 1 1.714-.748 1.809 1.809 0 0 1 .182.155q.127.119.2.173c-.036-.024-.061-.012-.073.037a.471.471 0 0 0 0 .364.339.339 0 0 0 .246.146 1.357 1.357 0 0 0 .374-.018 2.263 2.263 0 0 1 .292-.037l.182.018q.583.055.456-.11a1.169 1.169 0 0 1 .127.3.809.809 0 0 0 .164.319.223.223 0 0 0 .036-.255.3.3 0 0 1 0-.255.208.208 0 0 1 .109-.073l.21-.082a2.55 2.55 0 0 0 .155-.064q.109-.073-.146-.255a1.221 1.221 0 0 0-.155-.055 2.78 2.78 0 0 1-.21-.073 1.163 1.163 0 0 1-.191-.1.156.156 0 0 1-.091-.146.336.336 0 0 1 .456-.283.9.9 0 0 1 .374.091q.492.274.146.492a1.307 1.307 0 0 1 .438.146q.255.128.2.274a.407.407 0 0 1 .292-.274.345.345 0 0 1 .173.246 1.483 1.483 0 0 0 .1.246c.1.134.194.164.292.091a1.541 1.541 0 0 0 .3-.319.492.492 0 0 1 .173-.191c-.121-.048-.134-.1-.036-.146a.583.583 0 0 1 .492-.091.708.708 0 0 1 .146.164c.109.219.09.322-.055.31a.4.4 0 0 1 .137.365.225.225 0 0 1-.283.2.646.646 0 0 1-.265-.091.814.814 0 0 0-.264-.1.439.439 0 0 0-.255.1 2.292 2.292 0 0 0-.191.31 1.394 1.394 0 0 1-.21.31 1.075 1.075 0 0 1-.912.2c.037 0 .033.037-.009.109a2.1 2.1 0 0 1-.173.246q-.109.137-.127.155a.928.928 0 0 0-.219.419q0 .037-.018.246a.92.92 0 0 1-.073.319.3.3 0 0 1 .346.219q.109.255 0 .274a2.153 2.153 0 0 1 1.058.073 1.245 1.245 0 0 1 .748.474.447.447 0 0 1 .529-.018.922.922 0 0 1 .292.547 1.164 1.164 0 0 0 .246.474.3.3 0 0 0 .374.11l.054-.037c.049-.024.088-.046.119-.064a.876.876 0 0 0 .1-.073.17.17 0 0 0 .063-.082.076.076 0 0 0-.027-.073.656.656 0 0 1-.191-.3.386.386 0 0 1 .027-.338 1.243 1.243 0 0 1 .292-.219.66.66 0 0 0 .292-.292.321.321 0 0 0-.182-.392.423.423 0 0 1-.256-.283.358.358 0 0 1 .119-.219.286.286 0 0 0 .1-.237.863.863 0 0 0-.056-.228 1.19 1.19 0 0 1-.072-.255.268.268 0 0 1 .081-.191 1.131 1.131 0 0 1 .6.009 2.031 2.031 0 0 1 .62.173 1.663 1.663 0 0 0 .237.11 2.2 2.2 0 0 1 .32.155.308.308 0 0 1 .154.155h-.09a.439.439 0 0 1 .155.255.19.19 0 0 1-.137.219.572.572 0 0 1 .292.055q.293.109.018.2a1.19 1.19 0 0 1 .155-.037.418.418 0 0 0 .155-.055.5.5 0 0 0 .091-.064.292.292 0 0 1 .082-.054.549.549 0 0 1 .082-.018.149.149 0 0 1 .109.027.228.228 0 0 0 .082-.091c.042-.061.088-.122.137-.182a.192.192 0 0 1 .129-.087.139.139 0 0 1 .1.045.368.368 0 0 1 .073.1c.018.037.037.076.055.118s.033.076.045.1a.485.485 0 0 0 .173.191.484.484 0 0 1 .173.191c.013.037.037.128.073.274a.612.612 0 0 0 .146.3.717.717 0 0 0 .273.137.288.288 0 0 0 .164-.018.437.437 0 0 1 .21-.018.125.125 0 0 1 .082.146.341.341 0 0 0 .109-.146.778.778 0 0 0 .119.383.324.324 0 0 0 .319.128l-.036.4a.41.41 0 0 1-.274.137 1 1 0 0 0-.274.082 1.268 1.268 0 0 0-.264.219.348.348 0 0 0-.173.237.889.889 0 0 0-.93-.2 4.574 4.574 0 0 0-.948.219 1.33 1.33 0 0 0-.4.273.6.6 0 0 0-.064.128c-.03.073-.06.14-.09.2a.134.134 0 0 1-.083.091.469.469 0 0 0 .247-.173A1.047 1.047 0 0 1 104 26.5a.98.98 0 0 1 .785-.217q.4.11.127.292a.286.286 0 0 1-.191.027.663.663 0 0 0-.21.009.959.959 0 0 1 .274.1.119.119 0 0 1 .055.173q.291.164.109.365a.659.659 0 0 1-.565.2q.054 0 0 .073l-.311.2q-.036.018-.237.091a.623.623 0 0 0-.273.164.366.366 0 0 0-.055.219.983.983 0 0 1-.018.219c-.012.049-.061.061-.146.037a.487.487 0 0 1-.337.173.617.617 0 0 0-.374.191.21.21 0 0 1-.018.292.233.233 0 0 1-.383-.037.265.265 0 0 0-.137.183.339.339 0 0 1-.136.2c.085.134.072.231-.036.292a.246.246 0 0 1 .081.037 1.317 1.317 0 0 1 .137.091.274.274 0 0 0 .091.055.224.224 0 0 1-.2.164.6.6 0 0 1-.273.638.836.836 0 0 1-.228.146 3.059 3.059 0 0 1-.283.118.587.587 0 0 0-.145.064 1.241 1.241 0 0 0-.274.337.389.389 0 0 0-.027.337.411.411 0 0 0 .337.219l.018.146v.328l.018.146c.013.085.022.161.028.228a1.792 1.792 0 0 1 0 .255.164.164 0 0 1-.082.173.33.33 0 0 1-.2-.036 1.613 1.613 0 0 1-.347-.8 1.236 1.236 0 0 0-.219-.438.55.55 0 0 1-.155.118.1.1 0 0 1-.091.009A1.207 1.207 0 0 1 100 32a1.232 1.232 0 0 0-.128-.1.97.97 0 0 0-.319-.091.588.588 0 0 1-.282-.091q-.438.329-.529-.164a.387.387 0 0 0 .009.246 1.431 1.431 0 0 1 .046.173q-.128.237-.4.036a.6.6 0 0 0-.5-.027 1.048 1.048 0 0 1-.52.027.168.168 0 0 1 .073.055.493.493 0 0 1 .073.055.231.231 0 0 1-.055.109.076.076 0 0 1-.073.027.193.193 0 0 0-.082 0 .32.32 0 0 0-.082.027 1.129 1.129 0 0 0-.182.191.9.9 0 0 1-.164.173 1.2 1.2 0 0 1 .1.446q-.009.155-.055.456a3.358 3.358 0 0 0-.046.483 1.677 1.677 0 0 0 .173.675 1.155 1.155 0 0 0 .41.529 1.548 1.548 0 0 0 .875.054.45.45 0 0 0 .164-.127.616.616 0 0 0 .091-.21q.037-.136.055-.191a.5.5 0 0 1 .474-.365.532.532 0 0 1 .319.046.16.16 0 0 1 .082.173.91.91 0 0 1-.072.228 3.824 3.824 0 0 1-.137.264 1.025 1.025 0 0 0-.1.219 3.026 3.026 0 0 0-.064.41 2.241 2.241 0 0 1-.046.319 1.048 1.048 0 0 0 .274.018.431.431 0 0 1 .027-.118.526.526 0 0 0 .027-.1.36.36 0 0 0 .292.164.277.277 0 0 0 .292-.146q.038.055.219.274a.782.782 0 0 1 .2.365q.018.073.072.237a.454.454 0 0 1 .037.228.173.173 0 0 1-.182.063.084.084 0 0 0-.091.055.242.242 0 0 0 0 .137 1.156 1.156 0 0 0 .045.155 1.307 1.307 0 0 0 .073.155.343.343 0 0 1 .046.1.613.613 0 0 0 .893.328.506.506 0 0 1-.255.583.358.358 0 0 1-.326-.186zm.273 4.119a1.412 1.412 0 0 1-.035-.291.668.668 0 0 1 .127-.392.847.847 0 0 0 .146-.374.346.346 0 0 1-.219-.474 1.5 1.5 0 0 1 .528-.729.84.84 0 0 0 .219-.875 5.147 5.147 0 0 1-.091-.693 6.045 6.045 0 0 0-.073-.638.2.2 0 0 0 .174.1.314.314 0 0 1 .209.118 1.086 1.086 0 0 0 .091-.2.942.942 0 0 1 .109-.219.611.611 0 0 1 .156-.137 1.628 1.628 0 0 1 .154-.1 1.442 1.442 0 0 0 .164-.119q.127-.1.21-.155a.6.6 0 0 1 .219-.082.156.156 0 0 1 .191.082.3.3 0 0 1-.036.337q-.127.228 0 .319a1.416 1.416 0 0 0 .036-.238.435.435 0 0 1 .11-.274.41.41 0 0 1 .209-.127.262.262 0 0 1 .182.027 1.619 1.619 0 0 1 .192.128.51.51 0 0 0 .2.1 2.258 2.258 0 0 1 .656.4.033.033 0 0 1 0-.046.2.2 0 0 1 .073-.055c.037-.018.07-.036.1-.055a.477.477 0 0 1 .1-.045l.054-.018a.615.615 0 0 0 .182-.018.208.208 0 0 1 .155.037 1.191 1.191 0 0 1 .137.082c.024.018.067.051.127.1a1.661 1.661 0 0 1 .128.109c.036.024.1.067.2.128s.174.109.228.145a.477.477 0 0 1 .146.163.364.364 0 0 1 .046.238 2.887 2.887 0 0 1 .437.146.658.658 0 0 0 .228.063.435.435 0 0 1 .228.082 11.267 11.267 0 0 1-6.397 3.445z" transform="translate(-85 -17)"/><path id="rinkeby" class="cls-1" d="M127.527 26.82l-.262.018a3.914 3.914 0 0 0-1.66.483 2.762 2.762 0 0 0-1.115 1.2v-1a.654.654 0 0 0-.207-.509.723.723 0 0 0-.506-.188.821.821 0 0 0-.544.188.649.649 0 0 0-.225.527v7.545a.662.662 0 0 0 .216.528.913.913 0 0 0 1.1.009.673.673 0 0 0 .206-.536v-4.349a2.664 2.664 0 0 1 .609-1.743 2.579 2.579 0 0 1 1.861-.85l.563-.054a.918.918 0 0 0 .581-.206.617.617 0 0 0 .169-.456.6.6 0 0 0-.788-.608zm6.62 8.976a.8.8 0 0 0 .544-.179.673.673 0 0 0 .206-.536v-7.546a.679.679 0 0 0-.206-.527.778.778 0 0 0-.544-.188.812.812 0 0 0-.553.188.662.662 0 0 0-.216.527v7.545a.662.662 0 0 0 .216.528.812.812 0 0 0 .553.188zm0-10.853a1.061 1.061 0 0 0 .732-.25.844.844 0 0 0 .281-.662.824.824 0 0 0-.281-.644 1.194 1.194 0 0 0-1.463 0 .821.821 0 0 0-.281.644.84.84 0 0 0 .281.662 1.056 1.056 0 0 0 .731.25zm11.927 1.842a3.922 3.922 0 0 0-1.838.42 3 3 0 0 0-1.256 1.225v-.913a.679.679 0 0 0-.2-.5.724.724 0 0 0-.535-.2.781.781 0 0 0-.562.2.682.682 0 0 0-.207.518v7.545a.676.676 0 0 0 .207.528.8.8 0 0 0 .562.188.772.772 0 0 0 .554-.188.7.7 0 0 0 .2-.528v-4.362a2.645 2.645 0 0 1 .751-1.985 2.744 2.744 0 0 1 2.005-.733 2.032 2.032 0 0 1 1.585.554 2.611 2.611 0 0 1 .5 1.77v4.756a.675.675 0 0 0 .206.528.8.8 0 0 0 .563.188.771.771 0 0 0 .553-.188.7.7 0 0 0 .2-.528v-4.845q0-3.451-3.282-3.451zm17.1 7.778l-4.05-3.361 3.694-3.147a.7.7 0 0 0 .263-.537.621.621 0 0 0-.207-.465.682.682 0 0 0-.487-.2.717.717 0 0 0-.507.215l-4.48 3.918v-7.259a.665.665 0 0 0-.216-.527.786.786 0 0 0-.535-.188.812.812 0 0 0-.553.188.661.661 0 0 0-.215.527v11.354a.661.661 0 0 0 .215.528.812.812 0 0 0 .553.188.786.786 0 0 0 .535-.188.665.665 0 0 0 .216-.528v-3.523l4.894 4.023a.812.812 0 0 0 .506.215.654.654 0 0 0 .479-.2.635.635 0 0 0 .2-.465.77.77 0 0 0-.3-.572zm12.734-.876a1.822 1.822 0 0 0-.656.268 8.4 8.4 0 0 1-1.126.51 3.738 3.738 0 0 1-1.256.188q-2.888 0-3.057-3.075h6.039a.639.639 0 0 0 .487-.161.745.745 0 0 0 .15-.518 4.19 4.19 0 0 0-1.05-3 3.716 3.716 0 0 0-2.832-1.109 4.382 4.382 0 0 0-2.241.572 3.943 3.943 0 0 0-1.528 1.6 4.987 4.987 0 0 0-.544 2.369 4.407 4.407 0 0 0 1.229 3.308 4.585 4.585 0 0 0 3.347 1.2 6.02 6.02 0 0 0 1.463-.188 5.826 5.826 0 0 0 1.425-.563 1.039 1.039 0 0 0 .656-.822.579.579 0 0 0-.15-.411.471.471 0 0 0-.356-.161zm-3.282-5.775a2.386 2.386 0 0 1 1.838.706 3.009 3.009 0 0 1 .694 2.029h-5.307a3.19 3.19 0 0 1 .853-2.02 2.611 2.611 0 0 1 1.922-.715zm14.44-1.126a3.752 3.752 0 0 0-1.866.447 2.927 2.927 0 0 0-1.21 1.269v-4.793a.668.668 0 0 0-.2-.51.77.77 0 0 0-.553-.188.779.779 0 0 0-.562.2.661.661 0 0 0-.207.5v11.37a.682.682 0 0 0 .207.519.779.779 0 0 0 .562.2.748.748 0 0 0 .553-.2.7.7 0 0 0 .2-.519v-.966a2.922 2.922 0 0 0 1.21 1.269 3.749 3.749 0 0 0 1.866.447 3.925 3.925 0 0 0 2.119-.572 3.835 3.835 0 0 0 1.425-1.6 5.332 5.332 0 0 0 .506-2.387 5.234 5.234 0 0 0-.506-2.36 3.731 3.731 0 0 0-1.425-1.573 4.025 4.025 0 0 0-2.119-.554zm-.3 7.849a2.522 2.522 0 0 1-2.054-.867 3.743 3.743 0 0 1-.722-2.459 3.706 3.706 0 0 1 .722-2.45 2.535 2.535 0 0 1 2.056-.859 2.561 2.561 0 0 1 2.062.858 3.61 3.61 0 0 1 .732 2.414 3.78 3.78 0 0 1-.732 2.476 2.525 2.525 0 0 1-2.062.885zm16.839-7.367l-3.131 6.669-3.132-6.705a.72.72 0 0 0-.638-.411.883.883 0 0 0-.553.2.577.577 0 0 0-.253.465.512.512 0 0 0 .075.268l3.713 7.653-1.313 2.7a.611.611 0 0 0-.075.286.533.533 0 0 0 .216.438.784.784 0 0 0 .5.17.719.719 0 0 0 .638-.411l5.268-10.84a.566.566 0 0 0-.15-.733.794.794 0 0 0-.506-.179.687.687 0 0 0-.657.429z" transform="translate(-85 -17)"/></svg>
