<svg xmlns="http://www.w3.org/2000/svg" width="298" height="60" viewBox="0 0 298 60">
  <defs>
    <style>
      .a {
        fill: #fff;
      }

      .b {
        opacity: 0.1;
      }
    </style>
  </defs>
  <title>Artboard 8 copy 3</title>
  <g>
    <g>
      <path class="a" d="M80.69,21.26a4.35,4.35,0,0,0-4,2.46,14.76,14.76,0,0,0-1.38,7.12,12.8,12.8,0,0,0,1.55,6.85,5,5,0,0,0,4.43,2.46A8.47,8.47,0,0,0,85.25,39V37.5a8.84,8.84,0,0,1-3.87,1.12,3.54,3.54,0,0,1-3.3-2c-.73-1.32-1.1-3.3-1.12-6.32h9V29.22a17.24,17.24,0,0,0-1.74-5.81A4,4,0,0,0,80.69,21.26ZM77,29.57Q77.31,23,80.59,23a2.76,2.76,0,0,1,2.47,1.78A10.53,10.53,0,0,1,84,29.57Z"/>
      <path class="a" d="M102.23,38a5.22,5.22,0,0,1-.39-2.43V22.78h3V21.27h-3V17.5h-1l-.48,4.55-1.5.49v1h1.51V36.45q0,4.21,2.71,4.21a4.3,4.3,0,0,0,1.82-.33v-1.9a3.83,3.83,0,0,1-1.27.19A1.46,1.46,0,0,1,102.23,38Z"/>
      <path class="a" d="M123.94,21.42a4,4,0,0,0-2.28.75A4.52,4.52,0,0,0,120,24.29h-.14q.07-.78.07-1.95V13.73h-1.51V40.14H120v-10a11.14,11.14,0,0,1,1-5.4,3.23,3.23,0,0,1,3-1.71,2.37,2.37,0,0,1,2.16,1,6.79,6.79,0,0,1,.66,3.5V40.14h1.51V27.47a8.44,8.44,0,0,0-1-4.54A3.65,3.65,0,0,0,123.94,21.42Z"/>
      <path class="a" d="M147.89,21.26a4.35,4.35,0,0,0-4,2.46,14.76,14.76,0,0,0-1.38,7.12,12.78,12.78,0,0,0,1.55,6.85,4.94,4.94,0,0,0,4.43,2.46A8.15,8.15,0,0,0,152.4,39V37.5a8.5,8.5,0,0,1-3.82,1.12,3.54,3.54,0,0,1-3.3-2c-.73-1.32-1.1-3.3-1.12-6.32h9V29.22a16.28,16.28,0,0,0-1.69-5.81A4,4,0,0,0,147.89,21.26Zm-3.71,8.31q.32-6.55,3.6-6.55a2.76,2.76,0,0,1,2.47,1.78,10.53,10.53,0,0,1,.91,4.78Z"/>
      <path class="a" d="M169,25h-.11l-.16-3h-1.24V40.14H169V30.44a15.46,15.46,0,0,1,.43-3.76A7.06,7.06,0,0,1,170.6,24a2.11,2.11,0,0,1,1.63-1,2.87,2.87,0,0,1,1.17.25l.36-1.6a4.67,4.67,0,0,0-1.5-.24Q170.2,21.49,169,25Z"/>
      <path class="a" d="M191,22.77a5.15,5.15,0,0,1,2.92.92l.82-1.39a6.22,6.22,0,0,0-3.67-1,4.65,4.65,0,0,0-3.37,1.28,4.32,4.32,0,0,0-1.32,3.24,5.21,5.21,0,0,0,.38,2.08,5.32,5.32,0,0,0,1.06,1.58,14.85,14.85,0,0,0,2.54,1.88,8.16,8.16,0,0,1,2.21,1.88,3.48,3.48,0,0,1,.58,2,3.63,3.63,0,0,1-.8,2.46,2.79,2.79,0,0,1-2.22.92,6,6,0,0,1-2.1-.38,4.48,4.48,0,0,1-1.64-1v1.86a5.3,5.3,0,0,0,1.46.7,6.79,6.79,0,0,0,2.18.32,4.52,4.52,0,0,0,3.49-1.3,5.08,5.08,0,0,0,1.21-3.6,5.6,5.6,0,0,0-.33-2,4.75,4.75,0,0,0-1-1.58,15.12,15.12,0,0,0-2.48-1.9,8.74,8.74,0,0,1-2.42-2,3.42,3.42,0,0,1-.57-2,2.94,2.94,0,0,1,.84-2.19A3,3,0,0,1,191,22.77Z"/>
      <path class="a" d="M213.32,21.26q-5.56,0-5.56,9.4a14.18,14.18,0,0,0,1.41,7,4.47,4.47,0,0,0,4.08,2.44,4.58,4.58,0,0,0,4.15-2.44,13.9,13.9,0,0,0,1.45-7,13.69,13.69,0,0,0-1.46-6.94A4.52,4.52,0,0,0,213.32,21.26Zm0,17.37a3.08,3.08,0,0,1-2.94-2,14.67,14.67,0,0,1-.94-6,14.73,14.73,0,0,1,.91-5.92,3.07,3.07,0,0,1,3-2q3.9,0,3.9,7.9T213.29,38.63Z"/>
      <path class="a" d="M238.09,22.77a5,5,0,0,1,2.06.52l.62-1.41a5.78,5.78,0,0,0-2.82-.62,4.49,4.49,0,0,0-4.13,2.44,14.51,14.51,0,0,0-1.4,7.1,14.07,14.07,0,0,0,1.38,7,4.48,4.48,0,0,0,4.12,2.37,6.87,6.87,0,0,0,1.39-.17,4.94,4.94,0,0,0,1.36-.47V38.16a7.24,7.24,0,0,1-2.58.53q-4,0-4-7.93T238.09,22.77Z"/>
      <path class="a" d="M255.46,15a1,1,0,0,0-.8.42,2,2,0,0,0-.31,1.17,1.93,1.93,0,0,0,.31,1.15,1,1,0,0,0,.8.43.82.82,0,0,0,.72-.43,2.15,2.15,0,0,0,.27-1.15,2.18,2.18,0,0,0-.27-1.17A.82.82,0,0,0,255.46,15Z"/>
      <rect class="a" x="255" y="22.03" width="1.51" height="18.11"/>
      <path class="a" d="M275.71,21.26a7.43,7.43,0,0,0-4,1.17l.69,1.26a6,6,0,0,1,3.19-1,2.22,2.22,0,0,1,2.11,1.16,8.54,8.54,0,0,1,.67,3.71v1.51l-2,.1A6.48,6.48,0,0,0,272,30.81a5.48,5.48,0,0,0-1.56,4.12,6.09,6.09,0,0,0,1.08,3.8,3.41,3.41,0,0,0,2.86,1.42c1.77,0,3.08-1,4-3h.07l.2,2.26h1.28v-12a8.35,8.35,0,0,0-1-4.74A3.67,3.67,0,0,0,275.71,21.26Zm2.69,11.06a9.83,9.83,0,0,1-.95,4.77,2.93,2.93,0,0,1-2.66,1.69,2.27,2.27,0,0,1-1.91-.92,4.78,4.78,0,0,1-.7-2.9,4.43,4.43,0,0,1,1.06-3.21,4.72,4.72,0,0,1,3.26-1.21l1.9-.1v1.89Z"/>
      <rect class="a" x="294.99" y="13.73" width="1.51" height="26.41"/>
    </g>
    <g>
      <g>
        <path class="a" d="M55.33,30.18l-.26,0L55.82,18V17a7.36,7.36,0,0,0-2.29-3.18l-.76-.44-21-12.13L31.12.9A4.55,4.55,0,0,0,29.8.51L43.46,23.33Z"/>
        <path class="a" d="M45.49,36.18l-9.33,5.38,1.56.92.23.13A3.17,3.17,0,0,1,39,44.79h0a3.11,3.11,0,0,1,0,.72Z"/>
        <path class="a" d="M33.92,47.81l-4.5-2.6V58.75L37,47.84A3.17,3.17,0,0,1,33.92,47.81Z"/>
        <path class="a" d="M19.35,15.72a3.17,3.17,0,0,1,2.28-3.79L28.42.5A4.48,4.48,0,0,0,27,.93l-.56.32-.13.07L4.93,13.66l-3.43-2v10l10.59,6.11Z"/>
        <polygon class="a" points="43.97 31.17 29.42 22.77 29.42 37.87 31.15 38.87 43.97 31.17"/>
        <path class="a" d="M24.21,12.24l4.46,2.57V1.43l-6.23,10.4A3.16,3.16,0,0,1,24.21,12.24Z"/>
        <polygon class="a" points="29.42 1.48 29.42 15.43 42.16 22.78 29.42 1.48"/>
        <path class="a" d="M19.74,16.33l-7,11.73.8.46,15.14-6.22v-.13L21,17.75A3.15,3.15,0,0,1,19.74,16.33Z"/>
        <polygon class="a" points="28.66 37.26 28.66 22.86 14.09 28.84 28.66 37.26"/>
        <path class="a" d="M3.09,29.84l-.06,0H3V42.33c0,.06,0,.12,0,.17s0,.12,0,.17a4.49,4.49,0,0,0,2,3.6l.4.23L26.51,58.66l.07,0a4.5,4.5,0,0,0,.76.44,4.43,4.43,0,0,0,1.2.35L11.24,34.55Z"/>
        <path class="a" d="M31.85,39.17l3.61,2.08L47.1,34.54,33.49,54.09,29.72,59.5A4.49,4.49,0,0,0,31.23,59l.07,0,.54-.31,21.32-12.3,3.42,2v-10L44.67,31.47Z"/>
        <polygon class="a" points="28.66 58.7 28.66 44.59 12.34 35.16 28.66 58.7"/>
      </g>
      <g class="b">
        <path class="a" d="M45.49,36.18l-9.33,5.38,1.56.92.23.13A3.17,3.17,0,0,1,39,44.79h0a3.11,3.11,0,0,1,0,.72Z"/>
        <path class="a" d="M33.92,47.81l-4.5-2.6V58.75L37,47.84A3.17,3.17,0,0,1,33.92,47.81Z"/>
        <polygon class="a" points="43.97 31.17 29.42 22.77 29.42 37.87 31.15 38.87 43.97 31.17"/>
        <path class="a" d="M24.21,12.24l4.46,2.57V1.43l-6.23,10.4A3.16,3.16,0,0,1,24.21,12.24Z"/>
        <polygon class="a" points="29.42 1.48 29.42 15.43 42.16 22.78 29.42 1.48"/>
        <path class="a" d="M19.74,16.33l-7,11.73.8.46,15.14-6.22v-.13L21,17.75A3.15,3.15,0,0,1,19.74,16.33Z"/>
        <polygon class="a" points="28.66 37.26 28.66 22.86 14.09 28.84 28.66 37.26"/>
        <polygon class="a" points="28.66 58.7 28.66 44.59 12.34 35.16 28.66 58.7"/>
      </g>
    </g>
  </g>
</svg>
