<svg id="Layer_1" data-name="Layer 1" xmlns="http://www.w3.org/2000/svg" viewBox="0 0 406.5 106"><defs><style>.cls-1{fill:#fff;}</style></defs><title>sokol_logo</title><path class="cls-1" d="M382.031,72.458a2.025,2.025,0,0,1-1.441.536,2.106,2.106,0,0,1-1.507-.536,2.014,2.014,0,0,1-.57-1.541V27.17a2.013,2.013,0,0,1,.57-1.541,2.106,2.106,0,0,1,1.507-.536,1.905,1.905,0,0,1,2.01,2.077V70.917A2.021,2.021,0,0,1,382.031,72.458Zm-32.663-1.407a15.894,15.894,0,0,1-15.711,0,13.931,13.931,0,0,1-5.259-5.9,19.956,19.956,0,0,1-1.876-8.91,19.962,19.962,0,0,1,1.876-8.91,13.923,13.923,0,0,1,5.259-5.9,15.894,15.894,0,0,1,15.711,0,13.649,13.649,0,0,1,5.259,5.9,20.278,20.278,0,0,1,1.844,8.91,20.272,20.272,0,0,1-1.844,8.91A13.657,13.657,0,0,1,349.368,71.051Zm.034-24.62a10.606,10.606,0,0,0-15.779,0q-2.814,3.516-2.813,9.814,0,6.432,2.746,9.848t7.907,3.417a9.745,9.745,0,0,0,7.972-3.417q2.814-3.416,2.814-9.848Q352.249,49.948,349.4,46.431ZM307.158,72.994a2.264,2.264,0,0,1-1.407-.6L287.527,56.848V70.917a1.905,1.905,0,0,1-2.009,2.077,2.112,2.112,0,0,1-1.508-.536,2.017,2.017,0,0,1-.569-1.541V27.17a2.016,2.016,0,0,1,.569-1.541,2.112,2.112,0,0,1,1.508-.536,1.905,1.905,0,0,1,2.009,2.077v28L304.21,40.167a2.266,2.266,0,0,1,1.407-.6,1.944,1.944,0,0,1,1.943,1.943,1.908,1.908,0,0,1-.8,1.607l-14.471,12.8L308.1,69.443a2.307,2.307,0,0,1,.871,1.675,1.856,1.856,0,0,1-.536,1.306A1.7,1.7,0,0,1,307.158,72.994ZM254.3,71.051a15.9,15.9,0,0,1-15.712,0,13.951,13.951,0,0,1-5.259-5.9,19.983,19.983,0,0,1-1.876-8.91,19.989,19.989,0,0,1,1.876-8.91,13.942,13.942,0,0,1,5.259-5.9,15.9,15.9,0,0,1,15.712,0,13.67,13.67,0,0,1,5.26,5.9,20.306,20.306,0,0,1,1.842,8.91,20.3,20.3,0,0,1-1.842,8.91A13.678,13.678,0,0,1,254.3,71.051Zm.033-24.62a10.6,10.6,0,0,0-15.778,0q-2.814,3.516-2.814,9.814,0,6.432,2.747,9.848t7.906,3.417a9.747,9.747,0,0,0,7.973-3.417q2.813-3.416,2.813-9.848Q257.176,49.948,254.329,46.431Zm-59.763,6.632a27.51,27.51,0,0,0,4.924,1.507,35.038,35.038,0,0,1,7.1,2.278,8.468,8.468,0,0,1,3.552,2.881,8.385,8.385,0,0,1-2.378,10.886q-3.453,2.513-9.146,2.513a20.2,20.2,0,0,1-5.527-.771,17.7,17.7,0,0,1-4.792-2.11,8.313,8.313,0,0,1-1.775-1.507,2.267,2.267,0,0,1-.5-1.441,1.612,1.612,0,0,1,.436-1.139,1.37,1.37,0,0,1,1.038-.469,4.79,4.79,0,0,1,2.077,1,21.855,21.855,0,0,0,3.987,2.077,14.108,14.108,0,0,0,5.126.8,11.236,11.236,0,0,0,6.163-1.44,4.632,4.632,0,0,0,2.212-4.12,4.194,4.194,0,0,0-.805-2.647,6.387,6.387,0,0,0-2.68-1.809,32.6,32.6,0,0,0-5.359-1.507q-5.965-1.34-8.477-3.45a7.017,7.017,0,0,1-2.512-5.661,8.416,8.416,0,0,1,3.35-6.934,13.634,13.634,0,0,1,8.71-2.646,18.3,18.3,0,0,1,4.991.67,12.791,12.791,0,0,1,4.122,1.943q2.343,1.606,2.345,3.148a1.742,1.742,0,0,1-.436,1.173,1.331,1.331,0,0,1-1.038.5,4.255,4.255,0,0,1-2.077-1.072,20.422,20.422,0,0,0-3.585-2.043,11.424,11.424,0,0,0-4.523-.771,8.975,8.975,0,0,0-5.56,1.575,5.054,5.054,0,0,0-2.077,4.254,4.338,4.338,0,0,0,.7,2.546A5.743,5.743,0,0,0,194.566,53.063ZM138.731,79.4h-40.5a7.02,7.02,0,0,1-1.644-.208l.056.208H79.168L73.922,59.86H20.807v-.287a3.157,3.157,0,0,1-2.792-3.116V32.687h0a6.344,6.344,0,0,1,6.345-6.324l.022,0v0H124.47a8.883,8.883,0,0,1,8.056,6.333l10.856,40.372C144.322,76.565,142.24,79.4,138.731,79.4ZM43.477,36.125H29.167L33,50.111H47.312Zm23.738,0H52.905l3.837,13.986H71.051Zm39.107,36.28h6.593l-1.771-6.94H104.55Zm17.343-36.28H96.182l7.383,26.521h27.483Zm8.434,29.34h-6.594l1.772,6.94h6.593ZM20.807,65.443H64.074v.021h4.914L72.456,79.4H24.994v-.032a6.338,6.338,0,0,1-6.929-5.551h-.05V69.63h.39a2.724,2.724,0,0,1-.39-1.4A2.79,2.79,0,0,1,20.807,65.443Z"/></svg>