<svg width="30" height="30" viewBox="0 0 30 30" fill="none" xmlns="http://www.w3.org/2000/svg">
<path d="M11.8421 26.8421C16.6383 26.8421 20.5263 22.9541 20.5263 18.1579C20.5263 13.3617 16.6383 9.47369 11.8421 9.47369C7.04589 9.47369 3.15789 13.3617 3.15789 18.1579C3.15789 22.9541 7.04589 26.8421 11.8421 26.8421ZM11.8421 30C5.3021 30 0 24.6979 0 18.1579C0 11.6179 5.3021 6.3158 11.8421 6.3158C18.3821 6.3158 23.6842 11.6179 23.6842 18.1579C23.6842 24.6979 18.3821 30 11.8421 30Z" fill="#FBCC5C"/>
<path d="M18.1579 20.5263C22.9541 20.5263 26.8421 16.6383 26.8421 11.8421C26.8421 7.04589 22.9541 3.15789 18.1579 3.15789C13.3617 3.15789 9.47369 7.04589 9.47369 11.8421C9.47369 16.6383 13.3617 20.5263 18.1579 20.5263ZM18.1579 23.6842C11.6179 23.6842 6.3158 18.3821 6.3158 11.8421C6.3158 5.3021 11.6179 0 18.1579 0C24.6979 0 30 5.3021 30 11.8421C30 18.3821 24.6979 23.6842 18.1579 23.6842Z" fill="#35D07F"/>
<path d="M18.5463 23.6779C19.367 22.6838 19.955 21.5186 20.268 20.268C21.5185 19.9554 22.6834 19.3671 23.6779 18.5467C23.6324 19.9949 23.3207 21.4226 22.7576 22.7577C21.4225 23.3208 19.9948 23.6325 18.5463 23.6779ZM9.73228 9.73204C8.48176 10.0447 7.31681 10.633 6.32239 11.4534C6.36786 10.0052 6.67955 8.57751 7.2426 7.24235C8.57776 6.6793 10.0054 6.36762 11.4537 6.32214C10.6332 7.31656 10.0449 8.48151 9.73228 9.73204Z" fill="#5EA33B"/>
</svg>
