<svg xmlns="http://www.w3.org/2000/svg" width="30" height="30">
    <path fill="#164059" fill-rule="evenodd" d="M30 14.999V30H0V0h30v14.999z"/>
    <path fill="#34C88A" fill-rule="evenodd" d="M15.678 14.092c-.384 0-.386-.386-.386-.386s1.424-2.53 1.654-2.917c.23-.387.661-.055.661-.055s5.111 2.961 5.899 3.413c1.111.853 0 1.706 0 1.706l-5.899 3.413s-.441.26-.606 0c-.165-.26-1.544-2.752-1.544-2.752s-.354-.526.221-.661h1.102c.368 0 .386.441.386.441v.605s.037.33.331.33h.496l1.764-1.981s.299-.276 0-.551c-.299-.274-1.543-1.761-1.543-1.761l-.276-.165h-.386s-.386-.009-.386.495v.495s.001.331-.33.331h-1.158zM11.943 13.756c.192.333-.141.527-.141.527s-2.9.034-3.35.029c-.45-.006-.378-.545-.378-.545s.013-5.904.011-6.812c.183-1.388 1.477-.853 1.477-.853l5.897 3.396s.445.252.303.525c-.143.273-1.612 2.712-1.612 2.712s-.279.571-.682.14l-.55-.954c-.184-.318.188-.554.188-.554l.524-.303s.268-.197.121-.451l-.247-.43-2.596-.535s-.388-.121-.476.276c-.089.396-.755 2.217-.755 2.217l-.005.321.192.334s.185.338.622.086l.429-.248s.285-.166.451.121l.577 1.001z"/>
    <path fill="#FFF" fill-rule="evenodd" d="M11.887 16.244c.192-.333-.141-.527-.141-.527s-2.899-.034-3.349-.029c-.45.006-.378.545-.378.545s.013 5.904.011 6.812c.183 1.388 1.476.853 1.476.853l5.896-3.396s.445-.252.303-.525c-.142-.273-1.612-2.712-1.612-2.712s-.278-.571-.682-.14l-.55.954c-.183.318.189.554.189.554l.524.303s.267.197.121.451l-.248.43-2.595.535s-.387.121-.476-.276c-.088-.396-.754-2.217-.754-2.217l-.006-.321.193-.334s.185-.338.621-.086l.429.248s.285.166.451-.121l.577-1.001z"/>
</svg>
