<svg xmlns="http://www.w3.org/2000/svg" width="25" height="25" viewBox="0 0 60 60">
  <g>
    <path d="M.87,4h0V26.18a1.35,1.35,0,0,0,1.35,1.37l9.91,0a1.37,1.37,0,0,0,1.16-2L12,23.19h0a2,2,0,0,0-2.75-.75h0l-.14.08h0a2,2,0,0,1-2.72-.74,2.06,2.06,0,0,1-.16-1.65h0l2.06-6.28h0a2,2,0,0,1,2.31-1.36h0L17,13.8h0a2,2,0,0,1,1.33,1,2,2,0,0,1-.73,2.77h0l-.14.08h0a2.07,2.07,0,0,0-.74,2.8h0L18,22.65a1.34,1.34,0,0,0,2.32,0l5-8.66a1.37,1.37,0,0,0-.49-1.86L5.9,1.06h0A3.36,3.36,0,0,0,.87,4Z"/>
    <path d="M50.9,26.32h0L30.58,14.37a1.34,1.34,0,0,0-1.85.5L23.4,24.36a1.47,1.47,0,0,0,1.25,2.19h3.48a1.45,1.45,0,0,0,1.44-1.47V24A1.34,1.34,0,0,1,30.9,22.6h.92a1.33,1.33,0,0,1,1,.46l4.84,5.56a1.38,1.38,0,0,1,0,1.81L32.83,36a1.33,1.33,0,0,1-1,.46H30.9a1.34,1.34,0,0,1-1.33-1.35V34a1.45,1.45,0,0,0-1.44-1.47H24.7a1.47,1.47,0,0,0-1.25,2.19l5.29,9.43a1.33,1.33,0,0,0,1.83.49L50.9,32.67h0A3.7,3.7,0,0,0,50.9,26.32Z"/>
    <path d="M5.9,58.94h0L24.76,47.87a1.39,1.39,0,0,0,.5-1.88l-5-8.71a1.34,1.34,0,0,0-2.32,0l-1.62,2.86a1.38,1.38,0,0,0,.5,1.87l1.27.75a1.38,1.38,0,0,1,.5,1.86l-.48.84a1.34,1.34,0,0,1-.89.65L10,47.61a1.34,1.34,0,0,1-1.54-.91L6.08,39.56a1.39,1.39,0,0,1,.11-1.12l.47-.83a1.34,1.34,0,0,1,1.84-.49l1.27.75a1.33,1.33,0,0,0,1.83-.49l1.61-2.83a1.37,1.37,0,0,0-1.16-2l-9.84,0A1.35,1.35,0,0,0,.87,33.82V56h0A3.36,3.36,0,0,0,5.9,58.94Z"/>
  </g>
</svg>
