<svg height="30" width="30" xmlns="http://www.w3.org/2000/svg"><g fill-rule="evenodd"><path d="m0 30v-30h30v30z" fill="#12ac97"/><path d="m17.172 15 5.828 7.001h-4.344.775c-.497 0-.926-.229-1.223-.569l-.015.012-2.654-3.187h-.011a.7.7 0 0 0 -.528-.243.7.7 0 0 0 -.528.243h-.012l-2.653 3.187-.015-.012c-.297.34-.726.569-1.223.569h.774-4.344l5.829-7.001-5.829-7h3.569l.001-.001c.497 0 .926.229 1.223.569l.014-.012 2.652 3.185h.012c.13.147.315.245.53.245s.4-.098.53-.245h.011l2.652-3.185.015.012a1.618 1.618 0 0 1 1.224-.568h3.569z" fill="#fff"/></g></svg>