<svg xmlns="http://www.w3.org/2000/svg" xmlns:xlink="http://www.w3.org/1999/xlink" width="25" height="25" viewBox="0 0 43.5 43.5">
  <defs>
    <style>
      .a {
        fill: #fff;
        filter: url(#b);
      }

      .b {
        fill: url(#a);
      }
    </style>
    <linearGradient id="a" x1="21" y1="12.89" x2="21" y2="28.58" gradientUnits="userSpaceOnUse">
      <stop offset="0" stop-color="#fec54c"/>
      <stop offset="1" stop-color="#fe9314"/>
    </linearGradient>
    <filter  filterUnits="userSpaceOnUse" height="49" id="b" width="43" x="0" y="0">
    	<feOffset  dy="3" in="SourceAlpha"></feOffset>
    	<feGaussianBlur  result="blurOut" stdDeviation="2.236"></feGaussianBlur>
    	<feFlood  flood-color="#ABBAC7" result="floodOut"></feFlood>
    	<feComposite  in="floodOut" in2="blurOut" operator="atop"></feComposite>
    	<feComponentTransfer>
    		<feFuncA  slope=".2" type="linear"></feFuncA>
    	</feComponentTransfer>
    	<feMerge>
    		<feMergeNode></feMergeNode>
    		<feMergeNode  in="SourceGraphic"></feMergeNode>
    	</feMerge>
    </filter>
  </defs>
  <path class="a" d="M17.2,38.8,6,32.1a4.34,4.34,0,0,1-2-3.4V12.9A4.11,4.11,0,0,1,6,9.5L17.2,2.8C21,.5,21,.5,24.9,2.8L36,9.4a4.22,4.22,0,0,1,2,3.4V28.6A4.22,4.22,0,0,1,36,32L24.9,38.7C21,41.1,21,41.1,17.2,38.8Z"/>
  <polygon class="b" points="30.03 12.89 24.97 12.89 21.03 17.64 17.03 12.89 11.97 12.89 18.53 20.82 11.97 28.7 17.03 28.7 20.97 23.95 24.97 28.7 30.03 28.7 23.47 20.76 30.03 12.89"/>
</svg>
