<svg height="30" width="30" xmlns="http://www.w3.org/2000/svg"><g fill-rule="evenodd"><path d="m0 30v-30h30v30z" fill="#1c1c1c"/><path d="m23.73 18.983c-.18.61-.442 1.14-.786 1.589a3.63 3.63 0 0 1 -1.271 1.051c-.504.252-1.076.378-1.716.378-.647 0-1.223-.126-1.728-.378a3.66 3.66 0 0 1 -1.28-1.051 4.782 4.782 0 0 1 -.79-1.589 7.03 7.03 0 0 1 -.27-1.998v-.191c0-.716.09-1.379.27-1.988.18-.61.443-1.14.79-1.589a3.725 3.725 0 0 1 1.272-1.056c.5-.254 1.073-.382 1.72-.382.646 0 1.22.128 1.724.382.503.255.928.607 1.275 1.056s.61.979.79 1.589a6.99 6.99 0 0 1 .271 1.988v.191a7.03 7.03 0 0 1 -.271 1.998zm-1.946-2.189c0-.4-.035-.779-.103-1.137a3.37 3.37 0 0 0 -.322-.947 1.771 1.771 0 0 0 -.568-.646c-.233-.158-.517-.237-.85-.237-.329 0-.609.079-.843.237a1.809 1.809 0 0 0 -.572.646 3.28 3.28 0 0 0 -.325.947 6.002 6.002 0 0 0 -.103 1.137v.191c0 .413.034.8.103 1.161s.177.677.325.947a1.8 1.8 0 0 0 .576.641c.236.158.521.237.855.237.323 0 .601-.079.834-.237.233-.157.422-.371.568-.641.145-.27.253-.586.322-.947.068-.361.103-.748.103-1.161zm.858-6.835a1.005 1.005 0 0 1 -.342.241 1.075 1.075 0 0 1 -.437.086c-.159 0-.304-.028-.437-.086a1.011 1.011 0 0 1 -.341-.241 1.105 1.105 0 0 1 -.223-.364 1.276 1.276 0 0 1 -.079-.455c0-.158.026-.307.079-.446a1.048 1.048 0 0 1 .564-.597c.133-.057.278-.086.437-.086s.305.029.437.086a1.038 1.038 0 0 1 .564.597c.053.139.08.288.08.446 0 .163-.027.315-.08.455a1.12 1.12 0 0 1 -.222.364zm-3.814-.014a1.044 1.044 0 0 1 -.778.323 1.048 1.048 0 0 1 -.779-.323c-.095-.1-.169-.22-.222-.359a1.25 1.25 0 0 1 -.08-.446c0-.158.027-.307.08-.446.053-.14.127-.261.222-.365.096-.103.209-.183.342-.241.132-.057.278-.086.437-.086s.304.029.437.086c.132.058.246.138.341.241.096.104.17.225.223.365.053.139.079.288.079.446 0 .157-.026.306-.079.446a1.053 1.053 0 0 1 -.223.359zm-6.002 11.487a5.775 5.775 0 0 1 -2.515.56c-.656 0-1.25-.134-1.779-.401a3.837 3.837 0 0 1 -1.359-1.156c-.376-.504-.666-1.121-.87-1.852s-.306-1.561-.306-2.49v-1.802c0-.928.108-1.758.322-2.489.215-.731.511-1.352.89-1.862a3.938 3.938 0 0 1 1.335-1.165 3.552 3.552 0 0 1 1.664-.4c.652 0 1.22.094 1.704.282.485.188.894.46 1.228.815s.594.787.782 1.297c.188.509.312 1.083.37 1.72h-2.177c-.074-.679-.253-1.191-.536-1.534-.284-.342-.722-.514-1.315-.514-.286 0-.551.084-.795.25-.243.167-.455.412-.635.733-.18.322-.323.721-.429 1.197a7.657 7.657 0 0 0 -.159 1.652v1.82c.005 1.238.185 2.187.54 2.845s.898.99 1.629.996a2.955 2.955 0 0 0 .993-.172c.148-.055.279-.117.393-.187s.2-.144.258-.223l.008-2.403h-1.914v-1.911h4.139l.008 5.224c-.143.2-.339.404-.588.61a4.438 4.438 0 0 1 -.886.56z" fill="#fff"/></g></svg>