<svg height="30" width="30" xmlns="http://www.w3.org/2000/svg"><g fill-rule="evenodd"><path d="m30 14.999v15.001h-30v-30h30z" fill="#1f857f"/><path d="m18.938 21.316 1.312 1.263v.421h-10.5v-.421l1.312-1.263c-1.662 0-3.062-1.348-3.062-2.948v-8c0-2.947 3.15-3.368 7-3.368s7 .421 7 3.368v8c0 1.6-1.4 2.948-3.062 2.948zm-7.759-2.01c.709 0 1.283-.554 1.283-1.237 0-.682-.574-1.236-1.283-1.236s-1.283.554-1.283 1.236c0 .683.574 1.237 1.283 1.237zm3.179-9.223h-4.462v4.306h4.462zm5.746 0h-4.462v4.306h4.462zm-1.283 6.75c-.709 0-1.283.554-1.283 1.236 0 .683.574 1.237 1.283 1.237s1.283-.554 1.283-1.237c0-.682-.574-1.236-1.283-1.236z" fill="#fff"/></g></svg>