<svg xmlns="http://www.w3.org/2000/svg" width="30" height="30">
    <path fill="#1F857F" fill-rule="evenodd" d="M30 14.999V30H0V0h30v14.999z"/>
    <path fill="#FFF" fill-rule="evenodd" d="M18.938 21.316l1.312 1.263V23H9.75v-.421l1.312-1.263C9.4 21.316 8 19.968 8 18.368v-8C8 7.421 11.15 7 15 7s7 .421 7 3.368v8c0 1.6-1.4 2.948-3.062 2.948zm-7.759-2.01c.709 0 1.283-.554 1.283-1.237 0-.682-.574-1.236-1.283-1.236s-1.283.554-1.283 1.236c0 .683.574 1.237 1.283 1.237zm3.179-9.223H9.896v4.306h4.462v-4.306zm5.746 0h-4.462v4.306h4.462v-4.306zm-1.283 6.75c-.709 0-1.283.554-1.283 1.236 0 .683.574 1.237 1.283 1.237s1.283-.554 1.283-1.237c0-.682-.574-1.236-1.283-1.236z"/>
</svg>
