<svg xmlns="http://www.w3.org/2000/svg" width="30" height="30">
    <path fill="#71C8B9" fill-rule="evenodd" d="M30 14.999V30H0V0h30v14.999z"/>
    <path fill="#FFF" fill-rule="evenodd" d="M24.22 20h-6.449c-.089 0-.178-.034-.266-.06l.013.06h-2.781l-.835-3.681H5.437v-.084C5.192 16.197 5 15.959 5 15.66v-4.48h.003c.008-.646.449-1.166.997-1.176V10h15.949c.559 0 1.134.535 1.283 1.194l1.729 7.612c.149.659-.182 1.194-.741 1.194zM9.054 11.84H6.776l.61 2.637h2.279l-.611-2.637zm3.78 0h-2.279l.611 2.637h2.278l-.61-2.637zm6.226 6.841h1.05l-.282-1.308h-1.05l.282 1.308zm2.761-6.841h-4.375l1.175 5.001h4.376l-1.176-5.001zm1.343 5.533h-1.05l.282 1.308h1.05l-.282-1.308zm-17.727-.012h6.907v.011h.772L13.668 20H6.125v-.026c-.038.005-.071.026-.109.026-.514 0-.922-.457-.989-1.042H5v-.798h.086c-.041-.081-.086-.159-.086-.261 0-.297.196-.538.437-.538z"/>
</svg>
