<svg height="30" width="30" xmlns="http://www.w3.org/2000/svg"><g fill-rule="evenodd"><path d="m30 14.999v15.001h-30v-30h30z" fill="#5c34a2"/><path d="m8.438 16.812h-.313v.875h-.007c.001.006.007.01.007.016 0 .164-.14.297-.313.297h-2.5a.305.305 0 0 1 -.312-.297c0-.006.006-.01.007-.016h-.007v-5.375h.007c-.001-.006-.007-.009-.007-.015 0-.164.14-.297.312-.297h3.126c1.38 0 2.5 1.077 2.5 2.406s-1.12 2.406-2.5 2.406zm6.249-4.812c1.726 0 3.126 1.343 3.126 3s-1.4 3-3.126 3c-1.725 0-3.125-1.343-3.125-3s1.4-3 3.125-3zm10.313 5.81a.19.19 0 0 1 -.193.185h-7.108c-.004.001-.007.005-.011.005a.188.188 0 0 1 -.188-.187c0-.04.021-.071.042-.102l-.007-.012 3.52-5.549h.016c.02-.082.086-.148.177-.148.092 0 .158.066.178.148h.016l3.558 5.586-.02.027c.005.017.02.029.02.047z" fill="#fff"/></g></svg>