<svg height="30" width="30" xmlns="http://www.w3.org/2000/svg"><g fill-rule="evenodd"><path d="m30 14.999v15.001h-30v-30h30z" fill="#71c8b9"/><path d="m24.22 20h-6.449c-.089 0-.178-.034-.266-.06l.013.06h-2.781l-.835-3.681h-8.465v-.084c-.245-.038-.437-.276-.437-.575v-4.48h.003c.008-.646.449-1.166.997-1.176v-.004h15.949c.559 0 1.134.535 1.283 1.194l1.729 7.612c.149.659-.182 1.194-.741 1.194zm-15.166-8.16h-2.278l.61 2.637h2.279zm3.78 0h-2.279l.611 2.637h2.278zm6.226 6.841h1.05l-.282-1.308h-1.05zm2.761-6.841h-4.375l1.175 5.001h4.376zm1.343 5.533h-1.05l.282 1.308h1.05zm-17.727-.012h6.907v.011h.772l.552 2.628h-7.543v-.026c-.038.005-.071.026-.109.026-.514 0-.922-.457-.989-1.042h-.027v-.798h.086c-.041-.081-.086-.159-.086-.261 0-.297.196-.538.437-.538z" fill="#fff"/></g></svg>