<svg height="30" width="30" xmlns="http://www.w3.org/2000/svg"><g fill-rule="evenodd"><path d="m0 30v-30h30v30z" fill="#2a3f53"/><path d="m23.66 9.98a9.956 9.956 0 0 0 -3.639-3.64c-1.533-.894-3.206-1.341-5.021-1.341-1.814 0-3.488.447-5.02 1.341a9.951 9.951 0 0 0 -3.64 3.64c-.894 1.532-1.341 3.206-1.341 5.02s.447 3.488 1.341 5.02a9.951 9.951 0 0 0 3.64 3.64c1.532.894 3.206 1.341 5.02 1.341 1.815 0 3.488-.447 5.02-1.341a9.944 9.944 0 0 0 3.64-3.64c.894-1.532 1.341-3.206 1.341-5.02s-.447-3.488-1.341-5.02zm-7.409 10.282c-.087-.104-.117-.191-.091-.26-.009.043-.039.082-.091.117a1.256 1.256 0 0 0 -.235-.196 1.213 1.213 0 0 1 -.234-.195l-.072-.111-.117-.189a1.353 1.353 0 0 1 -.104-.202c-.022-.056-.023-.089-.006-.097-.165.07-.404.022-.717-.143-.06-.035-.152-.126-.273-.274-.122-.147-.248-.212-.378-.195a2.736 2.736 0 0 0 -.176.045.67.67 0 0 1 -.188.033.593.593 0 0 1 -.209-.052 1.676 1.676 0 0 1 -.28-.15 1.787 1.787 0 0 0 -.241-.137l-.169-.091-.208-.104a.646.646 0 0 1 -.163-.123.416.416 0 0 1 -.111-.176 2.601 2.601 0 0 1 -.065-.313.977.977 0 0 0 -.104-.338 1.19 1.19 0 0 0 -.221-.261c-.096-.087-.183-.13-.261-.13.07 0 .07-.059 0-.176a1.328 1.328 0 0 0 -.182-.254c-.018-.017-.07-.074-.157-.169-.086-.096-.16-.178-.221-.248a1.02 1.02 0 0 1 -.156-.241c-.044-.091-.052-.167-.026-.228.008-.008 0-.022-.026-.039a.67.67 0 0 0 -.098-.052 2.168 2.168 0 0 0 -.111-.045.251.251 0 0 0 -.078-.02.975.975 0 0 1 .059.189.762.762 0 0 0 .071.202c.018.035.092.161.222.378.226.364.33.634.313.807-.053.017-.087.009-.105-.026a.49.49 0 0 1 -.039-.143.72.72 0 0 0 -.026-.13c-.026-.053-.093-.109-.202-.17-.108-.06-.176-.121-.202-.182a.06.06 0 0 0 .033-.013.06.06 0 0 1 .033-.013c.008-.078-.037-.178-.137-.3-.1-.121-.141-.208-.124-.26-.069-.052-.13-.154-.182-.306a1.163 1.163 0 0 0 -.13-.293.549.549 0 0 0 -.131-.137 2.623 2.623 0 0 0 -.195-.13c-.078-.048-.13-.08-.156-.098a.465.465 0 0 1 -.104-.117c-.287-.347-.374-.534-.261-.56-.113.026-.206-.058-.28-.254-.074-.195-.097-.345-.071-.449l-.026-.013c.008-.035.013-.137.013-.306 0-.17.01-.324.032-.463.022-.138.063-.208.124-.208-.061.009-.106-.046-.137-.163-.03-.117-.032-.197-.006-.241.008-.026.048-.008.117.052.069.061.108.1.117.118.113-.061.156-.139.13-.235-.017-.035-.108-.126-.273-.273-.374-.243-.565-.361-.573-.352.052-.095.039-.178-.039-.248-.087.053-.137.066-.15.04a.509.509 0 0 1 -.033-.144c-.008-.069-.03-.108-.065-.117-.043-.008-.095-.043-.156-.104a8.225 8.225 0 0 1 3.06-2.891c.052-.009.148-.013.287-.013.069.009.134.03.195.065s.124.083.189.143c.065.061.115.104.149.13.018-.052-.004-.13-.065-.234.018-.052.113-.104.287-.156.199-.026.33-.022.391.013a3.427 3.427 0 0 0 -.261-.326l-.065.065c-.069-.061-.252-.03-.547.091a6.37 6.37 0 0 0 -.13.072c-.07.039-.126.067-.169.085a.338.338 0 0 1 -.157.013 7.366 7.366 0 0 1 1.224-.534c.026.017.07.054.131.11.06.057.108.098.143.124-.026-.017-.044-.009-.052.026-.035.104-.035.191 0 .26a.243.243 0 0 0 .175.105.974.974 0 0 0 .267-.014c.105-.017.174-.026.209-.026l.13.013c.278.027.386 0 .326-.078a.859.859 0 0 1 .091.215.567.567 0 0 0 .117.228c.043-.035.052-.095.026-.182s-.026-.148 0-.183c.009-.017.035-.034.078-.052l.15-.058c.056-.022.093-.037.111-.046.052-.034.017-.095-.105-.182a.775.775 0 0 0 -.11-.039 1.826 1.826 0 0 1 -.15-.052.793.793 0 0 1 -.137-.072c-.047-.03-.069-.065-.065-.104a.368.368 0 0 1 .072-.15c.052-.043.137-.06.254-.052a.65.65 0 0 1 .267.065c.234.13.269.248.104.352a.92.92 0 0 1 .313.104c.121.061.169.126.143.195.069-.13.139-.195.208-.195.044.009.085.067.124.176.039.108.063.167.071.176.07.095.139.117.209.065.069-.052.141-.128.215-.228s.115-.145.123-.137c-.086-.034-.095-.069-.026-.104.13-.078.248-.1.352-.065a.476.476 0 0 1 .104.117c.078.157.065.23-.039.222.078.069.11.156.098.26-.013.104-.081.152-.202.143a.46.46 0 0 1 -.189-.065.588.588 0 0 0 -.189-.071c-.044-.005-.105.019-.183.071-.034.044-.08.117-.136.222a1.025 1.025 0 0 1 -.15.221c-.13.13-.348.178-.651.143.026 0 .023.026-.007.078a2.637 2.637 0 0 1 -.215.287.663.663 0 0 0 -.156.299c0 .018-.005.076-.013.176a.662.662 0 0 1 -.052.228c.104-.026.186.026.247.156.052.122.052.187 0 .196.287-.043.538-.026.756.052.312.113.49.226.534.338.051-.078.177-.082.377-.013.078.044.147.174.209.391.034.13.093.243.175.339.083.095.172.121.268.078l.038-.026a1.72 1.72 0 0 0 .085-.046.47.47 0 0 0 .071-.052c.027-.022.042-.041.046-.058.004-.018-.002-.035-.019-.053a.464.464 0 0 1 -.137-.214c-.03-.092-.024-.172.02-.241a.867.867 0 0 1 .208-.157c.113-.069.182-.139.208-.208.035-.113-.008-.206-.13-.28-.121-.074-.182-.141-.182-.202 0-.044.028-.096.084-.156.057-.061.081-.118.072-.17a.642.642 0 0 0 -.045-.163.815.815 0 0 1 -.052-.182c-.005-.039.015-.085.058-.137.06-.034.204-.032.429.007.226.039.374.08.443.123.027.018.083.044.17.079.087.034.163.071.228.11s.102.076.11.111h-.065a.313.313 0 0 1 .111.182c.013.07-.019.122-.097.157a.405.405 0 0 1 .208.039c.139.052.143.1.013.143a.866.866 0 0 1 .11-.026.31.31 0 0 0 .111-.039.384.384 0 0 0 .065-.046.213.213 0 0 1 .059-.039.404.404 0 0 1 .058-.013.105.105 0 0 1 .078.02c.009 0 .028-.022.059-.065.03-.044.063-.087.097-.13.035-.044.065-.066.092-.066a.1.1 0 0 1 .071.033.26.26 0 0 1 .052.072l.039.084.032.072a.352.352 0 0 0 .124.136.36.36 0 0 1 .124.137c.009.026.026.091.052.196a.43.43 0 0 0 .104.214.505.505 0 0 0 .195.098c.017.009.057.004.117-.013a.315.315 0 0 1 .15-.013c.039.009.059.043.059.104.052-.052.078-.087.078-.104a.548.548 0 0 0 .084.273c.048.07.124.1.228.092l-.026.286c-.026.043-.091.076-.195.098a.706.706 0 0 0 -.196.058.888.888 0 0 0 -.188.157c-.1.095-.141.152-.124.169-.148-.165-.369-.213-.664-.143-.33.052-.556.104-.677.156a.968.968 0 0 0 -.287.195.416.416 0 0 0 -.045.091c-.022.052-.044.1-.065.144-.022.043-.041.065-.059.065.053-.009.111-.05.176-.124a.77.77 0 0 1 .123-.124c.226-.147.413-.199.561-.155.191.052.222.122.091.209-.017.017-.063.023-.136.019a.47.47 0 0 0 -.15.007.68.68 0 0 1 .195.071c.052.03.065.072.04.124.138.078.164.165.078.26a.474.474 0 0 1 -.404.144c.026 0 .026.017 0 .052l-.222.143c-.017.008-.073.03-.169.065a.447.447 0 0 0 -.195.117.261.261 0 0 0 -.039.157.667.667 0 0 1 -.014.156c-.008.035-.043.043-.103.026-.027.052-.107.093-.241.124-.135.03-.224.076-.267.136.052.07.047.139-.014.209-.104.087-.195.078-.273-.026-.043.017-.076.06-.098.13-.021.069-.054.117-.097.143.061.096.052.165-.026.209.009 0 .028.008.058.026a.87.87 0 0 1 .098.065c.035.026.056.039.065.039-.034.078-.082.117-.143.117.052.139-.013.291-.195.456a.63.63 0 0 1 -.163.104 2.005 2.005 0 0 1 -.202.084.397.397 0 0 0 -.104.046.881.881 0 0 0 -.196.241.279.279 0 0 0 -.019.241c.03.078.11.13.241.156l.012.104v.235l.014.104a1.366 1.366 0 0 1 .019.345c-.004.074-.024.115-.058.124-.035.009-.083 0-.143-.026-.07-.035-.153-.226-.248-.573a.882.882 0 0 0 -.157-.313.382.382 0 0 1 -.11.085c-.03.013-.052.015-.065.006a.802.802 0 0 1 -.072-.058 1.002 1.002 0 0 0 -.091-.072.704.704 0 0 0 -.228-.065c-.108-.017-.176-.039-.201-.065-.209.157-.335.117-.378-.117-.018.044-.016.102.006.176s.033.115.033.124c-.061.113-.156.121-.287.026-.052-.052-.171-.059-.358-.02s-.31.046-.371.02c.009 0 .026.013.052.039.026.017.044.03.052.039a.178.178 0 0 1 -.039.078c-.017.017-.035.024-.052.019a.146.146 0 0 0 -.059 0 .247.247 0 0 0 -.058.02.824.824 0 0 0 -.131.136.625.625 0 0 1 -.117.124.866.866 0 0 1 .072.319 4.02 4.02 0 0 1 -.039.325 2.406 2.406 0 0 0 -.033.346c0 .138.041.299.124.482.082.182.18.308.293.377a.752.752 0 0 0 .312.065c.148.009.252 0 .313-.026a.32.32 0 0 0 .117-.091.44.44 0 0 0 .065-.15l.039-.136c.061-.165.174-.252.339-.261.104-.008.18.003.228.033s.067.071.058.123a.614.614 0 0 1 -.052.163c-.026.057-.058.12-.097.189a.692.692 0 0 0 -.071.157 2.089 2.089 0 0 0 -.046.293 1.53 1.53 0 0 1 -.033.228.783.783 0 0 0 .195.013c0-.018.007-.046.02-.085a.352.352 0 0 0 .019-.071c.044.069.113.108.209.117.095.008.165-.026.208-.105.018.027.07.092.157.196s.135.191.143.261c.009.034.026.091.052.169s.035.132.026.163c-.008.03-.052.045-.13.045-.035 0-.056.013-.065.039a.18.18 0 0 0 0 .098c.009.039.02.076.032.111.014.034.031.071.052.11a.247.247 0 0 1 .033.072c.156.286.369.364.638.234 0 .252-.061.391-.182.417-.069.017-.147-.027-.234-.131zm.195 2.942a.974.974 0 0 1 -.025-.208c-.009-.069.021-.163.091-.28.069-.117.104-.206.104-.267-.139-.034-.191-.147-.157-.338.017-.13.143-.304.378-.521.165-.148.217-.356.156-.625a3.616 3.616 0 0 1 -.065-.495 4.558 4.558 0 0 0 -.052-.456c0 .026.041.05.124.072.082.021.132.049.15.084a.84.84 0 0 0 .064-.143.688.688 0 0 1 .078-.157.462.462 0 0 1 .111-.097 1.58 1.58 0 0 1 .111-.072c.017-.008.056-.037.117-.084.06-.048.11-.085.15-.111a.435.435 0 0 1 .156-.058c.065-.013.111.006.137.058.043.052.035.133-.026.241-.061.109-.061.185 0 .228.008-.026.017-.083.026-.169a.313.313 0 0 1 .078-.196.299.299 0 0 1 .15-.091.187.187 0 0 1 .13.02c.039.021.084.051.136.091.052.039.1.063.143.071.131.044.287.139.469.287-.008-.009-.008-.02 0-.033a.137.137 0 0 1 .052-.039l.072-.039a.307.307 0 0 1 .071-.032l.04-.014c.06 0 .104-.004.13-.013.025-.008.063 0 .11.027a.756.756 0 0 1 .098.058l.091.072c.043.034.074.06.091.078l.143.091c.07.043.124.078.163.104a.343.343 0 0 1 .104.117c.03.052.041.109.033.169.052.009.156.044.312.104.026.018.08.033.163.046s.137.033.163.058c-1.258 1.329-2.782 2.15-4.57 2.462z" fill="#fff"/></g></svg>