<svg height="30" width="30" xmlns="http://www.w3.org/2000/svg"><g fill-rule="evenodd"><path d="m30 15v15h-15-15v-30h30z" fill="#38a9f5"/><path d="m20.235 24h1.772l-3.149-4.492a2.452 2.452 0 0 0 1.502-.8 2.26 2.26 0 0 0 .599-1.567v-8.774c0-.65-.241-1.207-.724-1.672-.485-.465-1.079-.695-1.775-.695h-6.92c-.703 0-1.292.23-1.775.695s-.724 1.022-.724 1.672v8.774c0 .603.205 1.131.617 1.583.41.453.905.714 1.484.783l-3.149 4.493h1.772l.303-.431h9.863zm-1.054-5.954c-.214.208-.496.314-.831.314-.315 0-.58-.106-.797-.314a1.062 1.062 0 0 1 -.328-.801c0-.301.11-.562.328-.783.217-.22.482-.33.797-.33.336 0 .617.111.831.33.217.221.327.482.327.783 0 .326-.11.591-.327.801zm-8.618-9.459c0-.325.109-.591.326-.802.216-.208.494-.312.832-.312h6.556c.339 0 .622.104.852.312.232.211.346.477.346.802v2.808c0 .326-.116.593-.346.802a1.22 1.22 0 0 1 -.852.312h-6.558c-.337 0-.615-.104-.831-.312a1.063 1.063 0 0 1 -.325-.802zm.253 9.459a1.058 1.058 0 0 1 -.327-.801c0-.301.108-.562.327-.783.219-.22.495-.332.834-.332.312 0 .578.112.797.331.217.222.327.483.327.784 0 .326-.11.591-.328.801a1.113 1.113 0 0 1 -.796.314c-.339 0-.615-.106-.834-.314zm.266 4.072.821-1.18h6.194l.824 1.18z" fill="#fff"/></g></svg>