<svg xmlns="http://www.w3.org/2000/svg" width="30" height="30">
    <path fill="#38A9F5" fill-rule="evenodd" d="M15 0c8.284 0 15 6.716 15 15 0 8.284-6.716 15-15 15-8.284 0-15-6.716-15-15C0 6.716 6.716 0 15 0z"/>
    <path fill="#FFF" fill-rule="evenodd" d="M24.22 20h-6.449c-.089 0-.178-.034-.266-.06l.013.06h-2.781l-.836-3.687H5.437v-.078c-.245-.038-.437-.277-.437-.579v-4.469h.003c.007-.65.448-1.173.997-1.183V10h15.95c.558 0 1.133.535 1.282 1.194l1.729 7.612c.149.659-.182 1.194-.741 1.194zM9.054 11.84H6.776l.61 2.638h2.279l-.611-2.638zm3.78 0h-2.279l.611 2.638h2.278l-.61-2.638zm6.226 6.841h1.05l-.282-1.308h-1.05l.282 1.308zm2.761-6.841h-4.375l1.175 5.001h4.376l-1.176-5.001zm1.343 5.533h-1.05l.282 1.308h1.05l-.282-1.308zm-17.727.002H11.664v-.003h1.452L13.668 20H6.125v-.026c-.038.005-.071.026-.109.026-.51 0-.914-.452-.987-1.031H5v-.813h.082c-.038-.077-.082-.153-.082-.25 0-.293.196-.531.437-.531z"/>
</svg>
