<svg height="30" width="30" xmlns="http://www.w3.org/2000/svg"><g fill-rule="evenodd"><path d="m30 14.999v15.001h-30v-30h30z" fill="#27aa8b"/><path d="m23.403 12.767v4.466a2.206 2.206 0 0 1 1.597 2.121 2.206 2.206 0 0 1 -2.197 2.215c-.594 0-1.131-.24-1.526-.626l-4.152 2.41c.029.143.072.28.072.432a2.206 2.206 0 0 1 -2.197 2.215 2.206 2.206 0 0 1 -2.197-2.215c0-.154.043-.294.073-.439l-4.151-2.404a2.178 2.178 0 0 1 -1.528.627 2.206 2.206 0 0 1 -2.197-2.215c0-1.012.677-1.856 1.597-2.121v-4.466a2.206 2.206 0 0 1 -1.597-2.121c0-1.224.984-2.215 2.197-2.215.653 0 1.233.292 1.635.748l4.068-2.374a2.234 2.234 0 0 1 -.087-.588c0-1.224.979-2.217 2.187-2.217s2.187.993 2.187 2.217c0 .173-.024.34-.061.502l4.101 2.387c.4-.415.957-.675 1.576-.675 1.213 0 2.197.991 2.197 2.215a2.206 2.206 0 0 1 -1.597 2.121zm-.6 7.58a.989.989 0 0 0 .985-.993.99.99 0 0 0 -.985-.993.99.99 0 0 0 -.985.993c0 .549.441.993.985.993zm-6.239 1.927 4.113-2.388a2.216 2.216 0 0 1 -.071-.532c0-.151.016-.298.044-.441l-3.754-2.174a8.367 8.367 0 0 1 -1.288 1.661v3.266c.375.109.692.333.956.608zm-1.564-9.642s-1.515 1.253-1.515 2.444c0 .676.485 1.364.907 1.84v-1.377a.608.608 0 1 1 1.216 0v1.377c.422-.476.907-1.164.907-1.84 0-1.191-1.515-2.444-1.515-2.444zm0 12.146a.99.99 0 0 0 .985-.993.989.989 0 0 0 -.985-.993.989.989 0 0 0 -.985.993.99.99 0 0 0 .985.993zm-1.561-2.506c.264-.274.579-.497.953-.606v-3.266a8.513 8.513 0 0 1 -1.251-1.598l-3.783 2.196c.019.117.036.234.036.356 0 .185-.029.362-.072.534zm-7.227-2.918c0 .549.441.993.985.993a.989.989 0 0 0 .985-.993.99.99 0 0 0 -.985-.993.99.99 0 0 0 -.985.993zm.985-9.701a.989.989 0 0 0 -.985.993.99.99 0 0 0 .985.993.99.99 0 0 0 .985-.993.989.989 0 0 0 -.985-.993zm1.528 2.581a2.198 2.198 0 0 1 -.912.527v4.479c.4.122.755.346 1.025.655l3.825-2.22a2.572 2.572 0 0 1 -.087-.599c0-.188.039-.376.082-.565zm.633-1.946c.019.117.036.235.036.358 0 .185-.029.362-.072.534l3.802 2.201c.378-.65.878-1.223 1.268-1.624v-3.422a2.195 2.195 0 0 1 -.859-.483zm5.642-5.219a.99.99 0 0 0 -.985.993.99.99 0 0 0 .985.994.99.99 0 0 0 .985-.994.99.99 0 0 0 -.985-.993zm5.655 5.116-4.114-2.395a2.186 2.186 0 0 1 -.933.547v3.42c.391.401.892.975 1.27 1.626l3.799-2.205a2.223 2.223 0 0 1 -.071-.532c0-.158.018-.312.049-.461zm-3.312 4.333c.042.186.081.373.081.558 0 .175-.039.35-.076.525l3.861 2.236c.264-.281.602-.484.978-.597v-4.479a2.194 2.194 0 0 1 -.91-.526zm5.46-4.865a.968.968 0 0 0 -.825.483l-.089.155a.998.998 0 0 0 -.071.355.99.99 0 0 0 .985.993.99.99 0 0 0 .985-.993.989.989 0 0 0 -.985-.993z" fill="#fff"/></g></svg>