<svg height="30" width="30" xmlns="http://www.w3.org/2000/svg"><g fill-rule="evenodd"><path d="m30 14.999v15.001h-30v-30h30z" fill="#12ac97"/><path d="m17.172 14.999 5.828 7h-4.344v-.001h.775c-.497 0-.926-.228-1.223-.568l-.015.012-2.655-3.188h-.019a.681.681 0 0 0 -.519-.246.681.681 0 0 0 -.519.246h-.019l-2.655 3.188-.015-.012c-.297.34-.726.568-1.223.568h.775v.001h-4.344l5.828-7-5.828-7h3.569c.497 0 .926.228 1.223.568l.015-.011 2.651 3.184h.019a.682.682 0 0 0 .523.252.682.682 0 0 0 .523-.252h.018l2.652-3.184.015.011c.297-.34.726-.568 1.223-.568h3.569z" fill="#fff"/></g></svg>