<svg xmlns="http://www.w3.org/2000/svg" width="30" height="30">
    <path fill="#202D6A" fill-rule="evenodd" d="M0 30V0h30v30H0z"/>
    <path fill="#15F9BB" fill-rule="evenodd" d="M17.172 15L23 22.001h-4.344.775c-.497 0-.926-.229-1.223-.569l-.015.012-2.654-3.187h-.011a.7.7 0 0 0-.528-.243.7.7 0 0 0-.528.243h-.012l-2.653 3.187-.015-.012c-.297.34-.726.569-1.223.569h.774-4.344L12.828 15 6.999 8h3.569l.001-.001c.497 0 .926.229 1.223.569l.014-.012 2.652 3.185h.012c.13.147.315.245.53.245.215 0 .4-.098.53-.245h.011l2.652-3.185.015.012A1.618 1.618 0 0 1 19.432 8h3.569l-5.829 7z"/>
</svg>
