<svg xmlns="http://www.w3.org/2000/svg" width="22" height="22">
    <path fill="#2CDC8F" fill-rule="evenodd" d="M21 12h-2.184A2.99 2.99 0 0 1 16 14a2.99 2.99 0 0 1-2.816-2H1a1 1 0 0 1 0-2h12.184A2.99 2.99 0 0 1 16 8a2.99 2.99 0 0 1 2.816 2H21a1 1 0 0 1 0 2zm-5-2a1 1 0 1 0 0 2 1 1 0 0 0 0-2zm5-6H8.816A2.99 2.99 0 0 1 6 6a2.99 2.99 0 0 1-2.816-2H1a1 1 0 0 1 0-2h2.184A2.99 2.99 0 0 1 6 0a2.99 2.99 0 0 1 2.816 2H21a1 1 0 0 1 0 2zM6 2a1 1 0 1 0 0 2 1 1 0 0 0 0-2zM1 18h2.184A2.99 2.99 0 0 1 6 16a2.99 2.99 0 0 1 2.816 2H21a1 1 0 0 1 0 2H8.816A2.99 2.99 0 0 1 6 22a2.99 2.99 0 0 1-2.816-2H1a1 1 0 0 1 0-2zm5 2a1 1 0 1 0 0-2 1 1 0 0 0 0 2z"/>
</svg>
