<svg xmlns="http://www.w3.org/2000/svg" width="20" height="22">
    <path fill="#2CDC8F" fill-rule="evenodd" d="M20 6.023v9.823a.944.944 0 0 1-.076.529c-.005.014-.014.026-.02.04a.94.94 0 0 1-.17.252c-.037.041-.08.071-.123.105-.039.03-.066.069-.11.094l-8.966 5c-.039.022-.081.028-.122.04-.029.013-.06.018-.09.029l-.019.006c-.029.009-.054.02-.083.027-.032.006-.062.004-.093.006-.044.006-.083.026-.128.026s-.084-.02-.128-.026c-.031-.002-.061 0-.093-.006-.029-.007-.054-.018-.083-.027l-.019-.006c-.03-.011-.061-.016-.09-.029-.041-.012-.083-.018-.122-.04l-8.966-5c-.044-.025-.071-.064-.11-.094-.043-.034-.086-.064-.123-.105a.94.94 0 0 1-.17-.252c-.006-.014-.015-.026-.02-.04A.944.944 0 0 1 0 15.846V6.023L-.002 6c0-.064.001-.125.014-.188a.948.948 0 0 1 .062-.179l.011-.032c.012-.034.016-.069.035-.101.011-.018.03-.028.042-.045.023-.035.054-.063.084-.092a.964.964 0 0 1 .143-.135c.021-.018.04-.039.064-.054.017-.012.028-.03.046-.04l8.966-5c.074-.041.153-.053.231-.075.029-.009.054-.02.083-.027.075-.015.146-.016.221-.015.075-.001.146 0 .221.015.029.007.054.018.083.027.078.022.157.034.231.075l8.966 5c.018.01.029.028.046.04.024.015.043.036.064.054.053.042.1.084.143.135.03.029.061.057.084.092.012.017.031.027.042.045.019.032.023.067.035.101l.011.032a.948.948 0 0 1 .062.179.911.911 0 0 1 .014.188L20 6.023zm-18 9.37l7 3.904v-7.69L2 7.703v7.69zm8-13.248L3.088 6 10 9.855 16.912 6 10 2.145zm8 5.558l-7 3.904v7.69l7-3.904v-7.69z"/>
</svg>
