<svg xmlns="http://www.w3.org/2000/svg" width="13" height="13">
    <path fill="#49A2EE" fill-rule="evenodd" d="M12.069 6.425L9.811 8.682a3.192 3.192 0 0 1-4.515 0 3.163 3.163 0 0 1-.485-.644L5.86 6.989c.05-.05.112-.079.17-.113.073.248.2.482.394.677a1.599 1.599 0 0 0 2.258 0l2.258-2.257a1.598 1.598 0 0 0-2.258-2.258l-.803.803a4 4 0 0 0-2.036-.221l1.71-1.711a3.193 3.193 0 0 1 4.516 4.516zm-5.97 3.712l-.803.804a1.6 1.6 0 0 1-2.258 0 1.599 1.599 0 0 1 0-2.259l2.258-2.257a1.596 1.596 0 0 1 2.257 0c.195.194.322.429.395.676.059-.034.12-.062.17-.112L9.167 5.94a3.127 3.127 0 0 0-.485-.644 3.193 3.193 0 0 0-4.516 0L1.909 7.553a3.193 3.193 0 0 0 4.516 4.516l1.711-1.711a4.003 4.003 0 0 1-2.037-.221z"/>
</svg>
