<svg fill="none" height="424" viewBox="0 0 376 424" width="376" xmlns="http://www.w3.org/2000/svg" xmlns:xlink="http://www.w3.org/1999/xlink"><linearGradient id="a" gradientUnits="userSpaceOnUse" x1="-2.765" x2="149.63" y1="274.632" y2="274.632"><stop offset="0" stop-color="#b6b0e7"/><stop offset=".0485223" stop-color="#b2ace7"/><stop offset=".4188" stop-color="#9b91e7"/><stop offset=".7479" stop-color="#8c81e7"/><stop offset="1" stop-color="#877be7"/></linearGradient><linearGradient id="b"><stop offset="0" stop-color="#6254c4"/><stop offset="1" stop-color="#7567db"/></linearGradient><linearGradient id="c" gradientUnits="userSpaceOnUse" x1="149.647" x2="304.647" xlink:href="#b" y1="299.234" y2="299.234"/><linearGradient id="d" gradientUnits="userSpaceOnUse" x1="227.647" x2="382.647" y1="233.66" y2="233.66"><stop offset="0" stop-color="#5245b0"/><stop offset="1" stop-color="#6456d1"/></linearGradient><linearGradient id="e" gradientUnits="userSpaceOnUse" x1="227.647" x2="379.435" xlink:href="#b" y1="190.366" y2="190.366"/><linearGradient id="f" gradientUnits="userSpaceOnUse" x1="-8.4699" x2="461.202" y1="214.272" y2="214.272"><stop offset="0" stop-color="#7a6dd9"/><stop offset="1" stop-color="#877be7"/></linearGradient><linearGradient id="g" gradientUnits="userSpaceOnUse" x1="-2.5837" x2="407.386" y1="84.2323" y2="84.2323"><stop offset="0" stop-color="#6254c4"/><stop offset=".308" stop-color="#6659c8"/><stop offset=".6598" stop-color="#7467d5"/><stop offset="1" stop-color="#877be7"/></linearGradient><path d="m75.2 168.538-75.2-43 .0999985 85.5-.0999985 151.4c0 14.7 7.8 28.2 20.6 35.5l35.4 20.3c12.6 7.2 27.2 7.2 39.8.1l53.6-30.5" fill="url(#a)"/><path d="m227.6 341.838v-86.7l-.8-.5-77.2-43.9v1.6l.2 175.4" fill="url(#c)"/><path d="m303 211.637-75.3 43.501v86.599l129.4-77c12.7-7.3 18.6-20.799 18.6-35.499v-18.3-19.4c0-14.6-7-28.1-19.7-35.5l-52.9-30.6z" fill="url(#d)"/><path d="m227.6 255.138 75.4-43.5.1-86.1-75.5 42.9" fill="url(#e)"/><path d="m5.2 40.8375c-3.3 5.9-5.2 13-5.2 20.1v63.9005l.199999.8 72.400001 42.9v86 .6 90l77.1 42.5-.1-176.4 78 43.9v-.6-86.7" fill="url(#f)"/><path d="m227.6 168.438 75.4-42.9-116.4-67.4004v-.1l-91.4-52.60004c-12.6-7.19999-26.9-7.3-39.5 0l-35.3 20.10004c-6.6 3.8-11.8 9.1-15.4 15.4" fill="url(#g)"/></svg>