<svg height="121" width="94" xmlns="http://www.w3.org/2000/svg"><g fill-rule="evenodd"><path d="m40 1.47 48 27.759c3.314 1.916 6 6.156 6 9.47v57.999c0 3.314-2.686 4.447-6 2.531l-48-27.759c-3.314-1.916-6-6.156-6-9.47v-58c0-3.314 2.686-4.446 6-2.53z" opacity=".2"/><path d="m23 11.47 48 27.759c3.314 1.916 6 6.156 6 9.47v58c0 3.313-2.686 4.446-6 2.53l-48-27.759c-3.314-1.917-6-6.156-6-9.47v-58c0-3.314 2.686-4.446 6-2.53z" opacity=".6"/><path d="m6 21.47 48 27.759c3.314 1.916 6 6.156 6 9.469v58.001c0 3.313-2.686 4.446-6 2.53l-48-27.759c-3.314-1.917-6-6.156-6-9.47v-58c0-3.314 2.686-4.447 6-2.53z"/><path d="m39 78.814-9-5.18v11c0 1.104-.895 1.484-2 .849-1.105-.636-2-2.047-2-3.152v-11l-9-5.18c-1.105-.636-2-2.046-2-3.151s.895-1.485 2-.849l9 5.18v-11c0-1.104.895-1.484 2-.848 1.105.635 2 2.046 2 3.151v11l9 5.18c1.105.636 2 2.047 2 3.151 0 1.105-.895 1.485-2 .849z" fill="#fff"/></g></svg>