<svg xmlns="http://www.w3.org/2000/svg" width="17" height="14">
    <path fill="#53546A" fill-rule="evenodd" d="M15.5 5h-4.519l1.224 1.224a1.037 1.037 0 0 1-1.465 1.465L7.811 4.76a1.017 1.017 0 0 1-.24-.409 1 1 0 0 1-.065-.324C7.505 4.018 7.5 4.01 7.5 4v-.001a1.026 1.026 0 0 1 .295-.775L10.724.295a1.037 1.037 0 0 1 1.465 1.465L10.948 3H15.5a1 1 0 0 1 0 2zm-6.016 5c0 .009-.004.016-.004.024a1.077 1.077 0 0 1-.064.316 1.02 1.02 0 0 1-.242.42l-2.925 2.929a1.033 1.033 0 0 1-1.462 0 1.037 1.037 0 0 1 0-1.465L6.009 11H1.5a1 1 0 0 1 0-2h4.541L4.803 7.76a1.037 1.037 0 0 1 0-1.465 1.033 1.033 0 0 1 1.462 0L9.19 9.224c.213.214.306.496.294.776z"/>
</svg>
