<svg xmlns="http://www.w3.org/2000/svg" xmlns:xlink="http://www.w3.org/1999/xlink" viewBox="0 0 240 240" width="240px" height="240px">
<g id="surface267945607">
<path style=" stroke:none;fill-rule:nonzero;fill:rgb(100%,100%,100%);fill-opacity:1;" d="M 210 185 C 210 198.808594 198.808594 210 185 210 L 55 210 C 41.195312 210 30 198.808594 30 185 L 30 55 C 30 41.191406 41.195312 30 55 30 L 185 30 C 198.808594 30 210 41.191406 210 55 Z M 210 185 "/>
<path style=" stroke:none;fill-rule:nonzero;fill:rgb(100%,100%,100%);fill-opacity:1;" d="M 60 95 L 85 95 L 85 180 L 60 180 Z M 72.425781 85 L 72.285156 85 C 64.824219 85 60 79.441406 60 72.496094 C 60 65.398438 64.976562 60 72.570312 60 C 80.175781 60 84.859375 65.398438 85 72.496094 C 85 79.433594 80.175781 85 72.425781 85 Z M 180 180 L 155 180 L 155 134.503906 C 155 123.515625 148.875 116.015625 139.039062 116.015625 C 131.535156 116.015625 127.476562 121.074219 125.503906 125.964844 C 124.785156 127.714844 125 132.554688 125 135 L 125 180 L 100 180 L 100 95 L 125 95 L 125 108.078125 C 128.605469 102.5 134.25 95 148.691406 95 C 166.578125 95 179.996094 106.25 179.996094 131.371094 Z M 180 180 "/>
</g>
</svg>
