<svg xmlns="http://www.w3.org/2000/svg" width="68" height="68">
    <path fill="#4786FF" fill-rule="evenodd" d="M34 68C15.222 68 0 52.778 0 34S15.222 0 34 0s34 15.222 34 34-15.222 34-34 34zm0-66C16.327 2 2 16.327 2 34c0 17.673 14.327 32 32 32 17.673 0 32-14.327 32-32C66 16.327 51.673 2 34 2z"/>
    <path fill="#4786FF" fill-rule="evenodd" d="M34 60C19.641 60 8 48.359 8 34a1 1 0 0 1 2 0c0 13.255 10.745 24 24 24s24-10.745 24-24a1 1 0 0 1 2 0c0 14.359-11.641 26-26 26zm22.151-37.634l-3.464 2a1 1 0 0 1-1-1.732l3.464-2a1 1 0 0 1 1 1.732zm-10.785-6.053a1 1 0 1 1-1.732-1l2-3.464a1 1 0 0 1 1.732 1l-2 3.464zM34 49a8 8 0 0 1-8-8c0-4.079 3.055-7.438 7-7.931V19a1 1 0 0 1 2 0v14.069c3.945.493 7 3.852 7 7.931a8 8 0 0 1-8 8zm0-14a6 6 0 1 0 0 12 6 6 0 0 0 0-12zm0 10a4 4 0 1 1 0-8 4 4 0 0 1 0 8zm0-6a2 2 0 1 0-.001 3.999A2 2 0 0 0 34 39zm0-25a1 1 0 0 1-1-1V9a1 1 0 0 1 2 0v4a1 1 0 0 1-1 1zm-10 2.68a1 1 0 0 1-1.366-.367l-2-3.464a1 1 0 0 1 1.732-1l2 3.464c.276.479.112 1.09-.366 1.367zm-8.687 7.686l-3.464-2a1 1 0 0 1 1-1.732l3.464 2a1 1 0 1 1-1 1.732z"/>
</svg>
