<svg width="1024" height="1024" viewBox="0 0 1024 1024" fill="none" xmlns="http://www.w3.org/2000/svg">
<path d="M254.655 558.684L280.255 365.884L57.8555 211.484L261.055 280.284L309.055 206.684L484.255 97.8836L870.656 310.684L890.656 635.484L718.656 874.684L582.656 895.484L653.055 766.684V642.684L601.855 545.884L549.855 511.484L469.855 593.884V681.084L407.455 739.484L328.255 749.084L293.055 769.084L235.455 750.684L211.455 664.284L254.655 603.484V558.684Z" fill="white"/>
<path d="M609.857 209.883C567.457 201.083 521.057 203.483 521.057 203.483C521.057 203.483 505.857 273.883 411.457 292.283C412.257 292.283 536.257 334.683 609.857 209.883Z" fill="#94A6C3"/>
<path d="M648.256 848.284C699.456 808.284 737.856 753.084 755.456 690.684C756.256 688.284 763.456 684.284 768.256 681.084C776.256 676.284 784.256 672.284 785.856 665.884C789.056 647.484 790.656 628.284 790.656 609.084C790.656 601.884 783.456 594.684 776.256 587.484C770.656 582.684 765.056 577.084 765.056 573.084C757.056 500.284 723.456 432.284 669.856 382.684L664.256 388.284C716.256 437.084 749.856 503.484 757.056 573.884C757.856 580.284 764.256 586.684 770.656 593.084C776.256 597.884 782.656 605.084 782.656 608.284C782.656 626.684 781.056 645.084 777.856 663.484C777.056 666.684 769.856 669.884 764.256 673.084C756.256 677.084 749.056 681.084 747.456 687.484C728.256 755.484 684.256 814.684 625.856 853.084C636.256 830.684 669.056 757.884 686.656 721.084L683.456 602.684L581.856 504.284L524.256 512.284L461.056 614.684C461.056 614.684 490.656 652.284 449.056 696.284C408.256 739.484 376.256 749.084 376.256 749.084L346.656 733.084C355.456 721.884 373.056 705.084 386.656 693.884C409.856 674.684 433.056 673.084 433.056 652.284C433.856 609.084 387.456 621.084 387.456 621.084L370.656 637.084L363.456 696.284L328.256 740.284L324.256 739.484L266.656 726.684C266.656 726.684 301.856 708.284 307.456 687.484C313.056 667.484 296.256 601.084 295.456 597.084C296.256 597.884 312.256 611.484 319.456 633.884C332.256 598.684 349.056 565.084 353.856 561.884C358.656 558.684 423.456 524.284 423.456 524.284L401.856 581.084L417.856 572.284L456.256 477.884C456.256 477.884 493.856 459.484 521.856 459.484C572.256 458.684 646.656 397.084 613.056 286.684C622.656 290.684 789.056 373.884 817.856 537.084C839.456 662.684 768.256 780.284 648.256 848.284Z" fill="#94A6C3"/>
<path d="M457.857 227.484C476.257 205.884 469.057 173.884 469.057 173.884L415.457 253.084C414.657 253.084 434.657 253.884 457.857 227.484Z" fill="#1B314F"/>
<path d="M277.856 660.286L284.256 628.286C284.256 628.286 257.856 674.686 255.456 681.086C253.056 688.286 257.056 701.086 267.456 700.286C277.856 699.486 290.656 684.286 290.656 673.086C290.656 658.686 277.856 660.286 277.856 660.286Z" fill="#1B314F"/>
<path d="M753.056 151.485C753.056 151.485 793.056 153.085 834.656 157.885C741.056 84.2848 652.256 62.6848 580.256 62.6848C481.056 62.6848 413.856 103.485 409.856 105.885L441.056 56.2848C441.056 56.2848 316.256 44.2848 272.256 176.285C261.056 148.285 250.656 107.485 250.656 107.485C250.656 107.485 185.856 164.285 216.256 258.685C141.856 231.485 35.456 193.885 31.456 193.085C25.856 192.285 24.256 194.685 24.256 194.685C24.256 194.685 22.656 197.085 27.456 201.085C36.256 208.285 204.256 332.285 241.056 356.285C233.056 385.085 233.056 398.685 241.056 412.285C252.256 430.685 253.056 440.285 251.456 453.885C249.856 467.485 235.456 585.085 232.256 599.485C229.056 613.885 195.456 665.085 197.056 680.285C198.656 695.485 219.456 760.285 237.856 767.485C251.456 772.285 285.056 782.685 307.456 782.685C315.456 782.685 322.656 781.085 325.856 777.885C339.456 765.885 343.456 763.485 353.056 763.485C353.856 763.485 354.656 763.485 355.456 763.485C359.456 763.485 364.256 764.285 369.856 764.285C382.656 764.285 399.456 761.885 411.456 750.685C429.056 733.085 459.456 709.085 469.056 697.885C481.056 682.685 487.456 661.885 484.256 641.085C481.856 621.885 492.256 605.085 504.256 588.285C519.456 568.285 547.456 532.285 547.456 532.285C602.656 573.885 637.056 637.085 637.056 707.485C637.056 832.285 528.256 933.085 393.856 933.085C373.056 933.085 353.056 930.685 333.056 925.885C394.656 947.485 446.656 954.685 489.056 954.685C579.456 954.685 627.456 921.885 627.456 921.885C627.456 921.885 610.656 943.485 583.456 968.285C584.256 968.285 584.256 968.285 584.256 968.285C733.856 947.485 806.656 824.285 806.656 824.285C806.656 824.285 801.056 864.285 793.856 891.485C993.056 741.885 959.456 554.685 958.656 548.285C960.256 550.685 980.256 574.685 990.656 587.485C1022.66 257.885 753.056 151.485 753.056 151.485ZM446.656 677.885C443.456 681.885 429.856 693.885 420.256 702.685C410.656 711.485 400.256 720.285 392.256 728.285C389.056 731.485 382.656 733.085 373.056 733.085C369.856 733.085 366.656 733.085 364.256 733.085C362.656 733.085 361.056 733.085 359.456 733.085C357.856 733.085 357.056 733.085 356.256 733.085C353.856 733.085 351.456 733.085 349.056 733.085C361.056 717.085 396.256 680.285 408.256 672.285C422.656 662.685 429.856 653.085 421.056 636.285C412.256 619.485 389.056 623.485 389.056 623.485C389.056 623.485 402.656 617.885 414.656 617.885C399.456 613.885 380.256 617.885 371.456 626.685C361.856 635.485 363.456 666.685 359.456 686.685C355.456 707.485 341.856 717.885 321.056 737.085C309.856 747.485 301.856 750.685 295.456 750.685C281.856 748.285 265.856 744.285 254.656 740.285C246.656 729.885 234.656 695.485 231.456 681.085C233.856 673.085 243.456 656.285 248.256 646.685C257.856 628.285 263.456 617.885 265.056 608.285C268.256 594.685 278.656 510.685 282.656 475.485C293.056 489.085 307.456 511.485 304.256 525.885C327.456 493.085 310.656 461.085 302.656 448.285C295.456 435.485 285.856 409.885 293.856 382.685C301.856 355.485 330.656 280.285 330.656 280.285C330.656 280.285 340.256 297.085 353.856 293.885C367.456 290.685 477.056 125.885 477.056 125.885C477.056 125.885 506.656 190.685 475.456 237.885C443.456 285.085 412.256 293.885 412.256 293.885C412.256 293.885 456.256 301.885 497.056 272.285C513.856 311.485 529.856 352.285 530.656 357.885C528.256 363.485 496.256 440.285 493.056 445.085C491.456 446.685 480.256 449.885 472.256 451.485C458.656 455.485 450.656 457.885 447.456 460.285C441.856 465.085 416.256 535.485 404.256 569.885C389.856 573.885 375.456 581.885 365.056 597.885C370.656 593.885 388.256 591.485 401.056 589.885C412.256 589.085 446.656 607.485 455.456 641.885C455.456 642.685 455.456 642.685 455.456 643.485C457.056 656.285 453.056 668.285 446.656 677.885ZM371.456 687.485C378.656 677.085 377.856 659.485 378.656 653.885C379.456 648.285 381.056 637.885 387.456 636.285C393.856 634.685 409.056 637.085 409.056 648.285C409.056 658.685 397.856 661.085 389.856 668.285C384.256 673.885 373.056 685.885 371.456 687.485ZM690.656 534.685C698.656 493.885 699.456 458.685 697.056 429.885C728.256 471.485 747.456 521.885 753.056 573.885C753.856 580.285 760.256 586.685 766.656 593.085C772.256 597.885 778.656 604.285 778.656 608.285C778.656 626.685 777.056 645.085 773.856 663.485C773.056 665.885 765.856 669.885 760.256 673.085C752.256 677.085 745.056 681.085 743.456 687.485C725.856 749.085 688.256 803.485 637.856 841.885C712.256 764.285 748.256 636.285 690.656 534.685ZM640.256 849.085C692.256 809.085 732.256 753.085 749.856 689.885C750.656 687.485 757.856 683.485 762.656 680.285C770.656 676.285 778.656 671.485 780.256 665.085C783.456 646.685 785.056 627.485 785.056 608.285C785.056 601.085 777.856 593.885 770.656 586.685C766.656 581.885 760.256 576.285 760.256 572.285C753.856 513.885 730.656 458.685 694.656 413.085C678.656 317.085 614.656 287.485 613.056 286.685C614.656 289.085 656.256 349.085 627.456 419.485C597.856 490.685 521.856 479.485 515.456 480.285C509.056 480.285 484.256 512.285 453.056 571.485C449.056 569.885 432.256 565.885 413.056 569.085C427.456 529.085 449.056 472.285 453.056 467.485C454.656 465.885 466.656 462.685 474.656 460.285C489.856 456.285 497.056 453.885 499.456 450.685C501.056 448.285 509.056 429.885 517.056 410.685C524.256 410.685 542.656 409.085 544.256 408.285C545.856 406.685 561.056 367.485 561.056 362.685C561.056 358.685 529.856 281.085 517.856 251.485C523.456 245.085 529.056 237.085 534.656 228.285C698.656 245.885 826.656 385.085 826.656 553.885C826.656 683.485 750.656 796.285 640.256 849.085Z" fill="#1B314F"/>
<path d="M427.456 417.084C442.656 399.484 434.656 366.684 406.656 361.084C413.856 344.284 424.256 310.684 424.256 310.684C424.256 310.684 342.656 438.684 335.456 441.084C328.256 443.484 321.056 415.485 321.056 415.485C305.856 473.884 346.656 481.884 351.456 463.485C373.856 457.884 412.256 433.884 427.456 417.084Z" fill="#1B314F"/>
<path d="M357.855 448.286L399.455 377.086C399.455 377.086 423.455 389.086 411.455 408.286C396.255 430.686 357.855 448.286 357.855 448.286Z" fill="#FFD923"/>
<path d="M872.256 777.885C860.256 793.885 846.656 810.685 830.656 826.685C933.856 628.285 835.456 446.685 831.456 439.485C838.656 446.685 845.856 454.685 852.256 461.885C931.456 549.885 941.056 681.885 872.256 777.885Z" fill="#D82122"/>
<path d="M968.256 522.684C932.256 425.884 881.056 343.484 768.256 269.084C659.456 197.084 542.656 202.684 536.256 203.484C535.456 203.484 534.656 203.484 534.656 203.484C538.656 201.884 542.656 201.084 546.656 200.284C571.456 192.284 603.456 185.884 635.456 181.884C720.256 169.884 805.856 198.684 864.256 260.284C865.056 261.084 865.056 261.084 865.856 261.884C932.256 332.284 966.656 420.284 968.256 522.684Z" fill="#D82122"/>
<path d="M742.656 126.686C623.456 104.286 546.656 115.486 491.456 136.286C489.856 129.886 484.256 117.086 479.456 106.686C462.656 126.686 445.056 150.686 433.856 165.886C403.456 186.686 390.656 206.686 390.656 206.686C408.256 146.686 459.456 101.886 521.856 90.6863C539.456 87.4863 558.656 85.8863 579.456 85.8863C634.656 86.6863 689.856 100.286 742.656 126.686Z" fill="#D82122"/>
<path d="M301.857 280.286C208.257 277.086 239.457 168.286 241.057 161.886C241.057 162.686 247.457 247.486 301.857 280.286Z" fill="#D82122"/>
<path d="M393.856 84.2852C321.856 127.485 336.256 230.685 336.256 230.685C267.456 125.885 388.256 86.6852 393.856 84.2852Z" fill="#D82122"/>
<path d="M275.457 309.085C280.257 313.085 285.057 320.285 279.457 330.685C276.257 336.285 271.457 335.485 264.257 332.285C254.657 327.485 197.057 293.885 145.057 259.485C204.257 280.285 264.257 302.685 273.857 307.485C273.857 307.485 274.657 308.285 275.457 309.085Z" fill="white"/>
</svg>
