<svg fill="none" height="200" viewBox="0 0 200 200" width="200" xmlns="http://www.w3.org/2000/svg" xmlns:xlink="http://www.w3.org/1999/xlink"><linearGradient id="a"><stop offset="0" stop-color="#03b8ff"/><stop offset="1" stop-color="#fa52a0"/></linearGradient><linearGradient id="b" gradientUnits="userSpaceOnUse" x1="80.4241" x2="101.941" xlink:href="#a" y1="32.8835" y2="106.77"/><linearGradient id="c" gradientUnits="userSpaceOnUse" x1="98.1435" x2="119.661" xlink:href="#a" y1="27.7228" y2="101.61"/><linearGradient id="d" gradientUnits="userSpaceOnUse" x1="62.7597" x2="84.2771" xlink:href="#a" y1="38.0274" y2="111.914"/><clipPath id="e"><path d="m30 30h140v140h-140z"/></clipPath><path d="m0 0h200v200h-200z" fill="none"/><g clip-path="url(#e)"><path d="m59.1662 43.4167 108.4998 74.0833-26.833 39.667-108.5001-74.6669z" fill="url(#b)"/><path d="m167.666 117.5c-9.333 13.417-40.833 8.167-70.583-12.833-30.3333-20.4169-46.6667-47.8335-37.9167-61.2502 9.3333-13.4167 40.8333-8.1667 70.5837 12.8333 30.333 19.8334 46.666 47.8329 37.916 61.2499z" fill="url(#c)"/><path d="m140.833 156.583c-9.333 13.417-40.8333 8.167-70.5833-12.833s-46.6667-47.8332-37.3333-61.8332c9.3333-13.4167 40.8333-8.1667 70.5836 12.8333 29.75 20.9999 46.083 48.4169 37.333 61.8329z" fill="url(#d)"/><path d="m167.666 117.5-26.833 39.667c-9.334 13.416-40.8335 7.583-70.5835-12.834-5.8334-4.083-11.0834-8.166-16.3334-12.833 4.0834-.583 9.3334-2.917 14.5834-8.75 9.3333-9.917 14-12.25 18.0833-11.667 4.0833 0 8.75 4.084 16.3332 14 7.583 9.917 18.083 12.834 24.5 7.584.583-.584 1.167-.584 1.75-1.167 5.25-4.083 7-5.833 16.917-24.5 2.333-4.667 10.5-12.2499 21.583-8.7499 2.917 7.5829 2.917 13.9999 0 19.2499z" fill="#0e0f23"/><g fill="#fff"><path clip-rule="evenodd" d="m163.583 115.167c-8.167 11.666-36.75 5.833-64.1669-13.417-28-19.2498-44.3334-43.7498-36.1667-55.4165s36.75-5.8333 64.1666 13.4167c27.417 19.25 43.75 43.7498 36.167 55.4168zm-25.667-17.5002c-4.083 5.8332-18.083 2.9162-32.083-6.4166-13.4169-9.3334-21.5836-21.5834-17.5003-27.4167 4.0834-5.8333 18.0833-2.9167 32.0833 6.4167 13.417 9.3333 21.583 21.5833 17.5 27.4166z" fill-rule="evenodd"/><path d="m56.8333 56.8334c0-.5834-.5833-1.1667-1.1666-.5834-.5834.5834-1.1667.5834-1.1667 1.1667.5833 1.75 1.1667 2.9167 1.1667 4.0833 0 .5834.5833 1.1667 1.1666.5834.5834 0 1.1667-.5834.5834-1.1667 0-1.1667 0-2.3333-.5834-4.0833z"/><path d="m59.7495 66.1668c0-.5834-.5833-1.1667-1.1667-.5834-.5833.5834-.5833.5834-.5833 1.1667 6.4167 14.5833 19.8333 30.3333 37.3333 41.9999.5834.583 1.1667 0 1.75 0 .5834-.583 0-1.167 0-1.75-18.0833-11.6666-30.9166-26.8332-37.3333-40.8332z"/><path d="m130.333 123.333c-.583 0-1.166 0-1.166.584 0 .583 0 1.166.583 1.166 1.75.584 4.083 1.167 5.833 1.75.584 0 1.167 0 1.167-.583s0-1.167-.583-1.167c-1.75-.583-4.084-1.166-5.834-1.75z"/><path d="m140.833 125.667c-.583 0-1.167.583-1.167 1.166 0 .584.584 1.167 1.167 1.167 4.667.583 9.917 1.167 14 .583.583 0 1.167-.583 1.167-1.166 0-.584-.584-1.167-1.167-1.167-4.667.583-9.333 0-14-.583z"/></g></g></svg>