<svg fill="none" height="200" viewBox="0 0 200 200" width="200" xmlns="http://www.w3.org/2000/svg" xmlns:xlink="http://www.w3.org/1999/xlink"><linearGradient id="a" gradientUnits="userSpaceOnUse" x1="44.2857" x2="170" y1="48.5714" y2="170"><stop offset="0" stop-color="#1a2a8d"/><stop offset=".9999" stop-color="#5520d9"/><stop offset="1" stop-color="#c4c4c4" stop-opacity="0"/></linearGradient><path d="m0 0h200v200h-200z" fill="none"/><circle cx="100" cy="100" fill="url(#a)" r="70"/><path clip-rule="evenodd" d="m47.5 118.254v-18.2543c0-28.9948 23.5049-52.4997 52.4996-52.4997 14.3014 0 27.2674 5.7186 36.7364 14.9939l-11.161 6.9739c-6.919-5.8019-15.839-9.2955-25.5754-9.2955-21.9959 0-39.8272 17.8314-39.8272 39.8274h12.6722zm26.7326 12.115c6.9456 5.9 15.9412 9.458 25.7674 9.458 21.996 0 39.828-17.831 39.828-39.8273h-12.673l25.344-18.5557.001 18.5557c0 28.9953-23.505 52.5003-52.5 52.5003-14.3898 0-27.4278-5.79-36.9113-15.167zm45.9074-12.945h-14.483l-5.657-7.641-5.6563 7.641h-14.4827l13.1203-17.123-13.1215-17.7255h13.5776l6.5626 8.5653 6.563-8.5653h13.578l-13.122 17.7255z" fill="#fff" fill-rule="evenodd"/></svg>