<svg id="e8bb1219-51de-4d96-8908-ef7a2f478a19" data-name="b2161dc8-e844-4e61-8df6-78103927c3cf" xmlns="http://www.w3.org/2000/svg" viewBox="0 0 1109.21 201.9"><defs><style>.a88e5b82-b15c-4447-952d-6e940a861888{fill:#49484b;}.a97074f0-d784-4ff8-8daf-67863f155aff{fill:#9d41eb;}</style></defs><title>2_violet_grey_logo_velas</title><path class="a88e5b82-b15c-4447-952d-6e940a861888" d="M769.5,6.4,692.8,201.8h38.9L788,51.3Z"/><polygon class="a97074f0-d784-4ff8-8daf-67863f155aff" points="889.1 201.9 850.2 201.9 788 51.3 769.5 6.4 812.3 6.4 889.1 201.9"/><path class="a88e5b82-b15c-4447-952d-6e940a861888" d="M119.6,198.3,196.3,2.8H157.4L101,153.4Z"/><polygon class="a88e5b82-b15c-4447-952d-6e940a861888" points="0 2.8 38.9 2.8 101 153.4 119.6 198.3 76.8 198.3 0 2.8"/><rect class="a88e5b82-b15c-4447-952d-6e940a861888" x="276.2" y="168.1" width="133.9" height="30.2"/><rect class="a88e5b82-b15c-4447-952d-6e940a861888" x="276.2" y="83.8" width="133.9" height="30.2"/><path class="a88e5b82-b15c-4447-952d-6e940a861888" d="M503.7,198.3V2.9H538V168.1h86.1v30.2Z"/><path class="a88e5b82-b15c-4447-952d-6e940a861888" d="M954,171l19-26.4a89.63,89.63,0,0,0,27,19.5,80.69,80.69,0,0,0,34.9,7.6c13.1,0,22.9-2.7,29.4-8s9.8-11.6,9.8-18.9a17.62,17.62,0,0,0-3.9-11.5,28.57,28.57,0,0,0-10.5-8,100.92,100.92,0,0,0-15.1-5.5l-17.9-5-18.9-5.2a99.59,99.59,0,0,1-18.1-7,77,77,0,0,1-15.1-10.2,40.52,40.52,0,0,1-10.5-14.8A50.35,50.35,0,0,1,960.2,57q0-24.45,19.8-40.7C993.2,5.5,1010.3,0,1031.4,0q45.3,0,73.5,27l-19.8,25.5a71.75,71.75,0,0,0-25.9-16.7,84.83,84.83,0,0,0-30.7-5.7c-10,0-18,2.2-24.1,6.7a21.24,21.24,0,0,0-9.1,17.8,15.18,15.18,0,0,0,3.8,10.2,29,29,0,0,0,10.4,7.2,117.08,117.08,0,0,0,15.1,5.2l18,5.1,18.9,5.3a97.55,97.55,0,0,1,18.1,7.2,73.33,73.33,0,0,1,15.3,10.6,42.07,42.07,0,0,1,10.4,15.3,54,54,0,0,1,3.9,21,59.06,59.06,0,0,1-4.5,23.1,54.91,54.91,0,0,1-13.5,19.1c-6,5.6-13.9,10-23.8,13.2s-21.3,4.8-34.1,4.8C999.9,201.9,973.4,191.6,954,171Z"/><rect class="a97074f0-d784-4ff8-8daf-67863f155aff" x="276.2" y="2.9" width="133.9" height="30.2"/></svg>