<svg id="_-e-logo_top" data-name="-e-logo_top" xmlns="http://www.w3.org/2000/svg" width="123" height="28" viewBox="0 0 123 28">
  <metadata><?xpacket begin="﻿" id="W5M0MpCehiHzreSzNTczkc9d"?>
<x:xmpmeta xmlns:x="adobe:ns:meta/" x:xmptk="Adobe XMP Core 5.6-c140 79.160451, 2017/05/06-01:08:21        ">
   <rdf:RDF xmlns:rdf="http://www.w3.org/1999/02/22-rdf-syntax-ns#">
      <rdf:Description rdf:about=""/>
   </rdf:RDF>
</x:xmpmeta>
                                                                                                    
                                                                                                    
                                                                                                    
                                                                                                    
                                                                                                    
                                                                                                    
                                                                                                    
                                                                                                    
                                                                                                    
                                                                                                    
                                                                                                    
                                                                                                    
                                                                                                    
                                                                                                    
                                                                                                    
                                                                                                    
                                                                                                    
                                                                                                    
                                                                                                    
                                                                                                    
                           
<?xpacket end="w"?></metadata>
<defs>
    <style>
      .cls-1 {
        fill: #00ae83;
      }

      .cls-1, .cls-2, .cls-3, .cls-4, .cls-5, .cls-6, .cls-7 {
        fill-rule: evenodd;
      }

      .cls-2 {
        fill: #01b9c5;
      }

      .cls-3 {
        fill: #f05624;
      }

      .cls-4 {
        fill: #ffb00e;
      }

      .cls-5 {
        fill: #a02750;
      }

      .cls-6 {
        fill: #d1547c;
      }

      .cls-7 {
        fill: #02122b;
      }
    </style>
  </defs>
  <path id="Фигура_3" data-name="Фигура 3" class="cls-1" d="M94.553,32.442a28.725,28.725,0,0,1,5.338-9.3,35.84,35.84,0,0,0-7.4,1.3,0.88,0.88,0,0,1-.468.837A29.914,29.914,0,0,0,94.553,32.442Z" transform="translate(-85 -17)"/>
  <path id="Фигура_4" data-name="Фигура 4" class="cls-2" d="M93.616,32.814a24.859,24.859,0,0,1-2.622-7.349,0.517,0.517,0,0,1-.562-0.279C86.265,26.915,85,28.163,85,28.163A27.428,27.428,0,0,0,93.616,32.814Z" transform="translate(-85 -17)"/>
  <path id="Фигура_5" data-name="Фигура 5" class="cls-3" d="M102.419,23.233a34.584,34.584,0,0,1,7.492,1.209,0.782,0.782,0,0,0,.469.837,25.7,25.7,0,0,1-2.623,7.163S105.975,26.839,102.419,23.233Z" transform="translate(-85 -17)"/>
  <path id="Фигура_6" data-name="Фигура 6" class="cls-4" d="M110.192,23.419a1.063,1.063,0,0,1,.562-0.279,43.761,43.761,0,0,0,.187-6.14c-4.126,1.127-8.522,5.116-8.522,5.116A35.633,35.633,0,0,1,110.192,23.419Z" transform="translate(-85 -17)"/>
  <path id="Фигура_7" data-name="Фигура 7" class="cls-5" d="M95.77,34.488a26.841,26.841,0,0,0,10.77,0,26.478,26.478,0,0,1-4.964,5.86,0.854,0.854,0,0,0-.843,0A27.578,27.578,0,0,1,95.77,34.488Z" transform="translate(-85 -17)"/>
  <path id="Фигура_8" data-name="Фигура 8" class="cls-6" d="M102.326,41.186a29.92,29.92,0,0,0,5.057-6.047c1.369,4.5.187,9.861,0.187,9.861a30.1,30.1,0,0,1-5.244-3.256A0.509,0.509,0,0,0,102.326,41.186Z" transform="translate(-85 -17)"/>
  <path id="AERUM" class="cls-7" d="M126.12,36.85h0.839L122.759,26h-0.474L118,36.85h0.824l1.487-3.814h4.331Zm-4.046-8.374a12.039,12.039,0,0,0,.43-1.286q0.255,0.813.437,1.271l1.451,3.9h-3.813Zm22.672,7.679h-5.082V31.521h4.8V30.826h-4.8V26.739h5.082V26.044H138.92V36.85h5.826V36.155ZM161,32.142l2.749,4.708h0.889l-2.894-4.922a3.137,3.137,0,0,0,1.717-1.072,2.953,2.953,0,0,0,.565-1.833,2.666,2.666,0,0,0-.948-2.236,4.732,4.732,0,0,0-2.931-.743h-2.537V36.85h0.743V32.142H161Zm-2.647-5.418h1.765a3.941,3.941,0,0,1,2.377.562,2.125,2.125,0,0,1,.729,1.8,2.191,2.191,0,0,1-.744,1.8,3.214,3.214,0,0,1-2.092.61h-2.035V26.724Zm25.677-.68V33.11a3.236,3.236,0,0,1-.839,2.369,3.16,3.16,0,0,1-2.362.854,3.228,3.228,0,0,1-2.413-.869,3.315,3.315,0,0,1-.853-2.428V26.044h-0.751v6.962a4,4,0,0,0,1.039,2.938A3.875,3.875,0,0,0,180.743,37a4.045,4.045,0,0,0,2.968-1.05,3.9,3.9,0,0,0,1.064-2.912V26.044h-0.743Zm19.26,10.806,3.988-9.963h0.058q-0.087.917-.087,1.774V36.85H208V26.044h-1.123l-3.777,9.5h-0.044l-3.776-9.5H198.13V36.85h0.714v-8.1q0-.961-0.058-1.877h0.058l3.974,9.978h0.474Z" transform="translate(-85 -17)"/>
</svg>
