<svg width="40" height="40" viewBox="0 0 40 40" fill="none" xmlns="http://www.w3.org/2000/svg">
<circle cx="20" cy="20" r="16" fill="white"/>
<g clip-path="url(#clip0_3670_146754)">
<path d="M22.2429 17.3434H24.6974L20.0001 5.6001L15.3028 17.3434H18.0282C18.3553 17.3434 18.6494 17.1443 18.7709 16.8405L20.0001 13.7676L21.1287 16.5891C21.3109 17.0447 21.7522 17.3434 22.2429 17.3434Z" fill="url(#paint0_linear_3670_146754)"/>
<path d="M24.2793 24.4656L20.0001 21.9401L15.7209 24.4656L17.1322 20.9372C17.2776 20.5739 17.1388 20.1588 16.8042 19.956L14.7547 18.7136L9.6001 31.6001L20.0001 25.4623L30.4001 31.6001L25.2455 18.7136L23.196 19.956C22.8614 20.1588 22.7226 20.5739 22.8679 20.9372L24.2793 24.4656Z" fill="url(#paint1_linear_3670_146754)"/>
</g>
<defs>
<linearGradient id="paint0_linear_3670_146754" x1="20.0001" y1="14.4001" x2="20.0001" y2="31.2001" gradientUnits="userSpaceOnUse">
<stop stop-color="#FF424E"/>
<stop offset="1" stop-color="#5E5CE6"/>
</linearGradient>
<linearGradient id="paint1_linear_3670_146754" x1="20.0001" y1="14.4001" x2="20.0001" y2="31.2001" gradientUnits="userSpaceOnUse">
<stop stop-color="#FF424E"/>
<stop offset="1" stop-color="#5E5CE6"/>
</linearGradient>
<clipPath id="clip0_3670_146754">
<rect width="20.8" height="26" fill="white" transform="translate(9.6001 5.6001)"/>
</clipPath>
</defs>
</svg>
