<svg width="40" height="40" viewBox="0 0 40 40" fill="none" xmlns="http://www.w3.org/2000/svg">
<circle cx="20" cy="20" r="16" fill="#758FFF"/>
<circle cx="20.0027" cy="19.8846" r="14.4837" fill="url(#paint0_linear_9_9610)"/>
<circle cx="20.0027" cy="19.8846" r="14.4837" fill="url(#paint1_linear_9_9610)"/>
<path opacity="0.45" d="M6.07703 19.8846C6.07703 11.8859 12.311 5.40094 20.0027 5.40094C12.004 5.40094 5.51904 11.8859 5.51904 19.8846C5.51904 27.8834 12.004 34.3683 20.0027 34.3683C12.311 34.3683 6.07703 27.8834 6.07703 19.8846Z" fill="#3300CC"/>
<path opacity="0.45" d="M20.0028 5.40372C27.6945 5.40372 33.9285 11.8887 33.9285 19.8874C33.9285 27.8862 27.6945 34.3711 20.0028 34.3711C28.0015 34.3711 34.4865 27.8862 34.4865 19.8874C34.4838 11.8887 28.0015 5.40372 20.0028 5.40372Z" fill="#3300CC"/>
<g opacity="0.38">
<path fill-rule="evenodd" clip-rule="evenodd" d="M23.5055 17.2978H22.6085C22.3228 17.2978 22.0371 17.2978 21.7541 17.3005C21.6554 17.3005 21.5539 17.2951 21.4578 17.2684C21.1908 17.1963 20.9879 17.0415 20.8517 16.8012C20.8224 16.7505 20.7983 16.6971 20.777 16.641L20.1843 15.1593C20.0989 14.943 20.0134 14.7268 19.9253 14.5105C19.92 14.4972 19.9146 14.4838 19.9066 14.4705C19.9013 14.4651 19.8933 14.4598 19.8879 14.4571C19.8853 14.4545 19.8799 14.4598 19.8799 14.4625C19.8693 14.4838 19.8586 14.5078 19.8479 14.5319L19.8478 14.5321C19.5381 15.3036 19.2285 16.0751 18.9215 16.8466C18.8761 16.9587 18.82 17.0575 18.7266 17.1376C18.6278 17.2204 18.5157 17.2738 18.3875 17.2871C18.3395 17.2925 18.2914 17.2951 18.2433 17.2951H16.225C16.1983 17.2951 16.1742 17.2951 16.1475 17.2925C16.1369 17.2925 16.1289 17.2764 16.1315 17.2684C16.1475 17.2257 16.1636 17.183 16.1796 17.1429C16.3905 16.617 16.6014 16.0884 16.8123 15.5598C17.1914 14.6122 17.5704 13.6639 17.9494 12.7157C18.3286 11.767 18.7078 10.8184 19.087 9.87039C19.2138 9.55268 19.3406 9.23564 19.4675 8.9186C19.5943 8.60156 19.7211 8.28453 19.8479 7.96682C19.8529 7.95182 19.86 7.93785 19.8672 7.92363C19.8715 7.91507 19.8759 7.90643 19.8799 7.89741C19.8799 7.89474 19.8933 7.89741 19.896 7.90008C19.9093 7.92411 19.92 7.94546 19.9307 7.96949C20.0387 8.23553 20.1452 8.50319 20.2513 8.76994C20.2815 8.84584 20.3116 8.92167 20.3418 8.99737C20.5007 9.39517 20.6602 9.79298 20.8197 10.1908C20.9792 10.5886 21.1387 10.9864 21.2976 11.3842C21.5579 12.0356 21.8189 12.6871 22.0799 13.3385C22.3408 13.99 22.6018 14.6414 22.8621 15.2928C22.9863 15.6038 23.1097 15.9142 23.2332 16.2246C23.3567 16.5349 23.4802 16.8453 23.6043 17.1563C23.615 17.1794 23.6233 17.2026 23.6316 17.2257C23.6358 17.2373 23.6399 17.2489 23.6444 17.2604C23.6497 17.2764 23.639 17.2925 23.6257 17.2951C23.6203 17.2951 23.615 17.2958 23.6097 17.2965C23.6043 17.2971 23.599 17.2978 23.5936 17.2978H23.5055ZM24.4197 19.2011C24.421 19.2064 24.4224 19.2117 24.424 19.2173C24.4404 19.2319 24.448 19.2502 24.4555 19.268C24.459 19.2763 24.4624 19.2844 24.4667 19.2921C24.5948 19.6098 24.7203 19.9248 24.8458 20.2399C25.038 20.7258 25.2329 21.2143 25.4278 21.7002C25.5719 22.0605 25.716 22.4201 25.8601 22.7797C26.0043 23.1396 26.1486 23.4995 26.2928 23.8601C26.4891 24.3502 26.6854 24.8409 26.8817 25.3316C27.0778 25.822 27.274 26.3125 27.4702 26.8022C27.5797 27.076 27.6899 27.3505 27.8001 27.625C27.9102 27.8992 28.0202 28.1733 28.1296 28.4468C28.1644 28.5323 28.1991 28.6204 28.2311 28.7058C28.2311 28.7058 28.2311 28.7138 28.2284 28.7138C28.2276 28.7142 28.2267 28.7147 28.2257 28.7152C28.2206 28.718 28.2142 28.7214 28.2097 28.7192C28.1964 28.7165 28.183 28.7085 28.1697 28.7005C28.0856 28.6511 28.0015 28.601 27.9174 28.551C27.8333 28.5009 27.7492 28.4508 27.6651 28.4015C27.5706 28.3457 27.4758 28.2897 27.3809 28.2336C27.1488 28.0963 26.9157 27.9585 26.6826 27.8221L25.9377 27.3816C25.5239 27.136 25.1101 26.8903 24.6963 26.6474C24.3891 26.4658 24.082 26.2848 23.7749 26.1039C23.4679 25.9231 23.161 25.7423 22.8541 25.5608C22.6112 25.4166 22.3675 25.2731 22.1239 25.1296C21.8803 24.9861 21.6367 24.8426 21.3937 24.6984C20.9425 24.4314 20.4913 24.1645 20.0375 23.9002C19.9504 23.8493 19.9225 23.8239 19.8947 23.8241C19.8671 23.8242 19.8396 23.8496 19.7545 23.9002L18.2086 24.8132L16.9191 25.5741C16.6816 25.7142 16.4448 25.8543 16.208 25.9944C15.9709 26.1346 15.7339 26.2749 15.4961 26.4151C15.3026 26.5299 15.1083 26.6441 14.9141 26.7582C14.7199 26.8723 14.5256 26.9865 14.3321 27.1013C14.0891 27.2454 13.8435 27.3896 13.5979 27.5338C13.2428 27.742 12.8904 27.9503 12.538 28.1585C12.2283 28.3427 11.9212 28.5243 11.6115 28.7058C11.6057 28.7087 11.5982 28.7109 11.5904 28.7131C11.5841 28.7149 11.5775 28.7168 11.5715 28.7192C11.5715 28.7192 11.5662 28.7138 11.5662 28.7112C11.567 28.7063 11.5675 28.7016 11.5681 28.6972C11.5693 28.687 11.5705 28.6777 11.5742 28.6684L11.7344 28.268C11.8799 27.9049 12.0254 27.5411 12.1709 27.1774C12.3164 26.8136 12.4619 26.4498 12.6074 26.0867C12.7782 25.6583 12.9498 25.2298 13.1213 24.8013C13.2928 24.3728 13.4644 23.9443 13.6353 23.5157C13.7247 23.2928 13.8135 23.0698 13.9023 22.8469C13.991 22.624 14.0798 22.401 14.1692 22.1781C14.232 22.0206 14.2954 21.8631 14.3588 21.7056C14.4222 21.5481 14.4856 21.3905 14.5483 21.233C14.6618 20.95 14.7746 20.667 14.8874 20.384C15.0002 20.101 15.113 19.818 15.2265 19.535C15.2945 19.3668 15.3613 19.1986 15.428 19.0304C15.4948 18.8622 15.5615 18.694 15.6296 18.5258C15.6577 18.455 15.6677 18.421 15.6871 18.4144C15.7064 18.4077 15.7351 18.4284 15.8005 18.4671C16.0274 18.6046 16.255 18.7428 16.4826 18.8809C16.7102 19.0191 16.9378 19.1572 17.1647 19.2947C17.2235 19.3294 17.2795 19.3642 17.3356 19.3989C17.4905 19.4976 17.5839 19.6365 17.624 19.8154C17.6507 19.9355 17.64 20.053 17.5973 20.1651C17.5744 20.2273 17.55 20.2879 17.5252 20.3494C17.5181 20.3671 17.511 20.3848 17.5038 20.4027L17.5037 20.403C17.3996 20.6672 17.2955 20.9314 17.1888 21.1956C17.074 21.4812 16.9592 21.7675 16.8444 22.0538C16.7296 22.3402 16.6148 22.6266 16.5 22.9123C16.492 22.931 16.4866 22.947 16.4839 22.9657C16.482 22.9696 16.4856 22.9747 16.4888 22.9793C16.49 22.9812 16.4912 22.9829 16.492 22.9844H16.5026C16.512 22.9791 16.522 22.9744 16.532 22.9697C16.542 22.9651 16.552 22.9604 16.5614 22.955L16.562 22.9547C16.8848 22.7626 17.2077 22.5705 17.5332 22.3784C17.7642 22.2407 17.9963 22.1041 18.2287 21.9672C18.375 21.8811 18.5214 21.7949 18.6678 21.7082C19.055 21.4813 19.4448 21.2517 19.8319 21.0221C19.8426 21.0141 19.8559 21.0061 19.8693 21.0007C19.8799 20.9981 19.8933 20.9981 19.9013 21.0007C19.9167 21.0065 19.9308 21.0151 19.9445 21.0235C19.9497 21.0267 19.9549 21.0298 19.96 21.0328C20.3262 21.2509 20.6937 21.4676 21.0606 21.6839C21.1967 21.7642 21.3327 21.8443 21.4685 21.9245C21.7114 22.0687 21.955 22.2122 22.1987 22.3557C22.4423 22.4992 22.6859 22.6427 22.9289 22.7868L22.9289 22.7869C23.017 22.8403 23.1051 22.8936 23.1958 22.9444C23.2092 22.951 23.2225 22.957 23.2359 22.9631C23.2492 22.9691 23.2626 22.9751 23.2759 22.9817C23.2839 22.9764 23.2893 22.9711 23.2946 22.9657C23.2893 22.939 23.2839 22.915 23.2733 22.891C23.2186 22.7535 23.1639 22.6168 23.1091 22.48C23.0544 22.3431 22.9996 22.2062 22.9449 22.0687C22.8541 21.843 22.764 21.6167 22.6739 21.3905C22.5838 21.1642 22.4937 20.938 22.4029 20.7124C22.3388 20.5469 22.2721 20.3814 22.2053 20.2185C22.1706 20.1411 22.1519 20.0583 22.1466 19.9729C22.1413 19.9061 22.1519 19.8394 22.1706 19.7753C22.2134 19.6205 22.3041 19.4976 22.4403 19.4095C22.5364 19.3481 22.6352 19.2894 22.734 19.2307C22.7385 19.2278 22.7431 19.2247 22.7477 19.2216C22.7647 19.2101 22.7824 19.1981 22.8034 19.196C22.8274 19.1773 22.8514 19.1613 22.8754 19.1452L22.8755 19.1452C23.2519 18.9156 23.631 18.686 24.0101 18.4564C24.1009 18.4004 24.1036 18.4004 24.141 18.4965C24.2117 18.6691 24.2808 18.8433 24.3495 19.0166C24.369 19.0658 24.3885 19.1149 24.4079 19.1639C24.4135 19.177 24.4165 19.1888 24.4197 19.2011Z" fill="#2E3192"/>
<path d="M22.8248 21.5028C22.8354 21.5082 22.8381 21.5189 22.8381 21.5295C22.8354 21.5402 22.8301 21.5402 22.8221 21.5349C22.8168 21.5295 22.8114 21.5242 22.8087 21.5215C22.8141 21.5135 22.8194 21.5082 22.8248 21.5028Z" fill="#2E3192"/>
</g>
<path fill-rule="evenodd" clip-rule="evenodd" d="M23.7192 17.5033H22.8222C22.681 17.5033 22.5392 17.5039 22.397 17.5046C22.2542 17.5053 22.111 17.5059 21.9678 17.5059C21.869 17.5059 21.7676 17.5006 21.6715 17.4739C21.4045 17.4018 21.2016 17.247 21.0654 17.0067C21.0361 16.956 21.012 16.9026 20.9907 16.8465L20.398 15.3648C20.3125 15.1485 20.2271 14.9322 20.139 14.716C20.1337 14.7026 20.1283 14.6893 20.1203 14.6759C20.115 14.6706 20.107 14.6653 20.1016 14.6626C20.099 14.6599 20.0936 14.6653 20.0936 14.6679C20.0829 14.6893 20.0723 14.7133 20.0616 14.7374L20.0615 14.7376C19.7518 15.5091 19.4422 16.2806 19.1352 17.0521C19.0898 17.1642 19.0337 17.263 18.9403 17.3431C18.8415 17.4258 18.7293 17.4792 18.6012 17.4926C18.5531 17.4979 18.5051 17.5006 18.457 17.5006H16.4387C16.412 17.5006 16.3879 17.5006 16.3612 17.4979C16.3505 17.4979 16.3425 17.4819 16.3452 17.4739C16.3612 17.4312 16.3772 17.3885 16.3933 17.3484C16.6042 16.8225 16.8151 16.2938 17.026 15.7652C17.405 14.8177 17.7841 13.8694 18.1631 12.9212C18.5423 11.9725 18.9215 11.0239 19.3007 10.0759C19.4275 9.75816 19.5543 9.44112 19.6811 9.12407C19.808 8.80704 19.9348 8.49 20.0616 8.1723C20.0666 8.15729 20.0737 8.14333 20.0809 8.1291C20.0852 8.12055 20.0896 8.1119 20.0936 8.10288C20.0936 8.10021 20.107 8.10288 20.1096 8.10555C20.123 8.12958 20.1337 8.15094 20.1443 8.17497C20.2524 8.44101 20.3589 8.70866 20.465 8.97542C20.4952 9.05132 20.5253 9.12715 20.5555 9.20284C20.7143 9.60065 20.8739 9.99845 21.0334 10.3963C21.1929 10.7941 21.3524 11.1919 21.5113 11.5896C21.7716 12.2411 22.0326 12.8926 22.2936 13.544C22.5545 14.1954 22.8155 14.8468 23.0758 15.4982C23.1999 15.8093 23.3234 16.1197 23.4469 16.4301C23.5704 16.7404 23.6939 17.0508 23.818 17.3618C23.8287 17.3849 23.837 17.4081 23.8453 17.4312C23.8494 17.4428 23.8536 17.4543 23.858 17.4659C23.8634 17.4819 23.8527 17.4979 23.8394 17.5006C23.834 17.5006 23.8287 17.5013 23.8233 17.5019C23.818 17.5026 23.8127 17.5033 23.8073 17.5033H23.7192ZM24.636 19.4069C24.6373 19.4121 24.6387 19.4175 24.6403 19.4231C24.6531 19.4359 24.6601 19.4516 24.6672 19.4673C24.6719 19.4777 24.6766 19.4882 24.683 19.4978C24.8111 19.8155 24.9366 20.1306 25.0621 20.4456C25.2543 20.9315 25.4492 21.4201 25.6441 21.906C25.7882 22.2663 25.9323 22.6258 26.0764 22.9854C26.2207 23.3454 26.3649 23.7053 26.5091 24.0659C26.7055 24.5562 26.9019 25.0471 27.0983 25.5381C27.2944 26.0283 27.4904 26.5185 27.6865 27.008C27.796 27.2817 27.9061 27.556 28.0163 27.8303C28.1264 28.1046 28.2365 28.379 28.346 28.6526C28.3807 28.738 28.4154 28.8261 28.4474 28.9116C28.4474 28.9116 28.4474 28.9196 28.4447 28.9196C28.4439 28.92 28.443 28.9205 28.442 28.921C28.4369 28.9237 28.4305 28.9272 28.426 28.9249C28.4127 28.9222 28.3993 28.9142 28.386 28.9062C28.3019 28.8568 28.2178 28.8068 28.1337 28.7567C28.0496 28.7067 27.9655 28.6566 27.8814 28.6072C27.7869 28.5514 27.6922 28.4955 27.5974 28.4394C27.3652 28.3021 27.1321 28.1643 26.8989 28.0279L26.154 27.5873C25.7402 27.3417 25.3264 27.0961 24.9126 26.8531C24.6056 26.6716 24.2985 26.4907 23.9915 26.3098C23.6845 26.129 23.3774 25.9481 23.0704 25.7665C22.8274 25.6223 22.5837 25.4788 22.3401 25.3353C22.0965 25.1918 21.8529 25.0483 21.61 24.9042C21.1588 24.6372 20.7076 24.3702 20.2538 24.1059C20.1667 24.055 20.1388 24.0297 20.111 24.0298C20.0834 24.03 20.0559 24.0553 19.9708 24.1059L18.4249 25.019L17.1354 25.7799C16.8977 25.9201 16.6606 26.0604 16.4235 26.2006C16.1867 26.3407 15.9499 26.4808 15.7124 26.6209C15.5189 26.7356 15.3247 26.8498 15.1305 26.9639C14.9363 27.078 14.742 27.1922 14.5484 27.307C14.3054 27.4512 14.0598 27.5953 13.8142 27.7395C13.4595 27.9475 13.1076 28.1555 12.7556 28.3635L12.7543 28.3643C12.4446 28.5485 12.1376 28.73 11.8279 28.9116C11.822 28.9145 11.8145 28.9166 11.8067 28.9188C11.8004 28.9206 11.7938 28.9225 11.7878 28.9249C11.7878 28.9249 11.7825 28.9196 11.7825 28.9169C11.7833 28.912 11.7839 28.9074 11.7844 28.9029C11.7856 28.8927 11.7868 28.8835 11.7905 28.8742L11.9507 28.4737C12.0962 28.1106 12.2417 27.7469 12.3872 27.3831C12.5327 27.0194 12.6782 26.6556 12.8237 26.2925C12.9946 25.864 13.1661 25.4355 13.3376 25.007C13.5092 24.5785 13.6807 24.15 13.8516 23.7215C13.941 23.4985 14.0298 23.2756 14.1186 23.0526C14.2073 22.8297 14.2961 22.6068 14.3855 22.3839C14.4483 22.2264 14.5117 22.0688 14.5751 21.9113C14.6385 21.7538 14.7019 21.5963 14.7646 21.4388C14.8781 21.1558 14.9909 20.8727 15.1037 20.5897C15.2165 20.3067 15.3293 20.0238 15.4428 19.7408C15.5109 19.5726 15.5776 19.4044 15.6443 19.2362C15.7111 19.068 15.7778 18.8998 15.8459 18.7316C15.874 18.6608 15.884 18.6267 15.9034 18.6201C15.9227 18.6135 15.9514 18.6342 16.0168 18.6729C16.2437 18.8103 16.4713 18.9485 16.6989 19.0867C16.9265 19.2248 17.1541 19.363 17.3811 19.5005C17.4398 19.5352 17.4959 19.5699 17.5519 19.6046C17.7068 19.7034 17.8002 19.8422 17.8403 20.0211C17.867 20.1412 17.8563 20.2587 17.8136 20.3708C17.7908 20.4331 17.7663 20.4937 17.7415 20.5552C17.7344 20.5728 17.7273 20.5906 17.7201 20.6085L17.72 20.6087C17.6159 20.8729 17.5118 21.1372 17.4051 21.4014C17.2903 21.687 17.1755 21.9733 17.0608 22.2595C16.9459 22.5459 16.8311 22.8323 16.7163 23.1181C16.7083 23.1368 16.7029 23.1528 16.7003 23.1715C16.6983 23.1753 16.7019 23.1805 16.7051 23.1851C16.7063 23.1869 16.7075 23.1887 16.7083 23.1902H16.7189C16.7283 23.1848 16.7383 23.1802 16.7483 23.1755C16.7583 23.1708 16.7683 23.1661 16.7777 23.1608L16.7783 23.1605C17.1011 22.9683 17.424 22.7762 17.7495 22.5841C17.9805 22.4465 18.2126 22.3098 18.445 22.173C18.5913 22.0868 18.7377 22.0006 18.8842 21.914C19.2713 21.6871 19.6611 21.4575 20.0482 21.2279C20.0589 21.2198 20.0722 21.2118 20.0856 21.2065C20.0962 21.2038 20.1096 21.2038 20.1176 21.2065C20.1331 21.2123 20.1471 21.2209 20.1608 21.2292C20.166 21.2324 20.1712 21.2356 20.1763 21.2385C20.5425 21.4567 20.91 21.6734 21.2769 21.8897C21.413 21.9699 21.549 22.0501 21.6848 22.1303C21.9277 22.2744 22.1714 22.4179 22.415 22.5614C22.6586 22.7049 22.9022 22.8484 23.1452 22.9926L23.1452 22.9926C23.2333 23.046 23.3214 23.0994 23.4121 23.1501C23.4255 23.1568 23.4388 23.1628 23.4522 23.1688C23.4655 23.1748 23.4789 23.1808 23.4922 23.1875C23.5003 23.1822 23.5056 23.1768 23.5109 23.1715C23.5056 23.1448 23.5003 23.1208 23.4896 23.0967C23.4349 22.9593 23.3802 22.8225 23.3255 22.6858C23.2707 22.5489 23.2159 22.412 23.1612 22.2744C23.0704 22.0488 22.9803 21.8225 22.8902 21.5962C22.8001 21.37 22.71 21.1437 22.6192 20.9182C22.5551 20.7526 22.4884 20.5871 22.4216 20.4242C22.3869 20.3468 22.3683 20.2641 22.3629 20.1786C22.3576 20.1119 22.3683 20.0451 22.3869 19.9811C22.4297 19.8262 22.5204 19.7034 22.6566 19.6153C22.7527 19.5539 22.8515 19.4952 22.9503 19.4364C22.9548 19.4336 22.9594 19.4305 22.964 19.4273C22.981 19.4158 22.9987 19.4038 23.0197 19.4017C23.0437 19.383 23.0677 19.367 23.0918 19.351L23.0918 19.351C23.4682 19.1214 23.8473 18.8918 24.2264 18.6622C24.3172 18.6061 24.3199 18.6061 24.3573 18.7022C24.428 18.8748 24.4971 19.0491 24.5658 19.2224C24.5853 19.2716 24.6048 19.3207 24.6242 19.3697C24.6299 19.3828 24.6328 19.3945 24.636 19.4069Z" fill="white"/>
<path d="M23.0411 21.7083C23.0518 21.7136 23.0544 21.7243 23.0544 21.735C23.0518 21.7457 23.0464 21.7457 23.0384 21.7403C23.0331 21.735 23.0277 21.7297 23.0251 21.727C23.0277 21.719 23.0331 21.7136 23.0411 21.7083Z" fill="white"/>
<defs>
<linearGradient id="paint0_linear_9_9610" x1="5.51904" y1="34.3683" x2="34.4864" y2="34.3683" gradientUnits="userSpaceOnUse">
<stop stop-color="#7B61FF"/>
<stop offset="0.337" stop-color="#6549FF"/>
<stop offset="0.7445" stop-color="#5132FF"/>
<stop offset="1" stop-color="#4929FF"/>
</linearGradient>
<linearGradient id="paint1_linear_9_9610" x1="17.0151" y1="2.52727" x2="3.38978" y2="22.7276" gradientUnits="userSpaceOnUse">
<stop stop-color="#5132FF"/>
<stop offset="0.2703" stop-color="#5232FD"/>
<stop offset="0.4139" stop-color="#5831F5"/>
<stop offset="0.5277" stop-color="#6030E7"/>
<stop offset="0.6259" stop-color="#6D2FD4"/>
<stop offset="0.714" stop-color="#7D2DBB"/>
<stop offset="0.795" stop-color="#912B9C"/>
<stop offset="0.8704" stop-color="#A82878"/>
<stop offset="0.9395" stop-color="#C3254F"/>
<stop offset="1" stop-color="#DE2224"/>
</linearGradient>
</defs>
</svg>
