<svg xmlns="http://www.w3.org/2000/svg" viewBox="0 0 1965 717"><defs><style>.e{fill:#fff}</style></defs><g id="b"><g id="c"><path d="M357.37 205.51c15.12 0 28.71 8.4 35.47 21.92l111.52 223.04c6.19 12.38 5.54 26.8-1.73 38.58-7.28 11.78-19.89 18.81-33.73 18.81H245.85c-13.84 0-26.45-7.03-33.73-18.81-7.28-11.78-7.93-26.2-1.74-38.58L321.9 227.43c6.76-13.52 20.35-21.92 35.47-21.92m0-27.26c-25.35 0-48.51 14.32-59.85 36.99L186 438.28a66.915 66.915 0 0 0 2.93 65.1 66.91 66.91 0 0 0 56.92 31.74h223.04a66.91 66.91 0 0 0 56.92-31.74 66.917 66.917 0 0 0 2.93-65.1L417.22 215.24c-11.33-22.67-34.5-36.99-59.85-36.99Z" style="fill:#5deb5a"/><path d="M977.37 269.45c1.34 0 2.42 1.08 2.42 2.42v102.52c0 48.61-30.41 72.53-70.54 72.53s-70.54-23.93-70.54-72.53V271.87c0-1.34 1.08-2.42 2.42-2.42h23.82c1.34 0 2.42 1.08 2.42 2.42v100.77c0 33.9 17.7 47.36 41.88 47.36s41.88-13.46 41.88-47.36V271.87c0-1.34 1.08-2.42 2.42-2.42h23.82ZM1395.01 356.69c-.25 51.35-39.38 90.23-90.48 90.23s-90.48-38.88-90.48-90.23 39.38-90.23 90.48-90.23 90.23 38.88 90.48 90.23Zm-152.55 0c0 36.39 26.67 63.31 62.07 63.31s61.82-26.92 61.82-63.31-26.67-63.31-61.82-63.31-62.07 26.92-62.07 63.31ZM1649.05 443.93h-24.67c-1.7 0-2.87-1.71-2.26-3.29l65.29-168.63c.54-1.4 1.89-2.32 3.39-2.32h30.87c1.5 0 2.84.92 3.39 2.32l65.29 168.63a2.42 2.42 0 0 1-2.26 3.29h-24.67c-1.01 0-1.91-.62-2.26-1.56l-52.65-138.84c-.79-2.08-3.74-2.08-4.53 0l-52.66 138.84c-.36.94-1.26 1.56-2.26 1.56ZM652.11 443.93h-24.67c-1.7 0-2.87-1.71-2.26-3.29l65.29-168.63c.54-1.4 1.89-2.32 3.39-2.32h30.87c1.5 0 2.84.92 3.39 2.32l65.29 168.63a2.42 2.42 0 0 1-2.26 3.29h-24.67c-1.01 0-1.91-.62-2.26-1.56l-52.65-138.84c-.79-2.08-3.74-2.08-4.53 0l-52.66 138.84c-.36.94-1.26 1.56-2.26 1.56ZM1579.7 440.02l-48.97-62.55c27.63-5.23 43.81-23.9 43.81-52.52 0-32.86-21.41-55.26-59.24-55.26h-68.31c-2 0-3.63 1.63-3.63 3.63 0 12.84 10.41 23.25 23.25 23.25h45.7c22.9 0 33.85 11.7 33.85 28.63s-10.71 28.88-33.85 28.88h-65.32c-2 0-3.63 1.63-3.63 3.63v83.81c0 1.34 1.08 2.42 2.42 2.42h23.29c1.34 0 2.42-1.08 2.42-2.42v-62.55h26.88l42.52 55.49a24.19 24.19 0 0 0 19.21 9.48h17.69c2.02 0 3.15-2.32 1.91-3.91ZM1174.8 440.02l-48.97-62.55c27.63-5.23 43.81-23.9 43.81-52.52 0-32.86-21.41-55.26-59.24-55.26h-68.31c-2 0-3.63 1.63-3.63 3.63 0 12.84 10.41 23.25 23.25 23.25h45.7c22.9 0 33.85 11.7 33.85 28.63s-10.71 28.88-33.85 28.88h-65.32c-2 0-3.63 1.63-3.63 3.63v83.81c0 1.34 1.08 2.42 2.42 2.42h23.29c1.34 0 2.42-1.08 2.42-2.42v-62.55h26.88l42.52 55.49a24.19 24.19 0 0 0 19.21 9.48h17.69c2.02 0 3.15-2.32 1.91-3.91Z" class="e"/><path d="M0 0h1965v717H0z" style="fill:none"/></g></g></svg>