<svg xmlns="http://www.w3.org/2000/svg" id="Layer_1" data-name="Layer 1" viewBox="72 72 647.99 144"><defs><style>.cls-1{fill:#101820;}.cls-2{fill:#70d44b;}</style></defs><path class="cls-1" d="M393.62,108.7a1,1,0,0,1,1,1v41.48c0,19.66-12.31,29.35-28.54,29.35s-28.54-9.69-28.54-29.35V109.68a1,1,0,0,1,1-1h9.64a1,1,0,0,1,1,1v40.77c0,13.72,7.16,19.16,16.95,19.16S383,164.17,383,150.45V109.68a1,1,0,0,1,1-1Z"/><path class="cls-1" d="M562.59,144c-.1,20.77-15.94,36.51-36.61,36.51S489.37,164.77,489.37,144s15.94-36.51,36.61-36.51S562.49,123.23,562.59,144Zm-61.72,0c0,14.72,10.79,25.61,25.11,25.61s25-10.89,25-25.61-10.79-25.61-25-25.61S500.87,129.28,500.87,144Z"/><path class="cls-1" d="M662.77,179.3h-10a1,1,0,0,1-.91-1.34l26.41-68.22a1.47,1.47,0,0,1,1.37-.94h12.49a1.46,1.46,0,0,1,1.37.94L719.93,178a1,1,0,0,1-.91,1.34H709a1,1,0,0,1-.92-.64l-21.3-56.17a1,1,0,0,0-1.83,0l-21.3,56.17A1,1,0,0,1,662.77,179.3Z"/><path class="cls-1" d="M263,179.3H253a1,1,0,0,1-.91-1.34l26.41-68.22a1.46,1.46,0,0,1,1.37-.94h12.49a1.47,1.47,0,0,1,1.37.94L320.12,178a1,1,0,0,1-.91,1.34h-10a1,1,0,0,1-.92-.64L287,122.49a1,1,0,0,0-1.83,0l-21.3,56.17A1,1,0,0,1,263,179.3Z"/><path class="cls-1" d="M633.42,177.71l-19.81-25.3c11.18-2.12,17.72-9.67,17.72-21.25,0-13.3-8.66-22.36-24-22.36H579.73a1.47,1.47,0,0,0-1.47,1.47h0a9.41,9.41,0,0,0,9.41,9.41h18.49c9.26,0,13.69,4.73,13.69,11.58s-4.33,11.68-13.69,11.68H579.73a1.47,1.47,0,0,0-1.47,1.47v33.91a1,1,0,0,0,1,1h9.42a1,1,0,0,0,1-1V153h10.88l17.2,22.45a9.78,9.78,0,0,0,7.77,3.84h7.16A1,1,0,0,0,633.42,177.71Z"/><path class="cls-1" d="M473.49,177.71l-19.81-25.3c11.18-2.12,17.73-9.67,17.73-21.25,0-13.3-8.66-22.36-24-22.36H419.8a1.47,1.47,0,0,0-1.47,1.47h0a9.42,9.42,0,0,0,9.41,9.41h18.49c9.27,0,13.7,4.73,13.7,11.58s-4.33,11.68-13.7,11.68H419.8a1.47,1.47,0,0,0-1.47,1.47v33.91a1,1,0,0,0,1,1h9.43a1,1,0,0,0,1-1V153h10.87l17.2,22.45a9.81,9.81,0,0,0,7.77,3.84h7.16A1,1,0,0,0,473.49,177.71Z"/><path class="cls-2" d="M144,83a15.92,15.92,0,0,1,14.31,8.84l45,90A16,16,0,0,1,189,205H99a16,16,0,0,1-14.31-23.16l45-90A15.92,15.92,0,0,1,144,83m0-11a27,27,0,0,0-24.15,14.92l-45,90A27,27,0,0,0,99,216h90a27,27,0,0,0,24.15-39.08l-45-90A27,27,0,0,0,144,72Z"/></svg>