<?xml version="1.0" encoding="UTF-8" standalone="no"?>
<!-- Created with Inkscape (http://www.inkscape.org/) -->

<svg
   width="83.626923mm"
   height="18.203833mm"
   viewBox="0 0 83.626923 18.203833"
   version="1.1"
   id="svg36306"
   xmlns="http://www.w3.org/2000/svg"
   xmlns:svg="http://www.w3.org/2000/svg">
  <defs
     id="defs36303" />
  <g
     id="layer1"
     transform="translate(-43.612117,-68.280022)">
    <g
       id="g35897"
       transform="translate(44.394569,23.533158)">
      <path
         id="path95975-8-2-9-7-9-6"
         style="font-size:19.7556px;-inkscape-font-specification:'Berkeley Mono Variable Semi-Bold';stroke-width:0.264583"
         d="m 50.106509,48.368909 c -0.724371,0 -1.283859,0.118464 -1.678967,0.355534 -0.39511,0.237069 -0.935029,0.67859 -1.303797,1.32394 0,-0.474168 0,-0.948438 0,-1.422643 h -2.410188 v 4.515487 h 2.418456 c 0.02252,-0.591423 0.09179,-1.062908 0.208772,-1.413867 0.158051,-0.447789 0.408429,-0.763873 0.750858,-0.948261 0.3556,-0.18438 0.855851,-0.276471 1.501201,-0.276471 0.50047,0 0.889241,0.05924 1.16582,0.177768 0.27658,0.10537 0.467734,0.296005 0.573093,0.572574 0.118499,0.263411 0.177766,0.639247 0.177766,1.126546 v 0.761711 h 2.41019 v -0.722436 c 0,-1.066798 -0.118465,-1.883133 -0.355534,-2.449463 -0.22389,-0.579501 -0.606195,-0.988179 -1.146183,-1.225248 -0.539991,-0.25023 -1.310537,-0.375171 -2.311487,-0.375171 z m -5.392952,6.128824 v 4.440557 h 2.410188 v -4.440557 z m 6.795966,0 v 4.440557 h 2.41019 v -4.440557 z" />
      <g
         aria-label="i"
         id="text23015"
         style="font-weight:bold;font-size:19.7828px;font-family:'Berkeley Mono';-inkscape-font-specification:'Berkeley Mono, Bold';stroke-width:0.264583"
         transform="translate(-23.327435,-33.688665)">
        <path
           d="m 81.693664,81.017199 2.739936,4e-6 -6e-6,-2.581674 h -2.73993 z m -3.155338,11.612508 h 9.119871 v -2.037628 h -3.303728 v -8.288994 h -5.618315 v 2.037629 h 3.244379 v 6.251365 h -3.442207 z"
           id="path6050" />
      </g>
      <path
         d="m 17.275835,59.116034 c -0.90876,0 -1.61338,-0.11853 -2.11385,-0.3556 -0.48731,-0.23707 -0.83632,-0.63876 -1.04705,-1.20509 -0.21073,-0.56633 -0.31609,-1.36972 -0.31609,-2.41018 v -6.519348 h 2.41018 v 6.558858 c 0,0.48731 0.0527,0.86925 0.15805,1.14582 0.10536,0.26341 0.28316,0.45439 0.5334,0.57292 0.25024,0.10536 0.60584,0.15804 1.0668,0.15804 0.69803,0 1.23144,-0.0922 1.60021,-0.27658 0.36877,-0.18439 0.63217,-0.49389 0.79022,-0.92851 0.15805,-0.44779 0.23707,-1.07997 0.23707,-1.89654 v -5.334008 h 2.41018 v 10.312418 h -2.41018 v -1.44216 c -0.348009,0.525331 -0.829311,1.005842 -1.34338,1.28412 -0.43463,0.22389 -1.09315,0.33584 -1.97556,0.33584 z"
         style="font-size:19.7556px;-inkscape-font-specification:'Berkeley Mono Variable Semi-Bold';stroke-width:0.264583"
         id="path95969-2-5-9-8" />
      <path
         d="m 29.810264,59.155544 c -0.94827,0 -1.66605,-0.12512 -2.15336,-0.37535 -0.48731,-0.25024 -0.81657,-0.61901 -0.98779,-1.10632 -0.17121,-0.50047 -0.25682,-1.17875 -0.25682,-2.03482 v -4.978408 h -2.548469 l 0.47413,-2.03483 h 2.153359 v -2.09409 l 2.29166,-0.96803 v 3.06212 h 3.85234 v 2.03483 h -3.85234 v 4.899378 c 0,0.42145 0.0329,0.73096 0.0988,0.92852 0.079,0.19755 0.23706,0.34243 0.47413,0.43462 0.25024,0.0922 0.6256,0.13829 1.12607,0.13829 0.56633,0 1.38948,-0.079 2.46945,-0.23707 v 2.07434 c -1.36972,0.17121 -2.41677,0.25682 -3.14114,0.25682 z"
         style="font-size:19.7556px;-inkscape-font-specification:'Berkeley Mono Variable Semi-Bold';stroke-width:0.264583"
         id="path95971-1-4-4-1" />
      <path
         d="m 38.485153,59.116034 c -1.27753,0 -2.26531,-0.15804 -2.96334,-0.47413 -0.69803,-0.32926 -1.19851,-0.86925 -1.50143,-1.61996 -0.28975,-0.76389 -0.43462,-1.85044 -0.43462,-3.25967 0,-1.42241 0.14487,-2.515548 0.43462,-3.279428 0.30292,-0.76389 0.79681,-1.30387 1.48167,-1.61996 0.69803,-0.32926 1.6924,-0.49389 2.9831,-0.49389 1.2907,0 2.27848,0.16463 2.96334,0.49389 0.69803,0.31609 1.19192,0.85607 1.48167,1.61996 0.30292,0.76388 0.45438,1.857018 0.45438,3.279428 0,1.40923 -0.15146,2.49578 -0.45438,3.25967 -0.28975,0.75071 -0.78364,1.2907 -1.48167,1.61996 -0.69803,0.31609 -1.68581,0.47413 -2.96334,0.47413 z m 0,-2.05458 c 0.65852,0 1.15899,-0.0988 1.50142,-0.29633 0.35561,-0.19756 0.60585,-0.52682 0.75072,-0.98778 0.15804,-0.47414 0.23706,-1.14583 0.23706,-2.01507 0,-0.88242 -0.079,-1.5607 -0.23706,-2.03483 -0.14487,-0.474128 -0.39511,-0.809978 -0.75072,-1.007538 -0.34243,-0.21073 -0.8429,-0.31609 -1.50142,-0.31609 -0.65852,0 -1.16558,0.10536 -1.52118,0.31609 -0.34243,0.19756 -0.59267,0.53341 -0.75071,1.007538 -0.14488,0.47413 -0.21732,1.15241 -0.21732,2.03483 0,0.86924 0.0724,1.54093 0.21732,2.01507 0.15804,0.46096 0.40828,0.79022 0.75071,0.98778 0.3556,0.19755 0.86266,0.29633 1.52118,0.29633 z"
         style="font-size:19.7556px;-inkscape-font-specification:'Berkeley Mono Variable Semi-Bold';stroke-width:0.264583"
         id="path95973-7-9-1-0" />
      <path
         d="m 68.936899,59.155544 c -0.94827,0 -1.66605,-0.12512 -2.15336,-0.37535 -0.4873,-0.25024 -0.81656,-0.61901 -0.98778,-1.10632 -0.17121,-0.50047 -0.25682,-1.17875 -0.25682,-2.03482 v -4.978408 h -2.54847 l 0.47413,-2.03483 h 2.15336 v -2.09409 l 2.29165,-0.96803 v 3.06212 h 3.85234 v 2.03483 h -3.85234 v 4.899378 c 0,0.42145 0.0329,0.73096 0.0988,0.92852 0.079,0.19755 0.23706,0.34243 0.47413,0.43462 0.25024,0.0922 0.6256,0.13829 1.12607,0.13829 0.56633,0 1.38948,-0.079 2.46945,-0.23707 v 2.07434 c -1.36972,0.17121 -2.41677,0.25682 -3.14114,0.25682 z"
         style="font-size:19.7556px;-inkscape-font-specification:'Berkeley Mono Variable Semi-Bold';stroke-width:0.264583"
         id="path95979-7-7-7-6" />
      <g
         aria-label="y"
         id="text10000-6-0-4-9"
         style="font-weight:bold;font-size:19.5143px;font-family:'Berkeley Mono';-inkscape-font-specification:'Berkeley Mono, Bold';stroke-width:0.264583"
         transform="translate(-66.379076,-13.946937)">
        <path
           d="m 139.83464,74.880451 v 1.88751 c 4.64147,0.471784 4.4647,-0.3152 5.38,-2.83148 l 4.00891,-11.363729 h -2.4588 l -2.40026,7.493491 h -0.0976 l -2.43929,-7.493491 h -2.41977 l 3.31743,9.249778 0.56873,1.585747 c 0,0 0.21347,-0.666452 -0.12468,0.389231 -0.27137,0.847194 -0.0806,1.328606 -3.33467,1.082943 z"
           id="path27135-3-5-1" />
      </g>
      <path
         id="path1252-8"
         style="color:#000000;font-size:18.9487px;fill:#000000;stroke:none;stroke-width:0.497369;stroke-opacity:1;-inkscape-stroke:none"
         d="m 5.412003,48.408725 c -1.363663,0 -2.556606,0.484222 -3.520716,1.419034 -0.772887,0.746012 -1.193715,1.83201 -1.293979,3.238045 h -1.064017 l -0.315743,1.356506 h 1.379244 c 0.09532,1.324012 0.482418,2.408661 1.178222,3.238045 0.798295,0.945488 2.042128,1.419553 3.636989,1.419553 0.961088,0 1.62415,-0.09494 2.016413,-0.419613 0.510244,-0.419495 0.772581,-0.703072 1.077971,-1.219047 0.11861,0.308904 0.282617,0.421823 0.497128,0.617016 l 0.0026,0.0021 c 0.584541,0.519253 1.23943,0.802537 1.933215,0.802537 h 1.345139 v -1.829864 h -1.12758 c -0.0775,0 -0.269423,-0.08078 -0.515731,-0.336931 -0.20261,-0.210828 -0.322821,-0.430673 -0.373105,-0.673859 l -0.329695,-1.599904 2.346111,-9e-5 V 53.065712 H 10.25176 l 1.742286,-4.439896 H 9.828805 l -0.73174,2.000395 C 8.862426,49.980736 8.518425,49.538866 8.019659,49.158083 7.358857,48.653594 6.475225,48.408775 5.412582,48.408775 Z m 0,1.829861 h 5.29e-4 c 1.562616,0 1.849493,1.007578 2.145554,2.827126 l -4.512334,9.2e-5 c 0.179419,-1.78586 0.887473,-2.827223 2.366251,-2.827218 z m -2.380218,4.183724 4.526301,-4e-5 c -0.214744,1.505633 -0.941147,2.862914 -2.145507,2.862916 -1.674574,5e-6 -2.193959,-1.090718 -2.380734,-2.862876 z" />
    </g>
  </g>
</svg>
