<svg enable-background="new 0 0 68 68" viewBox="0 0 68 68" xmlns="http://www.w3.org/2000/svg"><g fill="#bac4cb" stroke="#bac4cb" stroke-miterlimit="10"><path d="m33.9 66c-17.8 0-32.1-14.4-32.1-32.1s14.3-32.1 32.1-32.1 32.1 14.3 32.1 32.1-14.4 32.1-32.1 32.1zm0-62.4c-16.7 0-30.3 13.6-30.3 30.3s13.5 30.2 30.2 30.2 30.2-13.5 30.2-30.2-13.4-30.3-30.1-30.3z" stroke-width="3.3377"/><path d="m54.8 22.9-3.3 1.9c-.5.3-1 .1-1.3-.4-.3-.4-.1-1 .3-1.3l3.3-1.9c.5-.3 1-.1 1.3.4.3.4.2 1-.3 1.3zm-10.2-5.7c-.3.5-.8.6-1.3.4-.5-.3-.6-.8-.4-1.3l1.9-3.3c.3-.5.8-.6 1.3-.3.4.3.6.8.3 1.3zm-10.8 42.8c-6.2 0-11.3-5.1-11.3-11.3 0-5.8 4.3-10.5 9.9-11.2v-15.6c0-.8.6-1.4 1.4-1.4s1.4.6 1.4 1.4v15.6c5.6.7 9.9 5.4 9.9 11.2 0 6.2-5.1 11.3-11.3 11.3zm0-19.8c-4.8 0-8.7 3.9-8.7 8.7s3.9 8.7 8.7 8.7 8.7-3.9 8.7-8.7-3.9-8.7-8.7-8.7zm.1 6.4c-1.3 0-2.4 1-2.4 2.3s1 2.4 2.3 2.4h.1c1.3 0 2.3-1.1 2.3-2.4 0-1.2-1.1-2.2-2.3-2.3zm0-31.6c-.5 0-.9-.4-.9-.9v-3.8c0-.5.4-.9.9-.9s.9.4.9.9v3.7c0 .6-.4 1-.9 1zm-9.5 2.5c-.5.3-1 .1-1.3-.3l-1.9-3.3c-.3-.5-.1-1 .4-1.3.4-.3 1-.1 1.3.3l1.9 3.3c.2.5.1 1-.4 1.3zm-8.2 7.3-3.3-1.9c-.5-.3-.6-.8-.3-1.3.3-.4.8-.6 1.3-.3l3.3 1.9c.5.3.6.8.4 1.3-.3.4-.9.5-1.4.3z" stroke-width="1.6287"/></g></svg>