<?xml version="1.0" encoding="utf-8"?>
<!-- Generator: Adobe Illustrator 26.2.1, SVG Export Plug-In . SVG Version: 6.00 Build 0)  -->
<svg version="1.1" id="Layer_1" xmlns="http://www.w3.org/2000/svg" xmlns:xlink="http://www.w3.org/1999/xlink" x="0px" y="0px"
	 viewBox="0 0 1117 180" style="enable-background:new 0 0 1117 180;" xml:space="preserve">
<style type="text/css">
	.st0{fill:#7B35E2;}
	.st1{fill:#FFFFFF;}
</style>
<path class="st0" d="M150,35.5l-55.4-32c-4-2.3-8.5-3.5-13-3.5s-9.1,1.2-13,3.5L13,35.5c-4,2.3-7.3,5.6-9.5,9.5C1.2,49,0,53.5,0,58
	v64.1c0,4.5,1.3,9,3.5,12.9c2.3,3.9,5.6,7.2,9.5,9.5l55.4,32c4,2.3,8.5,3.5,13,3.5s9.1-1.2,13-3.5l55.4-32c4-2.3,7.3-5.6,9.5-9.5
	c2.3-4,3.5-8.5,3.5-13V57.8c0-4.5-1.3-9-3.5-12.9C157.2,41,153.9,37.7,150,35.5z M13,58c0-2.3,0.6-4.5,1.7-6.5s2.8-3.6,4.8-4.8
	l55.4-32c2-1.2,4.2-1.8,6.5-1.8s4.5,0.6,6.5,1.8l55.4,32c2,1.1,3.6,2.7,4.7,4.7c1.1,1.9,1.8,4.2,1.8,6.4v6.5c0,5.1-2,9.9-5.6,13.5
	c-3.6,3.6-8.5,5.6-13.5,5.6H32.2c-6.9,0-13.6,2.2-19.2,6.4V58z M150,121.9c0,2.3-0.6,4.5-1.7,6.5c-1.1,2-2.8,3.6-4.8,4.8l-55.4,32
	c-2,1.1-4.2,1.7-6.5,1.7s-4.5-0.6-6.5-1.7l-55.4-32c-2-1.1-3.6-2.7-4.7-4.7c-1.1-1.9-1.8-4.2-1.8-6.4v-6.5c0-5.1,2-9.9,5.6-13.5
	c3.6-3.6,8.5-5.6,13.5-5.6h98.6c6.9,0,13.6-2.2,19.2-6.4V121.9z"/>
<path class="st0" d="M51.2,54.8h12.6v18.9h13V54.8c0-3.5-1.4-6.8-3.8-9.2c-2.4-2.4-5.8-3.8-9.2-3.8H51.2c-3.5,0-6.8,1.4-9.2,3.8
	c-2.4,2.4-3.8,5.8-3.8,9.2v18.9h13V54.8z"/>
<path class="st0" d="M63.8,125.2H51.2v-18.9h-13v18.9c0,3.5,1.4,6.8,3.8,9.2c2.4,2.4,5.8,3.8,9.2,3.8h12.6c3.5,0,6.8-1.4,9.2-3.8
	c2.4-2.4,3.8-5.8,3.8-9.2v-18.9h-13V125.2z"/>
<path class="st0" d="M102.6,54.8h12.7v18.9h13V54.8c0-3.5-1.4-6.8-3.8-9.2c-2.4-2.4-5.8-3.8-9.2-3.8h-12.7c-3.5,0-6.8,1.4-9.2,3.8
	c-2.4,2.4-3.8,5.8-3.8,9.2v18.9h13V54.8z"/>
<path class="st0" d="M115.2,125.2h-12.7v-18.9h-13v18.9c0,3.5,1.4,6.8,3.8,9.2c2.4,2.4,5.8,3.8,9.2,3.8h12.7c3.5,0,6.8-1.4,9.2-3.8
	c2.4-2.4,3.8-5.8,3.8-9.2v-18.9h-13V125.2z"/>
<path class="st1" d="M216,56.4h18.4v7.3c2.1-2.7,4.8-4.8,7.9-6.2c3.5-1.5,7.4-2.3,11.2-2.2c5.7-0.1,11.3,1.3,16.2,4.2
	c4.6,2.9,8.3,7.1,10.6,12c2.6,5.7,3.9,11.9,3.8,18.2c0.1,6.2-1.2,12.4-4,18c-2.6,5-6.5,9.2-11.3,12c-5.1,2.9-10.9,4.4-16.8,4.3
	c-3.5,0-7-0.6-10.3-1.9c-2.8-1.1-5.3-2.8-7.3-5.2V150H216V56.4z M237.8,103.1c1.5,1.7,3.3,3,5.4,3.9c2.1,0.9,4.3,1.3,6.5,1.2
	c2.2,0.1,4.4-0.3,6.5-1.2c2-0.9,3.8-2.2,5.3-3.9c3.1-3.8,4.7-8.5,4.5-13.4c0.2-4.9-1.4-9.8-4.5-13.6c-1.5-1.7-3.3-3-5.3-3.9
	c-2-0.9-4.2-1.3-6.5-1.2c-2.2-0.1-4.5,0.3-6.5,1.2c-2.1,0.9-3.9,2.2-5.4,3.9c-3.1,3.8-4.7,8.6-4.4,13.6
	C233.1,94.5,234.7,99.3,237.8,103.1L237.8,103.1z"/>
<path class="st1" d="M307.7,119.6c-5.3-2.8-9.6-7.1-12.5-12.3c-3-5.4-4.5-11.5-4.5-17.6c0-6.2,1.5-12.2,4.5-17.6
	c3-5.2,7.3-9.4,12.5-12.3c5.6-2.9,11.8-4.4,18.1-4.4c6.3,0,12.5,1.5,18.1,4.4c5.2,2.8,9.6,7.1,12.6,12.3c2.9,5.4,4.5,11.5,4.5,17.6
	c0,6.2-1.5,12.2-4.5,17.6c-3,5.2-7.3,9.4-12.6,12.3c-5.6,2.9-11.8,4.4-18.1,4.4C319.5,124,313.3,122.5,307.7,119.6L307.7,119.6z
	 M313.8,103.1c1.5,1.6,3.4,2.9,5.5,3.8c2.1,0.9,4.3,1.4,6.6,1.4c2.3,0,4.5-0.5,6.5-1.4c2.1-0.9,3.9-2.2,5.5-3.8
	c3.2-3.7,4.8-8.5,4.6-13.4c0.2-4.9-1.4-9.7-4.6-13.5c-1.6-1.6-3.4-2.9-5.5-3.8c-2.1-0.9-4.3-1.3-6.5-1.3c-2.2,0-4.5,0.5-6.5,1.3
	c-2.1,0.9-3.9,2.2-5.5,3.8c-3.2,3.7-4.9,8.6-4.6,13.5C308.9,94.6,310.6,99.3,313.8,103.1L313.8,103.1z"/>
<path class="st1" d="M372.1,27.4h18.3V123h-18.3V27.4z"/>
<path class="st1" d="M423.2,122.4L399,56.3h18.8l14,43l13.9-43h18.9l-24.2,66.3l-9.4,27.2h-17.6L423.2,122.4z"/>
<path class="st1" d="M475.1,114.7c-5.6-6.2-8.4-14.5-8.4-25c-0.1-6.3,1.1-12.5,3.8-18.2c2.4-5,6.1-9.1,10.9-12
	c5-2.9,10.7-4.4,16.5-4.2c3.7,0,7.3,0.7,10.8,2c3,1.2,5.6,3.1,7.6,5.6v-6.6h18.5v70.6c0.1,3.1-0.4,6.2-1.6,9.1
	c-1.2,2.9-3,5.5-5.3,7.6c-4.6,4.2-10.6,6.3-18.2,6.3h-33.6v-14.4h30.7c1.3,0,2.6-0.2,3.8-0.7c1.2-0.5,2.3-1.3,3.1-2.3
	c1.8-2.1,2.8-4.8,2.7-7.6v-8.7c-1.9,2.6-4.4,4.6-7.4,5.8c-3.4,1.4-7.1,2.1-10.8,2.1C488.3,124,480.6,120.9,475.1,114.7z
	 M489.2,103.1c1.5,1.7,3.3,3,5.4,3.8c2,0.9,4.3,1.3,6.5,1.2c2.2,0.1,4.4-0.3,6.5-1.2c2.1-0.9,3.9-2.2,5.4-3.8
	c3.1-3.8,4.7-8.6,4.5-13.5c0.2-4.9-1.4-9.8-4.5-13.6c-1.5-1.7-3.3-3-5.4-3.9c-2.1-0.9-4.3-1.3-6.5-1.2c-2.2-0.1-4.4,0.3-6.5,1.2
	c-2,0.9-3.9,2.2-5.3,3.9c-3.1,3.8-4.7,8.6-4.4,13.6C484.5,94.6,486.1,99.4,489.2,103.1L489.2,103.1z"/>
<path class="st1" d="M562.9,119.6c-5.3-2.8-9.6-7.1-12.5-12.3c-3-5.4-4.5-11.5-4.5-17.6c0-6.2,1.5-12.2,4.5-17.6
	c3-5.2,7.3-9.4,12.5-12.3c5.6-2.9,11.8-4.4,18.1-4.4c6.3,0,12.5,1.5,18.1,4.4c5.2,2.8,9.6,7.1,12.5,12.3c2.9,5.4,4.5,11.5,4.5,17.6
	c0,6.2-1.5,12.2-4.5,17.6c-2.9,5.2-7.3,9.5-12.5,12.3c-5.6,2.9-11.8,4.4-18.1,4.4C574.7,124,568.5,122.5,562.9,119.6L562.9,119.6z
	 M568.9,103.1c1.5,1.6,3.4,2.9,5.5,3.8c2.1,0.9,4.3,1.4,6.5,1.4c2.2,0,4.5-0.5,6.5-1.4c2.1-0.9,3.9-2.2,5.5-3.8
	c3.2-3.7,4.8-8.5,4.6-13.3c0.2-4.9-1.4-9.7-4.6-13.5c-1.6-1.6-3.4-2.9-5.5-3.8c-2.1-0.9-4.3-1.3-6.5-1.3s-4.5,0.5-6.5,1.3
	c-2.1,0.9-3.9,2.2-5.5,3.8c-3.2,3.7-4.9,8.6-4.6,13.5C564.1,94.6,565.8,99.3,568.9,103.1L568.9,103.1z"/>
<path class="st1" d="M626.2,56.4h18.5v9.3c1.9-3.3,4.7-5.9,8.1-7.6c3.8-1.9,7.9-2.8,12.1-2.7c4.6-0.1,9.1,1,13,3.3
	c3.7,2.2,6.7,5.4,8.7,9.3c2.1,4.2,3.2,8.9,3.1,13.6v41.5h-18.4V85.6c0.1-3.6-1.2-7.2-3.6-9.9c-1.2-1.3-2.6-2.3-4.2-3
	c-1.6-0.7-3.3-1-5-0.9c-1.9-0.1-3.7,0.3-5.4,1c-1.7,0.7-3.2,1.8-4.5,3.2c-2.6,2.9-4,6.7-3.8,10.6V123h-18.5V56.4z"/>
<path class="st1" d="M729.6,113.3l41.2-47.8h-39.3v-9.4h51.6v9.4l-40.9,47.8h42.8v9.4h-55.3V113.3z"/>
<path class="st1" d="M798.9,122.7V28.8h10.7v55.4l31.3-28.1h14l-28.5,26l31.2,40.5h-13.3l-25.9-33.3l-8.7,7.9v25.3H798.9z"/>
<path class="st1" d="M868.8,30.3h57.8v10.2H880v29.4h37.9V80H880v32.5h48v10.2h-59.3V30.3z"/>
<path class="st1" d="M934.7,30.3h11.6l29,79.3l29.3-79.3h11.5l-35,92.4h-11.5L934.7,30.3z"/>
<path class="st1" d="M1026.8,30.3h14.7l30.5,77.2l30.4-77.2h14.7v92.4h-10.9V49l-29.2,73.7h-9.9L1037.8,49v73.7h-11V30.3z"/>
</svg>
