<svg xmlns="http://www.w3.org/2000/svg" width="139" height="28">
    <defs>
        <linearGradient id="a" x1="0%" y1="0%" y2="0%">
            <stop offset="0%" stop-color="#7E49C2"/>
            <stop offset="50%" stop-color="#C4AAEA"/>
            <stop offset="100%" stop-color="#7E49C2"/>
        </linearGradient>
        <filter id="b">
            <feOffset dy="1" in="SourceAlpha"/>
            <feGaussianBlur result="blurOut"/>
            <feFlood flood-color="#F6F6F6" result="floodOut"/>
            <feComposite in="floodOut" in2="blurOut" operator="out" result="compOut"/>
            <feComposite in="compOut" in2="SourceAlpha" operator="in"/>
            <feComponentTransfer>
                <feFuncA slope=".25" type="linear"/>
            </feComponentTransfer>
            <feBlend in2="SourceGraphic"/>
        </filter>
        <filter id="c">
            <feOffset in="SourceAlpha"/>
            <feGaussianBlur result="blurOut" stdDeviation="2.236"/>
            <feFlood flood-color="#35B080" result="floodOut"/>
            <feComposite in="floodOut" in2="blurOut" operator="out" result="compOut"/>
            <feComposite in="compOut" in2="SourceAlpha" operator="in"/>
            <feComponentTransfer>
                <feFuncA type="linear"/>
            </feComponentTransfer>
            <feBlend in2="SourceGraphic"/>
        </filter>
        <filter id="d">
            <feOffset dy="1" in="SourceAlpha"/>
            <feGaussianBlur result="blurOut"/>
            <feFlood flood-color="#F6F6F6" result="floodOut"/>
            <feComposite in="floodOut" in2="blurOut" operator="out" result="compOut"/>
            <feComposite in="compOut" in2="SourceAlpha" operator="in"/>
            <feComponentTransfer>
                <feFuncA slope=".25" type="linear"/>
            </feComponentTransfer>
            <feBlend in2="SourceGraphic"/>
        </filter>
        <filter id="e">
            <feOffset in="SourceAlpha"/>
            <feGaussianBlur result="blurOut" stdDeviation="2.236"/>
            <feFlood flood-color="#35B080" result="floodOut"/>
            <feComposite in="floodOut" in2="blurOut" operator="out" result="compOut"/>
            <feComposite in="compOut" in2="SourceAlpha" operator="in"/>
            <feComponentTransfer>
                <feFuncA type="linear"/>
            </feComponentTransfer>
            <feBlend in2="SourceGraphic"/>
        </filter>
    </defs>
    <path fill="#8957C8" fill-rule="evenodd" d="M30.285 1.252c-1.758 0-2.069.563-3.882 1.045C27.109.937 28.502 0 30.125 0c1.539 0 2.871.842 3.608 2.086-.913-.485-2.05-.834-3.448-.834zM8.204 2.26C8.916.921 10.297 0 11.906 0c1.595 0 2.967.906 3.684 2.226-1.596-.464-1.952-.974-3.626-.974-1.562 0-2.798.435-3.76 1.008z"/>
    <path fill="url(#a)" d="M30.285 1.252c-1.758 0-2.069.563-3.882 1.045C27.109.937 28.502 0 30.125 0c1.539 0 2.871.842 3.608 2.086-.913-.485-2.05-.834-3.448-.834zM8.204 2.26C8.916.921 10.297 0 11.906 0c1.595 0 2.967.906 3.684 2.226-1.596-.464-1.952-.974-3.626-.974-1.562 0-2.798.435-3.76 1.008z"/>
    <path fill="#704AD5" fill-rule="evenodd" d="M38.029 13.695c-1.181-1.933-3.289-3.226-5.701-3.226-3.376 0-6.161 2.527-6.627 5.812l-4.674.98v-.027l-4.702-.984c-.48-3.27-3.264-5.781-6.638-5.781-2.405 0-4.51 1.28-5.697 3.199l-2.029-.425 3.472-7.309s1.804-3.83 6.462-3.83c2.416 0 2.076 1.063 6.728 1.51 0 2.421 2.404 2.535 2.404 2.535v.008s2.403-.115 2.403-2.54c4.653-.448 4.312-1.513 6.729-1.513 4.658 0 6.462 3.836 6.462 3.836l3.471 7.323-2.063.432zm-16.982-1.508c-.941 0-1.703.77-1.703 1.719 0 .949.762 1.719 1.703 1.719.94 0 1.703-.77 1.703-1.719 0-.949-.763-1.719-1.703-1.719z"/>
    <path fill="url(#a)" d="M38.029 13.695c-1.181-1.933-3.289-3.226-5.701-3.226-3.376 0-6.161 2.527-6.627 5.812l-4.674.98v-.027l-4.702-.984c-.48-3.27-3.264-5.781-6.638-5.781-2.405 0-4.51 1.28-5.697 3.199l-2.029-.425 3.472-7.309s1.804-3.83 6.462-3.83c2.416 0 2.076 1.063 6.728 1.51 0 2.421 2.404 2.535 2.404 2.535v.008s2.403-.115 2.403-2.54c4.653-.448 4.312-1.513 6.729-1.513 4.658 0 6.462 3.836 6.462 3.836l3.471 7.323-2.063.432zm-16.982-1.508c-.941 0-1.703.77-1.703 1.719 0 .949.762 1.719 1.703 1.719.94 0 1.703-.77 1.703-1.719 0-.949-.763-1.719-1.703-1.719z"/>
    <path fill="#A47ED8" fill-rule="evenodd" d="M23.964 18.124s-1.477-.215-2.937-.215c-1.477 0-2.938.215-2.938.215l-2.67-7.443s2.8-.486 5.608-.486c2.799 0 5.607.486 5.607.486l-2.67 7.443zm-2.917-5.937c-.941 0-1.703.77-1.703 1.719 0 .949.762 1.719 1.703 1.719.94 0 1.703-.77 1.703-1.719 0-.949-.763-1.719-1.703-1.719z"/>
    <path fill="#B89AE3" fill-rule="evenodd" d="M21.031 16.406c-1.346 0-2.437-1.112-2.437-2.484 0-1.372 1.091-2.484 2.437-2.484 1.346 0 2.438 1.112 2.438 2.484 0 1.372-1.092 2.484-2.438 2.484zm.016-4.219c-.941 0-1.703.77-1.703 1.719 0 .949.762 1.719 1.703 1.719.94 0 1.703-.77 1.703-1.719 0-.949-.763-1.719-1.703-1.719z"/>
    <path fill="#9D74D4" fill-rule="evenodd" d="M16.327 4.531v4.801h9.399V4.531l-1.228.27s-.976 2.481-3.471 2.481c-2.496 0-3.472-2.481-3.472-2.481l-1.228-.27z"/>
    <path fill="#8958C8" fill-rule="evenodd" d="M32.328 26c-4.789 0-8.672-3.925-8.672-8.766s3.883-8.765 8.672-8.765c4.789 0 8.672 3.924 8.672 8.765C41 22.075 37.117 26 32.328 26zm0-15.531c-3.702 0-6.703 3.036-6.703 6.781 0 3.745 3.001 6.781 6.703 6.781 3.702 0 6.703-3.036 6.703-6.781 0-3.745-3.001-6.781-6.703-6.781z" filter="url(#b)"/>
    <path fill="#80D6A1" fill-rule="evenodd" d="M32.328 22.125c-2.666 0-4.828-2.183-4.828-4.875 0-.608.124-1.184.325-1.721.235.299.581.502.987.502a1.29 1.29 0 0 0 1.282-1.297c0-.56-.356-1.027-.848-1.208.838-.708 1.904-1.151 3.082-1.151 2.667 0 4.828 2.183 4.828 4.875s-2.161 4.875-4.828 4.875zm0-5.781a.89.89 0 1 0-.001 1.78.89.89 0 0 0 .001-1.78z" filter="url(#c)"/>
    <path fill="#8958C8" fill-rule="evenodd" d="M9.672 26C4.883 26 1 22.075 1 17.234s3.883-8.765 8.672-8.765c4.789 0 8.672 3.924 8.672 8.765 0 4.841-3.883 8.766-8.672 8.766zm.015-15.531c-3.71 0-6.718 3.036-6.718 6.781 0 3.745 3.008 6.781 6.718 6.781 3.711 0 6.719-3.036 6.719-6.781 0-3.745-3.008-6.781-6.719-6.781z" filter="url(#d)"/>
    <path fill="#80D6A1" fill-rule="evenodd" d="M9.687 22.125c-2.675 0-4.843-2.183-4.843-4.875 0-.619.126-1.207.335-1.752.234.316.589.533 1.008.533a1.29 1.29 0 0 0 .414-2.509c.84-.706 1.907-1.147 3.086-1.147 2.676 0 4.844 2.183 4.844 4.875s-2.168 4.875-4.844 4.875zm0-5.781a.882.882 0 0 0-.875.89c0 .492.392.891.875.891a.883.883 0 0 0 .875-.891.882.882 0 0 0-.875-.89z" filter="url(#e)"/>
    <path fill="#5C34A2" fill-rule="evenodd" d="M137.419 10.961h-1.584v3.872c0 .501.104.869.312 1.104.208.235.525.368.952.4l.448.032c.235.021.402.083.504.184.101.101.152.243.152.424a.554.554 0 0 1-.248.488c-.165.112-.408.157-.728.136l-.432-.032c-.864-.064-1.509-.328-1.936-.792-.427-.464-.64-1.149-.64-2.056v-3.76h-.96c-.469 0-.704-.208-.704-.624 0-.192.061-.344.184-.456.123-.112.296-.168.52-.168h.96V8.065c0-.245.072-.437.216-.576.144-.139.339-.208.584-.208.245 0 .443.069.592.208.149.139.224.331.224.576v1.648h1.584c.224 0 .397.056.52.168a.586.586 0 0 1 .184.456c0 .203-.061.357-.184.464-.123.107-.296.16-.52.16zm-7.568 6.64a.754.754 0 0 1-.544-.2c-.139-.133-.208-.312-.208-.536v-.608a2.506 2.506 0 0 1-1.016 1.024 2.978 2.978 0 0 1-1.448.352c-1.899 0-2.848-1.045-2.848-3.136v-4.16c0-.245.072-.437.216-.576.144-.139.344-.208.6-.208.245 0 .44.069.584.208.144.139.216.331.216.576v4.144c0 .629.128 1.093.384 1.392.256.299.651.448 1.184.448.63 0 1.133-.203 1.512-.608.379-.405.568-.944.568-1.616v-3.76c0-.235.075-.424.224-.568.149-.144.347-.216.592-.216s.44.069.584.208c.144.139.216.331.216.576v6.512a.71.71 0 0 1-.224.544c-.149.138-.347.208-.592.208zm-10.44-.464c-.581.331-1.256.496-2.024.496s-1.442-.165-2.024-.496a3.355 3.355 0 0 1-1.344-1.416c-.314-.613-.472-1.325-.472-2.136 0-.821.158-1.539.472-2.152a3.355 3.355 0 0 1 1.344-1.416c.582-.331 1.256-.496 2.024-.496s1.443.165 2.024.496c.582.331 1.03.803 1.344 1.416.315.613.472 1.331.472 2.152 0 .811-.157 1.523-.472 2.136a3.343 3.343 0 0 1-1.344 1.416zm-.392-5.608c-.384-.475-.928-.712-1.632-.712-.704 0-1.248.237-1.632.712-.384.475-.576 1.16-.576 2.056 0 .907.19 1.595.568 2.064.379.469.926.704 1.64.704.715 0 1.262-.235 1.64-.704.379-.469.568-1.157.568-2.064 0-.896-.192-1.581-.576-2.056zm-10.047 4.808c.32 0 .602-.048.848-.144.245-.096.496-.224.752-.384a2.71 2.71 0 0 1 .352-.192.787.787 0 0 1 .32-.08c.149 0 .272.061.368.184a.719.719 0 0 1 .144.456c0 .149-.04.285-.12.408-.08.123-.216.248-.408.376-.32.213-.694.379-1.12.496a4.884 4.884 0 0 1-1.296.176c-.758 0-1.422-.165-1.992-.496a3.382 3.382 0 0 1-1.328-1.408c-.315-.608-.472-1.312-.472-2.112 0-.811.162-1.525.488-2.144a3.519 3.519 0 0 1 1.368-1.44c.586-.341 1.258-.512 2.016-.512.405 0 .813.059 1.224.176.41.117.776.277 1.096.48.341.235.512.507.512.816a.719.719 0 0 1-.144.456.447.447 0 0 1-.368.184.639.639 0 0 1-.288-.072 4.106 4.106 0 0 1-.368-.216 4.435 4.435 0 0 0-.744-.392 2.236 2.236 0 0 0-.824-.136c-.726 0-1.288.245-1.688.736-.4.491-.6 1.173-.6 2.048s.197 1.549.592 2.024c.394.475.954.712 1.68.712zm-10.336-5.104c.938.213 1.698.435 2.28.664.581.229 1.045.544 1.392.944.346.4.52.915.52 1.544 0 .64-.179 1.208-.536 1.704-.358.496-.859.88-1.504 1.152-.646.272-1.39.408-2.232.408a7.84 7.84 0 0 1-2.312-.336c-.731-.224-1.315-.533-1.752-.928a.818.818 0 0 1-.304-.656c0-.192.053-.355.16-.488a.477.477 0 0 1 .384-.2c.149 0 .33.069.544.208.949.704 2.032 1.056 3.248 1.056.853 0 1.509-.16 1.968-.48.458-.32.688-.779.688-1.376 0-.469-.214-.821-.64-1.056-.427-.235-1.11-.459-2.048-.672-.896-.192-1.632-.411-2.208-.656-.576-.245-1.027-.579-1.352-1-.326-.421-.488-.957-.488-1.608 0-.651.178-1.229.536-1.736.357-.507.856-.901 1.496-1.184.64-.283 1.37-.424 2.192-.424.757 0 1.456.107 2.096.32.64.213 1.184.528 1.632.944.213.181.32.4.32.656a.743.743 0 0 1-.168.48c-.112.139-.243.208-.392.208-.139 0-.315-.069-.528-.208-.491-.373-.952-.643-1.384-.808-.432-.165-.952-.248-1.56-.248-.822 0-1.462.168-1.92.504-.459.336-.688.803-.688 1.4 0 .512.202.899.608 1.16.405.261 1.056.499 1.952.712zm-6.928 6.368a.777.777 0 0 1-.544-.224l-3.984-3.52v2.96c0 .256-.075.451-.224.584a.836.836 0 0 1-.576.2.862.862 0 0 1-.584-.2c-.155-.133-.232-.328-.232-.584V6.945c0-.256.077-.451.232-.584a.862.862 0 0 1 .584-.2c.234 0 .426.067.576.2.149.133.224.328.224.584v6.272l3.648-3.408c.181-.16.357-.24.528-.24.202 0 .378.075.528.224a.722.722 0 0 1 .224.528c0 .203-.091.389-.272.56l-2.848 2.608 3.136 2.768c.192.16.288.357.288.592 0 .203-.07.379-.208.528a.656.656 0 0 1-.496.224zM80.54 16.337c.32 0 .602-.048.848-.144.245-.096.496-.224.752-.384a2.71 2.71 0 0 1 .352-.192.787.787 0 0 1 .32-.08c.149 0 .272.061.368.184a.719.719 0 0 1 .144.456c0 .149-.04.285-.12.408-.08.123-.216.248-.408.376-.32.213-.694.379-1.12.496a4.884 4.884 0 0 1-1.296.176c-.758 0-1.422-.165-1.992-.496a3.382 3.382 0 0 1-1.328-1.408c-.315-.608-.472-1.312-.472-2.112 0-.811.162-1.525.488-2.144a3.519 3.519 0 0 1 1.368-1.44c.586-.341 1.258-.512 2.016-.512.405 0 .813.059 1.224.176.41.117.776.277 1.096.48.341.235.512.507.512.816a.719.719 0 0 1-.144.456.447.447 0 0 1-.368.184.639.639 0 0 1-.288-.072 4.106 4.106 0 0 1-.368-.216 4.435 4.435 0 0 0-.744-.392 2.236 2.236 0 0 0-.824-.136c-.726 0-1.288.245-1.688.736-.4.491-.6 1.173-.6 2.048s.197 1.549.592 2.024c.394.475.954.712 1.68.712zm-7.912.8c-.582.331-1.256.496-2.024.496s-1.443-.165-2.024-.496a3.343 3.343 0 0 1-1.344-1.416c-.315-.613-.472-1.325-.472-2.136 0-.821.157-1.539.472-2.152a3.343 3.343 0 0 1 1.344-1.416c.581-.331 1.256-.496 2.024-.496s1.442.165 2.024.496a3.355 3.355 0 0 1 1.344 1.416c.314.613.472 1.331.472 2.152 0 .811-.158 1.523-.472 2.136a3.355 3.355 0 0 1-1.344 1.416zm-.392-5.608c-.384-.475-.928-.712-1.632-.712-.704 0-1.248.237-1.632.712-.384.475-.576 1.16-.576 2.056 0 .907.189 1.595.568 2.064.378.469.925.704 1.64.704.714 0 1.261-.235 1.64-.704.378-.469.568-1.157.568-2.064 0-.896-.192-1.581-.576-2.056zm-8.88 6.072a.885.885 0 0 1-.584-.192c-.155-.128-.232-.32-.232-.576V6.945c0-.256.077-.451.232-.584a.864.864 0 0 1 .584-.2c.235 0 .427.067.576.2.149.133.224.328.224.584v9.888c0 .256-.075.448-.224.576a.853.853 0 0 1-.576.192zm-3.584-3.152c0 .971-.333 1.725-1 2.264-.667.539-1.597.808-2.792.808H51.9c-.256 0-.456-.072-.6-.216-.144-.144-.216-.339-.216-.584v-9.68c0-.245.072-.44.216-.584.144-.144.344-.216.6-.216h3.904c1.163 0 2.072.259 2.728.776.656.517.984 1.24.984 2.168 0 .597-.157 1.115-.472 1.552-.315.437-.755.763-1.32.976.651.181 1.155.507 1.512.976s.536 1.056.536 1.76zm-1.856-5.12c0-.597-.195-1.04-.584-1.328-.389-.288-.984-.432-1.784-.432H52.7v3.552h2.848c1.579 0 2.368-.597 2.368-1.792zm-.312 3.592c-.389-.315-.989-.472-1.8-.472H52.7v3.744h3.104c.821 0 1.424-.149 1.808-.448.384-.299.576-.763.576-1.392 0-.64-.195-1.117-.584-1.432z"/>
</svg>
