<svg xmlns="http://www.w3.org/2000/svg" width="162" height="28">
    <defs>
        <linearGradient id="a" x1="0%" y1="0%" y2="0%">
            <stop offset="0%" stop-color="#7E49C2"/>
            <stop offset="50%" stop-color="#C4AAEA"/>
            <stop offset="100%" stop-color="#7E49C2"/>
        </linearGradient>
        <filter id="b">
            <feOffset dy="1" in="SourceAlpha"/>
            <feGaussianBlur result="blurOut"/>
            <feFlood flood-color="#F6F6F6" result="floodOut"/>
            <feComposite in="floodOut" in2="blurOut" operator="out" result="compOut"/>
            <feComposite in="compOut" in2="SourceAlpha" operator="in"/>
            <feComponentTransfer>
                <feFuncA slope=".25" type="linear"/>
            </feComponentTransfer>
            <feBlend in2="SourceGraphic"/>
        </filter>
        <filter id="c">
            <feOffset in="SourceAlpha"/>
            <feGaussianBlur result="blurOut" stdDeviation="2.236"/>
            <feFlood flood-color="#35B080" result="floodOut"/>
            <feComposite in="floodOut" in2="blurOut" operator="out" result="compOut"/>
            <feComposite in="compOut" in2="SourceAlpha" operator="in"/>
            <feComponentTransfer>
                <feFuncA type="linear"/>
            </feComponentTransfer>
            <feBlend in2="SourceGraphic"/>
        </filter>
        <filter id="d">
            <feOffset dy="1" in="SourceAlpha"/>
            <feGaussianBlur result="blurOut"/>
            <feFlood flood-color="#F6F6F6" result="floodOut"/>
            <feComposite in="floodOut" in2="blurOut" operator="out" result="compOut"/>
            <feComposite in="compOut" in2="SourceAlpha" operator="in"/>
            <feComponentTransfer>
                <feFuncA slope=".25" type="linear"/>
            </feComponentTransfer>
            <feBlend in2="SourceGraphic"/>
        </filter>
        <filter id="e">
            <feOffset in="SourceAlpha"/>
            <feGaussianBlur result="blurOut" stdDeviation="2.236"/>
            <feFlood flood-color="#35B080" result="floodOut"/>
            <feComposite in="floodOut" in2="blurOut" operator="out" result="compOut"/>
            <feComposite in="compOut" in2="SourceAlpha" operator="in"/>
            <feComponentTransfer>
                <feFuncA type="linear"/>
            </feComponentTransfer>
            <feBlend in2="SourceGraphic"/>
        </filter>
    </defs>
    <path fill="#8957C8" fill-rule="evenodd" d="M30.285 1.252c-1.758 0-2.069.563-3.882 1.045C27.109.937 28.502 0 30.125 0c1.539 0 2.871.842 3.608 2.086-.913-.485-2.05-.834-3.448-.834zM8.204 2.26C8.916.921 10.297 0 11.906 0c1.595 0 2.967.906 3.684 2.226-1.596-.464-1.952-.974-3.626-.974-1.562 0-2.798.435-3.76 1.008z"/>
    <path fill="url(#a)" d="M30.285 1.252c-1.758 0-2.069.563-3.882 1.045C27.109.937 28.502 0 30.125 0c1.539 0 2.871.842 3.608 2.086-.913-.485-2.05-.834-3.448-.834zM8.204 2.26C8.916.921 10.297 0 11.906 0c1.595 0 2.967.906 3.684 2.226-1.596-.464-1.952-.974-3.626-.974-1.562 0-2.798.435-3.76 1.008z"/>
    <path fill="#704AD5" fill-rule="evenodd" d="M38.029 13.695c-1.181-1.933-3.289-3.226-5.701-3.226-3.376 0-6.161 2.527-6.627 5.812l-4.674.98v-.027l-4.702-.984c-.48-3.27-3.264-5.781-6.638-5.781-2.405 0-4.51 1.28-5.697 3.199l-2.029-.425 3.472-7.309s1.804-3.83 6.462-3.83c2.416 0 2.076 1.063 6.728 1.51 0 2.421 2.404 2.535 2.404 2.535v.008s2.403-.115 2.403-2.54c4.653-.448 4.312-1.513 6.729-1.513 4.658 0 6.462 3.836 6.462 3.836l3.471 7.323-2.063.432zm-16.982-1.508c-.941 0-1.703.77-1.703 1.719 0 .949.762 1.719 1.703 1.719.94 0 1.703-.77 1.703-1.719 0-.949-.763-1.719-1.703-1.719z"/>
    <path fill="url(#a)" d="M38.029 13.695c-1.181-1.933-3.289-3.226-5.701-3.226-3.376 0-6.161 2.527-6.627 5.812l-4.674.98v-.027l-4.702-.984c-.48-3.27-3.264-5.781-6.638-5.781-2.405 0-4.51 1.28-5.697 3.199l-2.029-.425 3.472-7.309s1.804-3.83 6.462-3.83c2.416 0 2.076 1.063 6.728 1.51 0 2.421 2.404 2.535 2.404 2.535v.008s2.403-.115 2.403-2.54c4.653-.448 4.312-1.513 6.729-1.513 4.658 0 6.462 3.836 6.462 3.836l3.471 7.323-2.063.432zm-16.982-1.508c-.941 0-1.703.77-1.703 1.719 0 .949.762 1.719 1.703 1.719.94 0 1.703-.77 1.703-1.719 0-.949-.763-1.719-1.703-1.719z"/>
    <path fill="#A47ED8" fill-rule="evenodd" d="M23.964 18.124s-1.477-.215-2.937-.215c-1.477 0-2.938.215-2.938.215l-2.67-7.443s2.8-.486 5.608-.486c2.799 0 5.607.486 5.607.486l-2.67 7.443zm-2.917-5.937c-.941 0-1.703.77-1.703 1.719 0 .949.762 1.719 1.703 1.719.94 0 1.703-.77 1.703-1.719 0-.949-.763-1.719-1.703-1.719z"/>
    <path fill="#B89AE3" fill-rule="evenodd" d="M21.031 16.406c-1.346 0-2.437-1.112-2.437-2.484 0-1.372 1.091-2.484 2.437-2.484 1.346 0 2.438 1.112 2.438 2.484 0 1.372-1.092 2.484-2.438 2.484zm.016-4.219c-.941 0-1.703.77-1.703 1.719 0 .949.762 1.719 1.703 1.719.94 0 1.703-.77 1.703-1.719 0-.949-.763-1.719-1.703-1.719z"/>
    <path fill="#9D74D4" fill-rule="evenodd" d="M16.327 4.531v4.801h9.399V4.531l-1.228.27s-.976 2.481-3.471 2.481c-2.496 0-3.472-2.481-3.472-2.481l-1.228-.27z"/>
    <path fill="#8958C8" fill-rule="evenodd" d="M32.328 26c-4.789 0-8.672-3.925-8.672-8.766s3.883-8.765 8.672-8.765c4.789 0 8.672 3.924 8.672 8.765C41 22.075 37.117 26 32.328 26zm0-15.531c-3.702 0-6.703 3.036-6.703 6.781 0 3.745 3.001 6.781 6.703 6.781 3.702 0 6.703-3.036 6.703-6.781 0-3.745-3.001-6.781-6.703-6.781z" filter="url(#b)"/>
    <path fill="#80D6A1" fill-rule="evenodd" d="M32.328 22.125c-2.666 0-4.828-2.183-4.828-4.875 0-.608.124-1.184.325-1.721.235.299.581.502.987.502a1.29 1.29 0 0 0 1.282-1.297c0-.56-.356-1.027-.848-1.208.838-.708 1.904-1.151 3.082-1.151 2.667 0 4.828 2.183 4.828 4.875s-2.161 4.875-4.828 4.875zm0-5.781a.89.89 0 1 0-.001 1.78.89.89 0 0 0 .001-1.78z" filter="url(#c)"/>
    <path fill="#8958C8" fill-rule="evenodd" d="M9.672 26C4.883 26 1 22.075 1 17.234s3.883-8.765 8.672-8.765c4.789 0 8.672 3.924 8.672 8.765 0 4.841-3.883 8.766-8.672 8.766zm.015-15.531c-3.71 0-6.718 3.036-6.718 6.781 0 3.745 3.008 6.781 6.718 6.781 3.711 0 6.719-3.036 6.719-6.781 0-3.745-3.008-6.781-6.719-6.781z" filter="url(#d)"/>
    <path fill="#80D6A1" fill-rule="evenodd" d="M9.687 22.125c-2.675 0-4.843-2.183-4.843-4.875 0-.619.126-1.207.335-1.752.234.316.589.533 1.008.533a1.29 1.29 0 0 0 .414-2.509c.84-.706 1.907-1.147 3.086-1.147 2.676 0 4.844 2.183 4.844 4.875s-2.168 4.875-4.844 4.875zm0-5.781a.882.882 0 0 0-.875.89c0 .492.392.891.875.891a.883.883 0 0 0 .875-.891.882.882 0 0 0-.875-.89z" filter="url(#e)"/>
    <path fill="#5C34A2" fill-rule="evenodd" d="M160.029 12.291h-2v5.036c0 .653.131 1.131.394 1.436.263.306.663.479 1.202.521l.566.041c.296.028.508.108.637.24.127.132.192.315.192.551 0 .278-.105.489-.314.635-.209.146-.515.205-.919.177l-.546-.042c-1.091-.083-1.906-.426-2.445-1.03-.539-.604-.808-1.495-.808-2.674v-4.891h-1.213c-.593 0-.889-.271-.889-.812 0-.25.077-.448.233-.593.154-.146.373-.219.656-.219h1.213V8.523c0-.319.091-.568.273-.749.181-.18.427-.27.737-.27s.559.09.748.27c.188.181.283.43.283.749v2.144h2c.283 0 .502.073.657.219.155.145.233.343.233.593 0 .264-.078.465-.233.603-.155.139-.374.209-.657.209zm-9.558 8.637c-.283 0-.512-.087-.687-.26-.175-.174-.263-.406-.263-.697v-.791a3.216 3.216 0 0 1-1.283 1.332 3.682 3.682 0 0 1-1.829.458c-2.398 0-3.597-1.36-3.597-4.08v-5.411c0-.319.091-.569.273-.749.182-.181.435-.271.758-.271.31 0 .556.09.738.271.181.18.272.43.272.749v5.39c0 .819.162 1.423.485 1.811.324.389.822.583 1.496.583.795 0 1.431-.264 1.909-.791.479-.527.718-1.228.718-2.102v-4.891c0-.305.094-.552.283-.739.188-.187.437-.281.747-.281s.556.09.738.271c.182.18.273.43.273.749v8.471a.935.935 0 0 1-.283.707c-.189.18-.438.271-.748.271zm-13.185-.604c-.735.431-1.587.646-2.557.646s-1.822-.215-2.556-.646c-.735-.43-1.3-1.044-1.698-1.842-.397-.797-.596-1.724-.596-2.778 0-1.068.199-2.001.596-2.8.398-.797.963-1.411 1.698-1.841.734-.43 1.586-.646 2.556-.646s1.822.216 2.557.646c.734.43 1.3 1.044 1.697 1.841.397.799.596 1.732.596 2.8 0 1.054-.199 1.981-.596 2.778a4.298 4.298 0 0 1-1.697 1.842zm-.496-7.295c-.485-.617-1.172-.926-2.061-.926s-1.576.309-2.061.926c-.485.618-.728 1.509-.728 2.675 0 1.179.24 2.074.718 2.685.478.61 1.168.915 2.071.915.903 0 1.593-.305 2.072-.915.478-.611.717-1.506.717-2.685 0-1.166-.243-2.057-.728-2.675zm-12.69 6.255c.404 0 .761-.063 1.071-.188.31-.125.627-.291.95-.499.148-.097.296-.18.444-.25a.971.971 0 0 1 .405-.104.56.56 0 0 1 .464.239.95.95 0 0 1 .182.594c0 .194-.05.371-.151.53-.101.16-.273.323-.516.489a4.782 4.782 0 0 1-1.414.646 6.007 6.007 0 0 1-1.637.229c-.957 0-1.795-.215-2.516-.646-.721-.43-1.28-1.04-1.677-1.831-.398-.791-.596-1.707-.596-2.748 0-1.054.205-1.984.616-2.788a4.541 4.541 0 0 1 1.728-1.874c.741-.444 1.589-.666 2.546-.666a5.48 5.48 0 0 1 1.546.229c.518.153.98.361 1.384.625.431.305.647.659.647 1.061a.952.952 0 0 1-.182.593.559.559 0 0 1-.465.24.798.798 0 0 1-.364-.094 5.038 5.038 0 0 1-.464-.281 5.516 5.516 0 0 0-.94-.51c-.29-.118-.637-.177-1.041-.177-.916 0-1.627.32-2.132.958-.505.638-.758 1.526-.758 2.664 0 1.138.25 2.015.748 2.633.498.617 1.206.926 2.122.926zm-13.054-6.64c1.185.278 2.145.566 2.879.864.734.299 1.32.708 1.758 1.228.438.52.657 1.19.657 2.008 0 .833-.226 1.572-.677 2.217-.451.645-1.084 1.145-1.899 1.499-.816.353-1.755.53-2.819.53a9.628 9.628 0 0 1-2.921-.437c-.922-.291-1.66-.693-2.212-1.207a1.078 1.078 0 0 1-.384-.853c0-.25.067-.461.202-.635.134-.173.296-.26.485-.26.188 0 .417.09.687.27 1.199.916 2.566 1.374 4.102 1.374 1.078 0 1.906-.208 2.486-.624.579-.417.869-1.013.869-1.79 0-.611-.27-1.069-.809-1.374-.539-.305-1.401-.596-2.586-.874-1.132-.25-2.061-.534-2.789-.853-.727-.319-1.297-.753-1.708-1.301-.411-.548-.616-1.245-.616-2.092 0-.846.226-1.599.677-2.258.451-.659 1.081-1.172 1.89-1.54.808-.368 1.73-.552 2.768-.552.956 0 1.839.139 2.647.416.809.278 1.496.687 2.062 1.228.269.236.404.521.404.854a.979.979 0 0 1-.213.624c-.141.181-.306.271-.495.271-.175 0-.397-.09-.666-.271-.62-.485-1.203-.836-1.748-1.051-.546-.215-1.203-.323-1.971-.323-1.037 0-1.846.219-2.425.656-.579.437-.869 1.044-.869 1.821 0 .666.256 1.169.768 1.509.512.34 1.334.649 2.466.926zm-8.75 8.284a.968.968 0 0 1-.688-.291l-5.031-4.579v3.85c0 .333-.095.586-.283.76-.189.173-.432.26-.728.26a1.07 1.07 0 0 1-.737-.26c-.196-.174-.293-.427-.293-.76V7.066c0-.333.097-.586.293-.759.195-.174.441-.26.737-.26s.539.086.728.26c.188.173.283.426.283.759v8.159l4.607-4.433c.229-.208.451-.312.667-.312a.9.9 0 0 1 .667.291.959.959 0 0 1 .283.687c0 .264-.115.507-.344.728l-3.597 3.393 3.961 3.601a.978.978 0 0 1 .364.77.996.996 0 0 1-.263.687.816.816 0 0 1-.626.291zm-14.105-1.644c.404 0 .761-.063 1.071-.188a5.73 5.73 0 0 0 .949-.499c.148-.097.297-.18.445-.25a.97.97 0 0 1 .404-.104.56.56 0 0 1 .465.239c.121.16.182.358.182.594a.97.97 0 0 1-.152.53c-.101.16-.273.323-.515.489a4.777 4.777 0 0 1-1.415.646 6.002 6.002 0 0 1-1.637.229c-.956 0-1.795-.215-2.515-.646-.721-.43-1.281-1.04-1.678-1.831-.397-.791-.596-1.707-.596-2.748 0-1.054.205-1.984.616-2.788a4.541 4.541 0 0 1 1.728-1.874c.741-.444 1.59-.666 2.547-.666.511 0 1.027.077 1.545.229.519.153.981.361 1.385.625.431.305.646.659.646 1.061 0 .236-.06.434-.182.593a.558.558 0 0 1-.464.24.792.792 0 0 1-.364-.094 5.169 5.169 0 0 1-.465-.281 5.516 5.516 0 0 0-.94-.51c-.289-.118-.636-.177-1.04-.177-.917 0-1.627.32-2.132.958-.505.638-.758 1.526-.758 2.664 0 1.138.249 2.015.748 2.633.498.617 1.205.926 2.122.926zm-9.993 1.04c-.735.431-1.587.646-2.557.646s-1.822-.215-2.556-.646a4.298 4.298 0 0 1-1.697-1.842c-.398-.797-.597-1.724-.597-2.778 0-1.068.199-2.001.597-2.8a4.301 4.301 0 0 1 1.697-1.841c.734-.43 1.586-.646 2.556-.646s1.822.216 2.557.646c.734.43 1.3 1.044 1.697 1.841.397.799.596 1.732.596 2.8 0 1.054-.199 1.981-.596 2.778a4.298 4.298 0 0 1-1.697 1.842zm-.495-7.295c-.485-.617-1.172-.926-2.062-.926-.889 0-1.576.309-2.061.926-.485.618-.727 1.509-.727 2.675 0 1.179.239 2.074.717 2.685.478.61 1.169.915 2.071.915.903 0 1.593-.305 2.072-.915.478-.611.717-1.506.717-2.685 0-1.166-.242-2.057-.727-2.675zm-11.216 7.899c-.296 0-.542-.083-.737-.25-.196-.166-.293-.416-.293-.749V7.066c0-.333.097-.586.293-.759.195-.174.441-.26.737-.26.297 0 .539.086.728.26.188.173.283.426.283.759v12.863c0 .333-.095.583-.283.749-.189.167-.431.25-.728.25zm-4.526-4.1c0 1.263-.421 2.244-1.263 2.945-.842.701-2.018 1.051-3.526 1.051h-5.154c-.323 0-.575-.094-.757-.281-.182-.187-.273-.44-.273-.76V7.191c0-.319.091-.572.273-.759.182-.188.434-.281.757-.281h4.931c1.469 0 2.617.336 3.446 1.009.828.673 1.243 1.613 1.243 2.82 0 .778-.199 1.45-.597 2.019-.397.569-.953.992-1.667 1.27.822.236 1.458.659 1.91 1.269.451.611.677 1.374.677 2.29zm-2.344-6.66c0-.777-.246-1.353-.738-1.728s-1.243-.562-2.253-.562h-3.597v4.621h3.597c1.994 0 2.991-.777 2.991-2.331zm-.394 4.672c-.492-.409-1.25-.614-2.274-.614h-3.92v4.87h3.92c1.037 0 1.799-.194 2.284-.582.485-.389.727-.992.727-1.811 0-.833-.246-1.453-.737-1.863z"/>
</svg>
