<svg width="845" height="165" viewBox="0 0 845 165" fill="none" xmlns="http://www.w3.org/2000/svg">
<path d="M329.212 41.9722H265.715V57.7328H329.212V41.9722Z" fill="#262626"/>
<path d="M321.261 65.5992H265.715V81.3597H321.261V65.5992Z" fill="#262626"/>
<path d="M329.212 89.2539H265.715V105.014H329.212V89.2539Z" fill="#262626"/>
<path d="M281.566 104.989V65.6017H265.692V104.989H281.566Z" fill="#262626"/>
<path d="M415.986 89.2539H352.49V105.014H415.986V89.2539Z" fill="#262626"/>
<path d="M368.374 81.363V41.9756H352.5V81.363H368.374Z" fill="#262626"/>
<path d="M502.803 41.9722H439.307V57.7328H502.803V41.9722Z" fill="#262626"/>
<path d="M494.852 65.5992H439.307V81.3597H494.852V65.5992Z" fill="#262626"/>
<path d="M502.803 89.2539H439.307V105.014H502.803V89.2539Z" fill="#262626"/>
<path d="M455.162 105.013V65.6253H439.288V105.013H455.162Z" fill="#262626"/>
<path d="M676.391 89.2539H612.895V105.014H676.391V89.2539Z" fill="#262626"/>
<path d="M676.391 41.9722H612.895V57.7328H676.391V41.9722Z" fill="#262626"/>
<path d="M612.884 41.9742V81.3617H628.758V41.9742H612.884Z" fill="#262626"/>
<path d="M660.517 65.6339V105.021H676.391V65.6339H660.517Z" fill="#262626"/>
<path d="M589.585 41.9722H526.089V57.7328H589.585V41.9722Z" fill="#262626"/>
<path d="M589.585 65.5992H526.089V81.3597H589.585V65.5992Z" fill="#262626"/>
<path d="M589.593 81.3647V41.9773H573.719V81.3647H589.593Z" fill="#262626"/>
<path d="M541.96 104.997V65.6092H526.086V104.997H541.96Z" fill="#262626"/>
<path d="M763.178 41.9722H699.681V57.7328H763.178V41.9722Z" fill="#262626"/>
<path d="M763.178 65.5992H699.681V81.3597H763.178V65.5992Z" fill="#262626"/>
<path d="M763.19 81.3605V41.9731H747.316V81.3605H763.19Z" fill="#262626"/>
<path d="M715.557 104.993V65.6053H699.683V104.993H715.557Z" fill="#262626"/>
<path d="M763.178 105.004V89.2436H747.304V105.004H763.178Z" fill="#262626"/>
<path d="M238.005 25.1554C234.17 24.1269 230.502 28.1574 225.715 38.6089C225.435 39.2482 225.127 39.9153 224.847 40.5824H227.899C231.65 32.2157 235.094 27.2401 237.278 27.8239C241.505 28.9635 239.433 50.3111 232.63 75.5225C225.827 100.734 216.868 120.275 212.641 119.135C210.709 118.607 210.093 113.826 210.653 106.376H207.853C207.125 116.161 208.357 120.886 211.913 121.831C215.748 122.86 219.416 118.829 224.203 108.378C228.039 100.011 231.986 88.5868 235.318 76.2452C238.649 63.9036 240.973 52.0623 241.869 42.9173C242.989 31.4652 241.841 26.1561 238.005 25.1554Z" fill="#57BEB5"/>
<path d="M184 41.9722V57.7328H235.374C236.606 51.5342 237.362 46.2251 237.753 41.9722H184V41.9722Z" fill="#262626"/>
<path d="M223.671 65.5992H207.797V104.987H221.096C221.907 103.096 222.775 101.012 223.671 98.7324V65.5992Z" fill="#262626"/>
<path d="M790.751 25.1554C794.587 24.1269 798.255 28.1574 803.042 38.6089C803.322 39.2482 803.63 39.9153 803.91 40.5824H800.858C797.107 32.2157 793.663 27.2401 791.479 27.8239C787.252 28.9635 789.324 50.3111 796.127 75.5225C802.93 100.734 811.889 120.275 816.116 119.135C818.048 118.607 818.664 113.826 818.104 106.376H820.904C821.632 116.161 820.4 120.886 816.844 121.831C813.009 122.86 809.341 118.829 804.554 108.378C800.718 100.011 796.771 88.5868 793.439 76.2452C790.108 63.9036 787.784 52.0623 786.888 42.9173C785.768 31.4652 786.916 26.1561 790.751 25.1554Z" fill="#71A8DB"/>
<path d="M844.757 41.9722V57.7328H793.383C792.151 51.5342 791.395 46.2251 791.003 41.9722H844.757V41.9722Z" fill="#262626"/>
<path d="M805.058 65.5992H820.932V104.987H807.633C806.821 103.096 805.954 101.012 805.058 98.7324V65.5992Z" fill="#262626"/>
<path fill-rule="evenodd" clip-rule="evenodd" d="M100.221 13.1944C92.9342 5.90735 67.5453 19.4817 43.5134 43.5135C19.4816 67.5453 5.90733 92.9342 13.1944 100.221C20.4815 107.508 45.8704 93.9341 69.9022 69.9023C93.934 45.8705 107.508 20.4815 100.221 13.1944ZM47.6513 48.3592C67.2272 28.7833 86.7788 16.5962 91.3211 21.1384C95.8633 25.6807 83.6762 45.2323 64.1003 64.8082C44.5244 84.3841 24.9727 96.5713 20.4304 92.029C15.8882 87.4868 28.0754 67.9351 47.6513 48.3592Z" fill="url(#paint0_linear_2890_1078)"/>
<path fill-rule="evenodd" clip-rule="evenodd" d="M70.7401 69.0595C91.1635 48.3972 103.191 27.3931 97.6712 21.8736C92.0766 16.279 70.5734 28.7116 49.6425 49.6425C28.7115 70.5734 16.279 92.0766 21.8735 97.6712C27.3931 103.191 48.3972 91.1636 69.0595 70.7401C45.2797 94.2484 20.3963 107.423 13.1944 100.221C5.90731 92.9342 19.4816 67.5453 43.5134 43.5134C67.5452 19.4816 92.9342 5.90733 100.221 13.1944C107.423 20.3963 94.2483 45.2797 70.7401 69.0595Z" fill="url(#paint1_linear_2890_1078)"/>
<path fill-rule="evenodd" clip-rule="evenodd" d="M120.32 120.319C103.655 136.983 86.0501 146.396 80.9971 141.343C75.9441 136.29 85.3568 118.685 102.021 102.02C118.685 85.3563 136.29 75.9436 141.343 80.9966C146.396 86.0496 136.984 103.655 120.32 120.319ZM117.45 116.959C103.876 130.533 90.3185 138.984 87.1688 135.834C84.0191 132.685 92.4699 119.127 106.044 105.553C119.619 91.9785 133.176 83.5276 136.326 86.6773C139.476 89.827 131.025 103.385 117.45 116.959Z" fill="url(#paint2_linear_2890_1078)"/>
<path fill-rule="evenodd" clip-rule="evenodd" d="M103.731 100.339C119.873 84.7303 136.462 76.1164 141.343 80.9968C146.396 86.0498 136.983 103.655 120.319 120.319C103.655 136.983 86.0496 146.396 80.9966 141.343C76.1167 136.463 84.7284 119.876 100.334 103.736C86.8468 117.691 79.038 131.598 82.7647 135.325C86.6441 139.204 101.555 130.583 116.069 116.069C130.583 101.555 139.204 86.6443 135.324 82.7649C131.597 79.0378 117.688 86.8489 103.731 100.339Z" fill="url(#paint3_linear_2890_1078)"/>
<path fill-rule="evenodd" clip-rule="evenodd" d="M98.8178 131.944C97.8875 132.874 96.3792 132.874 95.449 131.944L82.5353 119.03C81.605 118.1 81.605 116.592 82.5353 115.661C83.4656 114.731 84.9738 114.731 85.9041 115.661L98.8178 128.575C99.748 129.505 99.748 131.014 98.8178 131.944ZM132.505 98.2561C131.575 99.1864 130.067 99.1864 129.137 98.2561L104.994 74.1132C104.063 73.1829 104.063 71.6746 104.994 70.7444C105.924 69.8141 107.432 69.8141 108.363 70.7444L132.505 94.8873C133.436 95.8176 133.436 97.3258 132.505 98.2561ZM108.924 108.362C107.994 109.293 106.486 109.293 105.555 108.362L101.625 104.432C100.695 103.502 100.695 101.994 101.625 101.063C102.555 100.133 104.064 100.133 104.994 101.063L108.924 104.994C109.854 105.924 109.854 107.432 108.924 108.362ZM91.5187 90.9571C90.5885 91.8874 89.0802 91.8874 88.15 90.9571L61.7612 64.5683C60.8309 63.638 60.8309 62.1298 61.7612 61.1995C62.6914 60.2693 64.1997 60.2693 65.1299 61.1995L91.5187 87.5883C92.449 88.5186 92.449 90.0268 91.5187 90.9571ZM93.7645 62.8839C94.6948 63.8142 96.203 63.8142 97.1333 62.8839C98.0636 61.9536 98.0636 60.4454 97.1333 59.5151L93.2031 55.5849C92.2728 54.6546 90.7645 54.6546 89.8343 55.5849C88.904 56.5151 88.904 58.0234 89.8343 58.9536L93.7645 62.8839ZM78.605 47.7244C79.5352 48.6546 81.0435 48.6546 81.9737 47.7244C82.904 46.7941 82.904 45.2859 81.9737 44.3556L75.2362 37.618C74.3059 36.6878 72.7977 36.6878 71.8674 37.618C70.9371 38.5483 70.9371 40.0565 71.8674 40.9868L78.605 47.7244ZM69.0601 105.555C69.9903 106.485 71.4986 106.485 72.4288 105.555C73.3591 104.625 73.3591 103.117 72.4288 102.186L41.5483 71.3058C40.6181 70.3756 39.1098 70.3756 38.1795 71.3058C37.2493 72.2361 37.2493 73.7444 38.1795 74.6746L69.0601 105.555Z" fill="url(#paint4_linear_2890_1078)"/>
<rect x="22.1462" y="70.7552" width="68.3002" height="106.117" transform="rotate(-45 22.1462 70.7552)" fill="url(#paint5_linear_2890_1078)" fill-opacity="0.3"/>
<defs>
<linearGradient id="paint0_linear_2890_1078" x1="13.1944" y1="100.221" x2="100.221" y2="13.1944" gradientUnits="userSpaceOnUse">
<stop stop-color="#006B81"/>
<stop offset="1" stop-color="#019E62"/>
</linearGradient>
<linearGradient id="paint1_linear_2890_1078" x1="100.22" y1="13.1932" x2="13.1932" y2="100.22" gradientUnits="userSpaceOnUse">
<stop stop-color="#00D1FF"/>
<stop offset="1" stop-color="#45EBA5"/>
</linearGradient>
<linearGradient id="paint2_linear_2890_1078" x1="141.343" y1="80.9966" x2="80.9971" y2="141.343" gradientUnits="userSpaceOnUse">
<stop stop-color="#006B81"/>
<stop offset="1" stop-color="#019E62"/>
</linearGradient>
<linearGradient id="paint3_linear_2890_1078" x1="81.0037" y1="141.35" x2="141.35" y2="81.0039" gradientUnits="userSpaceOnUse">
<stop stop-color="#00D1FF"/>
<stop offset="1" stop-color="#45EBA5"/>
</linearGradient>
<linearGradient id="paint4_linear_2890_1078" x1="113.696" y1="113.135" x2="56.4271" y2="55.8656" gradientUnits="userSpaceOnUse">
<stop stop-color="#45EBA5" stop-opacity="0"/>
<stop offset="0.192708" stop-color="#45EBA5"/>
<stop offset="0.78125" stop-color="#45EBA5"/>
<stop offset="1" stop-color="#45EBA5" stop-opacity="0"/>
</linearGradient>
<linearGradient id="paint5_linear_2890_1078" x1="56.2963" y1="70.7552" x2="56.2963" y2="176.872" gradientUnits="userSpaceOnUse">
<stop stop-color="#00D1FF" stop-opacity="0"/>
<stop offset="0.510417" stop-color="#00D1FF"/>
<stop offset="1" stop-color="#45EBA5" stop-opacity="0"/>
</linearGradient>
</defs>
</svg>
