<svg xmlns="http://www.w3.org/2000/svg" width="58" height="68">
    <path fill="#4786FF" fill-rule="evenodd" d="M57.995 51.026l-.001.002a.996.996 0 0 1-.064.32c-.002.005-.001.011-.003.016l-.007.012c-.017.044-.019.09-.043.132a.977.977 0 0 1-.356.347l-.013.011-28.005 16c-.033.019-.07.02-.104.034-.022.011-.043.024-.067.033-.025.009-.052.01-.077.015-.066.018-.129.036-.196.04-.019.005-.038.012-.059.012-.021 0-.038-.011-.059-.012-.02-.001-.04-.009-.061-.012a.995.995 0 0 1-.279-.076c-.014-.005-.029-.007-.042-.013-.02-.01-.042-.01-.062-.021l-28.005-16-.013-.011a.977.977 0 0 1-.356-.347c-.024-.042-.026-.088-.043-.132l-.007-.012c-.002-.005-.001-.011-.003-.016a.996.996 0 0 1-.064-.32l-.001-.002C.005 51.017 0 51.009 0 51v-.049c.001-.03-.004-.06 0-.09V17c0-.009.005-.017.005-.026.001-.055.001-.108.012-.162.01-.055.031-.104.052-.155.008-.022.013-.044.022-.065.01-.031.015-.063.032-.092.01-.018.028-.028.04-.045.024-.036.055-.065.085-.096.038-.044.078-.081.122-.118.025-.023.048-.049.077-.067.017-.012.027-.03.045-.04l28.005-16c.033-.019.07-.02.104-.035a.994.994 0 0 1 .212-.07A.98.98 0 0 1 29 .016a.98.98 0 0 1 .187.013c.075.014.142.04.212.07.034.015.071.016.104.035l28.005 16c.018.01.028.028.045.04.029.018.052.044.077.067.044.037.084.074.122.118.03.031.061.06.085.096.012.017.03.027.04.045.017.029.022.061.032.092.009.021.014.043.022.065.021.051.042.1.052.155.011.054.011.107.012.162 0 .009.005.017.005.026v33.861c.004.03-.001.06 0 .09V51c0 .009-.005.017-.005.026zM2 49.251l1.9-1.114a.977.977 0 0 1 1.347.366 1.011 1.011 0 0 1-.361 1.369L2.99 50.984 28 65.273V36.472l-.911.378a.977.977 0 0 1-1.347-.367 1.011 1.011 0 0 1 .361-1.368L28 34.328v-.746L2 18.727v30.524zM30 2.727V6a1 1 0 0 1-2 0V2.727L3.019 17l25.202 14.399A.982.982 0 0 1 29 31c.322 0 .596.162.779.399L54.981 17 30 2.727zm26 16L30 33.582v.746l1.897.787c.471.277.633.889.361 1.368a.977.977 0 0 1-1.347.367L30 36.472v28.801l25.01-14.289-1.896-1.112a1.011 1.011 0 0 1-.361-1.369.977.977 0 0 1 1.347-.366l1.9 1.114V18.727zm-8.01 28.14l-3.416-2.004a1.01 1.01 0 0 1-.361-1.368.979.979 0 0 1 1.347-.367l3.416 2.004c.472.276.633.889.361 1.368a.978.978 0 0 1-1.347.367zm-8.54-5.009l-3.416-2.003a1.011 1.011 0 0 1-.361-1.368.979.979 0 0 1 1.347-.367l3.416 2.003c.472.277.634.89.361 1.369a.977.977 0 0 1-1.347.366zM29 27a1 1 0 0 1-1-1v-4a1 1 0 0 1 2 0v4a1 1 0 0 1-1 1zm0-10a1 1 0 0 1-1-1v-4a1 1 0 0 1 2 0v4a1 1 0 0 1-1 1zm-7.034 22.855l-3.416 2.003a.977.977 0 0 1-1.347-.366 1.01 1.01 0 0 1 .361-1.369l3.416-2.003a.979.979 0 0 1 1.347.367c.272.479.11 1.091-.361 1.368zm-8.54 5.008l-3.416 2.004a.978.978 0 0 1-1.347-.367 1.01 1.01 0 0 1 .361-1.368l3.416-2.004a.979.979 0 0 1 1.347.367 1.01 1.01 0 0 1-.361 1.368z"/>
</svg>
