<svg xmlns="http://www.w3.org/2000/svg" xmlns:xlink="http://www.w3.org/1999/xlink" viewBox="0 0 383.6 79.58"><defs><style>.cls-1{fill:#0d47a1;}.cls-2{fill:#fab416;}.cls-3{fill:url(#linear-gradient);}.cls-4{fill:#eda420;}.cls-5{fill:#fcb415;}</style><linearGradient id="linear-gradient" x1="12.4" y1="9.05" x2="66.68" y2="63.33" gradientTransform="translate(0.06 3.8) rotate(-0.3)" gradientUnits="userSpaceOnUse"><stop offset="0" stop-color="#082b5f"/><stop offset="0.23" stop-color="#082d64"/><stop offset="0.49" stop-color="#093372"/><stop offset="0.77" stop-color="#0b3d89"/><stop offset="1" stop-color="#0d47a1"/></linearGradient></defs><title>nexty explorer wide </title><g id="Layer_2" data-name="Layer 2"><g id="Layer_1-2" data-name="Layer 1"><path class="cls-1" d="M113.65,54.42l-3.14,0-17.25-26,.13,26.11-3.14,0-.17-31.22h3.15l17.25,26.07-.13-26.16,3.14,0Z"/><path class="cls-1" d="M136.42,50.41A6.65,6.65,0,0,0,139.06,46l3.28,0a9.88,9.88,0,0,1-3.65,6.27,11.82,11.82,0,0,1-7.61,2.43,12.37,12.37,0,0,1-6.15-1.45,10.4,10.4,0,0,1-4.21-4.28,13.74,13.74,0,0,1-1.54-6.62,13.8,13.8,0,0,1,1.47-6.63,10.37,10.37,0,0,1,4.17-4.33A12.54,12.54,0,0,1,131,29.82a12.22,12.22,0,0,1,6.15,1.45,10.09,10.09,0,0,1,4,3.95,11.12,11.12,0,0,1,1.38,5.4,13.13,13.13,0,0,1-.16,2.26l-20,.11a10.22,10.22,0,0,0,1.29,5.11,7.58,7.58,0,0,0,3.19,3,9.28,9.28,0,0,0,4.21,1A9,9,0,0,0,136.42,50.41Zm-9.75-17.07a7.73,7.73,0,0,0-3.16,3,10.26,10.26,0,0,0-1.28,5l17.12-.09a8.93,8.93,0,0,0-1-5,7.16,7.16,0,0,0-3.12-3,9.82,9.82,0,0,0-8.55,0Z"/><path class="cls-1" d="M161.76,54.18l-6.71-9.86-6.11,9.92-3.41,0,7.83-12.5-8-11.71L149,30l6.52,9.59,6-9.65,3.41,0L157.13,42.1l8.17,12.06Z"/><path class="cls-1" d="M180.32,51.33v2.75h-2.88a7.26,7.26,0,0,1-5.24-1.63q-1.74-1.65-1.76-5.6l-.07-14.23-3.68,0,0-2.71,3.68,0,0-6.11,3.15,0,0,6.12,6.65,0,0,2.71-6.66,0,.08,14.28c0,1.71.32,2.89,1,3.52a4.5,4.5,0,0,0,3.28.93Z"/><path class="cls-1" d="M186,29.84,194.5,50l7.65-20.21,3.46,0L191.56,65.46l-3.54,0,4.81-11.73L182.51,29.86Z"/><path class="cls-1" d="M214.68,27.22v9.42h11.44v3.87H214.68v9.64h12.76v4.09H209.67V23.17h17.77v4Z"/><path class="cls-1" d="M246.67,54.24l-5.94-8.58-5.19,8.58H230l8-12.59L229.86,30h5.68l5.81,8.36L246.5,30H252l-8,12.24,8.32,12Z"/><path class="cls-1" d="M275.38,31.18a10.28,10.28,0,0,1,3.9,4.31,14.6,14.6,0,0,1,1.41,6.61,14.67,14.67,0,0,1-1.41,6.64,10.22,10.22,0,0,1-3.9,4.31,10.7,10.7,0,0,1-5.65,1.5,9.61,9.61,0,0,1-5.63-1.63,8.53,8.53,0,0,1-3.26-4.31V65.77h-5V30h5v5.64a8.55,8.55,0,0,1,3.26-4.32,9.61,9.61,0,0,1,5.63-1.62A10.79,10.79,0,0,1,275.38,31.18Zm-11,3.9a7.09,7.09,0,0,0-2.64,2.81,9.73,9.73,0,0,0,0,8.43,7.1,7.1,0,0,0,2.64,2.79,7.32,7.32,0,0,0,3.79,1A7.06,7.06,0,0,0,273.56,48a8.18,8.18,0,0,0,2-5.87,8.22,8.22,0,0,0-2-5.86,7,7,0,0,0-5.37-2.15A7.32,7.32,0,0,0,264.4,35.08Z"/><path class="cls-1" d="M290.54,21.68V54.24h-5V21.68Z"/><path class="cls-1" d="M314,31.18a10.86,10.86,0,0,1,4.4,4.31A13.33,13.33,0,0,1,320,42.1a13.39,13.39,0,0,1-1.58,6.64,10.8,10.8,0,0,1-4.4,4.31,13.28,13.28,0,0,1-6.34,1.5,13.1,13.1,0,0,1-6.31-1.5,10.85,10.85,0,0,1-4.4-4.33,13.14,13.14,0,0,1-1.61-6.62A13,13,0,0,1,297,35.49a10.93,10.93,0,0,1,4.4-4.31,13.21,13.21,0,0,1,6.31-1.49A13.39,13.39,0,0,1,314,31.18Zm-9.9,3.74a6.47,6.47,0,0,0-2.62,2.71,9.26,9.26,0,0,0-1,4.47,9.22,9.22,0,0,0,1,4.48,6.48,6.48,0,0,0,2.62,2.69,7.64,7.64,0,0,0,7.12,0,6.48,6.48,0,0,0,2.62-2.69,9.22,9.22,0,0,0,1-4.48,9.26,9.26,0,0,0-1-4.47,6.47,6.47,0,0,0-2.62-2.71,7.64,7.64,0,0,0-7.12,0Z"/><path class="cls-1" d="M333.4,31a10,10,0,0,1,5.28-1.38v5.46h-1.5a8.21,8.21,0,0,0-5.3,1.6c-1.34,1.07-2,2.84-2,5.3V54.24h-5V30h5v4.76A9.33,9.33,0,0,1,333.4,31Z"/><path class="cls-1" d="M364.77,43.11H346.11q.13,3.73,2.07,5.54a6.77,6.77,0,0,0,4.79,1.8,7,7,0,0,0,4.25-1.27,5.24,5.24,0,0,0,2.13-3.39h5.37a10.27,10.27,0,0,1-6,7.63,13.06,13.06,0,0,1-5.5,1.13,12.61,12.61,0,0,1-6.22-1.5,10.63,10.63,0,0,1-4.25-4.31,13.6,13.6,0,0,1-1.54-6.64,13.54,13.54,0,0,1,1.54-6.61A10.69,10.69,0,0,1,347,31.18a13.83,13.83,0,0,1,12.45,0,10.22,10.22,0,0,1,4.09,4.05A11.53,11.53,0,0,1,364.94,41,12.45,12.45,0,0,1,364.77,43.11Zm-5.7-6.27a5.61,5.61,0,0,0-2.47-2.38,7.62,7.62,0,0,0-3.41-.77,7,7,0,0,0-4.92,1.8,7.41,7.41,0,0,0-2.16,5.33h13.77A7.43,7.43,0,0,0,359.07,36.84Z"/><path class="cls-1" d="M378.32,31a10,10,0,0,1,5.28-1.38v5.46h-1.5a8.23,8.23,0,0,0-5.3,1.6q-2,1.61-2,5.3V54.24h-5V30h5v4.76A9.33,9.33,0,0,1,378.32,31Z"/><path class="cls-2" d="M40,79.58a39.79,39.79,0,1,1,39.58-40A39.84,39.84,0,0,1,40,79.58"/><path class="cls-3" d="M39.59,1.39a38.4,38.4,0,1,0,38.6,38.2,38.45,38.45,0,0,0-38.6-38.2"/><polygon class="cls-4" points="63.14 26.1 64.8 51.98 56.8 42.72 63.14 26.1"/><polygon class="cls-5" points="56.8 42.72 21.56 53.45 63.14 26.1 56.8 42.72"/><polygon class="cls-4" points="16.44 53.48 14.78 27.59 22.78 36.86 16.44 53.48"/><polygon class="cls-5" points="22.78 36.86 58.02 26.13 16.44 53.48 22.78 36.86"/><path class="cls-2" d="M29.67,6.78l-.91-2.5A35.19,35.19,0,0,0,25.41,5.5L26.32,8A32.65,32.65,0,0,1,29.67,6.78Z"/><path class="cls-2" d="M39.79,5.27c.6,0,1.19,0,1.78.05V2.65c-.65,0-1.31,0-2,0s-1.06,0-1.59.05V5.32C38.6,5.29,39.19,5.27,39.79,5.27Z"/><path class="cls-2" d="M19,12.24l-1.72-2c-.94.72-1.85,1.48-2.72,2.29l1.71,2A35.18,35.18,0,0,1,19,12.24Z"/><path class="cls-2" d="M10.83,21,8.52,19.68c-.64,1-1.23,2-1.78,3.08L9.05,24.1A33.86,33.86,0,0,1,10.83,21Z"/><path class="cls-2" d="M70.53,24.1l2.31-1.34c-.55-1.05-1.14-2.08-1.78-3.08L68.75,21A33.86,33.86,0,0,1,70.53,24.1Z"/><path class="cls-2" d="M53.26,8l.91-2.51C53.08,5,52,4.63,50.82,4.28l-.91,2.5A32.65,32.65,0,0,1,53.26,8Z"/><path class="cls-2" d="M6.15,32.05l-2.62-.46c-.26,1.15-.47,2.32-.62,3.51l2.63.46A33.85,33.85,0,0,1,6.15,32.05Z"/><path class="cls-2" d="M74,35.56l2.63-.46c-.15-1.19-.36-2.36-.62-3.51l-2.62.46A33.85,33.85,0,0,1,74,35.56Z"/><path class="cls-2" d="M63.31,14.53l1.71-2c-.87-.8-1.78-1.57-2.73-2.29l-1.71,2A35.18,35.18,0,0,1,63.31,14.53Z"/><path class="cls-2" d="M16.27,65.05l-1.71,2c.87.8,1.78,1.57,2.73,2.29l1.71-2A35.18,35.18,0,0,1,16.27,65.05Z"/><path class="cls-2" d="M60.58,67.34l1.72,2c.94-.72,1.85-1.48,2.72-2.29l-1.71-2A35.18,35.18,0,0,1,60.58,67.34Z"/><path class="cls-2" d="M68.75,58.57l2.31,1.33c.64-1,1.23-2,1.78-3.08l-2.31-1.34A33.86,33.86,0,0,1,68.75,58.57Z"/><path class="cls-2" d="M5.54,44l-2.63.46c.15,1.19.36,2.36.62,3.51l2.62-.46A33.85,33.85,0,0,1,5.54,44Z"/><path class="cls-2" d="M49.91,72.8l.91,2.5a35.19,35.19,0,0,0,3.35-1.22l-.91-2.5A32.65,32.65,0,0,1,49.91,72.8Z"/><path class="cls-2" d="M74,44a33.85,33.85,0,0,1-.61,3.51l2.62.46c.26-1.15.47-2.32.62-3.51Z"/><path class="cls-2" d="M9.05,55.48,6.74,56.82c.55,1,1.14,2.08,1.78,3.08l2.31-1.33A33.86,33.86,0,0,1,9.05,55.48Z"/><path class="cls-2" d="M26.32,71.58l-.91,2.51c1.09.45,2.21.86,3.35,1.21l.91-2.5A32.65,32.65,0,0,1,26.32,71.58Z"/><path class="cls-2" d="M39.79,74.31c-.6,0-1.19,0-1.78,0v2.66c.65,0,1.31,0,2,0s1.06,0,1.59,0V74.27C41,74.3,40.39,74.31,39.79,74.31Z"/></g></g></svg>