<svg height="28" width="137" xmlns="http://www.w3.org/2000/svg" xmlns:xlink="http://www.w3.org/1999/xlink"><linearGradient id="a" x1="0%" y1="0%" y2="0%"><stop offset="0" stop-color="#7e49c2"/><stop offset=".5" stop-color="#c4aaea"/><stop offset="1" stop-color="#7e49c2"/></linearGradient><filter id="b"><feOffset dy="1" in="SourceAlpha"/><feGaussianBlur result="blurOut"/><feFlood flood-color="#f6f6f6" result="floodOut"/><feComposite in="floodOut" in2="blurOut" operator="out" result="compOut"/><feComposite in="compOut" in2="SourceAlpha" operator="in"/><feComponentTransfer><feFuncA slope=".25" type="linear"/></feComponentTransfer><feBlend in2="SourceGraphic"/></filter><filter id="c"><feOffset in="SourceAlpha"/><feGaussianBlur result="blurOut" stdDeviation="2.236"/><feFlood flood-color="#35b080" result="floodOut"/><feComposite in="floodOut" in2="blurOut" operator="out" result="compOut"/><feComposite in="compOut" in2="SourceAlpha" operator="in"/><feComponentTransfer><feFuncA type="linear"/></feComponentTransfer><feBlend in2="SourceGraphic"/></filter><filter id="d"><feOffset dy="1" in="SourceAlpha"/><feGaussianBlur result="blurOut"/><feFlood flood-color="#f6f6f6" result="floodOut"/><feComposite in="floodOut" in2="blurOut" operator="out" result="compOut"/><feComposite in="compOut" in2="SourceAlpha" operator="in"/><feComponentTransfer><feFuncA slope=".25" type="linear"/></feComponentTransfer><feBlend in2="SourceGraphic"/></filter><filter id="e"><feOffset in="SourceAlpha"/><feGaussianBlur result="blurOut" stdDeviation="2.236"/><feFlood flood-color="#35b080" result="floodOut"/><feComposite in="floodOut" in2="blurOut" operator="out" result="compOut"/><feComposite in="compOut" in2="SourceAlpha" operator="in"/><feComponentTransfer><feFuncA type="linear"/></feComponentTransfer><feBlend in2="SourceGraphic"/></filter><path d="m30.285 1.252c-1.758 0-2.069.563-3.882 1.045.706-1.36 2.099-2.297 3.722-2.297 1.539 0 2.871.842 3.608 2.086-.913-.485-2.05-.834-3.448-.834zm-22.081 1.008c.712-1.339 2.093-2.26 3.702-2.26 1.595 0 2.967.906 3.684 2.226-1.596-.464-1.952-.974-3.626-.974-1.562 0-2.798.435-3.76 1.008z" fill="#8957c8" fill-rule="evenodd"/><path d="m30.285 1.252c-1.758 0-2.069.563-3.882 1.045.706-1.36 2.099-2.297 3.722-2.297 1.539 0 2.871.842 3.608 2.086-.913-.485-2.05-.834-3.448-.834zm-22.081 1.008c.712-1.339 2.093-2.26 3.702-2.26 1.595 0 2.967.906 3.684 2.226-1.596-.464-1.952-.974-3.626-.974-1.562 0-2.798.435-3.76 1.008z" fill="url(#a)"/><path d="m38.029 13.695c-1.181-1.933-3.289-3.226-5.701-3.226-3.376 0-6.161 2.527-6.627 5.812l-4.674.98v-.027l-4.702-.984c-.48-3.27-3.264-5.781-6.638-5.781-2.405 0-4.51 1.28-5.697 3.199l-2.029-.425 3.472-7.309s1.804-3.83 6.462-3.83c2.416 0 2.076 1.063 6.728 1.51 0 2.421 2.404 2.535 2.404 2.535v.008s2.403-.115 2.403-2.54c4.653-.448 4.312-1.513 6.729-1.513 4.658 0 6.462 3.836 6.462 3.836l3.471 7.323zm-16.982-1.508c-.941 0-1.703.77-1.703 1.719s.762 1.719 1.703 1.719c.94 0 1.703-.77 1.703-1.719s-.763-1.719-1.703-1.719z" fill="#704ad5" fill-rule="evenodd"/><path d="m38.029 13.695c-1.181-1.933-3.289-3.226-5.701-3.226-3.376 0-6.161 2.527-6.627 5.812l-4.674.98v-.027l-4.702-.984c-.48-3.27-3.264-5.781-6.638-5.781-2.405 0-4.51 1.28-5.697 3.199l-2.029-.425 3.472-7.309s1.804-3.83 6.462-3.83c2.416 0 2.076 1.063 6.728 1.51 0 2.421 2.404 2.535 2.404 2.535v.008s2.403-.115 2.403-2.54c4.653-.448 4.312-1.513 6.729-1.513 4.658 0 6.462 3.836 6.462 3.836l3.471 7.323zm-16.982-1.508c-.941 0-1.703.77-1.703 1.719s.762 1.719 1.703 1.719c.94 0 1.703-.77 1.703-1.719s-.763-1.719-1.703-1.719z" fill="url(#a)"/><g fill-rule="evenodd"><path d="m23.964 18.124s-1.477-.215-2.937-.215c-1.477 0-2.938.215-2.938.215l-2.67-7.443s2.8-.486 5.608-.486c2.799 0 5.607.486 5.607.486zm-2.917-5.937c-.941 0-1.703.77-1.703 1.719s.762 1.719 1.703 1.719c.94 0 1.703-.77 1.703-1.719s-.763-1.719-1.703-1.719z" fill="#a47ed8"/><path d="m21.031 16.406c-1.346 0-2.437-1.112-2.437-2.484s1.091-2.484 2.437-2.484 2.438 1.112 2.438 2.484-1.092 2.484-2.438 2.484zm.016-4.219c-.941 0-1.703.77-1.703 1.719s.762 1.719 1.703 1.719c.94 0 1.703-.77 1.703-1.719s-.763-1.719-1.703-1.719z" fill="#b89ae3"/><path d="m16.327 4.531v4.801h9.399v-4.801l-1.228.27s-.976 2.481-3.471 2.481c-2.496 0-3.472-2.481-3.472-2.481z" fill="#9d74d4"/><path d="m32.328 26c-4.789 0-8.672-3.925-8.672-8.766s3.883-8.765 8.672-8.765 8.672 3.924 8.672 8.765-3.883 8.766-8.672 8.766zm0-15.531c-3.702 0-6.703 3.036-6.703 6.781s3.001 6.781 6.703 6.781 6.703-3.036 6.703-6.781-3.001-6.781-6.703-6.781z" fill="#8958c8" filter="url(#b)"/><path d="m32.328 22.125c-2.666 0-4.828-2.183-4.828-4.875 0-.608.124-1.184.325-1.721.235.299.581.502.987.502a1.29 1.29 0 0 0 1.282-1.297c0-.56-.356-1.027-.848-1.208.838-.708 1.904-1.151 3.082-1.151 2.667 0 4.828 2.183 4.828 4.875s-2.161 4.875-4.828 4.875zm0-5.781a.89.89 0 1 0 -.001 1.78.89.89 0 0 0 .001-1.78z" fill="#80d6a1" filter="url(#c)"/><path d="m9.672 26c-4.789 0-8.672-3.925-8.672-8.766s3.883-8.765 8.672-8.765 8.672 3.924 8.672 8.765-3.883 8.766-8.672 8.766zm.015-15.531c-3.71 0-6.718 3.036-6.718 6.781s3.008 6.781 6.718 6.781c3.711 0 6.719-3.036 6.719-6.781s-3.008-6.781-6.719-6.781z" fill="#8958c8" filter="url(#d)"/><path d="m9.687 22.125c-2.675 0-4.843-2.183-4.843-4.875 0-.619.126-1.207.335-1.752.234.316.589.533 1.008.533a1.29 1.29 0 0 0 .414-2.509c.84-.706 1.907-1.147 3.086-1.147 2.676 0 4.844 2.183 4.844 4.875s-2.168 4.875-4.844 4.875zm0-5.781a.882.882 0 0 0 -.875.89c0 .492.392.891.875.891a.883.883 0 0 0 .875-.891.882.882 0 0 0 -.875-.89z" fill="#80d6a1" filter="url(#e)"/><path d="m136.217 12.047h-1.564v4.021c0 .521.103.903.308 1.146.206.244.519.383.94.416l.442.033c.232.022.398.086.498.191.1.106.15.252.15.44a.584.584 0 0 1 -.245.507c-.163.117-.403.164-.719.141l-.426-.033c-.853-.066-1.49-.34-1.911-.822s-.632-1.194-.632-2.135v-3.905h-.948c-.463 0-.695-.216-.695-.648 0-.2.061-.357.182-.474.121-.116.292-.174.513-.174h.948v-1.712c0-.254.071-.454.213-.598s.334-.216.577-.216c.242 0 .437.072.584.216.148.144.221.344.221.598v1.712h1.564c.221 0 .392.058.513.174a.628.628 0 0 1 .182.474c0 .21-.061.371-.182.482s-.292.166-.513.166zm-7.471 6.895a.723.723 0 0 1 -.537-.207c-.137-.139-.205-.324-.205-.557v-.631c-.242.465-.576.82-1.003 1.063a2.825 2.825 0 0 1 -1.429.366c-1.875 0-2.812-1.086-2.812-3.257v-4.32c0-.255.071-.454.213-.598.143-.144.34-.216.593-.216.242 0 .434.072.576.216s.213.343.213.598v4.303c0 .654.127 1.136.38 1.446.252.31.642.465 1.168.465.621 0 1.119-.21 1.493-.631s.561-.981.561-1.678v-3.905c0-.244.073-.44.221-.59.147-.15.342-.224.584-.224s.434.072.577.216c.142.144.213.343.213.598v6.763a.753.753 0 0 1 -.221.564c-.148.144-.343.216-.585.216zm-10.306-.481c-.574.343-1.239.515-1.998.515-.758 0-1.424-.172-1.998-.515a3.406 3.406 0 0 1 -1.326-1.471c-.311-.637-.466-1.376-.466-2.218 0-.853.155-1.598.466-2.235a3.397 3.397 0 0 1 1.326-1.47c.574-.344 1.24-.516 1.998-.516.759 0 1.424.172 1.998.516a3.406 3.406 0 0 1 1.327 1.47c.311.637.466 1.382.466 2.235 0 .842-.155 1.581-.466 2.218a3.414 3.414 0 0 1 -1.327 1.471zm-.387-5.824c-.379-.493-.916-.74-1.611-.74s-1.232.247-1.611.74-.568 1.204-.568 2.135c0 .942.187 1.656.56 2.143.374.488.914.731 1.619.731.706 0 1.245-.243 1.619-.731.374-.487.561-1.201.561-2.143 0-.931-.189-1.642-.569-2.135zm-9.918 4.993c.316 0 .594-.05.837-.15.242-.099.489-.232.742-.399a2.94 2.94 0 0 1 .348-.199.744.744 0 0 1 .316-.083c.147 0 .268.064.363.191a.77.77 0 0 1 .142.474c0 .155-.04.296-.119.423-.078.128-.213.258-.402.391a3.697 3.697 0 0 1 -1.106.515 4.577 4.577 0 0 1 -1.279.183c-.748 0-1.403-.172-1.967-.515-.563-.344-1-.831-1.311-1.463-.31-.631-.466-1.362-.466-2.193 0-.842.161-1.584.482-2.226a3.587 3.587 0 0 1 1.351-1.496c.579-.354 1.242-.532 1.99-.532.4 0 .803.061 1.208.183s.766.288 1.082.499c.337.244.505.526.505.847a.77.77 0 0 1 -.142.474.436.436 0 0 1 -.363.191.6.6 0 0 1 -.284-.075 4.299 4.299 0 0 1 -.364-.224 4.29 4.29 0 0 0 -.734-.407 2.12 2.12 0 0 0 -.814-.142c-.716 0-1.271.255-1.666.765-.395.509-.592 1.218-.592 2.127 0 .908.195 1.609.584 2.101.39.493.943.74 1.659.74zm-10.204-5.301c.927.222 1.677.452 2.251.69s1.032.565 1.374.98c.342.416.514.95.514 1.604 0 .664-.177 1.254-.53 1.769-.352.515-.847.914-1.484 1.197-.637.282-1.372.423-2.204.423-.8 0-1.561-.116-2.282-.349-.721-.232-1.298-.553-1.729-.963a.867.867 0 0 1 -.3-.682c0-.199.052-.368.157-.506.106-.139.232-.208.38-.208.147 0 .326.072.537.216a5.07 5.07 0 0 0 3.206 1.097c.842 0 1.49-.167 1.943-.499.452-.332.679-.808.679-1.429 0-.487-.211-.853-.632-1.097-.421-.243-1.095-.476-2.022-.697-.884-.2-1.611-.427-2.179-.682-.569-.254-1.014-.6-1.335-1.038s-.482-.994-.482-1.67.176-1.277.529-1.803.845-.936 1.477-1.229c.632-.294 1.353-.441 2.164-.441a6.2 6.2 0 0 1 2.069.333 4.298 4.298 0 0 1 1.611.98.88.88 0 0 1 .316.681.794.794 0 0 1 -.166.499c-.11.144-.239.216-.387.216-.137 0-.31-.072-.521-.216-.484-.388-.94-.668-1.366-.839-.427-.172-.94-.258-1.54-.258-.811 0-1.443.175-1.896.523-.452.349-.679.834-.679 1.454 0 .532.2.934.6 1.205.401.272 1.043.518 1.927.739zm-6.839 6.613a.747.747 0 0 1 -.537-.232l-3.932-3.656v3.074c0 .266-.074.468-.222.607a.798.798 0 0 1 -.568.207.829.829 0 0 1 -.577-.207c-.152-.139-.229-.341-.229-.607v-10.252c0-.266.077-.468.229-.606a.825.825 0 0 1 .577-.208c.231 0 .421.069.568.208.148.138.222.34.222.606v6.514l3.601-3.539c.179-.167.352-.25.521-.25.2 0 .374.078.521.233a.771.771 0 0 1 .221.548c0 .211-.089.405-.268.582l-2.812 2.708 3.096 2.875c.19.166.284.371.284.615a.8.8 0 0 1 -.205.548.632.632 0 0 1 -.49.232zm-11.024-1.312c.316 0 .595-.05.837-.15.242-.099.49-.232.742-.399a2.94 2.94 0 0 1 .348-.199.748.748 0 0 1 .316-.083c.147 0 .268.064.363.191a.77.77 0 0 1 .142.474.784.784 0 0 1 -.118.423 1.422 1.422 0 0 1 -.403.391 3.697 3.697 0 0 1 -1.106.515 4.572 4.572 0 0 1 -1.279.183c-.748 0-1.403-.172-1.966-.515a3.444 3.444 0 0 1 -1.311-1.463c-.311-.631-.466-1.362-.466-2.193 0-.842.16-1.584.481-2.226a3.6 3.6 0 0 1 1.351-1.496c.579-.354 1.242-.532 1.99-.532.4 0 .803.061 1.208.183.406.122.766.288 1.082.499.337.244.506.526.506.847a.777.777 0 0 1 -.142.474.436.436 0 0 1 -.364.191.603.603 0 0 1 -.284-.075 4.153 4.153 0 0 1 -.363-.224 4.295 4.295 0 0 0 -.735-.407 2.112 2.112 0 0 0 -.813-.142c-.716 0-1.272.255-1.667.765-.394.509-.592 1.218-.592 2.127 0 .908.195 1.609.585 2.101.389.493.942.74 1.658.74zm-7.81.831c-.574.343-1.24.515-1.998.515-.759 0-1.425-.172-1.998-.515a3.408 3.408 0 0 1 -1.327-1.471c-.311-.637-.466-1.376-.466-2.218 0-.853.155-1.598.466-2.235a3.4 3.4 0 0 1 1.327-1.47c.573-.344 1.239-.516 1.998-.516.758 0 1.424.172 1.998.516a3.404 3.404 0 0 1 1.326 1.47c.311.637.466 1.382.466 2.235 0 .842-.155 1.581-.466 2.218a3.412 3.412 0 0 1 -1.326 1.471zm-.387-5.824c-.379-.493-.916-.74-1.611-.74s-1.232.247-1.611.74-.569 1.204-.569 2.135c0 .942.187 1.656.561 2.143.373.488.913.731 1.619.731.705 0 1.245-.243 1.619-.731.373-.487.56-1.201.56-2.143 0-.931-.189-1.642-.568-2.135zm-8.766 6.305a.847.847 0 0 1 -.577-.199c-.152-.133-.229-.332-.229-.598v-10.269c0-.266.077-.468.229-.606a.825.825 0 0 1 .577-.208c.231 0 .421.069.568.208.148.138.222.34.222.606v10.269c0 .266-.074.465-.222.598a.815.815 0 0 1 -.568.199zm-3.538-3.273c0 1.008-.329 1.792-.987 2.351-.658.56-1.577.839-2.756.839h-4.028c-.253 0-.45-.074-.592-.224-.142-.149-.213-.351-.213-.606v-10.053c0-.255.071-.457.213-.606.142-.15.339-.225.592-.225h3.854c1.147 0 2.045.269 2.693.806.647.538.971 1.288.971 2.252 0 .62-.155 1.157-.466 1.611-.31.455-.745.792-1.303 1.014.642.188 1.14.526 1.493 1.013.353.488.529 1.097.529 1.828zm-1.832-5.317c0-.62-.192-1.08-.577-1.379-.384-.299-.971-.449-1.761-.449h-2.811v3.689h2.811c1.558 0 2.338-.62 2.338-1.861zm-.308 3.73c-.385-.326-.977-.49-1.777-.49h-3.064v3.888h3.064c.811 0 1.406-.155 1.785-.465s.568-.792.568-1.446c0-.664-.192-1.16-.576-1.487z" fill="#5c34a2"/></g></svg>