<svg width="558" height="165" viewBox="0 0 558 165" fill="none" xmlns="http://www.w3.org/2000/svg">
<path d="M254.322 63.9724H217.014V73.2329H254.322V63.9724Z" fill="#262626"/>
<path d="M249.651 77.8549H217.014V87.1154H249.651V77.8549Z" fill="#262626"/>
<path d="M254.322 91.7538H217.014V101.014H254.322V91.7538Z" fill="#262626"/>
<path d="M226.327 100.999V77.8564H217V100.999H226.327Z" fill="#262626"/>
<path d="M305.309 91.7538H268V101.014H305.309V91.7538Z" fill="#262626"/>
<path d="M277.333 87.1173V63.9744H268.006V87.1173H277.333Z" fill="#262626"/>
<path d="M356.32 63.9724H319.011V73.2329H356.32V63.9724Z" fill="#262626"/>
<path d="M351.648 77.8549H319.011V87.1154H351.648V77.8549Z" fill="#262626"/>
<path d="M356.32 91.7538H319.011V101.014H356.32V91.7538Z" fill="#262626"/>
<path d="M328.327 101.013V77.8703H319V101.013H328.327Z" fill="#262626"/>
<path d="M458.315 91.7538H421.007V101.014H458.315V91.7538Z" fill="#262626"/>
<path d="M458.315 63.9724H421.007V73.2329H458.315V63.9724Z" fill="#262626"/>
<path d="M421 63.9735V87.1165H430.327V63.9735H421Z" fill="#262626"/>
<path d="M448.988 77.8753V101.018H458.315V77.8753H448.988Z" fill="#262626"/>
<path d="M407.31 63.9724H370.002V73.2329H407.31V63.9724Z" fill="#262626"/>
<path d="M407.311 77.8549H370.002V87.1154H407.311V77.8549Z" fill="#262626"/>
<path d="M407.315 87.1183V63.9753H397.988V87.1183H407.315Z" fill="#262626"/>
<path d="M379.327 101.004V77.8608H370V101.004H379.327Z" fill="#262626"/>
<path d="M509.309 63.9724H472V73.2329H509.309V63.9724Z" fill="#262626"/>
<path d="M509.309 77.8549H472V87.1154H509.309V77.8549Z" fill="#262626"/>
<path d="M509.316 87.1159V63.9729H499.989V87.1159H509.316Z" fill="#262626"/>
<path d="M481.328 101.001V77.8585H472.001V101.001H481.328Z" fill="#262626"/>
<path d="M509.309 101.008V91.7477H499.982V101.008H509.309Z" fill="#262626"/>
<path d="M200.732 54.0913C198.478 53.487 196.323 55.8552 193.511 61.9962C193.346 62.3718 193.165 62.7638 193.001 63.1558H194.794C196.998 58.2397 199.021 55.3162 200.304 55.6592C202.788 56.3289 201.571 68.8721 197.574 83.6856C193.576 98.4991 188.312 109.981 185.828 109.311C184.693 109.001 184.331 106.192 184.66 101.815H183.015C182.588 107.564 183.311 110.34 185.401 110.895C187.654 111.5 189.809 109.131 192.622 102.99C194.876 98.0744 197.195 91.3618 199.153 84.1102C201.11 76.8587 202.476 69.9011 203.002 64.5277C203.66 57.7988 202.986 54.6793 200.732 54.0913Z" fill="#57BEB5"/>
<path d="M169 63.9724V73.2329H199.186C199.91 69.5907 200.354 66.4713 200.584 63.9724H169Z" fill="#262626"/>
<path d="M192.31 77.8549H182.983V100.998H190.796C191.273 99.8873 191.783 98.6624 192.31 97.3231V77.8549Z" fill="#262626"/>
<path d="M525.51 54.0913C527.764 53.487 529.919 55.8552 532.732 61.9962C532.896 62.3718 533.077 62.7638 533.242 63.1558H531.449C529.244 58.2397 527.221 55.3162 525.938 55.6592C523.454 56.3289 524.671 68.8721 528.669 83.6856C532.666 98.4991 537.93 109.981 540.414 109.311C541.549 109.001 541.911 106.192 541.582 101.815H543.227C543.655 107.564 542.931 110.34 540.842 110.895C538.588 111.5 536.433 109.131 533.62 102.99C531.366 98.0744 529.047 91.3618 527.089 84.1102C525.132 76.8587 523.767 69.9011 523.24 64.5277C522.582 57.7988 523.257 54.6793 525.51 54.0913Z" fill="#71A8DB"/>
<path d="M557.242 63.9724V73.2329H527.056C526.333 69.5907 525.889 66.4713 525.658 63.9724H557.242Z" fill="#262626"/>
<path d="M533.916 77.8549H543.243V100.998H535.429C534.952 99.8873 534.442 98.6624 533.916 97.3231V77.8549Z" fill="#262626"/>
<path fill-rule="evenodd" clip-rule="evenodd" d="M100.221 13.1944C92.9342 5.90734 67.5453 19.4816 43.5134 43.5134C19.4816 67.5453 5.90733 92.9342 13.1944 100.221C20.4815 107.508 45.8704 93.9341 69.9022 69.9023C93.934 45.8704 107.508 20.4815 100.221 13.1944ZM47.6513 48.3592C67.2272 28.7833 86.7788 16.5961 91.3211 21.1384C95.8633 25.6807 83.6762 45.2323 64.1003 64.8082C44.5244 84.3841 24.9727 96.5713 20.4304 92.029C15.8882 87.4868 28.0754 67.9351 47.6513 48.3592Z" fill="url(#paint0_linear_2659_1430)"/>
<path fill-rule="evenodd" clip-rule="evenodd" d="M70.7401 69.0595C91.1635 48.3972 103.191 27.3931 97.6712 21.8736C92.0766 16.279 70.5734 28.7115 49.6425 49.6425C28.7115 70.5734 16.279 92.0766 21.8736 97.6712C27.3931 103.191 48.3972 91.1636 69.0595 70.7401C45.2797 94.2483 20.3963 107.423 13.1944 100.221C5.90731 92.9342 19.4816 67.5453 43.5134 43.5134C67.5452 19.4816 92.9342 5.90733 100.221 13.1944C107.423 20.3963 94.2483 45.2797 70.7401 69.0595Z" fill="url(#paint1_linear_2659_1430)"/>
<path fill-rule="evenodd" clip-rule="evenodd" d="M120.32 120.319C103.655 136.983 86.0501 146.396 80.9971 141.343C75.9441 136.29 85.3568 118.685 102.021 102.02C118.685 85.3563 136.29 75.9436 141.343 80.9966C146.396 86.0496 136.984 103.655 120.32 120.319ZM117.45 116.959C103.876 130.533 90.3185 138.984 87.1688 135.834C84.0191 132.685 92.4699 119.127 106.044 105.553C119.619 91.9784 133.176 83.5276 136.326 86.6773C139.476 89.827 131.025 103.385 117.45 116.959Z" fill="url(#paint2_linear_2659_1430)"/>
<path fill-rule="evenodd" clip-rule="evenodd" d="M103.731 100.339C119.873 84.7303 136.462 76.1164 141.343 80.9968C146.396 86.0498 136.983 103.655 120.319 120.319C103.655 136.983 86.0496 146.396 80.9966 141.343C76.1167 136.463 84.7284 119.876 100.334 103.736C86.8468 117.691 79.038 131.598 82.7647 135.325C86.6441 139.204 101.555 130.583 116.069 116.069C130.583 101.555 139.204 86.6443 135.324 82.7649C131.597 79.0378 117.688 86.8489 103.731 100.339Z" fill="url(#paint3_linear_2659_1430)"/>
<path fill-rule="evenodd" clip-rule="evenodd" d="M98.8178 131.944C97.8875 132.874 96.3792 132.874 95.449 131.944L82.5353 119.03C81.605 118.1 81.605 116.592 82.5353 115.662C83.4656 114.731 84.9738 114.731 85.9041 115.661L98.8178 128.575C99.748 129.505 99.748 131.014 98.8178 131.944ZM132.505 98.2561C131.575 99.1864 130.067 99.1864 129.137 98.2561L104.994 74.1132C104.063 73.1829 104.063 71.6747 104.994 70.7444C105.924 69.8141 107.432 69.8141 108.363 70.7444L132.505 94.8873C133.436 95.8176 133.436 97.3259 132.505 98.2561ZM108.924 108.362C107.994 109.293 106.486 109.293 105.555 108.362L101.625 104.432C100.695 103.502 100.695 101.994 101.625 101.063C102.555 100.133 104.064 100.133 104.994 101.063L108.924 104.994C109.854 105.924 109.854 107.432 108.924 108.362ZM91.5187 90.9571C90.5885 91.8874 89.0802 91.8874 88.15 90.9571L61.7612 64.5683C60.8309 63.6381 60.8309 62.1298 61.7612 61.1995C62.6914 60.2693 64.1997 60.2693 65.1299 61.1995L91.5187 87.5883C92.449 88.5186 92.449 90.0269 91.5187 90.9571ZM93.7645 62.8839C94.6948 63.8142 96.203 63.8142 97.1333 62.8839C98.0636 61.9536 98.0636 60.4454 97.1333 59.5151L93.2031 55.5849C92.2728 54.6546 90.7645 54.6546 89.8343 55.5849C88.904 56.5151 88.904 58.0234 89.8343 58.9537L93.7645 62.8839ZM78.605 47.7244C79.5352 48.6547 81.0435 48.6547 81.9737 47.7244C82.904 46.7941 82.904 45.2859 81.9737 44.3556L75.2362 37.618C74.3059 36.6878 72.7977 36.6878 71.8674 37.618C70.9371 38.5483 70.9371 40.0566 71.8674 40.9868L78.605 47.7244ZM69.0601 105.555C69.9903 106.485 71.4986 106.485 72.4288 105.555C73.3591 104.625 73.3591 103.117 72.4288 102.186L41.5483 71.3059C40.6181 70.3756 39.1098 70.3756 38.1795 71.3059C37.2493 72.2361 37.2493 73.7444 38.1795 74.6746L69.0601 105.555Z" fill="url(#paint4_linear_2659_1430)"/>
<rect x="22.1462" y="70.7552" width="68.3002" height="106.117" transform="rotate(-45 22.1462 70.7552)" fill="url(#paint5_linear_2659_1430)" fill-opacity="0.3"/>
<defs>
<linearGradient id="paint0_linear_2659_1430" x1="13.1944" y1="100.221" x2="100.221" y2="13.1944" gradientUnits="userSpaceOnUse">
<stop stop-color="#006B81"/>
<stop offset="1" stop-color="#019E62"/>
</linearGradient>
<linearGradient id="paint1_linear_2659_1430" x1="100.22" y1="13.1932" x2="13.1932" y2="100.22" gradientUnits="userSpaceOnUse">
<stop stop-color="#00D1FF"/>
<stop offset="1" stop-color="#45EBA5"/>
</linearGradient>
<linearGradient id="paint2_linear_2659_1430" x1="141.343" y1="80.9966" x2="80.9971" y2="141.343" gradientUnits="userSpaceOnUse">
<stop stop-color="#006B81"/>
<stop offset="1" stop-color="#019E62"/>
</linearGradient>
<linearGradient id="paint3_linear_2659_1430" x1="81.0037" y1="141.35" x2="141.35" y2="81.0039" gradientUnits="userSpaceOnUse">
<stop stop-color="#00D1FF"/>
<stop offset="1" stop-color="#45EBA5"/>
</linearGradient>
<linearGradient id="paint4_linear_2659_1430" x1="113.696" y1="113.135" x2="56.4271" y2="55.8656" gradientUnits="userSpaceOnUse">
<stop stop-color="#45EBA5" stop-opacity="0"/>
<stop offset="0.192708" stop-color="#45EBA5"/>
<stop offset="0.78125" stop-color="#45EBA5"/>
<stop offset="1" stop-color="#45EBA5" stop-opacity="0"/>
</linearGradient>
<linearGradient id="paint5_linear_2659_1430" x1="56.2963" y1="70.7552" x2="56.2963" y2="176.872" gradientUnits="userSpaceOnUse">
<stop stop-color="#00D1FF" stop-opacity="0"/>
<stop offset="0.510417" stop-color="#00D1FF"/>
<stop offset="1" stop-color="#45EBA5" stop-opacity="0"/>
</linearGradient>
</defs>
</svg>
