<svg width="273" height="84" viewBox="0 0 273 84" fill="none" xmlns="http://www.w3.org/2000/svg">
<g clip-path="url(#clip0_1169_11969)">
<mask id="mask0_1169_11969" style="mask-type:luminance" maskUnits="userSpaceOnUse" x="1" y="0" width="71" height="84">
<path d="M71.3704 0H1.74072V84H71.3704V0Z" fill="white"/>
</mask>
<g mask="url(#mask0_1169_11969)">
<path d="M25.6989 4.58911C25.6403 4.81169 25.5653 4.92977 25.5976 4.99943C25.9583 5.75041 25.6949 6.49364 25.5896 7.2388C25.2044 9.97363 25.9848 12.3117 28.1532 14.193C28.3741 14.3846 28.5605 14.6498 28.6639 14.9149C28.9294 15.6059 28.6619 15.993 27.9403 16.2252C27.5998 16.3336 27.223 16.5194 27.0122 16.7807C25.4295 18.7317 23.4231 20.2665 21.5121 21.8885C20.5352 22.7168 19.8198 23.6865 19.1753 24.7452C18.6768 25.5639 18.16 26.3808 17.5561 27.1279C16.7799 28.0898 15.9551 29.0226 15.0715 29.8936C13.8211 31.1245 12.5383 32.3324 11.1906 33.4627C9.89561 34.5503 8.28043 35.3903 8.52969 37.411C8.55806 37.6394 8.54388 37.8736 8.53982 38.1039C8.52767 39.031 8.64319 39.9853 8.45066 40.8774C8.31285 41.5162 8.56416 41.7523 9.0019 42.0058C10.382 42.8014 11.904 43.1769 13.4928 43.1131C14.804 43.0607 15.9977 42.6369 16.6908 41.4117C18.4376 38.3226 21.2223 36.4877 24.7161 35.6885C26.3089 35.3245 27.9931 35.3362 29.6346 35.1639C31.5376 34.9645 33.2825 34.3027 34.5856 32.9807C38.4117 29.1078 38.1057 24.4801 35.1449 20.191C34.9707 19.9394 34.8815 19.6356 34.7518 19.3549C35.1165 19.2408 35.4772 19.0646 35.8502 19.0355C36.1096 19.0143 36.4339 19.1381 36.6466 19.2968C37.741 20.1175 38.8313 20.9518 39.3805 22.2387C41.5266 27.2614 40.2134 31.7517 36.7824 35.7176C34.8389 37.9646 32.5246 39.931 30.2872 41.9323C27.5817 44.3517 24.7729 46.6666 22.0248 49.0452C21.4756 49.5214 20.9972 50.0749 20.4015 50.6788C21.1168 50.311 21.6985 49.9627 22.3207 49.7013C26.4407 47.9672 30.5932 46.3045 34.6848 44.5181C38.5172 42.8439 42.1063 40.8116 44.907 37.6879C46.5506 35.8569 47.7909 33.8052 48.3239 31.4885C49.2844 27.3137 47.8293 23.5743 45.3305 20.2434C43.2188 17.431 40.1365 15.7181 36.819 14.4233C35.3091 13.8349 33.7365 13.5311 32.0949 13.833C31.6572 13.9143 31.4606 13.7575 31.3774 13.3259C31.183 12.3156 30.9804 11.3052 30.6985 10.3143C29.965 7.72266 28.0053 6.09299 25.6989 4.58911Z" fill="white"/>
<path d="M20.7441 84C21.265 83.2896 21.6845 82.7205 22.0979 82.1495C24.0171 79.4921 26.299 77.1503 28.8931 75.089C32.6362 72.1141 36.819 69.8244 41.2208 67.8657C45.2821 66.0598 49.3798 64.32 53.0805 61.8618C57.6524 58.825 61.5132 55.1902 63.7505 50.2103C65.0778 47.2528 66.0304 44.2064 65.846 40.9354C65.8116 40.318 65.7305 39.7026 65.6716 39.0869C65.461 39.2379 65.3961 39.3715 65.3536 39.5129C65.3231 39.6135 65.3231 39.7218 65.313 39.8263C65.0577 42.4373 64.3037 44.9148 63.0067 47.2199C59.9465 52.6508 55.3704 56.5993 49.5684 59.1753C45.572 60.9483 41.4053 62.3631 37.3562 64.0354C31.2419 66.5593 26.1897 70.3064 22.8376 75.929C21.3745 78.3812 20.8536 81.058 20.7441 84Z" fill="white"/>
<path d="M37.0724 11.9149C37.0663 11.9942 37.0581 12.0716 37.052 12.151C37.5425 12.3 38.0228 12.5032 38.5254 12.5923C42.3172 13.2619 45.6854 14.8084 48.7191 17.0458C50.0303 18.0116 51.3212 19.0006 52.6041 20.0012C55.5265 22.2832 58.8095 23.6825 62.6277 23.7872C64.2408 23.8316 65.8966 23.7116 67.1814 22.7457C69.1857 21.242 70.8252 19.4186 71.2407 16.8716C71.2913 16.5561 71.3279 16.2368 71.3704 15.9194C71.0826 16.0723 70.9265 16.2658 70.7766 16.4632C69.3478 18.3503 67.3942 19.1922 64.9886 19.0123C62.0013 18.7897 59.4621 17.5045 57.1213 15.811C56.0149 15.0097 54.9611 14.1348 53.8261 13.3723C50.5431 11.1658 47.0026 9.80129 42.8622 10.3103C41.0708 10.531 39.3522 10.9432 37.6863 11.5839C37.4696 11.6671 37.275 11.8045 37.0724 11.9149Z" fill="white"/>
<path d="M56.1124 10.7226C55.7212 9.4258 55.0119 8.47354 54.2153 7.62192C50.9526 4.14386 46.7555 2.82193 41.9708 2.95934C38.9267 3.04644 36.2658 4.09161 33.8704 5.86838C33.2037 6.36192 32.8754 6.93483 32.8733 7.68192C32.8733 8.07289 33.0374 8.46386 33.1307 8.85288C33.2848 9.50901 33.4225 10.169 33.6028 10.8193C33.7184 11.2297 33.9454 11.2529 34.3386 11.0168C35.7593 10.169 37.1677 9.29418 38.6532 8.56258C42.0761 6.87869 45.6712 6.59612 49.3921 7.54063C51.7997 8.15612 53.9256 9.29031 56.1124 10.7226Z" fill="white"/>
<path d="M23.3241 12.0466C23.3625 12.0078 23.2774 12.0736 23.2186 12.155C22.5357 13.1053 21.8608 14.0633 21.1697 15.0079C21.0096 15.2285 20.8252 15.4588 20.5961 15.6059C19.0965 16.5698 17.4955 17.3362 15.7607 17.8453C14.1982 18.304 12.7634 18.0968 11.4015 17.2511C10.3335 16.5872 9.67894 15.6253 9.17636 14.5356C8.94127 16.5543 9.65462 18.2517 11.1462 19.6433C13.3126 21.664 17.5847 21.9039 20.4259 20.3711C22.7139 19.1363 24.2541 17.3169 25.4864 15.1878C25.5633 15.0543 25.5978 14.7988 25.5167 14.6962C24.8075 13.804 24.0677 12.9369 23.3241 12.0466Z" fill="url(#paint0_linear_1169_11969)"/>
<path d="M19.8909 11.6788C19.0134 11.0672 18.1744 10.4827 17.3759 9.92529C16.9057 10.4517 16.4619 11.0634 15.8965 11.5492C15.321 12.0446 14.6258 12.4143 14.0442 12.7995C14.4272 13.2079 14.8548 13.6763 15.2987 14.1292C15.5682 14.4059 15.8377 14.6963 16.16 14.9053C16.3505 15.0292 16.6788 15.1085 16.8834 15.0408C17.7772 14.7466 18.5493 14.2724 18.9931 13.4285C19.2991 12.8498 19.5929 12.2614 19.8909 11.6788Z" fill="url(#paint1_linear_1169_11969)"/>
<path d="M11.0427 9.48563C11.4602 10.0237 11.9365 10.616 12.3884 11.2256C12.6539 11.5837 12.9781 11.7095 13.3247 11.4037C14.0948 10.7243 14.8426 10.0198 15.558 9.28821C15.6512 9.19336 15.5803 8.78498 15.4485 8.68239C14.8912 8.24498 14.2833 7.8695 13.7847 7.53271C13.3247 7.92368 12.9214 8.31853 12.4613 8.64368C12.0013 8.96885 11.4866 9.22628 11.0427 9.48563Z" fill="url(#paint2_linear_1169_11969)"/>
<path d="M9.82281 4.78638C9.69311 5.63219 8.88248 6.26702 7.88135 6.33863C8.38799 6.94057 8.94327 7.53475 9.41344 8.18509C9.7073 8.59154 9.92009 8.53734 10.3173 8.32831C11.1908 7.8696 11.6022 7.11088 11.967 6.29799C11.2556 5.79669 10.5544 5.30121 9.82281 4.78638Z" fill="url(#paint3_linear_1169_11969)"/>
<path d="M6.6268 2.85278C6.11408 3.16439 5.69862 3.41795 5.29736 3.66181C5.86279 4.2773 6.39577 4.85793 7.01591 5.53149C7.56309 5.11149 8.11028 4.69342 8.73446 4.21343C7.91572 3.68503 7.22668 3.23988 6.6268 2.85278Z" fill="url(#paint4_linear_1169_11969)"/>
<path d="M4.71373 3.15872C4.9934 2.82581 5.2143 2.55871 5.47776 2.24516C4.22532 1.47871 3.01747 0.739354 1.8076 0C1.7853 0.0232258 1.76302 0.0464516 1.74072 0.067742C2.7216 1.08774 3.70043 2.10581 4.71373 3.15872Z" fill="url(#paint5_linear_1169_11969)"/>
<path d="M20.7441 84.0003C20.8515 81.0583 21.3745 78.3835 22.8376 75.9273C26.1897 70.3048 31.2419 66.5596 37.3562 64.0338C41.4033 62.3634 45.572 60.9466 49.5684 59.1739C55.3704 56.5977 59.9465 52.6494 63.0067 47.2182C64.3058 44.9131 65.0596 42.4357 65.313 39.8248C65.3231 39.7202 65.3231 39.6119 65.3536 39.5112C65.3961 39.3719 65.461 39.2382 65.6716 39.0854C65.7305 39.7009 65.8116 40.3164 65.846 40.9338C66.0283 44.2047 65.0778 47.2511 63.7505 50.2086C61.5151 55.1886 57.6524 58.8235 53.0805 61.8603C49.3798 64.3184 45.2801 66.0584 41.2208 67.864C36.819 69.8209 32.6362 72.1106 28.8931 75.0873C26.299 77.1506 24.0171 79.4905 22.0979 82.1481C21.6845 82.7208 21.265 83.288 20.7441 84.0003Z" fill="#FFEFC7"/>
<path d="M71.3704 15.9211C71.3258 16.2385 71.2913 16.5578 71.2386 16.8733C70.8657 19.163 69.5018 20.8682 67.7731 22.2811C64.2326 23.7191 58.7103 22.1107 56.3229 20.2102C46.0542 12.0385 39.2307 12.7275 39.2307 12.7275C38.9976 12.6791 38.7625 12.6346 38.5254 12.592C38.0228 12.503 37.5425 12.2998 37.052 12.1507C37.0602 12.0714 37.0663 11.994 37.0724 11.9146C37.2771 11.8024 37.4696 11.6669 37.6863 11.5836C39.3522 10.943 41.0708 10.5307 42.8622 10.312C47.0026 9.803 50.541 11.1675 53.8242 13.374C54.959 14.1365 56.0128 15.0114 57.1194 15.8127C59.46 17.5082 61.9994 18.7914 64.9886 19.014C67.3942 19.1939 69.3478 18.352 70.7766 16.4649C70.9246 16.2656 71.0805 16.072 71.3704 15.9211Z" fill="url(#paint6_linear_1169_11969)"/>
<path d="M56.112 10.7228C53.9234 9.29057 51.7995 8.15445 49.394 7.54283C45.6732 6.59832 42.078 6.88089 38.655 8.56477C37.1697 9.29638 35.7591 10.1712 34.3404 11.019C33.9453 11.2551 33.7183 11.2319 33.6048 10.8215C33.4244 10.1731 33.2866 9.51123 33.1325 8.85508C33.0415 8.46411 32.8752 8.07509 32.8752 7.68412C32.8773 6.93703 33.2056 6.36411 33.8723 5.87058C36.2678 4.0938 38.9308 3.04863 41.9725 2.96154C46.7554 2.82413 50.9544 4.14606 54.2172 7.62411C55.0136 8.47379 55.723 9.428 56.112 10.7228Z" fill="url(#paint7_linear_1169_11969)"/>
<path d="M23.324 12.0466C24.0676 12.9369 24.8075 13.804 25.5147 14.6943C25.5957 14.7949 25.5612 15.0524 25.4843 15.1859C24.2522 17.3149 22.7139 19.1342 20.4239 20.3692C17.5825 21.902 13.3105 21.664 11.1441 19.6414C9.65659 18.2517 8.94323 16.5543 9.17832 14.5356C9.6809 15.6253 10.3355 16.5872 11.4035 17.2511C12.7654 18.0968 14.2002 18.304 15.7627 17.8453C17.4995 17.3362 19.0985 16.5698 20.5982 15.6059C20.8273 15.4588 21.0095 15.2285 21.1717 15.0079C21.8628 14.0614 22.5375 13.1053 23.2206 12.155C23.2773 12.0736 23.3625 12.0078 23.324 12.0466Z" fill="url(#paint8_linear_1169_11969)"/>
<path d="M21.0967 26.9866C21.1839 26.5453 21.2163 26.2395 21.3075 25.9492C21.4027 25.6491 21.6074 25.3743 21.6682 25.0705C21.9093 23.8531 22.8517 23.3015 23.9238 22.9221C24.8215 22.6027 25.7659 22.4014 26.7144 22.1421C26.8462 23.4427 26.5118 24.5788 25.5754 25.4226C25.1113 25.8388 24.3879 26.0131 23.7555 26.2338C23.0686 26.4718 22.3531 26.6363 21.6499 26.8317C21.5284 26.8646 21.4088 26.8975 21.0967 26.9866Z" fill="white"/>
<path d="M9.86523 37.3082C10.0882 36.9424 10.2584 36.532 10.5462 36.2225C11.0184 35.7134 11.4683 35.8973 11.9546 36.3173C12.4289 36.7275 12.3215 37.165 12.0134 37.4727C11.6547 37.8328 11.1562 38.0999 10.6678 38.2973C10.3009 38.4444 9.99899 38.005 9.86523 37.3082Z" fill="white"/>
<path d="M43.8533 52.0085C26.0842 60.2402 13.2194 62.9014 15.3331 81.3833V81.4047C15.2642 81.4143 15.1953 81.4239 15.1264 81.4357C14.8528 80.9227 14.6056 80.3923 14.2975 79.8988C13.6044 78.7937 13.2093 77.6285 13.0046 76.4034C12.431 73.8891 12.4148 70.5524 14.2124 66.6833V66.6795C14.2165 66.6699 14.2225 66.6601 14.2286 66.6485C14.488 66.0931 14.7839 65.5239 15.1244 64.9452C15.2176 64.6587 15.3818 64.3956 15.6209 64.1401C15.9634 63.6079 16.3383 63.0678 16.7538 62.522C25.0284 51.6272 40.7872 48.4607 45.3834 44.6594C49.9351 40.895 55.3867 35.9904 52.3021 23.9866C52.2393 23.8491 52.1746 23.7098 52.1077 23.5667C52.4522 23.7698 52.7034 23.9091 52.9467 24.0621C54.4361 24.995 55.9744 25.7904 57.6464 26.2279C57.6464 26.2279 61.6285 43.773 43.8533 52.0085Z" fill="url(#paint9_linear_1169_11969)"/>
<path d="M62.3985 35.5257C62.3195 37.9739 61.7035 40.3004 60.6881 42.561C59.758 44.6281 58.5926 46.5384 57.1457 48.2998C55.1616 50.7153 52.75 52.6681 50.0302 54.29C46.6803 56.2856 43.0284 57.65 39.3583 58.9972C36.3953 60.085 33.4042 61.1437 30.5729 62.4965C25.774 64.7941 21.6215 67.9043 18.6729 72.2902C17.7811 73.616 16.8327 74.9379 16.1801 76.374C15.6776 77.483 15.5742 78.7643 15.3492 79.9799C15.2641 80.4347 15.331 80.9126 15.335 81.383C13.2213 62.9011 26.0862 60.2399 43.8553 52.0082C61.6305 43.7746 57.6482 26.2295 57.6482 26.2295H57.6503C58.5419 26.4617 59.4722 26.5914 60.4531 26.5837C60.6578 26.5818 60.9861 26.8178 61.0509 27.0075C61.9851 29.7732 62.4918 32.6145 62.3985 35.5257Z" fill="url(#paint10_linear_1169_11969)"/>
<path d="M41.4538 40.7786C39.3826 42.2844 37.0824 43.469 34.687 44.516C30.5933 46.3044 26.4408 47.967 22.3208 49.6992C21.6986 49.9606 21.1169 50.3089 20.4016 50.6767C20.9973 50.0728 21.4736 49.5193 22.0228 49.0431C24.7709 46.6645 27.5776 44.3515 30.2833 41.9302C32.5206 39.9289 34.835 37.9625 36.7785 35.7174C40.2114 31.7496 41.5227 27.2593 39.3766 22.2366C39.1718 21.7587 38.8921 21.3406 38.5659 20.9631C40.7242 23.2723 48.3422 32.4734 41.4538 40.7786Z" fill="url(#paint11_linear_1169_11969)"/>
<path d="M67.7731 22.2812C67.5787 22.4399 67.382 22.5946 67.1794 22.7456C65.8945 23.7114 64.2387 23.8296 62.6256 23.7869C58.8074 23.6824 55.5244 22.2831 52.602 20.0011C51.3212 19.0004 50.0284 18.0115 48.7191 17.0456C45.8737 14.9456 42.7347 13.4573 39.2307 12.7276C39.2307 12.7276 46.0562 12.0366 56.3229 20.2102C58.7103 22.1107 64.2326 23.7191 67.7731 22.2812Z" fill="url(#paint12_linear_1169_11969)"/>
<path d="M8.43665 41.4929C8.43665 41.4929 5.65008 39.5923 7.24298 34.9045C8.70213 33.7646 13.4768 30.2168 17.0598 24.3891C17.0598 24.3891 17.988 22.742 20.9063 23.249L11.8859 35.0323L8.83588 37.1865L8.43665 41.4929Z" fill="#FFEFC7"/>
<path d="M34.5875 32.9808C33.2846 34.3008 31.5397 34.9626 29.6367 35.1639C27.9952 35.3363 26.3089 35.3226 24.7161 35.6885C21.2223 36.4877 18.4376 38.3226 16.6908 41.4117C15.9977 42.6369 14.806 43.0607 13.4949 43.1129C12.666 43.1479 11.8533 43.0588 11.071 42.8556C15.562 43.2039 16.3969 39.8458 18.387 37.4401C20.3772 35.0323 26.08 33.2593 30.4574 32.373C34.8349 31.4866 36.7358 23.1562 36.7358 23.1562H36.7379C38.0328 26.5453 37.5424 29.9884 34.5875 32.9808Z" fill="url(#paint13_linear_1169_11969)"/>
<path d="M26.4875 5.49854L25.2533 4.10498C25.2533 4.10498 23.2328 8.71338 26.7124 11.2837C30.1921 13.854 27.3852 7.42627 27.3852 7.42627L26.4875 5.49854Z" fill="#FFEFC7"/>
<path d="M28.4046 14.4578C28.3298 14.3591 28.2446 14.2682 28.1553 14.1908C25.9869 12.3114 25.2067 9.9714 25.5918 7.23655C25.5938 7.22687 25.5939 7.2172 25.5958 7.20752C26.9657 8.64558 29.2052 11.5469 28.4046 14.4578Z" fill="url(#paint14_linear_1169_11969)"/>
<path d="M45.3328 20.241C43.2211 17.4289 40.1367 15.716 36.8211 14.4211C35.3114 13.8327 33.7386 13.5289 32.0971 13.8308C31.6614 13.9121 31.4628 13.7553 31.3818 13.3237C31.1872 12.3134 30.9825 11.3011 30.7029 10.3121C29.9671 7.72046 28.0076 6.09272 25.7013 4.58691C25.6424 4.8095 25.5655 4.92757 25.5999 4.99724C25.9545 5.73659 25.7032 6.47208 25.5958 7.20757C26.9657 8.64564 29.2073 11.545 28.4046 14.4579C28.5141 14.5992 28.6053 14.756 28.6642 14.9127C28.9296 15.6037 28.6621 15.9908 27.9405 16.2211C27.6001 16.3295 27.2232 16.5172 27.0124 16.7766C25.4276 18.7296 23.4233 20.2643 21.5123 21.8843C20.5354 22.7127 19.82 23.6824 19.1756 24.7412C18.6791 25.5598 18.1602 26.3765 17.5563 27.1238C16.7822 28.0856 15.9574 29.0185 15.0718 29.8895C13.8213 31.1204 12.5385 32.3283 11.1908 33.4586C9.89583 34.5462 8.27862 35.3862 8.52991 37.407C8.55828 37.6353 8.5441 37.8676 8.54004 38.0998C8.52585 39.0269 8.64341 39.9791 8.45088 40.8734C8.31508 41.5121 8.56436 41.7482 9.00414 42.0018C9.66278 42.3812 10.3538 42.6676 11.0713 42.8514C15.5622 43.1998 16.3971 39.8417 18.3872 37.436C20.3774 35.0282 26.0802 33.2553 30.4577 32.3689C34.8351 31.4823 36.736 23.1522 36.736 23.1522C36.357 22.1554 35.82 21.1624 35.1472 20.187C34.973 19.9353 34.8837 19.6315 34.754 19.3508C35.1208 19.2365 35.4795 19.0605 35.8524 19.0314C36.1118 19.012 36.4361 19.134 36.6489 19.2927C37.1271 19.6508 37.6055 20.0127 38.037 20.4153C38.037 20.4153 38.0614 20.4367 38.108 20.4831C38.2682 20.6322 38.4202 20.7888 38.566 20.9535L38.5721 20.9612C40.7265 23.2682 48.3443 32.4695 41.456 40.7747C42.7003 39.8708 43.8615 38.8547 44.9093 37.6817C46.5529 35.8509 47.7932 33.7992 48.326 31.4823C49.2867 27.3114 47.8316 23.5722 45.3328 20.241ZM12.0116 37.4728C11.6529 37.8327 11.1544 38.0979 10.6659 38.2953C10.2991 38.4444 9.9992 38.003 9.8634 37.3063C10.0863 36.9423 10.2566 36.5302 10.5443 36.2205C11.0145 35.7133 11.4685 35.8953 11.9508 36.3134C12.4291 36.7276 12.3217 37.1649 12.0116 37.4728ZM25.5735 25.4224C25.1115 25.8386 24.386 26.0127 23.7556 26.2315C23.0687 26.4714 22.3533 26.634 21.65 26.8314C21.5285 26.8643 21.4089 26.8993 21.0968 26.9882C21.184 26.547 21.2183 26.2411 21.3095 25.9508C21.4028 25.6489 21.6095 25.374 21.6683 25.0721C21.9094 23.8546 22.8518 23.303 23.924 22.9217C24.8217 22.6044 25.766 22.403 26.7145 22.1417C26.8442 23.4404 26.5119 24.5786 25.5735 25.4224Z" fill="url(#paint15_linear_1169_11969)"/>
<path d="M48.5673 41.675L46.9987 39.4841C43.3792 41.5395 36.6914 44.553 26.4754 49.1828C13.8011 55.6764 11.4725 66.362 11.1462 71.7022C11.1462 71.8957 11.1523 72.0931 11.1584 72.2886C11.1543 72.3525 11.1503 72.4144 11.1462 72.4764C11.1503 73.4828 11.2233 74.5163 11.3712 75.5751L11.3813 75.5672C11.3712 75.4046 11.361 75.1222 11.3631 74.7409C11.3651 74.762 11.3671 74.7815 11.3712 74.8028L11.3813 74.7951C11.3773 74.7118 11.3712 74.5975 11.3671 74.4544C11.43 71.7079 12.2244 65.0362 17.9779 59.6982C25.4135 52.8002 29.6613 51.3796 29.6613 51.3796C29.6613 51.3796 41.3444 46.3067 44.1068 44.888C46.869 43.4692 48.5673 42.453 48.5673 42.453L48.1761 41.9074C48.4294 41.7583 48.5673 41.675 48.5673 41.675Z" fill="url(#paint16_linear_1169_11969)"/>
<path d="M4.71373 3.15872C3.70043 2.10581 2.7216 1.08774 1.74072 0.067742C1.76302 0.0464516 1.7853 0.0232258 1.8076 0C3.01747 0.739354 4.22532 1.47871 5.47776 2.24516C5.2143 2.55871 4.99138 2.82581 4.71373 3.15872Z" fill="url(#paint17_linear_1169_11969)"/>
<path d="M4.71362 3.15867L5.29728 3.66188L6.62673 2.85286L5.47765 2.24512L4.71362 3.15867Z" fill="#FFEFC7"/>
<path d="M7.01587 5.53144L7.89743 6.35597C7.89743 6.35597 9.41536 6.45275 9.92606 4.8579C9.89768 4.83661 9.82473 4.78629 9.82473 4.78629L8.73442 4.21338L7.01587 5.53144Z" fill="#FFEFC7"/>
<path d="M6.62689 2.85278C7.22674 3.23988 7.9158 3.68697 8.7325 4.21535C8.10833 4.69342 7.56114 5.11342 7.01396 5.53342C6.39585 4.85988 5.86084 4.27923 5.29541 3.66375C5.70072 3.41795 6.11415 3.16439 6.62689 2.85278Z" fill="url(#paint18_linear_1169_11969)"/>
<path d="M9.59985 8.39034L11.0408 9.4839C11.0408 9.4839 13.4625 8.58003 13.7848 7.53099C12.8586 6.88067 11.9649 6.2981 11.9649 6.2981L9.59985 8.39034Z" fill="#FFEFC7"/>
<path d="M12.6782 11.5005L14.0441 12.7992C14.0441 12.7992 17.0719 11.216 17.3759 9.92503C16.474 9.24568 15.325 8.58374 15.325 8.58374L12.6782 11.5005Z" fill="#FFEFC7"/>
<path d="M19.8909 11.6786C19.5929 12.2612 19.2991 12.8476 18.9931 13.4302C18.5493 14.2741 17.7772 14.7483 16.8834 15.0425C16.6767 15.1102 16.3505 15.0328 16.16 14.907C15.8377 14.696 15.5702 14.4057 15.2987 14.1309C14.8548 13.678 14.4272 13.2096 14.0442 12.8012C14.6258 12.416 15.3189 12.0464 15.8965 11.5509C16.4599 11.067 16.9057 10.4535 17.3759 9.927C18.1744 10.4825 19.0134 11.067 19.8909 11.6786Z" fill="url(#paint19_linear_1169_11969)"/>
<path d="M11.0427 9.48563C11.4866 9.22628 12.0033 8.97078 12.4654 8.64368C12.9234 8.31853 13.3287 7.92368 13.7888 7.53271C14.2853 7.8695 14.8953 8.24498 15.4526 8.68239C15.5843 8.78498 15.6553 9.19336 15.562 9.28821C14.8466 10.0198 14.0988 10.7224 13.3287 11.4037C12.9822 11.7095 12.6579 11.5837 12.3924 11.2256C11.9365 10.614 11.4602 10.0218 11.0427 9.48563Z" fill="url(#paint20_linear_1169_11969)"/>
<path d="M9.82281 4.78638C10.5544 5.30121 11.2556 5.79669 11.967 6.29992C11.6001 7.11088 11.1908 7.87154 10.3173 8.33025C9.92009 8.53927 9.7073 8.59347 9.41344 8.18701C8.94327 7.53669 8.38799 6.9425 7.88135 6.34057C8.88248 6.26702 9.69515 5.63219 9.82281 4.78638Z" fill="url(#paint21_linear_1169_11969)"/>
</g>
<path d="M84.52 16.296H89.452L98.2 36.456H98.344L107.056 16.296H111.988V42H107.776V24.288H107.632L100.072 42H96.436L88.876 24.288H88.732V42H84.52V16.296ZM124.78 22.884C127.54 22.884 129.568 23.568 130.864 24.936C132.016 26.112 132.592 27.84 132.592 30.12V42H128.776V39.552C128.056 40.488 127.156 41.208 126.076 41.712C124.828 42.24 123.436 42.504 121.9 42.504C119.98 42.504 118.456 42.012 117.328 41.028C116.176 40.02 115.6 38.676 115.6 36.996C115.6 34.668 116.512 32.928 118.336 31.776C119.872 30.792 121.9 30.3 124.42 30.3L128.488 30.264V29.832C128.488 27.408 127.156 26.196 124.492 26.196C123.268 26.196 122.308 26.424 121.612 26.88C120.82 27.384 120.352 28.152 120.208 29.184H116.14C116.428 26.928 117.376 25.284 118.984 24.252C120.352 23.34 122.284 22.884 124.78 22.884ZM128.488 33.396L124.708 33.432C121.444 33.432 119.812 34.584 119.812 36.888C119.812 37.536 120.064 38.1 120.568 38.58C121.096 39.036 121.852 39.264 122.836 39.264C124.54 39.264 125.92 38.808 126.976 37.896C127.984 36.96 128.488 35.712 128.488 34.152V33.396ZM144.913 22.884C147.313 22.884 149.233 23.424 150.673 24.504C152.161 25.68 153.085 27.42 153.445 29.724H149.377C149.137 28.572 148.645 27.696 147.901 27.096C147.157 26.52 146.161 26.232 144.913 26.232C143.377 26.232 142.189 26.796 141.349 27.924C140.485 29.028 140.053 30.6 140.053 32.64C140.053 34.728 140.473 36.336 141.313 37.464C142.105 38.592 143.293 39.156 144.877 39.156C147.589 39.156 149.113 37.8 149.449 35.088H153.517C153.085 37.608 152.125 39.48 150.637 40.704C149.173 41.904 147.241 42.504 144.841 42.504C141.961 42.504 139.729 41.568 138.145 39.696C136.609 37.92 135.841 35.58 135.841 32.676C135.841 29.844 136.597 27.552 138.109 25.8C139.741 23.856 142.009 22.884 144.913 22.884ZM164.301 22.884C167.373 22.884 169.713 23.916 171.321 25.98C172.809 27.876 173.553 30.492 173.553 33.828H159.621C159.765 35.58 160.233 36.9 161.025 37.788C161.817 38.7 162.957 39.156 164.445 39.156C165.693 39.156 166.713 38.868 167.505 38.292C168.105 37.836 168.657 37.08 169.161 36.024H173.265C172.833 37.776 171.969 39.228 170.673 40.38C168.993 41.796 166.929 42.504 164.481 42.504C161.721 42.504 159.525 41.652 157.893 39.948C156.165 38.172 155.301 35.748 155.301 32.676C155.301 29.892 156.117 27.576 157.749 25.728C159.333 23.832 161.517 22.884 164.301 22.884ZM164.409 26.232C163.041 26.232 161.973 26.616 161.205 27.384C160.461 28.128 159.957 29.244 159.693 30.732H169.269C168.909 27.732 167.289 26.232 164.409 26.232ZM185.231 22.884C186.167 22.884 186.947 23.04 187.571 23.352V27.456C186.707 27.192 185.819 27.06 184.907 27.06C183.803 27.06 182.831 27.48 181.991 28.32C181.007 29.28 180.515 30.552 180.515 32.136V42H176.447V23.388H180.515V26.052C181.019 25.092 181.607 24.372 182.279 23.892C183.095 23.22 184.079 22.884 185.231 22.884ZM198.983 15.792C202.031 15.792 204.395 16.416 206.075 17.664C207.875 19.008 208.907 21.084 209.171 23.892H204.995C204.635 22.308 203.975 21.168 203.015 20.472C202.103 19.776 200.687 19.428 198.767 19.428C197.135 19.428 195.899 19.656 195.059 20.112C194.003 20.64 193.475 21.528 193.475 22.776C193.475 23.904 194.075 24.78 195.275 25.404C195.851 25.716 197.315 26.244 199.667 26.988C203.051 28.02 205.295 28.86 206.399 29.508C208.631 30.828 209.747 32.676 209.747 35.052C209.747 37.356 208.847 39.18 207.047 40.524C205.223 41.844 202.679 42.504 199.415 42.504C196.247 42.504 193.775 41.892 191.999 40.668C189.815 39.156 188.639 36.768 188.471 33.504H192.647C192.935 35.472 193.631 36.864 194.735 37.68C195.767 38.424 197.327 38.796 199.415 38.796C201.287 38.796 202.775 38.484 203.879 37.86C204.983 37.188 205.535 36.336 205.535 35.304C205.535 33.936 204.731 32.856 203.123 32.064C202.547 31.776 200.879 31.212 198.119 30.372C194.927 29.364 192.959 28.644 192.215 28.212C190.247 27.036 189.263 25.308 189.263 23.028C189.263 20.724 190.223 18.936 192.143 17.664C193.919 16.416 196.199 15.792 198.983 15.792ZM220.993 22.884C223.393 22.884 225.313 23.424 226.753 24.504C228.241 25.68 229.165 27.42 229.525 29.724H225.457C225.217 28.572 224.725 27.696 223.981 27.096C223.237 26.52 222.241 26.232 220.993 26.232C219.457 26.232 218.269 26.796 217.429 27.924C216.565 29.028 216.133 30.6 216.133 32.64C216.133 34.728 216.553 36.336 217.393 37.464C218.185 38.592 219.373 39.156 220.957 39.156C223.669 39.156 225.193 37.8 225.529 35.088H229.597C229.165 37.608 228.205 39.48 226.717 40.704C225.253 41.904 223.321 42.504 220.921 42.504C218.041 42.504 215.809 41.568 214.225 39.696C212.689 37.92 211.921 35.58 211.921 32.676C211.921 29.844 212.677 27.552 214.189 25.8C215.821 23.856 218.089 22.884 220.993 22.884ZM240.92 22.884C243.68 22.884 245.708 23.568 247.004 24.936C248.156 26.112 248.732 27.84 248.732 30.12V42H244.916V39.552C244.196 40.488 243.296 41.208 242.216 41.712C240.968 42.24 239.576 42.504 238.04 42.504C236.12 42.504 234.596 42.012 233.468 41.028C232.316 40.02 231.74 38.676 231.74 36.996C231.74 34.668 232.652 32.928 234.476 31.776C236.012 30.792 238.04 30.3 240.56 30.3L244.628 30.264V29.832C244.628 27.408 243.296 26.196 240.632 26.196C239.408 26.196 238.448 26.424 237.752 26.88C236.96 27.384 236.492 28.152 236.348 29.184H232.28C232.568 26.928 233.516 25.284 235.124 24.252C236.492 23.34 238.424 22.884 240.92 22.884ZM244.628 33.396L240.848 33.432C237.584 33.432 235.952 34.584 235.952 36.888C235.952 37.536 236.204 38.1 236.708 38.58C237.236 39.036 237.992 39.264 238.976 39.264C240.68 39.264 242.06 38.808 243.116 37.896C244.124 36.96 244.628 35.712 244.628 34.152V33.396ZM262.314 22.884C266.97 22.884 269.298 25.428 269.298 30.516V42H265.194V30.876C265.194 27.828 263.79 26.304 260.982 26.304C259.974 26.304 259.086 26.664 258.318 27.384C257.454 28.176 256.95 29.316 256.806 30.804V42H252.702V23.388H256.806V25.548C257.55 24.66 258.366 24 259.254 23.568C260.166 23.112 261.186 22.884 262.314 22.884Z" fill="url(#paint22_linear_1169_11969)"/>
<path d="M83.26 57.148H88.588C91.696 57.148 93.25 58.462 93.25 61.09C93.25 63.742 91.684 65.068 88.552 65.068H85.366V70H83.26V57.148ZM85.366 58.948V63.268H88.426C89.35 63.268 90.034 63.1 90.478 62.764C90.91 62.416 91.126 61.858 91.126 61.09C91.126 60.334 90.904 59.788 90.46 59.452C90.04 59.116 89.362 58.948 88.426 58.948H85.366ZM99.6269 60.442C100.095 60.442 100.485 60.52 100.797 60.676V62.728C100.365 62.596 99.9209 62.53 99.4649 62.53C98.9129 62.53 98.4269 62.74 98.0069 63.16C97.5149 63.64 97.2689 64.276 97.2689 65.068V70H95.2349V60.694H97.2689V62.026C97.5209 61.546 97.8149 61.186 98.1509 60.946C98.5589 60.61 99.0509 60.442 99.6269 60.442ZM106.647 60.442C108.063 60.442 109.197 60.904 110.049 61.828C110.901 62.752 111.327 63.928 111.327 65.356C111.327 66.772 110.907 67.936 110.067 68.848C109.203 69.784 108.063 70.252 106.647 70.252C105.231 70.252 104.091 69.784 103.227 68.848C102.387 67.96 101.967 66.796 101.967 65.356C101.967 63.904 102.393 62.728 103.245 61.828C104.085 60.904 105.219 60.442 106.647 60.442ZM106.647 62.116C105.783 62.116 105.123 62.452 104.667 63.124C104.271 63.7 104.073 64.444 104.073 65.356C104.073 66.256 104.271 66.994 104.667 67.57C105.135 68.242 105.795 68.578 106.647 68.578C107.499 68.578 108.159 68.242 108.627 67.57C109.035 66.958 109.239 66.22 109.239 65.356C109.239 64.456 109.035 63.712 108.627 63.124C108.171 62.452 107.511 62.116 106.647 62.116ZM120.104 56.896H122.156V70H120.248V69.01C119.6 69.838 118.664 70.252 117.44 70.252C116.06 70.252 114.98 69.766 114.2 68.794C113.48 67.894 113.12 66.73 113.12 65.302C113.12 63.922 113.474 62.788 114.182 61.9C114.938 60.928 115.988 60.442 117.332 60.442C118.412 60.442 119.336 60.952 120.104 61.972V56.896ZM117.818 62.098C116.894 62.098 116.216 62.404 115.784 63.016C115.412 63.532 115.226 64.294 115.226 65.302C115.226 66.322 115.4 67.096 115.748 67.624C116.168 68.272 116.834 68.596 117.746 68.596C118.55 68.596 119.168 68.278 119.6 67.642C119.984 67.054 120.176 66.31 120.176 65.41V65.266C120.176 64.282 119.936 63.496 119.456 62.908C119.024 62.368 118.478 62.098 117.818 62.098ZM124.668 60.694H126.72V66.364C126.72 67.12 126.876 67.672 127.188 68.02C127.512 68.368 128.028 68.542 128.736 68.542C129.18 68.542 129.612 68.35 130.032 67.966C130.452 67.558 130.752 67.03 130.932 66.382V60.694H132.984V70H130.932V68.794C130.14 69.766 129.168 70.252 128.016 70.252C125.784 70.252 124.668 68.998 124.668 66.49V60.694ZM139.681 60.442C140.881 60.442 141.841 60.712 142.561 61.252C143.305 61.84 143.767 62.71 143.947 63.862H141.913C141.793 63.286 141.547 62.848 141.175 62.548C140.803 62.26 140.305 62.116 139.681 62.116C138.913 62.116 138.319 62.398 137.899 62.962C137.467 63.514 137.251 64.3 137.251 65.32C137.251 66.364 137.461 67.168 137.881 67.732C138.277 68.296 138.871 68.578 139.663 68.578C141.019 68.578 141.781 67.9 141.949 66.544H143.983C143.767 67.804 143.287 68.74 142.543 69.352C141.811 69.952 140.845 70.252 139.645 70.252C138.205 70.252 137.089 69.784 136.297 68.848C135.529 67.96 135.145 66.79 135.145 65.338C135.145 63.922 135.523 62.776 136.279 61.9C137.095 60.928 138.229 60.442 139.681 60.442ZM148.871 57.688V60.694H150.941V62.386H148.871V67.642C148.871 67.87 148.919 68.038 149.015 68.146C149.123 68.254 149.279 68.308 149.483 68.308H150.707V70H149.141C148.337 70 147.743 69.784 147.359 69.352C146.999 68.956 146.819 68.386 146.819 67.642V62.386H145.145V60.694H146.819V58.534L148.871 57.688ZM163.51 60.442C164.926 60.442 166.06 60.904 166.912 61.828C167.764 62.752 168.19 63.928 168.19 65.356C168.19 66.772 167.77 67.936 166.93 68.848C166.066 69.784 164.926 70.252 163.51 70.252C162.094 70.252 160.954 69.784 160.09 68.848C159.25 67.96 158.83 66.796 158.83 65.356C158.83 63.904 159.256 62.728 160.108 61.828C160.948 60.904 162.082 60.442 163.51 60.442ZM163.51 62.116C162.646 62.116 161.986 62.452 161.53 63.124C161.134 63.7 160.936 64.444 160.936 65.356C160.936 66.256 161.134 66.994 161.53 67.57C161.998 68.242 162.658 68.578 163.51 68.578C164.362 68.578 165.022 68.242 165.49 67.57C165.898 66.958 166.102 66.22 166.102 65.356C166.102 64.456 165.898 63.712 165.49 63.124C165.034 62.452 164.374 62.116 163.51 62.116ZM175.977 57.148V58.876H174.285C174.021 58.876 173.817 58.948 173.673 59.092C173.541 59.224 173.475 59.446 173.475 59.758V60.694H175.851V62.368H173.475V70H171.423V62.368H169.353V60.694H171.423V59.704C171.423 58.9 171.645 58.276 172.089 57.832C172.509 57.376 173.145 57.148 173.997 57.148H175.977ZM184.04 57.148H193.31V58.948H186.146V62.512H192.878V64.312H186.146V68.2H193.616V70H184.04V57.148ZM198.685 57.688V60.694H200.755V62.386H198.685V67.642C198.685 67.87 198.733 68.038 198.829 68.146C198.937 68.254 199.093 68.308 199.297 68.308H200.521V70H198.955C198.151 70 197.557 69.784 197.173 69.352C196.813 68.956 196.633 68.386 196.633 67.642V62.386H194.959V60.694H196.633V58.534L198.685 57.688ZM202.651 56.896H204.703V61.936C205.039 61.432 205.465 61.048 205.981 60.784C206.425 60.556 206.947 60.442 207.547 60.442C208.687 60.442 209.533 60.772 210.085 61.432C210.613 62.068 210.877 63.004 210.877 64.24V70H208.825V64.6C208.825 63.808 208.669 63.202 208.357 62.782C207.997 62.338 207.469 62.116 206.773 62.116C206.125 62.116 205.621 62.368 205.261 62.872C204.889 63.364 204.703 64.006 204.703 64.798V70H202.651V56.896ZM217.359 60.442C218.895 60.442 220.065 60.958 220.869 61.99C221.613 62.938 221.985 64.246 221.985 65.914H215.019C215.091 66.79 215.325 67.45 215.721 67.894C216.117 68.35 216.687 68.578 217.431 68.578C218.055 68.578 218.565 68.434 218.961 68.146C219.261 67.918 219.537 67.54 219.789 67.012H221.841C221.625 67.888 221.193 68.614 220.545 69.19C219.705 69.898 218.673 70.252 217.449 70.252C216.069 70.252 214.971 69.826 214.155 68.974C213.291 68.086 212.859 66.874 212.859 65.338C212.859 63.946 213.267 62.788 214.083 61.864C214.875 60.916 215.967 60.442 217.359 60.442ZM217.413 62.116C216.729 62.116 216.195 62.308 215.811 62.692C215.439 63.064 215.187 63.622 215.055 64.366H219.843C219.663 62.866 218.853 62.116 217.413 62.116ZM228.364 60.442C228.832 60.442 229.222 60.52 229.534 60.676V62.728C229.102 62.596 228.658 62.53 228.202 62.53C227.65 62.53 227.164 62.74 226.744 63.16C226.252 63.64 226.006 64.276 226.006 65.068V70H223.972V60.694H226.006V62.026C226.258 61.546 226.552 61.186 226.888 60.946C227.296 60.61 227.788 60.442 228.364 60.442ZM234.575 60.442C237.035 60.442 238.373 61.426 238.589 63.394H236.591C236.447 62.914 236.231 62.584 235.943 62.404C235.643 62.212 235.175 62.116 234.539 62.116C233.987 62.116 233.579 62.194 233.315 62.35C233.003 62.506 232.847 62.764 232.847 63.124C232.847 63.424 233.093 63.682 233.585 63.898C233.897 64.03 234.515 64.21 235.439 64.438C236.519 64.702 237.299 64.996 237.779 65.32C238.523 65.788 238.895 66.442 238.895 67.282C238.895 69.262 237.497 70.252 234.701 70.252C232.121 70.252 230.729 69.16 230.525 66.976H232.523C232.631 67.552 232.841 67.972 233.153 68.236C233.477 68.464 233.969 68.578 234.629 68.578C236.069 68.578 236.789 68.194 236.789 67.426C236.789 66.994 236.519 66.652 235.979 66.4C235.739 66.28 235.127 66.106 234.143 65.878C233.051 65.626 232.277 65.356 231.821 65.068C231.101 64.612 230.741 63.982 230.741 63.178C230.741 62.302 231.095 61.636 231.803 61.18C232.487 60.688 233.411 60.442 234.575 60.442ZM245.058 60.442C246.258 60.442 247.218 60.712 247.938 61.252C248.682 61.84 249.144 62.71 249.324 63.862H247.29C247.17 63.286 246.924 62.848 246.552 62.548C246.18 62.26 245.682 62.116 245.058 62.116C244.29 62.116 243.696 62.398 243.276 62.962C242.844 63.514 242.628 64.3 242.628 65.32C242.628 66.364 242.838 67.168 243.258 67.732C243.654 68.296 244.248 68.578 245.04 68.578C246.396 68.578 247.158 67.9 247.326 66.544H249.36C249.144 67.804 248.664 68.74 247.92 69.352C247.188 69.952 246.222 70.252 245.022 70.252C243.582 70.252 242.466 69.784 241.674 68.848C240.906 67.96 240.522 66.79 240.522 65.338C240.522 63.922 240.9 62.776 241.656 61.9C242.472 60.928 243.606 60.442 245.058 60.442ZM255.561 60.442C256.941 60.442 257.955 60.784 258.603 61.468C259.179 62.056 259.467 62.92 259.467 64.06V70H257.559V68.776C257.199 69.244 256.749 69.604 256.209 69.856C255.585 70.12 254.889 70.252 254.121 70.252C253.161 70.252 252.399 70.006 251.835 69.514C251.259 69.01 250.971 68.338 250.971 67.498C250.971 66.334 251.427 65.464 252.339 64.888C253.107 64.396 254.121 64.15 255.381 64.15L257.415 64.132V63.916C257.415 62.704 256.749 62.098 255.417 62.098C254.805 62.098 254.325 62.212 253.977 62.44C253.581 62.692 253.347 63.076 253.275 63.592H251.241C251.385 62.464 251.859 61.642 252.663 61.126C253.347 60.67 254.313 60.442 255.561 60.442ZM257.415 65.698L255.525 65.716C253.893 65.716 253.077 66.292 253.077 67.444C253.077 67.768 253.203 68.05 253.455 68.29C253.719 68.518 254.097 68.632 254.589 68.632C255.441 68.632 256.131 68.404 256.659 67.948C257.163 67.48 257.415 66.856 257.415 66.076V65.698ZM266.798 60.442C269.126 60.442 270.29 61.714 270.29 64.258V70H268.238V64.438C268.238 62.914 267.536 62.152 266.132 62.152C265.628 62.152 265.184 62.332 264.8 62.692C264.368 63.088 264.116 63.658 264.044 64.402V70H261.992V60.694H264.044V61.774C264.416 61.33 264.824 61 265.268 60.784C265.724 60.556 266.234 60.442 266.798 60.442Z" fill="#5C33A2"/>
</g>
<defs>
<linearGradient id="paint0_linear_1169_11969" x1="9.13374" y1="16.6996" x2="25.5628" y2="16.6996" gradientUnits="userSpaceOnUse">
<stop stop-color="#FFC100"/>
<stop offset="1" stop-color="#FF9701"/>
</linearGradient>
<linearGradient id="paint1_linear_1169_11969" x1="14.0446" y1="12.4967" x2="19.8906" y2="12.4967" gradientUnits="userSpaceOnUse">
<stop stop-color="#FFC100"/>
<stop offset="1" stop-color="#FF9701"/>
</linearGradient>
<linearGradient id="paint2_linear_1169_11969" x1="11.042" y1="9.55412" x2="15.6015" y2="9.55412" gradientUnits="userSpaceOnUse">
<stop stop-color="#FFC100"/>
<stop offset="1" stop-color="#FF9701"/>
</linearGradient>
<linearGradient id="paint3_linear_1169_11969" x1="7.88112" y1="6.63756" x2="11.9676" y2="6.63756" gradientUnits="userSpaceOnUse">
<stop stop-color="#FFC100"/>
<stop offset="1" stop-color="#FF9701"/>
</linearGradient>
<linearGradient id="paint4_linear_1169_11969" x1="5.29801" y1="4.19157" x2="8.73313" y2="4.19157" gradientUnits="userSpaceOnUse">
<stop stop-color="#FFC100"/>
<stop offset="1" stop-color="#FF9701"/>
</linearGradient>
<linearGradient id="paint5_linear_1169_11969" x1="1.74072" y1="1.57957" x2="5.47703" y2="1.57957" gradientUnits="userSpaceOnUse">
<stop stop-color="#FFC100"/>
<stop offset="1" stop-color="#FF9701"/>
</linearGradient>
<linearGradient id="paint6_linear_1169_11969" x1="37.0508" y1="16.5192" x2="71.3705" y2="16.5192" gradientUnits="userSpaceOnUse">
<stop stop-color="#FFC100"/>
<stop offset="1" stop-color="#FF9701"/>
</linearGradient>
<linearGradient id="paint7_linear_1169_11969" x1="32.8742" y1="7.0607" x2="56.1127" y2="7.0607" gradientUnits="userSpaceOnUse">
<stop stop-color="#FFC100"/>
<stop offset="1" stop-color="#FF9701"/>
</linearGradient>
<linearGradient id="paint8_linear_1169_11969" x1="9.13368" y1="16.6996" x2="25.5628" y2="16.6996" gradientUnits="userSpaceOnUse">
<stop stop-color="#FFC100"/>
<stop offset="1" stop-color="#FF9701"/>
</linearGradient>
<linearGradient id="paint9_linear_1169_11969" x1="12.6611" y1="52.502" x2="58.0281" y2="52.502" gradientUnits="userSpaceOnUse">
<stop stop-color="#FFC100"/>
<stop offset="1" stop-color="#FF9701"/>
</linearGradient>
<linearGradient id="paint10_linear_1169_11969" x1="15.1062" y1="53.806" x2="62.4092" y2="53.806" gradientUnits="userSpaceOnUse">
<stop stop-color="#FF6D00"/>
<stop offset="1" stop-color="#FF8601"/>
</linearGradient>
<linearGradient id="paint11_linear_1169_11969" x1="20.4035" y1="35.8215" x2="44.2766" y2="35.8215" gradientUnits="userSpaceOnUse">
<stop stop-color="#FF6D00"/>
<stop offset="1" stop-color="#FF8601"/>
</linearGradient>
<linearGradient id="paint12_linear_1169_11969" x1="39.2302" y1="18.2544" x2="67.7731" y2="18.2544" gradientUnits="userSpaceOnUse">
<stop stop-color="#FF6D00"/>
<stop offset="1" stop-color="#FF8601"/>
</linearGradient>
<linearGradient id="paint13_linear_1169_11969" x1="15.6865" y1="40.162" x2="37.4077" y2="25.889" gradientUnits="userSpaceOnUse">
<stop stop-color="#FF6D00"/>
<stop offset="0.955" stop-color="#FF9A01"/>
</linearGradient>
<linearGradient id="paint14_linear_1169_11969" x1="25.4971" y1="10.8335" x2="28.5735" y2="10.8335" gradientUnits="userSpaceOnUse">
<stop stop-color="#FF6D00"/>
<stop offset="1" stop-color="#FF8601"/>
</linearGradient>
<linearGradient id="paint15_linear_1169_11969" x1="8.41347" y1="23.7344" x2="48.624" y2="23.7344" gradientUnits="userSpaceOnUse">
<stop stop-color="#FFC100"/>
<stop offset="1" stop-color="#FF9701"/>
</linearGradient>
<linearGradient id="paint16_linear_1169_11969" x1="9.84333" y1="70.4147" x2="40.4052" y2="39.6762" gradientUnits="userSpaceOnUse">
<stop stop-color="#36ED23"/>
<stop offset="0.923" stop-color="#36ED23" stop-opacity="0.077"/>
<stop offset="1" stop-color="#36ED23" stop-opacity="0"/>
</linearGradient>
<linearGradient id="paint17_linear_1169_11969" x1="1.74072" y1="1.57957" x2="5.47703" y2="1.57957" gradientUnits="userSpaceOnUse">
<stop stop-color="#FFC100"/>
<stop offset="1" stop-color="#FF9701"/>
</linearGradient>
<linearGradient id="paint18_linear_1169_11969" x1="5.29809" y1="4.19157" x2="8.7332" y2="4.19157" gradientUnits="userSpaceOnUse">
<stop stop-color="#FFC100"/>
<stop offset="1" stop-color="#FF9701"/>
</linearGradient>
<linearGradient id="paint19_linear_1169_11969" x1="14.0446" y1="12.4965" x2="19.8906" y2="12.4965" gradientUnits="userSpaceOnUse">
<stop stop-color="#FFC100"/>
<stop offset="1" stop-color="#FF9701"/>
</linearGradient>
<linearGradient id="paint20_linear_1169_11969" x1="11.042" y1="9.55412" x2="15.6015" y2="9.55412" gradientUnits="userSpaceOnUse">
<stop stop-color="#FFC100"/>
<stop offset="1" stop-color="#FF9701"/>
</linearGradient>
<linearGradient id="paint21_linear_1169_11969" x1="7.88112" y1="6.63756" x2="11.9676" y2="6.63756" gradientUnits="userSpaceOnUse">
<stop stop-color="#FFC100"/>
<stop offset="1" stop-color="#FF9701"/>
</linearGradient>
<linearGradient id="paint22_linear_1169_11969" x1="82" y1="26" x2="314" y2="26" gradientUnits="userSpaceOnUse">
<stop stop-color="#FFB500"/>
<stop offset="1" stop-color="#FF7E00"/>
</linearGradient>
<clipPath id="clip0_1169_11969">
<rect width="273" height="84" fill="white"/>
</clipPath>
</defs>
</svg>
