<svg xmlns="http://www.w3.org/2000/svg" width="199" height="45" viewBox="0 0 199 45">
  <defs>
    <style>
      .a {
        fill: #fff;
      }
    </style>
  </defs>
  <title>Artboard 1</title>
  <g>
    <path class="a" d="M12.5,10.17a7.27,7.27,0,0,1,3.12.65,10.15,10.15,0,0,0,1.62.54,4.39,4.39,0,0,0-8.14-.6A9.8,9.8,0,0,1,12.5,10.17Z"/>
    <path class="a" d="M28.37,10.82a7.26,7.26,0,0,1,3.13-.65,9.8,9.8,0,0,1,3.33.57,4.39,4.39,0,0,0-8.13.64A10.09,10.09,0,0,0,28.37,10.82Z"/>
    <path class="a" d="M22,23a1.31,1.31,0,1,1-1.31,1.31A1.31,1.31,0,0,1,22,23Z"/>
    <circle class="a" cx="33.75" cy="27.69" r="0.92"/>
    <path class="a" d="M33.75,22.11a5.58,5.58,0,1,0,5.58,5.58A5.59,5.59,0,0,0,33.75,22.11Zm0,9.75a4.17,4.17,0,0,1-4-5.26,1.33,1.33,0,1,0,1.49-2.21,4.17,4.17,0,1,1,2.53,7.47Z"/>
    <path class="a" d="M41.8,23.61h0l-3.61-7.54a7.54,7.54,0,0,0-6.72-4c-2.51,0-2.16,1.1-7,1.56A2.59,2.59,0,0,1,22,16.29h0a2.59,2.59,0,0,1-2.5-2.61c-4.84-.46-4.48-1.56-7-1.56a7.54,7.54,0,0,0-6.72,3.94l-3.5,7.3a9,9,0,1,0,16.9,5.22A24,24,0,0,1,22,28.39a24.1,24.1,0,0,1,2.76.18,9,9,0,1,0,17-5ZM10.2,34.66a7,7,0,1,1,7-7A7,7,0,0,1,10.2,34.66ZM22,26.83a2.55,2.55,0,1,1,2.55-2.55A2.55,2.55,0,0,1,22,26.83Zm11.75,7.83a7,7,0,1,1,7-7A7,7,0,0,1,33.75,34.66Z"/>
    <circle class="a" cx="10.2" cy="27.69" r="0.92"/>
    <path class="a" d="M10.2,22.11a5.58,5.58,0,1,0,5.58,5.58A5.59,5.59,0,0,0,10.2,22.11Zm0,9.75a4.17,4.17,0,0,1-4-5.25,1.33,1.33,0,1,0,1.47-2.2,4.17,4.17,0,1,1,2.55,7.46Z"/>
  </g>
  <g>
    <path class="a" d="M70.07,26.24a6,6,0,0,1-6.22,6.19h-10a.64.64,0,0,1-.7-.7V13.43a.64.64,0,0,1,.7-.7h7.6c3.46,0,6.05,2.31,6.05,5.49a4.48,4.48,0,0,1-.73,2.41A6.26,6.26,0,0,1,70.07,26.24ZM57.68,17v2.82h4.79A1.76,1.76,0,0,0,63,18.5,1.46,1.46,0,0,0,61.48,17Zm7.88,9a2,2,0,0,0-2.25-2.25H57.68v4.5h5.6A2.05,2.05,0,0,0,65.56,26Z"/>
    <path class="a" d="M72.32,31.73V12.87a.64.64,0,0,1,.7-.7h2.82a.64.64,0,0,1,.7.7V31.73a.64.64,0,0,1-.7.7H73A.64.64,0,0,1,72.32,31.73Z"/>
    <path class="a" d="M78.94,25.4a7.46,7.46,0,1,1,7.46,7.43A7.38,7.38,0,0,1,78.94,25.4Zm10.7,0a3.24,3.24,0,1,0-6.48,0,3.24,3.24,0,1,0,6.48,0Z"/>
    <path class="a" d="M109.94,27.88a7.09,7.09,0,0,1-6.93,5,7.29,7.29,0,0,1-7.46-7.43A7.29,7.29,0,0,1,103,18a7.09,7.09,0,0,1,6.93,5c.17.48-.11.79-.59.79h-3.1a1,1,0,0,1-.84-.48,2.87,2.87,0,0,0-2.39-1.1,3.27,3.27,0,0,0,0,6.53,2.93,2.93,0,0,0,2.39-1.07.93.93,0,0,1,.84-.51h3.1C109.83,27.09,110.11,27.4,109.94,27.88Z"/>
    <path class="a" d="M124.3,32.44h-3.21a.93.93,0,0,1-.84-.45l-3.91-5.72v5.47a.64.64,0,0,1-.7.7h-2.82a.64.64,0,0,1-.7-.7V13.43a.64.64,0,0,1,.7-.7h2.82a.64.64,0,0,1,.7.7v11L120,18.81a.93.93,0,0,1,.84-.45H124c.56,0,.76.37.45.84l-4.14,6.19,4.36,6.19C125.06,32.07,124.87,32.44,124.3,32.44Z"/>
    <path class="a" d="M125.94,27a.63.63,0,0,1,.7-.73h3.1c.42,0,.65.22.73.68.22,1,1.07,1.52,2.73,1.52,1.83,0,2.42-.7,2.42-1.52,0-1.15-1.41-1.66-3.13-2.25-2.79-1-6.31-2.11-6.31-6.42,0-3.94,3.21-5.91,6.56-5.91s6.45,1.77,6.78,5.86a.63.63,0,0,1-.7.73h-3.1c-.42,0-.65-.23-.73-.68-.23-1-1-1.52-2.25-1.52s-2.06.7-2.06,1.52c0,1.18,1.15,1.75,2.79,2.34,2.82,1,6.64,2,6.64,6.34,0,3.94-3.15,5.91-6.93,5.91S126.28,31.06,125.94,27Z"/>
    <path class="a" d="M155.92,27.88a7.09,7.09,0,0,1-6.93,5,7.29,7.29,0,0,1-7.46-7.43A7.29,7.29,0,0,1,149,18a7.09,7.09,0,0,1,6.93,5c.17.48-.11.79-.59.79h-3.1a1,1,0,0,1-.84-.48,2.87,2.87,0,0,0-2.39-1.1,3.27,3.27,0,0,0,0,6.53,2.93,2.93,0,0,0,2.39-1.07.93.93,0,0,1,.84-.51h3.1C155.81,27.09,156.09,27.4,155.92,27.88Z"/>
    <path class="a" d="M157.39,25.4a7.46,7.46,0,1,1,7.46,7.43A7.38,7.38,0,0,1,157.39,25.4Zm10.7,0a3.24,3.24,0,1,0-6.48,0,3.24,3.24,0,1,0,6.48,0Z"/>
    <path class="a" d="M186.73,19.07V31.73a.64.64,0,0,1-.7.7h-2.81a.64.64,0,0,1-.7-.7v-.58a4.17,4.17,0,0,1-3.66,1.68c-2.62,0-4.5-2-4.5-5.55V19.07a.64.64,0,0,1,.7-.7h2.82a.64.64,0,0,1,.7.7v7.86a1.79,1.79,0,0,0,1.89,2c1.27,0,2.06-.7,2.06-2.36V19.07a.64.64,0,0,1,.7-.7H186A.64.64,0,0,1,186.73,19.07Z"/>
    <path class="a" d="M197.43,19.07v2.65a.64.64,0,0,1-.7.7h-1.55v9.32a.64.64,0,0,1-.7.7h-2.81a.64.64,0,0,1-.7-.7V22.42h-1.55a.64.64,0,0,1-.7-.7V19.07a.64.64,0,0,1,.7-.7H191v-3.8a.64.64,0,0,1,.7-.7h2.81a.64.64,0,0,1,.7.7v3.8h1.55A.64.64,0,0,1,197.43,19.07Z"/>
  </g>
</svg>
