<?xml version="1.0" encoding="UTF-8" standalone="no"?><!-- Generator: Gravit.io --><svg xmlns="http://www.w3.org/2000/svg" xmlns:xlink="http://www.w3.org/1999/xlink" style="isolation:isolate" viewBox="0 0 718 111" width="718pt" height="111pt"><defs><clipPath id="_clipPath_5e2X2FS78Cf7lwSKujUtIK7NwUtFMhk7"><rect width="718" height="111"/></clipPath></defs><g clip-path="url(#_clipPath_5e2X2FS78Cf7lwSKujUtIK7NwUtFMhk7)"><g><path d=" M 132.23 34.9 L 143.34 34.9 L 143.34 39.3 C 144.601 37.675 146.252 36.396 148.14 35.58 C 150.284 34.662 152.598 34.209 154.93 34.25 C 158.363 34.171 161.75 35.062 164.7 36.82 C 167.509 38.568 169.748 41.098 171.14 44.1 C 172.73 47.544 173.51 51.307 173.42 55.1 C 173.501 58.88 172.664 62.624 170.98 66.01 C 169.435 69.033 167.063 71.554 164.14 73.28 C 161.056 75.053 157.547 75.951 153.99 75.88 C 151.861 75.906 149.746 75.526 147.76 74.76 C 146.047 74.12 144.531 73.045 143.36 71.64 L 143.36 91.54 L 132.23 91.54 L 132.23 34.9 Z  M 145.42 63.16 C 146.317 64.175 147.428 64.977 148.673 65.51 C 149.919 66.043 151.267 66.292 152.62 66.24 C 153.96 66.288 155.293 66.037 156.523 65.504 C 157.754 64.971 158.849 64.17 159.73 63.16 C 161.617 60.891 162.588 57.998 162.45 55.05 C 162.584 52.07 161.604 49.146 159.7 46.85 C 158.818 45.841 157.722 45.042 156.492 44.511 C 155.262 43.98 153.929 43.73 152.59 43.78 C 151.237 43.726 149.89 43.973 148.644 44.504 C 147.399 45.035 146.287 45.836 145.39 46.85 C 143.507 49.155 142.549 52.078 142.7 55.05 C 142.562 57.998 143.533 60.891 145.42 63.16 Z " fill="rgb(255,255,255)"/><path d=" M 187.7 73.15 C 184.521 71.437 181.89 68.862 180.11 65.72 C 178.325 62.445 177.39 58.774 177.39 55.045 C 177.39 51.315 178.325 47.645 180.11 44.37 C 181.895 41.232 184.525 38.658 187.7 36.94 C 191.081 35.179 194.838 34.26 198.65 34.26 C 202.462 34.26 206.219 35.179 209.6 36.94 C 212.776 38.661 215.408 41.234 217.2 44.37 C 218.978 47.647 219.91 51.316 219.91 55.045 C 219.91 58.773 218.978 62.443 217.2 65.72 C 215.414 68.86 212.78 71.435 209.6 73.15 C 206.219 74.91 202.462 75.83 198.65 75.83 C 194.838 75.83 191.081 74.91 187.7 73.15 Z  M 191.38 63.15 C 192.315 64.141 193.442 64.931 194.693 65.47 C 195.944 66.01 197.292 66.289 198.655 66.289 C 200.017 66.289 201.366 66.01 202.617 65.47 C 203.868 64.931 204.995 64.141 205.93 63.15 C 207.848 60.899 208.838 58.003 208.7 55.05 C 208.835 52.075 207.838 49.159 205.91 46.89 C 204.971 45.906 203.842 45.123 202.591 44.589 C 201.341 44.054 199.995 43.778 198.635 43.778 C 197.275 43.778 195.929 44.054 194.679 44.589 C 193.428 45.123 192.299 45.906 191.36 46.89 C 189.425 49.156 188.424 52.073 188.56 55.05 C 188.439 58 189.448 60.886 191.38 63.12 L 191.38 63.15 Z " fill="rgb(255,255,255)"/><path d=" M 226.63 17.399 L 237.7 17.399 L 237.7 75.189 L 226.63 75.189 L 226.63 17.399 Z " fill="rgb(255,255,255)"/><path d=" M 257.56 74.87 L 242.93 34.87 L 254.28 34.87 L 262.75 60.87 L 271.15 34.87 L 282.57 34.87 L 267.95 75 L 262.27 91.46 L 251.64 91.46 L 257.56 74.87 Z " fill="rgb(255,255,255)"/><path d=" M 288.93 70.19 C 285.537 66.443 283.843 61.396 283.85 55.049 C 283.76 51.257 284.54 47.494 286.13 44.049 C 287.555 41.042 289.842 38.525 292.7 36.819 C 295.735 35.063 299.194 34.174 302.7 34.249 C 304.931 34.222 307.145 34.644 309.21 35.489 C 311.011 36.208 312.595 37.379 313.81 38.889 L 313.81 34.889 L 325 34.889 L 325 77.58 C 325.078 79.465 324.747 81.345 324.029 83.091 C 323.311 84.836 322.223 86.405 320.84 87.69 C 318.067 90.223 314.4 91.486 309.84 91.479 L 289.54 91.479 L 289.54 82.77 L 308.08 82.77 C 308.869 82.793 309.654 82.645 310.379 82.334 C 311.104 82.023 311.753 81.557 312.28 80.97 C 313.395 79.706 313.982 78.063 313.92 76.38 L 313.92 71.1 C 312.798 72.672 311.241 73.881 309.44 74.58 C 307.361 75.423 305.134 75.845 302.89 75.82 C 296.963 75.826 292.31 73.95 288.93 70.19 Z  M 297.48 63.19 C 298.378 64.187 299.486 64.974 300.724 65.492 C 301.962 66.011 303.299 66.249 304.64 66.19 C 305.985 66.246 307.326 66.007 308.568 65.488 C 309.811 64.97 310.924 64.185 311.83 63.19 C 313.73 60.912 314.702 58.002 314.55 55.039 C 314.693 52.063 313.723 49.14 311.83 46.839 C 310.934 45.827 309.824 45.026 308.581 44.495 C 307.337 43.964 305.991 43.716 304.64 43.769 C 303.293 43.712 301.95 43.958 300.711 44.49 C 299.471 45.021 298.367 45.824 297.48 46.839 C 295.61 49.151 294.656 52.07 294.8 55.039 C 294.635 58.015 295.591 60.945 297.48 63.25 L 297.48 63.19 Z " fill="rgb(255,255,255)"/><path d=" M 342.04 73.15 C 338.861 71.437 336.23 68.862 334.45 65.72 C 332.665 62.445 331.73 58.774 331.73 55.045 C 331.73 51.315 332.665 47.645 334.45 44.37 C 336.235 41.232 338.865 38.658 342.04 36.94 C 345.421 35.179 349.178 34.26 352.99 34.26 C 356.802 34.26 360.559 35.179 363.94 36.94 C 367.115 38.658 369.745 41.232 371.53 44.37 C 373.315 47.645 374.25 51.315 374.25 55.045 C 374.25 58.774 373.315 62.445 371.53 65.72 C 369.75 68.862 367.119 71.437 363.94 73.15 C 360.559 74.91 356.802 75.83 352.99 75.83 C 349.178 75.83 345.421 74.91 342.04 73.15 Z  M 345.72 63.15 C 346.655 64.139 347.782 64.928 349.032 65.467 C 350.282 66.005 351.629 66.283 352.99 66.283 C 354.351 66.283 355.698 66.005 356.948 65.467 C 358.198 64.928 359.325 64.139 360.26 63.15 C 362.185 60.913 363.186 58.028 363.06 55.08 C 363.196 52.103 362.195 49.186 360.26 46.92 C 359.322 45.936 358.193 45.154 356.944 44.619 C 355.694 44.084 354.349 43.809 352.99 43.809 C 351.631 43.809 350.286 44.084 349.036 44.619 C 347.787 45.154 346.658 45.936 345.72 46.92 C 343.785 49.186 342.784 52.103 342.92 55.08 C 342.796 58.015 343.79 60.888 345.7 63.12 L 345.72 63.15 Z " fill="rgb(255,255,255)"/><path d=" M 380.32 34.899 L 391.52 34.899 L 391.52 40.499 C 392.649 38.516 394.345 36.914 396.39 35.899 C 398.661 34.775 401.167 34.209 403.7 34.249 C 406.459 34.192 409.182 34.883 411.58 36.249 C 413.833 37.577 415.661 39.52 416.85 41.849 C 418.137 44.399 418.782 47.224 418.73 50.079 L 418.73 75.179 L 407.58 75.179 L 407.58 52.569 C 407.654 50.367 406.881 48.22 405.42 46.569 C 404.714 45.796 403.849 45.186 402.883 44.78 C 401.918 44.374 400.876 44.183 399.83 44.219 C 398.708 44.183 397.592 44.388 396.557 44.821 C 395.521 45.254 394.592 45.905 393.83 46.729 C 392.258 48.498 391.43 50.805 391.52 53.169 L 391.52 75.229 L 380.32 75.229 L 380.32 34.899 Z " fill="rgb(255,255,255)"/><path d=" M 488.86 19.25 L 488.86 75.25 L 481.99 75.25 L 481.99 49.37 L 452.42 49.37 L 452.42 75.19 L 445.54 75.19 L 445.54 19.25 L 452.42 19.25 L 452.42 43.25 L 481.99 43.25 L 481.99 19.25 L 488.86 19.25 Z " fill="rgb(255,255,255)"/><path d=" M 500.01 44.25 C 501.496 41.214 503.817 38.665 506.7 36.9 C 509.765 35.083 513.278 34.165 516.84 34.25 C 520.33 34.165 523.781 35.007 526.84 36.69 C 529.614 38.271 531.874 40.618 533.35 43.45 C 534.897 46.436 535.68 49.758 535.63 53.12 C 535.643 54.053 535.59 54.985 535.47 55.91 L 503.97 55.91 C 504.089 59.711 505.565 63.343 508.13 66.15 C 509.326 67.451 510.786 68.48 512.412 69.17 C 514.039 69.86 515.794 70.194 517.56 70.15 C 520.349 70.284 523.116 69.588 525.51 68.15 C 527.552 66.784 528.986 64.68 529.51 62.28 L 535.98 62.28 C 535.694 64.249 535.016 66.141 533.986 67.844 C 532.955 69.546 531.593 71.024 529.98 72.19 C 526.346 74.734 521.983 76.026 517.55 75.87 C 513.899 75.935 510.307 74.949 507.2 73.03 C 504.227 71.158 501.81 68.523 500.2 65.4 C 498.512 62.128 497.653 58.491 497.7 54.81 C 497.627 51.157 498.418 47.539 500.01 44.25 Z  M 529.07 50.84 C 528.954 47.767 527.649 44.859 525.43 42.73 C 523.022 40.804 520.035 39.744 516.951 39.722 C 513.867 39.701 510.865 40.718 508.43 42.61 C 506.114 44.775 504.64 47.691 504.27 50.84 L 529.07 50.84 Z " fill="rgb(255,255,255)"/><path d=" M 553 45.05 C 551.433 48.043 550.65 52.173 550.65 57.44 L 550.65 75.19 L 544.25 75.19 L 544.25 34.9 L 550.7 34.9 L 550.7 43.06 C 551.317 40.644 552.686 38.486 554.61 36.9 C 556.662 35.486 559.121 34.784 561.61 34.9 L 566.7 34.9 L 566.7 40.58 L 561.11 40.58 C 557.277 40.58 554.573 42.07 553 45.05 Z " fill="rgb(255,255,255)"/><path d=" M 573.51 34.9 L 579.9 34.9 L 579.9 42.66 C 580.667 40.198 582.228 38.06 584.34 36.58 C 586.595 35 589.297 34.184 592.05 34.25 C 595.089 34.163 598.089 34.943 600.7 36.5 C 601.853 37.193 602.858 38.109 603.654 39.194 C 604.451 40.279 605.024 41.511 605.34 42.82 C 606.155 40.273 607.854 38.103 610.13 36.7 C 612.564 35.08 615.427 34.227 618.35 34.25 C 622.71 34.25 626.133 35.636 628.62 38.41 C 631.107 41.183 632.343 44.993 632.33 49.84 L 632.33 75.18 L 625.94 75.18 L 625.94 51.53 C 626.084 48.539 625.225 45.587 623.5 43.14 C 622.728 42.109 621.718 41.279 620.557 40.722 C 619.396 40.165 618.117 39.897 616.83 39.94 C 615.369 39.867 613.909 40.116 612.555 40.669 C 611.2 41.222 609.983 42.065 608.99 43.14 C 607.006 45.472 605.981 48.471 606.12 51.53 L 606.12 75.19 L 599.7 75.19 L 599.7 51.53 C 599.844 48.539 598.985 45.587 597.26 43.14 C 596.505 42.111 595.51 41.281 594.361 40.724 C 593.213 40.166 591.946 39.897 590.67 39.94 C 589.198 39.864 587.727 40.111 586.36 40.663 C 584.994 41.216 583.765 42.061 582.76 43.14 C 580.769 45.469 579.739 48.469 579.88 51.53 L 579.88 75.19 L 573.49 75.19 L 573.51 34.9 Z " fill="rgb(255,255,255)"/><path d=" M 642.92 44.25 C 644.405 41.224 646.723 38.685 649.6 36.93 C 652.665 35.101 656.182 34.172 659.75 34.25 C 663.24 34.166 666.691 35.008 669.75 36.69 C 672.524 38.271 674.785 40.618 676.26 43.45 C 677.807 46.435 678.59 49.758 678.54 53.12 C 678.553 54.052 678.5 54.985 678.38 55.91 L 646.88 55.91 C 646.996 59.709 648.468 63.342 651.03 66.15 C 652.229 67.45 653.691 68.479 655.318 69.168 C 656.946 69.858 658.703 70.193 660.47 70.15 C 663.276 70.293 666.062 69.597 668.47 68.15 C 670.512 66.784 671.946 64.68 672.47 62.28 L 678.94 62.28 C 678.654 64.249 677.975 66.141 676.945 67.843 C 675.914 69.545 674.552 71.024 672.94 72.19 C 669.31 74.734 664.95 76.026 660.52 75.87 C 656.869 75.935 653.277 74.949 650.17 73.03 C 647.195 71.16 644.777 68.525 643.17 65.4 C 641.477 62.143 640.611 58.52 640.65 54.85 C 640.558 51.187 641.336 47.554 642.92 44.25 Z  M 671.98 50.84 C 671.864 47.767 670.559 44.859 668.34 42.73 C 665.974 40.654 662.894 39.578 659.75 39.73 C 656.689 39.608 653.693 40.636 651.35 42.61 C 649.037 44.776 647.567 47.692 647.2 50.84 L 671.98 50.84 Z " fill="rgb(255,255,255)"/><path d=" M 683.7 69.509 L 708.7 40.579 L 684.84 40.579 L 684.84 34.899 L 716.1 34.899 L 716.1 40.579 L 691.32 69.509 L 717.21 69.509 L 717.21 75.189 L 683.7 75.189 L 683.7 69.509 Z " fill="rgb(255,255,255)"/><path d=" M 92 21.77 L 58 2.13 C 55.565 0.734 52.807 0 50 0 C 47.193 0 44.435 0.734 42 2.13 L 8 21.77 C 5.567 23.174 3.547 25.195 2.143 27.628 C 0.738 30.061 -0.001 32.821 0 35.63 L 0 74.99 C 0.02 77.779 0.769 80.514 2.172 82.924 C 3.576 85.334 5.585 87.335 8 88.73 L 42 108.37 C 44.432 109.774 47.191 110.513 50 110.513 C 52.809 110.513 55.568 109.774 58 108.37 L 92 88.73 C 94.433 87.325 96.453 85.305 97.857 82.872 C 99.262 80.439 100.001 77.679 100 74.87 L 100 35.51 C 99.98 32.721 99.231 29.986 97.827 27.576 C 96.424 25.166 94.415 23.164 92 21.77 Z  M 8 35.63 C 7.998 34.223 8.367 32.841 9.069 31.623 C 9.771 30.405 10.782 29.393 12 28.69 L 46 9.07 C 47.215 8.363 48.595 7.99 50 7.99 C 51.405 7.99 52.786 8.363 54 9.07 L 88 28.69 C 89.2 29.383 90.2 30.375 90.901 31.571 C 91.603 32.767 91.981 34.124 92 35.51 L 92 39.51 C 91.989 42.624 90.746 45.607 88.543 47.807 C 86.339 50.007 83.354 51.244 80.24 51.25 L 19.76 51.25 C 15.521 51.24 11.393 52.608 8 55.15 L 8 35.63 Z  M 92 74.87 C 92.002 76.276 91.633 77.658 90.931 78.876 C 90.229 80.095 89.218 81.107 88 81.81 L 54 101.43 C 52.784 102.132 51.404 102.502 50 102.502 C 48.596 102.502 47.216 102.132 46 101.43 L 12 81.81 C 10.8 81.117 9.8 80.124 9.099 78.928 C 8.397 77.733 8.019 76.376 8 74.99 L 8 70.99 C 8.011 67.876 9.254 64.893 11.457 62.693 C 13.661 60.493 16.646 59.255 19.76 59.25 L 80.24 59.25 C 84.479 59.26 88.607 57.891 92 55.35 L 92 74.87 Z " fill="rgb(123,63,228)"/><path d=" M 31.4 33.63 L 39.16 33.63 L 39.16 45.25 L 47.16 45.25 L 47.16 33.63 C 47.16 31.508 46.317 29.473 44.817 27.973 C 43.317 26.473 41.282 25.63 39.16 25.63 L 31.4 25.63 C 29.278 25.63 27.243 26.473 25.743 27.973 C 24.243 29.473 23.4 31.508 23.4 33.63 L 23.4 45.25 L 31.4 45.25 L 31.4 33.63 Z " fill="rgb(123,63,228)"/><path d=" M 39.16 76.87 L 31.4 76.87 L 31.4 65.25 L 23.4 65.25 L 23.4 76.87 C 23.4 78.992 24.243 81.027 25.743 82.527 C 27.243 84.027 29.278 84.87 31.4 84.87 L 39.16 84.87 C 41.282 84.87 43.317 84.027 44.817 82.527 C 46.317 81.027 47.16 78.992 47.16 76.87 L 47.16 65.25 L 39.16 65.25 L 39.16 76.87 Z " fill="rgb(123,63,228)"/><path d=" M 62.92 33.63 L 70.7 33.63 L 70.7 45.25 L 78.7 45.25 L 78.7 33.63 C 78.7 31.508 77.857 29.473 76.357 27.973 C 74.857 26.473 72.822 25.63 70.7 25.63 L 62.92 25.63 C 60.798 25.63 58.763 26.473 57.263 27.973 C 55.763 29.473 54.92 31.508 54.92 33.63 L 54.92 45.25 L 62.92 45.25 L 62.92 33.63 Z " fill="rgb(123,63,228)"/><path d=" M 70.7 76.87 L 62.92 76.87 L 62.92 65.25 L 54.92 65.25 L 54.92 76.87 C 54.92 78.992 55.763 81.027 57.263 82.527 C 58.763 84.027 60.798 84.87 62.92 84.87 L 70.7 84.87 C 72.822 84.87 74.857 84.027 76.357 82.527 C 77.857 81.027 78.7 78.992 78.7 76.87 L 78.7 65.25 L 70.7 65.25 L 70.7 76.87 Z " fill="rgb(123,63,228)"/></g></g></svg>