<svg fill="none" height="73" viewBox="0 0 500 73" width="500" xmlns="http://www.w3.org/2000/svg"><path clip-rule="evenodd" d="m26.2835 0c1.9126 0 3.463 1.55043 3.463 3.46298v8.20672c0 1.9125-1.5504 3.463-3.463 3.463h-7.6879c-1.9125 0-3.4629 1.5504-3.4629 3.4629v50.5782c0 1.9126-1.5505 3.463-3.463 3.463h-8.20673c-1.91254 0-3.46297-1.5504-3.46297-3.463v-50.5782c0-1.9125 1.55043-3.4629 3.46298-3.4629h7.68792c1.9125 0 3.4629-1.5505 3.4629-3.463v-8.20672c0-1.91255 1.5505-3.46298 3.463-3.46298zm30.2654 0c1.9125 0 3.463 1.55043 3.463 3.46298v8.20672c0 1.9125 1.5504 3.463 3.4629 3.463h7.6879c1.9125 0 3.463 1.5504 3.463 3.4629v50.5782c0 1.9126-1.5505 3.463-3.463 3.463h-8.2067c-1.9126 0-3.463-1.5504-3.463-3.463v-50.5782c0-1.9125-1.5504-3.4629-3.463-3.4629h-7.6878c-1.9126 0-3.463-1.5505-3.463-3.463v-8.20673c0-1.91254 1.5504-3.46297 3.463-3.46297zm-15.1327 28.9683c1.9126 0 3.463 1.5504 3.463 3.463v22.4746c0 1.9126-1.5504 3.463-3.463 3.463h-8.2067c-1.9126 0-3.463-1.5504-3.463-3.463v-22.4746c0-1.9126 1.5504-3.463 3.463-3.463zm114.8318-12.4662h4.719l-.022 45.9375h8.298v-53.80915h-12.995zm-22.758-6.2065h-22.546v52.1789h23.798c10.143 0 15.735-6.6024 15.735-14.9981.077-2.9214-.77-5.7881-2.411-8.1592s-3.984-4.1153-6.67-4.9641v-.2445c2.077-.9171 3.838-2.4666 5.054-4.445 1.215-1.9784 1.828-4.2932 1.757-6.6406 0-7.5107-5.167-12.7274-14.717-12.7274zm6.34 14.2179c0 4.2153-2.583 6.9867-6.184 6.9867h-14.303v-13.9734h14.303c3.601 0 6.184 2.7714 6.184 6.9867zm2.271 22.3923c0 4.9722-3.132 8.3957-7.437 8.3957h-15.321v-16.7098h15.321c4.305 0 7.437 3.342 7.437 8.3141zm34.824-3.7495c0-11.8191 8.388-20.5408 19.974-20.5408s20.04 8.6402 20.04 20.5408c0 11.9007-8.376 20.4594-20.04 20.4594s-19.974-8.6402-19.974-20.4594zm17.782 12.7158h4.473c5.089 0 9.551-5.6243 9.551-12.7158s-4.473-12.8089-9.551-12.8089h-4.473c-5.088 0-9.551 5.8222-9.551 12.8089s4.463 12.7158 9.551 12.7158zm47.126-33.2566c-11.507 0-19.503 8.3956-19.503 20.4593s7.906 20.5409 19.38 20.6107c9.439 0 16.775-5.2167 17.894-15.2426h-8.064c-.176 2.0756-1.095 4.0064-2.573 5.4103-1.479 1.4039-3.41 2.1784-5.411 2.1703h-3.915c-5.01 0-9.08-5.7757-9.08-12.8788s4.07-12.8089 9.08-12.8089h3.915c3.601 0 7.123 2.2823 7.906 7.4175h8.063c-1.174-10.1656-8.454-15.1378-17.692-15.1378zm25.196-13.98505h8.22v29.68175h5.961l11.116-14.5905h9.394l-13.7 18.014 14.326 20.7039h-9.863l-11.978-17.1174h-5.256v17.1174h-8.22zm46.981 42.18795h-7.906c.302 8.4772 5.592 12.7973 16.495 12.7856 11.273 0 16.361-4.4016 16.361-12.3897 0-6.1948-3.288-10.1889-10.411-11.0855l-8.779-1.1645c-3.366-.489-4.932-2.2008-4.932-4.7276 0-2.5269 1.644-4.4832 5.167-4.4832h4.708c4.071 0 5.401 2.3639 5.793 5.7058h7.906c-.301-8.8847-6.094-12.8788-15.656-12.8788-9.987 0-15.579 4.2386-15.579 12.0637 0 5.9503 3.288 10.515 10.647 11.4116l8.701 1.1645c3.366.5007 4.775 2.0494 4.775 4.6578 0 2.6083-1.722 4.5646-5.402 4.5646h-5.178c-4.283 0-6.318-2.2008-6.71-5.6243zm30.117-7.7436c0-12.0637 7.985-20.4593 19.504-20.4593 9.237 0 16.518 4.9722 17.692 15.1378h-8.063c-.783-5.1352-4.306-7.4175-7.907-7.4175h-3.914c-5.021 0-9.092 5.7058-9.092 12.8089s4.071 12.8788 9.092 12.8788h3.914c2.001.0081 3.932-.7664 5.411-2.1703s2.397-3.3347 2.574-5.4103h8.063c-1.118 10.0259-8.455 15.2426-17.893 15.2426-11.463-.0698-19.381-8.547-19.381-20.6107zm62.459-20.4593c-11.586 0-19.962 8.7217-19.962 20.5408 0 11.8192 8.286 20.4594 19.962 20.4594 11.675 0 20.052-8.5587 20.052-20.4594 0-11.9006-8.466-20.5408-20.052-20.5408zm2.281 33.2566h-4.451c-5.088 0-9.573-5.7291-9.573-12.7158s4.463-12.8089 9.551-12.8089h4.473c5.089 0 9.562 5.7174 9.562 12.8089s-4.473 12.7158-9.562 12.7158zm24.592-7.7436v-24.3602h8.22v22.9047c0 5.6243 2.74 8.9662 6.341 8.9662h4.473c3.836 0 7.281-3.668 7.281-8.9662v-22.9047h8.231v38.7179h-7.996v-5.2983c-2.237 3.9941-6.185 6.4394-12.213 6.4394-9.013-.0116-14.337-5.4729-14.337-15.4988zm48.223-16.8262v22.1245c0 5.7873 3.355 9.0477 9.371 9.0594h8.947v-7.7436h-6.576c-2.661 0-3.444-1.2227-3.444-3.7495v-19.7258h9.707v-7.499h-9.707v-10.8527h-8.298v10.8527h-7.202v7.534z" fill="#252d43" fill-rule="evenodd"/></svg>