<?xml version="1.0" encoding="utf-8"?>
<!-- Generator: Adobe Illustrator 26.3.1, SVG Export Plug-In . SVG Version: 6.00 Build 0)  -->
<svg version="1.1" id="Layer_1" xmlns="http://www.w3.org/2000/svg" xmlns:xlink="http://www.w3.org/1999/xlink" x="0px" y="0px"
	 viewBox="0 0 256 256" style="enable-background:new 0 0 256 256;" xml:space="preserve">
<style type="text/css">
	.st0{fill:#FFFFFF;}
</style>
<ellipse transform="matrix(0.9834 -0.1812 0.1812 0.9834 -21.0773 25.3161)" class="st0" cx="128" cy="128" rx="128" ry="128"/>
<path d="M128,0C57.3,0,0,57.3,0,128c0,70.7,57.3,128,128,128s128-57.3,128-128C256,57.3,198.7,0,128,0z M128,239.8
	c-61.8,0-111.8-50.1-111.8-111.8S66.2,16.2,128,16.2S239.9,66.2,239.9,128S189.8,239.8,128,239.8z"/>
<path d="M127.3,217.9c50,0,90.6-40.5,90.6-90.6c0-50-40.5-90.6-90.6-90.6s-90.6,40.5-90.6,90.6C36.8,177.3,77.3,217.9,127.3,217.9z"
	/>
<g>
	<path class="st0" d="M76.8,114.8c1.5,0,2.9,0.4,4.1,1.1c1.3,0.7,2.3,1.7,3,2.9c0.8,1.2,1.1,2.6,1.1,4.1c0,1.5-0.4,2.9-1.1,4.2
		c-0.8,1.2-1.8,2.2-3,3c-1.3,0.7-2.6,1.1-4.1,1.1h-7.1v10.1h-4.3v-26.5H76.8z M76.7,127.2c0.7,0,1.4-0.2,2-0.6
		c0.6-0.4,1.1-0.9,1.4-1.6c0.4-0.7,0.6-1.4,0.6-2.2c0-1.2-0.4-2.2-1.2-3c-0.8-0.8-1.7-1.2-2.8-1.2h-7v8.5H76.7z"/>
	<path class="st0" d="M118.8,128.1c0,1.9-0.3,3.7-1,5.4c-0.7,1.6-1.6,3.1-2.9,4.3c-1.2,1.2-2.7,2.2-4.4,2.9c-1.7,0.7-3.5,1-5.5,1
		c-2,0-3.9-0.3-5.5-1c-1.7-0.7-3.1-1.7-4.4-2.9c-1.2-1.2-2.2-2.7-2.9-4.3c-0.7-1.7-1-3.5-1-5.4c0-1.9,0.3-3.7,1-5.3
		c0.7-1.7,1.6-3.1,2.9-4.3c1.2-1.2,2.7-2.2,4.4-2.9c1.7-0.7,3.5-1.1,5.5-1.1c2,0,3.8,0.4,5.5,1.1c1.7,0.7,3.1,1.6,4.4,2.9
		c1.3,1.2,2.2,2.7,2.9,4.3C118.4,124.4,118.8,126.1,118.8,128.1z M114.3,128.1c0-1.8-0.4-3.5-1.2-4.9c-0.8-1.5-1.9-2.6-3.3-3.4
		c-1.4-0.9-3-1.3-4.8-1.3c-1.8,0-3.5,0.4-4.9,1.3c-1.4,0.8-2.5,2-3.3,3.4c-0.8,1.4-1.2,3.1-1.2,4.9c0,1.8,0.4,3.5,1.2,5
		c0.8,1.4,1.9,2.6,3.3,3.4c1.4,0.8,3.1,1.2,4.9,1.2c1.8,0,3.4-0.4,4.8-1.2c1.4-0.9,2.5-2,3.3-3.5
		C113.9,131.5,114.3,129.9,114.3,128.1z"/>
	<path class="st0" d="M175.5,141.3v-22.5h-7.9v-3.9H188v3.9h-8.1v22.5H175.5z"/>
	<polygon class="st0" points="130.2,114.8 125.8,114.8 125.8,118.6 125.8,137.5 125.8,141.3 130.2,141.3 130.2,137.5 130.2,118.6 	
		"/>
	<path class="st0" d="M157.1,114.8v8.7c0,1.4,0,2.8,0.1,4.3v6.9l-15.8-19.9h-3.9v26.5h4.3v-9.4v-1.6v-8.3l15.7,19.4h4v-26.5H157.1z
		 M157.7,135.4L157.7,135.4C157.7,135.4,157.7,135.4,157.7,135.4L157.7,135.4z"/>
</g>
</svg>
