<svg width="40" height="40" viewBox="0 0 40 40" fill="none" xmlns="http://www.w3.org/2000/svg">
<path d="M21.0907 18.733C21.091 18.7326 21.0912 18.7322 21.0914 18.7318H29.2321C30.0996 18.7318 30.8028 19.4263 30.8028 20.2831C30.8028 21.1399 30.0996 21.8344 29.2321 21.8344H25.6981C23.3125 21.8344 21.3787 23.7444 21.3787 26.1004C21.3787 28.4565 23.3125 30.3665 25.6981 30.3665H37.0681C37.0677 30.3668 37.0674 30.3671 37.0671 30.3674C37.0699 30.3671 37.0727 30.3668 37.0754 30.3665C36.9073 30.7979 36.7004 31.2279 36.4527 31.6538C33.1968 37.2525 27.2024 40 20.7179 40H7.84768C1.80706 40 -1.96193 34.1621 1.07117 28.9466C3.06649 25.5562 4.88656 22.363 6.93081 18.733H21.0907Z" fill="#F8D448"/>
<path d="M15.5428 3.1911C16.6924 1.21395 18.7902 0 21.0573 0H30.8141C35.8595 0 38.9949 5.54752 36.4364 9.94771C35.4619 11.6238 34.1532 13.0309 32.6245 14.1029C36.5764 15.3562 39.4401 19.0539 39.4401 23.4206C39.4401 25.1055 39.0138 26.6907 38.263 28.0744H25.6967C24.6123 28.0744 23.7333 27.2063 23.7333 26.1353C23.7333 25.0644 24.6123 24.1962 25.6967 24.1962H29.2307C31.3993 24.1962 33.1574 22.4599 33.1574 20.318C33.1574 18.1761 31.3993 16.4398 29.2307 16.4398H25.814C25.6074 16.4497 25.3999 16.4547 25.1918 16.4547H11.56C10.8954 16.4547 10.3612 16.4493 9.82732 16.4438C9.29386 16.4383 8.76062 16.4328 8.09773 16.4328C10.8197 11.2873 11.8775 9.47488 14.1056 5.65722C14.5345 4.92221 15.0069 4.11287 15.5428 3.1911Z" fill="#F8D448"/>
</svg>
