<svg height="60" viewBox="0 0 174 60" width="174" xmlns="http://www.w3.org/2000/svg"><g fill="#fff"><path d="m.87 4v22.18a1.35 1.35 0 0 0 1.35 1.37h9.91a1.37 1.37 0 0 0 1.16-2l-1.29-2.36a2 2 0 0 0 -2.75-.75l-.14.08a2 2 0 0 1 -2.72-.74 2.06 2.06 0 0 1 -.16-1.65l2.06-6.28a2 2 0 0 1 2.31-1.36l6.4 1.31a2 2 0 0 1 1.33 1 2 2 0 0 1 -.73 2.77l-.14.08a2.07 2.07 0 0 0 -.74 2.8l1.28 2.2a1.34 1.34 0 0 0 2.32 0l5-8.66a1.37 1.37 0 0 0 -.49-1.86l-18.93-11.07a3.36 3.36 0 0 0 -5.03 2.94z"/><path d="m50.9 26.32-20.32-11.95a1.34 1.34 0 0 0 -1.85.5l-5.33 9.49a1.47 1.47 0 0 0 1.25 2.19h3.48a1.45 1.45 0 0 0 1.44-1.47v-1.08a1.34 1.34 0 0 1 1.33-1.4h.92a1.33 1.33 0 0 1 1 .46l4.84 5.56a1.38 1.38 0 0 1 0 1.81l-4.83 5.57a1.33 1.33 0 0 1 -1 .46h-.93a1.34 1.34 0 0 1 -1.33-1.35v-1.11a1.45 1.45 0 0 0 -1.44-1.47h-3.43a1.47 1.47 0 0 0 -1.25 2.19l5.29 9.43a1.33 1.33 0 0 0 1.83.49l20.33-11.97a3.7 3.7 0 0 0 0-6.35z"/><path d="m5.9 58.94 18.86-11.07a1.39 1.39 0 0 0 .5-1.88l-5-8.71a1.34 1.34 0 0 0 -2.32 0l-1.62 2.86a1.38 1.38 0 0 0 .5 1.87l1.27.75a1.38 1.38 0 0 1 .5 1.86l-.48.84a1.34 1.34 0 0 1 -.89.65l-7.22 1.5a1.34 1.34 0 0 1 -1.54-.91l-2.38-7.14a1.39 1.39 0 0 1 .11-1.12l.47-.83a1.34 1.34 0 0 1 1.84-.49l1.27.75a1.33 1.33 0 0 0 1.83-.49l1.61-2.83a1.37 1.37 0 0 0 -1.16-2h-9.84a1.35 1.35 0 0 0 -1.34 1.27v22.18a3.36 3.36 0 0 0 5.03 2.94z"/><path d="m77.19 39.69a11.33 11.33 0 0 1 -4.19-.69 5.84 5.84 0 0 1 -2.64-2.1 9.5 9.5 0 0 1 -1.36-3.65 31.72 31.72 0 0 1 -.4-5.44 30.54 30.54 0 0 1 .4-5.37 9.19 9.19 0 0 1 1.37-3.63 5.7 5.7 0 0 1 2.64-2 11.33 11.33 0 0 1 4.18-.67 25.1 25.1 0 0 1 3.11.2 30.71 30.71 0 0 1 3.44.63l-.13 3a33.25 33.25 0 0 0 -6-.53 6.8 6.8 0 0 0 -2.51.4 3.28 3.28 0 0 0 -1.57 1.4 6.75 6.75 0 0 0 -.84 2.6 29 29 0 0 0 -.23 4.07 29.77 29.77 0 0 0 .23 4.1 7.52 7.52 0 0 0 .8 2.63 3.15 3.15 0 0 0 1.51 1.36 6.8 6.8 0 0 0 2.51.4 37.4 37.4 0 0 0 6.08-.5l.11 3.1a30.65 30.65 0 0 1 -6.51.69z"/><path d="m99.86 27.47v8.34a1.87 1.87 0 0 0 .4 1.21 2.21 2.21 0 0 0 1.21.48l-.11 3a7.63 7.63 0 0 1 -4.88-1.35 13.65 13.65 0 0 1 -5.9 1.35q-5.46 0-5.46-5.82a5 5 0 0 1 1.47-4 8.06 8.06 0 0 1 4.58-1.5l4.73-.4v-1.31a2.64 2.64 0 0 0 -.66-2 2.64 2.64 0 0 0 -1.87-.59q-1.17 0-2.64.07t-3.23.22l-1.17.07-.15-2.82a33 33 0 0 1 7.37-1q3.37 0 4.84 1.43t1.47 4.62zm-4 4.08-3.86.37a2.24 2.24 0 0 0 -2.31 2.5q0 2.3 2 2.3a12.45 12.45 0 0 0 3.54-.53l.6-.2z"/><path d="m107.78 39.43v-23.76h-4v23.76z"/><path d="m116.69 39.43v-23.76h-4v23.76z"/><path d="m124.6 39.43v-16.83h-4v16.83zm0-19.8v-4h-4v4z"/><path d="m140.79 23.05-.07 3q-2-.27-3.44-.4t-2.28-.1a4.92 4.92 0 0 0 -2.47.43 1.4 1.4 0 0 0 -.67 1.3 1.29 1.29 0 0 0 .77 1.27 9 9 0 0 0 1.24.4q.9.2 2.31.43a12.65 12.65 0 0 1 2.37.6 4.38 4.38 0 0 1 1.57 1 3.23 3.23 0 0 1 .87 1.47 6.69 6.69 0 0 1 .3 2.17 4.45 4.45 0 0 1 -1.7 3.87 8.2 8.2 0 0 1 -4.91 1.23 17.84 17.84 0 0 1 -2.31-.17q-1.27-.13-2.84-.4l-1-.17.13-3q2 .27 3.44.4t2.34.13a5.35 5.35 0 0 0 2.56-.51 1.53 1.53 0 0 0 .74-1.43 1.48 1.48 0 0 0 -.7-1.4 7.26 7.26 0 0 0 -1.24-.37q-.84-.23-2.21-.47a20.2 20.2 0 0 1 -2.37-.53 5.43 5.43 0 0 1 -1.64-.87 3.68 3.68 0 0 1 -1-1.4 6.39 6.39 0 0 1 -.3-2.13 4.94 4.94 0 0 1 .47-2.23 4.51 4.51 0 0 1 1.27-1.6 5.58 5.58 0 0 1 2-.93 9.23 9.23 0 0 1 2.54-.33 23.47 23.47 0 0 1 2.37.13q1.3.13 2.87.4z"/><path d="m154.3 22.6v3h-4.95v7.3q0 1 0 1.67a2.58 2.58 0 0 0 .29 1 1.27 1.27 0 0 0 .62.53 3.47 3.47 0 0 0 1.06.13l3-.1.18 2.9a22.27 22.27 0 0 1 -3.74.43 9.71 9.71 0 0 1 -2.6-.3 3.68 3.68 0 0 1 -1.69-1 4.09 4.09 0 0 1 -.88-1.9 14.69 14.69 0 0 1 -.26-3v-7.69h-2v-3h2v-4.92h4v4.95z"/><path d="m163.42 22.28q4 0 5.71 2.17t1.74 6.5a16.06 16.06 0 0 1 -.4 3.8 7.07 7.07 0 0 1 -1.27 2.73 5.38 5.38 0 0 1 -2.31 1.67 9.84 9.84 0 0 1 -3.47.53 10 10 0 0 1 -3.47-.53 5.38 5.38 0 0 1 -2.31-1.67 7.07 7.07 0 0 1 -1.27-2.73 16.06 16.06 0 0 1 -.37-3.75 16 16 0 0 1 .37-3.57 7.31 7.31 0 0 1 1.2-2.73 5.51 5.51 0 0 1 2.31-1.73 8.87 8.87 0 0 1 3.54-.69zm-3 13q.74 1.33 3 1.33a4.88 4.88 0 0 0 1.84-.3 2.63 2.63 0 0 0 1.17-1 4.72 4.72 0 0 0 .6-1.77 17.58 17.58 0 0 0 .17-2.6 8.18 8.18 0 0 0 -.84-4.3 3.21 3.21 0 0 0 -2.94-1.27 3.29 3.29 0 0 0 -3 1.27 8.47 8.47 0 0 0 -.8 4.3 9.33 9.33 0 0 0 .79 4.35z"/></g></svg>