<svg width="400" height="400" viewBox="0 0 400 400" fill="none" xmlns="http://www.w3.org/2000/svg">
<circle cx="200" cy="200" r="200" fill="#161515"/>
<circle cx="200" cy="200" r="200" fill="#063C4F"/>
<path d="M50.564 230.938C52.0377 230.98 53.5164 231 55.0001 231C85.5102 231 113.975 222.242 138.016 207.102C147.858 257.758 192.46 296 245.994 296C289.808 296 327.639 270.385 345.328 233.313C346.699 232.588 348.053 231.835 349.389 231.055C330.058 295.245 270.486 342 199.994 342C129.46 342 69.8589 295.189 50.564 230.938Z" fill="url(#paint0_radial_1_1500)"/>
<path d="M50.564 230.938C52.0377 230.98 53.5164 231 55.0001 231C85.5102 231 113.975 222.242 138.016 207.102C147.858 257.758 192.46 296 245.994 296C289.808 296 327.639 270.385 345.328 233.313C346.699 232.588 348.053 231.835 349.389 231.055C330.058 295.245 270.486 342 199.994 342C129.46 342 69.8589 295.189 50.564 230.938Z" fill="#04171E" fill-opacity="0.88"/>
<path d="M51.312 233.357C52.5379 233.386 53.7672 233.4 54.9999 233.4C85.6941 233.4 114.318 224.535 138.451 209.227C149.111 258.823 193.211 296 245.994 296C289.808 296 327.639 270.384 345.328 233.312C346.699 232.587 348.053 231.834 349.389 231.054C330.057 295.245 270.486 342 199.994 342C130.348 342 71.3619 296.36 51.312 233.357Z" fill="url(#paint1_radial_1_1500)"/>
<path d="M51.312 233.357C52.5379 233.386 53.7672 233.4 54.9999 233.4C85.6941 233.4 114.318 224.535 138.451 209.227C149.111 258.823 193.211 296 245.994 296C289.808 296 327.639 270.384 345.328 233.312C346.699 232.587 348.053 231.834 349.389 231.054C330.057 295.245 270.486 342 199.994 342C130.348 342 71.3619 296.36 51.312 233.357Z" fill="#04171E" fill-opacity="0.4"/>
<path d="M273.798 292.456C251.618 310.904 223.105 321.998 192 321.998C133.939 321.998 84.9065 283.34 69.2383 230.359C94.3565 228.086 117.756 219.86 138.016 207.102C147.857 257.758 192.46 296 245.994 296C255.599 296 264.917 294.769 273.798 292.456Z" fill="url(#paint2_linear_1_1500)" fill-opacity="0.64"/>
<path d="M328 186C328 256.692 270.692 314 200 314C129.308 314 72 256.692 72 186C72 115.308 129.308 58 200 58C270.692 58 328 115.308 328 186Z" fill="url(#paint3_radial_1_1500)"/>
<path d="M319.491 161.965C319.491 211.67 279.197 251.965 229.491 251.965C179.785 251.965 139.491 211.67 139.491 161.965C139.491 112.259 179.785 71.9648 229.491 71.9648C279.197 71.9648 319.491 112.259 319.491 161.965Z" fill="url(#paint4_radial_1_1500)" fill-opacity="0.6"/>
<path d="M208.392 72.1266C206.384 72.0192 204.363 71.9648 202.328 71.9648C183.18 71.9648 165.157 76.7827 149.405 85.2724C157.829 83.4161 166.583 82.4376 175.565 82.4376C184.72 82.4376 193.638 83.4542 202.211 85.3808L208.392 72.1266Z" fill="url(#paint5_linear_1_1500)" fill-opacity="0.64"/>
<path d="M215.798 89.2861C262.856 105.869 296.583 150.724 296.583 203.456C296.583 225.135 290.882 245.483 280.899 263.082C301.361 242.835 314.037 214.735 314.037 183.674C314.037 129.036 274.812 83.5606 222.986 73.871L215.798 89.2861Z" fill="url(#paint6_linear_1_1500)" fill-opacity="0.64"/>
<path d="M268.404 294.211C248.617 306.745 225.156 314.002 200 314.002C160.132 314.002 124.522 295.776 101.046 267.201C107.518 268.387 114.187 269.006 121.001 269.006C170.48 269.006 212.328 236.339 226.155 191.396C230.717 191.797 235.336 192.002 240.002 192.002C271.968 192.002 301.688 182.388 326.429 165.893C327.463 172.444 328 179.16 328 186.002C328 190.249 327.793 194.448 327.389 198.588C320.199 237.42 298.626 271.205 268.404 294.211Z" fill="url(#paint7_linear_1_1500)" fill-opacity="0.64"/>
<path d="M50.6047 231.053C69.9349 295.246 129.508 342.004 200.002 342.004C285.826 342.004 355.463 272.697 355.999 186.999C347.437 186.945 339.038 186.201 330.856 184.82C311.628 193.295 290.365 198 268.003 198C260.248 198 252.626 197.434 245.175 196.342C231.363 241.31 189.502 274.002 140.006 274.002C105.49 274.002 74.6876 258.105 54.5201 233.234C53.1988 232.533 51.8934 231.805 50.6047 231.053Z" fill="url(#paint8_linear_1_1500)"/>
<path d="M355.998 187.135C333.053 200.407 306.415 208.002 278.002 208.002C272.587 208.002 267.236 207.727 261.964 207.188C252.089 257.803 207.506 296.002 154.002 296.002C110.188 296.002 72.3574 270.387 54.6684 233.315C53.2971 232.59 51.9429 231.837 50.6067 231.057C69.9385 295.247 129.51 342.002 200.002 342.002C285.781 342.002 355.389 272.77 355.998 187.135Z" fill="url(#paint9_radial_1_1500)"/>
<path d="M344.624 193.102C335.227 197.546 325.316 201.08 315.003 203.588C313.666 214.98 311.094 226.404 307.207 237.692C297.733 265.209 281.605 288.544 261.241 306.518C296.061 289.762 324.432 259.636 338.007 220.213C341.098 211.235 343.288 202.165 344.624 193.102Z" fill="url(#paint10_linear_1_1500)" fill-opacity="0.64"/>
<path opacity="0.2" fill-rule="evenodd" clip-rule="evenodd" d="M245.109 196.611C245.285 196.375 245.613 196.331 245.842 196.512C251.05 200.643 256.677 204.287 262.71 207.378C262.968 207.511 263.074 207.834 262.945 208.101C262.816 208.368 262.502 208.476 262.244 208.344C256.15 205.221 250.465 201.54 245.204 197.367C244.975 197.185 244.932 196.847 245.109 196.611Z" fill="url(#paint11_linear_1_1500)"/>
<defs>
<radialGradient id="paint0_radial_1_1500" cx="0" cy="0" r="1" gradientUnits="userSpaceOnUse" gradientTransform="translate(349.389 309.05) rotate(179.948) scale(1132.69 3291.17)">
<stop offset="0.104167" stop-color="#24537E"/>
<stop offset="0.520341" stop-color="#4FC1C0"/>
<stop offset="1" stop-color="#DAFFF4"/>
</radialGradient>
<radialGradient id="paint1_radial_1_1500" cx="0" cy="0" r="1" gradientUnits="userSpaceOnUse" gradientTransform="translate(349.389 309.05) rotate(179.948) scale(1132.69 3291.17)">
<stop offset="0.104167" stop-color="#24537E"/>
<stop offset="0.520341" stop-color="#4FC1C0"/>
<stop offset="1" stop-color="#DAFFF4"/>
</radialGradient>
<linearGradient id="paint2_linear_1_1500" x1="269.973" y1="343.563" x2="218.509" y2="75.8748" gradientUnits="userSpaceOnUse">
<stop stop-color="#04171E"/>
<stop offset="1" stop-color="#04171E" stop-opacity="0"/>
</linearGradient>
<radialGradient id="paint3_radial_1_1500" cx="0" cy="0" r="1" gradientUnits="userSpaceOnUse" gradientTransform="translate(106.327 286.073) rotate(-57.5402) scale(225.482 3267.36)">
<stop offset="0.104167" stop-color="#3A78B1"/>
<stop offset="0.520341" stop-color="#4FC1C0"/>
<stop offset="1" stop-color="#8CF2FD"/>
</radialGradient>
<radialGradient id="paint4_radial_1_1500" cx="0" cy="0" r="1" gradientUnits="userSpaceOnUse" gradientTransform="translate(319 72) rotate(144.267) scale(221.744 220.17)">
<stop offset="0.216485" stop-color="white"/>
<stop offset="0.906332" stop-color="white" stop-opacity="0"/>
</radialGradient>
<linearGradient id="paint5_linear_1_1500" x1="281" y1="122" x2="149" y2="179.5" gradientUnits="userSpaceOnUse">
<stop stop-color="white"/>
<stop offset="0.732381" stop-color="white" stop-opacity="0"/>
</linearGradient>
<linearGradient id="paint6_linear_1_1500" x1="281" y1="122" x2="149" y2="179.5" gradientUnits="userSpaceOnUse">
<stop stop-color="white"/>
<stop offset="0.732381" stop-color="white" stop-opacity="0"/>
</linearGradient>
<linearGradient id="paint7_linear_1_1500" x1="526.015" y1="-151.509" x2="-13.8561" y2="298.277" gradientUnits="userSpaceOnUse">
<stop stop-color="#04171E"/>
<stop offset="1" stop-color="#04171E" stop-opacity="0"/>
</linearGradient>
<linearGradient id="paint8_linear_1_1500" x1="299" y1="206.5" x2="96.4992" y2="278" gradientUnits="userSpaceOnUse">
<stop stop-color="#0E6585"/>
<stop offset="1" stop-color="#04171E"/>
</linearGradient>
<radialGradient id="paint9_radial_1_1500" cx="0" cy="0" r="1" gradientUnits="userSpaceOnUse" gradientTransform="translate(91.5567 325.108) rotate(-38.5632) scale(184.631 2879.66)">
<stop offset="0.104167" stop-color="#3A78B1"/>
<stop offset="0.520341" stop-color="#4FC1C0"/>
<stop offset="1" stop-color="#8CF2FD"/>
</radialGradient>
<linearGradient id="paint10_linear_1_1500" x1="345" y1="193" x2="267.124" y2="311.041" gradientUnits="userSpaceOnUse">
<stop stop-color="white" stop-opacity="0.64"/>
<stop offset="1" stop-color="white" stop-opacity="0"/>
</linearGradient>
<linearGradient id="paint11_linear_1_1500" x1="262.895" y1="207.832" x2="237.578" y2="192.182" gradientUnits="userSpaceOnUse">
<stop stop-color="#8CF2FD"/>
<stop offset="1" stop-color="#8CF2FD" stop-opacity="0"/>
</linearGradient>
</defs>
</svg>
