<svg width="130" height="41" viewBox="0 0 130 41" fill="none" xmlns="http://www.w3.org/2000/svg">
  <path d="M99.2606 36L102.744 34.8309V4L99.2606 5.16915V36ZM59.0848 17.2936C61.2718 17.2936 63.2967 18.3329 64.5927 20.065L66.0102 16.5575C64.1472 14.6522 61.6767 13.7429 59.0848 13.7429C53.0908 13.7429 48.9598 18.8092 49.0003 24.3951C49.0408 30.4574 53.4958 35.3938 59.0848 35.3938C61.9197 35.3938 64.0662 34.4844 65.6862 33.2287V28.9418C63.9852 30.7605 61.5147 31.843 59.3683 31.843C56.1283 31.843 52.4833 29.0284 52.4833 24.3951C52.4833 20.1083 55.6423 17.2936 59.0848 17.2936ZM82.2507 13.7429C76.2567 13.7429 72.7737 18.8092 72.7737 24.3951C72.7737 30.4574 77.2692 35.3938 82.8582 35.3938C85.6932 35.3938 87.8397 34.4844 89.4596 33.2287V28.9418C87.7587 30.7605 85.2882 31.843 83.1417 31.843C80.2662 31.843 77.1072 29.9378 76.4592 25.9107H91.7276V24.4817C91.7276 18.5061 88.0422 13.7429 82.2507 13.7429ZM119.875 13.7429C114.286 13.7429 109.75 18.5927 109.75 24.5683C109.75 30.544 114.286 35.3938 119.875 35.3938C125.464 35.3938 130 30.544 130 24.5683C130 18.5927 125.464 13.7429 119.875 13.7429ZM82.2912 17.2936C85.0047 17.2936 87.8802 19.1123 88.1232 22.6198H76.4592C76.7022 19.1123 79.5777 17.2936 82.2912 17.2936ZM119.875 31.843C118.529 31.843 117.214 31.4164 116.095 30.617C114.976 29.8177 114.104 28.6815 113.589 27.3522C113.074 26.023 112.939 24.5603 113.202 23.1491C113.464 21.738 114.112 20.4417 115.064 19.4243C116.015 18.407 117.228 17.7141 118.548 17.4334C119.867 17.1527 121.236 17.2968 122.479 17.8474C123.722 18.398 124.785 19.3304 125.532 20.5267C126.28 21.723 126.679 23.1295 126.679 24.5683C126.681 25.5241 126.506 26.4708 126.164 27.3541C125.823 28.2375 125.322 29.04 124.69 29.7159C124.057 30.3917 123.307 30.9275 122.481 31.2925C121.654 31.6576 120.769 31.8446 119.875 31.843V31.843Z" fill="white"/>
  <path d="M23.5 27.7333C29.7777 27.7333 34.8667 22.4802 34.8667 16C34.8667 9.51979 29.7777 4.26667 23.5 4.26667C17.2223 4.26667 12.1333 9.51979 12.1333 16C12.1333 22.4802 17.2223 27.7333 23.5 27.7333ZM23.5 32C14.9399 32 8 24.8363 8 16C8 7.16373 14.9399 0 23.5 0C32.0601 0 39 7.16373 39 16C39 24.8363 32.0601 32 23.5 32Z" fill="#35D07F"/>
  <path d="M15 36.7333C21.0752 36.7333 26 31.4802 26 25C26 18.5198 21.0752 13.2667 15 13.2667C8.9248 13.2667 4 18.5198 4 25C4 31.4802 8.9248 36.7333 15 36.7333ZM15 41C6.716 41 0 33.8363 0 25C0 16.1637 6.716 9 15 9C23.284 9 30 16.1637 30 25C30 33.8363 23.284 41 15 41Z" fill="#FBCC5C"/>
  <path d="M23.4948 32C24.5351 30.6822 25.2807 29.138 25.6771 27.4803C27.2625 27.066 28.7395 26.2866 30 25.1992C29.9425 27.1185 29.5471 29.0103 28.8336 30.7797C27.141 31.5261 25.3313 31.9397 23.4952 32H23.4948ZM12.3229 13.5188C10.7375 13.9332 9.26054 14.7126 8 15.8C8.05747 13.8807 8.45288 11.9889 9.16639 10.2195C10.859 9.47339 12.6687 9.05999 14.5048 9C13.4648 10.3177 12.7194 11.8615 12.3229 13.5188V13.5188Z" fill="#ECFF8F"/>
</svg>
