<svg width="102" height="30" viewBox="0 0 102 30" fill="none" xmlns="http://www.w3.org/2000/svg">
<path d="M77.0842 26.4948L79.8 25.6422V3.15796L77.0842 4.01059V26.4948ZM45.7579 12.8527C47.4632 12.8527 49.0421 13.6106 50.0527 14.8737L51.1579 12.3159C49.7053 10.9264 47.779 10.2632 45.7579 10.2632C41.0842 10.2632 37.8632 13.958 37.8948 18.0316C37.9263 22.4527 41.4 26.0527 45.7579 26.0527C47.9684 26.0527 49.6421 25.3895 50.9053 24.4737V21.3474C49.579 22.6737 47.6527 23.4632 45.979 23.4632C43.4527 23.4632 40.6106 21.4106 40.6106 18.0316C40.6106 14.9053 43.0737 12.8527 45.7579 12.8527ZM63.8211 10.2632C59.1474 10.2632 56.4316 13.958 56.4316 18.0316C56.4316 22.4527 59.9369 26.0527 64.2948 26.0527C66.5053 26.0527 68.179 25.3895 69.4421 24.4737V21.3474C68.1158 22.6737 66.1895 23.4632 64.5158 23.4632C62.2737 23.4632 59.8105 22.0737 59.3053 19.1369H71.2106V18.0948C71.2106 13.7369 68.3369 10.2632 63.8211 10.2632ZM93.1579 10.2632C88.8 10.2632 85.2632 13.8001 85.2632 18.158C85.2632 22.5159 88.8 26.0527 93.1579 26.0527C97.5158 26.0527 101.053 22.5159 101.053 18.158C101.053 13.8001 97.5158 10.2632 93.1579 10.2632ZM63.8527 12.8527C65.9684 12.8527 68.2106 14.179 68.4 16.7369H59.3053C59.4948 14.179 61.7369 12.8527 63.8527 12.8527ZM93.1579 23.4632C90.2211 23.4632 87.8527 21.0948 87.8527 18.158C87.8527 15.2211 90.2211 12.8527 93.1579 12.8527C96.0948 12.8527 98.4632 15.2211 98.4632 18.158C98.4632 21.0948 96.0948 23.4632 93.1579 23.4632Z" fill="#ffffff"/>
<path d="M11.8421 26.8421C16.6383 26.8421 20.5263 22.9541 20.5263 18.1579C20.5263 13.3617 16.6383 9.47369 11.8421 9.47369C7.04589 9.47369 3.15789 13.3617 3.15789 18.1579C3.15789 22.9541 7.04589 26.8421 11.8421 26.8421ZM11.8421 30C5.3021 30 0 24.6979 0 18.1579C0 11.6179 5.3021 6.3158 11.8421 6.3158C18.3821 6.3158 23.6842 11.6179 23.6842 18.1579C23.6842 24.6979 18.3821 30 11.8421 30Z" fill="#FBCC5C"/>
<path d="M18.1579 20.5263C22.9541 20.5263 26.8421 16.6383 26.8421 11.8421C26.8421 7.04589 22.9541 3.15789 18.1579 3.15789C13.3617 3.15789 9.47369 7.04589 9.47369 11.8421C9.47369 16.6383 13.3617 20.5263 18.1579 20.5263ZM18.1579 23.6842C11.6179 23.6842 6.3158 18.3821 6.3158 11.8421C6.3158 5.3021 11.6179 0 18.1579 0C24.6979 0 30 5.3021 30 11.8421C30 18.3821 24.6979 23.6842 18.1579 23.6842Z" fill="#35D07F"/>
<path d="M18.5463 23.6779C19.367 22.6838 19.955 21.5186 20.268 20.268C21.5185 19.9554 22.6834 19.3671 23.6779 18.5467C23.6324 19.9949 23.3207 21.4226 22.7576 22.7577C21.4225 23.3208 19.9948 23.6325 18.5463 23.6779ZM9.73228 9.73204C8.48176 10.0447 7.31681 10.633 6.32239 11.4534C6.36786 10.0052 6.67955 8.57751 7.2426 7.24235C8.57776 6.6793 10.0054 6.36762 11.4537 6.32214C10.6332 7.31656 10.0449 8.48151 9.73228 9.73204Z" fill="#5EA33B"/>
</svg>
