<svg width="124" height="28" viewBox="0 0 404 91" fill="none" xmlns="http://www.w3.org/2000/svg">
  <path fill-rule="evenodd" clip-rule="evenodd" d="M91.2329 0H0V91H91.2311V59.2349H76.0906C70.8713 70.8231 59.1241 78.8938 45.6802 78.8938C27.1464 78.8938 12.1372 63.7938 12.1372 45.4364C12.1372 27.079 27.1464 12.108 45.6802 12.108C59.3847 12.108 71.1319 20.4406 76.353 32.2868H91.2329V0ZM179.585 59.2331C174.235 70.8212 162.617 78.892 149.044 78.892H149.045C131.033 78.892 116.284 64.5718 115.632 46.7361H194.726V0H103.493V90.9982H194.726V59.2331H179.585ZM180.754 35.5407H117.061H117.06C121.105 20.5698 134.549 12.1082 149.037 12.1082C163.525 12.1082 176.056 20.048 180.754 35.5407ZM391.733 45.4346C391.733 63.921 376.854 78.892 358.32 78.892C339.915 78.892 324.906 63.792 324.906 45.4346C324.906 27.0771 339.786 12.1062 358.32 12.1062C376.854 12.1062 391.733 26.9481 391.733 45.4346ZM404 0H312.767V91H404V0ZM286.22 59.2331H301.361V90.9982H206.866V0H222.267V45.4346C222.267 65.7443 237.407 78.763 255.418 78.763C269.383 78.763 281.651 71.212 286.22 59.2349V59.2331Z" fill="white"/>
</svg>
