<svg id="Layer_1" data-name="Layer 1" xmlns="http://www.w3.org/2000/svg" viewBox="0 0 473.958 106"><defs><style>.cls-1{fill:#fff;}.cls-2{fill:#41f9ab;}</style></defs><title>classic_ethereum_logo</title><path class="cls-1" d="M118.69,41.9a10.379,10.379,0,0,1-5.751-1.6,10.136,10.136,0,0,1-4-4.367,13.9,13.9,0,0,1-1.455-6.26V28.654a14.357,14.357,0,0,1,1.382-6.478,11.729,11.729,0,0,1,3.858-4.512,9.6,9.6,0,0,1,5.386-1.675,8.822,8.822,0,0,1,7.206,3.13c1.747,2.038,2.693,4.877,2.693,8.516v1.529h-17.76v.509a10.509,10.509,0,0,0,2.4,7.06,7.658,7.658,0,0,0,6.114,2.839,9.711,9.711,0,0,0,3.931-.8,7.41,7.41,0,0,0,3.057-2.62l1.747,1.31A10.035,10.035,0,0,1,118.69,41.9Zm-.51-23.582a6.73,6.73,0,0,0-5.241,2.256,10.731,10.731,0,0,0-2.62,6.114h14.994V26.4a9.171,9.171,0,0,0-2.038-5.9A6.5,6.5,0,0,0,118.18,18.319Z"/><path class="cls-1" d="M149.987,10.021v6.4h5.168v2.257h-5.168V35.35a5.389,5.389,0,0,0,.728,3.13A2.928,2.928,0,0,0,153.19,39.5a18.653,18.653,0,0,0,2.256-.218l.146,2.256a8.3,8.3,0,0,1-2.984.364,5.012,5.012,0,0,1-4.149-1.674,7.644,7.644,0,0,1-1.31-4.877V18.683h-4.586V16.426h4.586v-6.4Z"/><path class="cls-1" d="M175.9,20.648a9.453,9.453,0,0,1,3.494-3.494,9.279,9.279,0,0,1,4.658-1.237c2.693,0,4.658.728,5.968,2.256s1.965,3.785,1.965,6.769V41.319h-2.765v-16.3a7.518,7.518,0,0,0-1.456-5.022,5.549,5.549,0,0,0-4.44-1.674,6.857,6.857,0,0,0-4.513,1.6,9.844,9.844,0,0,0-2.911,4.367V41.392h-2.766V5.945H175.9v14.7Z"/><path class="cls-1" d="M221.1,41.9a10.373,10.373,0,0,1-5.75-1.6,10.139,10.139,0,0,1-4-4.367,13.9,13.9,0,0,1-1.455-6.26V28.654a14.344,14.344,0,0,1,1.383-6.478,11.718,11.718,0,0,1,3.857-4.512,9.606,9.606,0,0,1,5.386-1.675,8.822,8.822,0,0,1,7.206,3.13c1.747,2.038,2.693,4.877,2.693,8.516v1.529H212.583v.509a10.5,10.5,0,0,0,2.4,7.06,7.656,7.656,0,0,0,6.114,2.839,9.706,9.706,0,0,0,3.93-.8,7.4,7.4,0,0,0,3.057-2.62l1.747,1.31A9.907,9.907,0,0,1,221.1,41.9Zm-.51-23.582a6.728,6.728,0,0,0-5.24,2.256,10.725,10.725,0,0,0-2.621,6.114h14.994V26.4a9.171,9.171,0,0,0-2.038-5.9A6.606,6.606,0,0,0,220.589,18.319Z"/><path class="cls-1" d="M259.6,18.755a15.517,15.517,0,0,0-1.892-.145,6.721,6.721,0,0,0-4.367,1.455,7.886,7.886,0,0,0-2.548,4.222V41.464h-2.766V16.426h2.693l.073,4a7.29,7.29,0,0,1,7.06-4.44,4.116,4.116,0,0,1,1.82.292Z"/><path class="cls-1" d="M285.514,41.9a10.373,10.373,0,0,1-5.75-1.6,10.13,10.13,0,0,1-4-4.367,13.888,13.888,0,0,1-1.456-6.26V28.654a14.358,14.358,0,0,1,1.383-6.478,11.718,11.718,0,0,1,3.857-4.512,9.606,9.606,0,0,1,5.387-1.675,8.82,8.82,0,0,1,7.2,3.13c1.747,2.038,2.693,4.877,2.693,8.516v1.529H277v.509a10.509,10.509,0,0,0,2.4,7.06,7.656,7.656,0,0,0,6.114,2.839,9.7,9.7,0,0,0,3.93-.8,7.4,7.4,0,0,0,3.057-2.62l1.747,1.31A9.906,9.906,0,0,1,285.514,41.9ZM285,18.319a6.729,6.729,0,0,0-5.24,2.256,11.225,11.225,0,0,0-2.62,6.114h14.993V26.4a9.165,9.165,0,0,0-2.038-5.9A6.5,6.5,0,0,0,285,18.319Z"/><path class="cls-1" d="M328.6,38.262c-1.674,2.4-4.294,3.639-7.934,3.639a7.681,7.681,0,0,1-6.041-2.329c-1.383-1.529-2.111-3.858-2.111-6.842v-16.3h2.766v15.94c0,4.731,1.893,7.133,5.75,7.133,4,0,6.551-1.674,7.57-4.949V16.426h2.766V41.392H328.6Z"/><path class="cls-1" d="M353.277,16.426l.073,4.076a9.247,9.247,0,0,1,8.079-4.585c3.931,0,6.478,1.6,7.5,4.876a9.319,9.319,0,0,1,3.567-3.566,9.614,9.614,0,0,1,4.949-1.238c5.386,0,8.079,2.912,8.225,8.808V41.464H382.9V24.942a7.3,7.3,0,0,0-1.456-4.949c-.946-1.092-2.475-1.6-4.658-1.6a7.034,7.034,0,0,0-5.022,1.966,6.623,6.623,0,0,0-2.257,4.585V41.464h-2.766V24.724a6.8,6.8,0,0,0-1.528-4.8,6.251,6.251,0,0,0-4.586-1.6,7.436,7.436,0,0,0-4.512,1.455,8.793,8.793,0,0,0-2.766,4.44V41.319h-2.766V16.426Z"/><path class="cls-1" d="M118.807,86.584A7.81,7.81,0,0,0,124,84.866a6.133,6.133,0,0,0,2.286-4.5l2.845.015a8.375,8.375,0,0,1-1.557,4.456,9.591,9.591,0,0,1-3.763,3.135,11.285,11.285,0,0,1-5.014,1.112,10.338,10.338,0,0,1-8.329-3.7q-3.06-3.677-3.029-9.86l0-.89a16.732,16.732,0,0,1,1.421-6.993,10.677,10.677,0,0,1,3.994-4.679,10.956,10.956,0,0,1,6.056-1.626,10.318,10.318,0,0,1,7.246,2.659,9.556,9.556,0,0,1,3.019,6.916l-2.844-.015a7.16,7.16,0,0,0-7.434-7.037,7.377,7.377,0,0,0-6.235,2.862q-2.229,2.882-2.255,8.1l0,.866q-.026,5.12,2.173,8A7.432,7.432,0,0,0,118.807,86.584Z"/><path class="cls-1" d="M148.594,88.74l-2.968-.015.194-37.991,2.968.015Z"/><path class="cls-1" d="M183.808,88.92a13.982,13.982,0,0,1-.549-3.737,10.319,10.319,0,0,1-3.986,3.108,12.171,12.171,0,0,1-5.113,1.074,8.969,8.969,0,0,1-6.235-2.183,7.006,7.006,0,0,1-2.358-5.454,7.158,7.158,0,0,1,3.284-6.166q3.263-2.26,9.076-2.23l5.367.027.016-3.042a5.861,5.861,0,0,0-1.745-4.522,7.313,7.313,0,0,0-5.149-1.672,8.076,8.076,0,0,0-5.128,1.557,4.7,4.7,0,0,0-2.048,3.8l-2.968-.039a6.882,6.882,0,0,1,3-5.513,11.425,11.425,0,0,1,7.308-2.3,10.422,10.422,0,0,1,7.05,2.274,8.037,8.037,0,0,1,2.627,6.259l-.065,12.664a15.7,15.7,0,0,0,.787,5.816l0,.3Zm-9.289-2.175a9.932,9.932,0,0,0,5.313-1.407,8.444,8.444,0,0,0,3.421-3.816l.03-5.887-5.293-.027a13.268,13.268,0,0,0-6.934,1.584,4.864,4.864,0,0,0-2.52,4.3,4.782,4.782,0,0,0,1.65,3.743A6.29,6.29,0,0,0,174.519,86.745Z"/><path class="cls-1" d="M220.393,82.306a4.22,4.22,0,0,0-1.751-3.547,13.639,13.639,0,0,0-5.319-2.117,24.037,24.037,0,0,1-5.519-1.759,7.362,7.362,0,0,1-2.906-2.4,5.954,5.954,0,0,1-.935-3.418,6.369,6.369,0,0,1,2.673-5.218,10.689,10.689,0,0,1,6.788-2.031,11,11,0,0,1,7.173,2.251,7.1,7.1,0,0,1,2.679,5.789l-2.968-.015a4.791,4.791,0,0,0-1.946-3.918,8.874,8.874,0,0,0-9.645-.309,4.011,4.011,0,0,0-1.786,3.367,3.652,3.652,0,0,0,1.456,3.111,15.57,15.57,0,0,0,5.357,2.044,25.214,25.214,0,0,1,5.827,1.984,7.56,7.56,0,0,1,2.869,2.512,6.869,6.869,0,0,1-1.839,8.945,11.675,11.675,0,0,1-7.146,1.991,11.988,11.988,0,0,1-7.57-2.3,6.966,6.966,0,0,1-2.876-5.74l2.968.015a5.144,5.144,0,0,0,2.168,4.055,8.949,8.949,0,0,0,5.323,1.475,8.411,8.411,0,0,0,5-1.336A4.079,4.079,0,0,0,220.393,82.306Z"/><path class="cls-1" d="M256.324,82.489a4.219,4.219,0,0,0-1.751-3.546,13.639,13.639,0,0,0-5.319-2.117,23.982,23.982,0,0,1-5.519-1.76,7.359,7.359,0,0,1-2.906-2.4,5.95,5.95,0,0,1-.935-3.419,6.364,6.364,0,0,1,2.673-5.217A10.689,10.689,0,0,1,249.355,62a11,11,0,0,1,7.173,2.251,7.1,7.1,0,0,1,2.679,5.789l-2.968-.015a4.79,4.79,0,0,0-1.946-3.918,8.877,8.877,0,0,0-9.645-.31,4.01,4.01,0,0,0-1.786,3.368,3.649,3.649,0,0,0,1.456,3.111,15.552,15.552,0,0,0,5.357,2.043A25.238,25.238,0,0,1,255.5,76.3a7.56,7.56,0,0,1,2.869,2.512,6.869,6.869,0,0,1-1.839,8.945,11.675,11.675,0,0,1-7.146,1.991,11.985,11.985,0,0,1-7.569-2.3,6.968,6.968,0,0,1-2.878-5.74l2.968.015a5.147,5.147,0,0,0,2.169,4.055,8.941,8.941,0,0,0,5.322,1.474,8.4,8.4,0,0,0,5-1.335A4.081,4.081,0,0,0,256.324,82.489Z"/><path class="cls-1" d="M276.2,54.9a1.985,1.985,0,0,1,.552-1.411,1.942,1.942,0,0,1,1.487-.57,1.942,1.942,0,0,1,2.043,2,1.919,1.919,0,0,1-.564,1.4,2,2,0,0,1-1.5.557,1.959,1.959,0,0,1-1.481-.573A1.938,1.938,0,0,1,276.2,54.9Zm3.312,34.509-2.969-.016.137-26.761,2.968.015Z"/><path class="cls-1" d="M307.733,87.551a7.818,7.818,0,0,0,5.191-1.718,6.135,6.135,0,0,0,2.286-4.5l2.844.015A8.374,8.374,0,0,1,316.5,85.8a9.594,9.594,0,0,1-3.764,3.135,11.3,11.3,0,0,1-5.014,1.112,10.337,10.337,0,0,1-8.329-3.7q-3.06-3.675-3.029-9.859l0-.891a16.731,16.731,0,0,1,1.421-6.992,10.665,10.665,0,0,1,3.994-4.679,10.963,10.963,0,0,1,6.056-1.627,10.32,10.32,0,0,1,7.245,2.659,9.564,9.564,0,0,1,3.02,6.917l-2.845-.015a7.162,7.162,0,0,0-7.433-7.038,7.382,7.382,0,0,0-6.235,2.862q-2.23,2.883-2.256,8.1l0,.865q-.027,5.119,2.173,8A7.43,7.43,0,0,0,307.733,87.551Z"/><path class="cls-2" d="M80.878,51.776l-.011,2.266a3.54,3.54,0,0,0-.521.509Q69.183,71.042,58.033,87.541l-3.021-.016q-10.048-15.2-20.106-30.4A17.058,17.058,0,0,0,32.522,53.8l.012-2.267a3.539,3.539,0,0,0,.521-.509Q44.218,34.528,55.367,18.03l3.022.015q10.048,15.2,20.106,30.4A17.156,17.156,0,0,0,80.878,51.776Zm-11.43,8.57c-3.784,1.805-7.592,3.562-11.338,5.444a2.869,2.869,0,0,1-2.953-.016c-3.726-1.919-7.516-3.716-11.282-5.558-.078-.074-.206-.222-.226-.209-.233.155-.1.271.062.376Q49.8,69.695,55.886,79.01c.489.751.862.755,1.36.008q6.171-9.26,12.366-18.5c.158-.1.3-.219.065-.375C69.656,60.127,69.527,60.274,69.448,60.346Zm.078-14.991c.078.073.2.221.226.208.233-.155.095-.271-.062-.376Q63.6,35.875,57.515,26.56c-.489-.75-.863-.754-1.36-.008q-6.171,9.26-12.366,18.5c-.159.1-.3.218-.065.375.02.014.15-.133.228-.206,3.785-1.8,7.593-3.562,11.339-5.443a2.865,2.865,0,0,1,2.952.015C61.97,41.716,65.76,43.512,69.526,45.355ZM41.285,52.707c3.657,1.847,7.11,3.23,10.164,5.226,3.629,2.373,6.779,2.412,10.439.061,3.071-1.972,6.544-3.317,10.227-5.131-3.656-1.846-7.11-3.229-10.163-5.226-3.629-2.372-6.779-2.411-10.44-.061C48.442,49.548,44.968,50.893,41.285,52.707Z"/></svg>