<svg data-name="-e-logo_etc_top" xmlns="http://www.w3.org/2000/svg" width="85.062" height="30"><path data-name="Прямоугольник, скругл. углы 4" d="M8.44.15a1.1 1.1 0 0 1 1.5.44l7.911 13.823a1.124 1.124 0 0 1-.375 1.534 1.1 1.1 0 0 1-1.5-.44L8.065 1.685A1.124 1.124 0 0 1 8.44.15zm1.12 0a1.1 1.1 0 0 0-1.5.44L.15 14.413a1.124 1.124 0 0 0 .374 1.534 1.1 1.1 0 0 0 1.5-.44l7.91-13.823A1.124 1.124 0 0 0 9.56.15zm-1.5 9.863a1.107 1.107 0 0 1 1.511-.348l7.841 4.466a1.076 1.076 0 0 1 .45 1.465 1.107 1.107 0 0 1-1.511.348L8.51 11.478a1.076 1.076 0 0 1-.451-1.464zm1.882 0a1.107 1.107 0 0 0-1.511-.348L.59 14.131a1.076 1.076 0 0 0-.45 1.465 1.107 1.107 0 0 0 1.511.348l7.841-4.466a1.076 1.076 0 0 0 .449-1.464zM8.44 29.85a1.1 1.1 0 0 0 1.5-.44l7.911-13.823a1.124 1.124 0 0 0-.375-1.534 1.1 1.1 0 0 0-1.5.44L8.065 28.315a1.124 1.124 0 0 0 .375 1.535zm1.12 0a1.1 1.1 0 0 1-1.5-.44L.15 15.587a1.124 1.124 0 0 1 .374-1.534 1.1 1.1 0 0 1 1.5.44l7.91 13.822a1.124 1.124 0 0 1-.374 1.535zm-1.5-9.864a1.107 1.107 0 0 0 1.511.348l7.841-4.466a1.076 1.076 0 0 0 .45-1.465 1.107 1.107 0 0 0-1.511-.348L8.51 18.521a1.076 1.076 0 0 0-.451 1.465zm1.882 0a1.107 1.107 0 0 1-1.511.348L.59 15.868a1.076 1.076 0 0 1-.45-1.465 1.107 1.107 0 0 1 1.511-.348l7.841 4.466a1.076 1.076 0 0 1 .449 1.465z" fill-rule="evenodd" fill="#4ad7a7"/><path data-name="ethereum classic" d="M31.911 10.271a.764.764 0 0 0-.315.091q-.189.091-.231.119a6.5 6.5 0 0 1-.8.364 2.576 2.576 0 0 1-.9.14q-1.946 0-2.086-2.171h4.326a.472.472 0 0 0 .5-.56 3.416 3.416 0 0 0-.8-2.381 2.779 2.779 0 0 0-2.17-.882 3.25 3.25 0 0 0-1.7.448 3.044 3.044 0 0 0-1.162 1.26 4.058 4.058 0 0 0-.413 1.863 3.509 3.509 0 0 0 .938 2.584 3.447 3.447 0 0 0 2.562.945 4.338 4.338 0 0 0 1.113-.154 4.42 4.42 0 0 0 1.071-.434.805.805 0 0 0 .5-.686.6.6 0 0 0-.126-.392.4.4 0 0 0-.322-.154zm-2.436-4.244a1.548 1.548 0 0 1 1.239.511A2.341 2.341 0 0 1 31.2 8h-3.612a2.43 2.43 0 0 1 .588-1.457 1.709 1.709 0 0 1 1.3-.518zm7.77 4.958l-.392-.028a1.182 1.182 0 0 1-.833-.35 1.43 1.43 0 0 1-.273-.966v-3.39h1.386a.671.671 0 0 0 .455-.14.584.584 0 0 0 0-.805.651.651 0 0 0-.455-.147h-1.386V3.717a.654.654 0 0 0-.2-.5.73.73 0 0 0-.518-.182.708.708 0 0 0-.511.182.668.668 0 0 0-.189.5v1.442h-.84a.652.652 0 0 0-.455.147.557.557 0 0 0 .455.945h.84v3.291a2.576 2.576 0 0 0 .56 1.8 2.453 2.453 0 0 0 1.694.693l.378.028a1.013 1.013 0 0 0 .637-.119.483.483 0 0 0 .217-.427.5.5 0 0 0-.133-.371.7.7 0 0 0-.441-.161zm5.292-5.994a2.855 2.855 0 0 0-1.344.308 2.344 2.344 0 0 0-.938.9v-3.5a.609.609 0 0 0-.189-.469.7.7 0 0 0-.5-.175.758.758 0 0 0-.525.182.627.627 0 0 0-.2.49v8.669a.635.635 0 0 0 .2.49.734.734 0 0 0 .518.182.706.706 0 0 0 .511-.182.649.649 0 0 0 .189-.49V8.1a1.962 1.962 0 0 1 .518-1.428 1.828 1.828 0 0 1 1.372-.532 1.349 1.349 0 0 1 1.071.392 1.841 1.841 0 0 1 .343 1.232v3.627a.649.649 0 0 0 .189.49.706.706 0 0 0 .511.182.73.73 0 0 0 .518-.182.635.635 0 0 0 .2-.49V7.75q0-2.759-2.436-2.759zm9.716 5.28a.764.764 0 0 0-.315.091q-.189.091-.231.119a6.5 6.5 0 0 1-.8.364 2.58 2.58 0 0 1-.9.14q-1.946 0-2.086-2.171h4.326a.472.472 0 0 0 .5-.56 3.416 3.416 0 0 0-.8-2.381 2.779 2.779 0 0 0-2.17-.882 3.247 3.247 0 0 0-1.7.448 3.038 3.038 0 0 0-1.162 1.26 4.058 4.058 0 0 0-.413 1.863 3.509 3.509 0 0 0 .938 2.584 3.446 3.446 0 0 0 2.562.945 4.338 4.338 0 0 0 1.113-.154A4.436 4.436 0 0 0 52.2 11.5a.805.805 0 0 0 .5-.686.6.6 0 0 0-.126-.392.4.4 0 0 0-.322-.154zm-2.436-4.244a1.548 1.548 0 0 1 1.239.511A2.341 2.341 0 0 1 51.539 8h-3.612a2.417 2.417 0 0 1 .588-1.457 1.709 1.709 0 0 1 1.3-.518zm8.078-1.008l-.2.014a2.73 2.73 0 0 0-1.2.378 2.058 2.058 0 0 0-.812.938v-.672a.627.627 0 0 0-.189-.483.664.664 0 0 0-.469-.175.755.755 0 0 0-.511.175.622.622 0 0 0-.2.5v5.7a.618.618 0 0 0 .2.5.774.774 0 0 0 .511.168.748.748 0 0 0 .5-.168.627.627 0 0 0 .2-.5v-3.21a1.993 1.993 0 0 1 .427-1.289 1.813 1.813 0 0 1 1.309-.616l.42-.042a.83.83 0 0 0 .532-.182.626.626 0 0 0 .154-.462.534.534 0 0 0-.672-.574zm6.748 5.252a.764.764 0 0 0-.315.091q-.189.091-.231.119a6.5 6.5 0 0 1-.8.364 2.58 2.58 0 0 1-.9.14q-1.946 0-2.086-2.171h4.326a.472.472 0 0 0 .5-.56 3.416 3.416 0 0 0-.8-2.381 2.779 2.779 0 0 0-2.17-.882 3.247 3.247 0 0 0-1.7.448 3.038 3.038 0 0 0-1.162 1.26 4.058 4.058 0 0 0-.413 1.863 3.509 3.509 0 0 0 .938 2.584 3.446 3.446 0 0 0 2.562.945 4.338 4.338 0 0 0 1.113-.154 4.436 4.436 0 0 0 1.071-.434.805.805 0 0 0 .5-.686.6.6 0 0 0-.126-.392.4.4 0 0 0-.322-.154zm-2.436-4.244a1.548 1.548 0 0 1 1.239.511A2.341 2.341 0 0 1 63.929 8h-3.612a2.417 2.417 0 0 1 .588-1.457 1.709 1.709 0 0 1 1.3-.518zm9.786-1.008a.714.714 0 0 0-.518.189.658.658 0 0 0-.2.5V9a1.991 1.991 0 0 1-.5 1.415 1.723 1.723 0 0 1-1.323.532 1.29 1.29 0 0 1-1.036-.392 1.844 1.844 0 0 1-.336-1.218V5.705a.668.668 0 0 0-.189-.5.706.706 0 0 0-.511-.182.726.726 0 0 0-.525.182.668.668 0 0 0-.189.5v3.641q0 2.745 2.492 2.745a2.608 2.608 0 0 0 1.267-.308 2.194 2.194 0 0 0 .889-.9v.532a.622.622 0 0 0 .182.469.657.657 0 0 0 .476.175.732.732 0 0 0 .518-.182.618.618 0 0 0 .2-.476v-5.7a.668.668 0 0 0-.189-.5.706.706 0 0 0-.511-.182zm10.514-.028a2.635 2.635 0 0 0-1.372.357 2.33 2.33 0 0 0-.91.959 1.929 1.929 0 0 0-.763-.994 2.391 2.391 0 0 0-1.295-.322 2.522 2.522 0 0 0-1.26.308 2.14 2.14 0 0 0-.854.9v-.522a.627.627 0 0 0-.189-.483.683.683 0 0 0-.483-.175.744.744 0 0 0-.5.182.616.616 0 0 0-.21.49v5.7a.618.618 0 0 0 .2.5.753.753 0 0 0 .511.175.729.729 0 0 0 .5-.175.634.634 0 0 0 .2-.5V8.1a2.116 2.116 0 0 1 .455-1.436 1.537 1.537 0 0 1 1.225-.525 1.165 1.165 0 0 1 .966.385 1.992 1.992 0 0 1 .308 1.239v3.627a.63.63 0 0 0 .2.5.726.726 0 0 0 .5.175.75.75 0 0 0 .518-.175.634.634 0 0 0 .2-.5V8.1a2.139 2.139 0 0 1 .448-1.436 1.516 1.516 0 0 1 1.218-.525 1.165 1.165 0 0 1 .966.385 1.992 1.992 0 0 1 .308 1.239v3.627a.63.63 0 0 0 .2.5.726.726 0 0 0 .5.175.75.75 0 0 0 .518-.175.634.634 0 0 0 .2-.5V7.75q0-2.759-2.3-2.759zm-53.018 21.1a4.261 4.261 0 0 0 1.134-.154 3.348 3.348 0 0 0 .98-.434 1.245 1.245 0 0 0 .357-.329.64.64 0 0 0 .105-.357.628.628 0 0 0-.126-.4.391.391 0 0 0-.322-.161.688.688 0 0 0-.28.07 2.621 2.621 0 0 0-.308.168 3.978 3.978 0 0 1-.658.336 2.022 2.022 0 0 1-.742.126 1.8 1.8 0 0 1-1.47-.623 2.7 2.7 0 0 1-.518-1.772 2.763 2.763 0 0 1 .525-1.793 1.8 1.8 0 0 1 1.477-.644 1.964 1.964 0 0 1 .721.119 3.856 3.856 0 0 1 .651.343 3.663 3.663 0 0 0 .322.189.559.559 0 0 0 .252.063.391.391 0 0 0 .322-.161.627.627 0 0 0 .126-.4.871.871 0 0 0-.448-.714 3.664 3.664 0 0 0-.959-.42 3.883 3.883 0 0 0-1.071-.154 3.44 3.44 0 0 0-1.764.448 3.093 3.093 0 0 0-1.2 1.26 4.341 4.341 0 0 0-.014 3.725 2.97 2.97 0 0 0 1.162 1.233 3.416 3.416 0 0 0 1.743.434zm7.63-.028a.748.748 0 0 0 .5-.168.627.627 0 0 0 .2-.5v-8.659a.649.649 0 0 0-.2-.511.729.729 0 0 0-.5-.175.755.755 0 0 0-.511.175.639.639 0 0 0-.2.511v8.655a.618.618 0 0 0 .2.5.775.775 0 0 0 .511.168zm8.624-7.073a5.361 5.361 0 0 0-1.274.161 4.8 4.8 0 0 0-1.148.427 1.259 1.259 0 0 0-.385.315.61.61 0 0 0-.119.371.576.576 0 0 0 .133.392.432.432 0 0 0 .343.154 1.371 1.371 0 0 0 .532-.21 6.946 6.946 0 0 1 .952-.364 3.3 3.3 0 0 1 .924-.126 1.349 1.349 0 0 1 1.036.35 1.646 1.646 0 0 1 .322 1.134V22h-.322a12.81 12.81 0 0 0-2.443.182 2.3 2.3 0 0 0-1.274.609 1.681 1.681 0 0 0-.385 1.169 1.978 1.978 0 0 0 .315 1.092 2.117 2.117 0 0 0 .875.763 2.771 2.771 0 0 0 1.232.273 2.333 2.333 0 0 0 1.225-.315 1.968 1.968 0 0 0 .791-.9v.518a.628.628 0 0 0 .672.672.7.7 0 0 0 .5-.175.659.659 0 0 0 .182-.5v-3.624a2.9 2.9 0 0 0-.665-2.087 2.7 2.7 0 0 0-2.023-.686zm-.434 6.05a1.323 1.323 0 0 1-.91-.322 1.052 1.052 0 0 1-.364-.826.858.858 0 0 1 .252-.665 1.649 1.649 0 0 1 .84-.329 10.922 10.922 0 0 1 1.68-.1h.252v.364a1.9 1.9 0 0 1-.49 1.352 1.647 1.647 0 0 1-1.26.525zm10.514 1.05a3.4 3.4 0 0 0 2.037-.553 1.725 1.725 0 0 0 .763-1.464 1.542 1.542 0 0 0-.994-1.569 6.819 6.819 0 0 0-1.47-.448 4.018 4.018 0 0 1-1.239-.413.688.688 0 0 1-.329-.609.8.8 0 0 1 .357-.686 1.606 1.606 0 0 1 .945-.252 2.309 2.309 0 0 1 .819.126 4.724 4.724 0 0 1 .707.35 3.318 3.318 0 0 0 .336.182.613.613 0 0 0 .252.056.4.4 0 0 0 .315-.154.561.561 0 0 0 .133-.378.868.868 0 0 0-.462-.714 3.1 3.1 0 0 0-.938-.427 4.085 4.085 0 0 0-1.092-.147 3.5 3.5 0 0 0-1.4.266 2.271 2.271 0 0 0-.966.749 1.8 1.8 0 0 0-.35 1.086 1.535 1.535 0 0 0 .539 1.239 4.145 4.145 0 0 0 1.771.721 8.771 8.771 0 0 1 1.078.287 1.254 1.254 0 0 1 .511.3.657.657 0 0 1 .147.448.752.752 0 0 1-.378.672 1.963 1.963 0 0 1-1.05.238 3.055 3.055 0 0 1-1-.14 5.879 5.879 0 0 1-.819-.364 1.387 1.387 0 0 0-.574-.224.4.4 0 0 0-.322.154.578.578 0 0 0-.126.378.7.7 0 0 0 .1.378 1.064 1.064 0 0 0 .357.322 4.234 4.234 0 0 0 2.338.588zm9.828 0a3.4 3.4 0 0 0 2.037-.553 1.725 1.725 0 0 0 .763-1.464 1.542 1.542 0 0 0-.994-1.569 6.819 6.819 0 0 0-1.47-.448 4.018 4.018 0 0 1-1.239-.413.688.688 0 0 1-.329-.609.8.8 0 0 1 .357-.686 1.606 1.606 0 0 1 .945-.252 2.309 2.309 0 0 1 .819.126 4.724 4.724 0 0 1 .707.35 3.318 3.318 0 0 0 .336.182.613.613 0 0 0 .252.056.4.4 0 0 0 .315-.154.561.561 0 0 0 .133-.378.868.868 0 0 0-.462-.714 3.1 3.1 0 0 0-.938-.427 4.085 4.085 0 0 0-1.092-.147 3.5 3.5 0 0 0-1.4.266 2.271 2.271 0 0 0-.966.749 1.8 1.8 0 0 0-.35 1.086 1.535 1.535 0 0 0 .539 1.239 4.145 4.145 0 0 0 1.771.721 8.771 8.771 0 0 1 1.078.287 1.254 1.254 0 0 1 .511.3.657.657 0 0 1 .147.448.752.752 0 0 1-.378.672 1.963 1.963 0 0 1-1.05.238 3.055 3.055 0 0 1-1-.14 5.879 5.879 0 0 1-.819-.364 1.387 1.387 0 0 0-.574-.224.4.4 0 0 0-.322.154.578.578 0 0 0-.126.378.7.7 0 0 0 .1.378 1.064 1.064 0 0 0 .357.322 4.234 4.234 0 0 0 2.338.588zm8.162-.028a.748.748 0 0 0 .5-.168.63.63 0 0 0 .2-.5v-5.689a.652.652 0 0 0-.2-.511.73.73 0 0 0-.5-.175.753.753 0 0 0-.511.175.636.636 0 0 0-.2.511v5.686a.615.615 0 0 0 .2.5.773.773 0 0 0 .511.168zm0-8.417a.9.9 0 0 0 .644-.224.772.772 0 0 0 .238-.588.739.739 0 0 0-.245-.581 1.053 1.053 0 0 0-1.281 0 .748.748 0 0 0-.238.581.769.769 0 0 0 .238.588.9.9 0 0 0 .644.224zm8.68 8.445a4.272 4.272 0 0 0 1.134-.154 3.36 3.36 0 0 0 .98-.434 1.258 1.258 0 0 0 .357-.329.648.648 0 0 0 .1-.357.628.628 0 0 0-.126-.4.393.393 0 0 0-.322-.161.684.684 0 0 0-.28.07 2.47 2.47 0 0 0-.308.168 4.018 4.018 0 0 1-.658.336 2.026 2.026 0 0 1-.742.126 1.8 1.8 0 0 1-1.47-.623 2.7 2.7 0 0 1-.518-1.772 2.763 2.763 0 0 1 .525-1.793 1.8 1.8 0 0 1 1.477-.644 1.964 1.964 0 0 1 .721.119 3.933 3.933 0 0 1 .651.343 3.522 3.522 0 0 0 .322.189.559.559 0 0 0 .252.063.392.392 0 0 0 .322-.161.627.627 0 0 0 .126-.4.873.873 0 0 0-.448-.714 3.671 3.671 0 0 0-.96-.42 3.881 3.881 0 0 0-1.07-.154 3.44 3.44 0 0 0-1.764.448 3.08 3.08 0 0 0-1.2 1.26 4.332 4.332 0 0 0-.014 3.725 2.958 2.958 0 0 0 1.162 1.233 3.411 3.411 0 0 0 1.743.434z" fill="#333" fill-rule="evenodd"/></svg>
