<svg id="Layer_1" data-name="Layer 1" xmlns="http://www.w3.org/2000/svg" viewBox="0 0 425 106"><defs><style>.cls-1{fill:#fff;}</style></defs><title>classic_logo</title><path class="cls-1" d="M124.947,72.479a10.032,10.032,0,0,0,6.65-2.238,7.874,7.874,0,0,0,2.9-5.792h3.65a10.753,10.753,0,0,1-1.967,5.729,12.32,12.32,0,0,1-4.809,4.047,14.494,14.494,0,0,1-6.427,1.46,13.267,13.267,0,0,1-10.712-4.7q-3.949-4.7-3.951-12.632V57.213a21.45,21.45,0,0,1,1.778-8.982,13.688,13.688,0,0,1,5.093-6.03,14.061,14.061,0,0,1,7.761-2.127,13.242,13.242,0,0,1,9.314,3.364,12.265,12.265,0,0,1,3.92,8.855H134.5a9.188,9.188,0,0,0-9.584-8.981,9.467,9.467,0,0,0-7.982,3.713q-2.841,3.712-2.841,10.411v1.11q0,6.57,2.841,10.252A9.532,9.532,0,0,0,124.947,72.479Z"/><path class="cls-1" d="M163.184,75.05h-3.809V26.3h3.809Z"/><path class="cls-1" d="M208.371,75.05a17.958,17.958,0,0,1-.73-4.792,13.237,13.237,0,0,1-5.094,4.014,15.6,15.6,0,0,1-6.554,1.413,11.511,11.511,0,0,1-8.014-2.761,8.994,8.994,0,0,1-3.062-6.983,9.191,9.191,0,0,1,4.173-7.934q4.173-2.92,11.632-2.921h6.887v-3.9a7.522,7.522,0,0,0-2.269-5.792q-2.27-2.112-6.617-2.111a10.357,10.357,0,0,0-6.57,2.031,6.034,6.034,0,0,0-2.6,4.888l-3.808-.032a8.833,8.833,0,0,1,3.808-7.094,14.668,14.668,0,0,1,9.363-3q5.745,0,9.061,2.872a10.308,10.308,0,0,1,3.412,8.014V67.211a20.132,20.132,0,0,0,1.048,7.458v.381Zm-11.933-2.73a12.745,12.745,0,0,0,6.808-1.841,10.826,10.826,0,0,0,4.363-4.918V58.007h-6.792q-5.68.063-8.886,2.078a6.24,6.24,0,0,0-3.206,5.539,6.137,6.137,0,0,0,2.143,4.792A8.065,8.065,0,0,0,196.438,72.32Z"/><path class="cls-1" d="M255.272,66.322A5.413,5.413,0,0,0,253,61.783a17.5,17.5,0,0,0-6.839-2.681,30.851,30.851,0,0,1-7.093-2.222,9.442,9.442,0,0,1-3.745-3.063,7.638,7.638,0,0,1-1.222-4.38,8.166,8.166,0,0,1,3.4-6.712,13.712,13.712,0,0,1,8.7-2.651q5.744,0,9.22,2.841a9.117,9.117,0,0,1,3.475,7.411h-3.808a6.149,6.149,0,0,0-2.524-5.015,11.391,11.391,0,0,0-12.378-.333,5.141,5.141,0,0,0-2.269,4.332,4.684,4.684,0,0,0,1.888,3.983q1.888,1.413,6.888,2.587a32.363,32.363,0,0,1,7.49,2.508,9.706,9.706,0,0,1,3.7,3.205,8.815,8.815,0,0,1-2.3,11.489,14.987,14.987,0,0,1-9.157,2.6,15.377,15.377,0,0,1-9.728-2.905,8.936,8.936,0,0,1-3.729-7.346h3.809a6.6,6.6,0,0,0,2.809,5.188,11.478,11.478,0,0,0,6.839,1.857,10.789,10.789,0,0,0,6.411-1.746A5.237,5.237,0,0,0,255.272,66.322Z"/><path class="cls-1" d="M301.379,66.322a5.413,5.413,0,0,0-2.27-4.539A17.5,17.5,0,0,0,292.27,59.1a30.851,30.851,0,0,1-7.093-2.222,9.442,9.442,0,0,1-3.745-3.063,7.631,7.631,0,0,1-1.223-4.38,8.169,8.169,0,0,1,3.4-6.712,13.717,13.717,0,0,1,8.7-2.651q5.743,0,9.219,2.841A9.115,9.115,0,0,1,305,50.326h-3.809a6.148,6.148,0,0,0-2.523-5.015,11.391,11.391,0,0,0-12.378-.333,5.141,5.141,0,0,0-2.269,4.332,4.682,4.682,0,0,0,1.888,3.983q1.889,1.413,6.888,2.587a32.363,32.363,0,0,1,7.49,2.508,9.7,9.7,0,0,1,3.7,3.205,8.812,8.812,0,0,1-2.3,11.489,14.989,14.989,0,0,1-9.158,2.6A15.376,15.376,0,0,1,282.8,72.78a8.937,8.937,0,0,1-3.73-7.346h3.809a6.6,6.6,0,0,0,2.81,5.188,11.472,11.472,0,0,0,6.838,1.857,10.8,10.8,0,0,0,6.413-1.746A5.238,5.238,0,0,0,301.379,66.322Z"/><path class="cls-1" d="M326.7,30.791a2.55,2.55,0,0,1,.7-1.814,2.49,2.49,0,0,1,1.9-.741,2.492,2.492,0,0,1,2.634,2.555,2.463,2.463,0,0,1-.714,1.8,2.574,2.574,0,0,1-1.92.726,2.517,2.517,0,0,1-1.9-.726A2.491,2.491,0,0,1,326.7,30.791Zm4.476,44.259h-3.809V40.709h3.809Z"/><path class="cls-1" d="M367.379,72.479a10.029,10.029,0,0,0,6.649-2.238,7.875,7.875,0,0,0,2.9-5.792h3.65a10.754,10.754,0,0,1-1.968,5.729,12.317,12.317,0,0,1-4.808,4.047,14.494,14.494,0,0,1-6.427,1.46,13.267,13.267,0,0,1-10.712-4.7q-3.951-4.7-3.951-12.632V57.213a21.466,21.466,0,0,1,1.777-8.982,13.7,13.7,0,0,1,5.094-6.03,14.061,14.061,0,0,1,7.761-2.127,13.244,13.244,0,0,1,9.314,3.364,12.273,12.273,0,0,1,3.92,8.855h-3.65a9.189,9.189,0,0,0-9.584-8.981,9.47,9.47,0,0,0-7.983,3.713q-2.841,3.712-2.841,10.411v1.11q0,6.57,2.841,10.252A9.536,9.536,0,0,0,367.379,72.479Z"/><path class="cls-1" d="M81.333,52.419v2.266a3.585,3.585,0,0,0-.518.512Q69.736,71.745,58.672,88.3H55.65Q45.524,73.15,35.389,58.006a17.114,17.114,0,0,0-2.4-3.321V52.419a3.645,3.645,0,0,0,.519-.512Q44.585,35.359,55.65,18.8h3.022Q68.8,33.954,78.933,49.1A17.067,17.067,0,0,0,81.333,52.419ZM69.947,61.048c-3.775,1.823-7.574,3.6-11.31,5.5a2.869,2.869,0,0,1-2.953,0c-3.736-1.9-7.535-3.678-11.311-5.5-.078-.073-.206-.221-.226-.207-.233.156-.095.271.063.375Q50.348,70.5,56.48,79.781c.493.748.867.75,1.361,0q6.123-9.291,12.27-18.566c.159-.1.3-.22.064-.375C70.154,60.827,70.026,60.975,69.947,61.048Zm0-14.992c.078.073.207.221.227.207.233-.156.094-.271-.064-.375q-6.138-9.28-12.27-18.565c-.492-.748-.866-.75-1.36,0Q50.358,36.613,44.21,45.887c-.158.1-.3.22-.063.376.02.014.149-.134.227-.207,3.775-1.824,7.575-3.6,11.311-5.5a2.865,2.865,0,0,1,2.952,0C62.374,42.456,66.173,44.232,69.948,46.056Zm-28.2,7.5c3.666,1.827,7.127,3.193,10.19,5.174,3.642,2.354,6.792,2.377,10.44.007,3.061-1.987,6.527-3.351,10.2-5.183-3.666-1.828-7.127-3.193-10.19-5.174-3.641-2.354-6.792-2.377-10.44-.008C48.886,50.357,45.419,51.72,41.745,53.553Z"/></svg>