<svg height="60" width="172" xmlns="http://www.w3.org/2000/svg"><g fill-rule="evenodd"><path d="m37.006 29.787c.007.071.009.141.009.213s-.002.142-.009.213c-.005.059-.015.117-.025.176a.376.376 0 0 0 -.005.033c-.002.006-.002.013-.003.02l-.012.048a1.977 1.977 0 0 1 -.239.702c-.029.048-.067.087-.098.132l-15.569 27.205a2.115 2.115 0 0 1 -.935 1.17c-.31.181-.647.262-.985.273-.045.004-.09 0-.135.001-.045-.001-.091.003-.136-.001a2.06 2.06 0 0 1 -.984-.273 2.11 2.11 0 0 1 -.935-1.17l-15.568-27.205c-.032-.045-.07-.084-.099-.132a1.927 1.927 0 0 1 -.24-.704l-.011-.047c-.001-.006-.001-.013-.003-.019a.376.376 0 0 0 -.005-.033c-.01-.059-.02-.117-.025-.176a2.142 2.142 0 0 1 -.009-.213c0-.072.002-.143.009-.213.005-.059.015-.117.025-.176a.376.376 0 0 0 .005-.033l.003-.019.011-.046c.036-.243.11-.482.24-.705.029-.049.067-.088.099-.133l15.568-27.204c.162-.479.474-.902.935-1.17a2.06 2.06 0 0 1 .984-.273c.045-.004.091 0 .136-.001.045.001.09-.003.136.001.337.011.674.092.984.273.461.268.773.691.935 1.17l15.568 27.204c.032.045.07.084.099.133a1.904 1.904 0 0 1 .239.702l.012.048.003.02a.376.376 0 0 0 .005.033c.01.059.02.117.025.176zm-18.006 23.577 10.227-17.87-9.087 5.175c-.048.027-.098.043-.147.066a2.305 2.305 0 0 1 -1.741.129 2.091 2.091 0 0 1 -.634-.333l-8.845-5.037zm0-46.728-10.227 17.87 9.087-5.175c.048-.027.098-.043.147-.066.084-.04.156-.1.245-.129l.024-.008c.061-.019.128-.017.19-.031.137-.034.273-.057.41-.067l.058-.003a2.186 2.186 0 0 1 1.449.442l1.332.759 7.512 4.278zm0 16.88-5.571 3.173-5.814 3.311 11.385 6.484 2.265-1.29 9.119-5.194z" fill="#4ad7a7"/><path d="m170.185 41.679c-.168 0-.336-.042-.504-.126a7.221 7.221 0 0 1 -.644-.378 7.742 7.742 0 0 0 -1.302-.686c-.402-.159-.882-.238-1.442-.238-1.27 0-2.254.429-2.954 1.288s-1.05 2.054-1.05 3.585c0 1.532.345 2.713 1.036 3.544.69.831 1.67 1.246 2.94 1.246.56 0 1.054-.084 1.484-.252a7.996 7.996 0 0 0 1.316-.672c.205-.131.41-.243.616-.336.205-.094.392-.14.56-.14.261 0 .476.107.644.322.168.214.252.481.252.798 0 .262-.07.5-.21.714-.14.215-.378.434-.714.659a6.752 6.752 0 0 1 -1.96.868 8.534 8.534 0 0 1 -2.268.308c-1.326 0-2.488-.289-3.486-.868-.999-.579-1.774-1.401-2.324-2.465-.551-1.065-.826-2.297-.826-3.698 0-1.418.284-2.67.854-3.753a6.173 6.173 0 0 1 2.394-2.521c1.026-.597 2.202-.896 3.528-.896.709 0 1.423.103 2.142.308a7.376 7.376 0 0 1 1.918.84c.597.411.896.887.896 1.429 0 .317-.084.583-.252.798a.783.783 0 0 1 -.644.322zm-1.007-17.552c-.411 0-.747-.117-1.008-.35-.262-.234-.393-.565-.393-.995v-7.254c0-1.139-.205-1.965-.616-2.479-.41-.514-1.054-.77-1.931-.77-1.027 0-1.839.35-2.436 1.05-.598.7-.896 1.657-.896 2.871v6.582c0 .43-.131.761-.392.995-.262.233-.607.35-1.037.35-.41 0-.746-.117-1.008-.35-.261-.234-.392-.565-.392-.995v-7.254c0-1.139-.205-1.965-.616-2.479-.41-.514-1.054-.77-1.931-.77-1.027 0-1.844.35-2.451 1.05-.606.7-.909 1.657-.909 2.871v6.582c0 .43-.131.761-.392.995-.262.233-.598.35-1.008.35-.411 0-.752-.117-1.022-.35-.271-.234-.406-.565-.406-.995v-11.4c0-.41.14-.737.42-.98s.616-.364 1.008-.364.714.117.965.35c.253.234.379.556.379.966v1.037c.41-.785.979-1.382 1.708-1.793.727-.41 1.567-.616 2.519-.616 1.046 0 1.909.215 2.59.644.682.43 1.191 1.092 1.527 1.989a4.666 4.666 0 0 1 1.82-1.919c.802-.476 1.717-.714 2.744-.714 3.061 0 4.592 1.839 4.592 5.518v7.282c0 .43-.131.761-.392.995-.262.233-.607.35-1.036.35zm-19.265 10.718c-.317.299-.746.448-1.288.448-.541 0-.97-.149-1.288-.448-.317-.299-.476-.691-.476-1.177 0-.485.159-.872.476-1.162.318-.29.747-.434 1.288-.434.523 0 .948.144 1.274.434.327.29.49.677.49 1.162 0 .486-.159.878-.476 1.177zm-4.955-10.718c-.392 0-.71-.117-.952-.35-.243-.234-.364-.547-.364-.939v-1.064a4.394 4.394 0 0 1 -1.778 1.793c-.756.411-1.601.616-2.534.616-3.323 0-4.984-1.83-4.984-5.49v-7.283c0-.429.126-.765.378-1.008s.602-.364 1.05-.364c.429 0 .77.121 1.022.364s.378.579.378 1.008v7.255c0 1.102.224 1.914.672 2.437s1.138.784 2.072.784c1.101 0 1.983-.354 2.646-1.064.662-.71.994-1.653.994-2.829v-6.583c0-.41.13-.742.392-.994.261-.252.606-.378 1.036-.378.429 0 .77.121 1.022.364s.378.579.378 1.008v11.4c0 .393-.131.71-.392.953-.262.242-.607.364-1.036.364zm-8.316 15.003c.616.411.924.887.924 1.429 0 .299-.089.551-.267.756-.177.206-.387.308-.629.308-.168 0-.336-.037-.504-.112a6.517 6.517 0 0 1 -.672-.364 9.404 9.404 0 0 0 -1.414-.7c-.439-.169-.985-.253-1.638-.253-.785 0-1.415.169-1.89.505-.477.336-.715.794-.715 1.372 0 .523.22.929.659 1.219.438.289 1.264.565 2.478.826 1.25.262 2.23.56 2.939.896.71.336 1.218.752 1.527 1.247.307.495.462 1.125.462 1.89 0 1.214-.509 2.19-1.526 2.927-1.018.738-2.376 1.107-4.074 1.107-1.904 0-3.463-.392-4.676-1.176-.336-.206-.575-.421-.714-.645a1.39 1.39 0 0 1 -.211-.756c0-.299.085-.551.253-.756a.793.793 0 0 1 .643-.309c.243 0 .626.15 1.149.449.56.299 1.105.541 1.638.728.531.187 1.199.28 2.001.28.896 0 1.597-.158 2.101-.476.504-.317.755-.766.755-1.345 0-.373-.097-.672-.294-.896-.196-.224-.536-.424-1.021-.602-.486-.177-1.205-.369-2.157-.574-1.642-.355-2.823-.836-3.542-1.443-.718-.606-1.078-1.433-1.078-2.479 0-.802.234-1.526.701-2.171.466-.644 1.11-1.143 1.931-1.498.822-.355 1.755-.532 2.801-.532a8.17 8.17 0 0 1 2.184.294 6.188 6.188 0 0 1 1.876.854zm-6.356-21.502h-8.652c.187 2.895 1.577 4.342 4.172 4.342.69 0 1.288-.093 1.792-.28a13.032 13.032 0 0 0 1.596-.728 5.11 5.11 0 0 1 .462-.238c.252-.122.462-.182.63-.182.261 0 .476.102.644.308.168.205.252.467.252.784 0 .542-.336.999-1.008 1.372a8.833 8.833 0 0 1 -2.142.869 8.704 8.704 0 0 1 -2.226.308c-2.165 0-3.873-.63-5.124-1.891-1.251-1.26-1.876-2.983-1.876-5.168 0-1.4.275-2.642.826-3.725s1.325-1.923 2.324-2.521c.999-.597 2.133-.896 3.402-.896 1.829 0 3.276.588 4.34 1.764 1.064 1.177 1.596 2.764 1.596 4.762 0 .747-.336 1.12-1.008 1.12zm-2.394-4.551c-.588-.682-1.414-1.022-2.478-1.022-1.083 0-1.951.345-2.604 1.036s-1.045 1.662-1.176 2.913h7.224c-.056-1.27-.378-2.245-.966-2.927zm-15.246 39.106c-1.904 0-3.463-.392-4.676-1.176-.336-.206-.574-.421-.714-.645a1.397 1.397 0 0 1 -.21-.756c0-.299.084-.551.252-.756a.794.794 0 0 1 .644-.309c.242 0 .625.15 1.148.449.56.299 1.106.541 1.638.728s1.199.28 2.002.28c.896 0 1.596-.158 2.1-.476.504-.317.756-.766.756-1.345 0-.373-.098-.672-.294-.896s-.537-.424-1.022-.602c-.486-.177-1.204-.369-2.156-.574-1.643-.355-2.824-.836-3.542-1.443-.719-.606-1.078-1.433-1.078-2.479 0-.802.233-1.526.7-2.171.466-.644 1.11-1.143 1.932-1.498.821-.355 1.754-.532 2.8-.532a8.17 8.17 0 0 1 2.184.294 6.188 6.188 0 0 1 1.876.854c.616.411.924.887.924 1.429 0 .299-.089.551-.266.756-.178.206-.388.308-.63.308-.168 0-.336-.037-.504-.112a6.517 6.517 0 0 1 -.672-.364 9.404 9.404 0 0 0 -1.414-.7c-.439-.169-.985-.253-1.638-.253-.784 0-1.414.169-1.89.505s-.714.794-.714 1.372c0 .523.219.929.658 1.219.438.289 1.264.565 2.478.826 1.25.262 2.23.56 2.94.896.709.336 1.218.752 1.526 1.247s.462 1.125.462 1.89c0 1.214-.509 2.19-1.526 2.927-1.018.738-2.376 1.107-4.074 1.107zm4.116-39.708-.84.084c-1.176.112-2.049.523-2.618 1.232-.57.71-.854 1.569-.854 2.577v6.414c0 .448-.131.785-.392 1.009-.262.224-.598.336-1.008.336-.411 0-.752-.112-1.022-.336-.271-.224-.406-.561-.406-1.009v-11.4c0-.429.135-.76.406-.994.27-.233.611-.35 1.022-.35.373 0 .686.117.938.35.252.234.378.556.378.966v1.345c.373-.822.914-1.447 1.624-1.877.709-.429 1.512-.681 2.408-.756l.392-.028c.896-.056 1.344.327 1.344 1.148 0 .411-.103.719-.308.924-.206.206-.56.327-1.064.365zm-11.256 5.153h-8.652c.187 2.895 1.578 4.342 4.172 4.342.691 0 1.288-.093 1.792-.28a13.032 13.032 0 0 0 1.596-.728 5.11 5.11 0 0 1 .462-.238c.252-.122.462-.182.63-.182.261 0 .476.102.644.308.168.205.252.467.252.784 0 .542-.336.999-1.008 1.372a8.833 8.833 0 0 1 -2.142.869 8.698 8.698 0 0 1 -2.226.308c-2.165 0-3.873-.63-5.124-1.891-1.25-1.26-1.876-2.983-1.876-5.168 0-1.4.276-2.642.826-3.725.551-1.083 1.325-1.923 2.324-2.521.999-.597 2.133-.896 3.402-.896 1.829 0 3.276.588 4.34 1.764 1.064 1.177 1.596 2.764 1.596 4.762 0 .747-.336 1.12-1.008 1.12zm-2.394-4.551c-.588-.682-1.414-1.022-2.478-1.022-1.083 0-1.95.345-2.604 1.036-.653.691-1.045 1.662-1.176 2.913h7.224c-.056-1.27-.378-2.245-.966-2.927zm-6.58 26.277c.886.915 1.33 2.307 1.33 4.174v7.254c0 .43-.122.761-.364.995-.243.233-.579.35-1.008.35-.411 0-.738-.122-.98-.364-.243-.243-.364-.57-.364-.981v-1.036c-.355.784-.882 1.386-1.582 1.807-.7.42-1.517.63-2.45.63-.896 0-1.718-.182-2.464-.546-.747-.364-1.33-.873-1.75-1.527a3.956 3.956 0 0 1 -.63-2.185c0-.989.256-1.769.77-2.338.513-.57 1.362-.976 2.548-1.219 1.185-.242 2.814-.364 4.886-.364h.644v-.812c0-1.046-.215-1.802-.644-2.269-.43-.467-1.12-.7-2.072-.7-.654 0-1.27.084-1.848.252-.579.168-1.214.411-1.904.728-.504.28-.859.42-1.064.42a.862.862 0 0 1 -.686-.308c-.178-.205-.266-.467-.266-.784 0-.28.079-.528.238-.743.158-.214.415-.424.77-.63.653-.354 1.418-.639 2.296-.854a10.736 10.736 0 0 1 2.548-.322c1.81 0 3.159.458 4.046 1.372zm-1.918 6.246c-1.456 0-2.576.066-3.36.197-.784.13-1.344.35-1.68.658s-.504.752-.504 1.33c0 .672.242 1.223.728 1.653.485.43 1.092.644 1.82.644 1.026 0 1.866-.35 2.52-1.05.653-.701.98-1.601.98-2.703v-.729zm-5.095-21.473c-.43 0-.77-.122-1.022-.364-.252-.243-.378-.57-.378-.981v-7.254c0-1.121-.229-1.942-.686-2.465-.458-.523-1.172-.784-2.142-.784-1.139 0-2.054.354-2.744 1.064-.691.71-1.036 1.662-1.036 2.857v6.582c0 .411-.126.738-.378.981-.252.242-.593.364-1.022.364-.43 0-.775-.122-1.036-.364-.262-.243-.392-.57-.392-.981v-17.338c0-.41.135-.737.406-.98.27-.243.62-.364 1.05-.364.41 0 .742.117.994.35.252.234.378.546.378.938v7.003a4.672 4.672 0 0 1 1.876-1.793c.784-.41 1.68-.616 2.688-.616 3.248 0 4.872 1.839 4.872 5.518v7.282c0 .411-.131.738-.392.981-.262.242-.607.364-1.036.364zm-16.478-2.913c.364.411.919.644 1.666.7l.784.056c.41.038.704.145.882.322.177.178.266.425.266.742 0 .374-.145.659-.434.855-.29.196-.714.275-1.274.238l-.756-.056c-1.512-.112-2.642-.574-3.388-1.387-.747-.812-1.12-2.012-1.12-3.599v-6.582h-1.68c-.822 0-1.232-.364-1.232-1.093 0-.336.107-.602.322-.798.214-.196.518-.294.91-.294h1.68v-2.885c0-.429.126-.766.378-1.009.252-.242.592-.364 1.022-.364.429 0 .774.122 1.036.364.261.243.392.58.392 1.009v2.885h2.772c.392 0 .695.098.91.294.214.196.322.462.322.798 0 .355-.108.626-.322.813-.215.186-.518.28-.91.28h-2.772v6.778c0 .878.182 1.522.546 1.933zm-8.218-3.586h-8.652c.186 2.895 1.577 4.342 4.172 4.342.69 0 1.288-.093 1.792-.28a13.032 13.032 0 0 0 1.596-.728 5.11 5.11 0 0 1 .462-.238c.252-.122.462-.182.63-.182.261 0 .476.102.644.308.168.205.252.467.252.784 0 .542-.336.999-1.008 1.372a8.866 8.866 0 0 1 -2.142.869 8.704 8.704 0 0 1 -2.226.308c-2.166 0-3.874-.63-5.124-1.891-1.251-1.26-1.876-2.983-1.876-5.168 0-1.4.275-2.642.826-3.725.55-1.083 1.325-1.923 2.324-2.521.998-.597 2.132-.896 3.402-.896 1.829 0 3.276.588 4.34 1.764 1.064 1.177 1.596 2.764 1.596 4.762 0 .747-.336 1.12-1.008 1.12zm-2.394-4.551c-.588-.682-1.414-1.022-2.478-1.022-1.083 0-1.951.345-2.604 1.036-.654.691-1.046 1.662-1.176 2.913h7.224c-.056-1.27-.378-2.245-.966-2.927zm-5.838 25.801c1.026-.597 2.202-.896 3.528-.896.709 0 1.423.103 2.142.308a7.376 7.376 0 0 1 1.918.84c.597.411.896.887.896 1.429 0 .317-.084.583-.252.798a.783.783 0 0 1 -.644.322c-.168 0-.336-.042-.504-.126a7.221 7.221 0 0 1 -.644-.378 7.742 7.742 0 0 0 -1.302-.686c-.402-.159-.882-.238-1.442-.238-1.27 0-2.254.429-2.954 1.288s-1.05 2.054-1.05 3.585c0 1.532.345 2.713 1.036 3.544.69.831 1.67 1.246 2.94 1.246.56 0 1.054-.084 1.484-.252a7.996 7.996 0 0 0 1.316-.672c.205-.131.41-.243.616-.336.205-.094.392-.14.56-.14.261 0 .476.107.644.322.168.214.252.481.252.798 0 .262-.07.5-.21.714-.14.215-.378.434-.714.659a6.752 6.752 0 0 1 -1.96.868 8.534 8.534 0 0 1 -2.268.308c-1.326 0-2.488-.289-3.486-.868-.999-.579-1.774-1.401-2.324-2.465-.551-1.065-.826-2.297-.826-3.698 0-1.418.284-2.67.854-3.753a6.173 6.173 0 0 1 2.394-2.521zm18.647-6.778c.411 0 .747.116 1.008.35.262.233.392.574.392 1.022v17.31c0 .449-.13.785-.392 1.009-.261.224-.597.336-1.008.336-.41 0-.751-.112-1.022-.336s-.406-.56-.406-1.009v-17.31c0-.448.135-.789.406-1.022.271-.234.612-.35 1.022-.35zm73.387 5.938c.411 0 .747.117 1.008.35.262.234.392.574.392 1.022v11.372c0 .449-.13.785-.392 1.009-.261.224-.597.336-1.008.336-.41 0-.751-.112-1.022-.336-.27-.224-.406-.56-.406-1.009v-11.372c0-.448.136-.788.406-1.022.271-.233.612-.35 1.022-.35z" fill="#333"/></g></svg>