<svg height="124" width="197" xmlns="http://www.w3.org/2000/svg"><g fill-rule="evenodd"><path d="m33.859 20.795.77-7.702 3.848-6.161 13.082-3.081 11.543-.77 10.773 3.851 3.848 3.08 5.386 2.311h20.008l8.465-.77 8.465-.77 6.156-5.392 12.313-2.31 13.082 3.08 9.234 3.851 1.539 10.013-46.941 13.093z" fill="#e0ceff"/><path d="m23.855 121.689-6.925-.77-8.465-5.391-4.617-8.472-1.539-10.013 23.086-67.006 4.617-7.702 14.621-4.621 15.39-.77 10.774 3.851 7.695 8.472 31.551.77 8.465-1.54 11.543-10.783h13.082l19.238 2.311 9.234 8.472 4.618 13.093 15.39 46.211 2.309 9.242-3.848 16.945-7.695 6.161-6.926 1.54h-8.465l-11.543-7.701-15.39-15.404-7.696-3.851-11.543-2.311h-53.867l-15.39 12.323-15.391 13.864z" fill="#af81ff"/><path d="m24.625 121.689 18.469-36.198 6.926-13.093 7.695-5.392 82.34.77 6.156 3.851 24.625 47.752-2.309 1.54-12.312-5.391-21.547-20.795-28.473-3.081-40.785 2.311-22.316 17.714z" fill="#884def"/><path d="m120.047 73.938a6.93 6.93 0 0 1 -6.926-6.932 6.929 6.929 0 0 1 6.926-6.931 6.929 6.929 0 0 1 6.926 6.931 6.93 6.93 0 0 1 -6.926 6.932zm-43.094 0a6.93 6.93 0 0 1 -6.926-6.932 6.929 6.929 0 0 1 6.926-6.931 6.929 6.929 0 0 1 6.926 6.931 6.93 6.93 0 0 1 -6.926 6.932zm-30.781-21.565c-5.525 0-10.004-4.483-10.004-10.013 0-5.529 4.479-10.012 10.004-10.012s10.004 4.483 10.004 10.012c0 5.53-4.479 10.013-10.004 10.013z" fill="#5ae9ab"/><path d="m173.145 124c-12.89 0-35.399-23.876-35.399-23.876s-5.506-6.161-12.312-6.161h-26.934-26.934c-6.806 0-12.312 6.161-12.312 6.161s-22.509 23.876-35.399 23.876c-17.203 0-23.855-17.346-23.855-23.106 0-5.759 22.316-74.708 22.316-74.708s3.42-8.472 8.465-8.472c0-10.09 10.774-15.403 10.774-15.403s5.061-2.311 18.468-2.311c13.408 0 20.008 7.702 20.008 7.702h36.938s6.6-7.702 20.008-7.702c13.407 0 18.468 2.311 18.468 2.311s10.774 5.313 10.774 15.403c5.045 0 8.465 8.472 8.465 8.472s22.316 68.949 22.316 74.708c0 5.76-6.652 23.106-23.855 23.106zm-36.938-118.609c-9.332 0-17.699 8.472-17.699 8.472h-40.016s-8.367-8.472-17.699-8.472c-23.795 0-24.361 9.146-23.856 10.013.506.867 19.053-3.851 23.856-3.851 10.209 0 17.799 14.633 22.316 14.633h30.782c4.517 0 12.107-14.633 22.316-14.633 4.803 0 23.35 4.718 23.856 3.851.505-.867-.061-10.013-23.856-10.013zm33.09 23.876s-2.081-5.304-6.156-7.702c-4.076-2.398-26.934-3.851-26.934-3.851l-4.617 1.541-10.004 10.012s-4.791 3.081-7.695 3.081h-15.391-15.391c-2.904 0-7.695-3.081-7.695-3.081l-10.004-10.012-4.617-1.541s-22.858 1.453-26.934 3.851c-4.075 2.398-6.156 7.702-6.156 7.702s-22.316 66.674-22.316 70.857c0 1.078 2.684 17.715 18.468 17.715.022 0 13.054-30.708 16.93-33.889 3.876-3.18 4.617 2.311 4.617 2.311s-15.455 30.037-14.621 30.037c5.714-1.7 30.012-24.646 30.012-24.646s4.849-3.851 8.465-3.851h58.484c3.616 0 8.465 3.851 8.465 3.851s24.298 22.946 30.012 24.646c.72 0-10.702-22.389-13.832-28.499l-.02.002-6.926-12.323s-4.293-6.161-9.234-6.161h-5.045c-1.349 4.882-5.808 8.472-11.115 8.472s-9.767-3.59-11.115-8.472h-20.864c-1.348 4.882-5.808 8.472-11.115 8.472s-9.766-3.59-11.115-8.472h-8.123c-2.289 0-6.156 5.391-6.156 5.391s-6.084 2.97-4.618-3.081c.793-1.069 4.443-8.472 10.774-8.472h8.123c1.349-4.882 5.808-8.472 11.115-8.472s9.767 3.59 11.115 8.472h20.864c1.348-4.882 5.808-8.472 11.115-8.472s9.766 3.59 11.115 8.472h5.815c9.845 0 14.621 11.553 14.621 11.553l6.925 12.323-.029.004c5.204 8.596 14.632 30.804 14.651 30.804 15.784 0 18.468-16.637 18.468-17.715 0-4.183-22.316-70.857-22.316-70.857zm-43.863 36.969a5.389 5.389 0 0 0 -5.387-5.391 5.389 5.389 0 0 0 -5.387 5.391 5.389 5.389 0 0 0 5.387 5.391 5.389 5.389 0 0 0 5.387-5.391zm-43.094 0a5.389 5.389 0 0 0 -5.387-5.391 5.389 5.389 0 0 0 -5.387 5.391 5.389 5.389 0 0 0 5.387 5.391 5.389 5.389 0 0 0 5.387-5.391zm77.723-20.795h-8.465v8.472a3.08 3.08 0 0 1 -3.078 3.081 3.08 3.08 0 0 1 -3.079-3.081v-8.472h-8.464a3.08 3.08 0 0 1 0-6.161h8.464v-8.473a3.079 3.079 0 0 1 6.157 0v8.473h8.465c1.7 0 3.078 1.379 3.078 3.08a3.08 3.08 0 0 1 -3.078 3.081zm-113.891 11.553c-8.5 0-15.391-6.897-15.391-15.404s6.891-15.404 15.391-15.404 15.391 6.897 15.391 15.404-6.891 15.404-15.391 15.404zm0-24.646c-5.1 0-9.235 4.138-9.235 9.242s4.135 9.242 9.235 9.242 9.234-4.138 9.234-9.242-4.134-9.242-9.234-9.242z"/></g></svg>