<?xml version="1.0" encoding="UTF-8"?>
<svg width="10px" height="10px" viewBox="0 0 10 10" version="1.1" xmlns="http://www.w3.org/2000/svg" xmlns:xlink="http://www.w3.org/1999/xlink">
    <!-- Generator: Sketch 54.1 (76490) - https://sketchapp.com -->
    <title>close</title>
    <desc>Created with Sketch.</desc>
    <defs>
        <path d="M4.01345291,4.96598639 L0.291479821,1.20181406 C0.0224215247,0.929705215 0.0224215247,0.476190476 0.291479821,0.204081633 C0.560538117,-0.0680272109 1.00896861,-0.0680272109 1.27802691,0.204081633 L5,3.96825397 L8.72197309,0.204081633 C8.99103139,-0.0680272109 9.43946188,-0.0680272109 9.70852018,0.204081633 C9.97757848,0.476190476 9.97757848,0.929705215 9.70852018,1.20181406 L5.98654709,4.96598639 L9.79820628,8.82086168 C10.0672646,9.09297052 10.0672646,9.54648526 9.79820628,9.8185941 C9.52914798,9.90929705 9.34977578,10 9.26008969,10 C9.08071749,10 8.90134529,9.90929705 8.81165919,9.8185941 L5,5.96371882 L1.18834081,9.8185941 C1.00896861,9.90929705 0.829596413,10 0.650224215,10 C0.470852018,10 0.291479821,9.90929705 0.201793722,9.8185941 C-0.067264574,9.54648526 -0.067264574,9.09297052 0.201793722,8.82086168 L4.01345291,4.96598639 Z" id="path-1"></path>
    </defs>
    <g id="Final" stroke="none" stroke-width="1" fill="none" fill-rule="evenodd">
        <g id="Sr-Web-BlockExp-Detail-2" transform="translate(-1018.000000, -522.000000)">
            <g id="Group-5" transform="translate(150.000000, 342.000000)">
                <g id="Group-4" transform="translate(191.000000, 168.000000)">
                    <g id="Left-Icon" transform="translate(677.000000, 12.000000)">
                        <mask id="mask-2" fill="white">
                            <use xlink:href="#path-1"></use>
                        </mask>
                        <use id="close" fill="#4A4A4A" fill-rule="nonzero" xlink:href="#path-1"></use>
                    </g>
                </g>
            </g>
        </g>
    </g>
</svg>