<svg xmlns="http://www.w3.org/2000/svg" width="239" height="204">
    <defs>
        <linearGradient id="a" x1="0%" x2="0%" y1="100%" y2="0%">
            <stop offset="0%" stop-color="#FEFEFE" stop-opacity="0"/>
            <stop offset="100%" stop-color="#FFF" stop-opacity=".25"/>
        </linearGradient>
    </defs>
    <path fill="none" d="M22.082 94.362L132.79 30.983 239 91.787V204H22.082V94.362z"/>
    <path fill="url(#a)" d="M22.082 94.362L132.79 30.983 239 91.787V204H22.082V94.362z"/>
    <path fill="none" d="M2.711 57.719c1.498 0 2.712 1.191 2.712 2.66s-1.214 2.66-2.712 2.66C1.214 63.039 0 61.848 0 60.379s1.214-2.66 2.711-2.66zm0 24.825c1.498 0 2.712 1.191 2.712 2.66s-1.214 2.66-2.712 2.66C1.214 87.864 0 86.673 0 85.204s1.214-2.66 2.711-2.66zm0 24.825c1.498 0 2.712 1.191 2.712 2.66s-1.214 2.66-2.712 2.66c-1.497 0-2.711-1.191-2.711-2.66s1.214-2.66 2.711-2.66zm0 24.826c1.498 0 2.712 1.19 2.712 2.659 0 1.469-1.214 2.66-2.712 2.66-1.497 0-2.711-1.191-2.711-2.66s1.214-2.659 2.711-2.659zm0 24.825c1.498 0 2.712 1.191 2.712 2.66s-1.214 2.659-2.712 2.659c-1.497 0-2.711-1.19-2.711-2.659 0-1.469 1.214-2.66 2.711-2.66zm0 24.825c1.498 0 2.712 1.191 2.712 2.66s-1.214 2.66-2.712 2.66c-1.497 0-2.711-1.191-2.711-2.66s1.214-2.66 2.711-2.66zm216.906 5.032c-1.497 0-2.711-1.189-2.711-2.656s1.214-2.656 2.711-2.656c1.497 0 2.711 1.189 2.711 2.656s-1.214 2.656-2.711 2.656zm0-129.239c1.497 0 2.711 1.188 2.711 2.655 0 1.467-1.214 2.656-2.711 2.656-1.497 0-2.711-1.189-2.711-2.656s1.214-2.655 2.711-2.655zm0 24.785c1.497 0 2.711 1.189 2.711 2.656 0 1.466-1.214 2.655-2.711 2.655-1.497 0-2.711-1.189-2.711-2.655 0-1.467 1.214-2.656 2.711-2.656zm0 24.786c1.497 0 2.711 1.189 2.711 2.655 0 1.467-1.214 2.656-2.711 2.656-1.497 0-2.711-1.189-2.711-2.656 0-1.466 1.214-2.655 2.711-2.655zm0 49.571c1.497 0 2.711 1.189 2.711 2.655 0 1.467-1.214 2.656-2.711 2.656-1.497 0-2.711-1.189-2.711-2.656 0-1.466 1.214-2.655 2.711-2.655zm0-24.786c1.497 0 2.711 1.189 2.711 2.656s-1.214 2.655-2.711 2.655c-1.497 0-2.711-1.188-2.711-2.655 0-1.467 1.214-2.656 2.711-2.656zm-21.691-87.798c1.498 0 2.712 1.192 2.712 2.662 0 1.471-1.214 2.662-2.712 2.662-1.497 0-2.711-1.191-2.711-2.662 0-1.47 1.214-2.662 2.711-2.662zm0 24.845c1.498 0 2.712 1.192 2.712 2.662s-1.214 2.662-2.712 2.662c-1.497 0-2.711-1.192-2.711-2.662s1.214-2.662 2.711-2.662zm0 24.844c1.498 0 2.712 1.192 2.712 2.662s-1.214 2.662-2.712 2.662c-1.497 0-2.711-1.192-2.711-2.662s1.214-2.662 2.711-2.662zm0 24.845c1.498 0 2.712 1.192 2.712 2.662s-1.214 2.662-2.712 2.662c-1.497 0-2.711-1.192-2.711-2.662s1.214-2.662 2.711-2.662zm0 24.844c1.498 0 2.712 1.192 2.712 2.662s-1.214 2.662-2.712 2.662c-1.497 0-2.711-1.192-2.711-2.662s1.214-2.662 2.711-2.662zm0 49.689c1.498 0 2.712 1.192 2.712 2.662s-1.214 2.662-2.712 2.662c-1.497 0-2.711-1.192-2.711-2.662s1.214-2.662 2.711-2.662zm0-24.844c1.498 0 2.712 1.192 2.712 2.662s-1.214 2.662-2.712 2.662c-1.497 0-2.711-1.192-2.711-2.662s1.214-2.662 2.711-2.662zM177.14 32.414c1.497 0 2.711 1.188 2.711 2.655 0 1.466-1.214 2.655-2.711 2.655-1.498 0-2.712-1.189-2.712-2.655 0-1.467 1.214-2.655 2.712-2.655zm0 24.782c1.497 0 2.711 1.188 2.711 2.655 0 1.466-1.214 2.655-2.711 2.655-1.498 0-2.712-1.189-2.712-2.655 0-1.467 1.214-2.655 2.712-2.655zm0 24.782c1.497 0 2.711 1.188 2.711 2.655 0 1.466-1.214 2.655-2.711 2.655-1.498 0-2.712-1.189-2.712-2.655 0-1.467 1.214-2.655 2.712-2.655zm0 24.782c1.497 0 2.711 1.189 2.711 2.655 0 1.466-1.214 2.655-2.711 2.655-1.498 0-2.712-1.189-2.712-2.655 0-1.466 1.214-2.655 2.712-2.655zm0 24.782c1.497 0 2.711 1.189 2.711 2.655 0 1.466-1.214 2.655-2.711 2.655-1.498 0-2.712-1.189-2.712-2.655 0-1.466 1.214-2.655 2.712-2.655zm0 49.564c1.497 0 2.711 1.189 2.711 2.655 0 1.466-1.214 2.655-2.711 2.655-1.498 0-2.712-1.189-2.712-2.655 0-1.466 1.214-2.655 2.712-2.655zm0-24.782c1.497 0 2.711 1.189 2.711 2.655 0 1.466-1.214 2.655-2.711 2.655-1.498 0-2.712-1.189-2.712-2.655 0-1.466 1.214-2.655 2.712-2.655zM153.641 19.849c1.498 0 2.712 1.191 2.712 2.66s-1.214 2.66-2.712 2.66c-1.497 0-2.711-1.191-2.711-2.66s1.214-2.66 2.711-2.66zm0 24.83c1.498 0 2.712 1.191 2.712 2.66s-1.214 2.66-2.712 2.66c-1.497 0-2.711-1.191-2.711-2.66s1.214-2.66 2.711-2.66zm0 24.83c1.498 0 2.712 1.191 2.712 2.66s-1.214 2.66-2.712 2.66c-1.497 0-2.711-1.191-2.711-2.66s1.214-2.66 2.711-2.66zm0 24.83c1.498 0 2.712 1.191 2.712 2.66s-1.214 2.66-2.712 2.66c-1.497 0-2.711-1.191-2.711-2.66s1.214-2.66 2.711-2.66zm0 24.83c1.498 0 2.712 1.191 2.712 2.66s-1.214 2.66-2.712 2.66c-1.497 0-2.711-1.191-2.711-2.66s1.214-2.66 2.711-2.66zm0 24.83c1.498 0 2.712 1.191 2.712 2.66s-1.214 2.661-2.712 2.661c-1.497 0-2.711-1.192-2.711-2.661s1.214-2.66 2.711-2.66zm0 49.66c1.498 0 2.712 1.191 2.712 2.66s-1.214 2.66-2.712 2.66c-1.497 0-2.711-1.191-2.711-2.66s1.214-2.66 2.711-2.66zm0-24.83c1.498 0 2.712 1.191 2.712 2.66s-1.214 2.66-2.712 2.66c-1.497 0-2.711-1.191-2.711-2.66s1.214-2.66 2.711-2.66zm-20.786-162.1c1.497 0 2.711 1.193 2.711 2.665 0 1.471-1.214 2.664-2.711 2.664-1.498 0-2.712-1.193-2.712-2.664 0-1.472 1.214-2.665 2.712-2.665zm0 24.87c1.497 0 2.711 1.193 2.711 2.665 0 1.471-1.214 2.664-2.711 2.664-1.498 0-2.712-1.193-2.712-2.664 0-1.472 1.214-2.665 2.712-2.665zm0 24.87c1.497 0 2.711 1.193 2.711 2.664 0 1.472-1.214 2.665-2.711 2.665-1.498 0-2.712-1.193-2.712-2.665 0-1.471 1.214-2.664 2.712-2.664zm0 24.869c1.497 0 2.711 1.193 2.711 2.665s-1.214 2.665-2.711 2.665c-1.498 0-2.712-1.193-2.712-2.665s1.214-2.665 2.712-2.665zm0 24.87c1.497 0 2.711 1.193 2.711 2.665 0 1.471-1.214 2.664-2.711 2.664-1.498 0-2.712-1.193-2.712-2.664 0-1.472 1.214-2.665 2.712-2.665zm0 24.87c1.497 0 2.711 1.193 2.711 2.664 0 1.472-1.214 2.665-2.711 2.665-1.498 0-2.712-1.193-2.712-2.665 0-1.471 1.214-2.664 2.712-2.664zm0 49.739c1.497 0 2.711 1.193 2.711 2.665 0 1.471-1.214 2.664-2.711 2.664-1.498 0-2.712-1.193-2.712-2.664 0-1.472 1.214-2.665 2.712-2.665zm0-24.87c1.497 0 2.711 1.193 2.711 2.665s-1.214 2.665-2.711 2.665c-1.498 0-2.712-1.193-2.712-2.665s1.214-2.665 2.712-2.665zM110.258.328A2.71 2.71 0 0 1 108.98 0h2.556a2.714 2.714 0 0 1-1.278.328zm0 19.563c1.497 0 2.711 1.199 2.711 2.679 0 1.48-1.214 2.68-2.711 2.68-1.497 0-2.711-1.2-2.711-2.68 0-1.48 1.214-2.679 2.711-2.679zm.002 24.928c1.498 0 2.712 1.195 2.712 2.669s-1.214 2.669-2.712 2.669c-1.497 0-2.711-1.195-2.711-2.669s1.214-2.669 2.711-2.669zm0 24.909c1.498 0 2.712 1.195 2.712 2.669s-1.214 2.669-2.712 2.669c-1.497 0-2.711-1.195-2.711-2.669s1.214-2.669 2.711-2.669zm0 24.91c1.498 0 2.712 1.195 2.712 2.669s-1.214 2.669-2.712 2.669c-1.497 0-2.711-1.195-2.711-2.669s1.214-2.669 2.711-2.669zm0 24.909c1.498 0 2.712 1.195 2.712 2.669s-1.214 2.669-2.712 2.669c-1.497 0-2.711-1.195-2.711-2.669s1.214-2.669 2.711-2.669zm0 24.91c1.498 0 2.712 1.195 2.712 2.669s-1.214 2.669-2.712 2.669c-1.497 0-2.711-1.195-2.711-2.669s1.214-2.669 2.711-2.669zm0 49.819c1.498 0 2.712 1.195 2.712 2.669s-1.214 2.669-2.712 2.669c-1.497 0-2.711-1.195-2.711-2.669s1.214-2.669 2.711-2.669zm0-24.91c1.498 0 2.712 1.195 2.712 2.669s-1.214 2.669-2.712 2.669c-1.497 0-2.711-1.195-2.711-2.669s1.214-2.669 2.711-2.669zM89.474 6.729c1.497 0 2.711 1.195 2.711 2.669s-1.214 2.669-2.711 2.669c-1.498 0-2.712-1.195-2.712-2.669s1.214-2.669 2.712-2.669zm0 24.91c1.497 0 2.711 1.195 2.711 2.669s-1.214 2.668-2.711 2.668c-1.498 0-2.712-1.194-2.712-2.668 0-1.474 1.214-2.669 2.712-2.669zm0 24.909c1.497 0 2.711 1.195 2.711 2.669s-1.214 2.669-2.711 2.669c-1.498 0-2.712-1.195-2.712-2.669s1.214-2.669 2.712-2.669zm0 24.91c1.497 0 2.711 1.195 2.711 2.669s-1.214 2.668-2.711 2.668c-1.498 0-2.712-1.194-2.712-2.668 0-1.474 1.214-2.669 2.712-2.669zm0 24.909c1.497 0 2.711 1.195 2.711 2.669s-1.214 2.669-2.711 2.669c-1.498 0-2.712-1.195-2.712-2.669s1.214-2.669 2.712-2.669zm0 24.91c1.497 0 2.711 1.195 2.711 2.668 0 1.474-1.214 2.669-2.711 2.669-1.498 0-2.712-1.195-2.712-2.669 0-1.473 1.214-2.668 2.712-2.668zm0 49.819c1.497 0 2.711 1.195 2.711 2.669 0 1.473-1.214 2.668-2.711 2.668-1.498 0-2.712-1.195-2.712-2.668 0-1.474 1.214-2.669 2.712-2.669zm0-24.91c1.497 0 2.711 1.195 2.711 2.669s-1.214 2.669-2.711 2.669c-1.498 0-2.712-1.195-2.712-2.669s1.214-2.669 2.712-2.669zM68.687 19.87c1.497 0 2.711 1.193 2.711 2.664 0 1.472-1.214 2.665-2.711 2.665-1.498 0-2.712-1.193-2.712-2.665 0-1.471 1.214-2.664 2.712-2.664zm0 24.869c1.497 0 2.711 1.193 2.711 2.665s-1.214 2.665-2.711 2.665c-1.498 0-2.712-1.193-2.712-2.665s1.214-2.665 2.712-2.665zm0 24.87c1.497 0 2.711 1.193 2.711 2.665 0 1.471-1.214 2.664-2.711 2.664-1.498 0-2.712-1.193-2.712-2.664 0-1.472 1.214-2.665 2.712-2.665zm0 24.87c1.497 0 2.711 1.193 2.711 2.664 0 1.472-1.214 2.665-2.711 2.665-1.498 0-2.712-1.193-2.712-2.665 0-1.471 1.214-2.664 2.712-2.664zm0 24.87c1.497 0 2.711 1.193 2.711 2.664 0 1.472-1.214 2.665-2.711 2.665-1.498 0-2.712-1.193-2.712-2.665 0-1.471 1.214-2.664 2.712-2.664zm0 24.869c1.497 0 2.711 1.193 2.711 2.665s-1.214 2.665-2.711 2.665c-1.498 0-2.712-1.193-2.712-2.665s1.214-2.665 2.712-2.665zm0 49.74c1.497 0 2.711 1.193 2.711 2.664 0 1.472-1.214 2.665-2.711 2.665-1.498 0-2.712-1.193-2.712-2.665 0-1.471 1.214-2.664 2.712-2.664zm0-24.87c1.497 0 2.711 1.193 2.711 2.665 0 1.471-1.214 2.664-2.711 2.664-1.498 0-2.712-1.193-2.712-2.664 0-1.472 1.214-2.665 2.712-2.665zM45.189 32.455c1.497 0 2.711 1.19 2.711 2.659 0 1.469-1.214 2.66-2.711 2.66-1.498 0-2.712-1.191-2.712-2.66s1.214-2.659 2.712-2.659zm0 24.821c1.497 0 2.711 1.191 2.711 2.66s-1.214 2.659-2.711 2.659c-1.498 0-2.712-1.19-2.712-2.659 0-1.469 1.214-2.66 2.712-2.66zm0 24.822c1.497 0 2.711 1.191 2.711 2.66 0 1.468-1.214 2.659-2.711 2.659-1.498 0-2.712-1.191-2.712-2.659 0-1.469 1.214-2.66 2.712-2.66zm0 24.822c1.497 0 2.711 1.19 2.711 2.659 0 1.469-1.214 2.66-2.711 2.66-1.498 0-2.712-1.191-2.712-2.66s1.214-2.659 2.712-2.659zm0 24.821c1.497 0 2.711 1.191 2.711 2.66s-1.214 2.659-2.711 2.659c-1.498 0-2.712-1.19-2.712-2.659 0-1.469 1.214-2.66 2.712-2.66zm0 49.644c1.497 0 2.711 1.19 2.711 2.659 0 1.469-1.214 2.66-2.711 2.66-1.498 0-2.712-1.191-2.712-2.66s1.214-2.659 2.712-2.659zm0-24.822c1.497 0 2.711 1.191 2.711 2.659 0 1.469-1.214 2.66-2.711 2.66-1.498 0-2.712-1.191-2.712-2.66 0-1.468 1.214-2.659 2.712-2.659zM24.402 44.256c1.497 0 2.711 1.194 2.711 2.667 0 1.472-1.214 2.666-2.711 2.666-1.498 0-2.711-1.194-2.711-2.666 0-1.473 1.213-2.667 2.711-2.667zm0 24.885c1.497 0 2.711 1.193 2.711 2.666 0 1.472-1.214 2.666-2.711 2.666-1.498 0-2.711-1.194-2.711-2.666 0-1.473 1.213-2.666 2.711-2.666zm0 24.884c1.497 0 2.711 1.193 2.711 2.666 0 1.472-1.214 2.666-2.711 2.666-1.498 0-2.711-1.194-2.711-2.666 0-1.473 1.213-2.666 2.711-2.666zm0 24.884c1.497 0 2.711 1.194 2.711 2.666 0 1.473-1.214 2.666-2.711 2.666-1.498 0-2.711-1.193-2.711-2.666 0-1.472 1.213-2.666 2.711-2.666zm0 24.884c1.497 0 2.711 1.194 2.711 2.666 0 1.473-1.214 2.666-2.711 2.666-1.498 0-2.711-1.193-2.711-2.666 0-1.472 1.213-2.666 2.711-2.666zm0 49.768c1.497 0 2.711 1.194 2.711 2.667 0 1.472-1.214 2.666-2.711 2.666-1.498 0-2.711-1.194-2.711-2.666 0-1.473 1.213-2.667 2.711-2.667zm0-24.884c1.497 0 2.711 1.194 2.711 2.667 0 1.472-1.214 2.666-2.711 2.666-1.498 0-2.711-1.194-2.711-2.666 0-1.473 1.213-2.667 2.711-2.667z"/>
    <path fill="url(#a)" d="M2.711 57.719c1.498 0 2.712 1.191 2.712 2.66s-1.214 2.66-2.712 2.66C1.214 63.039 0 61.848 0 60.379s1.214-2.66 2.711-2.66zm0 24.825c1.498 0 2.712 1.191 2.712 2.66s-1.214 2.66-2.712 2.66C1.214 87.864 0 86.673 0 85.204s1.214-2.66 2.711-2.66zm0 24.825c1.498 0 2.712 1.191 2.712 2.66s-1.214 2.66-2.712 2.66c-1.497 0-2.711-1.191-2.711-2.66s1.214-2.66 2.711-2.66zm0 24.826c1.498 0 2.712 1.19 2.712 2.659 0 1.469-1.214 2.66-2.712 2.66-1.497 0-2.711-1.191-2.711-2.66s1.214-2.659 2.711-2.659zm0 24.825c1.498 0 2.712 1.191 2.712 2.66s-1.214 2.659-2.712 2.659c-1.497 0-2.711-1.19-2.711-2.659 0-1.469 1.214-2.66 2.711-2.66zm0 24.825c1.498 0 2.712 1.191 2.712 2.66s-1.214 2.66-2.712 2.66c-1.497 0-2.711-1.191-2.711-2.66s1.214-2.66 2.711-2.66zm216.906 5.032c-1.497 0-2.711-1.189-2.711-2.656s1.214-2.656 2.711-2.656c1.497 0 2.711 1.189 2.711 2.656s-1.214 2.656-2.711 2.656zm0-129.239c1.497 0 2.711 1.188 2.711 2.655 0 1.467-1.214 2.656-2.711 2.656-1.497 0-2.711-1.189-2.711-2.656s1.214-2.655 2.711-2.655zm0 24.785c1.497 0 2.711 1.189 2.711 2.656 0 1.466-1.214 2.655-2.711 2.655-1.497 0-2.711-1.189-2.711-2.655 0-1.467 1.214-2.656 2.711-2.656zm0 24.786c1.497 0 2.711 1.189 2.711 2.655 0 1.467-1.214 2.656-2.711 2.656-1.497 0-2.711-1.189-2.711-2.656 0-1.466 1.214-2.655 2.711-2.655zm0 49.571c1.497 0 2.711 1.189 2.711 2.655 0 1.467-1.214 2.656-2.711 2.656-1.497 0-2.711-1.189-2.711-2.656 0-1.466 1.214-2.655 2.711-2.655zm0-24.786c1.497 0 2.711 1.189 2.711 2.656s-1.214 2.655-2.711 2.655c-1.497 0-2.711-1.188-2.711-2.655 0-1.467 1.214-2.656 2.711-2.656zm-21.691-87.798c1.498 0 2.712 1.192 2.712 2.662 0 1.471-1.214 2.662-2.712 2.662-1.497 0-2.711-1.191-2.711-2.662 0-1.47 1.214-2.662 2.711-2.662zm0 24.845c1.498 0 2.712 1.192 2.712 2.662s-1.214 2.662-2.712 2.662c-1.497 0-2.711-1.192-2.711-2.662s1.214-2.662 2.711-2.662zm0 24.844c1.498 0 2.712 1.192 2.712 2.662s-1.214 2.662-2.712 2.662c-1.497 0-2.711-1.192-2.711-2.662s1.214-2.662 2.711-2.662zm0 24.845c1.498 0 2.712 1.192 2.712 2.662s-1.214 2.662-2.712 2.662c-1.497 0-2.711-1.192-2.711-2.662s1.214-2.662 2.711-2.662zm0 24.844c1.498 0 2.712 1.192 2.712 2.662s-1.214 2.662-2.712 2.662c-1.497 0-2.711-1.192-2.711-2.662s1.214-2.662 2.711-2.662zm0 49.689c1.498 0 2.712 1.192 2.712 2.662s-1.214 2.662-2.712 2.662c-1.497 0-2.711-1.192-2.711-2.662s1.214-2.662 2.711-2.662zm0-24.844c1.498 0 2.712 1.192 2.712 2.662s-1.214 2.662-2.712 2.662c-1.497 0-2.711-1.192-2.711-2.662s1.214-2.662 2.711-2.662zM177.14 32.414c1.497 0 2.711 1.188 2.711 2.655 0 1.466-1.214 2.655-2.711 2.655-1.498 0-2.712-1.189-2.712-2.655 0-1.467 1.214-2.655 2.712-2.655zm0 24.782c1.497 0 2.711 1.188 2.711 2.655 0 1.466-1.214 2.655-2.711 2.655-1.498 0-2.712-1.189-2.712-2.655 0-1.467 1.214-2.655 2.712-2.655zm0 24.782c1.497 0 2.711 1.188 2.711 2.655 0 1.466-1.214 2.655-2.711 2.655-1.498 0-2.712-1.189-2.712-2.655 0-1.467 1.214-2.655 2.712-2.655zm0 24.782c1.497 0 2.711 1.189 2.711 2.655 0 1.466-1.214 2.655-2.711 2.655-1.498 0-2.712-1.189-2.712-2.655 0-1.466 1.214-2.655 2.712-2.655zm0 24.782c1.497 0 2.711 1.189 2.711 2.655 0 1.466-1.214 2.655-2.711 2.655-1.498 0-2.712-1.189-2.712-2.655 0-1.466 1.214-2.655 2.712-2.655zm0 49.564c1.497 0 2.711 1.189 2.711 2.655 0 1.466-1.214 2.655-2.711 2.655-1.498 0-2.712-1.189-2.712-2.655 0-1.466 1.214-2.655 2.712-2.655zm0-24.782c1.497 0 2.711 1.189 2.711 2.655 0 1.466-1.214 2.655-2.711 2.655-1.498 0-2.712-1.189-2.712-2.655 0-1.466 1.214-2.655 2.712-2.655zM153.641 19.849c1.498 0 2.712 1.191 2.712 2.66s-1.214 2.66-2.712 2.66c-1.497 0-2.711-1.191-2.711-2.66s1.214-2.66 2.711-2.66zm0 24.83c1.498 0 2.712 1.191 2.712 2.66s-1.214 2.66-2.712 2.66c-1.497 0-2.711-1.191-2.711-2.66s1.214-2.66 2.711-2.66zm0 24.83c1.498 0 2.712 1.191 2.712 2.66s-1.214 2.66-2.712 2.66c-1.497 0-2.711-1.191-2.711-2.66s1.214-2.66 2.711-2.66zm0 24.83c1.498 0 2.712 1.191 2.712 2.66s-1.214 2.66-2.712 2.66c-1.497 0-2.711-1.191-2.711-2.66s1.214-2.66 2.711-2.66zm0 24.83c1.498 0 2.712 1.191 2.712 2.66s-1.214 2.66-2.712 2.66c-1.497 0-2.711-1.191-2.711-2.66s1.214-2.66 2.711-2.66zm0 24.83c1.498 0 2.712 1.191 2.712 2.66s-1.214 2.661-2.712 2.661c-1.497 0-2.711-1.192-2.711-2.661s1.214-2.66 2.711-2.66zm0 49.66c1.498 0 2.712 1.191 2.712 2.66s-1.214 2.66-2.712 2.66c-1.497 0-2.711-1.191-2.711-2.66s1.214-2.66 2.711-2.66zm0-24.83c1.498 0 2.712 1.191 2.712 2.66s-1.214 2.66-2.712 2.66c-1.497 0-2.711-1.191-2.711-2.66s1.214-2.66 2.711-2.66zm-20.786-162.1c1.497 0 2.711 1.193 2.711 2.665 0 1.471-1.214 2.664-2.711 2.664-1.498 0-2.712-1.193-2.712-2.664 0-1.472 1.214-2.665 2.712-2.665zm0 24.87c1.497 0 2.711 1.193 2.711 2.665 0 1.471-1.214 2.664-2.711 2.664-1.498 0-2.712-1.193-2.712-2.664 0-1.472 1.214-2.665 2.712-2.665zm0 24.87c1.497 0 2.711 1.193 2.711 2.664 0 1.472-1.214 2.665-2.711 2.665-1.498 0-2.712-1.193-2.712-2.665 0-1.471 1.214-2.664 2.712-2.664zm0 24.869c1.497 0 2.711 1.193 2.711 2.665s-1.214 2.665-2.711 2.665c-1.498 0-2.712-1.193-2.712-2.665s1.214-2.665 2.712-2.665zm0 24.87c1.497 0 2.711 1.193 2.711 2.665 0 1.471-1.214 2.664-2.711 2.664-1.498 0-2.712-1.193-2.712-2.664 0-1.472 1.214-2.665 2.712-2.665zm0 24.87c1.497 0 2.711 1.193 2.711 2.664 0 1.472-1.214 2.665-2.711 2.665-1.498 0-2.712-1.193-2.712-2.665 0-1.471 1.214-2.664 2.712-2.664zm0 49.739c1.497 0 2.711 1.193 2.711 2.665 0 1.471-1.214 2.664-2.711 2.664-1.498 0-2.712-1.193-2.712-2.664 0-1.472 1.214-2.665 2.712-2.665zm0-24.87c1.497 0 2.711 1.193 2.711 2.665s-1.214 2.665-2.711 2.665c-1.498 0-2.712-1.193-2.712-2.665s1.214-2.665 2.712-2.665zM110.258.328A2.71 2.71 0 0 1 108.98 0h2.556a2.714 2.714 0 0 1-1.278.328zm0 19.563c1.497 0 2.711 1.199 2.711 2.679 0 1.48-1.214 2.68-2.711 2.68-1.497 0-2.711-1.2-2.711-2.68 0-1.48 1.214-2.679 2.711-2.679zm.002 24.928c1.498 0 2.712 1.195 2.712 2.669s-1.214 2.669-2.712 2.669c-1.497 0-2.711-1.195-2.711-2.669s1.214-2.669 2.711-2.669zm0 24.909c1.498 0 2.712 1.195 2.712 2.669s-1.214 2.669-2.712 2.669c-1.497 0-2.711-1.195-2.711-2.669s1.214-2.669 2.711-2.669zm0 24.91c1.498 0 2.712 1.195 2.712 2.669s-1.214 2.669-2.712 2.669c-1.497 0-2.711-1.195-2.711-2.669s1.214-2.669 2.711-2.669zm0 24.909c1.498 0 2.712 1.195 2.712 2.669s-1.214 2.669-2.712 2.669c-1.497 0-2.711-1.195-2.711-2.669s1.214-2.669 2.711-2.669zm0 24.91c1.498 0 2.712 1.195 2.712 2.669s-1.214 2.669-2.712 2.669c-1.497 0-2.711-1.195-2.711-2.669s1.214-2.669 2.711-2.669zm0 49.819c1.498 0 2.712 1.195 2.712 2.669s-1.214 2.669-2.712 2.669c-1.497 0-2.711-1.195-2.711-2.669s1.214-2.669 2.711-2.669zm0-24.91c1.498 0 2.712 1.195 2.712 2.669s-1.214 2.669-2.712 2.669c-1.497 0-2.711-1.195-2.711-2.669s1.214-2.669 2.711-2.669zM89.474 6.729c1.497 0 2.711 1.195 2.711 2.669s-1.214 2.669-2.711 2.669c-1.498 0-2.712-1.195-2.712-2.669s1.214-2.669 2.712-2.669zm0 24.91c1.497 0 2.711 1.195 2.711 2.669s-1.214 2.668-2.711 2.668c-1.498 0-2.712-1.194-2.712-2.668 0-1.474 1.214-2.669 2.712-2.669zm0 24.909c1.497 0 2.711 1.195 2.711 2.669s-1.214 2.669-2.711 2.669c-1.498 0-2.712-1.195-2.712-2.669s1.214-2.669 2.712-2.669zm0 24.91c1.497 0 2.711 1.195 2.711 2.669s-1.214 2.668-2.711 2.668c-1.498 0-2.712-1.194-2.712-2.668 0-1.474 1.214-2.669 2.712-2.669zm0 24.909c1.497 0 2.711 1.195 2.711 2.669s-1.214 2.669-2.711 2.669c-1.498 0-2.712-1.195-2.712-2.669s1.214-2.669 2.712-2.669zm0 24.91c1.497 0 2.711 1.195 2.711 2.668 0 1.474-1.214 2.669-2.711 2.669-1.498 0-2.712-1.195-2.712-2.669 0-1.473 1.214-2.668 2.712-2.668zm0 49.819c1.497 0 2.711 1.195 2.711 2.669 0 1.473-1.214 2.668-2.711 2.668-1.498 0-2.712-1.195-2.712-2.668 0-1.474 1.214-2.669 2.712-2.669zm0-24.91c1.497 0 2.711 1.195 2.711 2.669s-1.214 2.669-2.711 2.669c-1.498 0-2.712-1.195-2.712-2.669s1.214-2.669 2.712-2.669zM68.687 19.87c1.497 0 2.711 1.193 2.711 2.664 0 1.472-1.214 2.665-2.711 2.665-1.498 0-2.712-1.193-2.712-2.665 0-1.471 1.214-2.664 2.712-2.664zm0 24.869c1.497 0 2.711 1.193 2.711 2.665s-1.214 2.665-2.711 2.665c-1.498 0-2.712-1.193-2.712-2.665s1.214-2.665 2.712-2.665zm0 24.87c1.497 0 2.711 1.193 2.711 2.665 0 1.471-1.214 2.664-2.711 2.664-1.498 0-2.712-1.193-2.712-2.664 0-1.472 1.214-2.665 2.712-2.665zm0 24.87c1.497 0 2.711 1.193 2.711 2.664 0 1.472-1.214 2.665-2.711 2.665-1.498 0-2.712-1.193-2.712-2.665 0-1.471 1.214-2.664 2.712-2.664zm0 24.87c1.497 0 2.711 1.193 2.711 2.664 0 1.472-1.214 2.665-2.711 2.665-1.498 0-2.712-1.193-2.712-2.665 0-1.471 1.214-2.664 2.712-2.664zm0 24.869c1.497 0 2.711 1.193 2.711 2.665s-1.214 2.665-2.711 2.665c-1.498 0-2.712-1.193-2.712-2.665s1.214-2.665 2.712-2.665zm0 49.74c1.497 0 2.711 1.193 2.711 2.664 0 1.472-1.214 2.665-2.711 2.665-1.498 0-2.712-1.193-2.712-2.665 0-1.471 1.214-2.664 2.712-2.664zm0-24.87c1.497 0 2.711 1.193 2.711 2.665 0 1.471-1.214 2.664-2.711 2.664-1.498 0-2.712-1.193-2.712-2.664 0-1.472 1.214-2.665 2.712-2.665zM45.189 32.455c1.497 0 2.711 1.19 2.711 2.659 0 1.469-1.214 2.66-2.711 2.66-1.498 0-2.712-1.191-2.712-2.66s1.214-2.659 2.712-2.659zm0 24.821c1.497 0 2.711 1.191 2.711 2.66s-1.214 2.659-2.711 2.659c-1.498 0-2.712-1.19-2.712-2.659 0-1.469 1.214-2.66 2.712-2.66zm0 24.822c1.497 0 2.711 1.191 2.711 2.66 0 1.468-1.214 2.659-2.711 2.659-1.498 0-2.712-1.191-2.712-2.659 0-1.469 1.214-2.66 2.712-2.66zm0 24.822c1.497 0 2.711 1.19 2.711 2.659 0 1.469-1.214 2.66-2.711 2.66-1.498 0-2.712-1.191-2.712-2.66s1.214-2.659 2.712-2.659zm0 24.821c1.497 0 2.711 1.191 2.711 2.66s-1.214 2.659-2.711 2.659c-1.498 0-2.712-1.19-2.712-2.659 0-1.469 1.214-2.66 2.712-2.66zm0 49.644c1.497 0 2.711 1.19 2.711 2.659 0 1.469-1.214 2.66-2.711 2.66-1.498 0-2.712-1.191-2.712-2.66s1.214-2.659 2.712-2.659zm0-24.822c1.497 0 2.711 1.191 2.711 2.659 0 1.469-1.214 2.66-2.711 2.66-1.498 0-2.712-1.191-2.712-2.66 0-1.468 1.214-2.659 2.712-2.659zM24.402 44.256c1.497 0 2.711 1.194 2.711 2.667 0 1.472-1.214 2.666-2.711 2.666-1.498 0-2.711-1.194-2.711-2.666 0-1.473 1.213-2.667 2.711-2.667zm0 24.885c1.497 0 2.711 1.193 2.711 2.666 0 1.472-1.214 2.666-2.711 2.666-1.498 0-2.711-1.194-2.711-2.666 0-1.473 1.213-2.666 2.711-2.666zm0 24.884c1.497 0 2.711 1.193 2.711 2.666 0 1.472-1.214 2.666-2.711 2.666-1.498 0-2.711-1.194-2.711-2.666 0-1.473 1.213-2.666 2.711-2.666zm0 24.884c1.497 0 2.711 1.194 2.711 2.666 0 1.473-1.214 2.666-2.711 2.666-1.498 0-2.711-1.193-2.711-2.666 0-1.472 1.213-2.666 2.711-2.666zm0 24.884c1.497 0 2.711 1.194 2.711 2.666 0 1.473-1.214 2.666-2.711 2.666-1.498 0-2.711-1.193-2.711-2.666 0-1.472 1.213-2.666 2.711-2.666zm0 49.768c1.497 0 2.711 1.194 2.711 2.667 0 1.472-1.214 2.666-2.711 2.666-1.498 0-2.711-1.194-2.711-2.666 0-1.473 1.213-2.667 2.711-2.667zm0-24.884c1.497 0 2.711 1.194 2.711 2.667 0 1.472-1.214 2.666-2.711 2.666-1.498 0-2.711-1.194-2.711-2.666 0-1.473 1.213-2.667 2.711-2.667z"/>
</svg>
