<svg height="204" width="239" xmlns="http://www.w3.org/2000/svg" xmlns:xlink="http://www.w3.org/1999/xlink"><linearGradient id="a" x1="0%" x2="0%" y1="100%" y2="0%"><stop offset="0" stop-color="#fefefe" stop-opacity="0"/><stop offset="1" stop-color="#fff" stop-opacity=".25"/></linearGradient><path d="m22.082 94.362 110.708-63.379 106.21 60.804v112.213h-216.918z" fill="none"/><path d="m22.082 94.362 110.708-63.379 106.21 60.804v112.213h-216.918z" fill="url(#a)"/><path d="m2.711 57.719c1.498 0 2.712 1.191 2.712 2.66s-1.214 2.66-2.712 2.66c-1.497 0-2.711-1.191-2.711-2.66s1.214-2.66 2.711-2.66zm0 24.825c1.498 0 2.712 1.191 2.712 2.66s-1.214 2.66-2.712 2.66c-1.497 0-2.711-1.191-2.711-2.66s1.214-2.66 2.711-2.66zm0 24.825c1.498 0 2.712 1.191 2.712 2.66s-1.214 2.66-2.712 2.66c-1.497 0-2.711-1.191-2.711-2.66s1.214-2.66 2.711-2.66zm0 24.826c1.498 0 2.712 1.19 2.712 2.659s-1.214 2.66-2.712 2.66c-1.497 0-2.711-1.191-2.711-2.66s1.214-2.659 2.711-2.659zm0 24.825c1.498 0 2.712 1.191 2.712 2.66s-1.214 2.659-2.712 2.659c-1.497 0-2.711-1.19-2.711-2.659s1.214-2.66 2.711-2.66zm0 24.825c1.498 0 2.712 1.191 2.712 2.66s-1.214 2.66-2.712 2.66c-1.497 0-2.711-1.191-2.711-2.66s1.214-2.66 2.711-2.66zm216.906 5.032c-1.497 0-2.711-1.189-2.711-2.656s1.214-2.656 2.711-2.656 2.711 1.189 2.711 2.656-1.214 2.656-2.711 2.656zm0-129.239c1.497 0 2.711 1.188 2.711 2.655s-1.214 2.656-2.711 2.656-2.711-1.189-2.711-2.656 1.214-2.655 2.711-2.655zm0 24.785c1.497 0 2.711 1.189 2.711 2.656 0 1.466-1.214 2.655-2.711 2.655s-2.711-1.189-2.711-2.655c0-1.467 1.214-2.656 2.711-2.656zm0 24.786c1.497 0 2.711 1.189 2.711 2.655 0 1.467-1.214 2.656-2.711 2.656s-2.711-1.189-2.711-2.656c0-1.466 1.214-2.655 2.711-2.655zm0 49.571c1.497 0 2.711 1.189 2.711 2.655 0 1.467-1.214 2.656-2.711 2.656s-2.711-1.189-2.711-2.656c0-1.466 1.214-2.655 2.711-2.655zm0-24.786c1.497 0 2.711 1.189 2.711 2.656s-1.214 2.655-2.711 2.655-2.711-1.188-2.711-2.655 1.214-2.656 2.711-2.656zm-21.691-87.798c1.498 0 2.712 1.192 2.712 2.662 0 1.471-1.214 2.662-2.712 2.662-1.497 0-2.711-1.191-2.711-2.662 0-1.47 1.214-2.662 2.711-2.662zm0 24.845c1.498 0 2.712 1.192 2.712 2.662s-1.214 2.662-2.712 2.662c-1.497 0-2.711-1.192-2.711-2.662s1.214-2.662 2.711-2.662zm0 24.844c1.498 0 2.712 1.192 2.712 2.662s-1.214 2.662-2.712 2.662c-1.497 0-2.711-1.192-2.711-2.662s1.214-2.662 2.711-2.662zm0 24.845c1.498 0 2.712 1.192 2.712 2.662s-1.214 2.662-2.712 2.662c-1.497 0-2.711-1.192-2.711-2.662s1.214-2.662 2.711-2.662zm0 24.844c1.498 0 2.712 1.192 2.712 2.662s-1.214 2.662-2.712 2.662c-1.497 0-2.711-1.192-2.711-2.662s1.214-2.662 2.711-2.662zm0 49.689c1.498 0 2.712 1.192 2.712 2.662s-1.214 2.662-2.712 2.662c-1.497 0-2.711-1.192-2.711-2.662s1.214-2.662 2.711-2.662zm0-24.844c1.498 0 2.712 1.192 2.712 2.662s-1.214 2.662-2.712 2.662c-1.497 0-2.711-1.192-2.711-2.662s1.214-2.662 2.711-2.662zm-20.786-136.005c1.497 0 2.711 1.188 2.711 2.655 0 1.466-1.214 2.655-2.711 2.655-1.498 0-2.712-1.189-2.712-2.655 0-1.467 1.214-2.655 2.712-2.655zm0 24.782c1.497 0 2.711 1.188 2.711 2.655 0 1.466-1.214 2.655-2.711 2.655-1.498 0-2.712-1.189-2.712-2.655 0-1.467 1.214-2.655 2.712-2.655zm0 24.782c1.497 0 2.711 1.188 2.711 2.655 0 1.466-1.214 2.655-2.711 2.655-1.498 0-2.712-1.189-2.712-2.655 0-1.467 1.214-2.655 2.712-2.655zm0 24.782c1.497 0 2.711 1.189 2.711 2.655s-1.214 2.655-2.711 2.655c-1.498 0-2.712-1.189-2.712-2.655s1.214-2.655 2.712-2.655zm0 24.782c1.497 0 2.711 1.189 2.711 2.655s-1.214 2.655-2.711 2.655c-1.498 0-2.712-1.189-2.712-2.655s1.214-2.655 2.712-2.655zm0 49.564c1.497 0 2.711 1.189 2.711 2.655s-1.214 2.655-2.711 2.655c-1.498 0-2.712-1.189-2.712-2.655s1.214-2.655 2.712-2.655zm0-24.782c1.497 0 2.711 1.189 2.711 2.655s-1.214 2.655-2.711 2.655c-1.498 0-2.712-1.189-2.712-2.655s1.214-2.655 2.712-2.655zm-23.499-136.475c1.498 0 2.712 1.191 2.712 2.66s-1.214 2.66-2.712 2.66c-1.497 0-2.711-1.191-2.711-2.66s1.214-2.66 2.711-2.66zm0 24.83c1.498 0 2.712 1.191 2.712 2.66s-1.214 2.66-2.712 2.66c-1.497 0-2.711-1.191-2.711-2.66s1.214-2.66 2.711-2.66zm0 24.83c1.498 0 2.712 1.191 2.712 2.66s-1.214 2.66-2.712 2.66c-1.497 0-2.711-1.191-2.711-2.66s1.214-2.66 2.711-2.66zm0 24.83c1.498 0 2.712 1.191 2.712 2.66s-1.214 2.66-2.712 2.66c-1.497 0-2.711-1.191-2.711-2.66s1.214-2.66 2.711-2.66zm0 24.83c1.498 0 2.712 1.191 2.712 2.66s-1.214 2.66-2.712 2.66c-1.497 0-2.711-1.191-2.711-2.66s1.214-2.66 2.711-2.66zm0 24.83c1.498 0 2.712 1.191 2.712 2.66s-1.214 2.661-2.712 2.661c-1.497 0-2.711-1.192-2.711-2.661s1.214-2.66 2.711-2.66zm0 49.66c1.498 0 2.712 1.191 2.712 2.66s-1.214 2.66-2.712 2.66c-1.497 0-2.711-1.191-2.711-2.66s1.214-2.66 2.711-2.66zm0-24.83c1.498 0 2.712 1.191 2.712 2.66s-1.214 2.66-2.712 2.66c-1.497 0-2.711-1.191-2.711-2.66s1.214-2.66 2.711-2.66zm-20.786-162.1c1.497 0 2.711 1.193 2.711 2.665 0 1.471-1.214 2.664-2.711 2.664-1.498 0-2.712-1.193-2.712-2.664 0-1.472 1.214-2.665 2.712-2.665zm0 24.87c1.497 0 2.711 1.193 2.711 2.665 0 1.471-1.214 2.664-2.711 2.664-1.498 0-2.712-1.193-2.712-2.664 0-1.472 1.214-2.665 2.712-2.665zm0 24.87c1.497 0 2.711 1.193 2.711 2.664 0 1.472-1.214 2.665-2.711 2.665-1.498 0-2.712-1.193-2.712-2.665 0-1.471 1.214-2.664 2.712-2.664zm0 24.869c1.497 0 2.711 1.193 2.711 2.665s-1.214 2.665-2.711 2.665c-1.498 0-2.712-1.193-2.712-2.665s1.214-2.665 2.712-2.665zm0 24.87c1.497 0 2.711 1.193 2.711 2.665 0 1.471-1.214 2.664-2.711 2.664-1.498 0-2.712-1.193-2.712-2.664 0-1.472 1.214-2.665 2.712-2.665zm0 24.87c1.497 0 2.711 1.193 2.711 2.664 0 1.472-1.214 2.665-2.711 2.665-1.498 0-2.712-1.193-2.712-2.665 0-1.471 1.214-2.664 2.712-2.664zm0 49.739c1.497 0 2.711 1.193 2.711 2.665 0 1.471-1.214 2.664-2.711 2.664-1.498 0-2.712-1.193-2.712-2.664 0-1.472 1.214-2.665 2.712-2.665zm0-24.87c1.497 0 2.711 1.193 2.711 2.665s-1.214 2.665-2.711 2.665c-1.498 0-2.712-1.193-2.712-2.665s1.214-2.665 2.712-2.665zm-22.597-155.619a2.71 2.71 0 0 1 -1.278-.328h2.556a2.714 2.714 0 0 1 -1.278.328zm0 19.563c1.497 0 2.711 1.199 2.711 2.679s-1.214 2.68-2.711 2.68-2.711-1.2-2.711-2.68 1.214-2.679 2.711-2.679zm.002 24.928c1.498 0 2.712 1.195 2.712 2.669s-1.214 2.669-2.712 2.669c-1.497 0-2.711-1.195-2.711-2.669s1.214-2.669 2.711-2.669zm0 24.909c1.498 0 2.712 1.195 2.712 2.669s-1.214 2.669-2.712 2.669c-1.497 0-2.711-1.195-2.711-2.669s1.214-2.669 2.711-2.669zm0 24.91c1.498 0 2.712 1.195 2.712 2.669s-1.214 2.669-2.712 2.669c-1.497 0-2.711-1.195-2.711-2.669s1.214-2.669 2.711-2.669zm0 24.909c1.498 0 2.712 1.195 2.712 2.669s-1.214 2.669-2.712 2.669c-1.497 0-2.711-1.195-2.711-2.669s1.214-2.669 2.711-2.669zm0 24.91c1.498 0 2.712 1.195 2.712 2.669s-1.214 2.669-2.712 2.669c-1.497 0-2.711-1.195-2.711-2.669s1.214-2.669 2.711-2.669zm0 49.819c1.498 0 2.712 1.195 2.712 2.669s-1.214 2.669-2.712 2.669c-1.497 0-2.711-1.195-2.711-2.669s1.214-2.669 2.711-2.669zm0-24.91c1.498 0 2.712 1.195 2.712 2.669s-1.214 2.669-2.712 2.669c-1.497 0-2.711-1.195-2.711-2.669s1.214-2.669 2.711-2.669zm-20.786-162.637c1.497 0 2.711 1.195 2.711 2.669s-1.214 2.669-2.711 2.669c-1.498 0-2.712-1.195-2.712-2.669s1.214-2.669 2.712-2.669zm0 24.91c1.497 0 2.711 1.195 2.711 2.669s-1.214 2.668-2.711 2.668c-1.498 0-2.712-1.194-2.712-2.668s1.214-2.669 2.712-2.669zm0 24.909c1.497 0 2.711 1.195 2.711 2.669s-1.214 2.669-2.711 2.669c-1.498 0-2.712-1.195-2.712-2.669s1.214-2.669 2.712-2.669zm0 24.91c1.497 0 2.711 1.195 2.711 2.669s-1.214 2.668-2.711 2.668c-1.498 0-2.712-1.194-2.712-2.668s1.214-2.669 2.712-2.669zm0 24.909c1.497 0 2.711 1.195 2.711 2.669s-1.214 2.669-2.711 2.669c-1.498 0-2.712-1.195-2.712-2.669s1.214-2.669 2.712-2.669zm0 24.91c1.497 0 2.711 1.195 2.711 2.668 0 1.474-1.214 2.669-2.711 2.669-1.498 0-2.712-1.195-2.712-2.669 0-1.473 1.214-2.668 2.712-2.668zm0 49.819c1.497 0 2.711 1.195 2.711 2.669 0 1.473-1.214 2.668-2.711 2.668-1.498 0-2.712-1.195-2.712-2.668 0-1.474 1.214-2.669 2.712-2.669zm0-24.91c1.497 0 2.711 1.195 2.711 2.669s-1.214 2.669-2.711 2.669c-1.498 0-2.712-1.195-2.712-2.669s1.214-2.669 2.712-2.669zm-20.787-136.316c1.497 0 2.711 1.193 2.711 2.664 0 1.472-1.214 2.665-2.711 2.665-1.498 0-2.712-1.193-2.712-2.665 0-1.471 1.214-2.664 2.712-2.664zm0 24.869c1.497 0 2.711 1.193 2.711 2.665s-1.214 2.665-2.711 2.665c-1.498 0-2.712-1.193-2.712-2.665s1.214-2.665 2.712-2.665zm0 24.87c1.497 0 2.711 1.193 2.711 2.665 0 1.471-1.214 2.664-2.711 2.664-1.498 0-2.712-1.193-2.712-2.664 0-1.472 1.214-2.665 2.712-2.665zm0 24.87c1.497 0 2.711 1.193 2.711 2.664 0 1.472-1.214 2.665-2.711 2.665-1.498 0-2.712-1.193-2.712-2.665 0-1.471 1.214-2.664 2.712-2.664zm0 24.87c1.497 0 2.711 1.193 2.711 2.664 0 1.472-1.214 2.665-2.711 2.665-1.498 0-2.712-1.193-2.712-2.665 0-1.471 1.214-2.664 2.712-2.664zm0 24.869c1.497 0 2.711 1.193 2.711 2.665s-1.214 2.665-2.711 2.665c-1.498 0-2.712-1.193-2.712-2.665s1.214-2.665 2.712-2.665zm0 49.74c1.497 0 2.711 1.193 2.711 2.664 0 1.472-1.214 2.665-2.711 2.665-1.498 0-2.712-1.193-2.712-2.665 0-1.471 1.214-2.664 2.712-2.664zm0-24.87c1.497 0 2.711 1.193 2.711 2.665 0 1.471-1.214 2.664-2.711 2.664-1.498 0-2.712-1.193-2.712-2.664 0-1.472 1.214-2.665 2.712-2.665zm-23.498-136.633c1.497 0 2.711 1.19 2.711 2.659s-1.214 2.66-2.711 2.66c-1.498 0-2.712-1.191-2.712-2.66s1.214-2.659 2.712-2.659zm0 24.821c1.497 0 2.711 1.191 2.711 2.66s-1.214 2.659-2.711 2.659c-1.498 0-2.712-1.19-2.712-2.659s1.214-2.66 2.712-2.66zm0 24.822c1.497 0 2.711 1.191 2.711 2.66 0 1.468-1.214 2.659-2.711 2.659-1.498 0-2.712-1.191-2.712-2.659 0-1.469 1.214-2.66 2.712-2.66zm0 24.822c1.497 0 2.711 1.19 2.711 2.659s-1.214 2.66-2.711 2.66c-1.498 0-2.712-1.191-2.712-2.66s1.214-2.659 2.712-2.659zm0 24.821c1.497 0 2.711 1.191 2.711 2.66s-1.214 2.659-2.711 2.659c-1.498 0-2.712-1.19-2.712-2.659s1.214-2.66 2.712-2.66zm0 49.644c1.497 0 2.711 1.19 2.711 2.659s-1.214 2.66-2.711 2.66c-1.498 0-2.712-1.191-2.712-2.66s1.214-2.659 2.712-2.659zm0-24.822c1.497 0 2.711 1.191 2.711 2.659 0 1.469-1.214 2.66-2.711 2.66-1.498 0-2.712-1.191-2.712-2.66 0-1.468 1.214-2.659 2.712-2.659zm-20.787-112.307c1.497 0 2.711 1.194 2.711 2.667 0 1.472-1.214 2.666-2.711 2.666-1.498 0-2.711-1.194-2.711-2.666 0-1.473 1.213-2.667 2.711-2.667zm0 24.885c1.497 0 2.711 1.193 2.711 2.666 0 1.472-1.214 2.666-2.711 2.666-1.498 0-2.711-1.194-2.711-2.666 0-1.473 1.213-2.666 2.711-2.666zm0 24.884c1.497 0 2.711 1.193 2.711 2.666 0 1.472-1.214 2.666-2.711 2.666-1.498 0-2.711-1.194-2.711-2.666 0-1.473 1.213-2.666 2.711-2.666zm0 24.884c1.497 0 2.711 1.194 2.711 2.666 0 1.473-1.214 2.666-2.711 2.666-1.498 0-2.711-1.193-2.711-2.666 0-1.472 1.213-2.666 2.711-2.666zm0 24.884c1.497 0 2.711 1.194 2.711 2.666 0 1.473-1.214 2.666-2.711 2.666-1.498 0-2.711-1.193-2.711-2.666 0-1.472 1.213-2.666 2.711-2.666zm0 49.768c1.497 0 2.711 1.194 2.711 2.667 0 1.472-1.214 2.666-2.711 2.666-1.498 0-2.711-1.194-2.711-2.666 0-1.473 1.213-2.667 2.711-2.667zm0-24.884c1.497 0 2.711 1.194 2.711 2.667 0 1.472-1.214 2.666-2.711 2.666-1.498 0-2.711-1.194-2.711-2.666 0-1.473 1.213-2.667 2.711-2.667z" fill="none"/><path d="m2.711 57.719c1.498 0 2.712 1.191 2.712 2.66s-1.214 2.66-2.712 2.66c-1.497 0-2.711-1.191-2.711-2.66s1.214-2.66 2.711-2.66zm0 24.825c1.498 0 2.712 1.191 2.712 2.66s-1.214 2.66-2.712 2.66c-1.497 0-2.711-1.191-2.711-2.66s1.214-2.66 2.711-2.66zm0 24.825c1.498 0 2.712 1.191 2.712 2.66s-1.214 2.66-2.712 2.66c-1.497 0-2.711-1.191-2.711-2.66s1.214-2.66 2.711-2.66zm0 24.826c1.498 0 2.712 1.19 2.712 2.659s-1.214 2.66-2.712 2.66c-1.497 0-2.711-1.191-2.711-2.66s1.214-2.659 2.711-2.659zm0 24.825c1.498 0 2.712 1.191 2.712 2.66s-1.214 2.659-2.712 2.659c-1.497 0-2.711-1.19-2.711-2.659s1.214-2.66 2.711-2.66zm0 24.825c1.498 0 2.712 1.191 2.712 2.66s-1.214 2.66-2.712 2.66c-1.497 0-2.711-1.191-2.711-2.66s1.214-2.66 2.711-2.66zm216.906 5.032c-1.497 0-2.711-1.189-2.711-2.656s1.214-2.656 2.711-2.656 2.711 1.189 2.711 2.656-1.214 2.656-2.711 2.656zm0-129.239c1.497 0 2.711 1.188 2.711 2.655s-1.214 2.656-2.711 2.656-2.711-1.189-2.711-2.656 1.214-2.655 2.711-2.655zm0 24.785c1.497 0 2.711 1.189 2.711 2.656 0 1.466-1.214 2.655-2.711 2.655s-2.711-1.189-2.711-2.655c0-1.467 1.214-2.656 2.711-2.656zm0 24.786c1.497 0 2.711 1.189 2.711 2.655 0 1.467-1.214 2.656-2.711 2.656s-2.711-1.189-2.711-2.656c0-1.466 1.214-2.655 2.711-2.655zm0 49.571c1.497 0 2.711 1.189 2.711 2.655 0 1.467-1.214 2.656-2.711 2.656s-2.711-1.189-2.711-2.656c0-1.466 1.214-2.655 2.711-2.655zm0-24.786c1.497 0 2.711 1.189 2.711 2.656s-1.214 2.655-2.711 2.655-2.711-1.188-2.711-2.655 1.214-2.656 2.711-2.656zm-21.691-87.798c1.498 0 2.712 1.192 2.712 2.662 0 1.471-1.214 2.662-2.712 2.662-1.497 0-2.711-1.191-2.711-2.662 0-1.47 1.214-2.662 2.711-2.662zm0 24.845c1.498 0 2.712 1.192 2.712 2.662s-1.214 2.662-2.712 2.662c-1.497 0-2.711-1.192-2.711-2.662s1.214-2.662 2.711-2.662zm0 24.844c1.498 0 2.712 1.192 2.712 2.662s-1.214 2.662-2.712 2.662c-1.497 0-2.711-1.192-2.711-2.662s1.214-2.662 2.711-2.662zm0 24.845c1.498 0 2.712 1.192 2.712 2.662s-1.214 2.662-2.712 2.662c-1.497 0-2.711-1.192-2.711-2.662s1.214-2.662 2.711-2.662zm0 24.844c1.498 0 2.712 1.192 2.712 2.662s-1.214 2.662-2.712 2.662c-1.497 0-2.711-1.192-2.711-2.662s1.214-2.662 2.711-2.662zm0 49.689c1.498 0 2.712 1.192 2.712 2.662s-1.214 2.662-2.712 2.662c-1.497 0-2.711-1.192-2.711-2.662s1.214-2.662 2.711-2.662zm0-24.844c1.498 0 2.712 1.192 2.712 2.662s-1.214 2.662-2.712 2.662c-1.497 0-2.711-1.192-2.711-2.662s1.214-2.662 2.711-2.662zm-20.786-136.005c1.497 0 2.711 1.188 2.711 2.655 0 1.466-1.214 2.655-2.711 2.655-1.498 0-2.712-1.189-2.712-2.655 0-1.467 1.214-2.655 2.712-2.655zm0 24.782c1.497 0 2.711 1.188 2.711 2.655 0 1.466-1.214 2.655-2.711 2.655-1.498 0-2.712-1.189-2.712-2.655 0-1.467 1.214-2.655 2.712-2.655zm0 24.782c1.497 0 2.711 1.188 2.711 2.655 0 1.466-1.214 2.655-2.711 2.655-1.498 0-2.712-1.189-2.712-2.655 0-1.467 1.214-2.655 2.712-2.655zm0 24.782c1.497 0 2.711 1.189 2.711 2.655s-1.214 2.655-2.711 2.655c-1.498 0-2.712-1.189-2.712-2.655s1.214-2.655 2.712-2.655zm0 24.782c1.497 0 2.711 1.189 2.711 2.655s-1.214 2.655-2.711 2.655c-1.498 0-2.712-1.189-2.712-2.655s1.214-2.655 2.712-2.655zm0 49.564c1.497 0 2.711 1.189 2.711 2.655s-1.214 2.655-2.711 2.655c-1.498 0-2.712-1.189-2.712-2.655s1.214-2.655 2.712-2.655zm0-24.782c1.497 0 2.711 1.189 2.711 2.655s-1.214 2.655-2.711 2.655c-1.498 0-2.712-1.189-2.712-2.655s1.214-2.655 2.712-2.655zm-23.499-136.475c1.498 0 2.712 1.191 2.712 2.66s-1.214 2.66-2.712 2.66c-1.497 0-2.711-1.191-2.711-2.66s1.214-2.66 2.711-2.66zm0 24.83c1.498 0 2.712 1.191 2.712 2.66s-1.214 2.66-2.712 2.66c-1.497 0-2.711-1.191-2.711-2.66s1.214-2.66 2.711-2.66zm0 24.83c1.498 0 2.712 1.191 2.712 2.66s-1.214 2.66-2.712 2.66c-1.497 0-2.711-1.191-2.711-2.66s1.214-2.66 2.711-2.66zm0 24.83c1.498 0 2.712 1.191 2.712 2.66s-1.214 2.66-2.712 2.66c-1.497 0-2.711-1.191-2.711-2.66s1.214-2.66 2.711-2.66zm0 24.83c1.498 0 2.712 1.191 2.712 2.66s-1.214 2.66-2.712 2.66c-1.497 0-2.711-1.191-2.711-2.66s1.214-2.66 2.711-2.66zm0 24.83c1.498 0 2.712 1.191 2.712 2.66s-1.214 2.661-2.712 2.661c-1.497 0-2.711-1.192-2.711-2.661s1.214-2.66 2.711-2.66zm0 49.66c1.498 0 2.712 1.191 2.712 2.66s-1.214 2.66-2.712 2.66c-1.497 0-2.711-1.191-2.711-2.66s1.214-2.66 2.711-2.66zm0-24.83c1.498 0 2.712 1.191 2.712 2.66s-1.214 2.66-2.712 2.66c-1.497 0-2.711-1.191-2.711-2.66s1.214-2.66 2.711-2.66zm-20.786-162.1c1.497 0 2.711 1.193 2.711 2.665 0 1.471-1.214 2.664-2.711 2.664-1.498 0-2.712-1.193-2.712-2.664 0-1.472 1.214-2.665 2.712-2.665zm0 24.87c1.497 0 2.711 1.193 2.711 2.665 0 1.471-1.214 2.664-2.711 2.664-1.498 0-2.712-1.193-2.712-2.664 0-1.472 1.214-2.665 2.712-2.665zm0 24.87c1.497 0 2.711 1.193 2.711 2.664 0 1.472-1.214 2.665-2.711 2.665-1.498 0-2.712-1.193-2.712-2.665 0-1.471 1.214-2.664 2.712-2.664zm0 24.869c1.497 0 2.711 1.193 2.711 2.665s-1.214 2.665-2.711 2.665c-1.498 0-2.712-1.193-2.712-2.665s1.214-2.665 2.712-2.665zm0 24.87c1.497 0 2.711 1.193 2.711 2.665 0 1.471-1.214 2.664-2.711 2.664-1.498 0-2.712-1.193-2.712-2.664 0-1.472 1.214-2.665 2.712-2.665zm0 24.87c1.497 0 2.711 1.193 2.711 2.664 0 1.472-1.214 2.665-2.711 2.665-1.498 0-2.712-1.193-2.712-2.665 0-1.471 1.214-2.664 2.712-2.664zm0 49.739c1.497 0 2.711 1.193 2.711 2.665 0 1.471-1.214 2.664-2.711 2.664-1.498 0-2.712-1.193-2.712-2.664 0-1.472 1.214-2.665 2.712-2.665zm0-24.87c1.497 0 2.711 1.193 2.711 2.665s-1.214 2.665-2.711 2.665c-1.498 0-2.712-1.193-2.712-2.665s1.214-2.665 2.712-2.665zm-22.597-155.619a2.71 2.71 0 0 1 -1.278-.328h2.556a2.714 2.714 0 0 1 -1.278.328zm0 19.563c1.497 0 2.711 1.199 2.711 2.679s-1.214 2.68-2.711 2.68-2.711-1.2-2.711-2.68 1.214-2.679 2.711-2.679zm.002 24.928c1.498 0 2.712 1.195 2.712 2.669s-1.214 2.669-2.712 2.669c-1.497 0-2.711-1.195-2.711-2.669s1.214-2.669 2.711-2.669zm0 24.909c1.498 0 2.712 1.195 2.712 2.669s-1.214 2.669-2.712 2.669c-1.497 0-2.711-1.195-2.711-2.669s1.214-2.669 2.711-2.669zm0 24.91c1.498 0 2.712 1.195 2.712 2.669s-1.214 2.669-2.712 2.669c-1.497 0-2.711-1.195-2.711-2.669s1.214-2.669 2.711-2.669zm0 24.909c1.498 0 2.712 1.195 2.712 2.669s-1.214 2.669-2.712 2.669c-1.497 0-2.711-1.195-2.711-2.669s1.214-2.669 2.711-2.669zm0 24.91c1.498 0 2.712 1.195 2.712 2.669s-1.214 2.669-2.712 2.669c-1.497 0-2.711-1.195-2.711-2.669s1.214-2.669 2.711-2.669zm0 49.819c1.498 0 2.712 1.195 2.712 2.669s-1.214 2.669-2.712 2.669c-1.497 0-2.711-1.195-2.711-2.669s1.214-2.669 2.711-2.669zm0-24.91c1.498 0 2.712 1.195 2.712 2.669s-1.214 2.669-2.712 2.669c-1.497 0-2.711-1.195-2.711-2.669s1.214-2.669 2.711-2.669zm-20.786-162.637c1.497 0 2.711 1.195 2.711 2.669s-1.214 2.669-2.711 2.669c-1.498 0-2.712-1.195-2.712-2.669s1.214-2.669 2.712-2.669zm0 24.91c1.497 0 2.711 1.195 2.711 2.669s-1.214 2.668-2.711 2.668c-1.498 0-2.712-1.194-2.712-2.668s1.214-2.669 2.712-2.669zm0 24.909c1.497 0 2.711 1.195 2.711 2.669s-1.214 2.669-2.711 2.669c-1.498 0-2.712-1.195-2.712-2.669s1.214-2.669 2.712-2.669zm0 24.91c1.497 0 2.711 1.195 2.711 2.669s-1.214 2.668-2.711 2.668c-1.498 0-2.712-1.194-2.712-2.668s1.214-2.669 2.712-2.669zm0 24.909c1.497 0 2.711 1.195 2.711 2.669s-1.214 2.669-2.711 2.669c-1.498 0-2.712-1.195-2.712-2.669s1.214-2.669 2.712-2.669zm0 24.91c1.497 0 2.711 1.195 2.711 2.668 0 1.474-1.214 2.669-2.711 2.669-1.498 0-2.712-1.195-2.712-2.669 0-1.473 1.214-2.668 2.712-2.668zm0 49.819c1.497 0 2.711 1.195 2.711 2.669 0 1.473-1.214 2.668-2.711 2.668-1.498 0-2.712-1.195-2.712-2.668 0-1.474 1.214-2.669 2.712-2.669zm0-24.91c1.497 0 2.711 1.195 2.711 2.669s-1.214 2.669-2.711 2.669c-1.498 0-2.712-1.195-2.712-2.669s1.214-2.669 2.712-2.669zm-20.787-136.316c1.497 0 2.711 1.193 2.711 2.664 0 1.472-1.214 2.665-2.711 2.665-1.498 0-2.712-1.193-2.712-2.665 0-1.471 1.214-2.664 2.712-2.664zm0 24.869c1.497 0 2.711 1.193 2.711 2.665s-1.214 2.665-2.711 2.665c-1.498 0-2.712-1.193-2.712-2.665s1.214-2.665 2.712-2.665zm0 24.87c1.497 0 2.711 1.193 2.711 2.665 0 1.471-1.214 2.664-2.711 2.664-1.498 0-2.712-1.193-2.712-2.664 0-1.472 1.214-2.665 2.712-2.665zm0 24.87c1.497 0 2.711 1.193 2.711 2.664 0 1.472-1.214 2.665-2.711 2.665-1.498 0-2.712-1.193-2.712-2.665 0-1.471 1.214-2.664 2.712-2.664zm0 24.87c1.497 0 2.711 1.193 2.711 2.664 0 1.472-1.214 2.665-2.711 2.665-1.498 0-2.712-1.193-2.712-2.665 0-1.471 1.214-2.664 2.712-2.664zm0 24.869c1.497 0 2.711 1.193 2.711 2.665s-1.214 2.665-2.711 2.665c-1.498 0-2.712-1.193-2.712-2.665s1.214-2.665 2.712-2.665zm0 49.74c1.497 0 2.711 1.193 2.711 2.664 0 1.472-1.214 2.665-2.711 2.665-1.498 0-2.712-1.193-2.712-2.665 0-1.471 1.214-2.664 2.712-2.664zm0-24.87c1.497 0 2.711 1.193 2.711 2.665 0 1.471-1.214 2.664-2.711 2.664-1.498 0-2.712-1.193-2.712-2.664 0-1.472 1.214-2.665 2.712-2.665zm-23.498-136.633c1.497 0 2.711 1.19 2.711 2.659s-1.214 2.66-2.711 2.66c-1.498 0-2.712-1.191-2.712-2.66s1.214-2.659 2.712-2.659zm0 24.821c1.497 0 2.711 1.191 2.711 2.66s-1.214 2.659-2.711 2.659c-1.498 0-2.712-1.19-2.712-2.659s1.214-2.66 2.712-2.66zm0 24.822c1.497 0 2.711 1.191 2.711 2.66 0 1.468-1.214 2.659-2.711 2.659-1.498 0-2.712-1.191-2.712-2.659 0-1.469 1.214-2.66 2.712-2.66zm0 24.822c1.497 0 2.711 1.19 2.711 2.659s-1.214 2.66-2.711 2.66c-1.498 0-2.712-1.191-2.712-2.66s1.214-2.659 2.712-2.659zm0 24.821c1.497 0 2.711 1.191 2.711 2.66s-1.214 2.659-2.711 2.659c-1.498 0-2.712-1.19-2.712-2.659s1.214-2.66 2.712-2.66zm0 49.644c1.497 0 2.711 1.19 2.711 2.659s-1.214 2.66-2.711 2.66c-1.498 0-2.712-1.191-2.712-2.66s1.214-2.659 2.712-2.659zm0-24.822c1.497 0 2.711 1.191 2.711 2.659 0 1.469-1.214 2.66-2.711 2.66-1.498 0-2.712-1.191-2.712-2.66 0-1.468 1.214-2.659 2.712-2.659zm-20.787-112.307c1.497 0 2.711 1.194 2.711 2.667 0 1.472-1.214 2.666-2.711 2.666-1.498 0-2.711-1.194-2.711-2.666 0-1.473 1.213-2.667 2.711-2.667zm0 24.885c1.497 0 2.711 1.193 2.711 2.666 0 1.472-1.214 2.666-2.711 2.666-1.498 0-2.711-1.194-2.711-2.666 0-1.473 1.213-2.666 2.711-2.666zm0 24.884c1.497 0 2.711 1.193 2.711 2.666 0 1.472-1.214 2.666-2.711 2.666-1.498 0-2.711-1.194-2.711-2.666 0-1.473 1.213-2.666 2.711-2.666zm0 24.884c1.497 0 2.711 1.194 2.711 2.666 0 1.473-1.214 2.666-2.711 2.666-1.498 0-2.711-1.193-2.711-2.666 0-1.472 1.213-2.666 2.711-2.666zm0 24.884c1.497 0 2.711 1.194 2.711 2.666 0 1.473-1.214 2.666-2.711 2.666-1.498 0-2.711-1.193-2.711-2.666 0-1.472 1.213-2.666 2.711-2.666zm0 49.768c1.497 0 2.711 1.194 2.711 2.667 0 1.472-1.214 2.666-2.711 2.666-1.498 0-2.711-1.194-2.711-2.666 0-1.473 1.213-2.667 2.711-2.667zm0-24.884c1.497 0 2.711 1.194 2.711 2.667 0 1.472-1.214 2.666-2.711 2.666-1.498 0-2.711-1.194-2.711-2.666 0-1.473 1.213-2.667 2.711-2.667z" fill="url(#a)"/></svg>