<svg height="36" width="101" xmlns="http://www.w3.org/2000/svg"><g fill-rule="evenodd"><path d="m11.964 34.308-10.154-6.475c-1.807-1.28-1.807-3.322-1.807-3.322v-13.047s0-2.222 1.823-3.337l10.138-6.465c3.493-2.225 3.493-2.225 6.992.005l10.123 6.455c1.833 1.177 1.831 3.338 1.831 3.338v13.052s.002 2.139-1.831 3.337l-10.127 6.456c-3.495 2.231-3.495 2.231-6.988.003z" fill="#212f68"/><path d="m17.496 18.147 5.042 6.264h-3.088c-.429 0-.8-.204-1.058-.509l-.012.011-2.282-2.834h-.003a.606.606 0 0 0 -.469-.23.608.608 0 0 0 -.47.23h-.019l-2.281 2.834-.013-.011a1.379 1.379 0 0 1 -1.058.509h-3.088l5.042-6.264-5.042-6.264h3.088c.43 0 .801.204 1.058.509l.012-.011 2.294 2.85h.027c.112.122.27.201.45.201a.611.611 0 0 0 .45-.201h.01l2.294-2.85.012.011a1.382 1.382 0 0 1 1.058-.509h3.088z" fill="#31f8bc"/><path d="m99.961 30.953-2.563-3.675h-.028l.018.206c.033.39.05.748.05 1.072v2.397h-.774v-4.611h1.034l2.556 3.655h.021a19.955 19.955 0 0 1 -.029-.528 16.461 16.461 0 0 1 -.021-.712v-2.415h.781v4.611zm.893-10.27h-3.086v-11.256h3.086zm-1.538-12.655c-1.12 0-1.68-.503-1.68-1.51 0-1 .56-1.5 1.68-1.5s1.68.5 1.68 1.5c0 .477-.14.847-.42 1.113-.28.265-.7.397-1.26.397zm-6.011 18.314h.852v4.611h-.852zm-3.246 3.33h-1.992l-.51 1.281h-.898l1.949-4.63h.927l1.95 4.63h-.905zm-.713-1.905a7.578 7.578 0 0 1 -.148-.397 7.769 7.769 0 0 1 -.13-.398 6.502 6.502 0 0 1 -.281.849l-.471 1.202h1.519zm-3.31-8.614h-.081c-.519.651-1.054 1.102-1.603 1.353-.55.252-1.267.378-2.151.378-1.086 0-1.941-.309-2.565-.926s-.936-1.497-.936-2.638c0-1.194.42-2.075 1.26-2.642.84-.568 2.106-.882 3.8-.941l1.963-.061v-.493c0-1.142-.587-1.712-1.761-1.712-.904 0-1.966.272-3.187.816l-1.022-2.074c1.302-.678 2.745-1.017 4.33-1.017 1.518 0 2.682.329 3.491.987.81.657 1.214 1.657 1.214 3v7.5h-2.155zm-.313-3.685-1.194.04c-.898.027-1.565.188-2.004.483-.438.296-.658.745-.658 1.349 0 .866.5 1.3 1.498 1.3.715 0 1.287-.205 1.715-.615.428-.409.643-.953.643-1.631zm-7.913 11.537a2.277 2.277 0 0 0 -.618-.083c-.49 0-.875.153-1.155.46-.281.307-.421.731-.421 1.271 0 .567.135.994.405 1.284.269.291.66.436 1.171.436.221 0 .435-.02.641-.059.207-.039.422-.089.645-.149v.646a4.36 4.36 0 0 1 -1.39.205c-.763 0-1.348-.205-1.757-.613-.409-.409-.613-.995-.613-1.756 0-.479.099-.899.297-1.258a2 2 0 0 1 .861-.827c.376-.191.817-.287 1.323-.287a3.63 3.63 0 0 1 1.475.297l-.306.627a5.145 5.145 0 0 0 -.558-.194zm-15.071-6.322h-4.189v-14.718h4.645c2.414 0 4.29.633 5.625 1.902 1.336 1.269 2.004 3.04 2.004 5.316 0 2.423-.693 4.278-2.079 5.567-1.387 1.288-3.389 1.933-6.006 1.933zm.617-12.162h-1.669v9.585h1.346c3.022 0 4.533-1.615 4.533-4.843 0-3.161-1.403-4.742-4.21-4.742zm-4.072 18.975a.982.982 0 0 1 -.235.672c-.157.179-.383.291-.677.337v.032c.365.061.635.181.807.361s.258.423.258.73c0 .415-.163.739-.49.973-.326.235-.781.352-1.363.352h-1.882v-4.611h1.547c.717 0 1.236.092 1.556.277.319.185.479.478.479.877zm-2.73 2.823h.905c.356 0 .626-.061.807-.181.182-.121.273-.313.273-.573 0-.24-.093-.417-.278-.533s-.467-.173-.845-.173h-.862zm1.581-3.202c-.178-.096-.458-.145-.843-.145h-.738v1.275h.82c.356 0 .616-.05.78-.15s.246-.27.246-.509c0-.217-.088-.374-.265-.471zm-5.679 2.555h-1.992l-.51 1.281h-.898l1.95-4.63h.926l1.95 4.63h-.905zm-.713-1.905a6.92 6.92 0 0 1 -.147-.397 8.04 8.04 0 0 1 -.131-.398 6.502 6.502 0 0 1 -.281.849l-.471 1.202h1.519zm-4.469-7.084-2.378-3.856-2.388 3.856h-3.501l3.835-5.748-3.643-5.508h3.501l2.196 3.584 2.216-3.584h3.501l-3.683 5.508 3.855 5.748zm-6.766 9.696c.338 0 .587-.057.747-.17a.534.534 0 0 0 .241-.458.55.55 0 0 0 -.221-.439c-.148-.119-.452-.261-.913-.425-.475-.17-.81-.365-1.005-.583a1.145 1.145 0 0 1 -.292-.789c0-.385.154-.688.463-.909.309-.22.724-.331 1.244-.331.499 0 .996.097 1.49.291l-.271.614c-.463-.172-.877-.258-1.24-.258-.276 0-.485.053-.628.159a.503.503 0 0 0 -.213.422.54.54 0 0 0 .085.307.837.837 0 0 0 .282.241c.13.076.366.176.706.3.382.141.663.272.841.394s.309.26.392.413c.083.154.125.335.125.543 0 .41-.168.731-.503.965-.335.233-.797.35-1.387.35-.589 0-1.071-.081-1.447-.243v-.713c.238.099.49.177.758.234.267.056.516.085.746.085zm7.306-3.391h-1.533v3.965h-.852v-3.965h-1.533v-.646h3.918zm14.691 3.318h2.206v.647h-3.058v-4.611h.852zm7.184-3.327h-2.096v1.255h1.964v.631h-1.964v1.448h2.096v.64h-2.948v-4.611h2.948zm11.896 1.249h2.402v-1.886h.856v4.611h-.856v-2.079h-2.402v2.079h-.852v-4.611h.852z" fill="#212f68"/></g></svg>