<?xml version="1.0" encoding="utf-8"?>
<!-- Generator: Adobe Illustrator 21.1.0, SVG Export Plug-In . SVG Version: 6.00 Build 0)  -->
<!DOCTYPE svg PUBLIC "-//W3C//DTD SVG 1.1//EN" "http://www.w3.org/Graphics/SVG/1.1/DTD/svg11.dtd">
<svg version="1.1" id="Layer_1" xmlns="http://www.w3.org/2000/svg" xmlns:xlink="http://www.w3.org/1999/xlink" x="0px" y="0px"
	 viewBox="0 0 128 43.5" style="enable-background:new 0 0 128 43.5;" xml:space="preserve">
<style type="text/css">
	.st0{filter:url(#a);}
	.st1{fill:#FFFFFF;}
	.st2{fill:#D6191E;}
	.st3{fill:url(#SVGID_1_);}
	.st4{fill:#53546A;}
</style>
<filter  filterUnits="userSpaceOnUse" height="49" id="a" width="43" x="0" y="0">
	<feOffset  dy="3" in="SourceAlpha"></feOffset>
	<feGaussianBlur  result="blurOut" stdDeviation="2.236"></feGaussianBlur>
	<feFlood  flood-color="#ABBAC7" result="floodOut"></feFlood>
	<feComposite  in="floodOut" in2="blurOut" operator="atop"></feComposite>
	<feComponentTransfer>
		<feFuncA  slope=".2" type="linear"></feFuncA>
	</feComponentTransfer>
	<feMerge>
		<feMergeNode></feMergeNode>
		<feMergeNode  in="SourceGraphic"></feMergeNode>
	</feMerge>
</filter>
<g class="st0">
	<path class="st1" d="M17.2,38.8L6,32.1c-2-1.3-2-3.4-2-3.4l0-15.8c0,0,0-2.3,2-3.4l11.2-6.7c3.8-2.3,3.8-2.3,7.7,0L36,9.4
		c2,1.2,2,3.4,2,3.4v15.8c0,0,0,2.2-2,3.4l-11.1,6.7C21,41.1,21,41.1,17.2,38.8z"/>
</g>
<path class="st2" d="M21.2,30.5l-9.8-9.8l9.8-9.8l9.8,9.8L21.2,30.5z M15.2,20.1h4.1l2-2.1l2.1,2.1h4l-6.1-6.8L15.2,20.1z"/>
<linearGradient id="SVGID_1_" gradientUnits="userSpaceOnUse" x1="-545.0159" y1="511.0359" x2="-545.0159" y2="512.0359" gradientTransform="matrix(19.502 0 0 -19.508 10650.1484 9999.791)">
	<stop  offset="0" style="stop-color:#FEC141"/>
	<stop  offset="1" style="stop-color:#FFD065"/>
</linearGradient>
<path class="st3" d="M21.2,30.5l-9.8-9.8l9.8-9.8l9.8,9.8L21.2,30.5z M15.2,20.1h4.1l2-2.1l2.1,2.1h4l-6.1-6.8L15.2,20.1z"/>
<path class="st4" d="M127.8,27.8c-0.1,0.1-0.2,0.2-0.4,0.2c-0.2,0-0.3,0-0.4-0.2c-0.1-0.1-0.2-0.3-0.2-0.4v-5c0-0.9-0.2-1.5-0.5-1.9
	c-0.3-0.4-0.9-0.6-1.7-0.6c-0.9,0-1.6,0.3-2.1,0.8s-0.8,1.2-0.8,2.1v4.6c0,0.1,0,0.3-0.1,0.4c-0.1,0.1-0.2,0.2-0.4,0.2
	c-0.2,0-0.3,0-0.4-0.2c-0.1-0.1-0.2-0.3-0.2-0.4v-7.9c0-0.2,0.1-0.3,0.2-0.4c0.1-0.1,0.3-0.2,0.4-0.2c0.2,0,0.3,0,0.4,0.1
	c0.1,0.1,0.2,0.2,0.1,0.4v1.1c0.3-0.5,0.7-1,1.2-1.3c0.5-0.3,1.1-0.4,1.8-0.4c2.1,0,3.2,1.1,3.2,3.4v5.1
	C128,27.5,127.9,27.7,127.8,27.8L127.8,27.8z M117.3,16.9c-0.2,0-0.4-0.1-0.6-0.2c-0.2-0.1-0.2-0.3-0.2-0.6c0-0.2,0.1-0.4,0.2-0.6
	c0.2-0.1,0.4-0.2,0.6-0.2c0.2,0,0.4,0.1,0.6,0.2c0.2,0.1,0.2,0.3,0.2,0.6c0,0.2-0.1,0.4-0.2,0.6C117.7,16.8,117.5,16.9,117.3,16.9z
	 M113.3,27.9c-0.1,0-0.3,0-0.4-0.2c-0.1-0.1-0.2-0.3-0.1-0.4v-1.1c-0.2,0.5-0.6,1-1.1,1.3c-0.5,0.3-1,0.4-1.7,0.4
	c-0.5,0-1.1-0.1-1.6-0.3c-0.4-0.2-0.8-0.5-1.1-1c-0.3-0.4-0.4-0.9-0.4-1.4c0-0.6,0.2-1.2,0.5-1.5c0.3-0.4,0.9-0.6,1.7-0.8
	c0.8-0.2,1.9-0.2,3.3-0.2h0.4v-0.7c0-0.8-0.2-1.4-0.5-1.7c-0.3-0.4-0.8-0.5-1.5-0.5c-0.9,0-1.7,0.2-2.5,0.7l-0.3,0.2
	c-0.2,0.1-0.3,0.2-0.4,0.2c-0.1,0-0.2,0-0.3-0.1c-0.1-0.1-0.1-0.2-0.1-0.3c0-0.3,0.2-0.5,0.6-0.8c0.4-0.2,0.9-0.4,1.4-0.6
	c0.5-0.1,1-0.2,1.5-0.2c1.1,0,1.8,0.3,2.4,0.8c0.5,0.6,0.8,1.4,0.8,2.5v5.1c0,0.1,0,0.3-0.1,0.4C113.6,27.9,113.5,27.9,113.3,27.9z
	 M112.8,23.6h-0.3c-1.2,0-2,0-2.7,0.1c-0.6,0.1-1,0.3-1.3,0.5c-0.3,0.2-0.4,0.6-0.4,1c0,0.5,0.2,0.9,0.6,1.3
	c0.4,0.3,0.9,0.5,1.4,0.5c0.8,0,1.4-0.3,1.9-0.8c0.5-0.5,0.7-1.2,0.7-2C112.8,24.2,112.8,23.6,112.8,23.6z M103.8,27.9
	c-0.2,0-0.3,0-0.4-0.2c-0.1-0.1-0.2-0.3-0.2-0.4v-5c0-0.9-0.2-1.5-0.5-1.9c-0.3-0.4-0.9-0.6-1.7-0.6c-0.9,0-1.6,0.3-2.1,0.8
	s-0.8,1.2-0.8,2.1v4.6c0,0.1,0,0.3-0.1,0.4c-0.1,0.1-0.2,0.2-0.4,0.2c-0.2,0-0.3,0-0.4-0.2c-0.1-0.1-0.2-0.3-0.2-0.4V15.6
	c0-0.2,0-0.3,0.2-0.4c0.1-0.1,0.3-0.2,0.4-0.2c0.2,0,0.3,0.1,0.4,0.2c0.1,0.1,0.2,0.3,0.1,0.4v5c0.3-0.5,0.7-1,1.2-1.2
	c0.5-0.3,1.1-0.4,1.8-0.4c2.1,0,3.2,1.1,3.2,3.4v5.1c0,0.1,0,0.3-0.1,0.4C104.1,27.9,104,28,103.8,27.9z M90.4,27
	c0.7,0,1.3-0.1,1.9-0.3s1.1-0.6,1.8-1.1c0.2-0.1,0.3-0.2,0.4-0.2s0.2,0,0.3,0.1s0.1,0.2,0.1,0.3c0,0.2-0.1,0.4-0.3,0.5
	c-0.5,0.5-1.2,0.9-1.8,1.2C92,27.9,91.2,28,90.4,28c-1.2,0-2.2-0.3-3.1-0.8c-0.9-0.5-1.5-1.3-2-2.3s-0.7-2.1-0.7-3.5
	c0-1.3,0.2-2.5,0.7-3.5c0.5-1,1.1-1.7,2-2.2c0.9-0.5,1.9-0.8,3.1-0.8c0.8,0,1.6,0.1,2.3,0.4c0.7,0.2,1.3,0.6,1.8,1.2
	c0.2,0.2,0.3,0.3,0.3,0.5c0,0.1,0,0.2-0.1,0.3c-0.1,0.1-0.2,0.1-0.3,0.1c-0.1,0-0.3-0.1-0.4-0.2c-0.6-0.5-1.2-0.9-1.8-1.1
	c-0.5-0.2-1.1-0.3-1.9-0.3c-1.5,0-2.6,0.5-3.4,1.4c-0.8,1-1.2,2.3-1.2,4.1c0,1.8,0.4,3.1,1.2,4.1C87.8,26.5,88.9,27,90.4,27z
	 M76.3,28c-0.3,0-0.6-0.1-0.8-0.3c-0.2-0.2-0.3-0.5-0.3-0.8V16.2c0-0.3,0.1-0.6,0.3-0.8c0.2-0.2,0.5-0.3,0.8-0.3
	c0.4,0,0.6,0.1,0.9,0.3c0.2,0.2,0.3,0.5,0.3,0.8v10.6c0,0.3-0.1,0.6-0.3,0.8C76.9,27.9,76.7,28,76.3,28z M72.3,27.9
	c-0.2,0-0.4-0.1-0.5-0.2c-0.2-0.1-0.3-0.3-0.4-0.5l-1.1-2.4h-6.3l-1.1,2.4c-0.1,0.2-0.2,0.4-0.4,0.5c-0.2,0.1-0.4,0.2-0.6,0.2
	c-0.3,0-0.5-0.1-0.8-0.3c-0.2-0.2-0.3-0.4-0.3-0.7c0-0.2,0-0.3,0.1-0.5l5-10.7c0.1-0.2,0.3-0.4,0.5-0.6c0.2-0.1,0.5-0.2,0.7-0.2
	s0.5,0.1,0.7,0.2c0.2,0.1,0.4,0.3,0.5,0.6l5,10.7c0.1,0.2,0.1,0.3,0.1,0.5c0,0.3-0.1,0.5-0.3,0.7C72.9,27.8,72.6,27.9,72.3,27.9z
	 M67.1,17.7l-2.4,5.4h4.8C69.5,23.1,67.1,17.7,67.1,17.7z M53.2,27.9h-3.6c-0.3,0-0.6-0.1-0.8-0.3c-0.2-0.2-0.3-0.5-0.3-0.8V16.2
	c0-0.3,0.1-0.6,0.3-0.8c0.2-0.2,0.5-0.3,0.8-0.3h3.6c2.1,0,3.7,0.6,4.8,1.7s1.7,2.7,1.7,4.7c0,2-0.6,3.6-1.7,4.7
	C56.9,27.3,55.3,27.9,53.2,27.9z M53,17h-2.2V26H53c2.9,0,4.4-1.5,4.4-4.5C57.4,18.5,56,17,53,17z M117.3,18.9c0.2,0,0.3,0,0.4,0.1
	c0.1,0.1,0.1,0.2,0.1,0.4v7.9c0,0.2,0,0.3-0.1,0.4c-0.1,0.1-0.2,0.2-0.4,0.1c-0.1,0-0.3,0-0.4-0.1c-0.1-0.1-0.2-0.2-0.2-0.4v-7.9
	c0-0.2,0.1-0.3,0.2-0.4C117,19,117.2,18.9,117.3,18.9z"/>
</svg>
