<svg width="178" height="36" xmlns="http://www.w3.org/2000/svg"><defs><linearGradient x1="0%" y1="0%" x2="0%" y2="100%" id="a"><stop stop-color="#13D8A7" offset="0%"/><stop stop-color="#23A695" offset="100%"/></linearGradient></defs><g fill="none" fill-rule="evenodd"><path d="M11.61 34.427c-3.062-1.89-8.985-5.546-9.856-6.085C0 27.139 0 25.219 0 25.219V10.78s0-2.089 1.77-3.137l9.84-6.076C15-.525 15-.525 18.396 1.571l9.825 6.067c1.779 1.106 1.778 3.138 1.778 3.138V25.22s.001 2.011-1.778 3.136l-9.828 6.069C15 36.522 15 36.522 11.61 34.427z" fill="#FFF"/><path d="M11.61 35.429c-3.062-1.89-8.985-5.546-9.856-6.085C0 28.14 0 26.22 0 26.22V11.78s0-2.088 1.77-3.136l9.84-6.076C15 .477 15 .477 18.396 2.573l9.825 6.067c1.779 1.106 1.778 3.138 1.778 3.138v14.444s.001 2.01-1.778 3.136l-9.828 6.069C15 37.524 15 37.524 11.61 35.429z" fill="url(#a)" fill-rule="nonzero" transform="translate(0 -1)"/><path fill="#FFF" d="M22.777 10.696l-5.666 7.314 5.662 7.31h-4.221L15 20.735l-3.552 4.585H7.227l5.662-7.31-5.666-7.314h4.221L15 15.285l3.556-4.589z"/><path d="M177.766 23.72c-.157.15-.373.225-.65.225-.267 0-.478-.078-.634-.234a.857.857 0 0 1-.233-.631v-4.598c0-.745-.142-1.292-.426-1.64-.283-.349-.725-.523-1.326-.523-.706 0-1.272.229-1.7.685-.427.458-.64 1.07-.64 1.84v4.236c0 .265-.079.475-.235.631-.156.156-.367.234-.634.234a.889.889 0 0 1-.642-.234.838.838 0 0 1-.242-.631v-7.338c0-.252.083-.46.251-.621a.873.873 0 0 1 .633-.245.808.808 0 0 1 .608.235c.15.156.225.36.225.613v.74c.258-.51.662-.93 1.161-1.208a3.4 3.4 0 0 1 1.683-.415c2.023 0 3.035 1.183 3.035 3.551v4.688c0 .276-.078.49-.234.64zM167.09 13.11c-.335 0-.6-.097-.797-.289-.2-.2-.307-.474-.296-.756 0-.314.1-.563.296-.75.197-.185.462-.279.797-.279.324 0 .587.094.79.28a.969.969 0 0 1 .303.749c0 .312-.099.564-.295.756-.197.192-.462.289-.798.289zm-4.127 10.835a.801.801 0 0 1-.607-.234c-.15-.156-.226-.366-.226-.631v-.667c-.198.48-.54.886-.98 1.163a2.81 2.81 0 0 1-1.517.406 3.331 3.331 0 0 1-1.526-.353 2.619 2.619 0 0 1-1.475-2.389c0-.637.159-1.138.478-1.505.318-.367.844-.628 1.578-.784.734-.156 1.743-.234 3.026-.234h.399v-.524c0-.672-.133-1.16-.399-1.46-.266-.3-.693-.45-1.283-.45-.405 0-.786.054-1.146.162a8.226 8.226 0 0 0-1.178.47c-.312.179-.532.27-.66.27a.525.525 0 0 1-.424-.2.76.76 0 0 1-.166-.503c0-.181.05-.34.149-.479.097-.138.256-.273.476-.405.448-.245.926-.43 1.422-.55a6.423 6.423 0 0 1 1.579-.207c1.12 0 1.957.294 2.506.883.55.589.824 1.484.824 2.687v4.669c0 .276-.075.49-.227.64-.15.15-.358.225-.623.225zm-.85-4.2h-.313c-.902 0-1.594.042-2.08.125-.486.085-.833.226-1.041.424-.209.199-.313.485-.313.857 0 .432.151.787.452 1.063.3.277.676.415 1.127.415.636 0 1.156-.225 1.561-.676.405-.45.607-1.03.607-1.74v-.469zm-8.463 4.2c-.267 0-.478-.078-.633-.234a.853.853 0 0 1-.234-.631v-4.67c0-.72-.142-1.25-.426-1.587-.283-.335-.725-.504-1.327-.504-.705 0-1.271.229-1.698.685-.429.458-.642 1.07-.642 1.84v4.236c0 .265-.078.475-.235.631-.156.156-.367.234-.634.234a.883.883 0 0 1-.64-.234.834.834 0 0 1-.244-.631V11.92c0-.265.084-.474.252-.631a.917.917 0 0 1 .65-.234c.254 0 .46.075.616.224.157.151.235.353.235.605v4.507c.289-.505.675-.89 1.16-1.153.487-.266 1.042-.397 1.666-.397 2.013 0 3.018 1.183 3.018 3.551v4.688a.838.838 0 0 1-.243.631.889.889 0 0 1-.641.234zm-12.869-1.478c.555 0 1.061-.09 1.517-.271.457-.18.975-.48 1.553-.901.23-.156.422-.234.571-.234.163 0 .301.075.417.225.118.158.18.352.173.55a.886.886 0 0 1-.33.721 5.204 5.204 0 0 1-1.785 1.072 6.317 6.317 0 0 1-2.168.37c-1.168 0-2.186-.262-3.053-.784-.867-.523-1.532-1.274-1.994-2.254-.462-.979-.694-2.136-.694-3.47 0-1.323.232-2.473.694-3.453.462-.979 1.127-1.73 1.994-2.253.867-.524 1.885-.785 3.053-.785.763 0 1.485.123 2.168.37a5.204 5.204 0 0 1 1.786 1.073c.217.175.34.442.33.721a.875.875 0 0 1-.174.55c-.116.15-.254.225-.417.225a.88.88 0 0 1-.571-.234c-.556-.433-1.061-.736-1.518-.911a4.33 4.33 0 0 0-1.552-.261c-1.272 0-2.25.427-2.932 1.28-.682.854-1.023 2.08-1.023 3.679 0 1.61.341 2.841 1.023 3.695.683.853 1.66 1.28 2.932 1.28zm-12.712-2.705h-5.36c.116 1.863.977 2.795 2.584 2.795.427 0 .798-.06 1.11-.18.312-.12.643-.276.989-.469a3.14 3.14 0 0 1 .286-.153.922.922 0 0 1 .39-.117c.162 0 .295.065.4.198a.79.79 0 0 1 .155.504c0 .35-.208.643-.624.884-.405.24-.847.426-1.327.559a5.18 5.18 0 0 1-1.379.199c-1.34 0-2.399-.406-3.174-1.218-.774-.811-1.162-1.92-1.162-3.327 0-.9.17-1.7.512-2.397a3.864 3.864 0 0 1 1.44-1.623 3.918 3.918 0 0 1 2.107-.576c1.133 0 2.03.378 2.688 1.135.659.758.988 1.78.988 3.065 0 .48-.208.721-.623.721zm-1.484-2.93c-.363-.438-.875-.657-1.535-.657-.67 0-1.208.222-1.613.667-.405.444-.647 1.07-.728 1.875h4.475c-.034-.817-.235-1.445-.6-1.885zm-8.454 7.113a.932.932 0 0 1-.633-.217c-.168-.143-.253-.36-.253-.648V11.938c0-.288.085-.508.253-.659a.912.912 0 0 1 .633-.224c.254 0 .462.075.625.224.161.151.242.37.242.66v11.14c0 .29-.081.506-.242.65a.907.907 0 0 1-.625.216zm-4.64-.54a3.413 3.413 0 0 1-1.95.577c-.637 0-1.198-.142-1.683-.424a2.742 2.742 0 0 1-1.11-1.218v.721c0 .266-.078.479-.234.641a.842.842 0 0 1-.634.243.868.868 0 0 1-.64-.243.865.865 0 0 1-.244-.64V11.92c0-.265.083-.474.251-.631a.917.917 0 0 1 .651-.234c.254 0 .46.075.616.224.156.151.234.353.234.605V16.5a2.8 2.8 0 0 1 1.11-1.227 3.244 3.244 0 0 1 1.683-.432c.74 0 1.393.186 1.96.559.565.372 1.008.9 1.326 1.586.317.685.477 1.484.477 2.398 0 .9-.16 1.7-.477 2.398-.318.697-.763 1.238-1.336 1.623zm-.598-6.302c-.416-.534-1.006-.802-1.769-.802-.763 0-1.35.27-1.76.81-.411.542-.616 1.311-.616 2.31 0 .996.205 1.766.616 2.307.41.54.997.81 1.76.81.751 0 1.339-.276 1.76-.828.422-.553.633-1.329.633-2.326 0-.985-.208-1.746-.624-2.281zm-9.14 6.842a.801.801 0 0 1-.606-.234c-.151-.156-.227-.366-.227-.631v-.667c-.198.48-.54.886-.979 1.163a2.81 2.81 0 0 1-1.518.406 3.331 3.331 0 0 1-1.525-.353 2.619 2.619 0 0 1-1.475-2.389c0-.637.158-1.138.477-1.505.318-.367.844-.628 1.578-.784.734-.156 1.743-.234 3.027-.234h.398v-.524c0-.672-.133-1.16-.398-1.46-.267-.3-.694-.45-1.284-.45-.405 0-.786.054-1.144.162-.405.126-.8.283-1.18.47-.312.179-.532.27-.66.27a.525.525 0 0 1-.424-.2.76.76 0 0 1-.165-.503c0-.181.05-.34.148-.479.098-.138.257-.273.477-.405.447-.245.925-.43 1.421-.55a6.423 6.423 0 0 1 1.58-.207c1.12 0 1.956.294 2.505.883.55.589.824 1.484.824 2.687v4.669c0 .276-.075.49-.225.64-.15.15-.36.225-.625.225zm-.85-4.2h-.312c-.901 0-1.595.042-2.08.125-.486.085-.834.226-1.042.424-.208.199-.312.485-.312.857 0 .432.15.787.451 1.063.301.277.676.415 1.128.415.635 0 1.156-.225 1.56-.676.405-.45.607-1.03.607-1.74v-.469zm-8.68 2.325c.225.265.57.414 1.032.45l.486.037c.253.025.436.094.546.207a.665.665 0 0 1 .164.478.631.631 0 0 1-.268.55c-.18.126-.442.177-.789.153l-.468-.036c-.938-.072-1.637-.37-2.099-.892-.463-.524-.694-1.296-.694-2.317v-4.237h-1.04c-.509 0-.764-.234-.764-.703 0-.216.066-.387.2-.513.133-.126.32-.19.564-.19h1.04v-1.858c0-.275.078-.492.235-.648.156-.156.367-.234.632-.234.266 0 .48.078.642.234.161.156.242.373.242.648v1.858h1.717c.244 0 .431.064.564.19.137.135.21.321.2.513 0 .229-.067.403-.2.523s-.32.18-.564.18h-1.717v4.363c0 .565.113.98.339 1.244zm-9.08-5.3c1.017.24 1.842.49 2.472.747.63.26 1.133.614 1.508 1.065.377.45.564 1.03.564 1.74 0 .72-.194 1.36-.58 1.92-.388.558-.931.991-1.63 1.298-.7.307-1.507.46-2.42.46a8.209 8.209 0 0 1-2.506-.38c-.792-.252-1.426-.6-1.9-1.045a.938.938 0 0 1-.33-.74c0-.215.058-.398.174-.55.116-.149.255-.224.417-.224.16 0 .358.078.59.234 1.028.793 2.202 1.19 3.52 1.19.925 0 1.636-.18 2.133-.541.497-.36.746-.877.746-1.55 0-.529-.232-.925-.694-1.19-.462-.264-1.203-.517-2.22-.757-.97-.217-1.769-.463-2.394-.74-.623-.277-1.113-.652-1.464-1.127-.353-.474-.53-1.079-.53-1.812 0-.733.194-1.385.582-1.956.387-.57.927-1.015 1.62-1.334.695-.318 1.486-.478 2.377-.478a6.9 6.9 0 0 1 2.273.361c.693.24 1.283.594 1.769 1.064.22.182.347.453.346.74a.858.858 0 0 1-.182.54c-.121.156-.263.234-.425.234-.15 0-.34-.078-.572-.234-.533-.421-1.033-.724-1.5-.911-.469-.186-1.032-.28-1.691-.28-.89 0-1.585.19-2.082.568-.497.38-.746.905-.746 1.578 0 .578.22 1.013.659 1.307.44.295 1.146.563 2.117.803zm-12.226-3.66c-.336 0-.601-.097-.798-.289-.2-.2-.307-.474-.296-.756 0-.314.1-.563.296-.75.197-.185.462-.279.798-.279.323 0 .586.094.789.28a.969.969 0 0 1 .303.749c0 .312-.099.564-.294.756-.198.192-.463.289-.798.289zM68.79 23.945a.803.803 0 0 1-.607-.234c-.15-.156-.225-.366-.225-.631v-.667c-.22.504-.547.893-.98 1.163a2.81 2.81 0 0 1-1.518.406 3.331 3.331 0 0 1-1.526-.353 2.619 2.619 0 0 1-1.475-2.389c0-.637.159-1.138.478-1.505.318-.367.843-.628 1.578-.784.734-.156 1.743-.234 3.026-.234h.399v-.524c0-.672-.133-1.16-.399-1.46-.266-.3-.693-.45-1.283-.45-.405 0-.786.054-1.144.162-.405.126-.8.283-1.18.47-.312.179-.532.27-.659.27a.526.526 0 0 1-.425-.2.766.766 0 0 1-.164-.503c0-.181.048-.34.147-.479.097-.138.256-.273.476-.405.448-.245.927-.43 1.423-.55a6.405 6.405 0 0 1 1.578-.207c1.12 0 1.957.294 2.506.883.55.589.824 1.484.824 2.687v4.669c0 .276-.075.49-.225.64-.151.15-.36.225-.625.225zm-.85-4.2h-.313c-.9 0-1.594.042-2.08.125-.486.085-.833.226-1.041.424-.207.199-.312.485-.312.857 0 .432.15.787.45 1.063.302.277.678.415 1.128.415.636 0 1.156-.225 1.561-.676.405-.45.607-1.03.607-1.74v-.469zm-13.632 4.11H50.91c-.277 0-.494-.081-.65-.244-.157-.16-.235-.38-.235-.657V12.046c0-.276.078-.496.234-.659.157-.16.374-.243.651-.243h3.4c1.977 0 3.51.554 4.595 1.659 1.087 1.106 1.631 2.669 1.631 4.689 0 2.018-.544 3.583-1.631 4.696-1.086 1.111-2.618 1.668-4.596 1.668zm-.104-11.16h-2.392v9.61h2.392c3.006 0 4.51-1.605 4.51-4.813 0-3.198-1.504-4.797-4.51-4.797zM48.1 23.116a.815.815 0 0 1-.234.586.76.76 0 0 1-.564.243c-.22 0-.423-.102-.607-.306l-2.654-3.1-2.636 3.1c-.185.204-.388.306-.607.306a.743.743 0 0 1-.564-.252.847.847 0 0 1-.234-.595.89.89 0 0 1 .244-.614l2.739-3.136-2.601-3.01c-.174-.205-.26-.409-.26-.614a.8.8 0 0 1 .243-.587.765.765 0 0 1 .554-.243c.22 0 .422.103.607.307l2.515 2.957 2.515-2.957c.185-.204.393-.307.625-.307.21.002.41.09.555.243a.803.803 0 0 1 .242.587c-.001.23-.094.452-.26.613l-2.602 3.01 2.724 3.137c.173.18.26.392.26.632zm24.818-8.24c.254 0 .462.076.624.226.162.15.243.37.243.658v7.32c0 .288-.08.505-.243.648a.902.902 0 0 1-.624.217.938.938 0 0 1-.634-.217c-.167-.143-.251-.36-.251-.648v-7.32c0-.288.084-.508.251-.658a.912.912 0 0 1 .634-.226zm94.173 0c.255 0 .463.076.625.226.161.15.243.37.243.658v7.32c0 .288-.082.505-.243.648a.903.903 0 0 1-.625.217.937.937 0 0 1-.633-.217c-.168-.143-.251-.36-.251-.648v-7.32c0-.288.083-.508.251-.658a.912.912 0 0 1 .633-.226z" fill="#333"/></g></svg>