<svg height="37" width="146" xmlns="http://www.w3.org/2000/svg" xmlns:xlink="http://www.w3.org/1999/xlink"><linearGradient id="a" x1="0%" x2="0%" y1="0%" y2="100%"><stop offset="0" stop-color="#13d8a7"/><stop offset="1" stop-color="#23a695"/></linearGradient><path d="m28.221 28.356-9.828 6.069c-3.393 2.097-3.393 2.097-6.783.002-3.062-1.89-8.985-5.546-9.856-6.085-1.754-1.203-1.754-3.123-1.754-3.123v-14.439s0-2.089 1.77-3.137l9.84-6.076c3.39-2.092 3.39-2.092 6.786.004l9.825 6.067c1.779 1.106 1.778 3.138 1.778 3.138v14.444s.001 2.011-1.778 3.136zm-9.665-17.66-3.556 4.589-3.556-4.589h-4.221l5.666 7.314-5.662 7.31h4.221l3.552-4.585 3.552 4.585h4.221l-5.662-7.31 5.666-7.314z" fill="#fff" fill-rule="evenodd"/><path d="m28.221 28.356-9.828 6.069c-3.393 2.097-3.393 2.097-6.783.002-3.062-1.89-8.985-5.546-9.856-6.085-1.754-1.203-1.754-3.123-1.754-3.123v-14.439s0-2.089 1.77-3.137l9.84-6.076c3.39-2.092 3.39-2.092 6.786.004l9.825 6.067c1.779 1.106 1.778 3.138 1.778 3.138v14.444s.001 2.011-1.778 3.136zm-9.665-17.66-3.556 4.589-3.556-4.589h-4.221l5.666 7.314-5.662 7.31h4.221l3.552-4.585 3.552 4.585h4.221l-5.662-7.31 5.666-7.314z" fill="url(#a)"/><path d="m145.824 22.778c-.12.115-.286.173-.499.173-.205 0-.367-.06-.487-.18a.66.66 0 0 1 -.179-.486v-3.537c0-.573-.109-.994-.327-1.262s-.557-.402-1.019-.402c-.542 0-.977.176-1.306.527-.328.352-.492.823-.492 1.415v3.259c0 .204-.06.366-.18.486s-.282.18-.487.18a.682.682 0 0 1 -.493-.18.645.645 0 0 1 -.186-.486v-5.645c0-.194.064-.354.193-.478a.67.67 0 0 1 .486-.188.62.62 0 0 1 .467.181c.115.12.173.277.173.471v.569a2.2 2.2 0 0 1 .892-.929 2.609 2.609 0 0 1 1.293-.319c1.554 0 2.331.91 2.331 2.732v3.606c0 .213-.06.377-.18.493zm-8.2-8.163c-.257 0-.461-.074-.612-.222a.779.779 0 0 1 -.227-.582c0-.241.076-.433.227-.576s.355-.215.612-.215c.249 0 .451.072.607.215a.746.746 0 0 1 .233.576c0 .24-.076.434-.227.582s-.355.222-.613.222zm-3.17 8.336a.615.615 0 0 1 -.466-.18c-.116-.12-.174-.282-.174-.486v-.513a1.926 1.926 0 0 1 -.752.895 2.156 2.156 0 0 1 -1.166.312c-.426 0-.817-.091-1.172-.271a2.015 2.015 0 0 1 -1.133-1.838c0-.49.122-.876.366-1.158.245-.282.649-.483 1.213-.603s1.339-.18 2.325-.18h.306v-.403c0-.517-.102-.892-.306-1.123-.205-.231-.533-.347-.986-.347-.311 0-.604.042-.88.125a6.313 6.313 0 0 0 -.905.361c-.24.138-.409.208-.507.208a.403.403 0 0 1 -.326-.153.585.585 0 0 1 -.127-.388c0-.139.038-.261.114-.368.075-.106.197-.21.366-.312a4.464 4.464 0 0 1 1.092-.423 4.927 4.927 0 0 1 1.213-.159c.861 0 1.503.226 1.925.679s.633 1.142.633 2.067v3.592c0 .213-.058.377-.174.493-.115.115-.275.173-.479.173zm-.653-3.232h-.24c-.693 0-1.225.033-1.598.097-.373.065-.64.174-.8.326-.16.153-.24.373-.24.659 0 .333.116.606.347.818.231.213.519.319.866.319.488 0 .888-.173 1.199-.52.311-.346.466-.792.466-1.338zm-6.501 3.232c-.205 0-.367-.06-.486-.18a.657.657 0 0 1 -.18-.486v-3.592c0-.555-.109-.962-.327-1.221-.217-.258-.557-.388-1.019-.388-.542 0-.977.176-1.305.527-.329.352-.493.823-.493 1.415v3.259c0 .204-.06.366-.18.486s-.282.18-.487.18a.678.678 0 0 1 -.492-.18.642.642 0 0 1 -.187-.486v-8.585c0-.204.064-.365.193-.486a.704.704 0 0 1 .5-.18c.195 0 .353.058.473.173.12.116.18.271.18.465v3.467c.222-.388.519-.684.892-.887.373-.204.8-.305 1.279-.305 1.546 0 2.318.91 2.318 2.732v3.606a.645.645 0 0 1 -.186.486.682.682 0 0 1 -.493.18zm-9.885-1.137c.426 0 .815-.07 1.165-.209.351-.138.749-.369 1.193-.693.177-.12.324-.18.439-.18.125 0 .231.058.32.173a.674.674 0 0 1 .133.423.682.682 0 0 1 -.253.555 3.996 3.996 0 0 1 -1.372.825 4.846 4.846 0 0 1 -1.665.285c-.897 0-1.679-.202-2.345-.604s-1.177-.98-1.532-1.734c-.355-.753-.533-1.643-.533-2.669 0-1.018.178-1.903.533-2.657.355-.753.866-1.331 1.532-1.733.666-.403 1.448-.604 2.345-.604.586 0 1.141.095 1.665.285.524.189.981.464 1.372.825a.682.682 0 0 1 .253.555.674.674 0 0 1 -.133.423c-.089.115-.195.173-.32.173a.675.675 0 0 1 -.439-.18c-.427-.333-.815-.566-1.166-.701a3.322 3.322 0 0 0 -1.192-.201c-.977 0-1.728.329-2.252.985-.524.657-.786 1.6-.786 2.83 0 1.239.262 2.186.786 2.843.524.656 1.275.985 2.252.985zm-9.765-2.081h-4.117c.089 1.433.75 2.15 1.985 2.15.328 0 .613-.046.853-.139.239-.092.493-.212.759-.36.027-.019.1-.058.22-.118s.22-.09.3-.09c.124 0 .226.05.306.152s.12.231.12.388c0 .269-.16.495-.48.68-.311.185-.65.328-1.019.43a3.974 3.974 0 0 1 -1.059.153c-1.03 0-1.843-.312-2.438-.937-.595-.624-.893-1.477-.893-2.559 0-.693.131-1.308.393-1.844a2.971 2.971 0 0 1 1.106-1.249 3.006 3.006 0 0 1 1.619-.443c.87 0 1.559.291 2.065.873.506.583.759 1.369.759 2.358 0 .37-.16.555-.479.555zm-1.14-2.254c-.279-.337-.672-.506-1.179-.506-.515 0-.928.171-1.239.513s-.497.823-.559 1.443h3.437c-.026-.629-.18-1.112-.46-1.45zm-6.494 5.472a.715.715 0 0 1 -.486-.167c-.129-.11-.194-.277-.194-.499v-8.571c0-.222.065-.391.194-.507a.7.7 0 0 1 .486-.173c.195 0 .355.058.48.173.124.116.186.285.186.507v8.571c0 .222-.062.389-.186.499a.696.696 0 0 1 -.48.167zm-3.564-.416a2.619 2.619 0 0 1 -1.498.444c-.489 0-.92-.109-1.293-.326a2.108 2.108 0 0 1 -.852-.937v.555c0 .204-.06.368-.18.493a.646.646 0 0 1 -.487.187.666.666 0 0 1 -.492-.187.666.666 0 0 1 -.187-.493v-8.571c0-.204.064-.365.193-.486a.704.704 0 0 1 .5-.18c.195 0 .353.058.473.173.12.116.18.271.18.465v3.551c.195-.407.479-.722.852-.944a2.489 2.489 0 0 1 1.293-.332c.568 0 1.07.143 1.505.43.435.286.775.693 1.019 1.22s.367 1.142.367 1.845c0 .693-.123 1.308-.367 1.845-.244.536-.586.952-1.026 1.248zm-.459-4.848c-.32-.411-.773-.617-1.359-.617s-1.037.208-1.352.624c-.316.416-.473 1.008-.473 1.776 0 .767.157 1.359.473 1.775.315.416.766.624 1.352.624.577 0 1.028-.213 1.352-.638s.486-1.022.486-1.789c0-.758-.16-1.343-.479-1.755zm-7.021 5.264a.615.615 0 0 1 -.466-.18c-.116-.12-.174-.282-.174-.486v-.513a1.926 1.926 0 0 1 -.752.895 2.156 2.156 0 0 1 -1.166.312c-.426 0-.817-.091-1.172-.271a2.015 2.015 0 0 1 -1.133-1.838c0-.49.122-.876.367-1.158.244-.282.648-.483 1.212-.603s1.339-.18 2.325-.18h.306v-.403c0-.517-.102-.892-.306-1.123-.205-.231-.533-.347-.986-.347-.311 0-.604.042-.879.125a6.276 6.276 0 0 0 -.906.361c-.24.138-.409.208-.507.208a.403.403 0 0 1 -.326-.153.585.585 0 0 1 -.127-.388c0-.139.038-.261.114-.368.075-.106.197-.21.366-.312a4.464 4.464 0 0 1 1.092-.423 4.927 4.927 0 0 1 1.213-.159c.861 0 1.503.226 1.925.679s.633 1.142.633 2.067v3.592c0 .213-.058.377-.173.493-.116.115-.276.173-.48.173zm-.653-3.232h-.24c-.692 0-1.225.033-1.598.097-.373.065-.64.174-.8.326-.16.153-.24.373-.24.659 0 .333.116.606.347.818.231.213.519.319.866.319.488 0 .888-.173 1.199-.52.311-.346.466-.792.466-1.338zm-6.668 1.789c.173.204.438.319.793.347l.373.028c.195.019.335.072.42.159a.512.512 0 0 1 .126.368.486.486 0 0 1 -.206.423c-.138.097-.34.136-.606.118l-.36-.028c-.72-.055-1.257-.284-1.612-.686-.356-.403-.533-.997-.533-1.783v-3.259h-.799c-.391 0-.587-.18-.587-.541 0-.166.051-.298.154-.395.102-.097.246-.146.433-.146h.799v-1.429c0-.212.06-.379.18-.499s.282-.18.486-.18.368.06.493.18c.124.12.186.287.186.499v1.429h1.319c.187 0 .331.049.433.146a.52.52 0 0 1 .154.395c0 .176-.052.31-.154.402-.102.093-.246.139-.433.139h-1.319v3.356c0 .435.087.754.26.957zm-6.974-4.077c.781.185 1.414.377 1.898.575.484.199.871.472 1.159.819.289.346.433.793.433 1.338 0 .555-.149 1.047-.446 1.477-.298.43-.715.763-1.252.999-.538.236-1.157.354-1.859.354a6.297 6.297 0 0 1 -1.925-.292c-.608-.194-1.095-.462-1.459-.804a.722.722 0 0 1 -.253-.569c0-.166.044-.307.133-.423.089-.115.196-.173.32-.173s.275.06.453.18c.79.61 1.692.915 2.705.915.71 0 1.256-.138 1.638-.416.382-.277.573-.674.573-1.192 0-.407-.178-.712-.533-.916-.355-.203-.924-.397-1.705-.582-.746-.167-1.359-.356-1.839-.569-.479-.213-.855-.502-1.125-.867-.271-.365-.407-.83-.407-1.394s.149-1.066.447-1.505c.297-.439.712-.781 1.245-1.026s1.141-.368 1.825-.368c.631 0 1.213.093 1.746.278s.986.457 1.359.818a.735.735 0 0 1 .266.569.661.661 0 0 1 -.14.416c-.093.12-.202.18-.326.18-.116 0-.262-.06-.44-.18-.409-.324-.793-.557-1.152-.701-.36-.143-.793-.215-1.299-.215-.684 0-1.217.146-1.599.437-.382.292-.573.696-.573 1.214 0 .444.169.779.506 1.005.338.227.88.433 1.626.618zm-9.392-2.816c-.258 0-.462-.074-.613-.222a.779.779 0 0 1 -.227-.582c0-.241.076-.433.227-.576s.355-.215.613-.215c.248 0 .45.072.606.215a.746.746 0 0 1 .233.576c0 .24-.076.434-.226.582-.152.148-.356.222-.613.222zm-3.171 8.336a.616.616 0 0 1 -.466-.18c-.116-.12-.173-.282-.173-.486v-.513c-.169.388-.42.687-.753.895a2.156 2.156 0 0 1 -1.166.312c-.426 0-.817-.091-1.172-.271a2.015 2.015 0 0 1 -1.133-1.838c0-.49.122-.876.367-1.158.244-.282.648-.483 1.212-.603s1.339-.18 2.325-.18h.306v-.403c0-.517-.102-.892-.306-1.123-.205-.231-.533-.347-.986-.347-.311 0-.604.042-.879.125a6.276 6.276 0 0 0 -.906.361c-.24.138-.409.208-.507.208a.403.403 0 0 1 -.326-.153.59.59 0 0 1 -.126-.388c0-.139.037-.261.113-.368.075-.106.197-.21.366-.312a4.456 4.456 0 0 1 1.093-.423 4.913 4.913 0 0 1 1.212-.159c.861 0 1.503.226 1.925.679s.633 1.142.633 2.067v3.592c0 .213-.058.377-.173.493-.116.115-.276.173-.48.173zm-.653-3.232h-.24c-.692 0-1.225.033-1.598.097-.373.065-.64.174-.8.326-.159.153-.239.373-.239.659 0 .333.115.606.346.818.231.213.52.319.866.319.488 0 .888-.173 1.199-.52.311-.346.466-.792.466-1.338zm-10.471 3.163h-2.611c-.213 0-.38-.063-.5-.188-.12-.124-.18-.293-.18-.506v-8.391c0-.213.06-.382.18-.507.12-.124.287-.187.5-.187h2.611c1.519 0 2.696.426 3.53 1.276.835.851 1.253 2.053 1.253 3.607 0 1.553-.418 2.757-1.253 3.613-.834.855-2.011 1.283-3.53 1.283zm-.08-8.586h-1.838v7.393h1.838c2.309 0 3.464-1.235 3.464-3.703 0-2.46-1.155-3.69-3.464-3.69zm-4.689 8.017c0 .176-.06.326-.18.451a.583.583 0 0 1 -.433.187c-.169 0-.325-.079-.466-.236l-2.039-2.385-2.025 2.385c-.142.157-.298.236-.466.236a.57.57 0 0 1 -.433-.194.652.652 0 0 1 -.18-.458c0-.176.062-.333.187-.472l2.104-2.413-1.998-2.316c-.133-.157-.2-.314-.2-.472 0-.175.062-.326.187-.451a.587.587 0 0 1 .426-.187c.169 0 .324.079.466.236l1.932 2.275 1.932-2.275c.142-.157.302-.236.48-.236a.59.59 0 0 1 .426.187.618.618 0 0 1 .186.451.664.664 0 0 1 -.199.472l-1.999 2.316 2.092 2.413c.133.139.2.301.2.486zm19.064-6.339c.195 0 .355.058.479.174.125.115.187.284.187.506v5.631c0 .222-.062.389-.187.499a.692.692 0 0 1 -.479.167.72.72 0 0 1 -.487-.167c-.128-.11-.193-.277-.193-.499v-5.631c0-.222.065-.391.193-.506a.7.7 0 0 1 .487-.174zm72.339 0c.196 0 .356.058.48.174.124.115.187.284.187.506v5.631c0 .222-.063.389-.187.499a.693.693 0 0 1 -.48.167.719.719 0 0 1 -.486-.167c-.129-.11-.193-.277-.193-.499v-5.631c0-.222.064-.391.193-.506a.7.7 0 0 1 .486-.174z" fill="#333" fill-rule="evenodd"/></svg>