<?xml version="1.0" encoding="utf-8"?>
<!-- Generator: Adobe Illustrator 23.0.2, SVG Export Plug-In . SVG Version: 6.00 Build 0)  -->
<svg version="1.1" id="Layer_1" xmlns="http://www.w3.org/2000/svg" xmlns:xlink="http://www.w3.org/1999/xlink" x="0px" y="0px"
	 width="481px" height="117.5px" viewBox="0 0 481 117.5" enable-background="new 0 0 481 117.5" xml:space="preserve">
<g>
	<g id="_x31__4_">
		<g id="_x31__5_">
			<g>
				<path id="Layer" fill-rule="evenodd" clip-rule="evenodd" fill="#171717" d="M461.1,39.8c6.1,3.6,11,8.5,14.6,14.8
					c3.6,6.3,5.4,13.1,5.4,20.9v33c0,2.1-0.8,4-2.1,5.4c-1.5,1.5-3.2,2.1-5.4,2.1c-2.1,0-4-0.7-5.3-2.1c-1.5-1.5-2.1-3.3-2.1-5.4
					v-5.5c-3.5,4.3-7.6,7.5-12.6,9.9c-5,2.4-10.2,3.5-15.9,3.5c-7,0-13.5-1.8-19.2-5.3c-5.7-3.5-10.2-8.4-13.5-14.8
					c-3.2-6.3-5-13.1-5-20.9c0-7.6,1.7-14.6,5.2-20.9c3.5-6.3,8.4-11.1,14.7-14.8c6.2-3.6,13.1-5.4,20.7-5.4
					C448.1,34.4,454.8,36.1,461.1,39.8z M453.8,99.3c4-2.4,7.1-5.6,9.4-9.9c2.2-4.3,3.4-8.9,3.4-14.1s-1.1-10-3.4-14.1
					c-2.2-4.3-5.4-7.6-9.4-10c-4-2.4-8.3-3.6-13.3-3.6c-5,0-9.3,1.3-13.3,3.6c-4,2.4-7.1,5.8-9.4,10c-2.2,4.2-3.5,9-3.5,14.1
					c0,5.1,1.1,9.9,3.5,14.1c2.4,4.2,5.5,7.5,9.4,9.9c4,2.4,8.3,3.6,13.3,3.6C445.4,103,449.9,101.8,453.8,99.3z"/>
			</g>
			<g>
				<path fill-rule="evenodd" clip-rule="evenodd" fill="#171717" d="M72,81.1c-1.3,1.3-2.9,1.8-4.7,1.8H13.2c1.1,6.6,4,12,9,16.1
					c5,4,11.1,6.1,18.3,6.1c2.9,0,5.9-0.5,8.8-1.6c3.1-1.1,5.6-2.3,7.6-3.9c1.2-1.1,2.9-1.5,4.7-1.5s3.2,0.5,4.2,1.5
					c1.6,1.5,2.6,3.1,2.6,4.9c0,1.6-0.8,3.1-2.3,4.3c-3.2,2.6-7.2,4.6-12.1,6.3c-4.9,1.6-9.3,2.5-13.7,2.5c-7.8,0-14.7-1.6-20.9-5
					c-6.2-3.4-11-8-14.3-14.1C1.7,92.4,0,85.6,0,77.9c0-7.5,1.6-14.4,4.9-20.4s7.8-10.8,13.7-14.1c5.9-3.4,12.5-5,19.8-5
					S52,40,57.3,43.3s9.3,7.8,12.2,13.5c2.9,5.8,4.2,12.5,4.2,20C73.9,78.5,73.3,80,72,81.1z M21.6,56.3c-4.4,3.9-7,8.9-8.2,15.3
					h47.5c-0.9-6.4-3.2-11.5-7.1-15.3c-3.9-3.9-9-5.8-15.2-5.8C31.5,50.6,25.8,52.5,21.6,56.3z"/>
				<path fill-rule="evenodd" clip-rule="evenodd" fill="#171717" d="M162,7.4c1.3,1.3,2,3.1,2,5.3v65.1c0,7.4-1.8,14.1-5.2,20.3
					c-3.5,6-8.2,10.8-14.1,14.3c-6,3.5-12.6,5.3-19.8,5.3c-7.3,0-14-1.8-20.1-5.3c-6-3.5-10.7-8.3-14.1-14.3
					c-3.5-6-5.1-12.8-5.1-20.3s1.6-14.1,4.7-20.3c3.2-6,7.6-10.8,13.1-14.1c5.6-3.5,11.7-5.1,18.6-5.1c5.5,0,10.6,1.1,15.3,3.5
					c4.7,2.3,8.7,5.5,12.1,9.6V12.8c0-2.3,0.8-4,2.1-5.3s3.1-2,5.2-2C158.9,5.5,160.6,6,162,7.4z M137.7,101.1
					c3.9-2.3,6.9-5.5,9-9.6c2.2-4,3.2-8.6,3.2-13.8c0-5.1-1.1-9.6-3.2-13.6c-2.3-4-5.2-7.2-9-9.6c-3.9-2.3-8.2-3.5-13-3.5
					c-4.7,0-9,1.1-13,3.5c-3.9,2.3-6.9,5.5-9.1,9.6c-2.2,4-3.4,8.6-3.4,13.6s1.1,9.6,3.4,13.8c2.2,4,5.2,7.3,9.1,9.6
					c3.9,2.3,8.2,3.5,13,3.5C129.6,104.6,134,103.5,137.7,101.1z"/>
				<path fill-rule="evenodd" clip-rule="evenodd" fill="#171717" d="M257.7,81.1c-1.3,1.3-2.9,1.8-4.7,1.8h-54c1.1,6.6,4,12,9,16.1
					c5,4,11.1,6.1,18.3,6.1c2.9,0,5.9-0.5,9-1.6c3.1-1.1,5.6-2.3,7.6-3.9c1.2-1.1,2.9-1.5,4.7-1.5c1.9,0,3.2,0.5,4.2,1.5
					c1.6,1.5,2.6,3.1,2.6,4.9c0,1.6-0.8,3.1-2.3,4.3c-3.2,2.6-7.2,4.6-12.1,6.3c-4.9,1.6-9.4,2.5-13.7,2.5c-7.8,0-14.7-1.6-20.9-5
					c-6.2-3.4-11-8-14.4-14.1c-3.5-6-5.2-12.8-5.2-20.5c0-7.6,1.6-14.5,4.9-20.5c3.2-6,7.8-10.8,13.7-14.1c5.9-3.4,12.5-5,19.8-5
					c7.4,0,13.6,1.6,18.9,4.9s9.3,7.8,12.2,13.5c2.9,5.8,4.2,12.5,4.2,20C259.6,78.5,258.8,80,257.7,81.1z M207.2,56.3
					c-4.4,3.9-7,8.9-8.2,15.3h47.5c-0.9-6.4-3.2-11.5-7.1-15.3c-3.9-3.9-9-5.8-15.2-5.8C217.2,50.6,211.5,52.5,207.2,56.3z"/>
			</g>
			<g>
				<path fill="#005397" d="M390.2,0h-31H359l-41.1,57.5l41,57.4l0,0h31L349,57.5L390.2,0z"/>
				<path fill="#005397" d="M320,17L307.8,0l0,0h-31l27.9,39L320,17z"/>
				<path fill="#005397" d="M277,114.9h31l0,0l13.7-19.3l-16-21.3L277,114.9z"/>
			</g>
		</g>
	</g>
</g>
</svg>
