<?xml version="1.0" encoding="UTF-8"?>
<svg width="14px" height="14px" viewBox="0 0 14 14" version="1.1" xmlns="http://www.w3.org/2000/svg" xmlns:xlink="http://www.w3.org/1999/xlink">
    <!-- Generator: Sketch 54.1 (76490) - https://sketchapp.com -->
    <title>Copy Link</title>
    <desc>Created with Sketch.</desc>
    <g id="Final" stroke="none" stroke-width="1" fill="none" fill-rule="evenodd">
        <g id="Sr-Web-BlockExp-Detail" transform="translate(-341.000000, -124.000000)" fill="#808080" stroke="#FFFFFF">
            <g id="Group-3" transform="translate(150.000000, 90.000000)">
                <g id="Group-2-Copy">
                    <g id="Copy-Link" transform="translate(192.000000, 35.000000)">
                        <g id="Shape">
                            <path d="M6.066604,1.330048 L2.66090067,1.33333333 C1.93214133,1.33333333 1.33333333,1.931532 1.33333333,2.66318867 L1.33333333,9.33681133 C1.33333333,10.070042 1.92962867,10.6666667 2.66318867,10.6666667 L9.33681133,10.6666667 C10.0696833,10.6666667 10.6666667,10.0692947 10.6666667,9.333606 L10.6666667,6.65154267 C10.6748753,6.290338 10.970198,6 11.3333333,6 C11.6964687,6 11.9917913,6.290338 11.999832,6.65154267 L12,9.333606 C12,10.8062147 10.8055227,12 9.33681133,12 L2.66318867,12 C1.19235,12 0,10.8055227 0,9.33681133 L0,2.66318867 C0,1.19235 1.198566,0 2.66090067,0 L6.066604,0 C6.40352267,0.0367046667 6.66666667,0.320955333 6.66666667,0.666666667 C6.66666667,1.012378 6.40352267,1.29662867 6.066604,1.330048 Z M7.73768067,6.07158 L8.56263867,6.896538 L6.472326,8.98685067 C5.73130667,9.72787 4.44912667,9.485576 3.561448,8.59789733 C2.677628,7.71407733 2.43178467,6.42772933 3.170202,5.68931133 L5.26282933,3.59668467 L6.08778733,4.421642 L3.99516,6.51426933 C3.80772267,6.70170667 3.91782467,7.27780333 4.39968267,7.759662 C4.88507733,8.24505667 5.45626667,8.35299467 5.64736867,8.16189267 L7.73768067,6.07158 Z M9.40256133,6.056616 L8.57760333,5.231658 L10.6679153,3.14134533 C10.8590173,2.95024333 10.7510793,2.379054 10.2656853,1.89366 C9.78382667,1.41180133 9.20773,1.30169933 9.020292,1.48913733 L6.92766533,3.581764 L6.10270733,2.756806 L8.19533467,0.664179333 C8.933752,-0.0742386667 10.2201,0.171604667 11.10392,1.05542467 C11.9915993,1.943104 12.2338933,3.225284 11.4928733,3.96630333 L9.40256133,6.056616 Z M7.76312667,3.57126 C7.99246467,3.34192267 8.361464,3.33909267 8.590858,3.56848667 C8.818664,3.79629267 8.822486,4.16181733 8.58808467,4.396218 L6.90388467,6.08041867 C6.67454667,6.309756 6.30554733,6.312586 6.07615333,6.083192 C5.84834733,5.855386 5.84452533,5.48986133 6.07892667,5.25546067 L7.76312667,3.57126 Z" stroke-width="0.4" fill-rule="nonzero"></path>
                        </g>
                    </g>
                </g>
            </g>
        </g>
    </g>
</svg>