<svg height="60" viewBox="0 0 60 60" width="60" xmlns="http://www.w3.org/2000/svg"><g fill="#fff"><path d="m16.87 29.94 5.57-5.55-5.76-5.82-16.1 11.37 16.1 11.37 5.76-5.82z"/><path d="m30.12 43.07-5.55-5.57-5.82 5.76 11.37 16.1 11.36-16.1-5.82-5.76z"/><path d="m43.48 18.57-5.76 5.82 5.57 5.55-5.57 5.55 5.76 5.82 16.1-11.37z"/><path d="m30.12 16.65 5.54 5.57 5.82-5.76-11.36-16.1-11.37 16.1 5.82 5.76z"/><path d="m23.51 23.29h13.14v13.14h-13.14z" transform="matrix(.70710678 -.70710678 .70710678 .70710678 -12.3 30.02)"/></g></svg>