<svg id="Layer_1" data-name="Layer 1" xmlns="http://www.w3.org/2000/svg" viewBox="0 0 532.5 106"><defs><style>.cls-1{font-size:66.011px;font-family:Roboto-Thin, Roboto;letter-spacing:0.256em;}.cls-1,.cls-4{fill:#fff;}.cls-2{letter-spacing:0.247em;}.cls-3{letter-spacing:0.256em;}</style></defs><title>ethereum-logo</title><text class="cls-1" transform="translate(113.473 72.291)">ethe<tspan class="cls-2" x="191.141" y="0">r</tspan><tspan class="cls-3" x="229.506" y="0">eum</tspan></text><path class="cls-4" d="M57.548,17.661l21.7,35.992c-7.036,4.159-13.935,8.26-20.877,12.288a2.187,2.187,0,0,1-1.834-.109c-6.87-3.994-13.7-8.05-20.692-12.175C43.079,41.663,50.206,29.841,57.548,17.661Z"/><path class="cls-4" d="M78.125,58.923,57.231,88.339,36.322,58.906l.355-.441q2.551,1.51,5.1,3.019c4.457,2.627,8.953,5.19,13.35,7.913a3.386,3.386,0,0,0,4.129.044C64.672,66.1,70.188,62.93,75.67,59.7c.7-.413,1.433-.777,2.151-1.164Z"/></svg>