<svg height="30" width="106.094" xmlns="http://www.w3.org/2000/svg"><g fill-rule="evenodd"><path d="m9 11.2-9 4.4 9-15.6z" fill="#828083"/><path d="m9 10.783-9 4.417 9 5.215z" fill="#353336"/><path d="m9 22.568-9-5.78 9 13.212z" fill="#848285"/><path d="m9 11.2 9 4.4-9-15.6z" fill="#2f2d30"/><path d="m9 10.783 9 4.412-9 5.215z" fill="#121212"/><path d="m9 22.568 9-5.78-9 13.212z" fill="#302e31"/><path d="m29.675 13.329a4.417 4.417 0 0 0 .012 5.856 3.867 3.867 0 0 0 6.084-.5.332.332 0 0 0 -.289-.5.351.351 0 0 0 -.289.165 3.239 3.239 0 0 1 -2.77 1.395 2.9 2.9 0 0 1 -2.168-.922 3.555 3.555 0 0 1 -1.012-2.2h6.719a.309.309 0 0 0 .361-.338 4.287 4.287 0 0 0 -1.116-2.943 3.683 3.683 0 0 0 -5.532-.013zm.58.377a2.994 2.994 0 0 1 4.336 0 3.6 3.6 0 0 1 1.012 2.215h-6.36a3.6 3.6 0 0 1 1.012-2.215zm11.2-4.046a.336.336 0 1 0 -.672 0v2.613h-1.728a.35.35 0 0 0 0 .7h1.728v7.01a.336.336 0 0 0 .672 0v-7.01h1.8a.35.35 0 0 0 0-.7h-1.8zm5.664 4.173v-7.944a.336.336 0 1 0 -.672 0v14.04a.336.336 0 0 0 .672 0v-3.492a3.921 3.921 0 0 1 .6-2.512 2.52 2.52 0 0 1 2.222-1.124 2.113 2.113 0 0 1 1.792.909 3.075 3.075 0 0 1 .621 1.962v4.258a.336.336 0 0 0 .672 0v-4.273a3.766 3.766 0 0 0 -.816-2.448 2.755 2.755 0 0 0 -2.28-1.1 3.047 3.047 0 0 0 -2.808 1.728zm10.08-.5a4.417 4.417 0 0 0 .012 5.856 3.867 3.867 0 0 0 6.084-.5.332.332 0 0 0 -.289-.5.35.35 0 0 0 -.289.165 3.24 3.24 0 0 1 -2.771 1.395 2.9 2.9 0 0 1 -2.167-.922 3.549 3.549 0 0 1 -1.012-2.2h6.719a.309.309 0 0 0 .361-.338 4.287 4.287 0 0 0 -1.116-2.943 3.683 3.683 0 0 0 -5.531-.017zm.58.377a2.994 2.994 0 0 1 4.336 0 3.6 3.6 0 0 1 1.012 2.215h-6.36a3.592 3.592 0 0 1 1.016-2.219zm11.108-.888a4.025 4.025 0 0 0 -1.176 1.255v-1.477a.336.336 0 0 0 -.672 0v7.3a.336.336 0 0 0 .672 0v-3.2a4.148 4.148 0 0 1 .7-2.464 2.951 2.951 0 0 1 2.16-1.292.329.329 0 0 0 .312-.359.3.3 0 0 0 -.36-.311 2.919 2.919 0 0 0 -1.632.545zm5.16.511a4.417 4.417 0 0 0 .012 5.856 3.867 3.867 0 0 0 6.084-.5.332.332 0 0 0 -.289-.5.353.353 0 0 0 -.29.165 3.237 3.237 0 0 1 -2.77 1.395 2.9 2.9 0 0 1 -2.167-.922 3.549 3.549 0 0 1 -1.012-2.2h6.719a.309.309 0 0 0 .361-.338 4.287 4.287 0 0 0 -1.116-2.943 3.683 3.683 0 0 0 -5.528-.017zm.58.377a2.994 2.994 0 0 1 4.336 0 3.6 3.6 0 0 1 1.012 2.215h-6.36a3.592 3.592 0 0 1 1.016-2.219zm15.044-1.1v2.736q0 4.44-2.785 4.44a2.144 2.144 0 0 1 -1.823-.912 3.159 3.159 0 0 1 -.6-1.968v-4.3a.336.336 0 1 0 -.672 0v4.308a3.779 3.779 0 0 0 .817 2.455 2.747 2.747 0 0 0 2.279 1.107 2.983 2.983 0 0 0 2.785-1.9v1.392a.336.336 0 1 0 .672 0v-7.358a.336.336 0 1 0 -.672 0zm10.295 1.632a2.8 2.8 0 0 0 -2.856-2.136 3.052 3.052 0 0 0 -2.808 1.7v-1.206a.336.336 0 0 0 -.672 0v7.33a.336.336 0 0 0 .672 0v-3.4a4.571 4.571 0 0 1 .6-2.679 2.529 2.529 0 0 1 2.208-1.053 2.146 2.146 0 0 1 1.8.885 3.067 3.067 0 0 1 .624 1.962v4.285a.336.336 0 0 0 .672 0v-3.3a5.018 5.018 0 0 1 .624-2.56 2.4 2.4 0 0 1 2.16-1.268 2.106 2.106 0 0 1 1.8.885 3.067 3.067 0 0 1 .624 1.962v4.281a.336.336 0 0 0 .672 0v-4.3a3.84 3.84 0 0 0 -.84-2.484 2.746 2.746 0 0 0 -2.256-1.044 3.142 3.142 0 0 0 -3.024 2.136z" fill="#1b1635"/></g></svg>