<svg viewBox="0 0 400 681.502" xmlns="http://www.w3.org/2000/svg" xmlns:xlink="http://www.w3.org/1999/xlink"><linearGradient id="a" gradientUnits="userSpaceOnUse" x1="92.465" x2="99.047" y1="689.896" y2="446.357"><stop offset="0" stop-color="#fff"/><stop offset=".19" stop-color="#e2e2e2"/><stop offset=".589" stop-color="#d5d5d5"/><stop offset=".868" stop-color="#c6c6c6"/><stop offset="1" stop-color="#b7b7b7"/></linearGradient><linearGradient id="b"><stop offset="0" stop-color="#fff"/><stop offset="1" stop-color="#fff" stop-opacity="0"/></linearGradient><linearGradient id="c" gradientUnits="userSpaceOnUse" x1="246.495" x2="109.916" xlink:href="#b" y1="458.546" y2="613.226"/><linearGradient id="d" gradientUnits="userSpaceOnUse" x1="296.634" x2="303.216" y1="695.414" y2="451.875"><stop offset="0" stop-color="#fff"/><stop offset=".19" stop-color="#e2e2e2"/><stop offset=".589" stop-color="#cfcfcf"/><stop offset=".868" stop-color="#ccc"/><stop offset="1" stop-color="#bababa"/></linearGradient><linearGradient id="e" gradientUnits="userSpaceOnUse" x1="162.391" x2="326.945" y1="6.627" y2="477.251"><stop offset="0" stop-color="#fff"/><stop offset=".19" stop-color="#e2e2e2"/><stop offset=".589" stop-color="#ccc"/><stop offset=".868" stop-color="#bdbdbd"/><stop offset="1" stop-color="#a3a3a3"/></linearGradient><linearGradient id="f" gradientUnits="userSpaceOnUse" x1="-50.463" x2="215.339" y1="226.987" y2="226.987"><stop offset="0" stop-color="#fff"/><stop offset=".19" stop-color="#efefef"/><stop offset=".589" stop-color="#cfcfcf"/><stop offset=".868" stop-color="#c6c6c6"/><stop offset="1" stop-color="#c6c6c6"/></linearGradient><linearGradient id="g" gradientUnits="userSpaceOnUse" x1="254.812" x2="91.355" xlink:href="#b" y1="159.307" y2="361.159"/><path d="m191.506 496.463-189.825-103.656 189.825 288.695z" fill="url(#a)"/><path d="m191.506 496.463-81.21-44.346 81.21 229.385z" fill="url(#c)" opacity=".5"/><path d="m208.501 681.502 189.821-288.695-189.821 103.656z" fill="url(#d)"/><path d="m400 346.41-199.997-346.404v453.968z" fill="url(#e)"/><path d="m200 0-200 346.41 200 107.564h.003v-453.968z" fill="url(#f)"/><path d="m120.273 138.091 79.73-138.085v453.968z" fill="url(#g)" opacity=".5"/></svg>