<?xml version="1.0" encoding="utf-8"?>
<!-- Generator: Adobe Illustrator 22.1.0, SVG Export Plug-In . SVG Version: 6.00 Build 0)  -->
<svg version="1.1" id="Layer_1" xmlns="http://www.w3.org/2000/svg" xmlns:xlink="http://www.w3.org/1999/xlink" x="0px" y="0px"
	 viewBox="0 0 532.5 106" style="enable-background:new 0 0 532.5 106;" xml:space="preserve">
<style type="text/css">
	.st0{fill:#FFFFFF;}
</style>
<title>ethereum-logo</title>
<g>
	<path class="st0" d="M121.6,73.1c-2.9,0-5.6-0.7-7.9-2.2c-2.4-1.4-4.2-3.4-5.5-6c-1.3-2.6-2-5.5-2-8.6v-1.4c0-3.3,0.6-6.3,1.9-8.9
		c1.3-2.6,3.1-4.7,5.3-6.2s4.8-2.3,7.4-2.3c4.2,0,7.5,1.4,9.9,4.3c2.4,2.8,3.7,6.7,3.7,11.7v2.1H110v0.7c0,3.9,1.1,7.1,3.3,9.7
		c2.2,2.6,5,3.9,8.4,3.9c2,0,3.8-0.4,5.4-1.1c1.6-0.7,3-1.9,4.2-3.6l2.4,1.8C131,71,126.9,73.1,121.6,73.1z M120.9,40.7
		c-2.9,0-5.3,1-7.2,3.1c-2,2.1-3.1,4.9-3.6,8.4h20.6v-0.4c-0.1-3.3-1-6-2.8-8.1C126.1,41.7,123.8,40.7,120.9,40.7z"/>
	<path class="st0" d="M164.6,29.3v8.8h7.1v3.1h-7.1v22.9c0,1.9,0.3,3.3,1,4.3c0.7,0.9,1.8,1.4,3.4,1.4c0.6,0,1.7-0.1,3.1-0.3
		l0.2,3.1c-1,0.4-2.3,0.5-4.1,0.5c-2.6,0-4.5-0.8-5.7-2.3c-1.2-1.5-1.8-3.7-1.8-6.7V41.2h-6.3v-3.1h6.3v-8.8H164.6z"/>
	<path class="st0" d="M200.2,43.9c1.2-2.1,2.8-3.6,4.8-4.8c1.9-1.1,4.1-1.7,6.4-1.7c3.7,0,6.4,1,8.2,3.1c1.8,2.1,2.7,5.2,2.7,9.3
		v22.5h-3.8V49.9c0-3.1-0.7-5.4-2-6.9c-1.3-1.5-3.3-2.3-6.1-2.3c-2.3,0-4.4,0.7-6.2,2.2c-1.8,1.5-3.1,3.5-4,6v23.5h-3.8V23.7h3.8
		V43.9z"/>
	<path class="st0" d="M262.3,73.1c-2.9,0-5.6-0.7-7.9-2.2c-2.4-1.4-4.2-3.4-5.5-6c-1.3-2.6-2-5.5-2-8.6v-1.4c0-3.3,0.6-6.3,1.9-8.9
		c1.3-2.6,3.1-4.7,5.3-6.2s4.8-2.3,7.4-2.3c4.2,0,7.5,1.4,9.9,4.3c2.4,2.8,3.7,6.7,3.7,11.7v2.1h-24.5v0.7c0,3.9,1.1,7.1,3.3,9.7
		c2.2,2.6,5,3.9,8.4,3.9c2,0,3.8-0.4,5.4-1.1c1.6-0.7,3-1.9,4.2-3.6l2.4,1.8C271.6,71,267.6,73.1,262.3,73.1z M261.6,40.7
		c-2.9,0-5.3,1-7.2,3.1c-2,2.1-3.1,4.9-3.6,8.4h20.6v-0.4c-0.1-3.3-1-6-2.8-8.1C266.8,41.7,264.4,40.7,261.6,40.7z"/>
	<path class="st0" d="M315.2,41.3c-0.8-0.1-1.7-0.2-2.6-0.2c-2.4,0-4.4,0.7-6,2s-2.8,3.2-3.5,5.8v23.6h-3.8V38.1h3.7l0.1,5.5
		c2-4.1,5.2-6.1,9.7-6.1c1.1,0,1.9,0.1,2.5,0.4L315.2,41.3z"/>
	<path class="st0" d="M350.8,73.1c-2.9,0-5.6-0.7-7.9-2.2c-2.4-1.4-4.2-3.4-5.5-6c-1.3-2.6-2-5.5-2-8.6v-1.4c0-3.3,0.6-6.3,1.9-8.9
		c1.3-2.6,3.1-4.7,5.3-6.2s4.8-2.3,7.4-2.3c4.2,0,7.5,1.4,9.9,4.3c2.4,2.8,3.7,6.7,3.7,11.7v2.1h-24.5v0.7c0,3.9,1.1,7.1,3.3,9.7
		c2.2,2.6,5,3.9,8.4,3.9c2,0,3.8-0.4,5.4-1.1c1.6-0.7,3-1.9,4.2-3.6l2.4,1.8C360.1,71,356.1,73.1,350.8,73.1z M350.1,40.7
		c-2.9,0-5.3,1-7.2,3.1s-3.1,4.9-3.6,8.4h20.6v-0.4c-0.1-3.3-1-6-2.8-8.1C355.3,41.7,353,40.7,350.1,40.7z"/>
	<path class="st0" d="M410,68.1c-2.3,3.3-5.9,5-10.9,5c-3.7,0-6.4-1.1-8.3-3.2s-2.9-5.3-2.9-9.4V38.1h3.8v21.9
		c0,6.5,2.6,9.8,7.9,9.8c5.5,0,9-2.3,10.4-6.8V38.1h3.8v34.3H410L410,68.1z"/>
	<path class="st0" d="M443.9,38.1l0.1,5.6c1.3-2.1,2.9-3.6,4.8-4.7c1.9-1,4-1.6,6.3-1.6c5.4,0,8.9,2.2,10.3,6.7
		c1.2-2.1,2.9-3.8,4.9-4.9c2.1-1.2,4.3-1.7,6.8-1.7c7.4,0,11.1,4,11.3,12.1v22.9h-3.8V49.8c0-3.1-0.7-5.3-2-6.8
		c-1.3-1.5-3.4-2.2-6.4-2.2c-2.7,0-5,0.9-6.9,2.7c-1.9,1.7-2.9,3.8-3.1,6.3v22.7h-3.8V49.5c0-2.9-0.7-5.1-2.1-6.6
		c-1.4-1.4-3.5-2.2-6.3-2.2c-2.4,0-4.4,0.7-6.2,2c-1.7,1.4-3,3.4-3.8,6.1v23.5h-3.8V38.1H443.9z"/>
</g>
<path class="st0" d="M57.5,17.7l21.7,36c-7,4.2-13.9,8.3-20.9,12.3c-0.6,0.2-1.3,0.2-1.8-0.1c-6.9-4-13.7-8-20.7-12.2
	C43.1,41.7,50.2,29.8,57.5,17.7z"/>
<path class="st0" d="M78.1,58.9L57.2,88.3L36.3,58.9l0.4-0.4c1.7,1,3.4,2,5.1,3c4.5,2.6,9,5.2,13.4,7.9c1.2,0.9,2.9,1,4.1,0
	c5.4-3.3,10.9-6.5,16.4-9.7c0.7-0.4,1.4-0.8,2.2-1.2L78.1,58.9z"/>
</svg>
