<svg xmlns="http://www.w3.org/2000/svg" viewBox="0 0 400 681.502">
  <linearGradient id="a" x1="92.465" x2="99.047" y1="689.896" y2="446.357" gradientUnits="userSpaceOnUse">
    <stop offset="0" stop-color="#fff"/>
    <stop offset=".19" stop-color="#e2e2e2"/>
    <stop offset=".589" stop-color="#d5d5d5"/>
    <stop offset=".868" stop-color="#c6c6c6"/>
    <stop offset="1" stop-color="#b7b7b7"/>
  </linearGradient>
  <path fill="url(#a)" d="M191.506 496.463L1.681 392.807l189.825 288.695z"/>
  <linearGradient id="b" x1="246.495" x2="109.916" y1="458.546" y2="613.226" gradientUnits="userSpaceOnUse">
    <stop offset="0" stop-color="#fff"/>
    <stop offset="1" stop-color="#fff" stop-opacity="0"/>
  </linearGradient>
  <path fill="url(#b)" d="M191.506 496.463l-81.21-44.346 81.21 229.385z" opacity=".5"/>
  <linearGradient id="c" x1="296.634" x2="303.216" y1="695.414" y2="451.875" gradientUnits="userSpaceOnUse">
    <stop offset="0" stop-color="#fff"/>
    <stop offset=".19" stop-color="#e2e2e2"/>
    <stop offset=".589" stop-color="#cfcfcf"/>
    <stop offset=".868" stop-color="#ccc"/>
    <stop offset="1" stop-color="#bababa"/>
  </linearGradient>
  <path fill="url(#c)" d="M208.501 681.502l189.821-288.695-189.821 103.656z"/>
  <linearGradient id="d" x1="162.391" x2="326.945" y1="6.627" y2="477.251" gradientUnits="userSpaceOnUse">
    <stop offset="0" stop-color="#fff"/>
    <stop offset=".19" stop-color="#e2e2e2"/>
    <stop offset=".589" stop-color="#ccc"/>
    <stop offset=".868" stop-color="#bdbdbd"/>
    <stop offset="1" stop-color="#a3a3a3"/>
  </linearGradient>
  <path fill="url(#d)" d="M400 346.41L200.003.006v453.968z"/>
  <linearGradient id="e" x1="-50.463" x2="215.339" y1="226.987" y2="226.987" gradientUnits="userSpaceOnUse">
    <stop offset="0" stop-color="#fff"/>
    <stop offset=".19" stop-color="#efefef"/>
    <stop offset=".589" stop-color="#cfcfcf"/>
    <stop offset=".868" stop-color="#c6c6c6"/>
    <stop offset="1" stop-color="#c6c6c6"/>
  </linearGradient>
  <path fill="url(#e)" d="M200 0L0 346.41l200 107.564h.003V.006z"/>
  <linearGradient id="f" x1="254.812" x2="91.355" y1="159.307" y2="361.159" gradientUnits="userSpaceOnUse">
    <stop offset="0" stop-color="#fff"/>
    <stop offset="1" stop-color="#fff" stop-opacity="0"/>
  </linearGradient>
  <path fill="url(#f)" d="M120.273 138.091L200.003.006v453.968z" opacity=".5"/>
</svg>
