<svg id="Layer_1" data-name="Layer 1" xmlns="http://www.w3.org/2000/svg" viewBox="0 0 1881.13 541.63"><defs><style>.cls-1{fill:"current";}</style></defs><path class="cls-1" d="M31.09,506V29.23H325.64v75.4H111.92V231H305.57v73.23H111.92V430.64H325.64V506Z"/><path class="cls-1" d="M548,506H469.93L337,178.41h86.25L510.07,412.2l84.62-233.79H676.6Z"/><path class="cls-1" d="M712.94,506V178.41H787.8v41.76c19-33.63,59.67-51,97.1-51,42.85,0,80.82,19.53,98.18,58,25.49-42.86,64-58,106.32-58,59.12,0,115.54,37.43,115.54,124.22V506h-75.4V306.42c0-38.51-19.53-67.26-63.47-67.26-41.22,0-67.8,32.55-67.8,72.69V506H921.78V306.42c0-37.43-19-67.26-63.46-67.26-41.77,0-67.81,30.92-67.81,72.69V506Z"/><path class="cls-1" d="M1580.85,342.22c0,100.9-72.14,174.13-170.33,174.13-97.64,0-169.24-73.23-169.24-174.13,0-100.35,72.15-173.58,169.24-173.58C1508.71,168.64,1580.85,241.87,1580.85,342.22Zm-78.65,0c0-67.8-42.86-103.06-91.68-103.06-47.73,0-91.67,34.72-91.67,103.06s43.94,104.15,91.67,104.15C1458.8,446.37,1502.2,410.57,1502.2,342.22Z"/><path class="cls-1" d="M1668.18,398.64c2.72,29.83,25,55.87,66.72,55.87,32.55,0,48.82-17.36,48.82-37.43,0-17.36-11.93-30.92-38.51-36.34l-48.28-10.85c-58-13-87.87-50.45-87.87-95.47,0-57,52.61-105.78,120.42-105.78,91.67,0,121,59.13,126.39,91.67l-65.64,19c-2.71-19-16.81-48.82-60.75-48.82-27.67,0-47.19,17.36-47.19,37.43,0,17.36,13,30.38,33.09,34.17l49.9,10.31c61.84,13.56,94.39,51,94.39,99.27,0,49.9-40.14,104.69-123.68,104.69-94.93,0-131.27-61.84-135.07-98.73Z"/></svg>