<?xml version="1.0" encoding="UTF-8"?>
<svg width="91px" height="26px" viewBox="0 0 91 26" version="1.1" xmlns="http://www.w3.org/2000/svg" xmlns:xlink="http://www.w3.org/1999/xlink">
    <!-- Generator: Sketch 55.1 (78136) - https://sketchapp.com -->
    <title>fuse logo</title>
    <desc>Created with Sketch.</desc>
    <g id="DApp-home-page" stroke="none" stroke-width="1" fill="none" fill-rule="evenodd">
        <g id="Fuse--Home-page" transform="translate(-29.000000, -18.000000)" fill="#05283E">
            <g id="fuse-logo" transform="translate(29.000000, 18.000000)">
                <path d="M57.3962264,8.36620791 L57.3962264,24.600524 L54.0708895,24.600524 L53.4726993,22.7822102 L53.0402002,22.7822102 C52.3754332,23.5940971 50.9122449,24.7628037 48.1855988,24.7628037 C43.7629958,24.7628037 41.5018868,21.7107737 41.5018868,17.1649893 L41.5018868,8.36620791 L46.0241047,8.36620791 L46.0241047,16.1913115 C46.0241047,18.2041654 46.1902965,20.9966457 49.0500963,20.9966457 C50.5132846,20.9966457 52.9075472,20.2497684 52.9075472,15.9962827 L52.9075472,8.36620791 L57.3962264,8.36620791 Z M66.8342546,11.7744619 C65.4364809,11.7744619 64.8377929,12.4496272 64.8377929,13.1247925 C64.8377929,14.2176408 66.3352644,14.5390098 67.3332447,14.7321216 C70.2951221,15.3429163 73.290566,16.2111935 73.290566,19.6189634 C73.290566,22.9304195 70.4614521,24.7628037 67.0341512,24.7628037 C63.207057,24.7628037 60.2451797,22.5122526 60.045283,19.1044826 L64.1389061,19.1044826 C64.238604,20.0690736 64.9039242,21.3226064 66.9339524,21.3226064 C68.6313206,21.3226064 69.0306129,20.4548133 69.0306129,19.7796479 C69.0306129,18.5900018 67.8658015,18.2366895 66.7345567,17.979207 C64.7711607,17.5610401 60.5442732,16.7895609 60.5442732,13.1247925 C60.5442732,9.97402098 63.6724806,8.36620791 66.9008868,8.36620791 C70.6282832,8.36620791 73.0906694,10.5523884 73.290566,13.2530497 L69.1974439,13.2530497 C69.0641795,12.7066256 68.5316227,11.7744619 66.8342546,11.7744619 Z M90.0246343,17.7860952 L78.2418071,17.7860952 C78.7258531,20.2292742 80.7276459,21.1294946 82.470406,21.1294946 C84.6661087,21.1294946 85.6021254,19.7796479 85.6021254,19.7796479 L89.6698616,19.7796479 C88.4427369,22.9943061 85.5049274,24.7628037 82.3411326,24.7628037 C77.9832604,24.7628037 74.1735849,21.4513476 74.1735849,16.4357646 C74.1735849,11.4526089 77.9511851,8.36620791 82.2123453,8.36620791 C86.3447181,8.36620791 90.5412417,11.2275537 90.0246343,17.7860952 Z M78.4998678,14.5390098 L85.7634741,14.5390098 C85.2794281,12.642255 83.9555914,11.8707758 82.3411326,11.8707758 C80.5658112,11.8707758 79.1457485,12.8673101 78.4998678,14.5390098 Z M22.6948612,11.6445779 C23.4022731,11.9567752 23.8415094,12.6204943 23.8415094,13.3762901 C23.8415094,14.1320859 23.4022731,14.7953254 22.6943682,15.1075228 L19.7794364,16.395157 L22.6948612,17.6823118 C23.4022731,17.9949887 23.8415094,18.6587078 23.8415094,19.414024 C23.8415094,20.1698197 23.4022731,20.8335389 22.6943682,21.1457362 L15.7168704,24.2274263 C14.5105728,24.7602239 13.2155405,25.026383 11.9205082,25.026383 C10.6259689,25.026383 9.33093668,24.7602239 8.12463902,24.2274263 L1.14714125,21.1457362 C0.439729264,20.8335389 0,20.1698197 0,19.414024 C0,18.6587078 0.439236294,17.9949887 1.14664828,17.6823118 L4.06158006,16.395157 L1.14714125,15.1075228 C0.439729264,14.7953254 0,14.1320859 0,13.3762901 C0,12.6204943 0.439236294,11.9567752 1.14664828,11.6445779 L4.06158006,10.3569436 L1.14714125,9.06978889 C0.439729264,8.75759153 0,8.09387241 0,7.33807665 C0,6.58276046 0.439236294,5.91904134 1.14664828,5.60636442 L8.12463902,2.52515391 C10.5372343,1.45955862 13.3042751,1.45955862 15.7168704,2.52515391 L22.6948612,5.60636442 C23.4022731,5.91904134 23.8415094,6.58276046 23.8415094,7.33807665 C23.8415094,8.09387241 23.4022731,8.75759153 22.6943682,9.06978889 L19.7794364,10.3569436 L22.6948612,11.6445779 Z M15.6020084,16.3922797 L21.9795616,13.5753099 C22.089001,13.5273533 22.1116776,13.4405519 22.1116776,13.3762901 C22.1116776,13.3115487 22.089001,13.2247473 21.9795616,13.1763112 L15.5995435,10.3555049 L21.9795616,7.53757604 C22.089001,7.48913989 22.1116776,7.40233847 22.1116776,7.33807665 C22.1116776,7.27381483 22.089001,7.18701341 21.9795616,7.13857726 L15.0015709,4.0568872 C13.043494,3.19222999 10.7980155,3.19222999 8.83993853,4.0568872 L1.86194779,7.13857726 C1.75250845,7.18701341 1.72983183,7.27381483 1.72983183,7.33807665 C1.72983183,7.40233847 1.75250845,7.48913989 1.86194779,7.53757604 L8.8404315,10.6197457 C10.5071632,11.3553997 12.3824211,11.4623428 14.11176,10.9448913 L16.2813211,11.9021047 L15.7163774,12.1519585 C14.5100798,12.6842766 13.2155405,12.9509152 11.9205082,12.9509152 C10.6259689,12.9509152 9.33142965,12.6842766 8.12513199,12.1519585 L6.15423782,11.281067 L1.86194779,13.1763112 C1.75250845,13.2247473 1.72983183,13.3115487 1.72983183,13.3762901 C1.72983183,13.4405519 1.75250845,13.5273533 1.86194779,13.5753099 L8.83796665,16.6565204 C10.5066702,17.3931336 12.3834071,17.5000767 14.1142249,16.9821456 L16.283293,17.939359 L15.7183493,18.1887333 C14.5120517,18.7215309 13.2160335,18.9881695 11.9205082,18.9881695 C10.624983,18.9881695 9.32995074,18.7215309 8.12316011,18.1887333 L6.15423782,17.3192804 L1.86194779,19.2145246 C1.75250845,19.2629608 1.72983183,19.3497622 1.72983183,19.414024 C1.72983183,19.4782858 1.75250845,19.5650872 1.86194779,19.6135234 L8.83944556,22.6952134 C10.7975225,23.5598706 13.0439869,23.5598706 15.0020639,22.6952134 L21.9795616,19.6135234 C22.089001,19.5650872 22.1116776,19.4782858 22.1116776,19.414024 C22.1116776,19.3497622 22.089001,19.2629608 21.9795616,19.2145246 L15.6020084,16.3922797 Z M37.6899001,4.3742234 C36.4824584,4.3742234 35.4760044,5.25203457 35.4760044,6.3181504 L35.4760044,8.22479402 L40.3062764,8.22479402 L40.3062764,11.5165859 L35.4760044,11.5165859 L35.4760044,23.8998586 L31.2492009,23.8998586 L31.2492009,11.5165859 L28.4318368,11.5165859 L28.4318368,8.22479402 L31.2492009,8.22479402 L31.2492009,6.06707753 C31.2492009,2.90082207 34.0337403,0.862978723 37.2535849,0.862978723 C39.8366315,0.862978723 41.245566,2.17969548 41.245566,2.17969548 L39.6356437,4.96981356 C39.6356437,4.96981356 38.6963541,4.3742234 37.6899001,4.3742234 Z" id="Combined-Shape"></path>
            </g>
        </g>
    </g>
</svg>