<svg width="537" height="166" viewBox="0 0 537 166" fill="none" xmlns="http://www.w3.org/2000/svg">
<path d="M410.615 86.4254C410.02 91.8904 408.065 96.0754 404.75 98.9704C401.435 101.87 397.02 103.32 391.51 103.32C387.66 103.32 384.255 102.36 381.3 100.435C378.34 98.5104 376.055 95.7854 374.44 92.2554C372.825 88.7254 372.005 84.6954 371.98 80.1554V73.4204C371.98 68.8104 372.79 64.7254 374.405 61.1604C376.02 57.5954 378.345 54.8454 381.375 52.9104C384.405 50.9754 387.89 50.0054 391.835 50.0054C397.395 50.0054 401.785 51.5004 405.005 54.4954C408.225 57.4904 410.095 61.6354 410.62 66.9354H406.2C405.105 58.1204 400.32 53.7104 391.835 53.7104C387.13 53.7104 383.38 55.4704 380.59 58.9904C377.8 62.5104 376.4 67.3754 376.4 73.5804V79.9304C376.4 85.9254 377.76 90.7054 380.48 94.2704C383.2 97.8354 386.88 99.6204 391.51 99.6204C396.14 99.6204 399.555 98.5204 401.885 96.3254C404.215 94.1254 405.65 90.8304 406.2 86.4354H410.62L410.615 86.4254Z" fill="#231F20"/>
<path d="M422.425 70.5654C423.825 68.2604 425.62 66.4804 427.805 65.2204C429.99 63.9604 432.38 63.3304 434.97 63.3304C439.105 63.3304 442.18 64.4954 444.2 66.8254C446.22 69.1554 447.24 72.6454 447.265 77.3054V102.615H443.025V77.2704C443 73.8254 442.27 71.2604 440.835 69.5704C439.395 67.8854 437.1 67.0404 433.94 67.0404C431.3 67.0404 428.97 67.8654 426.935 69.5204C424.905 71.1704 423.4 73.4004 422.425 76.2054V102.62H418.185V47.8604H422.425V70.5654Z" fill="#231F20"/>
<path d="M480.46 102.61C480.03 101.4 479.76 99.6055 479.64 97.2305C478.145 99.1805 476.235 100.68 473.92 101.74C471.605 102.795 469.15 103.325 466.56 103.325C462.855 103.325 459.855 102.29 457.56 100.225C455.265 98.1604 454.12 95.5455 454.12 92.3855C454.12 88.6305 455.68 85.6604 458.805 83.4754C461.93 81.2904 466.285 80.1954 471.87 80.1954H479.605V75.8104C479.605 73.0554 478.755 70.8855 477.055 69.3055C475.355 67.7255 472.88 66.9354 469.62 66.9354C466.65 66.9354 464.19 67.6954 462.24 69.2154C460.29 70.7354 459.315 72.5655 459.315 74.7055L455.04 74.6704C455.04 71.6054 456.465 68.9505 459.315 66.7055C462.165 64.4605 465.67 63.3354 469.83 63.3354C473.99 63.3354 477.525 64.4104 480.005 66.5604C482.485 68.7104 483.765 71.7104 483.835 75.5604V93.8104C483.835 97.5404 484.225 100.335 485.01 102.185V102.615H480.45L480.46 102.61ZM467.06 99.5454C469.91 99.5454 472.46 98.8555 474.705 97.4805C476.95 96.1005 478.585 94.2605 479.605 91.9555V83.4705H471.975C467.72 83.5205 464.395 84.2955 461.995 85.8055C459.595 87.3155 458.395 89.3905 458.395 92.0255C458.395 94.1905 459.195 95.9804 460.8 97.4054C462.405 98.8304 464.49 99.5454 467.055 99.5454H467.06Z" fill="#231F20"/>
<path d="M492.455 52.9052C492.455 52.1002 492.715 51.4252 493.24 50.8702C493.76 50.3152 494.475 50.0352 495.38 50.0352C496.285 50.0352 497 50.3152 497.535 50.8702C498.07 51.4252 498.335 52.1052 498.335 52.9052C498.335 53.7052 498.065 54.3802 497.535 54.9252C497 55.4702 496.28 55.7402 495.38 55.7402C494.48 55.7402 493.765 55.4702 493.24 54.9252C492.715 54.3802 492.455 53.7102 492.455 52.9052ZM497.48 102.61H493.205V64.0452H497.48V102.61Z" fill="#231F20"/>
<path d="M510.92 64.0401L511.065 70.6351C512.515 68.2601 514.32 66.4451 516.485 65.2001C518.645 63.9551 521.035 63.3301 523.65 63.3301C527.785 63.3301 530.86 64.4951 532.88 66.8251C534.9 69.1551 535.92 72.6451 535.945 77.3051V102.615H531.705V77.2701C531.68 73.8251 530.95 71.2601 529.515 69.5701C528.075 67.8851 525.78 67.0401 522.62 67.0401C519.98 67.0401 517.645 67.8651 515.615 69.5201C513.585 71.1701 512.08 73.4001 511.105 76.2051V102.62H506.865V64.0551H510.93L510.92 64.0401Z" fill="#231F20"/>
<path d="M145.515 122.295L137.69 152.61H134.08L126.51 126.64L118.9 152.61H115.29L107.465 122.295H110.82L117.14 148.87L124.795 122.295H128.19L135.845 148.91L142.21 122.295H145.52H145.515Z" fill="#B89F73"/>
<path d="M153.47 124.745V136.185H165.295V138.55H153.47V150.115H166.585V152.61H150.415V122.295H166.585V124.745H153.47Z" fill="#B89F73"/>
<path d="M205.715 124.635C208.095 126.4 209.77 128.83 210.745 131.925H207.565C206.76 129.745 205.43 128.01 203.565 126.72C201.7 125.43 199.395 124.785 196.64 124.785C194.545 124.785 192.645 125.3 190.94 126.335C189.235 127.365 187.895 128.845 186.92 130.765C185.945 132.685 185.46 134.92 185.46 137.475C185.46 140.03 185.945 142.255 186.92 144.16C187.895 146.065 189.235 147.535 190.94 148.57C192.645 149.6 194.545 150.12 196.64 150.12C199.39 150.12 201.7 149.475 203.565 148.185C205.43 146.895 206.76 145.16 207.565 142.98H210.745C209.77 146.075 208.095 148.505 205.715 150.27C203.335 152.035 200.325 152.915 196.685 152.915C193.905 152.915 191.425 152.255 189.245 150.935C187.065 149.615 185.375 147.79 184.17 145.45C182.965 143.115 182.365 140.455 182.365 137.475C182.365 134.495 182.965 131.785 184.17 129.435C185.375 127.085 187.065 125.255 189.245 123.95C191.425 122.645 193.905 121.995 196.685 121.995C200.325 121.995 203.335 122.875 205.715 124.64V124.635Z" fill="#B89F73"/>
<path d="M237.75 123.93C239.985 125.25 241.74 127.085 243.015 129.435C244.29 131.785 244.93 134.45 244.93 137.435C244.93 140.42 244.29 143.09 243.015 145.455C241.74 147.82 239.985 149.665 237.75 150.98C235.515 152.3 232.99 152.96 230.18 152.96C227.37 152.96 224.85 152.3 222.61 150.98C220.375 149.66 218.62 147.82 217.34 145.455C216.065 143.09 215.425 140.415 215.425 137.435C215.425 134.455 216.065 131.79 217.34 129.435C218.615 127.085 220.37 125.25 222.61 123.93C224.845 122.61 227.37 121.95 230.18 121.95C232.99 121.95 235.51 122.61 237.75 123.93ZM224.225 126.295C222.46 127.325 221.07 128.805 220.055 130.725C219.035 132.645 218.53 134.88 218.53 137.435C218.53 139.99 219.04 142.225 220.055 144.145C221.075 146.065 222.465 147.54 224.225 148.575C225.99 149.605 227.975 150.125 230.18 150.125C232.385 150.125 234.375 149.61 236.135 148.575C237.9 147.545 239.29 146.065 240.305 144.145C241.325 142.225 241.83 139.99 241.83 137.435C241.83 134.88 241.32 132.65 240.305 130.725C239.285 128.805 237.895 127.33 236.135 126.295C234.37 125.265 232.385 124.745 230.18 124.745C227.975 124.745 225.99 125.26 224.225 126.295Z" fill="#B89F73"/>
<path d="M273.31 152.61H270.255L253.655 127.285V152.61H250.6V122.34H253.655L270.255 147.71V122.34H273.31V152.61Z" fill="#B89F73"/>
<path d="M302.72 152.61H299.665L283.065 127.285V152.61H280.01V122.34H283.065L299.665 147.71V122.34H302.72V152.61Z" fill="#B89F73"/>
<path d="M312.48 124.745V136.185H324.305V138.55H312.48V150.115H325.595V152.61H309.425V122.295H325.595V124.745H312.48Z" fill="#B89F73"/>
<path d="M353.375 124.635C355.755 126.4 357.43 128.83 358.405 131.925H355.225C354.42 129.745 353.09 128.01 351.225 126.72C349.36 125.43 347.055 124.785 344.3 124.785C342.205 124.785 340.305 125.3 338.6 126.335C336.895 127.365 335.555 128.845 334.58 130.765C333.605 132.685 333.12 134.92 333.12 137.475C333.12 140.03 333.605 142.255 334.58 144.16C335.555 146.065 336.895 147.535 338.6 148.57C340.305 149.6 342.205 150.12 344.3 150.12C347.05 150.12 349.36 149.475 351.225 148.185C353.09 146.895 354.42 145.16 355.225 142.98H358.405C357.43 146.075 355.755 148.505 353.375 150.27C350.995 152.035 347.985 152.915 344.345 152.915C341.565 152.915 339.085 152.255 336.905 150.935C334.725 149.615 333.035 147.79 331.83 145.45C330.625 143.115 330.025 140.455 330.025 137.475C330.025 134.495 330.625 131.785 331.83 129.435C333.035 127.085 334.725 125.255 336.905 123.95C339.085 122.645 341.565 121.995 344.345 121.995C347.985 121.995 350.995 122.875 353.375 124.64V124.635Z" fill="#B89F73"/>
<path d="M381.84 122.295V124.745H373.195V152.61H370.185V124.745H361.585V122.295H381.84Z" fill="#B89F73"/>
<path d="M400.46 139.965V152.605H397.405V122.29H406.48C409.89 122.29 412.435 123.08 414.115 124.655C415.79 126.23 416.63 128.395 416.63 131.15C416.63 133.905 415.765 136.13 414.03 137.665C412.295 139.2 409.78 139.965 406.485 139.965H400.465H400.46ZM411.855 135.775C413 134.7 413.575 133.16 413.575 131.15C413.575 129.14 413 127.515 411.855 126.44C410.71 125.365 408.83 124.83 406.22 124.83H400.46V137.385H406.22C408.83 137.385 410.705 136.85 411.855 135.775Z" fill="#B89F73"/>
<path d="M424.625 124.745V136.185H436.45V138.55H424.625V150.115H437.74V152.61H421.57V122.295H437.74V124.745H424.625Z" fill="#B89F73"/>
<path d="M464.485 123.93C466.72 125.25 468.475 127.085 469.75 129.435C471.025 131.785 471.665 134.45 471.665 137.435C471.665 140.42 471.025 143.09 469.75 145.455C468.475 147.82 466.72 149.665 464.485 150.98C462.25 152.3 459.725 152.96 456.915 152.96C454.105 152.96 451.585 152.3 449.345 150.98C447.11 149.66 445.355 147.82 444.075 145.455C442.8 143.09 442.16 140.415 442.16 137.435C442.16 134.455 442.8 131.79 444.075 129.435C445.35 127.085 447.105 125.25 449.345 123.93C451.58 122.61 454.105 121.95 456.915 121.95C459.725 121.95 462.245 122.61 464.485 123.93ZM450.96 126.295C449.195 127.325 447.805 128.805 446.79 130.725C445.77 132.645 445.265 134.88 445.265 137.435C445.265 139.99 445.775 142.225 446.79 144.145C447.81 146.065 449.2 147.54 450.96 148.575C452.725 149.605 454.71 150.125 456.915 150.125C459.12 150.125 461.11 149.61 462.87 148.575C464.635 147.545 466.025 146.065 467.04 144.145C468.06 142.225 468.565 139.99 468.565 137.435C468.565 134.88 468.055 132.65 467.04 130.725C466.02 128.805 464.63 127.33 462.87 126.295C461.105 125.265 459.12 124.745 456.915 124.745C454.71 124.745 452.725 125.26 450.96 126.295Z" fill="#B89F73"/>
<path d="M480.395 139.965V152.605H477.34V122.29H486.415C489.825 122.29 492.37 123.08 494.05 124.655C495.725 126.23 496.565 128.395 496.565 131.15C496.565 133.905 495.7 136.13 493.965 137.665C492.23 139.2 489.715 139.965 486.42 139.965H480.4H480.395ZM491.79 135.775C492.935 134.7 493.51 133.16 493.51 131.15C493.51 129.14 492.935 127.515 491.79 126.44C490.645 125.365 488.765 124.83 486.155 124.83H480.395V137.385H486.155C488.765 137.385 490.64 136.85 491.79 135.775Z" fill="#B89F73"/>
<path d="M504.56 150.2H515.57V152.61H501.51V122.295H504.565V150.2H504.56Z" fill="#B89F73"/>
<path d="M522.92 124.745V136.185H534.745V138.55H522.92V150.115H536.035V152.61H519.865V122.295H536.035V124.745H522.92Z" fill="#B89F73"/>
<path d="M173.805 63.3049H138.265V75.4799H159.65C158.395 79.5749 156.25 82.7249 153.215 84.9349C150.18 87.1449 146.645 88.2499 142.62 88.2499C136.35 88.2499 131.515 86.4699 128.115 82.9049C124.715 79.3399 123.015 74.2249 123.015 67.5599C123.015 61.4199 124.63 56.5549 127.865 52.9549C131.1 49.3599 135.39 47.5599 140.735 47.5599C144.165 47.5599 147.105 48.2999 149.545 49.7899C151.985 51.2749 153.8 53.2699 154.99 55.7799H172.91C171.525 48.4549 167.995 42.6449 162.315 38.3549C156.64 34.0649 149.41 31.9199 140.635 31.9199C133.64 31.9199 127.515 33.4199 122.27 36.4249C117.025 39.4299 112.965 43.6349 110.095 49.0449C107.225 54.4599 105.79 60.6299 105.79 67.5599C105.79 74.4899 107.225 80.6599 110.095 86.0749C112.965 91.4849 117.04 95.6949 122.32 98.6999C127.6 101.705 133.77 103.205 140.835 103.205C146.64 103.205 151.805 102.115 156.33 99.9399C160.85 97.7599 164.56 94.9249 167.465 91.4249C170.37 87.9249 172.48 84.1349 173.8 80.0399V63.3099L173.805 63.3049Z" fill="#2C3E50"/>
<path d="M225.365 66.5747C228.995 65.7197 231.93 63.8847 234.175 61.0797C236.42 58.2747 237.54 54.7597 237.54 50.5347C237.54 44.7947 235.59 40.3697 231.7 37.2697C227.805 34.1697 222.295 32.6147 215.165 32.6147H183.385V102.61H215.955C223.415 102.61 229.135 100.925 233.13 97.5597C237.125 94.1947 239.12 89.5097 239.12 83.4997C239.12 79.4097 237.88 75.8097 235.41 72.7097C232.935 69.6097 229.585 67.5597 225.36 66.5697L225.365 66.5747ZM200.32 46.1797H211.21C217.215 46.1797 220.22 48.6897 220.22 53.7047C220.22 58.7197 217.28 61.2297 211.41 61.2297H200.32V46.1797ZM212.4 88.8497H200.32V73.1097H212.3C215.335 73.1097 217.68 73.8197 219.33 75.2397C220.98 76.6597 221.805 78.6247 221.805 81.1297C221.805 86.2797 218.67 88.8497 212.4 88.8497Z" fill="#2C3E50"/>
<path d="M248.5 102.61H292.06V89.0447H265.43V73.5047H289.09V60.7297H265.43V46.0797H292.06V32.6147H248.5V102.61Z" fill="#2C3E50"/>
<path d="M368.03 32.6152H350.58C348.925 32.6152 347.375 33.4352 346.445 34.8052L334.22 52.8102L321.995 34.8052C321.065 33.4352 319.515 32.6152 317.86 32.6152H300.41L324.17 67.6102L300.41 102.605H315.21C318.525 102.605 321.62 100.965 323.485 98.2202L334.22 82.4052L344.955 98.2202C346.815 100.96 349.915 102.605 353.23 102.605H368.03L344.27 67.6102L368.03 32.6152Z" fill="#2C3E50"/>
<path d="M70.285 24.17L33.045 0V52.87C33.045 64.33 38.845 75.015 48.46 81.255L76 99.13V34.695C76 30.445 73.85 26.485 70.285 24.17Z" fill="#19C198"/>
<g style="mix-blend-mode:multiply">
<path d="M70.2849 24.17L33.0449 0V52.87C33.0449 64.33 38.8449 75.015 48.4599 81.255L75.9999 99.13V34.695C75.9999 30.445 73.8499 26.485 70.2849 24.17Z" fill="url(#paint0_linear_14235_72688)"/>
</g>
<path d="M19.825 42.9551V110.695C19.825 121.645 10.95 130.52 0 130.52V62.7851C0 51.8351 8.875 42.9601 19.825 42.9601V42.9551Z" fill="#19C198"/>
<g style="mix-blend-mode:multiply">
<path d="M19.825 42.9551V110.695C19.825 121.645 10.95 130.52 0 130.52V62.7851C0 51.8351 8.875 42.9601 19.825 42.9601V42.9551Z" fill="url(#paint1_linear_14235_72688)"/>
</g>
<path opacity="0.8" d="M42.955 165.215V112.345C42.955 100.885 37.155 90.2 27.54 83.96L0 66.085V130.52C0 134.77 2.15 138.73 5.715 141.045L42.955 165.215Z" fill="#19C198"/>
<path opacity="0.8" d="M56.175 122.26V54.5198C56.175 43.5698 65.05 34.6948 76 34.6948V102.435C76 113.385 67.125 122.26 56.175 122.26Z" fill="#19C198"/>
<defs>
<linearGradient id="paint0_linear_14235_72688" x1="75.9961" y1="61.182" x2="32.6802" y2="61.182" gradientUnits="userSpaceOnUse">
<stop stop-color="#19C198"/>
<stop offset="1" stop-color="#19C198" stop-opacity="0"/>
</linearGradient>
<linearGradient id="paint1_linear_14235_72688" x1="-0.00371137" y1="86.6407" x2="19.7567" y2="86.6407" gradientUnits="userSpaceOnUse">
<stop stop-color="#19C198"/>
<stop offset="1" stop-color="#19C198" stop-opacity="0"/>
</linearGradient>
</defs>
</svg>