<svg fill="none" height="560" viewBox="0 0 2508 560" width="2508" xmlns="http://www.w3.org/2000/svg"><g fill="#04795b"><path d="m798.534 373.234c30.723 0 60.887-10.334 79.042-24.299v-89.096h-83.232v38.543h38.544v23.461c-11.451 6.145-22.065 8.658-34.354 8.658-33.795 0-53.626-26.254-53.626-58.373 0-36.868 23.462-58.374 51.671-58.374 21.227 0 36.867 9.217 47.481 19.551l32.957-27.93c-20.389-23.461-51.67-35.471-80.438-35.471-63.401 0-100.548 44.688-100.548 102.224 0 64.518 45.246 101.106 102.503 101.106zm107.895-2.234h43.571v-68.708c0-21.227 10.054-31.561 25.137-31.561 14.244 0 21.785 6.424 21.785 29.047v71.222h43.568v-81.835c0-43.291-20.67-57.256-48.875-57.256-15.92 0-30.443 6.144-41.057 18.433h-.558v-15.92h-43.571zm229.871 2.514c43.01 0 73.74-28.768 73.74-70.663 0-42.174-30.73-70.942-73.74-70.942-44.13 0-74.01 29.326-74.01 70.942 0 41.336 29.88 70.663 74.01 70.663zm0-38.544c-17.32 0-29.88-13.965-29.88-32.119 0-18.713 12.29-32.12 29.88-32.12 17.04 0 29.61 13.127 29.61 32.12 0 18.713-13.13 32.119-29.61 32.119zm142.13 38.544c37.42 0 55.58-18.434 55.58-43.85 0-26.813-16.48-34.634-46.64-44.968-13.69-4.748-18.72-7.82-18.72-12.01 0-5.306 5.87-7.541 10.9-7.541 9.21 0 20.94 4.748 30.44 14.245l20.67-30.444c-15.92-11.731-31.01-17.037-51.67-17.037-28.49 0-51.12 15.92-51.12 43.57 0 26.255 20.11 37.427 43.02 44.409 17.03 5.307 21.22 8.1 21.22 12.569 0 5.027-4.47 8.099-13.12 8.099-12.57 0-24.3-5.027-35.75-15.361l-20.39 28.209c15.08 13.407 34.07 20.11 55.58 20.11zm101.22-156.129c15.09 0 26.26-10.893 26.26-25.137 0-13.686-11.17-24.578-26.26-24.578-15.08 0-25.97 11.172-25.97 24.578 0 14.244 10.89 25.137 25.97 25.137zm-21.78 153.615h43.57v-136.578h-43.57zm120.21 2.514c37.43 0 55.58-18.434 55.58-43.85 0-26.813-16.47-34.634-46.64-44.968-13.68-4.748-18.71-7.82-18.71-12.01 0-5.306 5.86-7.541 10.89-7.541 9.22 0 20.95 4.748 30.44 14.245l20.67-30.444c-15.92-11.731-31-17.037-51.67-17.037-28.49 0-51.11 15.92-51.11 43.57 0 26.255 20.11 37.427 43.01 44.409 17.04 5.307 21.23 8.1 21.23 12.569 0 5.027-4.47 8.099-13.13 8.099-12.57 0-24.3-5.027-35.75-15.361l-20.39 28.209c15.09 13.407 34.08 20.11 55.58 20.11zm243.73 0c35.19 0 62.84-16.758 79.88-37.706l-34.08-29.326c-11.45 13.685-27.37 22.344-45.8 22.344-32.4 0-53.35-24.858-53.35-56.698 0-36.309 24.3-57.536 53.07-57.536 19.27 0 35.19 10.334 45.8 22.903l34.08-29.327c-21.79-26.533-51.95-38.264-79.88-38.264-65.36 0-102.23 45.526-102.23 102.224 0 65.915 45.53 101.386 102.51 101.386zm101.34-2.514h43.58v-68.987c0-21.227 10.05-31.282 25.41-31.282s22.9 6.704 22.9 28.768v71.501h43.58v-82.394c0-43.012-20.95-56.697-49.16-56.697-16.76 0-31.56 6.144-42.18 18.154l-.55-.279v-84.349h-43.58zm221.19 2.514c16.47 0 28.76-5.586 37.7-17.038l.56.28v14.244h41.62v-136.578h-43.85v14.245l-.56.279c-9.5-11.172-23.18-17.037-37.71-17.037-35.19 0-62.28 29.047-62.28 70.942 0 42.174 27.09 70.663 64.52 70.663zm9.21-38.544c-17.31 0-29.32-12.848-29.32-32.119 0-19.551 12.57-32.399 29.32-32.399 16.2 0 28.77 13.686 28.77 32.399 0 19.551-13.13 32.119-28.77 32.119zm123.09-117.585c15.08 0 26.26-10.893 26.26-25.137 0-13.686-11.18-24.578-26.26-24.578s-25.97 11.172-25.97 24.578c0 14.244 10.89 25.137 25.97 25.137zm-21.78 153.615h43.57v-136.578h-43.57zm75.24 0h43.57v-68.708c0-21.227 10.06-31.561 25.14-31.561 14.25 0 21.79 6.424 21.79 29.047v71.222h43.57v-81.835c0-43.291-20.67-57.256-48.88-57.256-15.92 0-30.44 6.144-41.06 18.433h-.56v-15.92h-43.57z"/><path d="m270.044 312.701c14.204 0 27.316-4.733 37.879-12.925l-86.685-86.654c-8.195 10.377-12.93 23.484-12.93 37.866-.182 34.042 27.499 61.713 61.736 61.713z"/><path d="m527.913 250.805c0-14.199-4.735-27.306-12.93-37.865l-86.685 86.653c10.381 8.192 23.493 12.925 37.879 12.925 34.055.182 61.736-27.488 61.736-61.713z"/><path d="m571.62 156.689-38.426 38.412c12.748 15.291 20.397 34.588 20.397 56.07 0 48.241-39.154 87.381-87.414 87.381-21.307 0-40.793-7.646-56.09-20.389l-42.068 42.052-42.068-42.052c-15.297 12.743-34.601 20.389-56.09 20.389-48.26 0-87.414-39.14-87.414-87.381 0-21.3 7.649-40.779 20.397-56.07l-19.668-19.661-18.758-18.751c-21.853 36.045-34.419 78.098-34.419 123.245 0 131.436 106.535 237.75 237.838 237.75 131.302 0 237.837-106.496 237.837-237.75.365-45.329-12.201-87.382-34.054-123.245z"/><path d="m540.114 115.728c-43.16-45.329-104.35-73.7279-172.095-73.7279-67.746 0-128.753 28.3989-172.096 73.7279-5.827 6.19-11.472 12.744-16.754 19.479l188.668 188.598 188.667-188.78c-4.735-6.554-10.38-13.289-16.39-19.297zm-172.095-42.7803c55.726 0 107.446 21.4813 146.235 60.6213l-146.235 146.182-146.236-146.182c38.972-39.14 90.51-60.6213 146.236-60.6213z"/></g></svg>