<svg width="118" height="22" viewBox="0 0 118 22" fill="none" xmlns="http://www.w3.org/2000/svg">
<path d="M3.62133 9.66556C3.62133 8.99996 3.84042 8.3947 4.21917 7.91476L8.22853 11.9223C7.74024 12.301 7.13406 12.5201 6.47681 12.5201C4.89312 12.5192 3.61298 11.24 3.62133 9.66556ZM15.5473 12.5108C17.1227 12.5192 18.4028 11.239 18.4028 9.65627C18.4028 8.99996 18.1837 8.39377 17.805 7.90548L13.7956 11.913C14.2755 12.2917 14.8817 12.5108 15.5473 12.5108ZM18.6469 7.08021C19.2364 7.78759 19.5901 8.67969 19.5901 9.67298C19.5901 11.9037 17.779 13.7139 15.5473 13.7139C14.5624 13.7139 13.661 13.3602 12.9536 12.7708L11.0079 14.7156L9.06216 12.7708C8.35478 13.3602 7.46175 13.7139 6.46846 13.7139C4.2368 13.7139 2.42567 11.9037 2.42567 9.67298C2.42567 8.68805 2.77936 7.78666 3.36883 7.08021L2.45909 6.1714L1.59205 5.30436C0.581122 6.97067 0 8.91548 0 11.0042C0 17.0827 4.92654 22 10.9995 22C17.0716 22 21.9991 17.0744 21.9991 11.0042C22.0158 8.90806 21.4347 6.96325 20.4237 5.30436L18.6469 7.08021ZM10.9995 13.0325L2.27343 4.31014C2.51757 3.99823 2.77843 3.6956 3.04857 3.40968C5.05279 1.31356 7.87485 0 11.0079 0C14.1409 0 16.9704 1.31356 18.9672 3.40968C19.2448 3.68724 19.5066 3.99916 19.7256 4.30178L10.9995 13.0325ZM4.24423 4.23495L11.007 10.9958L17.7697 4.23495C15.9762 2.42474 13.5839 1.43145 11.007 1.43145C8.42998 1.43145 6.04701 2.42474 4.24423 4.23495ZM24.4368 11.0079V11.033C24.4368 17.0892 29.3504 21.9981 35.4113 21.9981H40.0491V19.1538H35.4855C30.9313 19.1538 27.2505 15.4164 27.348 10.8436C27.4436 6.39791 31.1838 2.88983 35.635 2.88983H40.0491V0.0733364H35.3806C29.3374 0.0733364 24.4368 4.96924 24.4368 11.0079ZM82.7597 0.0733364H94.5446V21.9991H82.7597V0.0733364ZM84.8456 6.67826C84.8456 8.78088 86.55 10.4853 88.6526 10.4853C90.7552 10.4853 92.4596 8.78088 92.4596 6.67826C92.4596 4.57564 90.7552 2.87126 88.6526 2.87126C86.55 2.87126 84.8456 4.57564 84.8456 6.67826ZM56.0355 7.42369C56.0355 8.02987 55.8211 8.54137 55.3931 8.95818C54.9643 9.37592 54.4574 9.58479 53.8726 9.58479H47.3521C46.7459 9.58479 46.2335 9.37685 45.8158 8.95818C45.3971 8.54044 45.1892 8.02895 45.1892 7.42369V0.0733364H42.368V21.9991H45.1892V14.503C45.1892 13.8977 45.398 13.3862 45.8158 12.9685C46.2335 12.5507 46.7459 12.3419 47.3521 12.3419H53.8726C54.4574 12.3419 54.9643 12.5507 55.3931 12.9685C55.8211 13.3862 56.0355 13.8977 56.0355 14.503V21.9991H58.826V0.0733364H56.0355V7.42369ZM107.092 0.0733364H96.8626V21.9991H99.6837V10.2782C99.6837 6.19832 102.994 2.89075 107.077 2.89075C111.16 2.89075 114.47 6.19832 114.47 10.2782V21.9991H117.267V10.2411C117.268 4.62576 112.712 0.0733364 107.092 0.0733364ZM72.4323 1.23929L81.7358 21.9991H59.8732L69.2695 1.23929C69.6418 0.413098 70.169 0 70.8504 0C71.5327 0 72.06 0.413098 72.4323 1.23929ZM70.8504 10.7842C68.7478 10.7842 67.0434 12.4885 67.0434 14.5912C67.0434 16.6938 68.7478 18.3982 70.8504 18.3982C72.953 18.3982 74.6574 16.6938 74.6574 14.5912C74.6574 12.4885 72.953 10.7842 70.8504 10.7842Z" fill="#133629"/>
</svg>
