<svg xmlns="http://www.w3.org/2000/svg" width="56" height="57" viewBox="0 0 56 57">
    <g fill="#FCB614" fill-rule="evenodd">
        <path d="M24.725 49.08a.976.976 0 0 0-.77-.965c-8.917-1.785-15.66-9.731-15.66-19.236s6.742-17.45 15.659-19.236a.977.977 0 0 0 .77-.965V2.016a.968.968 0 0 0-1.11-.96C10.25 3.07 0 14.685 0 28.716c0 14.03 10.25 25.645 23.613 27.66a.969.969 0 0 0 1.112-.961V49.08z"/>
        <path d="M31.89 1.056a.97.97 0 0 0-1.111.96V8.71c0 .428.338.862.755.946a19.61 19.61 0 0 1 12.947 9.227.487.487 0 0 1-.41.74h-6.174a.962.962 0 0 1-.681-.29c-2.479-2.483-5.874-3.963-9.464-3.963-7.69 0-13.89 6.562-13.374 14.422.433 6.615 5.7 12.013 12.255 12.553 6.372.523 11.92-3.476 13.822-9.153.208-.62-.269-1.26-.919-1.26H28.233a.483.483 0 0 1-.481-.486v-5.133c0-.267.215-.484.48-.484h18.015c.531 0 .962.434.962.97v2.081c0 9.505-6.743 17.451-15.66 19.236a.977.977 0 0 0-.77.965v6.335a.97.97 0 0 0 1.111.96c13.364-2.014 23.613-13.628 23.613-27.66 0-14.03-10.25-25.645-23.613-27.66"/>
    </g>
</svg>
