<svg xmlns="http://www.w3.org/2000/svg" width="30" height="20"><path data-name="-e-logo_top" d="M13.82 10.054h-6.9v2.731h3.191l-.011 3.432a1.456 1.456 0 0 1-.43.319 4 4 0 0 1-.655.267 5.306 5.306 0 0 1-.795.182 5.647 5.647 0 0 1-.861.065 3.012 3.012 0 0 1-2.715-1.424 7.745 7.745 0 0 1-.9-4.063v-2.6a9.439 9.439 0 0 1 .265-2.36 5.76 5.76 0 0 1 .715-1.71 3.229 3.229 0 0 1 1.059-1.047 2.57 2.57 0 0 1 1.324-.357 2.922 2.922 0 0 1 2.191.735 3.762 3.762 0 0 1 .894 2.191h3.628a8.468 8.468 0 0 0-.616-2.458A5.315 5.315 0 0 0 11.9 2.1 5.626 5.626 0 0 0 9.854.936a9.017 9.017 0 0 0-2.84-.4 6.711 6.711 0 0 0-2.774.572 6.354 6.354 0 0 0-2.225 1.664A7.926 7.926 0 0 0 .532 5.431 10.952 10.952 0 0 0 0 8.988v2.575a11.473 11.473 0 0 0 .51 3.556 7.5 7.5 0 0 0 1.45 2.646 6.25 6.25 0 0 0 2.264 1.651 7.406 7.406 0 0 0 2.966.572 11.15 11.15 0 0 0 2.278-.221 10.5 10.5 0 0 0 1.913-.579 7.641 7.641 0 0 0 1.477-.8 5.159 5.159 0 0 0 .98-.871zm2.661 2.783a8.686 8.686 0 0 0 .451 2.854 6.513 6.513 0 0 0 1.317 2.269 5.984 5.984 0 0 0 2.132 1.5 7.277 7.277 0 0 0 2.88.54 7.194 7.194 0 0 0 2.86-.54 5.934 5.934 0 0 0 2.119-1.5 6.6 6.6 0 0 0 1.311-2.269 8.713 8.713 0 0 0 .45-2.854v-.274a8.673 8.673 0 0 0-.45-2.841 6.532 6.532 0 0 0-1.318-2.269 6.078 6.078 0 0 0-2.125-1.508 7.813 7.813 0 0 0-5.74 0 6.082 6.082 0 0 0-2.119 1.508 6.515 6.515 0 0 0-1.317 2.269 8.647 8.647 0 0 0-.451 2.841v.273zm3.681-.273a7.394 7.394 0 0 1 .173-1.625 4.223 4.223 0 0 1 .542-1.352 2.633 2.633 0 0 1 2.357-1.261 2.777 2.777 0 0 1 1.417.338 2.693 2.693 0 0 1 .947.923 4.31 4.31 0 0 1 .536 1.352 7.394 7.394 0 0 1 .173 1.625v.273a7.606 7.606 0 0 1-.173 1.658 4.227 4.227 0 0 1-.536 1.352 2.621 2.621 0 0 1-2.337 1.255 2.818 2.818 0 0 1-1.424-.338 2.758 2.758 0 0 1-.96-.917 4.143 4.143 0 0 1-.542-1.352 7.606 7.606 0 0 1-.173-1.658v-.274zm-1.747-10.3a1.492 1.492 0 0 0 .37.514 1.761 1.761 0 0 0 .57.338 2.207 2.207 0 0 0 1.456 0 1.761 1.761 0 0 0 .57-.338 1.492 1.492 0 0 0 .37-.514 1.593 1.593 0 0 0 0-1.274 1.562 1.562 0 0 0-.37-.52 1.7 1.7 0 0 0-.57-.344 2.206 2.206 0 0 0-1.456 0 1.7 1.7 0 0 0-.57.345 1.562 1.562 0 0 0-.37.52 1.593 1.593 0 0 0 0 1.274zm6.356.013a1.558 1.558 0 0 0 .37.52 1.7 1.7 0 0 0 .57.345 2.207 2.207 0 0 0 1.456 0 1.7 1.7 0 0 0 .57-.345 1.558 1.558 0 0 0 .37-.52 1.593 1.593 0 0 0 .133-.65 1.562 1.562 0 0 0-.133-.637 1.492 1.492 0 0 0-.37-.514 1.762 1.762 0 0 0-.57-.338 2.206 2.206 0 0 0-1.456 0 1.762 1.762 0 0 0-.57.338 1.492 1.492 0 0 0-.37.514 1.546 1.546 0 0 0-.133.637 1.576 1.576 0 0 0 .133.651z" fill="#2b2b2b" fill-rule="evenodd"/></svg>