<svg xmlns="http://www.w3.org/2000/svg" width="32" viewBox="0 0 34 34" fill="none">
<path d="M26.232 0C22.292 0 19.0778 3.2142 18.9741 7.15419V15.1378C18.2484 15.1378 17.5226 15.2415 16.6931 15.2415C15.8636 15.2415 15.1378 15.2415 14.4121 15.3452V7.15419C14.4121 3.2142 11.0942 0 7.0505 0.103684C3.2142 0.103684 0.103684 3.31788 0 7.15419V26.232C0.103684 30.172 3.31788 33.3862 7.36155 33.2825C11.3015 33.1788 14.4121 30.0683 14.4121 26.232V18.2484C15.1378 18.2484 15.8636 18.1447 16.6931 18.1447C17.5226 18.1447 18.2484 18.1447 18.9741 18.041V26.1283C19.0778 30.0683 22.292 33.2825 26.3357 33.1788C30.2757 33.0751 33.3862 29.9646 33.3862 26.1283V7.15419C33.3862 3.2142 30.172 0 26.232 0ZM7.25787 2.90315C9.6426 2.90315 11.5089 4.76946 11.5089 7.15419V15.5526C9.43523 15.8636 7.36155 16.4857 5.39156 17.3152C4.56209 17.7299 3.73262 18.1447 3.00683 18.7668V7.15419C3.00683 4.87314 4.87314 2.90315 7.25787 2.90315ZM11.5089 26.232C11.5089 28.6167 9.6426 30.483 7.25787 30.483C4.87314 30.483 3.00683 28.6167 3.00683 26.232V24.3657C3.00683 22.7068 4.35472 21.0478 6.63577 20.1147C8.19102 19.3889 9.84997 18.9741 11.6126 18.6631L11.5089 26.232ZM26.232 30.483C23.8473 30.483 21.981 28.6167 21.981 26.232V17.8336C24.0547 17.5226 26.1283 16.9005 28.0983 16.071C28.9278 15.6563 29.7573 15.2415 30.4831 14.6194V26.232C30.4831 28.6167 28.5131 30.483 26.232 30.483ZM26.8541 13.3752C25.2989 14.101 23.6399 14.5157 21.8773 14.8268V7.15419C21.8773 4.76946 23.7436 2.90315 26.1283 2.90315C28.5131 2.90315 30.3794 4.76946 30.3794 7.15419V9.02049C30.4831 10.7831 29.1352 12.3384 26.8541 13.3752Z" fill="#fff"/>
<defs>  
</defs>
</svg>