<svg width="663" height="149" viewBox="0 0 663 149" fill="none" xmlns="http://www.w3.org/2000/svg">
<g clip-path="url(#clip0_2874_52)">
<path d="M662.12 35.7699C662.12 34.1599 660.82 32.8599 659.21 32.8599H648.24C646.63 32.8599 645.33 34.1599 645.33 35.7699V101.06H588.24V35.7699C588.24 34.1599 586.94 32.8599 585.33 32.8599H574.36C572.75 32.8599 571.45 34.1599 571.45 35.7699V98.8399C571.45 100.27 571.97 101.65 572.92 102.72L584.65 116.02C585.68 117.18 587.15 117.85 588.7 117.85H644.89C646.44 117.85 647.92 117.18 648.94 116.02L660.67 102.72C661.62 101.65 662.14 100.27 662.14 98.8399V35.7699H662.12Z" fill="black"/>
<path d="M364.06 117.62H352.22C350.85 117.62 349.74 116.51 349.74 115.14V35.3399C349.74 33.9699 350.85 32.8599 352.22 32.8599H364.06C365.43 32.8599 366.54 33.9699 366.54 35.3399V115.14C366.54 116.51 365.43 117.62 364.06 117.62Z" fill="black"/>
<path d="M493.74 117.62H481.9C480.53 117.62 479.42 116.51 479.42 115.14V35.3399C479.42 33.9699 480.53 32.8599 481.9 32.8599H493.74C495.11 32.8599 496.22 33.9699 496.22 35.3399V115.14C496.22 116.51 495.11 117.62 493.74 117.62Z" fill="black"/>
<path d="M292.32 117.62H280.48C279.11 117.62 278 116.51 278 115.14V35.3399C278 33.9699 279.11 32.8599 280.48 32.8599H292.32C293.69 32.8599 294.8 33.9699 294.8 35.3399V115.14C294.8 116.51 293.69 117.62 292.32 117.62Z" fill="black"/>
<path d="M334.64 68.2401L352.73 83.6301H290.95V66.8301H330.82C332.22 66.8301 333.58 67.3301 334.65 68.2401H334.64Z" fill="black"/>
<path d="M550.65 117.74H564.59C565.87 117.74 566.56 116.24 565.73 115.27L532.71 76.7202C531.9 75.7702 530.71 75.2202 529.45 75.2202H512.25L547.39 116.24C548.2 117.19 549.39 117.74 550.65 117.74Z" fill="black"/>
<path d="M514.86 75.36H493.22L544.06 34.3C545.12 33.45 546.44 32.98 547.8 32.98H563.73C565.41 32.98 566.15 35.1 564.82 36.14L514.86 75.36Z" fill="black"/>
</g>
<g clip-path="url(#clip1_2874_52)">
<path d="M34.32 77.94L1.44 44.07C0.52 43.12 0 41.85 0 40.52V12.32C0 9.50998 2.28 7.22998 5.09 7.22998H35C36.52 7.22998 37.95 7.90998 38.92 9.06998L58.76 33.01C80.42 59.56 86.33 70.14 118.03 70.14H151.58L183.47 103.99C184.36 104.93 184.86 106.18 184.86 107.48V135.77C184.86 138.58 182.58 140.86 179.77 140.86H150.62C149.24 140.86 147.92 140.3 146.96 139.31C141.97 134.15 125.94 117.58 121.15 112.78C115.44 107.07 95.01 77.94 65.22 77.94H34.31H34.32Z" fill="black"/>
<path d="M69.33 111.31L37.44 77.4199H5.09C2.28 77.4199 0 79.6999 0 82.5099V110.71C0 112.03 0.52 113.31 1.44 114.26L32.82 146.59C33.78 147.58 35.1 148.13 36.47 148.13H65.62C68.43 148.13 70.71 145.85 70.71 143.04V114.79C70.71 113.49 70.22 112.25 69.33 111.3V111.31Z" fill="black"/>
<path d="M183.18 33.89L152.8 1.6C151.84 0.58 150.5 0 149.09 0H118.94C116.13 0 113.85 2.28 113.85 5.09V33.29C113.85 34.61 114.37 35.89 115.29 36.84L148.17 70.72H179.48C182.29 70.72 184.57 68.44 184.57 65.63V37.38C184.57 36.08 184.08 34.84 183.19 33.89H183.18Z" fill="black"/>
</g>
<g clip-path="url(#clip2_2874_52)">
<path d="M450.55 32H396.14C394.02 32 392.01 32.91 390.62 34.5L379.83 46.79C378.65 48.13 378 49.85 378 51.64V98.24C378 100.02 378.65 101.75 379.83 103.09L390.62 115.38C392.02 116.97 394.03 117.88 396.14 117.88H450.55C452.67 117.88 454.68 116.97 456.07 115.38L466.86 103.09C468.04 101.75 468.69 100.03 468.69 98.24V51.64C468.69 49.86 468.04 48.13 466.86 46.79L456.07 34.5C454.67 32.91 452.66 32 450.55 32ZM452.84 101.96H393.84V47.92H452.84V101.95V101.96Z" fill="black"/>
</g>
<defs>
<clipPath id="clip0_2874_52">
<rect width="384.13" height="85.88" fill="white" transform="translate(278 32)"/>
</clipPath>
<clipPath id="clip1_2874_52">
<rect width="184.86" height="148.13" fill="white"/>
</clipPath>
<clipPath id="clip2_2874_52">
<rect width="90.68" height="85.88" fill="white" transform="translate(378 32)"/>
</clipPath>
</defs>
</svg>
