<svg width="1011" height="300" viewBox="0 0 1011 300" fill="none" xmlns="http://www.w3.org/2000/svg">
<path d="M139.351 7.98251e-05C132.402 -0.0127538 125.537 1.52204 119.255 4.49302C112.973 7.464 107.432 11.7966 103.033 17.1763L10.8809 129.126C5.15412 135.982 1.50942 144.335 0.377333 153.196C-0.754757 162.058 0.673069 171.058 4.49214 179.135C8.3112 187.211 14.3619 194.025 21.9296 198.773C29.4973 203.52 38.2656 206.003 47.1989 205.927H83.1893V252.729C83.0917 262.455 86.0267 271.969 91.5864 279.95C97.1461 287.931 105.054 293.982 114.211 297.261C123.369 300.539 133.32 300.884 142.682 298.246C152.044 295.608 160.351 290.119 166.449 282.541L258.461 170.405C264.188 163.548 267.833 155.196 268.965 146.334C270.097 137.472 268.669 128.472 264.85 120.396C261.031 112.32 254.98 105.505 247.413 100.758C239.845 96.0099 231.077 93.5274 222.143 93.6032H186.153V46.8017C186.153 34.3891 181.222 22.4849 172.445 13.7079C163.668 4.93095 151.764 7.98251e-05 139.351 7.98251e-05ZM222.143 131.044C223.979 130.973 225.795 131.443 227.365 132.397C228.935 133.35 230.19 134.745 230.973 136.406C231.756 138.068 232.034 139.923 231.77 141.741C231.507 143.559 230.714 145.259 229.491 146.629L137.526 258.626C136.185 260.314 134.302 261.487 132.196 261.948C130.09 262.408 127.889 262.127 125.966 261.153C124.325 260.316 122.954 259.033 122.01 257.452C121.066 255.871 120.588 254.055 120.631 252.214V181.075C120.631 177.736 119.304 174.534 116.943 172.173C114.582 169.812 111.38 168.486 108.041 168.486H47.1989C45.3634 168.557 43.5475 168.087 41.9773 167.133C40.4072 166.18 39.1523 164.786 38.369 163.124C37.5856 161.463 37.3084 159.607 37.572 157.79C37.8355 155.972 38.6281 154.271 39.8511 152.901L131.816 40.9047C133.002 39.2913 134.674 38.1008 136.587 37.5081C138.5 36.9153 140.552 36.9515 142.442 37.6114C144.333 38.2712 145.962 39.52 147.09 41.1741C148.219 42.8283 148.787 44.8007 148.712 46.8017V118.455C148.712 121.794 150.038 124.996 152.399 127.357C154.76 129.718 157.962 131.044 161.301 131.044H222.143Z" fill="#D3D6DB"/>
<path d="M452.773 20.2006H499.839V212.229H452.773V138.179H383.743V212.229H336.678V20.2006H383.743V94.5646H452.773V20.2006ZM643.861 133.786V55.3431H690.926V204.071C690.926 253.961 655.156 284.397 607.777 284.397C591.147 284.397 574.517 282.828 558.515 277.494V229.173C572.007 236.39 590.206 238.9 605.267 238.9C622.21 238.9 635.703 233.879 641.978 217.563C643.233 213.171 643.861 208.464 643.861 203.757V196.541C633.192 208.464 619.386 213.798 603.698 213.798C559.142 213.798 530.903 175.518 530.903 133.786V55.3431H577.968V133.786C577.968 155.123 586.44 170.184 609.346 170.184C631.623 170.184 643.861 155.436 643.861 133.786ZM769.369 133.786C769.369 157.005 780.979 170.184 804.512 170.184C811.101 170.184 817.063 169.242 821.769 167.046C830.555 163.595 836.517 157.005 839.654 147.906C840.91 143.513 841.537 138.807 841.537 133.786C841.537 128.766 840.91 124.059 839.654 119.666C836.203 109.939 830.869 104.605 821.769 100.213C817.063 98.3299 811.101 97.3886 804.512 97.3886C780.979 97.3886 769.369 110.567 769.369 133.786ZM769.369 196.541V274.984H722.304V133.786C722.304 83.5826 757.76 53.7742 805.14 53.7742C853.46 53.7742 888.603 85.4652 888.603 133.472C888.603 178.028 855.029 213.798 810.474 213.798C801.374 213.798 793.53 212.229 786.941 209.091C780.038 206.268 774.076 201.875 769.369 196.541ZM957.633 133.786V212.229H910.567V134.1C910.567 82.0138 948.847 53.7742 997.168 53.7742C998.737 53.7742 1000.93 53.7742 1003.13 54.088C1005.33 54.4018 1007.84 55.0293 1010.03 55.3431V100.84C1008.46 100.526 1006.58 100.213 1004.38 99.8988C1002.19 99.585 1000.31 99.2712 998.737 99.2712C990.893 99.2712 984.617 100.213 979.283 101.781C970.497 104.919 962.653 110.881 959.829 120.294C958.26 124.373 957.633 129.08 957.633 133.786Z" fill="black"/>
</svg>
