<svg width="30px" height="30px" xmlns="http://www.w3.org/2000/svg" viewBox="0 0 100.16 101.42"><defs><linearGradient id="a6230f12c-51ad-4222-a262-5548eb9c0716" x1="85.6" y1="83.03" x2="28.38" y2="19.83" gradientUnits="userSpaceOnUse"><stop offset="0" stop-color="#0035d4"/><stop offset="1" stop-color="#0086ff"/></linearGradient><linearGradient id="b96899fa7-1f88-4c71-ad8a-c0dd973f0219" x1="50.48" y1="9.61" x2="61.59" y2="92.36" gradientUnits="userSpaceOnUse"><stop offset="0" stop-color="#a90908"/><stop offset=".52" stop-color="#eb0977"/><stop offset="1" stop-color="#8d003a"/></linearGradient><linearGradient id="c3f9e6219-5535-44a5-9d18-dbe33f3e4e29" x1="89.79" y1="10.89" x2="55.71" y2="34.02" gradientUnits="userSpaceOnUse"><stop offset="0" stop-color="#ffcf1e"/><stop offset=".99" stop-color="#ff9000"/></linearGradient><linearGradient id="d72d3e64f-9e63-4ef8-a877-76265baa6fbf" x1="98.9" y1="24.31" x2="64.81" y2="47.43" gradientUnits="userSpaceOnUse"><stop offset="0" stop-color="#ffcf1e"/><stop offset=".99" stop-color="#ff9000"/></linearGradient><linearGradient id="e1f9c7941-33a2-4890-ba69-b873959fd9c8" x1=".95" y1="52.43" x2="99.82" y2="52.43" gradientUnits="userSpaceOnUse"><stop offset="0" stop-color="#ffcf1e"/><stop offset="1" stop-color="#ffff1e"/></linearGradient><linearGradient id="f85118488-5d18-4cb3-9cb5-c73a69faf8dc" x1="54.93" y1="480.58" x2="153.8" y2="480.58" gradientTransform="rotate(65.66 407.613 220.537)" gradientUnits="userSpaceOnUse"><stop offset="0" stop-color="#00e8fe"/><stop offset="1" stop-color="#0088fa"/></linearGradient><linearGradient id="g6f36db62-e771-4696-a98d-0944119347ab" x1="34.2" y1="105" x2="43.91" y2="-5.46" gradientUnits="userSpaceOnUse"><stop offset="0" stop-color="#ff0981"/><stop offset="1" stop-color="#ff62a7"/></linearGradient></defs><g><g><path d="M60.78 10.43C43 1.72 26.61 1.91 18.24 9.61a50.87 50.87 0 0 0-13.4 20.25 53.39 53.39 0 0 0-2.44 9.89C2.25 41.2 2.1 43 2 44.66c0-.35.06-.7.11-1 2.21-15.49 21.36-19.53 42.78-9s37 31.56 34.79 47.05c-1 7.05-5.52 11.73-12.17 13.75 1.62-.56 3.79-1.33 5.38-2a55.83 55.83 0 0 0 10.28-6 51.92 51.92 0 0 0 10.1-10.23 50.64 50.64 0 0 0 4.88-8 19.46 19.46 0 0 0 1.77-5.88c2.48-17.41-15.04-41.11-39.14-52.92z" fill="url(#a6230f12c-51ad-4222-a262-5548eb9c0716)"/><path d="M92.39 38.95C90.72 19.22 82.13 5.26 71.22 2A50.91 50.91 0 0 0 47 1a53.21 53.21 0 0 0-9.73 3c-1.33.62-3 1.41-4.43 2.18.31-.15.63-.31.95-.44C48.16-.38 61.48 14 63.5 37.74s-8 48-22.45 54c-6.57 2.77-12.9 1.3-18-3.37 1.32 1.1 3.09 2.56 4.47 3.59a55.88 55.88 0 0 0 10.43 5.73 51.91 51.91 0 0 0 13.93 3.44 50.51 50.51 0 0 0 9.36.08 19.46 19.46 0 0 0 6-1.51c16.11-6.8 27.42-34.01 25.15-60.75z" fill="url(#b96899fa7-1f88-4c71-ad8a-c0dd973f0219)"/><path d="M91.9 33.94A41.9 41.9 0 0 0 87 13a33.43 33.43 0 0 0-3.4-5C68.74-1.49 39.93 4.71 19.23 21.8 4 34.41-2.62 49.42.95 60.22a50.86 50.86 0 0 0 12.93 20.55 53.48 53.48 0 0 0 8 6.3c1.76 1 4.15 2.35 6 3.26a21.53 21.53 0 0 1-2.57-1.39c-13.2-8.39-9-27.51 9.41-42.7s43.98-20.7 57.18-12.3z" fill="url(#c3f9e6219-5535-44a5-9d18-dbe33f3e4e29)"/><path d="M87 13a41.9 41.9 0 0 1 4.9 20.94c6 3.82 8.41 9.87 7.51 16.75.15-1.71.35-4 .41-5.72a55.8 55.8 0 0 0-1.23-11.84 51.91 51.91 0 0 0-5.1-13.41A50.65 50.65 0 0 0 88.22 12a19.49 19.49 0 0 0-4.63-4A33.43 33.43 0 0 1 87 13z" fill="url(#d72d3e64f-9e63-4ef8-a877-76265baa6fbf)"/><path d="M93.48 19.73a52.1 52.1 0 0 1 5.1 13.41A57.11 57.11 0 0 1 99.82 45c-.09 1.72-.22 4-.41 5.72-1.08 8.24-6.9 17.68-16.91 25.95-17.26 14.26-40.89 20-54.64 13.69-1.82-.92-4.22-2.22-6-3.26a53.18 53.18 0 0 1-8-6.3 51.22 51.22 0 0 1-9.14-11.98 50.68 50.68 0 0 1-3.77-8.6 18 18 0 0 0 7.71 9.62C23.5 79.28 52.32 73.08 73 56c18.14-15 24-33.33 15.22-44a51.75 51.75 0 0 1 5.26 7.73z" fill="url(#e1f9c7941-33a2-4890-ba69-b873959fd9c8)"/><path d="M93.27 77.23a52.05 52.05 0 0 1-10.11 10.18 57.16 57.16 0 0 1-10.28 6c-1.6.63-3.74 1.45-5.38 2-8 2.41-18.94 1-30.61-4.71-20.11-9.85-35.07-29-35-44.14.09-2 .28-4.76.51-6.79a53.17 53.17 0 0 1 2.44-9.89A51.18 51.18 0 0 1 12 16.59a50.59 50.59 0 0 1 6.29-7 18 18 0 0 0-5.59 11C10.17 38 27.7 61.71 51.8 73.52c21.11 10.34 40.26 8.14 46.36-4.28a51.73 51.73 0 0 1-4.89 7.99z" fill="url(#f85118488-5d18-4cb3-9cb5-c73a69faf8dc)"/><path d="M51.82 101.17a52.05 52.05 0 0 1-13.93-3.44A57.17 57.17 0 0 1 27.46 92c-1.36-1-3.17-2.46-4.47-3.59-6.15-5.58-10.6-15.73-11.7-28.68C9.4 37.42 18.14 14.74 31.14 7c1.8-1 4.22-2.21 6.08-3.06A53.05 53.05 0 0 1 47 1a51.14 51.14 0 0 1 15-.76A50.5 50.5 0 0 1 71.22 2a18 18 0 0 0-12.3.86C42.71 9.73 31.4 36.95 33.67 63.69c2 23.42 13.73 38.71 27.51 37.55a51.59 51.59 0 0 1-9.36-.07z" fill="url(#g6f36db62-e771-4696-a98d-0944119347ab)"/></g></g></svg>