<svg id="Layer_1" data-name="Layer 1" xmlns="http://www.w3.org/2000/svg" viewBox="0 0 381 106"><defs><style>.cls-1{fill:#fff;}.cls-2{isolation:isolate;}</style></defs><title>kovan-logo</title><path class="cls-1" d="M79.1,73.88c2.538,2.366,4.741,4.328,6.816,6.417a6.907,6.907,0,0,1,.98,2.227,7.194,7.194,0,0,1-2.106.7q-18.507.064-37.016-.009a7.229,7.229,0,0,1-2.293-.863,8.692,8.692,0,0,1,1.19-2.2c2.072-2.066,4.253-4.022,6.188-5.828C49.6,73.087,46.27,72.183,43.3,70.6c-3.825-2.038-5.73-5.418-5.674-9.965.123-10.067.217-20.141-.034-30.2-.143-5.738,2.48-9.479,7.336-11.692a21.9,21.9,0,0,1,8.218-2.008c8.778-.25,17.582-.377,26.346.055a25.242,25.242,0,0,1,9.96,3.127c3.72,1.935,5.442,5.407,5.38,9.821-.137,9.771-.046,19.545-.047,29.317,0,7.78-3.538,12.229-11.185,14.013C82.268,73.379,80.9,73.559,79.1,73.88ZM89.679,44.987v-18.5H68.823v18.5Zm-26.086,0V26.479H44.021V44.992Zm-9.358,14.54a5.8,5.8,0,0,0-11.594-.261,6.09,6.09,0,0,0,5.815,5.921A6.112,6.112,0,0,0,54.235,59.527ZM84,65.187a6.115,6.115,0,0,0,5.817-5.623,5.8,5.8,0,0,0-11.592-.441c0,.134,0,.267,0,.4A6.109,6.109,0,0,0,84,65.187Z"/><g class="cls-2"><g class="cls-2"><path class="cls-1" d="M138.5,54.162l-.062.063-4.865,4.183V72.294H131.9V24.687h1.674V56.58l3.936-3.72,15.249-14.1h2.387l-15.4,14.289L156.1,72.294h-2.169Z"/></g><g class="cls-2"><path class="cls-1" d="M175.641,54.875a19.635,19.635,0,0,1,1.844-8.632,14.179,14.179,0,0,1,5.207-5.966,13.882,13.882,0,0,1,7.609-2.138A13.8,13.8,0,0,1,203.086,46.1a19.5,19.5,0,0,1,1.906,8.585v1.488a19.749,19.749,0,0,1-1.829,8.647,14.1,14.1,0,0,1-5.191,5.951,13.879,13.879,0,0,1-7.609,2.139A13.876,13.876,0,0,1,177.531,64.9a19.447,19.447,0,0,1-1.89-8.538Zm1.673,1.3a17.624,17.624,0,0,0,1.659,7.671,13.059,13.059,0,0,0,4.617,5.439,12.017,12.017,0,0,0,6.773,1.953,11.623,11.623,0,0,0,9.344-4.308q3.611-4.306,3.611-11.1v-.961a17.462,17.462,0,0,0-1.673-7.624,13.29,13.29,0,0,0-4.634-5.471,11.853,11.853,0,0,0-6.71-1.968,11.605,11.605,0,0,0-9.361,4.371,16.653,16.653,0,0,0-3.626,11Z"/><path class="cls-1" d="M238.245,69.629,250.3,38.758h1.8L239.052,72.294h-1.644L224.391,38.758h1.8Z"/></g><g class="cls-2"><path class="cls-1" d="M296.659,72.294a23.251,23.251,0,0,1-.62-6.137,13.447,13.447,0,0,1-5.424,4.99,16.783,16.783,0,0,1-7.78,1.767,10.831,10.831,0,0,1-7.484-2.526,8.4,8.4,0,0,1-2.836-6.586,8.5,8.5,0,0,1,4.168-7.393q4.168-2.772,11.081-2.836h8.275v-4.9a8.24,8.24,0,0,0-2.65-6.54q-2.65-2.325-7.578-2.325a12.206,12.206,0,0,0-7.656,2.356,7.1,7.1,0,0,0-3.068,5.826l-1.674-.061a8.583,8.583,0,0,1,3.6-6.943,13.721,13.721,0,0,1,8.8-2.851q5.424,0,8.616,2.712a9.738,9.738,0,0,1,3.286,7.639V64.515q0,5.515.867,7.5v.279ZM282.835,71.24a15.055,15.055,0,0,0,8.105-2.107,13.059,13.059,0,0,0,5.1-5.92V55.247H288.29q-7.191,0-11,2.852a7,7,0,0,0-3.1,5.8,6.663,6.663,0,0,0,2.449,5.207A9.082,9.082,0,0,0,282.835,71.24Z"/><path class="cls-1" d="M326.422,46.568a14.024,14.024,0,0,1,4.835-6.167,11.946,11.946,0,0,1,7.066-2.262q5.394,0,8.013,3.052t2.649,9.221V72.294h-1.673V50.371q-.032-5.388-2.2-7.974t-6.881-2.585a10.428,10.428,0,0,0-7.515,3.082,15.636,15.636,0,0,0-4.293,7.941V72.294h-1.674V38.758h1.674Z"/></g></g></svg>