<svg id="Layer_1" data-name="Layer 1" xmlns="http://www.w3.org/2000/svg" viewBox="0 0 381 106"><defs><style>.cls-1,.cls-2{fill:#fff;}.cls-2{font-size:63.476px;font-family:Roboto-Thin, Roboto;letter-spacing:0.256em;}.cls-3{letter-spacing:0.249em;}.cls-4{letter-spacing:0.256em;}</style></defs><title>testnet-logo</title><path class="cls-1" d="M79.1,73.88c2.538,2.366,4.741,4.328,6.816,6.417a6.911,6.911,0,0,1,.98,2.227,7.193,7.193,0,0,1-2.106.7q-18.507.065-37.016-.009a7.225,7.225,0,0,1-2.293-.863,8.7,8.7,0,0,1,1.19-2.2c2.072-2.066,4.253-4.022,6.188-5.828C49.6,73.087,46.27,72.183,43.3,70.6c-3.825-2.038-5.73-5.418-5.674-9.965.123-10.067.217-20.141-.034-30.2-.143-5.738,2.48-9.479,7.336-11.692a21.906,21.906,0,0,1,8.218-2.008c8.778-.25,17.582-.377,26.346.055a25.232,25.232,0,0,1,9.96,3.127c3.72,1.935,5.442,5.407,5.38,9.821-.137,9.771-.046,19.545-.047,29.317,0,7.78-3.538,12.229-11.185,14.013C82.268,73.379,80.9,73.559,79.1,73.88ZM89.679,44.987v-18.5H68.823v18.5Zm-26.086,0V26.479H44.021V44.992ZM54.235,59.527a5.8,5.8,0,0,0-11.594-.261,6.09,6.09,0,0,0,5.815,5.921A6.112,6.112,0,0,0,54.235,59.527ZM84,65.187a6.115,6.115,0,0,0,5.817-5.623,5.8,5.8,0,1,0-11.593-.04A6.109,6.109,0,0,0,84,65.187Z"/><text class="cls-2" transform="translate(126.568 72.294)">k<tspan class="cls-3" x="46.283" y="0">ov</tspan><tspan class="cls-4" x="143.095" y="0">an</tspan></text></svg>