<svg width="25" height="26" viewBox="0 0 25 26" fill="none" xmlns="http://www.w3.org/2000/svg">
<path d="M12.0427 6.1828L12.0516 12.6854L23.8478 6.3492L12.0646 0L12.0427 6.1828Z" fill="#092747"/>
<path opacity="0.68" d="M12.0645 0L0.224121 6.4064L12.0515 12.6854L23.8477 6.3492L12.0645 0Z" fill="#1B73D1"/>
<path opacity="0.68" d="M5.86456 16.5386L0 19.6643L11.7291 25.9943L11.6943 13.3526L5.86456 16.5386Z" fill="#1B73D1"/>
<path opacity="0.6" d="M11.6943 13.3525L11.7291 25.9943L0 19.6643V7.01947L11.6943 13.3525Z" fill="#429DFF"/>
<path opacity="0.46" d="M18.2723 16.4887L24.1368 19.6331L12.4077 26L12.4426 13.2839L18.2723 16.4887Z" fill="#429DFF"/>
<path opacity="0.46" d="M12.441 13.2839L12.4061 26L24.1352 19.6331V6.91393L12.441 13.2839Z" fill="#71B5FF"/>
</svg>
