<svg enable-background="new 0 0 34 68" viewBox="0 0 34 68" xmlns="http://www.w3.org/2000/svg"><path d="m29.7 44.2c0 .1.1.2.1.3v12.8h2.9c.5 0 1 .4 1 1v7.9c0 .5-.4 1-1 1h-31.5c-.5 0-1-.4-1-1v-7.9c0-.5.4-1 1-1h2.9v-12.7c0-.1 0-.2.1-.3.5-4.7 3.6-8.7 7.8-10.5-4.3-1.8-7.2-5.8-7.7-10.5-.1-.1-.1-.3-.1-.4v-12.7h-3c-.5 0-1-.4-1-1v-7.9c0-.5.4-1 1-1h31.4c.5 0 1 .4 1 1v7.9c0 .5-.4 1-1 1h-2.9v12.8c0 .1 0 .3-.1.4-.5 4.6-3.5 8.6-7.8 10.4 4.3 1.7 7.4 5.7 7.9 10.4zm-27.4-38.2h29.5v-1.5h-29.5zm0 57.3h29.5v-1.5h-29.5zm23.3-41.4v-9.4h-17.3v9.4c0 4.8 3.9 8.6 8.6 8.6s8.7-3.9 8.7-8.6zm.5 23.7c0-5-4.1-9.1-9.1-9.1s-9.1 4.1-9.1 9.1v9.9h18.2zm-4.1 8.2c-1.1 0-2.1-.9-2.1-2.1s.9-2.1 2.1-2.1 2.1.9 2.1 2.1-.9 2.1-2.1 2.1zm-5.1-9.3c-1.1 0-2.1-.9-2.1-2.1 0-1.1.9-2.1 2.1-2.1s2.1.9 2.1 2.1-.9 2.1-2.1 2.1zm-5.3 9.3c-1.1 0-2.1-.9-2.1-2.1s.9-2.1 2.1-2.1 2.1.9 2.1 2.1-.9 2.1-2.1 2.1zm5.5 0c-1.1 0-2.1-.9-2.1-2.1s.9-2.1 2.1-2.1 2.1.9 2.1 2.1-1 2.1-2.1 2.1zm-1.7-25.9c0-1 .8-1.8 1.8-1.8s1.8.8 1.8 1.8-.8 1.8-1.8 1.8-1.8-.8-1.8-1.8zm5.3-5.8c1 0 1.8.8 1.8 1.8s-.8 1.8-1.8 1.8-1.8-.8-1.8-1.8.8-1.8 1.8-1.8zm-7 3.5c-1 0-1.8-.8-1.8-1.8s.8-1.8 1.8-1.8 1.8.8 1.8 1.8-.9 1.8-1.8 1.8z" fill="#bac4cb"/></svg>