<?xml version="1.0" encoding="utf-8"?>
<!-- Generator: Adobe Illustrator 26.3.1, SVG Export Plug-In . SVG Version: 6.00 Build 0)  -->
<svg version="1.1" id="Layer_1" xmlns="http://www.w3.org/2000/svg" xmlns:xlink="http://www.w3.org/1999/xlink" x="0px" y="0px"
	 viewBox="0 0 1080 1080" style="enable-background:new 0 0 1080 1080;" xml:space="preserve">
<style type="text/css">
	.st0{fill:#FFFFFF;}
	.st1{fill:url(#SVGID_1_);}
	.st2{fill:url(#SVGID_00000039101795639270888420000015850182928430106789_);}
	.st3{fill:url(#SVGID_00000129200513420123203910000015933813424482124945_);}
	.st4{fill:url(#SVGID_00000121247085652226105640000001920920348497241526_);}
	.st5{fill:url(#SVGID_00000006673137896039592120000006390879198890788006_);}
	.st6{fill:url(#SVGID_00000149353765152913886770000008876010063674057894_);}
	.st7{fill:url(#SVGID_00000173843272563470661810000003822554296150390200_);}
	.st8{fill:url(#SVGID_00000138569750314942956690000016434268680126366620_);}
	.st9{fill:url(#SVGID_00000010286738263654094520000012310541178831323049_);}
</style>
<g>
	<g>
		<path class="st0" d="M568.5,484.91h39.02c21.69,0,29.93,13.69,29.93,27.75c0,14.06-8.24,27.75-29.93,27.75h-19.99v31.02H568.5
			V484.91z M587.52,525.63h14.78c8.72,0,16.72-1.94,16.72-12.97c0-11.03-8-12.97-16.72-12.97h-14.78V525.63z"/>
		<path class="st0" d="M646.29,570.83v-86.28h18.66v70.29h44.35v16H646.29z"/>
		<path class="st0" d="M710.52,571.44l39.26-86.4h19.15l38.66,86.4h-18.42l-8.48-19.15h-43.75l-9.09,19.15H710.52z M759.6,501.27
			l-14.54,33.45h28.72l-14.06-33.45H759.6z"/>
		<path class="st0" d="M830.24,511.7v59.87h-16.6v-86.89h21.81l38.66,54.05v-54.05h16.12v86.89h-16.12L830.24,511.7z"/>
		<path class="st0" d="M920.16,536.9v18.42h48.84v16h-67.26v-86.77h63.14v16h-44.72v19.51h39.51v16.84H920.16z"/>
		<path class="st0" d="M1003.17,500.91h-27.51v-15.88h73.8v16h-27.27v70.41h-19.03V500.91z"/>
		<path class="st0" d="M595.33,682.31c-18.71,0-33.84-15.13-33.84-33.84c0-18.8,15.13-33.93,33.84-33.93
			c18.62,0,33.93,15.13,33.93,33.93C629.26,667.18,613.95,682.31,595.33,682.31z M575.34,648.47c0,10.91,9.08,19.99,19.99,19.99
			c10.91,0,19.81-9.08,19.81-19.99c0-10.91-8.9-20.08-19.81-20.08C584.42,628.38,575.34,637.56,575.34,648.47z"/>
		<path class="st0" d="M648.89,669.29v12.2h-13.94v-65.75h47.78v12.11h-33.84v14.76h29.9v12.75h-29.9V669.29z"/>
		<path class="st0" d="M718.49,616h18.71l15.13,28.89L767.18,616h18.98v65.48h-13.48v-46.31h-0.18l-14.58,29.8h-11.1l-14.49-29.35
			h-0.18v45.85h-13.66V616z"/>
		<path class="st0" d="M811.47,655.35v13.94h36.96v12.11h-50.9v-65.66h47.78v12.11h-33.84v14.76h29.9v12.75H811.47z"/>
		<path class="st0" d="M859.25,616h18.71l15.13,28.89L907.95,616h18.98v65.48h-13.48v-46.31h-0.18l-14.58,29.8h-11.1l-14.49-29.35
			h-0.18v45.85h-13.66V616z"/>
		<path class="st0" d="M952.24,655.35v13.94h36.96v12.11h-50.9v-65.66h47.78v12.11h-33.84v14.76h29.9v12.75H952.24z"/>
		<path class="st0" d="M1008.27,662.04c1.47,8.62,9.17,9.81,14.49,9.81c5.04,0,12.75-1.47,12.75-8.16
			c0-13.94-38.98-4.95-38.98-29.44c0-13.48,12.66-19.81,24.49-19.81c13.66,0,26.23,5.96,26.23,21.09l-13.94-2.02
			c-1.74-7.61-8.44-7.89-12.93-7.89c-4.59,0-9.9,1.93-9.9,7.43c0,4.86,3.12,5.96,19.53,9.9c4.86,1.19,19.44,4.22,19.44,19.08
			c0,12.01-9.35,21-27.24,21c-14.67,0-27.88-7.15-27.88-23.29L1008.27,662.04z"/>
	</g>
	<g>
		<g>
			<linearGradient id="SVGID_1_" gradientUnits="userSpaceOnUse" x1="157.5934" y1="251.0555" x2="532.2941" y2="594.9265">
				<stop  offset="0" style="stop-color:#F8EB13"/>
				<stop  offset="0.5" style="stop-color:#FD9317"/>
				<stop  offset="1" style="stop-color:#F72DE1"/>
			</linearGradient>
			<path class="st1" d="M445.27,577.72c0.02-1.43,0.04-2.85,0.04-4.26v-0.11c0-3.28-0.09-6.54-0.27-9.8c-0.09-2.01-0.23-3.99-0.39-6
				c-0.21-2.63-0.48-5.27-0.82-7.9c17.73-14.65,26.76-28.93,24.41-39.8c-2.6-12.07-19.49-22.01-45.71-27.92
				c-4.96-1.13-10.26-2.1-15.85-2.92c-2.9-4.46-6.02-8.78-9.31-12.91c-3.47-4.39-7.16-8.6-11.05-12.61
				c6.68,0.43,13.07,1.04,19.16,1.81c49.83,6.27,79.9,23.57,85.52,49.67C495.99,528.27,479.85,553.72,445.27,577.72z"/>
		</g>
		<g>
			
				<linearGradient id="SVGID_00000018934220693958487360000005628220116406100642_" gradientUnits="userSpaceOnUse" x1="14.0574" y1="407.4603" x2="388.7581" y2="751.3312">
				<stop  offset="0" style="stop-color:#F8EB13"/>
				<stop  offset="0.5" style="stop-color:#FD9317"/>
				<stop  offset="1" style="stop-color:#F72DE1"/>
			</linearGradient>
			<path style="fill:url(#SVGID_00000018934220693958487360000005628220116406100642_);" d="M137.94,498.59l-32.42,15.37
				c1.38-0.73,2.76-1.45,4.17-2.19C118.63,507.17,128.05,502.78,137.94,498.59z"/>
			
				<linearGradient id="SVGID_00000145048805485038967640000008088954334451068822_" gradientUnits="userSpaceOnUse" x1="-11.9883" y1="435.8411" x2="362.7124" y2="779.712">
				<stop  offset="0" style="stop-color:#F8EB13"/>
				<stop  offset="0.5" style="stop-color:#FD9317"/>
				<stop  offset="1" style="stop-color:#F72DE1"/>
			</linearGradient>
			<path style="fill:url(#SVGID_00000145048805485038967640000008088954334451068822_);" d="M187.68,480.47v24.45
				c-0.95,0.3-1.9,0.61-2.85,0.93c-21.94,7.24-42.13,15.46-60.16,24.45c-1.45,0.72-2.88,1.45-4.3,2.19
				c-8.29,4.28-15.92,8.67-22.85,13.11c-29.86,19.13-46.39,39.03-43.31,53.39c2.76,12.77,21.78,23.37,51.12,29.1
				c1.27,3.56,2.65,7.09,4.15,10.55c0.32,0.73,0.64,1.47,0.97,2.2c1.24,2.76,2.54,5.48,3.94,8.17c0.79,1.5,1.58,3.01,2.42,4.5
				c-49.58-6.34-79.79-23.86-85.34-49.61c-6.3-29.28,19.97-61.13,74.06-89.91v-0.02l32.42-15.37l0.02-0.02
				c0.13-0.04,0.23-0.09,0.36-0.14v-0.02C153.7,491.89,170.21,485.89,187.68,480.47z"/>
		</g>
		
			<linearGradient id="SVGID_00000105420816151962575260000001358195490152609925_" gradientUnits="userSpaceOnUse" x1="25.4346" y1="395.063" x2="400.1353" y2="738.9339">
			<stop  offset="0" style="stop-color:#F8EB13"/>
			<stop  offset="0.5" style="stop-color:#FD9317"/>
			<stop  offset="1" style="stop-color:#F72DE1"/>
		</linearGradient>
		<path style="fill:url(#SVGID_00000105420816151962575260000001358195490152609925_);" d="M138.32,498.41v0.02
			c-0.13,0.05-0.23,0.11-0.36,0.14L138.32,498.41z"/>
		<g>
			
				<linearGradient id="SVGID_00000024699047626259914090000007041751264415606937_" gradientUnits="userSpaceOnUse" x1="59.8616" y1="357.5494" x2="434.5623" y2="701.4203">
				<stop  offset="0" style="stop-color:#F8EB13"/>
				<stop  offset="0.5" style="stop-color:#FD9317"/>
				<stop  offset="1" style="stop-color:#F72DE1"/>
			</linearGradient>
			<path style="fill:url(#SVGID_00000024699047626259914090000007041751264415606937_);" d="M138.32,484.6
				c4.32-1.83,8.72-3.62,13.22-5.36c16.32-20.08,37.76-35.55,62.06-44.65v-14.88c0-3.44,0.34-6.81,0.99-10.05
				c-43.07,13.36-79.33,43.63-100.21,84.02c-0.43,0.84-0.88,1.7-1.31,2.56c8.04-4.03,16.46-7.9,25.25-11.62V484.6z"/>
			
				<linearGradient id="SVGID_00000066514932000314534780000004216579993540623755_" gradientUnits="userSpaceOnUse" x1="47.0619" y1="371.4968" x2="421.7626" y2="715.3677">
				<stop  offset="0" style="stop-color:#F8EB13"/>
				<stop  offset="0.5" style="stop-color:#FD9317"/>
				<stop  offset="1" style="stop-color:#F72DE1"/>
			</linearGradient>
			<path style="fill:url(#SVGID_00000066514932000314534780000004216579993540623755_);" d="M433.48,557.55
				c-1.83-22.3-8.04-44.13-18.27-63.87c-2.61-5.05-5.46-9.94-8.54-14.67c-2.9-4.46-6.02-8.78-9.31-12.91
				c-3.47-4.39-7.16-8.6-11.05-12.61c-19.59-20.2-44.08-35.39-71.28-43.83c0.64,3.24,0.98,6.61,0.98,10.05
				c0,4.91-0.7,9.67-2.01,14.17c25.43,9.08,47.79,25.09,64.62,46.07c5.8,7.2,10.93,14.99,15.3,23.28c0.22,0.38,0.43,0.77,0.63,1.16
				c1.13,2.17,2.19,4.37,3.17,6.57c0.02,0.02,0.02,0.05,0.04,0.07c3.28,7.13,5.91,14.44,7.95,21.92v0.02
				c1.84,6.73,3.17,13.58,4.01,20.56c0.7,5.86,1.06,11.8,1.06,17.8c0,1.83-0.04,3.65-0.11,5.48c-0.63,17.52-4.32,34.42-11.01,50.42
				c-1.54,3.74-3.26,7.43-5.14,11.07c-2.15,4.19-4.53,8.26-7.09,12.22c-9.73,15.04-22.23,28.28-36.75,38.85
				c-6.21-1.02-12.07-3.17-17.32-6.23c-6.81-3.98-12.61-9.46-16.94-15.99c-5.39-8.11-8.53-17.82-8.53-28.26h-23.28
				c0,15.87-7.45,30.79-19.79,40.41c-12.34-9.62-19.76-24.56-19.76-40.41h-23.28c0,25.38-18.56,46.5-42.82,50.49
				c-18.36-13.36-33.48-30.93-43.86-51.06c-1.67-3.21-3.21-6.47-4.58-9.76c-0.34-0.79-0.68-1.58-1-2.38
				c-0.18-0.45-0.36-0.91-0.54-1.36c-0.11-0.25-0.2-0.5-0.29-0.73c-0.27-0.64-0.5-1.27-0.73-1.9c-0.11-0.3-0.21-0.59-0.32-0.9
				c-0.73-1.99-1.42-3.99-2.06-6c-0.32-1-0.63-2.02-0.91-3.03c-0.23-0.75-0.45-1.52-0.64-2.29c-0.05-0.14-0.09-0.27-0.13-0.41
				c-0.07-0.25-0.13-0.5-0.2-0.73c-0.2-0.75-0.39-1.5-0.57-2.24c-0.05-0.23-0.11-0.47-0.16-0.68c-0.25-0.95-0.47-1.9-0.66-2.85
				c-0.25-1.07-0.47-2.15-0.68-3.22c-0.05-0.27-0.11-0.52-0.14-0.77c-0.2-0.9-0.36-1.81-0.5-2.72c-0.41-2.35-0.75-4.71-1.04-7.07
				c-0.11-0.88-0.2-1.77-0.29-2.65c-0.04-0.38-0.07-0.73-0.11-1.11c-0.11-0.88-0.18-1.76-0.23-2.63c-0.04-0.3-0.05-0.59-0.07-0.9
				c-0.05-0.7-0.09-1.4-0.13-2.1c-0.04-0.5-0.07-1.02-0.09-1.54c0-0.13-0.02-0.23-0.02-0.36c-0.04-0.97-0.07-1.93-0.09-2.9
				c-0.04-1.24-0.05-2.49-0.05-3.73c0-1.07,0.02-2.13,0.04-3.21c0-0.29,0.02-0.56,0.02-0.84v-0.23c0.02-0.9,0.05-1.79,0.11-2.69
				c0.07-1.47,0.16-2.92,0.27-4.37c0.11-1.45,0.23-2.88,0.39-4.33c0-0.02,0-0.02,0-0.04c0.09-0.86,0.18-1.72,0.3-2.58
				c0.04-0.34,0.09-0.7,0.14-1.04c0.05-0.52,0.13-1.04,0.2-1.56c0.09-0.64,0.18-1.29,0.3-1.92c0.02-0.23,0.07-0.47,0.11-0.7
				c0.09-0.64,0.2-1.29,0.32-1.93c0.3-1.88,0.68-3.74,1.09-5.61c0.18-0.84,0.36-1.68,0.57-2.53c0.18-0.82,0.39-1.65,0.59-2.45
				c0.13-0.45,0.23-0.88,0.36-1.33c0.32-1.25,0.66-2.47,1.02-3.71c-1.45,0.72-2.88,1.45-4.3,2.19c-8.29,4.28-15.92,8.67-22.85,13.11
				c-0.23,1.56-0.45,3.12-0.64,4.69c-0.18,1.31-0.32,2.61-0.45,3.94c-0.14,1.4-0.27,2.79-0.38,4.19c-0.09,0.98-0.14,1.97-0.2,2.94
				c-0.07,1.02-0.13,2.04-0.16,3.06c-0.09,2.31-0.14,4.62-0.14,6.93c0,2.44,0.05,4.85,0.16,7.27c0.05,1.2,0.11,2.4,0.2,3.6
				c0.07,1.2,0.16,2.4,0.27,3.6c0.09,0.97,0.18,1.93,0.27,2.9c0.02,0.09,0.02,0.16,0.04,0.25c0.13,1.18,0.27,2.38,0.41,3.56
				c0.11,0.88,0.23,1.76,0.36,2.63c0.09,0.66,0.18,1.31,0.29,1.97c0.07,0.57,0.16,1.13,0.27,1.7c0.02,0.05,0.02,0.11,0.02,0.16
				c0.09,0.47,0.18,0.93,0.25,1.4c0.32,1.9,0.7,3.8,1.09,5.68c0.14,0.72,0.29,1.41,0.45,2.11c0.39,1.74,0.81,3.44,1.24,5.16
				c0.25,0.97,0.5,1.93,0.77,2.9c0.04,0.16,0.07,0.3,0.13,0.47c0.27,1,0.56,2.01,0.86,2.99c0.25,0.84,0.5,1.68,0.77,2.53
				c0.02,0.09,0.05,0.16,0.07,0.25c0.38,1.18,0.77,2.36,1.16,3.53c0.23,0.7,0.47,1.38,0.72,2.08c1.27,3.56,2.65,7.09,4.15,10.55
				c0.32,0.73,0.64,1.47,0.97,2.2c1.24,2.76,2.54,5.48,3.94,8.17c0.79,1.5,1.58,3.01,2.42,4.5c12.7,22.84,30.7,42.63,52.33,57.48
				c0.23,0.16,0.47,0.32,0.68,0.47c14.69,0,29.14-2.35,40.67-9.73c9.21-5.86,17.05-13.68,22.91-22.89
				c5.79,9.08,13.52,16.96,22.84,22.89c0.9,0.57,1.79,1.13,2.72,1.67l5.82,3.37l5.84-3.37c0.93-0.54,1.83-1.09,2.72-1.67
				c9.31-5.93,17.09-13.81,22.87-22.91c5.87,9.21,13.7,17.05,22.91,22.91c11.53,7.38,25.9,9.78,40.59,9.78
				c0.25-0.16,0.5-0.34,0.75-0.52c23.03-15.8,41.95-37.22,54.73-61.97c10.19-19.67,16.41-41.41,18.27-63.58
				c0.39-4.67,0.59-9.39,0.59-14.08v-0.09C434.06,566.67,433.86,562.1,433.48,557.55z"/>
		</g>
		
			<linearGradient id="SVGID_00000151503961744166858250000004296861641260707772_" gradientUnits="userSpaceOnUse" x1="53.8394" y1="364.1116" x2="428.5402" y2="707.9825">
			<stop  offset="0" style="stop-color:#F8EB13"/>
			<stop  offset="0.5" style="stop-color:#FD9317"/>
			<stop  offset="1" style="stop-color:#F72DE1"/>
		</linearGradient>
		<path style="fill:url(#SVGID_00000151503961744166858250000004296861641260707772_);" d="M276.46,494.9h-23.28
			c0,28.23-22.96,51.19-51.21,51.19v23.28c28.24,0,51.21,22.96,51.21,51.19h23.28c0-28.23,22.96-51.19,51.17-51.19v-23.28
			C299.42,546.09,276.46,523.13,276.46,494.9z M241.93,557.73c9.19-5.86,17.01-13.68,22.89-22.89c5.86,9.21,13.68,17.03,22.87,22.89
			c-9.19,5.87-17.01,13.7-22.87,22.89C258.94,571.43,251.12,563.61,241.93,557.73z"/>
		
			<linearGradient id="SVGID_00000158012029873063526060000006059666288557744528_" gradientUnits="userSpaceOnUse" x1="112.2136" y1="300.5038" x2="486.9143" y2="644.3748">
			<stop  offset="0" style="stop-color:#F8EB13"/>
			<stop  offset="0.5" style="stop-color:#FD9317"/>
			<stop  offset="1" style="stop-color:#F72DE1"/>
		</linearGradient>
		<path style="fill:url(#SVGID_00000158012029873063526060000006059666288557744528_);" d="M315.02,409.67
			c-4.69-23.45-25.43-41.16-50.22-41.16c-24.79,0-45.53,17.71-50.22,41.16c-0.64,3.24-0.99,6.61-0.99,10.05v14.88v49.24h23.28
			v-21.24c8.04,5.27,17.62,8.33,27.92,8.33c9.26,0,17.96-2.47,25.47-6.82c6.97-3.98,12.9-9.58,17.28-16.26
			c2.83-4.24,5.02-8.94,6.45-13.95c1.31-4.5,2.01-9.26,2.01-14.17C316.01,416.27,315.67,412.91,315.02,409.67z M242,403.61
			c5.07-7.15,13.4-11.82,22.8-11.82c9.4,0,17.73,4.67,22.8,11.82c3.22,4.57,5.12,10.12,5.12,16.1c0,2.81-0.43,5.53-1.2,8.11
			c-0.82,2.72-2.06,5.27-3.64,7.58c-5.03,7.38-13.5,12.23-23.09,12.23c-11.32,0-21.1-6.79-25.47-16.51
			c-0.48-1.07-0.91-2.17-1.25-3.3c-0.77-2.58-1.2-5.3-1.2-8.11C236.88,413.73,238.78,408.18,242,403.61z"/>
		<g>
			
				<linearGradient id="SVGID_00000073717865097737301720000000670419301363942317_" gradientUnits="userSpaceOnUse" x1="43.2418" y1="289.2791" x2="479.2148" y2="689.3809">
				<stop  offset="0" style="stop-color:#F8EB13"/>
				<stop  offset="0.5" style="stop-color:#FD9317"/>
				<stop  offset="1" style="stop-color:#F72DE1"/>
			</linearGradient>
			<path style="fill:url(#SVGID_00000073717865097737301720000000670419301363942317_);" d="M376.15,579.33
				c0,19.71-3.15,39.34-9.23,58.02h40.22c-1.79,4.36-3.79,8.65-5.98,12.88c-2.5,4.88-5.27,9.61-8.25,14.21h-37.22
				c-0.12,0.27-0.27,0.52-0.4,0.79c-4.98,9.61-10.73,18.73-17.28,27.32c-0.58-0.31-1.15-0.63-1.73-0.96
				c-6.21-3.65-11.61-8.73-15.59-14.73c-0.77-1.15-1.48-2.33-2.15-3.54c4.75-6.5,8.96-13.36,12.67-20.53
				c11.84-22.86,17.84-47.58,17.84-73.46c0-25.92-6-50.62-17.82-73.44c-9.61-18.61-22.67-34.95-38.24-48.24
				c7.5-5.19,14-11.75,19.15-19.28c9.46,8.29,18.09,17.53,25.76,27.59h44.76c6.75,8.38,12.71,17.44,17.8,27.09H355.1
				c0.06,0.12,0.15,0.27,0.21,0.4c9.38,18.13,15.73,37.84,18.78,58.14h44.76c0.81,6.81,1.23,13.73,1.23,20.71
				c0,2.13-0.04,4.25-0.13,6.38h-43.8V579.33z"/>
		</g>
	</g>
</g>
</svg>
