<svg width="92" height="36" viewBox="0 0 92 36" fill="none" xmlns="http://www.w3.org/2000/svg">
<path d="M18.5018 6.60005V22.0001H16.9398V9.68005L10.8898 20.0421H10.1198L4.06981 9.74605V22.0001H2.50781V6.60005H3.84981L10.5378 18.0181L17.1598 6.60005H18.5018Z" fill="#1C1C28"/>
<path d="M27.2375 10.3401C28.7482 10.3401 29.9069 10.7214 30.7135 11.4841C31.5202 12.2321 31.9235 13.3467 31.9235 14.8281V22.0001H30.4275V20.1961C30.0755 20.7974 29.5549 21.2667 28.8655 21.6041C28.1909 21.9414 27.3842 22.1101 26.4455 22.1101C25.1549 22.1101 24.1282 21.8021 23.3655 21.1861C22.6029 20.5701 22.2215 19.7561 22.2215 18.7441C22.2215 17.7614 22.5735 16.9694 23.2775 16.3681C23.9962 15.7667 25.1329 15.4661 26.6875 15.4661H30.3615V14.7621C30.3615 13.7647 30.0829 13.0094 29.5255 12.4961C28.9682 11.9681 28.1542 11.7041 27.0835 11.7041C26.3502 11.7041 25.6462 11.8287 24.9715 12.0781C24.2969 12.3127 23.7175 12.6427 23.2335 13.0681L22.5295 11.9021C23.1162 11.4034 23.8202 11.0221 24.6415 10.7581C25.4629 10.4794 26.3282 10.3401 27.2375 10.3401ZM26.6875 20.8781C27.5675 20.8781 28.3229 20.6801 28.9535 20.2841C29.5842 19.8734 30.0535 19.2867 30.3615 18.5241V16.6321H26.7315C24.7515 16.6321 23.7615 17.3214 23.7615 18.7001C23.7615 19.3747 24.0182 19.9101 24.5315 20.3061C25.0449 20.6874 25.7635 20.8781 26.6875 20.8781Z" fill="#1C1C28"/>
<path d="M34.4501 26.3781C33.9661 26.3781 33.5114 26.3121 33.0861 26.1801C32.6461 26.0627 32.2868 25.8794 32.0081 25.6301L32.5581 24.4421C33.0128 24.8381 33.6141 25.0361 34.3621 25.0361C34.9781 25.0361 35.4474 24.8527 35.7701 24.4861C36.1074 24.1194 36.2761 23.5767 36.2761 22.8581V10.4281H37.8381V22.8581C37.8381 23.9434 37.5448 24.8014 36.9581 25.4321C36.3714 26.0627 35.5354 26.3781 34.4501 26.3781ZM37.0681 7.87605C36.7454 7.87605 36.4741 7.76605 36.2541 7.54605C36.0341 7.32605 35.9241 7.06205 35.9241 6.75405C35.9241 6.46072 36.0341 6.20405 36.2541 5.98405C36.4741 5.76405 36.7454 5.65405 37.0681 5.65405C37.3908 5.65405 37.6621 5.76405 37.8821 5.98405C38.1021 6.18939 38.2121 6.43872 38.2121 6.73205C38.2121 7.05472 38.1021 7.32605 37.8821 7.54605C37.6621 7.76605 37.3908 7.87605 37.0681 7.87605Z" fill="#1C1C28"/>
<path d="M52.2792 16.6981H42.5992C42.6872 17.9007 43.1492 18.8761 43.9852 19.6241C44.8212 20.3574 45.8772 20.7241 47.1532 20.7241C47.8719 20.7241 48.5319 20.5994 49.1332 20.3501C49.7345 20.0861 50.2552 19.7047 50.6952 19.2061L51.5752 20.2181C51.0619 20.8341 50.4165 21.3034 49.6392 21.6261C48.8765 21.9487 48.0332 22.1101 47.1092 22.1101C45.9212 22.1101 44.8652 21.8607 43.9412 21.3621C43.0319 20.8487 42.3205 20.1447 41.8072 19.2501C41.2939 18.3554 41.0372 17.3434 41.0372 16.2141C41.0372 15.0847 41.2792 14.0727 41.7632 13.1781C42.2619 12.2834 42.9365 11.5867 43.7872 11.0881C44.6525 10.5894 45.6205 10.3401 46.6912 10.3401C47.7619 10.3401 48.7225 10.5894 49.5732 11.0881C50.4239 11.5867 51.0912 12.2834 51.5752 13.1781C52.0592 14.0581 52.3012 15.0701 52.3012 16.2141L52.2792 16.6981ZM46.6912 11.6821C45.5765 11.6821 44.6379 12.0414 43.8752 12.7601C43.1272 13.4641 42.7019 14.3881 42.5992 15.5321H50.8052C50.7025 14.3881 50.2699 13.4641 49.5072 12.7601C48.7592 12.0414 47.8205 11.6821 46.6912 11.6821Z" fill="#1C1C28"/>
<path d="M58.5825 22.1101C57.6439 22.1101 56.7419 21.9781 55.8765 21.7141C55.0259 21.4354 54.3585 21.0907 53.8745 20.6801L54.5785 19.4481C55.0625 19.8294 55.6712 20.1447 56.4045 20.3941C57.1379 20.6287 57.9005 20.7461 58.6925 20.7461C59.7485 20.7461 60.5259 20.5847 61.0245 20.2621C61.5379 19.9247 61.7945 19.4554 61.7945 18.8541C61.7945 18.4287 61.6552 18.0987 61.3765 17.8641C61.0979 17.6147 60.7459 17.4314 60.3205 17.3141C59.8952 17.1821 59.3305 17.0574 58.6265 16.9401C57.6879 16.7641 56.9325 16.5881 56.3605 16.4121C55.7885 16.2214 55.2972 15.9061 54.8865 15.4661C54.4905 15.0261 54.2925 14.4174 54.2925 13.6401C54.2925 12.6721 54.6959 11.8801 55.5025 11.2641C56.3092 10.6481 57.4312 10.3401 58.8685 10.3401C59.6165 10.3401 60.3645 10.4427 61.1125 10.6481C61.8605 10.8387 62.4765 11.0954 62.9605 11.4181L62.2785 12.6721C61.3252 12.0121 60.1885 11.6821 58.8685 11.6821C57.8712 11.6821 57.1159 11.8581 56.6025 12.2101C56.1039 12.5621 55.8545 13.0241 55.8545 13.5961C55.8545 14.0361 55.9939 14.3881 56.2725 14.6521C56.5659 14.9161 56.9252 15.1141 57.3505 15.2461C57.7759 15.3634 58.3625 15.4881 59.1105 15.6201C60.0345 15.7961 60.7752 15.9721 61.3325 16.1481C61.8899 16.3241 62.3665 16.6247 62.7625 17.0501C63.1585 17.4754 63.3565 18.0621 63.3565 18.8101C63.3565 19.8221 62.9312 20.6287 62.0805 21.2301C61.2445 21.8167 60.0785 22.1101 58.5825 22.1101Z" fill="#1C1C28"/>
<path d="M72.3382 21.2961C72.0449 21.5601 71.6782 21.7654 71.2382 21.9121C70.8129 22.0441 70.3655 22.1101 69.8962 22.1101C68.8109 22.1101 67.9749 21.8167 67.3882 21.2301C66.8016 20.6434 66.5082 19.8147 66.5082 18.7441V11.7481H64.4402V10.4281H66.5082V7.89805H68.0702V10.4281H71.5902V11.7481H68.0702V18.6561C68.0702 19.3454 68.2389 19.8734 68.5762 20.2401C68.9282 20.5921 69.4269 20.7681 70.0722 20.7681C70.3949 20.7681 70.7029 20.7167 70.9962 20.6141C71.3042 20.5114 71.5682 20.3647 71.7882 20.1741L72.3382 21.2961Z" fill="#1C1C28"/>
<path d="M75.1817 10.4281H76.7437V22.0001H75.1817V10.4281ZM75.9737 7.89805C75.651 7.89805 75.3797 7.78805 75.1597 7.56805C74.9397 7.34805 74.8297 7.08405 74.8297 6.77605C74.8297 6.48272 74.9397 6.22605 75.1597 6.00605C75.3797 5.78605 75.651 5.67605 75.9737 5.67605C76.2964 5.67605 76.5677 5.78605 76.7877 6.00605C77.0077 6.21139 77.1177 6.46072 77.1177 6.75405C77.1177 7.07672 77.0077 7.34805 76.7877 7.56805C76.5677 7.78805 76.2964 7.89805 75.9737 7.89805Z" fill="#1C1C28"/>
<path d="M85.8859 22.1101C84.7419 22.1101 83.7153 21.8607 82.8059 21.3621C81.9113 20.8634 81.2073 20.1667 80.6939 19.2721C80.1806 18.3627 79.9239 17.3434 79.9239 16.2141C79.9239 15.0847 80.1806 14.0727 80.6939 13.1781C81.2073 12.2834 81.9113 11.5867 82.8059 11.0881C83.7153 10.5894 84.7419 10.3401 85.8859 10.3401C86.8833 10.3401 87.7706 10.5381 88.5479 10.9341C89.3399 11.3154 89.9633 11.8801 90.4179 12.6281L89.2519 13.4201C88.8706 12.8481 88.3866 12.4227 87.7999 12.1441C87.2132 11.8507 86.5753 11.7041 85.8859 11.7041C85.0499 11.7041 84.2946 11.8947 83.6199 12.2761C82.9599 12.6427 82.4393 13.1707 82.0579 13.8601C81.6913 14.5494 81.5079 15.3341 81.5079 16.2141C81.5079 17.1087 81.6913 17.9007 82.0579 18.5901C82.4393 19.2647 82.9599 19.7927 83.6199 20.1741C84.2946 20.5407 85.0499 20.7241 85.8859 20.7241C86.5753 20.7241 87.2132 20.5847 87.7999 20.3061C88.3866 20.0274 88.8706 19.6021 89.2519 19.0301L90.4179 19.8221C89.9633 20.5701 89.3399 21.1421 88.5479 21.5381C87.7559 21.9194 86.8686 22.1101 85.8859 22.1101Z" fill="#1C1C28"/>
<rect x="58" y="26" width="32" height="10" rx="2" fill="#04FBCB"/>
<path d="M64.16 34.08C63.728 34.08 63.3147 34.0187 62.92 33.896C62.5253 33.7733 62.216 33.616 61.992 33.424L62.432 32.608C62.6667 32.7947 62.944 32.944 63.264 33.056C63.5893 33.1627 63.92 33.216 64.256 33.216C64.6667 33.216 64.992 33.1467 65.232 33.008C65.4773 32.864 65.6 32.6693 65.6 32.424C65.6 32.2853 65.5493 32.1707 65.448 32.08C65.352 31.984 65.2293 31.9067 65.08 31.848C64.936 31.7893 64.7333 31.7227 64.472 31.648C64.1093 31.5413 63.816 31.44 63.592 31.344C63.368 31.2427 63.176 31.0933 63.016 30.896C62.856 30.6987 62.776 30.4427 62.776 30.128C62.776 29.7653 62.8773 29.448 63.08 29.176C63.288 28.904 63.576 28.6933 63.944 28.544C64.312 28.3947 64.736 28.32 65.216 28.32C65.5787 28.32 65.9227 28.3627 66.248 28.448C66.5733 28.528 66.8533 28.6427 67.088 28.792L66.68 29.616C66.472 29.4773 66.2373 29.3707 65.976 29.296C65.7147 29.2213 65.4427 29.184 65.16 29.184C64.744 29.184 64.4133 29.2613 64.168 29.416C63.928 29.5653 63.808 29.7653 63.808 30.016C63.808 30.16 63.8587 30.28 63.96 30.376C64.0613 30.472 64.184 30.5493 64.328 30.608C64.472 30.6613 64.6827 30.7307 64.96 30.816C65.312 30.9173 65.6 31.016 65.824 31.112C66.048 31.208 66.2373 31.3493 66.392 31.536C66.552 31.7227 66.632 31.9653 66.632 32.264C66.632 32.632 66.528 32.952 66.32 33.224C66.1173 33.496 65.8267 33.7067 65.448 33.856C65.0747 34.0053 64.6453 34.08 64.16 34.08ZM70.1993 34.08C69.6393 34.08 69.1539 33.9813 68.7433 33.784C68.3379 33.5813 68.0259 33.2987 67.8073 32.936C67.5886 32.5733 67.4793 32.1573 67.4793 31.688C67.4793 31.0587 67.6233 30.488 67.9113 29.976C68.1993 29.464 68.6046 29.0613 69.1273 28.768C69.6499 28.4693 70.2499 28.32 70.9273 28.32C71.4126 28.32 71.8393 28.4 72.2073 28.56C72.5806 28.72 72.8633 28.952 73.0553 29.256L72.3033 29.888C71.9886 29.4507 71.5059 29.232 70.8553 29.232C70.3913 29.232 69.9833 29.3387 69.6313 29.552C69.2793 29.7653 69.0073 30.056 68.8153 30.424C68.6233 30.7867 68.5273 31.1867 68.5273 31.624C68.5273 32.0987 68.6793 32.4747 68.9833 32.752C69.2873 33.0293 69.7193 33.168 70.2793 33.168C70.9246 33.168 71.4553 32.952 71.8713 32.52L72.4793 33.176C72.2126 33.48 71.8846 33.7067 71.4953 33.856C71.1059 34.0053 70.6739 34.08 70.1993 34.08ZM76.9986 32.704H74.1826L73.3746 34H72.2626L75.9026 28.4H76.9346L78.3266 34H77.2946L76.9986 32.704ZM76.8066 31.888L76.2386 29.424L74.6946 31.888H76.8066ZM85.1348 28.4L84.0148 34H83.1588L80.8628 30.08L80.0788 34H79.0468L80.1668 28.4H81.0228L83.3268 32.32L84.1028 28.4H85.1348Z" fill="#131722"/>
</svg>
