<svg height="36" width="32" xmlns="http://www.w3.org/2000/svg" xmlns:xlink="http://www.w3.org/1999/xlink"><linearGradient id="a" x1="0%" y1="0%" y2="0%"><stop offset="0" stop-color="#fff" stop-opacity=".8"/><stop offset="1" stop-color="#fff" stop-opacity=".349"/></linearGradient><path d="m30.428 26.99-13.856 8a3 3 0 1 1 -3-5.196l13.856-8a3 3 0 0 1 3 5.196zm-6-10.392-13.856 8a3 3 0 0 1 -3-5.196l13.856-8a3 3 0 1 1 3 5.196zm-6-10.392-13.856 8a3 3 0 0 1 -3-5.196l13.856-8a3 3 0 1 1 3 5.196z" fill="none"/><path d="m30.428 26.99-13.856 8a3 3 0 1 1 -3-5.196l13.856-8a3 3 0 0 1 3 5.196zm-6-10.392-13.856 8a3 3 0 0 1 -3-5.196l13.856-8a3 3 0 1 1 3 5.196zm-6-10.392-13.856 8a3 3 0 0 1 -3-5.196l13.856-8a3 3 0 1 1 3 5.196z" fill="url(#a)"/><path d="m1.572 9.01a3 3 0 0 1 4.098 1.098l12 20.784a3 3 0 0 1 -5.196 3l-12-20.784a3 3 0 0 1 1.098-4.098z" fill="#fff" fill-rule="evenodd" opacity=".6"/></svg>