<svg width="40" height="40" viewBox="0 0 40 40" fill="none" xmlns="http://www.w3.org/2000/svg">
<path d="M19.8812 40L19.8839 33.1936C19.1978 33.1936 18.5064 33.1389 17.8296 33.0308L16.7733 39.7544C17.7978 39.9173 18.8435 40 19.8825 40H19.8812ZM22.9891 39.7571C24.0162 39.5943 25.0366 39.3501 26.0239 39.0284L23.9405 32.5531C23.2903 32.7652 22.6162 32.9267 21.9381 33.0335L22.9891 39.7571ZM13.7371 39.0244L15.8259 32.5504C15.1743 32.3382 14.536 32.0713 13.9269 31.759L10.8509 37.822C11.7758 38.2971 12.7472 38.7015 13.7371 39.0244ZM28.9089 37.83C29.8351 37.3562 30.7308 36.8037 31.5722 36.1884L27.5898 30.6846C27.0364 31.0904 26.4472 31.4534 25.8381 31.7643L28.9089 37.83ZM8.18891 36.1778L12.1752 30.6766C11.6245 30.2736 11.099 29.8198 10.6107 29.33L5.82152 34.1399L5.8255 34.1439C6.56067 34.8832 7.35554 35.5679 8.18891 36.1778ZM33.9077 34.1852L33.9488 34.1425C34.6813 33.4058 35.3608 32.6078 35.9685 31.771L30.4999 27.7606C30.0992 28.3131 29.6493 28.8416 29.1636 29.3314L29.096 29.4008L31.397 31.5855L33.9077 34.1852ZM3.7965 31.7576L9.26777 27.7512C8.86435 27.1947 8.50341 26.6022 8.19289 25.9896L2.16295 29.0791C2.63404 30.0093 3.18342 30.9102 3.7965 31.7563V31.7576ZM37.6048 29.0925C38.0772 28.1623 38.4793 27.1854 38.8017 26.1898L32.3644 24.0878C32.1534 24.7431 31.888 25.385 31.5775 25.9976L37.6048 29.0925ZM0.969967 26.1751L7.40862 24.0785C7.19763 23.4245 7.03706 22.7466 6.92957 22.0646L0.244091 23.1243C0.405987 24.1572 0.650158 25.1835 0.969967 26.1764V26.1751ZM39.5289 23.1389C39.6908 22.1086 39.7731 21.057 39.7744 20.0133L33.0067 20.0093C33.0067 20.6993 32.9523 21.3946 32.8448 22.0766L39.5289 23.1389ZM6.769 19.9987C6.769 19.3087 6.82341 18.612 6.92957 17.9314L0.244091 16.8717C0.0821953 17.902 0.00124741 18.9537 -8.01086e-05 19.9973H6.76768L6.769 19.9987ZM32.8474 17.9421L39.5329 16.8864C39.3723 15.8535 39.1282 14.8272 38.8097 13.8342L32.3697 15.9269C32.5807 16.5821 32.7413 17.2588 32.8474 17.9407V17.9421ZM7.40862 15.9189C7.61962 15.2636 7.88502 14.6203 8.19421 14.0077L2.16428 10.9169C1.69319 11.8471 1.2911 12.824 0.969967 13.8196L7.4073 15.9189H7.40862ZM31.5854 14.0171L37.618 10.9315C37.1469 10 36.5976 9.09916 35.9858 8.25304L30.5119 12.2568C30.914 12.8133 31.2749 13.4058 31.5854 14.0184V14.0171ZM9.27042 12.2461C9.6725 11.6909 10.1237 11.1597 10.612 10.67L10.6253 10.6566L5.8401 5.84412L5.82682 5.85747C5.09166 6.59682 4.40958 7.39891 3.80048 8.23836L9.27042 12.2461ZM29.1875 10.694L30.6326 9.21126L33.9595 5.86681L33.9488 5.85613C33.2177 5.12078 32.4254 4.43881 31.5947 3.82891L27.6057 9.32737C28.1551 9.73042 28.6793 10.1815 29.1636 10.67L29.1875 10.694ZM12.1912 9.31269C12.7445 8.90831 13.3337 8.54531 13.9428 8.23435L10.8761 2.16736C9.94985 2.64113 9.05412 3.19231 8.21279 3.80755L12.1912 9.31269ZM25.8554 8.24503L28.9354 2.18471C28.0105 1.7096 27.0404 1.30388 26.0505 0.980916L23.9578 7.45362C24.6093 7.66716 25.2476 7.93274 25.8567 8.24636L25.8554 8.24503ZM15.8431 7.44562C16.4947 7.23475 17.1688 7.07327 17.8456 6.9665L16.7986 0.241559C15.7728 0.403043 14.751 0.647271 13.7637 0.968904L15.8431 7.44562ZM21.9553 6.97051L23.0143 0.246897C21.9898 0.0840785 20.9441 0 19.9064 0L19.8998 6.80635C20.5858 6.80635 21.2772 6.86241 21.9553 6.97051Z" fill="white" fill-opacity="0.4"/>
<path d="M19.8849 33.4941V26.6534C19.3132 26.6534 18.7429 26.5783 18.1914 26.4321L16.4253 33.0407C17.5526 33.3412 18.7161 33.4941 19.8849 33.4941ZM23.3445 33.0407C24.4758 32.7389 25.5641 32.2896 26.5759 31.7048L23.1513 25.7815C22.6588 26.0659 22.13 26.2845 21.5798 26.4307L23.3445 33.0407ZM13.1925 31.7034L16.6186 25.7815C16.1274 25.4972 15.6725 25.1471 15.2645 24.7407L15.2015 24.679L13.0396 26.9538L10.3865 29.5385L10.4254 29.5761C11.2548 30.405 12.1861 31.1199 13.1939 31.7034H13.1925ZM29.3444 29.5788H29.3458C30.1737 28.7485 30.889 27.819 31.4714 26.813L25.548 23.3873C25.2635 23.8782 24.9132 24.3329 24.5066 24.7394L29.3444 29.5788ZM8.29036 26.7983L14.2192 23.3806C13.9347 22.8883 13.7173 22.3599 13.571 21.8086L6.95645 23.5671C7.25705 24.6978 7.70661 25.7856 8.29036 26.7983ZM32.8107 23.5845C33.1113 22.4578 33.2643 21.2949 33.2656 20.1266L26.4216 20.1239C26.4216 20.6967 26.3465 21.2667 26.1989 21.818L32.8107 23.5845ZM13.3509 20.1159C13.3509 19.5431 13.4261 18.9731 13.575 18.4218L6.9645 16.6513C6.66256 17.778 6.50823 18.9409 6.50823 20.1092L13.3522 20.1159H13.3509ZM26.2002 18.4298L32.8134 16.6687C32.5114 15.538 32.0619 14.4502 31.4781 13.4388L25.5507 16.8592C25.8352 17.3514 26.0539 17.8799 26.2002 18.4298ZM14.2259 16.8511C14.5063 16.3669 14.8526 15.9176 15.2525 15.5152L15.2699 15.4978L12.8222 13.0512L10.4684 10.6248L10.4254 10.6664C9.59877 11.4926 8.88485 12.4195 8.30378 13.4228L14.2259 16.8511ZM12.8222 13.0499L12.8504 13.078L12.8222 13.0499ZM24.5107 15.5058L26.9342 13.0834L29.4075 10.7281L29.3458 10.665C28.5191 9.83878 27.5891 9.12386 26.584 8.54174L23.1553 14.4623C23.6397 14.7426 24.0906 15.0887 24.4932 15.4884L24.5107 15.5058ZM16.6226 14.4582C17.1138 14.1739 17.6425 13.9566 18.194 13.809L16.4334 7.19909C15.3008 7.50088 14.2138 7.94888 13.2006 8.53369L16.6226 14.4582ZM21.5838 13.8117L23.3539 7.20311C22.2266 6.90132 21.0632 6.74841 19.8943 6.74707L19.8903 13.5877C20.4633 13.5877 21.0336 13.6628 21.5852 13.8104L21.5838 13.8117Z" fill="white" fill-opacity="0.4"/>
</svg>
