<svg width="1921" height="1081" viewBox="0 0 1921 1081" fill="none" xmlns="http://www.w3.org/2000/svg">
<rect width="1920" height="1080" transform="translate(0.5 0.614014)" fill="white"/>
<path fill-rule="evenodd" clip-rule="evenodd" d="M429.339 472.532V472.531H486.167V472.532L486.167 472.532L545.927 607.791H513.887L467.077 501.841H458.648V607.791H429.339V501.841V472.532ZM545.927 607.791L605.686 472.532L605.687 472.532V472.531H662.515V472.532H662.52V607.791H633.21V501.841H624.777L577.972 607.791H545.927ZM997.737 607.791H1027.05V472.532H997.737V607.791ZM744.679 534.408L759.066 501.841H774.499L788.887 534.408H744.679ZM712.26 607.791L731.731 563.717H801.837L821.309 607.791H853.349L793.595 472.532L793.594 472.532V472.531H739.973V472.535L680.215 607.791H712.26ZM899.598 501.841V607.791H870.289V501.841V472.532V472.531H937.973V472.534L937.977 472.532L997.731 607.791H965.691L918.881 501.841H899.598ZM1043.32 501.841H1109V607.791H1138.31V501.841H1203.99V472.531H1043.32V501.841ZM1220.27 472.532H1249.58V578.481H1342.4V607.791H1220.27L1220.27 607.791V472.532ZM1387.99 552.862V578.481H1491.66V607.791H1358.68L1358.68 607.791V552.862V523.553V501.841V472.532V472.531H1491.66V501.841H1387.99V523.553H1482.56V552.862H1387.99Z" fill="black"/>
</svg>
