<svg xmlns="http://www.w3.org/2000/svg" viewBox="0 0 315.05 76.08"><defs><style>.cls-1{fill:#0b1547;}.cls-2{fill:#2bbdf7;}.cls-2,.cls-3,.cls-4{fill-rule:evenodd;}.cls-3{fill:#2891f9;}.cls-4{fill:#2b6def;}</style></defs><title>blue_dark</title><g id="Layer_2" data-name="Layer 2"><g id="Layer_1-2" data-name="Layer 1"><path class="cls-1" d="M216.81,24.47h8V61.69h-8V56.33c-3.06,4.26-7.38,6.34-13,6.34A17.46,17.46,0,0,1,190.67,57a19.48,19.48,0,0,1-5.42-13.93,19.37,19.37,0,0,1,5.42-13.93,17.49,17.49,0,0,1,13.1-5.66c5.66,0,10,2.09,13,6.26ZM205,55a11.53,11.53,0,0,0,8.42-3.34,11.84,11.84,0,0,0,3.36-8.57,11.51,11.51,0,0,0-3.36-8.48,12,12,0,0,0-16.82,0,11.45,11.45,0,0,0-3.34,8.48,11.79,11.79,0,0,0,3.34,8.57A11.51,11.51,0,0,0,205,55Z"/><path class="cls-1" d="M256,32.21h-9.23V50.08c0,4.76,3.13,4.68,9.23,4.38v7.23c-12.29,1.49-17.27-1.87-17.27-11.61V32.21h-6.85V24.47h6.85l0-10.42h8.06V24.47H256Z"/><path class="cls-1" d="M263.73,17.41a5.13,5.13,0,1,1,7.21,0A5.07,5.07,0,0,1,263.73,17.41Zm-.36,44.28V24.47h8V61.69Z"/><path class="cls-1" d="M284.23,57a19.13,19.13,0,0,1-5.59-13.93,18.91,18.91,0,0,1,5.59-13.93,19.17,19.17,0,0,1,14.06-5.66c7.23,0,13.63,3.75,16.61,9.62l-6.91,4c-1.72-3.58-5.3-5.72-9.76-5.72A11.3,11.3,0,0,0,290,34.74a11.62,11.62,0,0,0-3.27,8.34A11.6,11.6,0,0,0,290,51.42a11.31,11.31,0,0,0,8.28,3.34A10.82,10.82,0,0,0,308.12,49L315.05,53a18.74,18.74,0,0,1-16.76,9.7A19.13,19.13,0,0,1,284.23,57Z"/><polygon class="cls-2" points="37.43 31.65 48.22 55.57 64.28 46.31 64.3 46.31 64.3 27.79 37.43 31.65"/><path class="cls-3" d="M85,13.9,75,10.13,64.29,9.26V27.78h0v39h0l16.07,9.26L93.06,50.13,85.06,25Z"/><polygon class="cls-2" points="84.1 9.27 80.37 18.52 80.37 18.52 80.37 76.08 96.44 66.82 96.44 9.27 84.1 9.27"/><polygon class="cls-4" points="80.37 0.01 64.3 9.27 80.37 18.53 96.44 9.27 80.37 0.01"/><polygon class="cls-3" points="48.23 37.04 48.23 37.04 32.15 19.06 0 9.26 0 66.82 0 66.82 16.07 76.08 20.67 44.23 32.15 46.31 32.15 46.3 48.23 55.56 48.23 37.04 48.23 37.04 48.23 37.04"/><polygon class="cls-1" points="169.47 14.05 153.69 40.1 137.97 14.05 128.74 14.05 128.74 61.69 137.31 61.69 137.31 28.94 151.5 52.48 155.87 52.48 170.07 29.02 170.07 61.69 178.71 61.69 178.71 14.05 169.47 14.05"/><polygon class="cls-4" points="16.08 0 0 9.26 48.22 37.05 55.51 32.85 64.3 27.79 16.08 0"/><polygon class="cls-2" points="16.08 37.04 16.07 37.04 16.07 76.07 32.15 66.81 32.15 66.81 32.15 46.31 32.15 46.3 16.08 37.04"/></g></g></svg>