<svg width="673" height="103" viewBox="0 0 673 103" fill="none" xmlns="http://www.w3.org/2000/svg">
<path d="M501.4 45.5654H476.125V13.0952H462.581V91.1094H476.125V56.4424H501.4V45.5654Z" fill="black"/>
<path d="M511.708 91.1094H524.466V13.0952H511.708V91.1094Z" fill="black"/>
<path d="M185.82 55.5469L169.858 13.0952H152.299V91.1094H165.79V65.3905L164.452 31.0449L180.213 72.2667L185.82 55.5469Z" fill="black"/>
<path d="M203.318 43.6324L187.405 91.078L187.417 91.1094H197.106L220.127 30.9913L218.788 65.3905V91.1094H232.279V13.0952H214.774L203.318 43.6324Z" fill="black"/>
<path d="M306.584 74.2849C308.736 69.568 310.012 64.2341 310.41 58.2829H296.871C296.426 65.0555 294.846 70.3538 292.13 74.1778C288.917 78.75 284.314 81.0362 278.318 81.0362C272.393 81.0362 267.754 78.6964 264.399 74.017C261.636 70.1214 260.023 64.8769 259.56 58.2829H246.008C246.409 64.2387 247.721 69.5906 249.945 74.3385C252.657 80.0538 256.476 84.4654 261.401 87.5731C266.362 90.645 272.001 92.181 278.318 92.181C284.706 92.181 290.345 90.645 295.234 87.5731C300.16 84.4654 303.943 80.036 306.584 74.2849Z" fill="black"/>
<path d="M306.477 29.8126C308.936 35.0644 310.281 41.1157 310.51 47.966H296.968C296.719 40.3413 295.089 34.415 292.076 30.1876C288.828 25.5796 284.207 23.2756 278.211 23.2756C272.358 23.2756 267.771 25.5796 264.453 30.1876C261.391 34.4517 259.726 40.3779 259.456 47.966H245.915C246.151 41.2595 247.476 35.2797 249.892 30.0269C252.604 24.2044 256.405 19.7572 261.294 16.6852C266.219 13.5775 271.858 12.0236 278.211 12.0236C284.563 12.0236 290.184 13.5596 295.074 16.6316C299.999 19.6678 303.8 24.0615 306.477 29.8126Z" fill="black"/>
<path d="M370.229 91.1094H382.816V90.4129L365.311 57.8891C369.808 55.9959 373.305 53.299 375.803 49.7983C378.336 46.262 379.604 41.8862 379.604 36.6709C379.604 29.0267 377.16 23.1863 372.269 19.1499C367.381 15.1134 360.439 13.0952 351.445 13.0952H324.036V91.1094H337.579V61.0504H343.933L338.576 50.1734H337.579V24.0258H351.873C356.584 24.0972 360.118 25.276 362.473 27.5621C364.864 29.8483 366.059 33.081 366.059 37.2603C366.059 41.2611 364.774 44.4224 362.205 46.7442C359.635 49.0303 356.066 50.1734 351.498 50.1734H350.068L370.229 91.1094Z" fill="black"/>
<path d="M405.996 91.1094V62.122H422.11C431.139 62.122 438.152 59.9966 443.148 55.7458C448.181 51.4951 450.697 45.5476 450.697 37.9033C450.697 30.4377 448.127 24.4366 442.988 19.9C437.884 15.3635 430.979 13.0952 422.271 13.0952H392.452V41.4007H405.996V24.0258H422.645C427.142 24.0972 430.675 25.401 433.245 27.9372C435.814 30.4377 437.099 33.7954 437.099 38.0105C437.099 42.297 435.833 45.5833 433.298 47.8694C431.221 49.7141 428.376 50.8026 424.765 51.1353C422.612 51.499 419.913 51.7176 416.644 51.7176L415.755 51.7167L415.658 51.7176H392.452V91.1094H405.996Z" fill="black"/>
<path d="M540.527 65.7861H554.07V80.286H591.491V91.1094H540.527V65.7861Z" fill="black"/>
<path d="M540.527 33.8975V55.4692H586.084V45.5654H554.07V33.8975H540.527Z" fill="black"/>
<path d="M540.527 23.5806V13.0952H591.116V23.5806H540.527Z" fill="black"/>
<path d="M616.063 61.0504H622.19L616.834 50.1734H616.063V24.0258H630.356C635.067 24.0972 638.601 25.276 640.956 27.5621C643.347 29.8483 644.543 33.081 644.543 37.2603C644.543 41.2611 643.258 44.4224 640.689 46.7442C638.119 49.0303 634.55 50.1734 629.982 50.1734H628.326L648.486 91.1094H661.299V90.4129L643.793 57.8891C648.29 55.9959 651.787 53.299 654.286 49.7983C656.82 46.262 658.087 41.8862 658.087 36.6709C658.087 29.0267 655.642 23.1863 650.753 19.1499C645.863 15.1134 638.922 13.0952 629.928 13.0952H602.519V91.1094H616.063V61.0504Z" fill="black"/>
<path d="M104.299 44.4371L98.4061 26.1914L67.1754 3.23714L29.1683 31.1943L32.9985 42.6714C46.4604 33.3624 67.1754 17.3629 67.1754 17.3629L104.299 44.4371Z" fill="black"/>
<path d="M60.9882 3.23714H43.0158L11.7852 26.1914L26.5166 69.7457H38.0071L25.3381 30.0171L60.9882 3.23714Z" fill="black"/>
<path d="M57.4527 29.4286C61.0195 26.6704 63.6086 24.5354 67.1754 21.7771L105.183 49.1457L93.9867 85.6371L78.9606 96.82L92.5135 54.1486L57.4527 29.4286Z" fill="black"/>
<path d="M78.0767 48.2629L88.3887 55.3257L74.2465 99.7629H38.0071L20.9187 88.8743H65.113L78.0767 48.2629Z" fill="black"/>
<path d="M65.9969 73.5714L62.756 85.0486H15.6153L3.53555 49.1457L9.1335 31.1943L24.4542 73.5714H65.9969Z" fill="black"/>
</svg>
