<svg xmlns="http://www.w3.org/2000/svg" xmlns:xlink="http://www.w3.org/1999/xlink" width="206" height="60" viewBox="0 0 206 60">
  <defs>
    <style>
      .a {
        fill: #fff;
      }

      .b {
        fill: none;
      }

      .c {
        fill: #eab200;
      }

      .d {
        mask: url(#a);
      }

      .e {
        fill: url(#b);
      }
    </style>
    <mask id="a" x="0" y="0.5" width="60.51" height="59" maskUnits="userSpaceOnUse">
      <path class="a" d="M21.72,38.64c-4.14,0-8,1.6-10.19,3.92a21.59,21.59,0,0,1-4-12.5C7.54,17.87,17.67,8,30.18,8a23.27,23.27,0,0,1,4.06.36l-6,32A11.92,11.92,0,0,0,21.72,38.64ZM43.6,12.29a21.86,21.86,0,0,1,9.21,17.77c0,12.19-10.13,22.07-22.64,22.07a23.23,23.23,0,0,1-5.65-.69c3.14-1.17,5.52-3.25,6.14-5.63h0l0-.13s0-.09,0-.13,0-.14,0-.21L36.1,18.29a13.61,13.61,0,0,1,7.25,3.57A10.4,10.4,0,0,1,46.6,27.6a12.69,12.69,0,0,0-2.47-14.86Z"/>
    </mask>
    <linearGradient id="b" x1="1445.34" y1="-1045.24" x2="1446.76" y2="-1045.1" gradientTransform="matrix(40, 0, 0, -39, -57815.96, -40731.29)" gradientUnits="userSpaceOnUse">
      <stop offset="0" stop-color="#fece00"/>
      <stop offset="1" stop-color="#ff9000"/>
    </linearGradient>
  </defs>
  <title>Artboard 8 copy 5</title>
  <g>
    <g>
      <rect class="b" y="0.5" width="60.51" height="59"/>
      <path class="c" d="M21.72,38.64c-4.14,0-8,1.6-10.19,3.92a21.59,21.59,0,0,1-4-12.5C7.54,17.87,17.67,8,30.18,8a23.27,23.27,0,0,1,4.06.36l-6,32A11.92,11.92,0,0,0,21.72,38.64ZM43.6,12.29a21.86,21.86,0,0,1,9.21,17.77c0,12.19-10.13,22.07-22.64,22.07a23.23,23.23,0,0,1-5.65-.69c3.14-1.17,5.52-3.25,6.14-5.63h0l0-.13s0-.09,0-.13,0-.14,0-.21L36.1,18.29a13.61,13.61,0,0,1,7.25,3.57A10.4,10.4,0,0,1,46.6,27.6a12.69,12.69,0,0,0-2.47-14.86Z"/>
      <g class="d">
        <rect class="e" y="0.5" width="60.51" height="59"/>
      </g>
    </g>
    <path class="a" d="M74,40.35l1.57-10.51q.75-5.13-1.49-5.13H71.69a7,7,0,0,0-3.5,1.68l-2,13.45H61.54l2.72-18.15h3.81v1.43a5.7,5.7,0,0,1,3.59-1.43h2.19q3.47,0,4.38,2.37A8.19,8.19,0,0,1,83,21.68h1.85q6.27,0,5.06,8.06L88.36,39.83h-3l1.52-10.16q.72-5-1.44-5H83.56q-1.29,0-3.5,1.91a13,13,0,0,1-.15,3.05L78.39,39.83H74.13"/>
    <path class="a" d="M107.41,21.68h5l-2.67,17.94q-5.55.62-8.81.69-8.26,0-7-8.22l1.57-10.41h4.33L98.19,32.09q-.71,4.75,3.23,4.75a11.62,11.62,0,0,0,4.48-.66l2.16-14.5"/>
    <path class="a" d="M130.95,21.57l-.47,3.14-8.58,0q-3,0-3.16.87l-.28,1.88q0,.94,1.9,1.29l4.67.77q5.3.87,4.7,4.6l-.24,1.74q-.67,4.43-7.43,4.43L112.64,40l.47-3.21,9.29.07q2.73,0,2.89-1l.24-1.74q.16-1-1.94-1.36l-5.14-.84q-4.47-1-4.23-4.33l.36-2q.63-4.26,7.83-4.26l8.54.28"/>
    <path class="a" d="M140.41,14.12l-.55,3h-4.33l.55-3Zm-1.27,7.56-2.73,18.15h-4.17L135,21.68Z"/>
    <path class="a" d="M155.48,39.78l-7.76.38q-8.19,0-6.78-9.44t9.64-9.54l7.6.42-.47,3.11-7.57-.1q-4,0-4.9,6.12t3.06,6.09l7.6-.07-.43,3"/>
    <path class="a" d="M166.53,24.71q-3.66,0-4.43,5.07l-.27,2q-.77,5.07,2.89,5.07H167q3.66,0,4.43-5.07l.27-2q.77-5.06-2.89-5.07Zm9.23,5.11-.27,1.95q-1.22,8.07-9,8.07h-2.21q-7.66,0-6.44-8.07l.27-1.95q1.22-8.14,8.88-8.14h2.21Q177,21.68,175.76,29.82Z"/>
    <g>
      <path class="a" d="M186.29,14.12l-.55,3h-4.33l.55-3ZM185,21.68l-2.73,18.15h-4.17l2.73-18.15Z"/>
      <path class="a" d="M190.62,39.83H187l2.72-18.15h3.81l0,1.4a5.62,5.62,0,0,1,3.55-1.4h2.49q6.65,0,5.44,8.06l-1.51,10.09H199.6l1.52-10.16q.72-5-1.86-5h-2.64A7,7,0,0,0,193,26.44l-2.08,13.91"/>
    </g>
  </g>
</svg>
