<svg width="102" height="20" viewBox="0 0 102 20" fill="none" xmlns="http://www.w3.org/2000/svg">
<g clip-path="url(#clip0_251_643)">
<path d="M8.57143 0H5.71429V2.85714H4.28572V1.42857H2.85714V4.28571H11.4286V1.42857H10V2.85714H8.57143V0Z" fill="#F3CF00"/>
<path d="M2.85714 5.71429H11.4286V7.14286H12.8571V8.57143H14.2857V17.1429H12.8571V18.5714H11.4286V20H2.85714V18.5714H1.42857V17.1429H0V8.57143H1.42857V7.14286H2.85714V5.71429Z" fill="#FF0420"/>
</g>
<g clip-path="url(#clip1_251_643)">
<path fill-rule="evenodd" clip-rule="evenodd" d="M31.4286 4.28564H21.4286V5.71422H20V17.1428H21.4286V18.5714H31.4286V17.1428H32.8571V5.71422H31.4286V4.28564ZM28.5714 8.57136H24.2857V14.2856H28.5714V8.57136Z" fill="white"/>
<path d="M91.4286 4.28564H101.428V7.14279H98.5714V18.5714H94.2857V7.14279H91.4286V4.28564Z" fill="white"/>
<path d="M80 4.28564H90V7.14279H84.2857V8.57136H90V11.4285H84.2857V18.5714H80V4.28564Z" fill="white"/>
<path fill-rule="evenodd" clip-rule="evenodd" d="M57.1429 4.28564H67.1429V11.4285H65.7143V12.8571H67.1429V18.5714H62.8571V12.8571H61.4286V18.5714H57.1429V4.28564ZM61.4286 9.99993H62.8571V7.14279H61.4286V9.99993Z" fill="white"/>
<path fill-rule="evenodd" clip-rule="evenodd" d="M68.5714 4.28564V18.5714H72.8571V12.8571H74.2857V18.5714H78.5714V4.28564H68.5714ZM74.2857 9.99993V7.14279H72.8571V9.99993H74.2857Z" fill="white"/>
<path d="M47.1429 4.28564H55.7143V8.57136H50V14.2856H55.7143V18.5714H47.1429V17.1428H45.7143V5.71422H47.1429V4.28564Z" fill="white"/>
<path fill-rule="evenodd" clip-rule="evenodd" d="M34.2857 4.28564V18.5714H38.5714V12.8571H44.2857V4.28564H34.2857ZM40 9.99993V7.14279H38.5714V9.99993H40Z" fill="white"/>
</g>
<defs>
<clipPath id="clip0_251_643">
<rect width="15" height="20" fill="white"/>
</clipPath>
<clipPath id="clip1_251_643">
<rect width="82" height="15" fill="white" transform="translate(20 4)"/>
</clipPath>
</defs>
</svg>
