<svg xmlns="http://www.w3.org/2000/svg" width="60" height="60" viewBox="0 0 60 60">
  <defs>
    <style>
      .a {
        fill: #fff;
      }
    </style>
  </defs>
  <title>Artboard 8</title>
  <g>
    <path class="a" d="M58.59,27.8,32.2,1.41a3.1,3.1,0,0,0-4.4,0L10.22,19a3.1,3.1,0,0,0,0,4.4L27.8,41a3.11,3.11,0,0,0,4.4-4.4L16.81,21.21,30,8,54.18,32.2a3.11,3.11,0,0,0,4.41-4.4Z"/>
    <path class="a" d="M1.41,32.2,27.8,58.59a3.1,3.1,0,0,0,4.4,0L49.79,41a3.1,3.1,0,0,0,0-4.4L32.2,19a3.11,3.11,0,1,0-4.4,4.4L43.19,38.8,30,52,5.82,27.8a3.11,3.11,0,0,0-4.41,4.4Z"/>
  </g>
</svg>
