<?xml version="1.0" encoding="utf-8"?>
<svg  width="200" height="55" viewBox="-63.961 -19.822 454.159 105.342" fill="none" xmlns="http://www.w3.org/2000/svg">
  <path d="M 30.432 2.998 L 0.03 -14.481 C -2.147 -15.724 -4.613 -16.377 -7.123 -16.377 C -9.633 -16.377 -12.099 -15.724 -14.277 -14.481 L -44.68 2.998 C -46.854 4.249 -48.661 6.047 -49.916 8.212 C -51.172 10.378 -51.832 12.833 -51.832 15.334 L -51.832 50.258 C -51.832 52.758 -51.172 55.215 -49.916 57.381 C -48.661 59.546 -46.854 61.344 -44.68 62.594 L -14.277 80.074 C -12.101 81.323 -9.634 81.982 -7.123 81.982 C -4.612 81.982 -2.145 81.323 0.03 80.074 L 30.432 62.594 C 32.608 61.344 34.414 59.546 35.67 57.381 C 36.926 55.215 37.585 52.758 37.585 50.258 L 37.585 15.334 C 37.585 12.833 36.926 10.378 35.67 8.212 C 34.414 6.047 32.608 4.249 30.432 2.998 Z M -10.7 -8.305 C -9.614 -8.935 -8.38 -9.266 -7.123 -9.266 C -5.867 -9.266 -4.632 -8.935 -3.547 -8.305 L 26.855 9.157 L 26.909 9.157 L -7.123 29.148 L -22.27 20.248 L -7.123 11.542 L 1.085 16.259 L 8.132 12.112 L -3.547 5.384 C -4.634 4.759 -5.868 4.429 -7.123 4.429 C -8.379 4.429 -9.613 4.759 -10.7 5.384 L -29.191 16.01 C -29.237 16.034 -29.279 16.064 -29.317 16.1 L -41.102 9.157 L -10.7 -8.305 Z M -41.102 56.435 C -42.19 55.808 -43.096 54.909 -43.723 53.824 C -44.351 52.741 -44.681 51.51 -44.68 50.258 L -44.68 15.334 L -10.647 35.359 L -10.647 52.02 L -25.614 43.424 L -25.614 34.825 L -32.769 30.606 L -32.769 43.424 C -32.768 44.672 -32.437 45.898 -31.809 46.978 C -31.18 48.06 -30.278 48.958 -29.191 49.583 L -10.7 60.209 L -10.647 60.209 L -10.647 73.897 L -10.7 73.897 L -41.102 56.435 Z M 30.432 50.258 C 30.434 51.51 30.104 52.741 29.477 53.824 C 28.848 54.909 27.945 55.808 26.855 56.435 L -3.492 73.863 L -3.492 35.288 L 11.368 26.593 L 11.368 43.431 L 3.66 47.882 L 3.66 56.087 L 14.944 49.608 C 16.03 48.985 16.933 48.086 17.561 47.005 C 18.19 45.924 18.521 44.699 18.522 43.45 L 18.522 22.383 L 30.432 15.387 L 30.432 50.258 Z" fill="#7B3FE4" style=""/>
  <text style="fill: rgb(123, 62, 228); font-family: Arial, sans-serif; font-size: 51.9px; white-space: pre;" x="57.131" y="51.806">Polygon Edge</text>
</svg>