<svg xmlns="http://www.w3.org/2000/svg" width="111" height="36">
    <defs>
        <linearGradient id="a" x1="0%" x2="0%" y1="100%" y2="0%">
            <stop offset="0%" stop-color="#FFF" stop-opacity="0"/>
            <stop offset="100%" stop-color="#FFF"/>
        </linearGradient>
        <linearGradient id="b" x1="0%" x2="86.603%" y1="50%" y2="0%">
            <stop offset="0%" stop-color="#FFF"/>
            <stop offset="100%" stop-color="#FFF" stop-opacity="0"/>
        </linearGradient>
    </defs>
    <path fill="#FFF" fill-rule="evenodd" d="M16.001 36L.005 26.999V8.998L16.001-.003l15.996 9.001v18.001L16.001 36zm10.074-23.52L15.994 6.83 5.912 12.48v11.301l10.082 5.65 10.081-5.65V12.48z" opacity=".4"/>
    <path fill="none" d="M0 8.934l5.914 3.688v10.499L0 19.433V8.934z" opacity=".6"/>
    <path fill="url(#a)" d="M0 8.934l5.914 3.688v10.499L0 19.433V8.934z"/>
    <path fill="none" d="M31.992 8.934l-5.915 3.688v10.499l5.915-3.688V8.934z" opacity=".6"/>
    <path fill="url(#a)" d="M31.992 8.934l-5.915 3.688v10.499l5.915-3.688V8.934z"/>
    <path fill="none" d="M15.861 29.431l10.216-5.541v6.569L15.861 36v-6.569z" opacity=".6"/>
    <path fill="url(#b)" d="M15.861 29.431l10.216-5.541v6.569L15.861 36v-6.569z"/>
    <path fill="#FFF" fill-rule="evenodd" d="M16.494 25.007l-6.505-3.504v-7.007l6.505-3.504L23 14.496v7.007l-6.506 3.504z" opacity=".8"/>
    <path fill="#FFF" fill-rule="evenodd" d="M16.987 17.727l6.014-3.74v7.281l-6.014 3.74v-7.281zM109.56 21.291c-.437.875-1.058 1.547-1.864 2.016-.805.47-1.752.704-2.84.704-1.098 0-2.05-.234-2.856-.704-.805-.469-1.426-1.141-1.864-2.016-.437-.874-.656-1.898-.656-3.072 0-1.173.216-2.194.648-3.064a4.664 4.664 0 0 1 1.864-2.008c.811-.469 1.766-.704 2.864-.704 1.099 0 2.051.235 2.856.704.806.47 1.424 1.139 1.856 2.008.432.87.648 1.891.648 3.064 0 1.174-.218 2.198-.656 3.072zm-2.28-6.136c-.581-.709-1.389-1.064-2.424-1.064-1.045 0-1.858.355-2.44 1.064-.581.71-.872 1.731-.872 3.064 0 1.334.291 2.358.872 3.072.582.715 1.395 1.072 2.44 1.072 1.035 0 1.843-.357 2.424-1.072.582-.714.872-1.738.872-3.072 0-1.333-.29-2.354-.872-3.064zm-9.624 8.776a.91.91 0 0 1-.48-.136.91.91 0 0 1-.352-.424l-.96-2.144h-5.632l-.96 2.144a.898.898 0 0 1-.352.424.932.932 0 0 1-.496.136c-.245 0-.469-.085-.672-.256a.787.787 0 0 1-.304-.624c0-.138.032-.277.096-.416l4.416-9.488c.096-.213.243-.376.44-.488.198-.112.408-.168.632-.168.224 0 .435.056.632.168.198.112.344.275.44.488l4.432 9.488a.989.989 0 0 1 .096.416.791.791 0 0 1-.296.624 1.007 1.007 0 0 1-.68.256zm-4.608-9.056l-2.112 4.752h4.224l-2.112-4.752zm-12.352 8.992h-3.168c-.309 0-.552-.085-.728-.256-.176-.17-.264-.41-.264-.72v-9.328c0-.309.088-.549.264-.72.176-.17.419-.256.728-.256h3.168c1.846 0 3.278.494 4.296 1.48 1.019.987 1.528 2.371 1.528 4.152 0 1.792-.509 3.182-1.528 4.168-1.018.987-2.45 1.48-4.296 1.48zm-.128-9.6H78.6v7.92h1.968c2.592 0 3.888-1.322 3.888-3.968 0-2.634-1.296-3.952-3.888-3.952zm-10.079 3.152c.949.214 1.72.451 2.312.712.592.262 1.045.595 1.36 1 .314.406.472.912.472 1.52a2.9 2.9 0 0 1-.552 1.752c-.368.507-.886.902-1.552 1.184-.667.283-1.432.424-2.296.424a8.061 8.061 0 0 1-2.328-.328c-.731-.218-1.326-.514-1.784-.888-.246-.181-.368-.437-.368-.768a.9.9 0 0 1 .2-.584c.133-.165.29-.248.472-.248.192 0 .41.075.656.224.458.331.938.571 1.44.72a5.79 5.79 0 0 0 1.664.224c.778 0 1.376-.136 1.792-.408.416-.272.624-.669.624-1.192 0-.405-.195-.717-.584-.936-.39-.218-1.038-.429-1.944-.632-.939-.202-1.702-.437-2.288-.704-.587-.266-1.03-.608-1.328-1.024-.299-.416-.448-.944-.448-1.584 0-.661.186-1.253.56-1.776.373-.522.893-.93 1.56-1.224.666-.293 1.416-.44 2.248-.44 1.525 0 2.768.406 3.728 1.216.138.118.237.232.296.344a.919.919 0 0 1 .088.424.903.903 0 0 1-.2.584c-.134.166-.291.248-.472.248a.88.88 0 0 1-.296-.048 2.281 2.281 0 0 1-.36-.176 5.445 5.445 0 0 0-1.272-.712c-.411-.154-.915-.232-1.512-.232-.726 0-1.299.147-1.72.44-.422.294-.632.702-.632 1.224 0 .438.186.774.56 1.008.373.235 1.008.454 1.904.656zm-8.76 5.888c-.806.47-1.752.704-2.84.704-1.099 0-2.051-.234-2.856-.704-.806-.469-1.427-1.141-1.864-2.016-.438-.874-.656-1.898-.656-3.072 0-1.173.216-2.194.648-3.064a4.658 4.658 0 0 1 1.864-2.008c.81-.469 1.765-.704 2.864-.704 1.098 0 2.05.235 2.856.704a4.677 4.677 0 0 1 1.856 2.008c.432.87.648 1.891.648 3.064 0 1.174-.219 2.198-.656 3.072-.438.875-1.059 1.547-1.864 2.016zm-.416-8.152c-.582-.709-1.39-1.064-2.424-1.064-1.046 0-1.859.355-2.44 1.064-.582.71-.872 1.731-.872 3.064 0 1.334.29 2.358.872 3.072.581.715 1.394 1.072 2.44 1.072 1.034 0 1.842-.357 2.424-1.072.581-.714.872-1.738.872-3.072 0-1.333-.291-2.354-.872-3.064zm-13.032 4.328h-2.864v3.44c0 .32-.094.574-.28.76-.187.187-.44.28-.76.28-.31 0-.558-.093-.744-.28-.187-.186-.28-.44-.28-.76v-9.36c0-.309.088-.549.264-.72.176-.17.418-.256.728-.256h3.936c1.205 0 2.144.302 2.816.904.672.603 1.008 1.448 1.008 2.536s-.336 1.936-1.008 2.544c-.672.608-1.611.912-2.816.912zm-.256-5.296h-2.608v3.712h2.608c1.418 0 2.128-.618 2.128-1.856 0-1.237-.71-1.856-2.128-1.856z"/>
</svg>
