<svg fill="none" height="88" viewBox="0 0 188 88" width="188" xmlns="http://www.w3.org/2000/svg" xmlns:xlink="http://www.w3.org/1999/xlink"><filter id="a" color-interpolation-filters="sRGB" filterUnits="userSpaceOnUse" height="50.4817" width="83.6077" x=".5" y=".5"><feFlood flood-opacity="0" result="BackgroundImageFix"/><feBlend in="SourceGraphic" in2="BackgroundImageFix" mode="normal" result="shape"/><feColorMatrix in="SourceAlpha" result="hardAlpha" type="matrix" values="0 0 0 0 0 0 0 0 0 0 0 0 0 0 0 0 0 0 127 0"/><feOffset dy="-8"/><feComposite in2="hardAlpha" k2="-1" k3="1" operator="arithmetic"/><feColorMatrix type="matrix" values="0 0 0 0 1 0 0 0 0 1 0 0 0 0 1 0 0 0 0.4 0"/><feBlend in2="shape" mode="normal" result="effect1_innerShadow"/><feColorMatrix in="SourceAlpha" result="hardAlpha" type="matrix" values="0 0 0 0 0 0 0 0 0 0 0 0 0 0 0 0 0 0 127 0"/><feOffset dx="12" dy="8"/><feComposite in2="hardAlpha" k2="-1" k3="1" operator="arithmetic"/><feColorMatrix type="matrix" values="0 0 0 0 0 0 0 0 0 0 0 0 0 0 0 0 0 0 0.1 0"/><feBlend in2="effect1_innerShadow" mode="normal" result="effect2_innerShadow"/></filter><filter id="b" color-interpolation-filters="sRGB" filterUnits="userSpaceOnUse" height="20.8483" width="20.8483" x="36.6604" y="7.21191"><feFlood flood-opacity="0" result="BackgroundImageFix"/><feBlend in="SourceGraphic" in2="BackgroundImageFix" mode="normal" result="shape"/><feColorMatrix in="SourceAlpha" result="hardAlpha" type="matrix" values="0 0 0 0 0 0 0 0 0 0 0 0 0 0 0 0 0 0 127 0"/><feOffset dx="4" dy="-4"/><feComposite in2="hardAlpha" k2="-1" k3="1" operator="arithmetic"/><feColorMatrix type="matrix" values="0 0 0 0 0 0 0 0 0 0 0 0 0 0 0 0 0 0 0.15 0"/><feBlend in2="shape" mode="normal" result="effect1_innerShadow"/></filter><mask id="c" height="64" maskUnits="userSpaceOnUse" width="84" x="0" y="24"><path d="m9.68785 69.9333c-6.15026-1.7721-7.60095-24.1059-7.55752-35.0513l1.95455-8.8605 78.18122 22.1513c-1.1293 6.4717-3.6484 21.3435-4.6909 29.0574-1.0424 7.7139-6.4282 9.0343-8.9908 8.7302-17.0696-4.604-52.7463-14.255-58.89655-16.0271z" fill="#885352" stroke="#000" stroke-width="3"/></mask><path d="m9.68785 69.9333c-6.15026-1.7721-7.60095-24.1059-7.55752-35.0513l1.95455-8.8605 78.18122 22.1513c-1.1293 6.4717-3.6484 21.3435-4.6909 29.0574-1.0424 7.7139-6.4282 9.0343-8.9908 8.7302-17.0696-4.604-52.7463-14.255-58.89655-16.0271z" fill="#885352" stroke="#000" stroke-width="3"/><g mask="url(#c)"><path d="m-.475708 27.8457 26.581608 6.1242c-9.0737 24.8015 8.722 41.4479 18.9067 45.5377 3.5744.9773 4.9161 1.3756 2.2023.7195-.6785-.164-1.4178-.4045-2.2023-.7195-8.9196-2.4389-31.7428-8.4835-40.14592-10.7471z" fill="#754540"/><path d="m-9.59692 25.6309 25.93012 4.1696c-6.70573 12.418-1.9083 39.5582 6.7681 44.0661 3.5001.9541 4.7143 1.3201 1.3106.4972-.4457-.1077-.8828-.2749-1.3106-.4972-6.2546-1.7049-19.80868-5.2879-27.35584-7.3209z" fill="#5d322e"/><path d="m-.116136 37.4651-1.859574-.4591v1.9154 5.2121 1.1746l1.14043.2816 84.43578 20.8484 1.8595.4591v-1.9154-5.2121-1.1747l-1.1404-.2815z" fill="#f9ba7c" stroke="#000" stroke-width="3"/><path d="m.404982 51.2771-1.859572-.4591v1.9154 5.2121 1.1747l1.140429.2815 84.435761 20.8484 1.8596.4591v-1.9154-5.2121-1.1746l-1.1405-.2816z" fill="#49dfc5" stroke="#000" stroke-width="3"/><path d="m-9.59692 25.6309 25.93012 4.1696c-6.70573 12.418-1.9083 39.5582 6.7681 44.0661 3.5001.9541 4.7143 1.3201 1.3106.4972-.4457-.1077-.8828-.2749-1.3106-.4972-6.2546-1.7049-19.80868-5.2879-27.35584-7.3209z" fill="#5d322e" opacity=".2"/><path d="m-.606079 28.0605 26.581579 6.1242c-9.0737 24.8016 8.722 41.4479 18.9067 45.5377 3.5744.9774 4.9161 1.3757 2.2023.7196-.6784-.164-1.4178-.4046-2.2023-.7196-8.9196-2.4389-31.7427-8.4834-40.14589-10.747z" fill="#754540" opacity=".2"/><g stroke="#fff" stroke-width="3"><path d="m1.86975 42.957 77.26915 19.0241" stroke-opacity=".5"/><path d="m3.43335 57.0303 77.26915 19.0241" stroke-opacity=".4"/><path d="m3.43335 65.6299 76.22675 20.5877" stroke-opacity=".3"/><path d="m1.60913 34.9209 78.57217 19.5453" stroke-opacity=".3"/></g></g><path d="m9.68785 69.9333c-6.15026-1.7721-7.60095-24.1059-7.55752-35.0513l1.95455-8.8605 78.18122 22.1513c-1.1293 6.4717-3.6484 21.3435-4.6909 29.0574-1.0424 7.7139-6.4282 9.0343-8.9908 8.7302-17.0696-4.604-52.7463-14.255-58.89655-16.0271z" stroke="#000" stroke-width="3"/><g filter="url(#a)"><path d="m9.42722 31.1034c-4.37815-1.1466-6.64541 2.1717-7.29692 4.0394 0 .1737-.1303-.4691-.1303-4.9515 0-5.603 6.90601-11.3363 16.9393-17.7211 10.0332-6.38477 27.4937-9.3817 32.8361-10.29381 5.3424-.91212 7.4272 1.56362 14.7241 10.94541 7.2969 9.3817 14.9848 29.4482 15.6363 30.8815.6515 1.4334 1.1727 5.2121-2.3455 5.4727-3.5181.2606-31.7937-7.9484-36.4845-8.8605-4.6909-.9121-5.7333 2.3454-7.297 3.1272-1.5636.7819-3.1272-.3909-3.7787-2.2151s-2.0849-3.2575-3.1273-4.3c-1.0424-1.0424-14.2029-4.6908-19.67558-6.1242z" fill="#ff7765"/></g><path d="m9.42722 31.1034c-4.37815-1.1466-6.64541 2.1717-7.29692 4.0394 0 .1737-.1303-.4691-.1303-4.9515 0-5.603 6.90601-11.3363 16.9393-17.7211 10.0332-6.38477 27.4937-9.3817 32.8361-10.29381 5.3424-.91212 7.4272 1.56362 14.7241 10.94541 7.2969 9.3817 14.9848 29.4482 15.6363 30.8815.6515 1.4334 1.1727 5.2121-2.3455 5.4727-3.5181.2606-31.7937-7.9484-36.4845-8.8605-4.6909-.9121-5.7333 2.3454-7.297 3.1272-1.5636.7819-3.1272-.3909-3.7787-2.2151s-2.0849-3.2575-3.1273-4.3c-1.0424-1.0424-14.2029-4.6908-19.67558-6.1242z" stroke="#000" stroke-linecap="round" stroke-linejoin="round" stroke-width="3"/><g filter="url(#b)"><circle cx="47.0846" cy="17.6361" fill="#ff2264" r="10.4242"/></g><circle cx="47.0846" cy="17.6361" r="8.92416" stroke="#000" stroke-width="3"/><g fill="#fff"><ellipse cx="49.4299" cy="15.7691" rx="3.64846" ry="4.95148" transform="matrix(.93618843 -.35149854 .35149854 .93618843 -2.388616 18.380789)"/><path d="m122.628 35.0662c.753 0 1.359.2178 1.816.6534.457.4357.685 1.021.685 1.7561v23.1557c0 .7078-.242 1.2796-.726 1.7152s-1.102.6534-1.855.6534-1.358-.2178-1.816-.6534c-.43-.4084-.645-.9529-.645-1.6336v-8.4128c-.592 1.0891-1.452 1.9467-2.582 2.5729-1.102.5989-2.353.8984-3.751.8984-1.721 0-3.241-.422-4.559-1.266-1.317-.844-2.353-2.0419-3.106-3.5938-.726-1.5519-1.089-3.3624-1.089-5.4316 0-2.0691.363-3.8933 1.089-5.4724.753-1.6063 1.789-2.8451 3.106-3.7163 1.345-.8712 2.864-1.3069 4.559-1.3069 1.425 0 2.689.3131 3.792.9393 1.129.599 1.99 1.4566 2.581 2.5729v-1.021c0-.7351.229-1.3204.686-1.7561.457-.4356 1.062-.6534 1.815-.6534zm-7.503 16.744c1.587 0 2.811-.5582 3.671-1.6744.888-1.1163 1.331-2.6954 1.331-4.7373 0-2.0692-.443-3.6619-1.331-4.7782-.86-1.1163-2.098-1.6744-3.711-1.6744-1.587 0-2.824.5718-3.711 1.7152-.888 1.1435-1.332 2.7499-1.332 4.819 0 2.0148.444 3.5802 1.332 4.6965.887 1.089 2.138 1.6336 3.751 1.6336z"/><path d="m133.261 55.4448c-.78 0-1.398-.2178-1.855-.6534-.431-.4356-.646-1.0482-.646-1.8378v-23.809c0-.7896.215-1.4021.646-1.8378.457-.4356 1.075-.6534 1.855-.6534h7.988c4.652 0 8.256 1.266 10.811 3.798 2.581 2.5048 3.872 6.0306 3.872 10.5773 0 4.5739-1.291 8.1269-3.872 10.6589-2.555 2.5048-6.159 3.7572-10.811 3.7572zm7.665-4.2881c6.535 0 9.802-3.376 9.802-10.128 0-6.7248-3.267-10.0872-9.802-10.0872h-4.962v20.2152z"/><path d="m169.281 34.9845c2.743 0 4.773.6943 6.091 2.0828 1.345 1.3613 2.017 3.4441 2.017 6.2484v9.9647c0 .7351-.215 1.3204-.645 1.756-.431.4084-1.022.6126-1.775.6126-.699 0-1.278-.2178-1.735-.6534-.43-.4356-.645-1.0074-.645-1.7152v-.8985c-.457 1.0618-1.184 1.8922-2.179 2.4912-.968.5989-2.097.8984-3.388.8984-1.318 0-2.515-.2722-3.59-.8168-1.076-.5445-1.923-1.2932-2.542-2.2461-.618-.9529-.928-2.0147-.928-3.1854 0-1.4702.363-2.6273 1.09-3.4713.753-.844 1.963-1.4566 3.63-1.8378 1.668-.3811 3.967-.5717 6.898-.5717h1.009v-.9393c0-1.3341-.283-2.3006-.847-2.8996-.565-.6262-1.48-.9393-2.744-.9393-.779 0-1.573.1226-2.38.3676-.806.2178-1.761.5445-2.864.9801-.699.354-1.21.5309-1.533.5309-.484 0-.887-.1769-1.21-.5309-.296-.3539-.444-.8168-.444-1.3885 0-.4628.108-.8576.323-1.1843.242-.354.632-.6807 1.17-.9802.941-.5173 2.057-.9256 3.348-1.2251 1.318-.2995 2.609-.4493 3.873-.4493zm-1.251 17.1115c1.345 0 2.434-.4492 3.268-1.3477.86-.9256 1.291-2.11 1.291-3.5529v-.8577h-.726c-1.802 0-3.201.0817-4.196.2451-.995.1633-1.707.4492-2.138.8576-.43.4084-.645.9665-.645 1.6744 0 .8712.296 1.5927.887 2.1644.619.5446 1.372.8168 2.259.8168z"/><path d="m185.015 55.6898c-.726 0-1.331-.2041-1.815-.6125-.458-.4357-.686-1.0482-.686-1.8378v-15.7638c0-.7895.228-1.3885.686-1.7969.484-.4084 1.089-.6126 1.815-.6126s1.331.2042 1.815.6126.726 1.0074.726 1.7969v15.7638c0 .7896-.242 1.4021-.726 1.8378-.484.4084-1.089.6125-1.815.6125zm0-24.2582c-.914 0-1.641-.2451-2.178-.7351-.538-.5173-.807-1.1844-.807-2.0011 0-.8168.269-1.4702.807-1.9603.537-.4901 1.264-.7351 2.178-.7351.887 0 1.6.245 2.138.7351.565.4901.847 1.1435.847 1.9603 0 .8167-.269 1.4838-.807 2.0011-.538.49-1.264.7351-2.178.7351z"/></g></svg>