<svg id="Layer_1" data-name="Layer 1" xmlns="http://www.w3.org/2000/svg" viewBox="0 0 461 106"><defs><style>.cls-1,.cls-3{isolation:isolate;}.cls-2,.cls-3{fill:#fff;}.cls-3{font-size:54.511px;font-family:FontAwesome, FontAwesome;}.cls-4{fill:none;stroke:#fff;stroke-miterlimit:10;}</style></defs><title>rinkeby-logo</title><g class="cls-1"><g class="cls-1"><path class="cls-2" d="M156.677,40.094l-2.174-.187a9.945,9.945,0,0,0-7.175,2.779,13.835,13.835,0,0,0-3.79,7.772v22h-1.677V38.852h1.677V45.84a12.362,12.362,0,0,1,4.1-5.56,11.12,11.12,0,0,1,6.865-2.05,6.661,6.661,0,0,1,2.36.348Z"/><path class="cls-2" d="M178.957,28.353a1.7,1.7,0,0,1,.5-1.227,1.622,1.622,0,0,1,1.212-.513,1.75,1.75,0,0,1,1.739,1.74,1.625,1.625,0,0,1-.512,1.211,1.7,1.7,0,0,1-1.227.5,1.7,1.7,0,0,1-1.709-1.708ZM181.5,72.46h-1.677V38.852H181.5Z"/><path class="cls-2" d="M210.494,46.679a14.047,14.047,0,0,1,4.845-6.181,11.972,11.972,0,0,1,7.082-2.268q5.4,0,8.03,3.06t2.655,9.24V72.46h-1.677V50.489q-.032-5.4-2.205-7.99t-6.9-2.592A10.461,10.461,0,0,0,214.8,43a15.676,15.676,0,0,0-4.3,7.96v21.5h-1.678V38.852h1.678Z"/></g><g class="cls-1"><path class="cls-2" d="M266.536,54.289l-.061.063L261.6,58.544V72.46h-1.677V24.749H261.6V56.712l3.945-3.728,15.282-14.132h2.392L267.779,53.171l16.4,19.289h-2.175Z"/></g><g class="cls-1"><path class="cls-2" d="M317.767,73.081a13.521,13.521,0,0,1-7.471-2.189,15.025,15.025,0,0,1-5.327-6.011,18.569,18.569,0,0,1-1.926-8.48V55a19.482,19.482,0,0,1,1.864-8.541,14.765,14.765,0,0,1,5.125-6.058,12.571,12.571,0,0,1,7.114-2.174,11.754,11.754,0,0,1,9.194,4.007q3.572,4.006,3.572,10.53v1.77H304.721v1.829a16.872,16.872,0,0,0,1.723,7.581A13.58,13.58,0,0,0,311.2,69.42a11.755,11.755,0,0,0,6.57,1.984,13.385,13.385,0,0,0,5.761-1.126,11.72,11.72,0,0,0,4.209-3.471l1.181.839Q325.159,73.082,317.767,73.081Zm-.621-33.174a10.971,10.971,0,0,0-8.325,3.651,15.544,15.544,0,0,0-4.008,9.3h23.421v-.4A14.2,14.2,0,0,0,326.79,46.1a11.133,11.133,0,0,0-3.976-4.566A10.248,10.248,0,0,0,317.146,39.907Z"/></g><g class="cls-1"><path class="cls-2" d="M379.711,55.966q0,7.858-3.386,12.487a10.822,10.822,0,0,1-9.224,4.628,14.33,14.33,0,0,1-6.772-1.568,11.837,11.837,0,0,1-4.69-4.365V72.46h-1.678V24.749h1.678V44.971a12.451,12.451,0,0,1,4.674-5.033,13.024,13.024,0,0,1,6.725-1.708,10.968,10.968,0,0,1,9.287,4.52q3.386,4.519,3.386,12.688Zm-1.739-.652q0-7.238-2.873-11.322a9.265,9.265,0,0,0-8.03-4.085,11.7,11.7,0,0,0-7.16,2.175,12.269,12.269,0,0,0-4.27,6.461V63.949a11.016,11.016,0,0,0,4.27,5.514,12.811,12.811,0,0,0,7.223,1.941,9.143,9.143,0,0,0,8.014-4.132Q377.971,63.143,377.972,55.314Z"/></g><g class="cls-1"><path class="cls-2" d="M415.068,69.851l.217-.622L426.9,38.852h1.865L413.732,78.3l-.745,1.863q-2.423,5.871-8.014,5.871a6.083,6.083,0,0,1-2.485-.348l-.031-1.609a8.361,8.361,0,0,0,2.268.279,6.382,6.382,0,0,0,4.379-1.533,12.2,12.2,0,0,0,3.013-5l2.05-5.546L400.779,38.852h1.833Z"/></g></g><text class="cls-3" transform="translate(47.14 69.651)"></text><circle class="cls-4" cx="70.501" cy="49.91" r="33.609"/></svg>