<?xml version="1.0" encoding="utf-8"?>
<!-- Generator: Adobe Illustrator 22.1.0, SVG Export Plug-In . SVG Version: 6.00 Build 0)  -->
<svg version="1.1" id="Layer_1" xmlns="http://www.w3.org/2000/svg" xmlns:xlink="http://www.w3.org/1999/xlink" x="0px" y="0px"
	 viewBox="0 0 504 106" style="enable-background:new 0 0 504 106;" xml:space="preserve">
<style type="text/css">
	.st0{enable-background:new    ;}
	.st1{fill:#FFFFFF;}
</style>
<title>testnet-logo</title>
<g class="st0">
	<path class="st1" d="M191.1,43.2c-0.9-0.1-1.8-0.2-2.8-0.2c-3.8,0-6.3,1.6-7.7,4.8v23.8h-5.7V38h5.6l0.1,3.9c1.9-3,4.5-4.5,8-4.5
		c1.1,0,2,0.1,2.5,0.4V43.2z"/>
</g>
<g class="st0">
	<path class="st1" d="M210.3,54.5c0-3.3,0.6-6.2,1.9-8.9c1.3-2.6,3.1-4.6,5.4-6.1c2.3-1.4,4.9-2.1,7.9-2.1c4.6,0,8.3,1.6,11.1,4.7
		c2.8,3.2,4.2,7.4,4.2,12.6v0.4c0,3.3-0.6,6.2-1.9,8.8c-1.3,2.6-3,4.6-5.4,6.1c-2.3,1.4-5,2.2-8,2.2c-4.5,0-8.2-1.6-11-4.7
		c-2.8-3.2-4.2-7.3-4.2-12.6V54.5z M216,55.2c0,3.7,0.9,6.7,2.6,9c1.7,2.3,4,3.4,6.9,3.4c2.9,0,5.2-1.1,6.9-3.4
		c1.7-2.3,2.6-5.5,2.6-9.6c0-3.7-0.9-6.7-2.6-8.9s-4.1-3.4-7-3.4c-2.8,0-5.1,1.1-6.8,3.4C216.9,47.7,216,51,216,55.2z"/>
	<path class="st1" d="M292.5,55.2c0,5.1-1.2,9.2-3.5,12.3c-2.3,3.1-5.5,4.7-9.5,4.7c-4.1,0-7.3-1.3-9.6-3.9v16.1h-5.7V38h5.2
		l0.3,3.7c2.3-2.9,5.6-4.3,9.7-4.3c4,0,7.2,1.5,9.6,4.6c2.3,3,3.5,7.3,3.5,12.7V55.2z M286.8,54.5c0-3.8-0.8-6.8-2.4-9
		s-3.8-3.3-6.6-3.3c-3.5,0-6.1,1.5-7.8,4.6v16c1.7,3.1,4.3,4.6,7.9,4.6c2.7,0,4.9-1.1,6.6-3.3C286,62,286.8,58.8,286.8,54.5z"/>
	<path class="st1" d="M335.6,62.7c0-1.5-0.6-2.8-1.8-3.6c-1.2-0.9-3.2-1.6-6.1-2.2c-2.9-0.6-5.2-1.4-6.9-2.2c-1.7-0.9-3-1.9-3.8-3.1
		c-0.8-1.2-1.2-2.6-1.2-4.3c0-2.7,1.2-5.1,3.5-7c2.3-1.9,5.3-2.9,8.9-2.9c3.8,0,6.9,1,9.3,2.9s3.5,4.5,3.5,7.5h-5.8
		c0-1.6-0.7-2.9-2-4.1c-1.3-1.1-3-1.7-5-1.7c-2.1,0-3.7,0.5-4.9,1.4c-1.2,0.9-1.8,2.1-1.8,3.6c0,1.4,0.5,2.4,1.6,3.1
		c1.1,0.7,3.1,1.4,5.9,2c2.9,0.6,5.2,1.4,7,2.3c1.8,0.9,3.1,2,4,3.2c0.9,1.3,1.3,2.8,1.3,4.6c0,3-1.2,5.4-3.6,7.2
		c-2.4,1.8-5.5,2.7-9.3,2.7c-2.7,0-5.1-0.5-7.1-1.4s-3.7-2.3-4.9-4c-1.2-1.7-1.8-3.5-1.8-5.5h5.7c0.1,1.9,0.9,3.4,2.3,4.6
		c1.4,1.1,3.3,1.7,5.7,1.7c2.2,0,3.9-0.4,5.2-1.3C335,65.3,335.6,64.1,335.6,62.7z"/>
	<path class="st1" d="M372.8,29.9V38h6.3v4.4h-6.3v20.8c0,1.3,0.3,2.4,0.8,3c0.6,0.7,1.5,1,2.9,1c0.7,0,1.6-0.1,2.7-0.4v4.6
		c-1.5,0.4-3,0.6-4.4,0.6c-2.6,0-4.5-0.8-5.8-2.3c-1.3-1.5-2-3.8-2-6.6V42.4H361V38h6.1v-8.1H372.8z"/>
	<path class="st1" d="M416,72.2c-4.5,0-8.2-1.5-11.1-4.5c-2.9-3-4.3-7-4.3-12v-1.1c0-3.3,0.6-6.3,1.9-8.9c1.3-2.6,3-4.7,5.3-6.1
		s4.8-2.2,7.4-2.2c4.4,0,7.7,1.4,10.2,4.3c2.4,2.9,3.6,7,3.6,12.3v2.4h-22.7c0.1,3.3,1,6,2.9,8c1.8,2,4.2,3.1,7.1,3.1
		c2,0,3.7-0.4,5.1-1.2s2.6-1.9,3.7-3.3l3.5,2.7C425.8,70,421.6,72.2,416,72.2z M415.2,42.1c-2.3,0-4.3,0.8-5.8,2.5
		c-1.6,1.7-2.5,4-2.9,7.1h16.8v-0.4c-0.2-2.9-1-5.2-2.4-6.8S417.6,42.1,415.2,42.1z"/>
	<path class="st1" d="M457.3,38l0.2,4.2c2.6-3.2,5.9-4.8,10-4.8c7.1,0,10.7,4,10.7,12v22.2h-5.7V49.4c0-2.4-0.6-4.2-1.7-5.4
		s-2.8-1.7-5.1-1.7c-1.9,0-3.5,0.5-4.9,1.5s-2.5,2.3-3.3,3.9v23.9h-5.7V38H457.3z"/>
</g>
<path class="st1" d="M127.9,33.1H39.8c-1,0-1.8,0.8-1.8,1.8v24.2h44.2c0.6,0,1,0.4,1.2,0.9l4,16h50.4c1,0,1.8-0.8,1.8-1.8
	c0-0.1,0-0.3-0.1-0.4l-9.8-39.3C129.5,33.7,128.7,33.1,127.9,33.1z M51.5,50.1l-2.4-9.5c-0.1-0.3,0.1-0.7,0.4-0.7c0,0,0.1,0,0.1,0
	h9.5c0.3,0,0.5,0.2,0.6,0.5l2.4,9.5c0.1,0.3-0.1,0.7-0.4,0.7c0,0-0.1,0-0.1,0h-9.5C51.8,50.6,51.6,50.4,51.5,50.1L51.5,50.1z
	 M70.3,50.1L68,40.6c-0.1-0.3,0.1-0.7,0.4-0.7c0,0,0.1,0,0.1,0H78c0.3,0,0.5,0.2,0.6,0.5l2.4,9.5c0.1,0.3-0.1,0.7-0.4,0.7
	c0,0-0.1,0-0.1,0h-9.5C70.7,50.6,70.4,50.4,70.3,50.1L70.3,50.1z M101.9,39.8h20.2c0.3,0,0.5,0.2,0.6,0.5l5.1,20.3
	c0.1,0.3-0.1,0.7-0.4,0.7c0,0-0.1,0-0.1,0H107c-0.3,0-0.5-0.2-0.6-0.5l-5.1-20.3c-0.1-0.3,0.1-0.7,0.4-0.7
	C101.8,39.8,101.9,39.8,101.9,39.8z M108.7,70.5l-0.8-3.1c-0.1-0.3,0.1-0.7,0.4-0.7c0,0,0.1,0,0.1,0h3c0.3,0,0.5,0.2,0.6,0.5
	l0.8,3.1c0.1,0.3-0.1,0.7-0.4,0.7c0,0-0.1,0-0.1,0h-3C109,71,108.7,70.8,108.7,70.5L108.7,70.5z M126.1,66.7h3
	c0.3,0,0.5,0.2,0.6,0.5l0.8,3.1c0.1,0.3-0.1,0.7-0.4,0.7c0,0-0.1,0-0.1,0h-3c-0.3,0-0.5-0.2-0.6-0.5l-0.8-3.1
	c-0.1-0.3,0.1-0.7,0.4-0.7C126,66.7,126,66.7,126.1,66.7L126.1,66.7z"/>
<path class="st1" d="M38,67.2v7c0,1,0.8,1.8,1.8,1.8H80l-2.2-8.9H38z"/>
</svg>
