<svg height="30" width="117" xmlns="http://www.w3.org/2000/svg"><g fill="#38a9f5" fill-rule="evenodd" transform="translate(-85 -16)"><path d="m104.226 46h2.786l-4.949-7.486a3.793 3.793 0 0 0 2.36-1.334 3.893 3.893 0 0 0 .941-2.611v-14.625a3.842 3.842 0 0 0 -1.138-2.786 3.766 3.766 0 0 0 -2.789-1.158h-10.874a3.744 3.744 0 0 0 -2.789 1.158 3.843 3.843 0 0 0 -1.138 2.786v14.624a3.921 3.921 0 0 0 .969 2.639 3.589 3.589 0 0 0 2.331 1.3l-4.947 7.493h2.785l.475-.719h15.5zm-1.655-9.924a1.753 1.753 0 0 1 -1.307.523 1.691 1.691 0 0 1 -1.253-.523 1.823 1.823 0 0 1 -.515-1.334 1.851 1.851 0 0 1 .515-1.3 1.647 1.647 0 0 1 1.253-.55 1.707 1.707 0 0 1 1.307.55 1.856 1.856 0 0 1 .513 1.3 1.827 1.827 0 0 1 -.513 1.334zm-13.544-15.764a1.836 1.836 0 0 1 .513-1.337 1.748 1.748 0 0 1 1.306-.521h10.3a1.855 1.855 0 0 1 1.339.521 1.768 1.768 0 0 1 .545 1.337v4.68a1.771 1.771 0 0 1 -.545 1.336 1.85 1.85 0 0 1 -1.339.519h-10.3a1.746 1.746 0 0 1 -1.306-.519 1.826 1.826 0 0 1 -.512-1.336v-4.68zm.4 15.764a1.813 1.813 0 0 1 -.513-1.334 1.84 1.84 0 0 1 .513-1.3 1.718 1.718 0 0 1 1.31-.555 1.665 1.665 0 0 1 1.253.553 1.863 1.863 0 0 1 .513 1.307 1.822 1.822 0 0 1 -.515 1.334 1.694 1.694 0 0 1 -1.251.523 1.764 1.764 0 0 1 -1.312-.528zm.418 6.787 1.289-1.963h9.732l1.3 1.967h-12.323z"/><path d="m122.558 26.6-.264.018a3.921 3.921 0 0 0 -1.674.491 2.792 2.792 0 0 0 -1.125 1.217v-1.019a.668.668 0 0 0 -.209-.518.726.726 0 0 0 -.51-.191.826.826 0 0 0 -.549.191.663.663 0 0 0 -.227.536v7.668a.676.676 0 0 0 .218.536.815.815 0 0 0 .558.191.8.8 0 0 0 .548-.182.684.684 0 0 0 .208-.545v-4.416a2.718 2.718 0 0 1 .615-1.772 2.591 2.591 0 0 1 1.882-.863l.567-.054a.928.928 0 0 0 .587-.209.633.633 0 0 0 .17-.463.608.608 0 0 0 -.795-.618zm9.533 9.158a4.628 4.628 0 0 0 2.307-.563 3.794 3.794 0 0 0 1.541-1.608 5.728 5.728 0 0 0 0-4.851 3.8 3.8 0 0 0 -1.541-1.608 4.632 4.632 0 0 0 -2.307-.563 4.579 4.579 0 0 0 -2.3.563 3.814 3.814 0 0 0 -1.532 1.608 5.728 5.728 0 0 0 0 4.851 3.809 3.809 0 0 0 1.532 1.608 4.575 4.575 0 0 0 2.3.563zm0-1.218a2.569 2.569 0 0 1 -2.09-.872 3.812 3.812 0 0 1 -.728-2.508 3.787 3.787 0 0 1 .737-2.5 2.9 2.9 0 0 1 4.161 0 3.787 3.787 0 0 1 .738 2.5 3.805 3.805 0 0 1 -.729 2.517 2.58 2.58 0 0 1 -2.089.863zm15.092-7.977a3.762 3.762 0 0 0 -1.882.454 2.965 2.965 0 0 0 -1.22 1.29v-.982a.716.716 0 0 0 -.2-.527.754.754 0 0 0 -.558-.2.787.787 0 0 0 -.568.2.7.7 0 0 0 -.208.527v10.956a.674.674 0 0 0 .208.509.786.786 0 0 0 .568.2.775.775 0 0 0 .558-.191.686.686 0 0 0 .2-.518v-4.27a2.961 2.961 0 0 0 1.22 1.29 3.759 3.759 0 0 0 1.882.454 4.022 4.022 0 0 0 2.147-.563 3.811 3.811 0 0 0 1.428-1.59 5.349 5.349 0 0 0 .51-2.407 5.468 5.468 0 0 0 -.51-2.426 3.89 3.89 0 0 0 -1.438-1.626 3.937 3.937 0 0 0 -2.137-.581zm-.3 7.977a2.535 2.535 0 0 1 -2.071-.881 3.824 3.824 0 0 1 -.728-2.5 3.787 3.787 0 0 1 .728-2.489 2.876 2.876 0 0 1 4.152.027 3.831 3.831 0 0 1 .737 2.5 3.718 3.718 0 0 1 -.737 2.471 2.577 2.577 0 0 1 -2.081.872zm13.561 1.218a4.534 4.534 0 0 0 2.647-.7 2.15 2.15 0 0 0 1-1.844 2.184 2.184 0 0 0 -.3-1.2 2.3 2.3 0 0 0 -1.012-.8 9.8 9.8 0 0 0 -2-.6 7.948 7.948 0 0 1 -1.333-.372 1.64 1.64 0 0 1 -.662-.436.99.99 0 0 1 -.2-.645 1.189 1.189 0 0 1 .539-1.018 2.424 2.424 0 0 1 1.428-.381 3.3 3.3 0 0 1 1.173.182 6.087 6.087 0 0 1 1 .509 1.442 1.442 0 0 0 .681.309.473.473 0 0 0 .359-.164.567.567 0 0 0 .152-.4 1.181 1.181 0 0 0 -.643-.908 4.35 4.35 0 0 0 -1.22-.536 5.339 5.339 0 0 0 -1.428-.191 4.583 4.583 0 0 0 -1.825.345 3.043 3.043 0 0 0 -1.258.945 2.224 2.224 0 0 0 -.454 1.381 1.923 1.923 0 0 0 .719 1.581 5.73 5.73 0 0 0 2.383.927 10.613 10.613 0 0 1 1.494.391 1.735 1.735 0 0 1 .719.436.968.968 0 0 1 .208.645 1.1 1.1 0 0 1 -.568 1 3.06 3.06 0 0 1 -1.588.345 4.35 4.35 0 0 1 -1.391-.191 6.4 6.4 0 0 1 -1.125-.518 1.444 1.444 0 0 0 -.662-.273.48.48 0 0 0 -.369.154.558.558 0 0 0 -.141.391.758.758 0 0 0 .141.463 1.848 1.848 0 0 0 .483.409 5.128 5.128 0 0 0 1.39.563 6.689 6.689 0 0 0 1.655.2zm13.92-1.2-.511-.036a1.863 1.863 0 0 1 -1.277-.5 2.046 2.046 0 0 1 -.425-1.444v-4.635h2.1a.712.712 0 0 0 .482-.154.512.512 0 0 0 .18-.409.561.561 0 0 0 -.18-.436.687.687 0 0 0 -.482-.164h-2.1v-2.054a.693.693 0 0 0 -.208-.536.782.782 0 0 0 -.552-.19.808.808 0 0 0 -.567.191.69.69 0 0 0 -.208.536v2.053h-1.267a.715.715 0 0 0 -.5.164.561.561 0 0 0 -.18.436.512.512 0 0 0 .18.409.742.742 0 0 0 .5.154h1.267v4.557a3.255 3.255 0 0 0 .719 2.308 3.273 3.273 0 0 0 2.231.872l.511.036a1.148 1.148 0 0 0 .709-.118.516.516 0 0 0 .237-.463.586.586 0 0 0 -.662-.581zm13.087-.981a1.846 1.846 0 0 0 -.662.273 8.413 8.413 0 0 1 -1.134.518 3.756 3.756 0 0 1 -1.268.191q-2.911 0-3.082-3.125h6.09a.641.641 0 0 0 .491-.164.76.76 0 0 0 .152-.527 4.278 4.278 0 0 0 -1.059-3.053 3.736 3.736 0 0 0 -2.856-1.126 4.389 4.389 0 0 0 -2.26.581 4 4 0 0 0 -1.542 1.626 5.1 5.1 0 0 0 -.548 2.408 4.5 4.5 0 0 0 1.239 3.361 4.6 4.6 0 0 0 3.375 1.218 6.026 6.026 0 0 0 1.476-.191 5.857 5.857 0 0 0 1.437-.572 1.054 1.054 0 0 0 .662-.836.6.6 0 0 0 -.151-.418.475.475 0 0 0 -.36-.163zm-3.309-5.869a2.4 2.4 0 0 1 1.853.718 3.075 3.075 0 0 1 .7 2.062h-5.353a3.256 3.256 0 0 1 .861-2.053 2.624 2.624 0 0 1 1.939-.727zm14.558-1.146a3.929 3.929 0 0 0 -1.853.427 3.038 3.038 0 0 0 -1.267 1.245v-.927a.69.69 0 0 0 -.2-.509.726.726 0 0 0 -.539-.2.784.784 0 0 0 -.567.2.7.7 0 0 0 -.208.527v7.668a.69.69 0 0 0 .208.536.806.806 0 0 0 .567.191.771.771 0 0 0 .558-.191.706.706 0 0 0 .2-.536v-4.434a2.7 2.7 0 0 1 .756-2.017 2.759 2.759 0 0 1 2.024-.745 2.039 2.039 0 0 1 1.6.563 2.666 2.666 0 0 1 .5 1.8v4.833a.69.69 0 0 0 .208.536.809.809 0 0 0 .568.191.775.775 0 0 0 .558-.191.709.709 0 0 0 .2-.536v-4.925q0-3.507-3.31-3.507z"/></g></svg>