<svg id="Layer_1" data-name="Layer 1" xmlns="http://www.w3.org/2000/svg" viewBox="0 0 504 106"><defs><style>.cls-1{font-size:63.476px;font-family:Roboto-Thin, Roboto;letter-spacing:0.246em;}.cls-1,.cls-3{fill:#fff;}.cls-2{letter-spacing:0.256em;}</style></defs><title>testnet-logo</title><text class="cls-1" transform="translate(170.569 71.55)">r<tspan class="cls-2" x="36.861" y="0">opsten</tspan></text><path class="cls-3" d="M127.905,33.111H39.823A1.823,1.823,0,0,0,38,34.933V59.166H82.178a1.214,1.214,0,0,1,1.179.92l4,16h50.38a1.822,1.822,0,0,0,1.768-2.264l-9.833-39.333A1.823,1.823,0,0,0,127.905,33.111Zm-76.365,17-2.382-9.529a.607.607,0,0,1,.589-.755h9.492a.607.607,0,0,1,.589.46l2.383,9.529a.608.608,0,0,1-.59.755H52.129A.606.606,0,0,1,51.54,50.11Zm18.8,0L67.96,40.581a.607.607,0,0,1,.59-.755h9.491a.609.609,0,0,1,.59.46l2.382,9.529a.607.607,0,0,1-.589.755H70.932A.606.606,0,0,1,70.343,50.11ZM101.9,39.826h20.236a.609.609,0,0,1,.59.46L127.8,60.56a.608.608,0,0,1-.589.755H106.97a.608.608,0,0,1-.589-.46l-5.068-20.274A.607.607,0,0,1,101.9,39.826Zm6.769,30.7-.771-3.083a.607.607,0,0,1,.589-.755h3.046a.608.608,0,0,1,.589.46l.771,3.083a.608.608,0,0,1-.59.755H109.26A.607.607,0,0,1,108.671,70.525Zm17.406-3.838h3.045a.609.609,0,0,1,.59.46l.77,3.083a.608.608,0,0,1-.589.755h-3.045a.609.609,0,0,1-.59-.46l-.77-3.083A.607.607,0,0,1,126.077,66.687Z"/><path class="cls-3" d="M38,67.224v7.042a1.823,1.823,0,0,0,1.823,1.822H79.971l-2.216-8.864Z"/></svg>