<svg id="Layer_1" data-name="Layer 1" xmlns="http://www.w3.org/2000/svg" viewBox="0 0 504 106"><defs><style>.cls-1{isolation:isolate;}.cls-2{fill:#fff;}</style></defs><title>ropsten-logo</title><g class="cls-1"><g class="cls-1"><path class="cls-2" d="M190.684,39.254l-2.169-.186a9.924,9.924,0,0,0-7.16,2.772,13.8,13.8,0,0,0-3.781,7.756V71.55H175.9V38.014h1.674v6.974a12.341,12.341,0,0,1,4.091-5.549,11.1,11.1,0,0,1,6.85-2.044,6.666,6.666,0,0,1,2.355.346Z"/></g><g class="cls-1"><path class="cls-2" d="M210.22,54.131a19.635,19.635,0,0,1,1.844-8.632,14.179,14.179,0,0,1,5.207-5.966A13.874,13.874,0,0,1,224.88,37.4a13.8,13.8,0,0,1,12.785,7.964,19.5,19.5,0,0,1,1.906,8.586v1.488a19.763,19.763,0,0,1-1.828,8.647,14.111,14.111,0,0,1-5.192,5.951,13.877,13.877,0,0,1-7.609,2.139,13.88,13.88,0,0,1-12.832-8.013,19.447,19.447,0,0,1-1.89-8.538Zm1.674,1.3a17.623,17.623,0,0,0,1.658,7.671,13.059,13.059,0,0,0,4.617,5.439,12.02,12.02,0,0,0,6.773,1.953,11.626,11.626,0,0,0,9.345-4.308,16.694,16.694,0,0,0,3.61-11.1v-.961a17.462,17.462,0,0,0-1.673-7.624,13.275,13.275,0,0,0-4.634-5.471,11.851,11.851,0,0,0-6.71-1.968,11.6,11.6,0,0,0-9.36,4.37,16.652,16.652,0,0,0-3.626,11Z"/><path class="cls-2" d="M289.573,55.092q0,7.841-3.378,12.46a10.8,10.8,0,0,1-9.206,4.618,14.479,14.479,0,0,1-6.787-1.55,11.637,11.637,0,0,1-4.649-4.277v18.1h-1.674V38.014h1.674V44a12.3,12.3,0,0,1,4.68-4.9,13.119,13.119,0,0,1,6.695-1.7A10.946,10.946,0,0,1,286.2,41.9q3.378,4.509,3.378,12.661Zm-1.7-.651q0-7.221-2.866-11.3a9.273,9.273,0,0,0-8.043-4.076,11.674,11.674,0,0,0-7.16,2.185,12.107,12.107,0,0,0-4.246,6.276V63.212a10.648,10.648,0,0,0,4.261,5.378,13.038,13.038,0,0,0,7.207,1.906,9.2,9.2,0,0,0,8-4.092Q287.868,62.315,287.868,54.441Z"/><path class="cls-2" d="M335.608,63.336q0-6.105-10.414-8.306-6.26-1.332-8.709-3.425a7.164,7.164,0,0,1-2.449-5.75,7.342,7.342,0,0,1,3.115-6.074,12.957,12.957,0,0,1,8.1-2.386,13.683,13.683,0,0,1,8.71,2.587,8.436,8.436,0,0,1,3.285,6.99h-1.7A6.934,6.934,0,0,0,332.7,41.33a11.615,11.615,0,0,0-7.439-2.262,11.409,11.409,0,0,0-6.974,1.921,6.2,6.2,0,0,0-1.611,8.354,8.286,8.286,0,0,0,3.131,2.324,32.1,32.1,0,0,0,6.322,2,27.008,27.008,0,0,1,6.571,2.263,8.879,8.879,0,0,1,3.5,3.084,8.227,8.227,0,0,1,1.085,4.354,7.574,7.574,0,0,1-3.255,6.385A13.935,13.935,0,0,1,325.5,72.17a14.926,14.926,0,0,1-9.1-2.558,7.853,7.853,0,0,1-3.456-6.586h1.674a6.933,6.933,0,0,0,3.115,5.5A13.519,13.519,0,0,0,325.5,70.5a11.9,11.9,0,0,0,7.3-2.092A6.17,6.17,0,0,0,335.608,63.336Z"/><path class="cls-2" d="M366.519,28.964v9.05h7.625v1.674h-7.625V63.515a9.5,9.5,0,0,0,1.162,5.275A4.36,4.36,0,0,0,371.57,70.5a24.059,24.059,0,0,0,3.317-.279l.279,1.581a11.444,11.444,0,0,1-3.5.372q-3.656,0-5.237-2.032t-1.613-6.407V39.688h-6.2V38.014h6.2v-9.05Z"/><path class="cls-2" d="M411.159,72.17a13.492,13.492,0,0,1-7.454-2.186,14.978,14.978,0,0,1-5.315-6,18.52,18.52,0,0,1-1.922-8.462V54.131a19.45,19.45,0,0,1,1.859-8.524,14.747,14.747,0,0,1,5.114-6.044,12.549,12.549,0,0,1,7.1-2.168,11.728,11.728,0,0,1,9.174,4q3.564,4,3.564,10.506v1.767H398.142v1.825a16.85,16.85,0,0,0,1.719,7.565,13.557,13.557,0,0,0,4.743,5.461,11.735,11.735,0,0,0,6.555,1.979,13.329,13.329,0,0,0,5.749-1.124,11.687,11.687,0,0,0,4.2-3.463l1.178.837Q418.535,72.17,411.159,72.17Zm-.62-33.1a10.952,10.952,0,0,0-8.307,3.642,15.512,15.512,0,0,0-4,9.282H421.6v-.4a14.158,14.158,0,0,0-1.441-6.339A11.12,11.12,0,0,0,416.2,40.7,10.219,10.219,0,0,0,410.539,39.068Z"/><path class="cls-2" d="M449.012,45.824a14.017,14.017,0,0,1,4.835-6.167,11.939,11.939,0,0,1,7.066-2.262q5.394,0,8.013,3.052t2.649,9.221V71.55H469.9V49.627q-.03-5.388-2.2-7.974t-6.881-2.585a10.431,10.431,0,0,0-7.515,3.081,15.643,15.643,0,0,0-4.293,7.942V71.55h-1.674V38.014h1.674Z"/></g></g><path class="cls-2" d="M127.905,33.111H39.823A1.824,1.824,0,0,0,38,34.933V59.166H82.178a1.213,1.213,0,0,1,1.179.92l4,16h50.38a1.824,1.824,0,0,0,1.768-2.264l-9.833-39.333A1.823,1.823,0,0,0,127.905,33.111Zm-76.365,17-2.382-9.529a.606.606,0,0,1,.589-.755h9.492a.607.607,0,0,1,.589.46l2.383,9.529a.608.608,0,0,1-.59.755H52.129a.606.606,0,0,1-.589-.461Zm18.8,0-2.38-9.53a.608.608,0,0,1,.441-.737.626.626,0,0,1,.149-.018h9.491a.609.609,0,0,1,.59.46l2.382,9.529a.606.606,0,0,1-.589.755H70.932a.606.606,0,0,1-.589-.46ZM101.9,39.826h20.236a.609.609,0,0,1,.59.46L127.8,60.56a.608.608,0,0,1-.443.737.6.6,0,0,1-.146.018H106.97a.608.608,0,0,1-.589-.46l-5.068-20.274a.606.606,0,0,1,.587-.755Zm6.769,30.7-.771-3.083a.606.606,0,0,1,.589-.755h3.046a.608.608,0,0,1,.589.46l.771,3.083a.608.608,0,0,1-.59.755H109.26a.606.606,0,0,1-.589-.461Zm17.406-3.838h3.045a.609.609,0,0,1,.59.46l.77,3.083a.608.608,0,0,1-.443.737.6.6,0,0,1-.146.018h-3.045a.609.609,0,0,1-.59-.46l-.77-3.083a.608.608,0,0,1,.591-.756Z"/><path class="cls-2" d="M38,67.224v7.042a1.824,1.824,0,0,0,1.823,1.822H79.971l-2.216-8.864Z"/></svg>