<svg id="_-e-logo_top_rsk" data-name="-e-logo_top_rsk" xmlns="http://www.w3.org/2000/svg" width="76.406" height="40" viewBox="0 0 76.406 40">
  <metadata><?xpacket begin="﻿" id="W5M0MpCehiHzreSzNTczkc9d"?>
<x:xmpmeta xmlns:x="adobe:ns:meta/" x:xmptk="Adobe XMP Core 5.6-c140 79.160451, 2017/05/06-01:08:21        ">
   <rdf:RDF xmlns:rdf="http://www.w3.org/1999/02/22-rdf-syntax-ns#">
      <rdf:Description rdf:about=""/>
   </rdf:RDF>
</x:xmpmeta>
                                                                                                    
                                                                                                    
                                                                                                    
                                                                                                    
                                                                                                    
                                                                                                    
                                                                                                    
                                                                                                    
                                                                                                    
                                                                                                    
                                                                                                    
                                                                                                    
                                                                                                    
                                                                                                    
                                                                                                    
                                                                                                    
                                                                                                    
                                                                                                    
                                                                                                    
                                                                                                    
                           
<?xpacket end="w"?></metadata>
<defs>
    <style>
      .cls-1 {
        fill: #27aa8b;
      }

      .cls-1, .cls-2 {
        fill-rule: evenodd;
      }

      .cls-2 {
        fill: #27ac8d;
      }
    </style>
  </defs>
  <path id="Эллипс_1" data-name="Эллипс 1" class="cls-1" d="M103,11a4.03,4.03,0,1,1-3.952,4.03A3.991,3.991,0,0,1,103,11Zm0,31.944a4.028,4.028,0,1,1-3.954,4.028A3.992,3.992,0,0,1,103,42.944ZM88.955,19.056A4.028,4.028,0,1,1,85,23.083,3.992,3.992,0,0,1,88.955,19.056Zm0,15.833A4.028,4.028,0,1,1,85,38.917,3.992,3.992,0,0,1,88.955,34.889Zm28.091-15.833a4.028,4.028,0,1,1-3.954,4.028A3.991,3.991,0,0,1,117.045,19.056Zm0,15.833a4.028,4.028,0,1,1-3.954,4.028A3.991,3.991,0,0,1,117.045,34.889Zm-1.093-8.2h2.178v8.9h-2.178v-8.9Zm-28.082,0h2.178v8.9H87.87v-8.9Zm17.386-9.106,1.091-1.924,9.672,5.687-1.091,1.924Zm-4.3.067-1.092-1.931-9.679,5.707,1.092,1.931Zm-0.035,26.994-1.089,1.909-9.648-5.642L91.27,39Zm4.292-.067L106.3,46.5l9.656-5.662-1.09-1.916Zm-4.292-15.767-1.089,1.909L90.182,25.08l1.088-1.909Zm4.292-.067,1.089,1.916L115.955,25l-1.09-1.916Zm0.009,4.718,1.088-1.909,9.648,5.642-1.089,1.909Zm-4.293.067-1.089-1.916-9.655,5.662,1.089,1.916Zm0.978-16H104.1v8.882H101.9V17.529Zm0,16.941H104.1v8.9H101.9v-8.9ZM103,24.056s4.364,3.632,4.364,7.083S103,38.222,103,38.222s-4.364-3.632-4.364-7.083S103,24.056,103,24.056Zm0,2.639s2.727,2.279,2.727,4.444S103,35.583,103,35.583s-2.727-2.279-2.727-4.444S103,26.694,103,26.694Zm0,4.173a1.1,1.1,0,0,1,1.1,1.1v6.69a1.1,1.1,0,1,1-2.192,0v-6.69A1.1,1.1,0,0,1,103,30.868Zm-14.046-9.59a1.806,1.806,0,1,1-1.773,1.806A1.789,1.789,0,0,1,88.955,21.278ZM103,12.945a1.806,1.806,0,1,1-1.773,1.806A1.79,1.79,0,0,1,103,12.945Zm14.045,8.333a1.806,1.806,0,1,1-1.772,1.806A1.789,1.789,0,0,1,117.045,21.278Zm0,15.833a1.806,1.806,0,1,1-1.772,1.806A1.789,1.789,0,0,1,117.045,37.111ZM103,45.167a1.806,1.806,0,1,1-1.773,1.806A1.79,1.79,0,0,1,103,45.167ZM88.955,37.111a1.806,1.806,0,1,1-1.773,1.806A1.789,1.789,0,0,1,88.955,37.111Z" transform="translate(-85 -11)"/>
  <path id="rsk" class="cls-2" d="M134.057,37.863V29.487l0.528-.216a16.858,16.858,0,0,1,3.528-1.056V25.6a11.416,11.416,0,0,0-4.08,1.7v-1.44h-2.592v12h2.616Zm14.424-11.712-0.744-.144a22.876,22.876,0,0,0-3.768-.384,5.371,5.371,0,0,0-3.228.912,3.183,3.183,0,0,0-1.26,2.76,3.029,3.029,0,0,0,.912,2.544,6.571,6.571,0,0,0,2.868,1.02,10.246,10.246,0,0,1,2.472.6,1.029,1.029,0,0,1,.516,1,1.1,1.1,0,0,1-.54,1.032,3.843,3.843,0,0,1-1.812.312,35.663,35.663,0,0,1-4.152-.384l-0.1,2.184,0.744,0.12a21.326,21.326,0,0,0,3.7.408,5.941,5.941,0,0,0,3.54-.888,3.22,3.22,0,0,0,1.212-2.784,3.412,3.412,0,0,0-.84-2.64,5.863,5.863,0,0,0-2.844-1.092,12.128,12.128,0,0,1-2.544-.612,0.932,0.932,0,0,1-.54-0.912,1.029,1.029,0,0,1,.492-0.948,3.661,3.661,0,0,1,1.764-.3,34.588,34.588,0,0,1,4.1.384Zm5.5,6.816,1.56-.168,2.928,5.064h2.952l-3.648-6.384,3.456-5.616H158.3l-2.832,4.68-1.488.144V20.871h-2.616V37.863h2.616v-4.9Z" transform="translate(-85 -11)"/>
</svg>
