<svg xmlns="http://www.w3.org/2000/svg" width="85" height="40">
    <path fill="#27AA8B" fill-rule="evenodd" d="M84.986 28.636H80.95l-4.003-7.046-2.133.234v6.812h-3.576V4.995h3.576v13.657l2.035-.2 3.871-6.512h4.003l-4.725 7.814 4.988 8.882zm-22.229-9.934c1.826.323 3.122.83 3.888 1.519.765.69 1.148 1.915 1.148 3.673 0 1.759-.553 3.05-1.657 3.874-1.105.823-2.718 1.235-4.84 1.235-1.334 0-3.018-.189-5.052-.568l-1.018-.166.132-3.039c2.625.356 4.516.534 5.676.534 1.159 0 1.985-.144 2.477-.434.492-.289.738-.768.738-1.436 0-.667-.235-1.129-.705-1.385-.471-.256-1.597-.535-3.379-.835-1.784-.301-3.09-.773-3.921-1.419-.832-.646-1.247-1.825-1.247-3.54 0-1.714.574-2.994 1.722-3.84 1.149-.846 2.62-1.269 4.413-1.269 1.4 0 3.117.179 5.152.535l1.017.2-.066 3.039c-2.581-.356-4.451-.535-5.61-.535-1.16 0-1.964.14-2.412.418-.449.278-.673.718-.673 1.319s.246 1.024.739 1.268c.492.246 1.651.529 3.478.852zm-15.175-1.72v11.654h-3.577V11.94h3.544v2.004c1.859-1.224 3.718-2.015 5.578-2.371v3.64c-1.882.378-3.489.868-4.823 1.469l-.722.3zM36 27.917c0 2.224-1.77 4.027-3.955 4.027a3.9 3.9 0 0 1-2.747-1.138l-7.433 4.358c.053.262.09.53.09.808C21.955 38.197 20.184 40 18 40s-3.955-1.803-3.955-4.028c0-.283.038-.555.093-.82l-7.434-4.348a3.9 3.9 0 0 1-2.749 1.14C1.77 31.944 0 30.141 0 27.917a4.004 4.004 0 0 1 2.875-3.857v-8.12A4.004 4.004 0 0 1 0 12.083c0-2.224 1.77-4.027 3.955-4.027 1.175 0 2.219.532 2.943 1.361L14.22 5.1a4.098 4.098 0 0 1-.158-1.069C14.062 1.805 15.825 0 18 0c2.175 0 3.938 1.805 3.938 4.031 0 .315-.044.618-.111.912l7.382 4.341a3.905 3.905 0 0 1 2.836-1.228C34.23 8.056 36 9.859 36 12.083a4.004 4.004 0 0 1-2.875 3.857v8.12A4.004 4.004 0 0 1 36 27.917zm-7.781.967a4.062 4.062 0 0 1-.128-.967c0-.275.028-.543.079-.802l-6.743-3.944c-.685 1.21-1.613 2.281-2.333 3.019V32.12c.678.2 1.276.584 1.752 1.087l7.373-4.323zM18 19.875c.604 0 1.094.49 1.094 1.094v2.523c.759-.864 1.633-2.126 1.633-3.353 0-2.166-2.727-4.445-2.727-4.445s-2.727 2.279-2.727 4.445c0 1.227.874 2.489 1.633 3.353v-2.523c0-.604.49-1.094 1.094-1.094zm0 17.903c.979 0 1.773-.809 1.773-1.806s-.794-1.805-1.773-1.805c-.979 0-1.773.808-1.773 1.805 0 .997.794 1.806 1.773 1.806zm-2.842-4.576a3.968 3.968 0 0 1 1.748-1.082V26.19c-.697-.715-1.591-1.74-2.27-2.902L7.845 27.27c.034.212.064.425.064.647 0 .336-.052.658-.129.97l7.378 4.315zM2.182 27.917c0 .997.793 1.805 1.773 1.805.979 0 1.772-.808 1.772-1.805 0-.998-.793-1.806-1.772-1.806-.98 0-1.773.808-1.773 1.806zm1.773-17.639c-.98 0-1.773.808-1.773 1.805 0 .998.793 1.806 1.773 1.806.979 0 1.772-.808 1.772-1.806 0-.997-.793-1.805-1.772-1.805zm2.749 4.693a3.952 3.952 0 0 1-1.641.959v8.143c.72.221 1.36.63 1.846 1.191l6.872-4.029a4.74 4.74 0 0 1-.145-1.096c0-.345.054-.692.133-1.037l-7.065-4.131zm8.655-7.968l-7.514 4.43c.034.213.064.428.064.65 0 .337-.052.659-.129.971l6.825 3.992c.684-1.187 1.593-2.229 2.301-2.955V7.883a3.952 3.952 0 0 1-1.547-.88zM18 1.944c-.979 0-1.773.809-1.773 1.806S17.021 5.556 18 5.556c.979 0 1.773-.809 1.773-1.806S18.979 1.944 18 1.944zm10.179 9.301L20.774 6.89c-.46.469-1.04.804-1.68.995v6.206c.709.727 1.619 1.771 2.303 2.96l6.822-4a4.063 4.063 0 0 1-.128-.968c0-.288.032-.567.088-.838zm1.119 3.727l-7.064 4.142c.077.341.13.684.13 1.025 0 .321-.049.644-.117.966l6.93 4.053a3.953 3.953 0 0 1 1.76-1.086V15.93a3.943 3.943 0 0 1-1.639-.958zm4.52-2.889c0-.997-.793-1.805-1.773-1.805a1.75 1.75 0 0 0-1.364.665l-.294.519a1.83 1.83 0 0 0-.114.621c0 .998.793 1.806 1.772 1.806.98 0 1.773-.808 1.773-1.806zm-1.773 14.028c-.979 0-1.772.808-1.772 1.806 0 .997.793 1.805 1.772 1.805.98 0 1.773-.808 1.773-1.805 0-.998-.793-1.806-1.773-1.806z"/>
</svg>
