<svg width="1448" height="28" viewBox="0 0 1448 28" fill="none" xmlns="http://www.w3.org/2000/svg">
<g filter="url(#filter0_d_57_467)">
<path d="M73.3976 86.6842C73.3976 77.1093 81.1652 69.3474 90.747 69.3474H350.988V0H90.747C42.838 0 4 38.8098 4 86.6842C4 134.559 42.838 173.368 90.747 173.368L264.241 173.368C273.823 173.368 281.59 181.13 281.59 190.705C281.59 200.28 273.823 208.042 264.241 208.042L4.00001 208.042L4 277.389L264.241 277.389C312.15 277.389 350.988 238.58 350.988 190.705C350.988 142.831 312.15 104.021 264.241 104.021L90.747 104.021C81.1652 104.021 73.3976 96.2591 73.3976 86.6842Z" fill="white"/>
<path fill-rule="evenodd" clip-rule="evenodd" d="M645.928 277.389V173.368L437.735 173.368V277.389H368.337V86.6842C368.337 38.8098 407.175 6.61348e-06 455.084 6.61348e-06L628.578 0C676.487 3.30674e-06 715.325 38.8099 715.325 86.6842V277.389H645.928ZM455.084 69.3474L628.578 69.3474C638.16 69.3474 645.928 77.1093 645.928 86.6842V104.021L437.735 104.021V86.6842C437.735 77.1093 445.503 69.3474 455.084 69.3474Z" fill="white"/>
<path fill-rule="evenodd" clip-rule="evenodd" d="M1374.6 173.368V277.389H1444V86.6842C1444 38.8099 1405.16 3.30674e-06 1357.25 0L1183.76 6.61348e-06C1135.85 6.61348e-06 1097.01 38.8098 1097.01 86.6842V277.389H1166.41V173.368L1374.6 173.368ZM1357.25 69.3474L1183.76 69.3474C1174.18 69.3474 1166.41 77.1093 1166.41 86.6842V104.021L1374.6 104.021V86.6842C1374.6 77.1093 1366.83 69.3474 1357.25 69.3474Z" fill="white"/>
<path d="M802.072 86.6842C802.072 77.1093 809.84 69.3474 819.422 69.3474H1079.66V0H819.422C771.513 0 732.675 38.8098 732.675 86.6842V190.705C732.675 238.58 771.513 277.389 819.422 277.389H992.916C1040.82 277.389 1079.66 238.58 1079.66 190.705V104.021H1010.27V190.705C1010.27 200.28 1002.5 208.042 992.916 208.042H819.422C809.84 208.042 802.072 200.28 802.072 190.705V86.6842Z" fill="white"/>
</g>
<defs>
<filter id="filter0_d_57_467" x="0" y="0" width="1448" height="285.389" filterUnits="userSpaceOnUse" color-interpolation-filters="sRGB">
<feFlood flood-opacity="0" result="BackgroundImageFix"/>
<feColorMatrix in="SourceAlpha" type="matrix" values="0 0 0 0 0 0 0 0 0 0 0 0 0 0 0 0 0 0 127 0" result="hardAlpha"/>
<feOffset dy="4"/>
<feGaussianBlur stdDeviation="2"/>
<feComposite in2="hardAlpha" operator="out"/>
<feColorMatrix type="matrix" values="0 0 0 0 0 0 0 0 0 0 0 0 0 0 0 0 0 0 0.25 0"/>
<feBlend mode="normal" in2="BackgroundImageFix" result="effect1_dropShadow_57_467"/>
<feBlend mode="normal" in="SourceGraphic" in2="effect1_dropShadow_57_467" result="shape"/>
</filter>
</defs>
</svg>
