<?xml version="1.0" encoding="UTF-8" standalone="no"?>
<!DOCTYPE svg PUBLIC "-//W3C//DTD SVG 1.1//EN" "http://www.w3.org/Graphics/SVG/1.1/DTD/svg11.dtd">
<svg height="28" stroke-miterlimit="10" style="fill-rule:nonzero;clip-rule:evenodd;stroke-linecap:round;stroke-linejoin:round;" version="1.1" viewBox="0 0 145 28" width="145" xml:space="preserve" xmlns="http://www.w3.org/2000/svg" xmlns:vectornator="http://vectornator.io" xmlns:xlink="http://www.w3.org/1999/xlink">
<defs/>
<clipPath id="ArtboardFrame">
<rect height="28" width="145" x="0" y="0"/>
</clipPath>
<g clip-path="url(#ArtboardFrame)" id="Untitled" vectornator:layerName="Untitled">
<g opacity="1">
<path d="M6.98795 8.75001C6.98795 7.78351 7.77011 7.00002 8.73494 7.00002L34.9398 7.00002L34.9398 0L8.73494 0C3.91077 0 0 3.91751 0 8.75001C0 13.5826 3.91077 17.5 8.73494 17.5L26.2048 17.5C27.1697 17.5 27.9518 18.2835 27.9518 19.25C27.9518 20.2165 27.1697 21 26.2048 21L1.00694e-06 21L0 28L26.2048 28C31.029 28 34.9398 24.0826 34.9398 19.25C34.9398 14.4175 31.029 10.5 26.2048 10.5L8.73494 10.5C7.77011 10.5 6.98795 9.71652 6.98795 8.75001Z" fill="#ffffff" fill-rule="nonzero" opacity="1" stroke="none"/>
<path d="M64.6386 28L64.6386 17.5L43.6747 17.5L43.6747 28L36.6867 28L36.6867 8.75001C36.6867 3.91751 40.5975 6.67573e-07 45.4217 6.67573e-07L62.8915 0C67.7157 3.33787e-07 71.6265 3.91752 71.6265 8.75001L71.6265 28L64.6386 28ZM45.4217 7.00002L62.8915 7.00002C63.8564 7.00002 64.6386 7.78351 64.6386 8.75001L64.6386 10.5L43.6747 10.5L43.6747 8.75001C43.6747 7.78351 44.4569 7.00002 45.4217 7.00002Z" fill="#ffffff" fill-rule="evenodd" opacity="1" stroke="none"/>
<path d="M138.012 17.5L138.012 28L145 28L145 8.75001C145 3.91752 141.089 3.33787e-07 136.265 0L118.795 6.67573e-07C113.971 6.67573e-07 110.06 3.91751 110.06 8.75001L110.06 28L117.048 28L117.048 17.5L138.012 17.5ZM136.265 7.00002L118.795 7.00002C117.831 7.00002 117.048 7.78351 117.048 8.75001L117.048 10.5L138.012 10.5L138.012 8.75001C138.012 7.78351 137.229 7.00002 136.265 7.00002Z" fill="#ffffff" fill-rule="evenodd" opacity="1" stroke="none"/>
<path d="M80.3614 8.75001C80.3614 7.78351 81.1436 7.00002 82.1085 7.00002L108.313 7.00002L108.313 0L82.1085 0C77.2843 0 73.3735 3.91751 73.3735 8.75001L73.3735 19.25C73.3735 24.0826 77.2843 28 82.1085 28L99.5783 28C104.402 28 108.313 24.0826 108.313 19.25L108.313 10.5L101.326 10.5L101.326 19.25C101.326 20.2165 100.543 21 99.5783 21L82.1085 21C81.1436 21 80.3614 20.2165 80.3614 19.25L80.3614 8.75001Z" fill="#ffffff" fill-rule="nonzero" opacity="1" stroke="none"/>
</g>
</g>
</svg>
