<svg id="Layer_1" data-name="Layer 1" xmlns="http://www.w3.org/2000/svg" viewBox="0 0 541.5 80">
  <defs>
    <style>
      .cls-1 {
        stroke-width: 0px;
      }
    </style>
  </defs>
  <path class="cls-1" d="m34.99,79.57c-6,0-11.12-1.03-15.35-3.07-4.23-2.05-7.68-4.76-10.35-8.13l7.9-8.2c2.6,3,5.42,5.22,8.45,6.65,3.03,1.43,6.28,2.15,9.75,2.15,4,0,7.07-.91,9.2-2.72,2.13-1.81,3.2-4.43,3.2-7.86,0-2.82-.8-4.96-2.4-6.4-1.6-1.44-4.3-2.47-8.1-3.07l-7.4-1.2c-6.47-1.13-11.07-3.48-13.8-7.04-2.73-3.56-4.1-7.77-4.1-12.63,0-6.66,2.17-11.77,6.5-15.33,4.33-3.56,10.33-5.34,18-5.34,5.47,0,10.18.86,14.15,2.58,3.97,1.72,7.15,4.06,9.55,7.03l-7.7,8.19c-1.87-2.2-4.1-3.95-6.7-5.25-2.6-1.3-5.67-1.95-9.2-1.95-7.6,0-11.4,3.16-11.4,9.48,0,2.69.8,4.74,2.4,6.15,1.6,1.41,4.33,2.45,8.2,3.12l7.3,1.3c6.07,1.13,10.57,3.36,13.5,6.69,2.93,3.33,4.4,7.59,4.4,12.78,0,3.26-.57,6.24-1.7,8.94-1.13,2.7-2.8,5.03-5,6.99-2.2,1.96-4.92,3.48-8.15,4.54-3.23,1.07-6.95,1.6-11.15,1.6Z"/>
  <path class="cls-1" d="m110.69,78.37l-4.9-17.8h-20.7l-4.8,17.8h-13.2L86.69,8.57h18.2l19.7,69.8h-13.9Zm-14.8-56.9h-.8l-7.7,28.5h16.2l-7.7-28.5Z"/>
  <path class="cls-1" d="m162.29,19.37v59h-13V19.37h-21v-10.8h55v10.8h-21Z"/>
  <path class="cls-1" d="m215.79,79.57c-4.53,0-8.47-.82-11.8-2.45-3.33-1.63-6.08-3.98-8.25-7.05-2.17-3.07-3.77-6.83-4.8-11.3-1.03-4.47-1.55-9.57-1.55-15.3s.52-10.75,1.55-15.25c1.03-4.5,2.63-8.28,4.8-11.35,2.17-3.07,4.92-5.42,8.25-7.05,3.33-1.63,7.27-2.45,11.8-2.45,9.07,0,15.73,3.17,20,9.5,4.27,6.33,6.4,15.2,6.4,26.6s-2.13,20.27-6.4,26.6c-4.27,6.33-10.93,9.5-20,9.5Zm0-10.6c2.33,0,4.3-.45,5.9-1.35,1.6-.9,2.88-2.19,3.85-3.87.97-1.67,1.67-3.73,2.1-6.17.43-2.44.65-5.17.65-8.18v-11.95c0-6.02-.92-10.77-2.75-14.26-1.83-3.48-5.08-5.22-9.75-5.22s-7.92,1.74-9.75,5.22c-1.83,3.48-2.75,8.23-2.75,14.26v12.05c0,6.02.92,10.78,2.75,14.26,1.83,3.48,5.08,5.22,9.75,5.22Z"/>
  <path class="cls-1" d="m274.99,79.57c-6,0-11.12-1.03-15.35-3.07-4.23-2.05-7.68-4.76-10.35-8.13l7.9-8.2c2.6,3,5.42,5.22,8.45,6.65,3.03,1.43,6.28,2.15,9.75,2.15,4,0,7.07-.91,9.2-2.72,2.13-1.81,3.2-4.43,3.2-7.86,0-2.82-.8-4.96-2.4-6.4-1.6-1.44-4.3-2.47-8.1-3.07l-7.4-1.2c-6.47-1.13-11.07-3.48-13.8-7.04-2.73-3.56-4.1-7.77-4.1-12.63,0-6.66,2.17-11.77,6.5-15.33,4.33-3.56,10.33-5.34,18-5.34,5.47,0,10.18.86,14.15,2.58,3.97,1.72,7.15,4.06,9.55,7.03l-7.7,8.19c-1.87-2.2-4.1-3.95-6.7-5.25-2.6-1.3-5.67-1.95-9.2-1.95-7.6,0-11.4,3.16-11.4,9.48,0,2.69.8,4.74,2.4,6.15,1.6,1.41,4.33,2.45,8.2,3.12l7.3,1.3c6.07,1.13,10.57,3.36,13.5,6.69,2.93,3.33,4.4,7.59,4.4,12.78,0,3.26-.57,6.24-1.7,8.94-1.13,2.7-2.8,5.03-5,6.99-2.2,1.96-4.92,3.48-8.15,4.54-3.23,1.07-6.95,1.6-11.15,1.6Z"/>
  <path class="cls-1" d="m345.99,48.37h-20.4v30h-13.1V8.57h13.1v29h20.4V8.57h13.1v69.8h-13.1v-30Z"/>
  <path class="cls-1" d="m395.79,79.47c-3.47,0-5.93-.73-7.4-2.2-1.47-1.47-2.2-3.27-2.2-5.4v-3c0-2.13.73-3.93,2.2-5.4,1.47-1.47,3.93-2.2,7.4-2.2s5.93.73,7.4,2.2c1.46,1.47,2.2,3.27,2.2,5.4v3c0,2.13-.73,3.93-2.2,5.4-1.47,1.47-3.93,2.2-7.4,2.2Z"/>
  <path class="cls-1" d="m433.59,78.37v-9.8h15.7V18.37h-15.7v-9.8h44.4v9.8h-15.7v50.2h15.7v9.8h-44.4Z"/>
  <path class="cls-1" d="m494.09,78.37V8.57h44.1v10.8h-31v18.2h29.9v10.8h-29.9v19.2h31v10.8h-44.1Z"/>
</svg>