<svg height="60" viewBox="0 0 298 60" width="298" xmlns="http://www.w3.org/2000/svg"><g fill="#fff"><path d="m80.69 21.26a4.35 4.35 0 0 0 -4 2.46 14.76 14.76 0 0 0 -1.38 7.12 12.8 12.8 0 0 0 1.55 6.85 5 5 0 0 0 4.43 2.46 8.47 8.47 0 0 0 3.96-1.15v-1.5a8.84 8.84 0 0 1 -3.87 1.12 3.54 3.54 0 0 1 -3.3-2c-.73-1.32-1.1-3.3-1.12-6.32h9v-1.08a17.24 17.24 0 0 0 -1.74-5.81 4 4 0 0 0 -3.53-2.15zm-3.69 8.31q.31-6.57 3.59-6.57a2.76 2.76 0 0 1 2.47 1.78 10.53 10.53 0 0 1 .94 4.79z"/><path d="m102.23 38a5.22 5.22 0 0 1 -.39-2.43v-12.79h3v-1.51h-3v-3.77h-1l-.48 4.55-1.5.49v1h1.51v12.91q0 4.21 2.71 4.21a4.3 4.3 0 0 0 1.82-.33v-1.9a3.83 3.83 0 0 1 -1.27.19 1.46 1.46 0 0 1 -1.4-.62z"/><path d="m123.94 21.42a4 4 0 0 0 -2.28.75 4.52 4.52 0 0 0 -1.66 2.12h-.14q.07-.78.07-1.95v-8.61h-1.51v26.41h1.58v-10a11.14 11.14 0 0 1 1-5.4 3.23 3.23 0 0 1 3-1.71 2.37 2.37 0 0 1 2.16 1 6.79 6.79 0 0 1 .66 3.5v12.61h1.51v-12.67a8.44 8.44 0 0 0 -1-4.54 3.65 3.65 0 0 0 -3.39-1.51z"/><path d="m147.89 21.26a4.35 4.35 0 0 0 -4 2.46 14.76 14.76 0 0 0 -1.38 7.12 12.78 12.78 0 0 0 1.55 6.85 4.94 4.94 0 0 0 4.43 2.46 8.15 8.15 0 0 0 3.91-1.15v-1.5a8.5 8.5 0 0 1 -3.82 1.12 3.54 3.54 0 0 1 -3.3-2c-.73-1.32-1.1-3.3-1.12-6.32h9v-1.08a16.28 16.28 0 0 0 -1.69-5.81 4 4 0 0 0 -3.58-2.15zm-3.71 8.31q.32-6.55 3.6-6.55a2.76 2.76 0 0 1 2.47 1.78 10.53 10.53 0 0 1 .91 4.78z"/><path d="m169 25h-.11l-.16-3h-1.24v18.14h1.51v-9.7a15.46 15.46 0 0 1 .43-3.76 7.06 7.06 0 0 1 1.17-2.68 2.11 2.11 0 0 1 1.63-1 2.87 2.87 0 0 1 1.17.25l.36-1.6a4.67 4.67 0 0 0 -1.5-.24q-2.06.08-3.26 3.59z"/><path d="m191 22.77a5.15 5.15 0 0 1 2.92.92l.82-1.39a6.22 6.22 0 0 0 -3.67-1 4.65 4.65 0 0 0 -3.37 1.28 4.32 4.32 0 0 0 -1.32 3.24 5.21 5.21 0 0 0 .38 2.08 5.32 5.32 0 0 0 1.06 1.58 14.85 14.85 0 0 0 2.54 1.88 8.16 8.16 0 0 1 2.21 1.88 3.48 3.48 0 0 1 .58 2 3.63 3.63 0 0 1 -.8 2.46 2.79 2.79 0 0 1 -2.22.92 6 6 0 0 1 -2.1-.38 4.48 4.48 0 0 1 -1.64-1v1.86a5.3 5.3 0 0 0 1.46.7 6.79 6.79 0 0 0 2.18.32 4.52 4.52 0 0 0 3.49-1.3 5.08 5.08 0 0 0 1.21-3.6 5.6 5.6 0 0 0 -.33-2 4.75 4.75 0 0 0 -1-1.58 15.12 15.12 0 0 0 -2.48-1.9 8.74 8.74 0 0 1 -2.42-2 3.42 3.42 0 0 1 -.57-2 2.94 2.94 0 0 1 .84-2.19 3 3 0 0 1 2.23-.78z"/><path d="m213.32 21.26q-5.56 0-5.56 9.4a14.18 14.18 0 0 0 1.41 7 4.47 4.47 0 0 0 4.08 2.44 4.58 4.58 0 0 0 4.15-2.44 13.9 13.9 0 0 0 1.45-7 13.69 13.69 0 0 0 -1.46-6.94 4.52 4.52 0 0 0 -4.07-2.46zm0 17.37a3.08 3.08 0 0 1 -2.94-2 14.67 14.67 0 0 1 -.94-6 14.73 14.73 0 0 1 .91-5.92 3.07 3.07 0 0 1 3-2q3.9 0 3.9 7.9t-3.96 8.02z"/><path d="m238.09 22.77a5 5 0 0 1 2.06.52l.62-1.41a5.78 5.78 0 0 0 -2.82-.62 4.49 4.49 0 0 0 -4.13 2.44 14.51 14.51 0 0 0 -1.4 7.1 14.07 14.07 0 0 0 1.38 7 4.48 4.48 0 0 0 4.12 2.37 6.87 6.87 0 0 0 1.39-.17 4.94 4.94 0 0 0 1.36-.47v-1.37a7.24 7.24 0 0 1 -2.58.53q-4 0-4-7.93t4-7.99z"/><path d="m255.46 15a1 1 0 0 0 -.8.42 2 2 0 0 0 -.31 1.17 1.93 1.93 0 0 0 .31 1.15 1 1 0 0 0 .8.43.82.82 0 0 0 .72-.43 2.15 2.15 0 0 0 .27-1.15 2.18 2.18 0 0 0 -.27-1.17.82.82 0 0 0 -.72-.42z"/><path d="m255 22.03h1.51v18.11h-1.51z"/><path d="m275.71 21.26a7.43 7.43 0 0 0 -4 1.17l.69 1.26a6 6 0 0 1 3.19-1 2.22 2.22 0 0 1 2.11 1.16 8.54 8.54 0 0 1 .67 3.71v1.51l-2 .1a6.48 6.48 0 0 0 -4.37 1.64 5.48 5.48 0 0 0 -1.56 4.12 6.09 6.09 0 0 0 1.08 3.8 3.41 3.41 0 0 0 2.86 1.42c1.77 0 3.08-1 4-3h.07l.2 2.26h1.28v-12a8.35 8.35 0 0 0 -1-4.74 3.67 3.67 0 0 0 -3.22-1.41zm2.69 11.06a9.83 9.83 0 0 1 -.95 4.77 2.93 2.93 0 0 1 -2.66 1.69 2.27 2.27 0 0 1 -1.91-.92 4.78 4.78 0 0 1 -.7-2.9 4.43 4.43 0 0 1 1.06-3.21 4.72 4.72 0 0 1 3.26-1.21l1.9-.1v1.89z"/><path d="m294.99 13.73h1.51v26.41h-1.51z"/><path d="m55.33 30.18h-.26l.75-12.18v-1a7.36 7.36 0 0 0 -2.29-3.18l-.76-.44-21-12.13-.65-.35a4.55 4.55 0 0 0 -1.32-.39l13.66 22.82z"/><path d="m45.49 36.18-9.33 5.38 1.56.92.23.13a3.17 3.17 0 0 1 1.05 2.18 3.11 3.11 0 0 1 0 .72z"/><path d="m33.92 47.81-4.5-2.6v13.54l7.58-10.91a3.17 3.17 0 0 1 -3.08-.03z"/><path d="m19.35 15.72a3.17 3.17 0 0 1 2.28-3.79l6.79-11.43a4.48 4.48 0 0 0 -1.42.43l-.56.32-.13.07-21.38 12.34-3.43-2v10l10.59 6.11z"/><path d="m43.97 31.17-14.55-8.4v15.1l1.73 1z"/><path d="m24.21 12.24 4.46 2.57v-13.38l-6.23 10.4a3.16 3.16 0 0 1 1.77.41z"/><path d="m29.42 1.48v13.95l12.74 7.35z"/><path d="m19.74 16.33-7 11.73.8.46 15.14-6.22v-.13l-7.68-4.42a3.15 3.15 0 0 1 -1.26-1.42z"/><path d="m28.66 37.26v-14.4l-14.57 5.98z"/><path d="m3.09 29.84h-.06-.03v12.49.17s0 .12 0 .17a4.49 4.49 0 0 0 2 3.6l.4.23 21.11 12.16h.07a4.5 4.5 0 0 0 .76.44 4.43 4.43 0 0 0 1.2.35l-17.3-24.9z"/><path d="m31.85 39.17 3.61 2.08 11.64-6.71-13.61 19.55-3.77 5.41a4.49 4.49 0 0 0 1.51-.5h.07l.54-.31 21.32-12.3 3.42 2v-10l-11.91-6.92z"/><path d="m28.66 58.7v-14.11l-16.32-9.43z"/><g opacity=".1"><path d="m45.49 36.18-9.33 5.38 1.56.92.23.13a3.17 3.17 0 0 1 1.05 2.18 3.11 3.11 0 0 1 0 .72z"/><path d="m33.92 47.81-4.5-2.6v13.54l7.58-10.91a3.17 3.17 0 0 1 -3.08-.03z"/><path d="m43.97 31.17-14.55-8.4v15.1l1.73 1z"/><path d="m24.21 12.24 4.46 2.57v-13.38l-6.23 10.4a3.16 3.16 0 0 1 1.77.41z"/><path d="m29.42 1.48v13.95l12.74 7.35z"/><path d="m19.74 16.33-7 11.73.8.46 15.14-6.22v-.13l-7.68-4.42a3.15 3.15 0 0 1 -1.26-1.42z"/><path d="m28.66 37.26v-14.4l-14.57 5.98z"/><path d="m28.66 58.7v-14.11l-16.32-9.43z"/></g></g></svg>