<svg height="38" width="192" xmlns="http://www.w3.org/2000/svg"><path d="m191.578 29.54c-.277.253-.621.38-1.03.38-.433 0-.789-.127-1.065-.38-.278-.254-.416-.61-.416-1.069v-23.013c0-.458.138-.815.416-1.069.276-.253.632-.38 1.065-.38.409 0 .753.127 1.03.38.276.254.415.611.415 1.069v23.013c0 .459-.139.815-.415 1.069zm-10.855-.671c-1.276.749-2.745 1.124-4.407 1.124-1.661 0-3.124-.375-4.389-1.124-1.264-.748-2.239-1.817-2.926-3.207-.686-1.389-1.029-3.002-1.029-4.838s.343-3.448 1.029-4.838c.687-1.389 1.662-2.458 2.926-3.207 1.265-.749 2.728-1.124 4.389-1.124 1.662 0 3.131.375 4.407 1.124s2.258 1.818 2.944 3.207c.687 1.39 1.03 3.002 1.03 4.838s-.343 3.449-1.03 4.838c-.686 1.39-1.668 2.459-2.944 3.207zm-.433-13.028c-.939-1.171-2.264-1.758-3.974-1.758s-3.034.587-3.973 1.758c-.939 1.172-1.409 2.833-1.409 4.983 0 2.175.463 3.841 1.391 5.001.926 1.16 2.258 1.74 3.991 1.74 1.734 0 3.065-.574 3.992-1.722.927-1.147 1.391-2.82 1.391-5.019 0-2.15-.47-3.811-1.409-4.983zm-17.179 14.079c-.307 0-.626-.145-.957-.435l-9.256-8.154v7.14c0 .459-.136.815-.408 1.069-.272.253-.609.38-1.011.38-.425 0-.774-.127-1.046-.38-.272-.254-.408-.61-.408-1.069v-23.013c0-.458.136-.815.408-1.069.272-.253.621-.38 1.046-.38.402 0 .739.127 1.011.38.272.254.408.611.408 1.069v14.714l8.476-7.937c.283-.29.603-.435.957-.435.355 0 .662.134.922.399.26.266.39.58.39.942 0 .411-.165.774-.496 1.087l-6.986 6.379 7.66 6.813c.378.362.567.749.567 1.159 0 .363-.124.677-.372.943-.248.265-.55.398-.905.398zm-24.331-1.051c-1.281.749-2.754 1.124-4.421 1.124s-3.135-.375-4.404-1.124c-1.268-.748-2.246-1.817-2.935-3.207-.689-1.389-1.033-3.002-1.033-4.838s.344-3.448 1.033-4.838c.689-1.389 1.667-2.458 2.935-3.207 1.269-.749 2.737-1.124 4.404-1.124s3.14.375 4.421 1.124c1.28.749 2.265 1.818 2.953 3.207.689 1.39 1.033 3.002 1.033 4.838s-.344 3.449-1.033 4.838c-.688 1.39-1.673 2.459-2.953 3.207zm-.435-13.028c-.942-1.171-2.271-1.758-3.986-1.758-1.716 0-3.045.587-3.987 1.758-.942 1.172-1.413 2.833-1.413 4.983 0 2.175.465 3.841 1.395 5.001s2.265 1.74 4.005 1.74c1.739 0 3.074-.574 4.004-1.722.93-1.147 1.395-2.82 1.395-5.019 0-2.15-.471-3.811-1.413-4.983zm-27.186 3.153c.596.254 1.454.502 2.573.743 1.655.362 2.938.761 3.851 1.196.912.435 1.563.966 1.952 1.594.389.629.584 1.426.584 2.392 0 1.522-.645 2.749-1.934 3.678-1.29.931-2.993 1.396-5.109 1.396a12.49 12.49 0 0 1 -3.194-.399c-1.01-.266-1.904-.64-2.682-1.123-.438-.29-.748-.562-.931-.816-.182-.254-.273-.561-.273-.924 0-.314.091-.573.273-.779a.91.91 0 0 1 .712-.308c.292 0 .717.181 1.277.543.73.435 1.454.78 2.172 1.033.717.254 1.611.381 2.682.381 1.314 0 2.336-.229 3.066-.689.729-.458 1.094-1.123 1.094-1.993 0-.531-.133-.96-.401-1.286-.268-.327-.73-.616-1.387-.87s-1.618-.513-2.883-.779c-2.141-.459-3.674-1.075-4.598-1.848-.925-.773-1.387-1.824-1.387-3.153 0-1.039.292-1.957.876-2.755.584-.797 1.392-1.425 2.427-1.884 1.033-.459 2.208-.689 3.522-.689.948 0 1.866.127 2.755.381a8.24 8.24 0 0 1 2.354 1.069c.827.58 1.241 1.184 1.241 1.812 0 .314-.098.58-.292.797a.9.9 0 0 1 -.694.326c-.292 0-.73-.204-1.314-.616a11.668 11.668 0 0 0 -1.934-1.014c-.608-.242-1.363-.363-2.262-.363-1.144 0-2.063.254-2.756.761-.693.508-1.04 1.184-1.04 2.03 0 .532.128.96.383 1.286.256.326.681.616 1.277.87zm-25.159 19.006h-42l-4-14h-38c-1.965 0-2-2-2-2v-18c0-3.824 4-4 4-4h74c2.34 0 4 6 4 6l8 28s.047 4-4 4zm-66.969-32.008h-11.041l2.959 12.025h11.042zm18.009 0h-11.042l2.96 12.025h11.041zm26.23 25.998h4.724l-1.269-3.977h-4.724zm13.214-25.997h-20.479l5.501 20.003h20.479zm6.255 22.02h-4.724l1.269 3.977h4.724zm-43.739 9.987h-35c-3.883 0-4-4-4-4v-6h36z" fill="#40bfb2" fill-rule="evenodd"/></svg>