<svg id="_-e-logo_top" data-name="-e-logo_top" xmlns="http://www.w3.org/2000/svg" width="96" height="19"><defs><style>.cls-1{fill:#40bfb2;fill-rule:evenodd}</style></defs><path id="_2" data-name="2" class="cls-1" d="M108.627 22h14.51a3.182 3.182 0 0 1 2.886 2.269l3.888 14.463A1.683 1.683 0 0 1 128.245 41h-14.509a3.183 3.183 0 0 1-2.887-2.269l-3.889-14.462A1.683 1.683 0 0 1 108.627 22zm-21.354 0A2.273 2.273 0 1 1 85 24.274 2.273 2.273 0 0 1 87.273 22zm-1.133 9.656A1.125 1.125 0 1 1 85 32.781a1.133 1.133 0 0 1 1.141-1.125zM85 24.266h25.609v8.516H85v-8.516zM87.281 22h23.031v2.266H87.281V22zM86 32h25v2H86v-2zm18.471-.075h6.259L113.166 41h-6.259zM98 25h5.521L105 31.009h-5.521zm-9 0h5.521L96 31.009h-5.525zm24 0h10.239l2.751 10h-10.24zm3 11.01h2.363L119 38h-2.362zm8.007 0h2.363L127 38h-2.362z" transform="translate(-85 -22)"/><path id="_3" data-name="3" class="cls-1" d="M141.538 37a4.271 4.271 0 0 0 2.554-.7 2.164 2.164 0 0 0 .968-1.839 1.96 1.96 0 0 0-1.269-1.993 9.24 9.24 0 0 0-1.925-.6 7.486 7.486 0 0 1-1.286-.372 1.588 1.588 0 0 1-.639-.435 1.012 1.012 0 0 1-.191-.643 1.2 1.2 0 0 1 .52-1.015 2.276 2.276 0 0 1 1.377-.381 3.092 3.092 0 0 1 1.132.181 5.827 5.827 0 0 1 .967.507 1.366 1.366 0 0 0 .657.308.45.45 0 0 0 .346-.163.573.573 0 0 0 .146-.4 1.179 1.179 0 0 0-.62-.906 4.12 4.12 0 0 0-1.177-.534 4.988 4.988 0 0 0-1.378-.19 4.3 4.3 0 0 0-1.761.344 2.944 2.944 0 0 0-1.213.942 2.27 2.27 0 0 0-.438 1.377 1.947 1.947 0 0 0 .692 1.58 5.439 5.439 0 0 0 2.3.924 9.919 9.919 0 0 1 1.441.389 1.662 1.662 0 0 1 .694.435.987.987 0 0 1 .2.643 1.107 1.107 0 0 1-.547 1 2.876 2.876 0 0 1-1.533.344 4.065 4.065 0 0 1-1.341-.19 6.079 6.079 0 0 1-1.086-.516 1.368 1.368 0 0 0-.639-.272.452.452 0 0 0-.355.154.562.562 0 0 0-.137.389.765.765 0 0 0 .137.462 1.786 1.786 0 0 0 .465.408 4.872 4.872 0 0 0 1.341.562 6.254 6.254 0 0 0 1.6.2zm10.641 0a4.3 4.3 0 0 0 2.211-.562 3.73 3.73 0 0 0 1.477-1.6 5.928 5.928 0 0 0 0-4.838 3.733 3.733 0 0 0-1.477-1.6 4.3 4.3 0 0 0-2.211-.562 4.248 4.248 0 0 0-2.2.562 3.737 3.737 0 0 0-1.468 1.6 5.928 5.928 0 0 0 0 4.838 3.735 3.735 0 0 0 1.468 1.6 4.246 4.246 0 0 0 2.2.562zm0-1.214a2.418 2.418 0 0 1-2-.87 3.915 3.915 0 0 1-.7-2.5 3.886 3.886 0 0 1 .707-2.491 2.7 2.7 0 0 1 3.986 0 3.88 3.88 0 0 1 .707 2.491 3.913 3.913 0 0 1-.7 2.51 2.43 2.43 0 0 1-2 .861zm14.731-.072l-3.83-3.414 3.493-3.189a.728.728 0 0 0 .249-.544.652.652 0 0 0-.195-.471.626.626 0 0 0-.461-.2.655.655 0 0 0-.479.217l-4.238 3.968v-7.352a.7.7 0 0 0-.2-.534.711.711 0 0 0-.5-.19.734.734 0 0 0-.523.19.692.692 0 0 0-.2.534v11.506a.691.691 0 0 0 .2.535.735.735 0 0 0 .523.19.712.712 0 0 0 .5-.19.7.7 0 0 0 .2-.535v-3.57l4.628 4.077a.741.741 0 0 0 .479.217.6.6 0 0 0 .452-.2.668.668 0 0 0 .186-.471.8.8 0 0 0-.284-.58zM173.158 37a4.275 4.275 0 0 0 2.2-.562 3.726 3.726 0 0 0 1.472-1.6 5.949 5.949 0 0 0 0-4.838 3.728 3.728 0 0 0-1.472-1.6 4.277 4.277 0 0 0-2.2-.562 4.222 4.222 0 0 0-2.194.562 3.739 3.739 0 0 0-1.463 1.6 5.938 5.938 0 0 0 0 4.838 3.737 3.737 0 0 0 1.463 1.6 4.22 4.22 0 0 0 2.194.562zm0-1.214a2.407 2.407 0 0 1-2-.87 3.927 3.927 0 0 1-.695-2.5 3.9 3.9 0 0 1 .7-2.491 2.686 2.686 0 0 1 3.974 0 3.9 3.9 0 0 1 .7 2.491 3.919 3.919 0 0 1-.695 2.51 2.418 2.418 0 0 1-2 .861zm7.116 1.178a.735.735 0 0 0 .515-.19.69.69 0 0 0 .211-.539V24.729a.69.69 0 0 0-.208-.534.734.734 0 0 0-.515-.19.759.759 0 0 0-.533.19.69.69 0 0 0-.207.534v11.506a.69.69 0 0 0 .207.535.76.76 0 0 0 .533.19z" transform="translate(-85 -22)"/><path id="_1" data-name="1" class="cls-1" d="M87.273 36.453A2.273 2.273 0 1 1 85 38.727a2.273 2.273 0 0 1 2.273-2.274zM86 36a1 1 0 1 1-1 1 1 1 0 0 1 1-1zm-1 1.5h1.5V39H85v-1.5zm2.5-1.5h14v5h-14v-5zm12.494.008h3.266L104.5 41h-3.267zM86 36h1.5v1.5H86V36z" transform="translate(-85 -22)"/></svg>
