<svg version="1.1" id="Layer_1" xmlns="http://www.w3.org/2000/svg" xmlns:xlink="http://www.w3.org/1999/xlink" x="0px" y="0px"
	 width="100%" viewBox="0 0 259 259" enable-background="new 0 0 259 259" xml:space="preserve">
<path fill="#E64041" opacity="1.000000" stroke="none" 
	d="
M152.298431,259.755310 
	C137.979111,260.000000 123.958214,260.000000 109.468658,260.000000 
	C107.677139,258.597961 105.884453,259.000427 104.291855,258.904694 
	C88.670967,257.965759 74.917343,251.577560 61.832237,243.782745 
	C35.006687,227.802750 16.519341,204.796158 5.428138,175.636795 
	C2.939529,169.094116 2.915050,162.248093 1.244504,155.297729 
	C1.000000,138.979111 1.000000,122.958214 1.000000,106.468658 
	C1.589179,105.370941 1.912496,104.639359 1.967045,103.766258 
	C3.343608,81.733223 14.210904,63.813854 27.281811,47.114376 
	C37.836994,33.628998 50.987843,22.947853 65.987122,14.508810 
	C78.319412,7.570294 91.272980,2.817572 105.704292,1.243965 
	C122.020897,1.000000 138.041794,1.000000 154.531342,1.000000 
	C155.510773,1.433454 156.038330,1.852913 156.738647,1.900912 
	C178.899750,3.419838 197.247742,13.835698 213.875244,27.413471 
	C234.045547,43.884212 248.358139,64.644524 256.388702,89.589172 
	C258.367920,95.737122 258.238007,102.175491 259.755798,108.703766 
	C260.000000,123.020897 260.000000,137.041794 260.000000,151.531342 
	C259.237152,152.753540 259.056091,153.697052 259.014587,154.729675 
	C258.229614,174.265350 249.809204,190.983490 238.899521,206.446182 
	C221.910416,230.525436 199.365036,247.414139 171.130692,256.524994 
	C165.046570,258.488251 158.701691,258.091797 152.298431,259.755310 
z"/>
<path fill="#000000" opacity="1.000000" stroke="none" 
	d="
M152.468658,260.000000 
	C152.942673,258.258881 152.945938,258.276917 154.466095,258.001892 
	C184.580887,252.553467 209.562073,237.851715 229.387772,214.864822 
	C244.614716,197.209946 254.469193,176.662903 258.029022,153.383362 
	C258.168793,152.469452 258.637085,151.883621 259.662476,151.691467 
	C260.000000,186.762650 259.947968,221.525497 260.086884,256.287598 
	C260.099640,259.482178 259.271790,260.085693 256.227051,260.075226 
	C221.797455,259.956543 187.367310,260.000000 152.468658,260.000000 
z"/>
<path fill="#010000" opacity="1.000000" stroke="none" 
	d="
M260.000000,108.531342 
	C257.793579,110.284523 258.207458,108.235367 258.051331,107.330193 
	C252.652832,76.035332 237.270752,50.346703 213.275360,30.016010 
	C197.061493,16.278412 178.201111,7.224575 157.203842,3.043077 
	C156.019714,2.807266 154.911331,2.723710 154.631805,1.279846 
	C188.763702,1.000000 222.527634,1.053957 256.290741,0.912410 
	C259.492981,0.898986 260.084961,1.738761 260.074615,4.775936 
	C259.957001,39.204536 260.000000,73.633682 260.000000,108.531342 
z"/>
<path fill="#010000" opacity="1.000000" stroke="none" 
	d="
M1.000000,155.468658 
	C3.517537,154.823822 2.732124,156.769913 3.035462,158.087112 
	C9.349045,185.502716 22.648535,208.844009 43.824352,227.505676 
	C62.260120,243.752625 83.524078,254.170593 107.878220,258.047424 
	C108.808357,258.195496 109.342186,258.717316 109.389519,259.725464 
	C74.238350,260.000000 39.476494,259.948425 4.715394,260.086304 
	C1.528599,260.098938 0.913016,259.282593 0.924073,256.230225 
	C1.045172,222.799606 1.000000,189.368378 1.000000,155.468658 
z"/>
<path fill="#010000" opacity="1.000000" stroke="none" 
	d="
M105.531342,1.000000 
	C107.279686,3.216407 105.141174,2.807859 104.303963,2.969021 
	C83.440216,6.985250 64.799965,15.999928 48.511978,29.352106 
	C24.857962,48.742634 9.458575,73.509354 3.048193,103.603607 
	C2.795279,104.790932 2.589404,105.851433 1.313654,106.319183 
	C1.000000,72.237289 1.053483,38.474354 0.912988,4.712223 
	C0.899694,1.517741 1.728041,0.913762 4.772755,0.924692 
	C38.202389,1.044703 71.632614,1.000000 105.531342,1.000000 
z"/>
<path fill="#000000" opacity="1.000000" stroke="none" 
	d="
M88.751602,17.677509 
	C102.322144,12.854443 115.984016,9.968935 129.971085,10.113955 
	C159.329391,10.418343 185.623993,19.678820 208.134491,38.843014 
	C220.606277,49.460838 230.198364,62.289417 237.758453,76.839203 
	C245.057739,90.887093 248.229172,106.072784 250.175400,121.420532 
	C250.957870,127.591003 250.545105,134.289368 249.887085,140.703140 
	C248.039963,158.706940 243.129059,175.821701 233.835480,191.432068 
	C216.604263,220.375336 191.385910,238.609100 158.820618,247.035690 
	C146.453629,250.235764 133.752029,250.912613 121.342751,250.129364 
	C108.480118,249.317505 95.731895,246.019363 83.569252,240.958603 
	C67.680168,234.347305 53.806854,224.664566 42.234108,212.302094 
	C27.509661,196.572861 17.557056,177.829712 13.053193,156.551193 
	C5.091277,118.935066 13.540169,84.896904 36.938519,54.816628 
	C50.313339,37.622334 67.895523,25.512451 88.751602,17.677509 
z"/>
<path fill="#E54041" opacity="1.000000" stroke="none" 
	d="
M133.758240,203.746841 
	C125.524368,210.313171 117.551712,216.630524 109.557808,222.920868 
	C108.796448,223.520004 107.889473,223.930740 107.071907,224.462448 
	C104.514435,226.125732 101.875473,226.892242 99.422287,224.462906 
	C97.025520,222.089432 97.710388,219.323044 98.971924,216.667130 
	C102.518318,209.200897 106.105698,201.754135 109.682037,194.302139 
	C117.851669,177.279099 126.018745,160.254837 134.197800,143.236328 
	C139.652298,131.886917 145.094315,120.531326 150.606445,109.209915 
	C152.717575,104.873840 157.287170,103.057487 161.310211,105.021194 
	C177.587769,112.966553 193.860336,120.923904 210.058792,129.028656 
	C215.612518,131.807404 216.750854,137.177505 212.761688,140.576324 
	C209.386017,143.452454 205.878372,146.174179 202.417130,148.949280 
	C184.142624,163.600998 165.873245,178.259094 147.581024,192.888657 
	C143.099060,196.473221 138.538193,199.959137 133.758240,203.746841 
z"/>
<path fill="#E54041" opacity="1.000000" stroke="none" 
	d="
M111.829453,90.873398 
	C121.457550,83.100212 130.754410,75.482712 140.085876,67.907867 
	C146.001083,63.106174 151.984467,58.388500 157.903152,53.591072 
	C160.225739,51.708477 162.558243,49.894363 165.392700,48.801575 
	C169.118256,47.365234 171.586578,48.728596 171.979172,52.623241 
	C172.231644,55.127850 171.804855,57.471653 170.657333,59.815014 
	C159.487488,82.624977 148.356308,105.454231 137.318924,128.328568 
	C131.761444,139.846115 126.469246,151.491409 120.961899,163.033539 
	C117.553345,170.177063 113.889900,171.465942 106.749741,167.948959 
	C90.880028,160.132172 75.054184,152.225861 59.239182,144.298752 
	C54.031281,141.688339 53.442394,137.427795 58.023335,133.697906 
	C67.404526,126.059578 77.004509,118.690605 86.471855,111.157257 
	C94.848824,104.491554 103.168114,97.753342 111.829453,90.873398 
z"/>
<path fill="#010000" opacity="1.000000" stroke="none" 
	d="
M110.978241,211.265488 
	C112.556519,207.215729 113.983559,203.379105 115.747337,199.704102 
	C129.078033,171.928329 142.562302,144.225693 155.745285,116.380287 
	C157.481552,112.712914 158.920181,112.440720 162.243256,114.136635 
	C175.449677,120.876511 188.750122,127.434258 202.073700,133.940811 
	C205.092072,135.414825 205.926651,136.198212 202.670563,138.755173 
	C184.626617,152.924896 166.761749,167.322906 148.856232,181.668549 
	C136.598770,191.489090 124.375031,201.351746 111.847565,211.369324 
	C111.366928,211.546539 111.174942,211.550018 110.978241,211.265488 
z"/>
<path fill="#010000" opacity="1.000000" stroke="none" 
	d="
M111.415741,211.398376 
	C111.193878,211.629929 110.828835,211.716797 110.463791,211.803665 
	C110.466591,211.578918 110.469391,211.354156 110.722855,211.053452 
	C110.973518,210.977493 111.272575,211.253708 111.415741,211.398376 
z"/>
<path fill="#010000" opacity="1.000000" stroke="none" 
	d="
M159.272614,63.646225 
	C159.515396,66.866241 157.404037,68.541695 156.418915,70.693893 
	C149.001434,86.898964 141.138931,102.900757 133.470200,118.980400 
	C127.045441,132.451706 120.715225,146.001633 113.925804,159.313004 
	C112.861908,161.398911 111.924988,161.643860 109.900276,160.639877 
	C95.065613,153.284042 80.180313,146.030350 64.690697,138.440506 
	C96.035965,113.302132 126.936012,88.520813 158.091461,63.514687 
	C158.688736,63.239090 159.030609,63.188305 159.272614,63.646225 
z"/>
<path fill="#010000" opacity="1.000000" stroke="none" 
	d="
M158.552750,63.506721 
	C158.799973,62.961193 159.019180,62.029366 159.785431,62.568249 
	C159.969955,62.698021 159.732819,63.427368 159.431168,64.017960 
	C159.034698,64.011139 158.896667,63.867344 158.552750,63.506721 
z"/>
</svg>