<svg width="42" height="20" viewBox="0 0 42 20" fill="none" xmlns="http://www.w3.org/2000/svg">
<path d="M6.25458 7.375H4V6.5H9.45845V7.375H7.20388V13.3833H6.25458V7.375Z" fill="#DFE2E6"/>
<path d="M10.11 11.4C10.11 11.6009 10.1529 11.7856 10.2386 11.9542C10.3309 12.1162 10.4495 12.2556 10.5946 12.3722C10.7396 12.4889 10.9077 12.5796 11.0989 12.6444C11.29 12.7093 11.4878 12.7417 11.6922 12.7417C11.9691 12.7417 12.2097 12.6801 12.414 12.5569C12.6184 12.4273 12.8063 12.2588 12.9777 12.0514L13.6501 12.5569C13.1557 13.1856 12.4635 13.5 11.5735 13.5C11.2043 13.5 10.8681 13.4384 10.5649 13.3153C10.2682 13.1921 10.0144 13.0236 9.80347 12.8097C9.59911 12.5894 9.44089 12.3333 9.32882 12.0417C9.21675 11.7435 9.16072 11.4227 9.16072 11.0792C9.16072 10.7356 9.22005 10.4181 9.33871 10.1264C9.46397 9.82824 9.63207 9.57222 9.84302 9.35833C10.0606 9.13796 10.3177 8.9662 10.6143 8.84306C10.911 8.71991 11.234 8.65833 11.5834 8.65833C11.9987 8.65833 12.3481 8.72963 12.6316 8.87222C12.9216 9.01481 13.159 9.20278 13.3436 9.43611C13.5281 9.66296 13.66 9.92222 13.7391 10.2139C13.8248 10.4991 13.8676 10.7907 13.8676 11.0889V11.4H10.11ZM12.9184 10.7C12.9118 10.5056 12.8788 10.3273 12.8195 10.1653C12.7667 10.0032 12.6843 9.86389 12.5723 9.74722C12.4602 9.62407 12.3184 9.53009 12.147 9.46528C11.9822 9.39398 11.7878 9.35833 11.5636 9.35833C11.3461 9.35833 11.145 9.40046 10.9604 9.48472C10.7824 9.5625 10.6308 9.6662 10.5056 9.79583C10.3803 9.92546 10.2814 10.0713 10.2089 10.2333C10.143 10.3889 10.11 10.5444 10.11 10.7H12.9184Z" fill="#DFE2E6"/>
<path d="M17.7208 9.93194C17.6154 9.80231 17.4835 9.69537 17.3253 9.61111C17.1737 9.52037 16.9858 9.475 16.7617 9.475C16.5507 9.475 16.3661 9.52037 16.2079 9.61111C16.0563 9.69537 15.9805 9.82176 15.9805 9.99028C15.9805 10.1264 16.0233 10.2366 16.109 10.3208C16.2013 10.4051 16.3068 10.4731 16.4254 10.525C16.5507 10.5769 16.6825 10.6157 16.821 10.6417C16.9594 10.6676 17.0781 10.6903 17.177 10.7097C17.3682 10.7551 17.5461 10.8102 17.711 10.875C17.8824 10.9398 18.0274 11.0241 18.146 11.1278C18.2713 11.2315 18.3669 11.3579 18.4328 11.5069C18.5053 11.656 18.5416 11.8375 18.5416 12.0514C18.5416 12.3106 18.4856 12.5343 18.3735 12.7222C18.2614 12.9037 18.1164 13.0528 17.9384 13.1694C17.7604 13.2861 17.556 13.3704 17.3253 13.4222C17.1012 13.4741 16.8737 13.5 16.643 13.5C16.254 13.5 15.9112 13.4417 15.6146 13.325C15.3245 13.2083 15.0641 12.9944 14.8334 12.6833L15.5058 12.1389C15.6508 12.2815 15.8124 12.4079 15.9904 12.5181C16.1683 12.6282 16.3859 12.6833 16.643 12.6833C16.7551 12.6833 16.8671 12.6736 16.9792 12.6542C17.0979 12.6282 17.2 12.5926 17.2857 12.5472C17.378 12.4954 17.4506 12.4338 17.5033 12.3625C17.5626 12.2847 17.5923 12.1972 17.5923 12.1C17.5923 11.9704 17.5494 11.8634 17.4637 11.7792C17.3846 11.6949 17.2857 11.6301 17.1671 11.5847C17.055 11.5329 16.9331 11.494 16.8012 11.4681C16.676 11.4356 16.5639 11.4097 16.465 11.3903C16.2738 11.3449 16.0925 11.2931 15.9211 11.2347C15.7497 11.1764 15.5981 11.0986 15.4663 11.0014C15.3344 10.9042 15.2289 10.781 15.1498 10.6319C15.0707 10.4829 15.0312 10.2981 15.0312 10.0778C15.0312 9.83796 15.0806 9.63056 15.1795 9.45556C15.285 9.27407 15.4201 9.125 15.5849 9.00833C15.7563 8.89167 15.9475 8.80417 16.1585 8.74583C16.376 8.6875 16.5936 8.65833 16.8111 8.65833C17.1275 8.65833 17.4308 8.71667 17.7208 8.83333C18.0109 8.95 18.2416 9.14444 18.413 9.41667L17.7208 9.93194Z" fill="#DFE2E6"/>
<path d="M22.4311 9.53333H21.1555V11.6236C21.1555 11.7532 21.1588 11.8829 21.1654 12.0125C21.172 12.1356 21.195 12.2491 21.2346 12.3528C21.2807 12.45 21.3467 12.531 21.4324 12.5958C21.5246 12.6542 21.6565 12.6833 21.8279 12.6833C21.9334 12.6833 22.0421 12.6736 22.1542 12.6542C22.2663 12.6347 22.3685 12.5991 22.4608 12.5472V13.3444C22.3553 13.4028 22.2168 13.4417 22.0454 13.4611C21.8806 13.487 21.7521 13.5 21.6598 13.5C21.317 13.5 21.05 13.4546 20.8588 13.3639C20.6742 13.2667 20.5358 13.1435 20.4435 12.9944C20.3578 12.8454 20.3051 12.6801 20.2853 12.4986C20.2721 12.3106 20.2655 12.1227 20.2655 11.9347V9.53333H19.2371V8.775H20.2655V7.48194H21.1555V8.775H22.4311V9.53333Z" fill="#DFE2E6"/>
<path d="M23.876 8.775H24.7659V9.48472H24.7857C24.8978 9.23843 25.0923 9.04074 25.3691 8.89167C25.646 8.73611 25.9657 8.65833 26.3283 8.65833C26.5525 8.65833 26.7667 8.69398 26.9711 8.76528C27.182 8.83009 27.3633 8.9338 27.5149 9.07639C27.6732 9.21898 27.7984 9.4037 27.8907 9.63056C27.983 9.85093 28.0291 10.1134 28.0291 10.4181V13.3833H27.1392V10.6611C27.1392 10.4472 27.1095 10.2657 27.0502 10.1167C26.9909 9.96111 26.9117 9.83796 26.8129 9.74722C26.714 9.65 26.5986 9.58194 26.4668 9.54306C26.3415 9.49768 26.2097 9.475 26.0712 9.475C25.8866 9.475 25.7152 9.50417 25.557 9.5625C25.3988 9.62083 25.2604 9.71481 25.1417 9.84444C25.023 9.96759 24.9307 10.1264 24.8648 10.3208C24.7989 10.5153 24.7659 10.7454 24.7659 11.0111V13.3833H23.876V8.775Z" fill="#DFE2E6"/>
<path d="M30.3397 11.4C30.3397 11.6009 30.3826 11.7856 30.4683 11.9542C30.5606 12.1162 30.6792 12.2556 30.8243 12.3722C30.9693 12.4889 31.1374 12.5796 31.3286 12.6444C31.5198 12.7093 31.7175 12.7417 31.9219 12.7417C32.1988 12.7417 32.4394 12.6801 32.6438 12.5569C32.8481 12.4273 33.036 12.2588 33.2074 12.0514L33.8798 12.5569C33.3854 13.1856 32.6932 13.5 31.8032 13.5C31.4341 13.5 31.0978 13.4384 30.7946 13.3153C30.4979 13.1921 30.2441 13.0236 30.0332 12.8097C29.8288 12.5894 29.6706 12.3333 29.5585 12.0417C29.4465 11.7435 29.3904 11.4227 29.3904 11.0792C29.3904 10.7356 29.4498 10.4181 29.5684 10.1264C29.6937 9.82824 29.8618 9.57222 30.0727 9.35833C30.2903 9.13796 30.5474 8.9662 30.844 8.84306C31.1407 8.71991 31.4637 8.65833 31.8131 8.65833C32.2284 8.65833 32.5778 8.72963 32.8613 8.87222C33.1514 9.01481 33.3887 9.20278 33.5733 9.43611C33.7579 9.66296 33.8897 9.92222 33.9688 10.2139C34.0545 10.4991 34.0974 10.7907 34.0974 11.0889V11.4H30.3397ZM33.1481 10.7C33.1415 10.5056 33.1085 10.3273 33.0492 10.1653C32.9964 10.0032 32.914 9.86389 32.802 9.74722C32.6899 9.62407 32.5482 9.53009 32.3768 9.46528C32.212 9.39398 32.0175 9.35833 31.7933 9.35833C31.5758 9.35833 31.3747 9.40046 31.1901 9.48472C31.0121 9.5625 30.8605 9.6662 30.7353 9.79583C30.61 9.92546 30.5111 10.0713 30.4386 10.2333C30.3727 10.3889 30.3397 10.5444 30.3397 10.7H33.1481Z" fill="#DFE2E6"/>
<path d="M37.9703 9.53333H36.6947V11.6236C36.6947 11.7532 36.698 11.8829 36.7046 12.0125C36.7112 12.1356 36.7343 12.2491 36.7738 12.3528C36.82 12.45 36.8859 12.531 36.9716 12.5958C37.0639 12.6542 37.1957 12.6833 37.3671 12.6833C37.4726 12.6833 37.5814 12.6736 37.6935 12.6542C37.8055 12.6347 37.9077 12.5991 38 12.5472V13.3444C37.8945 13.4028 37.7561 13.4417 37.5847 13.4611C37.4199 13.487 37.2913 13.5 37.199 13.5C36.8562 13.5 36.5892 13.4546 36.3981 13.3639C36.2135 13.2667 36.075 13.1435 35.9827 12.9944C35.897 12.8454 35.8443 12.6801 35.8245 12.4986C35.8113 12.3106 35.8048 12.1227 35.8048 11.9347V9.53333H34.7763V8.775H35.8048V7.48194H36.6947V8.775H37.9703V9.53333Z" fill="#DFE2E6"/>
<rect x="0.5" y="0.5" width="41" height="19" rx="3.5" stroke="#6B778B"/>
</svg>
