<svg enable-background="new 0 0 273 81" height="81" viewBox="0 0 273 81" width="273" xmlns="http://www.w3.org/2000/svg"><g fill="#fff"><path d="m42.144 67.536c-2.952 2.025-6.497 3.589-10.694 4.078-4.032.471-7.968-.732-11.39-3.472-5.066-4.053-8.349-10.95-9.245-19.421-.021-.196-.04-.653-.336-.463l-5.655 2.893c-.22.143-.177.358-.159.483 1.416 9.2 5.398 16.803 11.349 21.565 4.734 3.786 10.482 5.507 16.184 4.846 5.507-.64 10.271-2.707 14.32-5.663-1.658-1.47-3.176-3.154-4.374-4.846z"/><path d="m91.294 1.15-5.334 2.726c-.154.107-.087.262-.05.351 4.583 11.202 8.518 25.855 5.727 43.236-2.806 17.459-15.295 25.25-24.754 24.14-5.084-.591-9.212-2.76-12.481-5.422l-.007.009c-2.482-1.956-4.29-3.93-6.02-6.488l.004-.004c-.063-.089-.138-.182-.199-.271-4.132-5.883-7.303-13.717-8.073-20.998-.856-8.077 1.011-13.574 4.371-17.346 1.47-1.651 3.058-2.334 4.625-2.334 1.458 0 3.28.777 4.689 2.377 3.582 4.065 5.144 9.326 4.434 17.312-.604 6.785-3.531 14.02-7.226 19.737 1.175 1.72 2.794 3.447 4.457 4.883 5.3-7.604 8.604-16.641 9.192-23.802.732-8.904-.921-16.648-5.997-22.411-2.635-2.991-6.106-4.531-9.549-4.572-3.594-.044-6.794 1.638-9.485 4.53-4.973 5.348-6.893 14.553-5.935 22.441.939 7.72 4.399 17.709 10.553 25.652 1.758 2.178 3.645 4.137 5.65 5.956 4.447 3.763 9.84 6.438 16.25 7.184.918.105 1.836.159 2.75.159 5.845-.002 11.507-2.166 16.181-6.238 5.855-5.104 11.194-13.787 12.794-24.67 2.835-19.284-2.078-35.774-6.165-46.02-.037-.091-.148-.255-.402-.117z"/><path d="m119.31 56.503h-7.35c-1.595 0-2.849-.45-3.761-1.351-.914-.903-1.37-2.162-1.37-3.78v-7.419c0-1.618.456-2.879 1.37-3.779.912-.902 2.166-1.352 3.761-1.352h2.912c1.596 0 2.844.45 3.746 1.352.901.9 1.352 2.161 1.352 3.779v4.402c0 .346-.162.521-.485.521h-9.811c-.232 0-.348.103-.348.311v2.114c0 2.011.972 3.018 2.912 3.018h7.073c.325 0 .485.16.485.484v1.249c-.001.302-.161.451-.486.451zm-9.637-9.464h7.488c.231 0 .347-.117.347-.349v-2.668c0-1.988-.971-2.981-2.912-2.981h-2.359c-1.94 0-2.912.993-2.912 2.981v2.668c0 .232.116.349.348.349z"/><path d="m126.278 56.503h-1.561c-.323 0-.485-.162-.485-.484v-16.711c0-.324.162-.486.485-.486h1.561c.323 0 .485.162.485.486v1.351h.138c.577-1.224 1.757-1.837 3.537-1.837h1.941c1.571 0 2.796.45 3.675 1.352.878.9 1.317 2.161 1.317 3.779v12.065c0 .322-.162.484-.486.484h-1.561c-.322 0-.484-.162-.484-.484v-11.962c0-2.01-.971-3.015-2.913-3.015h-1.941c-1.041 0-1.837.276-2.391.831-.556.555-.833 1.341-.833 2.357v11.789c.002.323-.16.485-.484.485z"/><path d="m154.117 56.503h-7.351c-1.594 0-2.85-.45-3.761-1.351-.913-.903-1.37-2.162-1.37-3.78v-7.419c0-1.618.457-2.879 1.37-3.779.911-.902 2.167-1.352 3.761-1.352h2.913c1.594 0 2.844.45 3.743 1.352.902.9 1.354 2.161 1.354 3.779v4.402c0 .346-.162.521-.487.521h-9.811c-.23 0-.346.103-.346.311v2.114c0 2.011.97 3.018 2.911 3.018h7.073c.323 0 .485.16.485.484v1.249c.002.302-.161.451-.484.451zm-9.638-9.464h7.488c.231 0 .348-.117.348-.349v-2.668c0-1.988-.973-2.981-2.912-2.981h-2.358c-1.941 0-2.911.993-2.911 2.981v2.668c-.001.232.114.349.345.349z"/><path d="m161.086 56.503h-1.561c-.324 0-.485-.162-.485-.484v-16.711c0-.324.161-.486.485-.486h1.561c.323 0 .484.162.484.486v1.385h.139c.231-.507.671-.947 1.316-1.317.649-.369 1.411-.554 2.289-.554h1.353c.3 0 .451.162.451.486v1.281c0 .163-.033.284-.104.365-.07.081-.187.109-.348.087h-1.871c-1.04 0-1.841.312-2.393.936-.555.624-.833 1.479-.833 2.565v11.477c.001.322-.16.484-.483.484z"/><path d="m176.929 55.566h-1.94c-1.572 0-2.797-.451-3.674-1.353-.881-.901-1.319-2.159-1.319-3.779v-6.481c0-1.618.457-2.879 1.37-3.779.914-.902 2.166-1.352 3.761-1.352h7.522c.324 0 .487.162.487.486v17.195c0 1.595-.456 2.848-1.37 3.761-.913.914-2.166 1.369-3.763 1.369h-6.377c-.348 0-.521-.16-.521-.485v-1.281c0-.324.174-.486.521-.486h6.065c1.941 0 2.914-.993 2.914-2.981v-2.669h-.14c-.6 1.223-1.778 1.835-3.536 1.835zm3.676-5.408v-8.806c0-.208-.117-.312-.35-.312h-4.816c-1.942 0-2.912 1.005-2.912 3.015v6.276c0 2.011.97 3.016 2.912 3.016h1.94c1.04 0 1.838-.278 2.393-.832.554-.555.833-1.34.833-2.357z"/><path d="m189.342 61.945h-1.527c-.322 0-.485-.161-.485-.485v-1.282c0-.323.163-.485.485-.485h.869c1.477 0 2.518-.416 3.118-1.247.486-.673.925-1.63 1.316-2.879h-1.003c-.279 0-.475-.16-.589-.484l-5.099-15.774c-.092-.324.023-.486.347-.486h1.665c.3 0 .496.162.589.486l4.474 14.283h.138l4.472-14.283c.069-.324.255-.486.555-.486h1.596c.394 0 .533.173.415.52l-5.166 16.468c-.577 1.963-1.312 3.478-2.199 4.542-.893 1.061-2.215 1.592-3.971 1.592z"/><path d="m218.254 56.503h-2.114c-.324 0-.521-.162-.588-.484l-4.438-16.711c-.069-.324.045-.486.346-.486h1.768c.3 0 .484.162.555.486l3.363 14.145h.207l3.573-14.145c.067-.324.253-.486.553-.486h1.596c.323 0 .531.162.623.486l3.467 14.145h.21l3.397-14.145c.067-.324.253-.486.555-.486h1.769c.299 0 .415.162.347.486l-4.438 16.711c-.07.322-.269.484-.589.484h-2.15c-.303 0-.486-.162-.555-.484l-3.365-13.799h-.172l-3.328 13.799c-.073.322-.269.484-.592.484z"/><path d="m248.693 56.503h-7.35c-1.596 0-2.851-.45-3.762-1.351-.913-.903-1.37-2.162-1.37-3.78v-7.419c0-1.618.457-2.879 1.37-3.779.911-.902 2.166-1.352 3.762-1.352h2.912c1.594 0 2.842.45 3.745 1.352.899.9 1.351 2.161 1.351 3.779v4.402c0 .346-.162.521-.486.521h-9.811c-.231 0-.347.103-.347.311v2.114c0 2.011.97 3.018 2.912 3.018h7.073c.322 0 .485.16.485.484v1.249c.002.302-.161.451-.484.451zm-9.638-9.464h7.49c.229 0 .345-.117.345-.349v-2.668c0-1.988-.97-2.981-2.911-2.981h-2.358c-1.942 0-2.912.993-2.912 2.981v2.668c-.001.232.114.349.346.349z"/><path d="m253.616 56.019v-23.404c0-.323.162-.484.485-.484h1.561c.321 0 .484.161.484.484v7.835h.139c.576-1.225 1.758-1.836 3.537-1.836h1.94c1.573 0 2.814.451 3.727 1.352.915.901 1.37 2.15 1.37 3.745v7.661c0 1.618-.455 2.877-1.37 3.78-.912.9-2.153 1.351-3.727 1.351h-7.661c-.323 0-.485-.162-.485-.484zm2.877-1.735h4.925c1.963 0 2.945-1.005 2.945-3.016v-7.42c0-2.012-.982-3.016-2.945-3.016h-2.047c-1.04 0-1.838.278-2.393.833s-.832 1.328-.832 2.322v9.984c0 .209.118.313.347.313z"/><path d="m211.398 64.068h-.296c-.063 0-.093-.029-.093-.092v-4.051c0-.063.03-.094.093-.094h2.049c.06 0 .09.031.09.094v.236c0 .061-.03.091-.09.091h-1.595c-.045 0-.066.021-.066.06v1.438c0 .039.021.06.066.06h1.411c.061 0 .091.032.091.091v.239c0 .061-.03.092-.091.092h-1.411c-.045 0-.066.021-.066.065v1.68c0 .062-.03.091-.092.091z"/><path d="m218.352 64.068h-.785c-.304 0-.542-.086-.715-.256-.174-.172-.261-.411-.261-.718v-2.287c0-.307.087-.547.261-.718.173-.171.411-.258.715-.258h.785c.304 0 .541.088.715.261s.261.412.261.715v2.287c0 .303-.087.542-.261.716-.174.172-.412.258-.715.258zm-.733-.42h.672c.369 0 .555-.191.555-.572v-2.248c0-.383-.186-.575-.555-.575h-.672c-.364 0-.547.192-.547.575v2.248c0 .381.183.572.547.572z"/><path d="m225.19 59.832h.297c.061 0 .093.03.093.087v3.176c0 .307-.086.546-.258.718-.171.17-.408.256-.713.256h-.729c-.304 0-.542-.086-.715-.256-.175-.172-.262-.411-.262-.718v-3.169c0-.063.03-.094.094-.094h.296c.063 0 .092.031.092.094v3.15c0 .381.182.572.548.572h.618c.368 0 .556-.191.556-.572v-3.15c-.001-.063.027-.094.083-.094z"/><path d="m229.605 64.068h-.288c-.063 0-.095-.029-.095-.092v-4.051c0-.063.031-.094.095-.094h.269c.053 0 .088.018.104.054l1.821 3.195h.022v-3.155c0-.063.034-.094.095-.094h.289c.063 0 .092.031.092.094v4.051c0 .063-.028.092-.092.092h-.243c-.048 0-.095-.028-.141-.086l-1.809-3.16h-.026v3.154c.001.063-.029.092-.093.092z"/><path d="m235.688 63.977v-4.051c0-.063.03-.094.092-.094h1.621c.305 0 .543.088.715.261.175.173.262.412.262.715v2.287c0 .303-.087.542-.262.716-.172.172-.41.258-.715.258h-1.621c-.062-.001-.092-.03-.092-.092zm.546-.329h1.107c.37 0 .554-.191.554-.572v-2.248c0-.383-.184-.575-.554-.575h-1.107c-.043 0-.063.021-.063.06v3.276c0 .039.02.059.063.059z"/><path d="m242.04 64.068h-.328c-.057 0-.077-.029-.061-.092l1.231-4.051c.019-.063.062-.094.125-.094h.477c.065 0 .108.031.126.094l1.23 4.051c.019.063-.002.092-.059.092h-.337c-.048 0-.078-.029-.092-.092l-.31-.962h-1.594l-.31.962c-.016.063-.046.092-.098.092zm1.192-3.742-.678 2.28h1.384l-.678-2.28z"/><path d="m249.219 64.068h-.297c-.063 0-.095-.029-.095-.092v-3.664c0-.039-.022-.06-.063-.06h-.898c-.066 0-.098-.03-.098-.091v-.236c0-.063.031-.094.098-.094h2.406c.065 0 .1.031.1.094v.236c0 .061-.034.091-.1.091h-.896c-.043 0-.064.021-.064.06v3.664c-.001.063-.034.092-.093.092z"/><path d="m254.146 59.926v4.051c0 .063-.032.092-.092.092h-.295c-.064 0-.095-.029-.095-.092v-4.051c0-.063.03-.094.095-.094h.295c.06 0 .092.031.092.094z"/><path d="m259.551 64.068h-.783c-.305 0-.543-.086-.715-.256-.176-.172-.262-.411-.262-.718v-2.287c0-.307.086-.547.262-.718.172-.171.41-.258.715-.258h.783c.303 0 .541.088.715.261.173.173.258.412.258.715v2.287c0 .303-.085.542-.258.716-.174.172-.412.258-.715.258zm-.731-.42h.67c.37 0 .555-.191.555-.572v-2.248c0-.383-.185-.575-.555-.575h-.67c-.364 0-.548.192-.548.575v2.248c0 .381.184.572.548.572z"/><path d="m264.519 64.068h-.29c-.062 0-.094-.029-.094-.092v-4.051c0-.063.032-.094.094-.094h.27c.052 0 .09.018.105.054l1.82 3.195h.025v-3.155c0-.063.031-.094.094-.094h.286c.064 0 .095.031.095.094v4.051c0 .063-.03.092-.095.092h-.241c-.049 0-.094-.028-.139-.086l-1.814-3.16h-.023v3.154c-.001.063-.034.092-.093.092z"/></g></svg>