<?xml version="1.0" encoding="utf-8"?>
<!-- Generator: Adobe Illustrator 16.0.0, SVG Export Plug-In . SVG Version: 6.00 Build 0)  -->
<!DOCTYPE svg PUBLIC "-//W3C//DTD SVG 1.1//EN" "http://www.w3.org/Graphics/SVG/1.1/DTD/svg11.dtd">
<svg version="1.1" id="Layer_1" xmlns="http://www.w3.org/2000/svg" xmlns:xlink="http://www.w3.org/1999/xlink" x="0px" y="0px"
	 width="273px" height="81px" viewBox="0 0 273 81" enable-background="new 0 0 273 81" xml:space="preserve">
<g>
	<linearGradient id="SVGID_1_" gradientUnits="userSpaceOnUse" x1="7.6167" y1="52.1035" x2="86.942" y2="119.6373">
		<stop  offset="0" style="stop-color:#A566FF"/>
		<stop  offset="0.5046" style="stop-color:#33CBCB"/>
		<stop  offset="1" style="stop-color:#5DE568"/>
	</linearGradient>
	<path fill="#FFFFFF" d="M42.144,67.536c-2.952,2.025-6.497,3.589-10.694,4.078c-4.032,0.471-7.968-0.732-11.39-3.472
		c-5.066-4.053-8.349-10.95-9.245-19.421c-0.021-0.196-0.04-0.653-0.336-0.463l-5.655,2.893c-0.22,0.143-0.177,0.358-0.159,0.483
		c1.416,9.2,5.398,16.803,11.349,21.565c4.734,3.786,10.482,5.507,16.184,4.846c5.507-0.64,10.271-2.707,14.32-5.663
		C44.86,70.912,43.342,69.228,42.144,67.536z"/>
	<linearGradient id="SVGID_2_" gradientUnits="userSpaceOnUse" x1="1.5098" y1="82.6689" x2="99.0579" y2="21.0313">
		<stop  offset="0" style="stop-color:#A566FF"/>
		<stop  offset="0.5046" style="stop-color:#33CBCB"/>
		<stop  offset="1" style="stop-color:#5DE568"/>
	</linearGradient>
	<path fill="#FFFFFF" d="M91.294,1.15L85.96,3.876c-0.154,0.107-0.087,0.262-0.05,0.351
		c4.583,11.202,8.518,25.855,5.727,43.236c-2.806,17.459-15.295,25.25-24.754,24.14c-5.084-0.591-9.212-2.76-12.481-5.422
		l-0.007,0.009c-2.482-1.956-4.29-3.93-6.02-6.488l0.004-0.004c-0.063-0.089-0.138-0.182-0.199-0.271
		c-4.132-5.883-7.303-13.717-8.073-20.998c-0.856-8.077,1.011-13.574,4.371-17.346c1.47-1.651,3.058-2.334,4.625-2.334
		c1.458,0,3.28,0.777,4.689,2.377c3.582,4.065,5.144,9.326,4.434,17.312c-0.604,6.785-3.531,14.02-7.226,19.737
		c1.175,1.72,2.794,3.447,4.457,4.883c5.3-7.604,8.604-16.641,9.192-23.802c0.732-8.904-0.921-16.648-5.997-22.411
		c-2.635-2.991-6.106-4.531-9.549-4.572c-3.594-0.044-6.794,1.638-9.485,4.53c-4.973,5.348-6.893,14.553-5.935,22.441
		c0.939,7.72,4.399,17.709,10.553,25.652c1.758,2.178,3.645,4.137,5.65,5.956c4.447,3.763,9.84,6.438,16.25,7.184
		c0.918,0.105,1.836,0.159,2.75,0.159c5.845-0.002,11.507-2.166,16.181-6.238c5.855-5.104,11.194-13.787,12.794-24.67
		c2.835-19.284-2.078-35.774-6.165-46.02C91.659,1.176,91.548,1.012,91.294,1.15z"/>
	<g>
		<path fill="#FFFFFF" d="M119.31,56.503h-7.35c-1.595,0-2.849-0.45-3.761-1.351c-0.914-0.903-1.37-2.162-1.37-3.78v-7.419
			c0-1.618,0.456-2.879,1.37-3.779c0.912-0.902,2.166-1.352,3.761-1.352h2.912c1.596,0,2.844,0.45,3.746,1.352
			c0.901,0.9,1.352,2.161,1.352,3.779v4.402c0,0.346-0.162,0.521-0.485,0.521h-9.811c-0.232,0-0.348,0.103-0.348,0.311v2.114
			c0,2.011,0.972,3.018,2.912,3.018h7.073c0.325,0,0.485,0.16,0.485,0.484v1.249C119.795,56.354,119.635,56.503,119.31,56.503z
			 M109.673,47.039h7.488c0.231,0,0.347-0.117,0.347-0.349v-2.668c0-1.988-0.971-2.981-2.912-2.981h-2.359
			c-1.94,0-2.912,0.993-2.912,2.981v2.668C109.325,46.922,109.441,47.039,109.673,47.039z"/>
		<path fill="#FFFFFF" d="M126.278,56.503h-1.561c-0.323,0-0.485-0.162-0.485-0.484V39.308c0-0.324,0.162-0.486,0.485-0.486h1.561
			c0.323,0,0.485,0.162,0.485,0.486v1.351h0.138c0.577-1.224,1.757-1.837,3.537-1.837h1.941c1.571,0,2.796,0.45,3.675,1.352
			c0.878,0.9,1.317,2.161,1.317,3.779v12.065c0,0.322-0.162,0.484-0.486,0.484h-1.561c-0.322,0-0.484-0.162-0.484-0.484V44.056
			c0-2.01-0.971-3.015-2.913-3.015h-1.941c-1.041,0-1.837,0.276-2.391,0.831c-0.556,0.555-0.833,1.341-0.833,2.357v11.789
			C126.764,56.341,126.602,56.503,126.278,56.503z"/>
		<path fill="#FFFFFF" d="M154.117,56.503h-7.351c-1.594,0-2.85-0.45-3.761-1.351c-0.913-0.903-1.37-2.162-1.37-3.78v-7.419
			c0-1.618,0.457-2.879,1.37-3.779c0.911-0.902,2.167-1.352,3.761-1.352h2.913c1.594,0,2.844,0.45,3.743,1.352
			c0.902,0.9,1.354,2.161,1.354,3.779v4.402c0,0.346-0.162,0.521-0.487,0.521h-9.811c-0.23,0-0.346,0.103-0.346,0.311v2.114
			c0,2.011,0.97,3.018,2.911,3.018h7.073c0.323,0,0.485,0.16,0.485,0.484v1.249C154.603,56.354,154.44,56.503,154.117,56.503z
			 M144.479,47.039h7.488c0.231,0,0.348-0.117,0.348-0.349v-2.668c0-1.988-0.973-2.981-2.912-2.981h-2.358
			c-1.941,0-2.911,0.993-2.911,2.981v2.668C144.133,46.922,144.248,47.039,144.479,47.039z"/>
		<path fill="#FFFFFF" d="M161.086,56.503h-1.561c-0.324,0-0.485-0.162-0.485-0.484V39.308c0-0.324,0.161-0.486,0.485-0.486h1.561
			c0.323,0,0.484,0.162,0.484,0.486v1.385h0.139c0.231-0.507,0.671-0.947,1.316-1.317c0.649-0.369,1.411-0.554,2.289-0.554h1.353
			c0.3,0,0.451,0.162,0.451,0.486v1.281c0,0.163-0.033,0.284-0.104,0.365c-0.07,0.081-0.187,0.109-0.348,0.087h-1.871
			c-1.04,0-1.841,0.312-2.393,0.936c-0.555,0.624-0.833,1.479-0.833,2.565v11.477C161.57,56.341,161.409,56.503,161.086,56.503z"/>
		<path fill="#FFFFFF" d="M176.929,55.566h-1.94c-1.572,0-2.797-0.451-3.674-1.353c-0.881-0.901-1.319-2.159-1.319-3.779v-6.481
			c0-1.618,0.457-2.879,1.37-3.779c0.914-0.902,2.166-1.352,3.761-1.352h7.522c0.324,0,0.487,0.162,0.487,0.486v17.195
			c0,1.595-0.456,2.848-1.37,3.761c-0.913,0.914-2.166,1.369-3.763,1.369h-6.377c-0.348,0-0.521-0.16-0.521-0.485v-1.281
			c0-0.324,0.174-0.486,0.521-0.486h6.065c1.941,0,2.914-0.993,2.914-2.981v-2.669h-0.14
			C179.865,54.954,178.687,55.566,176.929,55.566z M180.605,50.158v-8.806c0-0.208-0.117-0.312-0.35-0.312h-4.816
			c-1.942,0-2.912,1.005-2.912,3.015v6.276c0,2.011,0.97,3.016,2.912,3.016h1.94c1.04,0,1.838-0.278,2.393-0.832
			C180.326,51.96,180.605,51.175,180.605,50.158z"/>
		<path fill="#FFFFFF" d="M189.342,61.945h-1.527c-0.322,0-0.485-0.161-0.485-0.485v-1.282c0-0.323,0.163-0.485,0.485-0.485h0.869
			c1.477,0,2.518-0.416,3.118-1.247c0.486-0.673,0.925-1.63,1.316-2.879h-1.003c-0.279,0-0.475-0.16-0.589-0.484l-5.099-15.774
			c-0.092-0.324,0.023-0.486,0.347-0.486h1.665c0.3,0,0.496,0.162,0.589,0.486l4.474,14.283h0.138l4.472-14.283
			c0.069-0.324,0.255-0.486,0.555-0.486h1.596c0.394,0,0.533,0.173,0.415,0.52l-5.166,16.468c-0.577,1.963-1.312,3.478-2.199,4.542
			C192.42,61.414,191.098,61.945,189.342,61.945z"/>
		<path fill="#FFFFFF" d="M218.254,56.503h-2.114c-0.324,0-0.521-0.162-0.588-0.484l-4.438-16.711
			c-0.069-0.324,0.045-0.486,0.346-0.486h1.768c0.3,0,0.484,0.162,0.555,0.486l3.363,14.145h0.207l3.573-14.145
			c0.067-0.324,0.253-0.486,0.553-0.486h1.596c0.323,0,0.531,0.162,0.623,0.486l3.467,14.145h0.21l3.397-14.145
			c0.067-0.324,0.253-0.486,0.555-0.486h1.769c0.299,0,0.415,0.162,0.347,0.486l-4.438,16.711c-0.07,0.322-0.269,0.484-0.589,0.484
			h-2.15c-0.303,0-0.486-0.162-0.555-0.484l-3.365-13.799h-0.172l-3.328,13.799C218.773,56.341,218.577,56.503,218.254,56.503z"/>
		<path fill="#FFFFFF" d="M248.693,56.503h-7.35c-1.596,0-2.851-0.45-3.762-1.351c-0.913-0.903-1.37-2.162-1.37-3.78v-7.419
			c0-1.618,0.457-2.879,1.37-3.779c0.911-0.902,2.166-1.352,3.762-1.352h2.912c1.594,0,2.842,0.45,3.745,1.352
			c0.899,0.9,1.351,2.161,1.351,3.779v4.402c0,0.346-0.162,0.521-0.486,0.521h-9.811c-0.231,0-0.347,0.103-0.347,0.311v2.114
			c0,2.011,0.97,3.018,2.912,3.018h7.073c0.322,0,0.485,0.16,0.485,0.484v1.249C249.179,56.354,249.016,56.503,248.693,56.503z
			 M239.055,47.039h7.49c0.229,0,0.345-0.117,0.345-0.349v-2.668c0-1.988-0.97-2.981-2.911-2.981h-2.358
			c-1.942,0-2.912,0.993-2.912,2.981v2.668C238.708,46.922,238.823,47.039,239.055,47.039z"/>
		<path fill="#FFFFFF" d="M253.616,56.019V32.615c0-0.323,0.162-0.484,0.485-0.484h1.561c0.321,0,0.484,0.161,0.484,0.484v7.835
			h0.139c0.576-1.225,1.758-1.836,3.537-1.836h1.94c1.573,0,2.814,0.451,3.727,1.352c0.915,0.901,1.37,2.15,1.37,3.745v7.661
			c0,1.618-0.455,2.877-1.37,3.78c-0.912,0.9-2.153,1.351-3.727,1.351h-7.661C253.778,56.503,253.616,56.341,253.616,56.019z
			 M256.493,54.284h4.925c1.963,0,2.945-1.005,2.945-3.016v-7.42c0-2.012-0.982-3.016-2.945-3.016h-2.047
			c-1.04,0-1.838,0.278-2.393,0.833s-0.832,1.328-0.832,2.322v9.984C256.146,54.18,256.264,54.284,256.493,54.284z"/>
	</g>
	<g>
		<path fill="#FFFFFF" d="M211.398,64.068h-0.296c-0.063,0-0.093-0.029-0.093-0.092v-4.051c0-0.063,0.03-0.094,0.093-0.094h2.049
			c0.06,0,0.09,0.031,0.09,0.094v0.236c0,0.061-0.03,0.091-0.09,0.091h-1.595c-0.045,0-0.066,0.021-0.066,0.06v1.438
			c0,0.039,0.021,0.06,0.066,0.06h1.411c0.061,0,0.091,0.032,0.091,0.091v0.239c0,0.061-0.03,0.092-0.091,0.092h-1.411
			c-0.045,0-0.066,0.021-0.066,0.065v1.68C211.49,64.039,211.46,64.068,211.398,64.068z"/>
		<path fill="#FFFFFF" d="M218.352,64.068h-0.785c-0.304,0-0.542-0.086-0.715-0.256c-0.174-0.172-0.261-0.411-0.261-0.718v-2.287
			c0-0.307,0.087-0.547,0.261-0.718c0.173-0.171,0.411-0.258,0.715-0.258h0.785c0.304,0,0.541,0.088,0.715,0.261
			s0.261,0.412,0.261,0.715v2.287c0,0.303-0.087,0.542-0.261,0.716C218.893,63.982,218.655,64.068,218.352,64.068z M217.619,63.648
			h0.672c0.369,0,0.555-0.191,0.555-0.572v-2.248c0-0.383-0.186-0.575-0.555-0.575h-0.672c-0.364,0-0.547,0.192-0.547,0.575v2.248
			C217.072,63.457,217.255,63.648,217.619,63.648z"/>
		<path fill="#FFFFFF" d="M225.19,59.832h0.297c0.061,0,0.093,0.03,0.093,0.087v3.176c0,0.307-0.086,0.546-0.258,0.718
			c-0.171,0.17-0.408,0.256-0.713,0.256h-0.729c-0.304,0-0.542-0.086-0.715-0.256c-0.175-0.172-0.262-0.411-0.262-0.718v-3.169
			c0-0.063,0.03-0.094,0.094-0.094h0.296c0.063,0,0.092,0.031,0.092,0.094v3.15c0,0.381,0.182,0.572,0.548,0.572h0.618
			c0.368,0,0.556-0.191,0.556-0.572v-3.15C225.106,59.863,225.134,59.832,225.19,59.832z"/>
		<path fill="#FFFFFF" d="M229.605,64.068h-0.288c-0.063,0-0.095-0.029-0.095-0.092v-4.051c0-0.063,0.031-0.094,0.095-0.094h0.269
			c0.053,0,0.088,0.018,0.104,0.054l1.821,3.195h0.022v-3.155c0-0.063,0.034-0.094,0.095-0.094h0.289
			c0.063,0,0.092,0.031,0.092,0.094v4.051c0,0.063-0.028,0.092-0.092,0.092h-0.243c-0.048,0-0.095-0.028-0.141-0.086l-1.809-3.16
			h-0.026v3.154C229.699,64.039,229.669,64.068,229.605,64.068z"/>
		<path fill="#FFFFFF" d="M235.688,63.977v-4.051c0-0.063,0.03-0.094,0.092-0.094h1.621c0.305,0,0.543,0.088,0.715,0.261
			c0.175,0.173,0.262,0.412,0.262,0.715v2.287c0,0.303-0.087,0.542-0.262,0.716c-0.172,0.172-0.41,0.258-0.715,0.258h-1.621
			C235.718,64.068,235.688,64.039,235.688,63.977z M236.234,63.648h1.107c0.37,0,0.554-0.191,0.554-0.572v-2.248
			c0-0.383-0.184-0.575-0.554-0.575h-1.107c-0.043,0-0.063,0.021-0.063,0.06v3.276C236.171,63.628,236.191,63.648,236.234,63.648z"
			/>
		<path fill="#FFFFFF" d="M242.04,64.068h-0.328c-0.057,0-0.077-0.029-0.061-0.092l1.231-4.051c0.019-0.063,0.062-0.094,0.125-0.094h0.477
			c0.065,0,0.108,0.031,0.126,0.094l1.23,4.051c0.019,0.063-0.002,0.092-0.059,0.092h-0.337c-0.048,0-0.078-0.029-0.092-0.092
			l-0.31-0.962h-1.594l-0.31,0.962C242.122,64.039,242.092,64.068,242.04,64.068z M243.232,60.326l-0.678,2.28h1.384l-0.678-2.28
			H243.232z"/>
		<path fill="#FFFFFF" d="M249.219,64.068h-0.297c-0.063,0-0.095-0.029-0.095-0.092v-3.664c0-0.039-0.022-0.06-0.063-0.06h-0.898
			c-0.066,0-0.098-0.03-0.098-0.091v-0.236c0-0.063,0.031-0.094,0.098-0.094h2.406c0.065,0,0.1,0.031,0.1,0.094v0.236
			c0,0.061-0.034,0.091-0.1,0.091h-0.896c-0.043,0-0.064,0.021-0.064,0.06v3.664C249.311,64.039,249.278,64.068,249.219,64.068z"/>
		<path fill="#FFFFFF" d="M254.146,59.926v4.051c0,0.063-0.032,0.092-0.092,0.092h-0.295c-0.064,0-0.095-0.029-0.095-0.092v-4.051
			c0-0.063,0.03-0.094,0.095-0.094h0.295C254.114,59.832,254.146,59.863,254.146,59.926z"/>
		<path fill="#FFFFFF" d="M259.551,64.068h-0.783c-0.305,0-0.543-0.086-0.715-0.256c-0.176-0.172-0.262-0.411-0.262-0.718v-2.287
			c0-0.307,0.086-0.547,0.262-0.718c0.172-0.171,0.41-0.258,0.715-0.258h0.783c0.303,0,0.541,0.088,0.715,0.261
			c0.173,0.173,0.258,0.412,0.258,0.715v2.287c0,0.303-0.085,0.542-0.258,0.716C260.092,63.982,259.854,64.068,259.551,64.068z
			 M258.82,63.648h0.67c0.37,0,0.555-0.191,0.555-0.572v-2.248c0-0.383-0.185-0.575-0.555-0.575h-0.67
			c-0.364,0-0.548,0.192-0.548,0.575v2.248C258.272,63.457,258.456,63.648,258.82,63.648z"/>
		<path fill="#FFFFFF" d="M264.519,64.068h-0.29c-0.062,0-0.094-0.029-0.094-0.092v-4.051c0-0.063,0.032-0.094,0.094-0.094h0.27
			c0.052,0,0.09,0.018,0.105,0.054l1.82,3.195h0.025v-3.155c0-0.063,0.031-0.094,0.094-0.094h0.286c0.064,0,0.095,0.031,0.095,0.094
			v4.051c0,0.063-0.03,0.092-0.095,0.092h-0.241c-0.049,0-0.094-0.028-0.139-0.086l-1.814-3.16h-0.023v3.154
			C264.611,64.039,264.578,64.068,264.519,64.068z"/>
	</g>
</g>
</svg>
