<svg enable-background="new 0 0 22 24" viewBox="0 0 22 24" xmlns="http://www.w3.org/2000/svg"><path d="m-1.8 17.9c0 .2 0 .4-.1.6-.2.3-.5.5-.8.5 0 0 0 0-.1 0l-9.5 4.9c-.2.1-.3.1-.5.1-.1 0-.1 0-.2 0 0 0 0 0-.1 0s-.2 0-.3-.1l-9.4-4.9h-.1c-.3 0-.6-.2-.8-.5-.1-.2-.1-.4-.1-.5v-.1-11.7-.1-.1c0-.2 0-.3.1-.5.1-.1.2-.3.4-.3.1 0 .1-.1.2-.1h.1.2l9.5-4.9c.1-.2.3-.2.4-.2h.1s0 0 .1 0c.2 0 .3 0 .5.1l9.5 4.9c.2 0 .3.1.5.2h.1s.1.1.1.1.1.1.1.1c.1.1.1.2.1.3v.3 11.7zm-20-1.7 1.6-1c.4-.3 1-.1 1.3.4s.1 1.1-.3 1.4l-1.6 1 7 3.6v-8.6l-1.6 1c-.4.3-1 .1-1.3-.4s-.1-1.1.3-1.4l1.6-1-7-3.6zm10-13.7v1.5c0 .6-.4 1-1 1s-1-.4-1-1v-1.5l-6.8 3.5 6.8 3.5v-1.5c0-.6.4-1 1-1s1 .4 1 1v1.5l6.8-3.5zm8 5-7 3.6 1.6 1c.4.3.6.9.3 1.4s-.8.6-1.3.4l-1.6-1v8.7l7-3.6-1.6-1c-.4-.4-.6-1-.3-1.5s.8-.6 1.3-.4l1.6 1z" fill="#bac4cb"/><g fill="none"><g stroke="#bac4cb" stroke-linecap="round" stroke-linejoin="round" stroke-miterlimit="10"><path d="m41.7 21.4h-15.7v-19.6h12.3l1.7 1.7 1.7 1.7z" stroke-width="2"/><path d="m41.6 7.4-6.8 1.2.1-6.6" stroke-width="2"/><path d="m29 11.9h9.6" stroke-width="1.5"/><path d="m29 15h9.6" stroke-width="1.5"/><path d="m29 18.2h9.6" stroke-width="1.5"/><circle cx="10.9" cy="11.3" r="9.3" stroke-width="2"/><path d="m10.9 2v2.8" stroke-width="2"/><path d="m10.9 17.6v2.8" stroke-width="2"/><path d="m20 11.3h-2.4" stroke-width="2"/><path d="m4.2 11.3h-2.4" stroke-width="2"/></g><path d="m-33.7-6h7.6v7.5h-7.6z"/></g></svg>