<?xml version="1.0" encoding="UTF-8"?>
<svg id="Livello_1" data-name="Livello 1" xmlns="http://www.w3.org/2000/svg" version="1.1" viewBox="0 0 1080 1080">
  <path d="M972.5,2051c0-197.3-132.1-363.6-312.6-415.6v139.5c106.5,46.4,181.1,152.7,181.1,276s-98.7,261.1-231.1,292.7v-813.8h-139.9v94.3c-205.6,33.4-362.6,211.8-362.6,426.8s132.1,363.5,312.6,415.6v-139.5c-106.5-46.4-181.1-152.7-181.1-276s98.7-261.1,231.1-292.7v813.8h139.9v-94.3c205.6-33.4,362.6-211.8,362.6-426.8Z" fill="#000" stroke-width="0"/>
  <g>
    <path d="M141.4,694.8c78.1,0,117.7-39,117.7-116v-81.8l.9-104.2c0-.4-.6-1-1.1-1h-54.3c-.4,0-1.1.6-1.1,1.1l.9,103.8v81.8c0,45.9-21.2,69.1-63.1,69.1s-58.8-23.3-58.8-69.1v-83.1l.9-102.5c0-.4-.7-1-1.1-1H21.7c-.4,0-1.1.6-1.1,1.1l.9,104.2v81.8c0,75.9,41.5,116,119.9,116Z" fill="#000" stroke-width="0"/>
    <path d="M953.5,391.7h-74.9c-1.4,0-2.2,1.1-2.5,1.9l-77.9,223.2-82.8-223.2c-.3-.8-1.1-1.9-2.5-1.9h-80.1c-.4,0-1.1.6-1.1,1.1l.9,147.2-.9,147.3c0,.4.6,1,1.1,1h52.1c.4,0,1.1-.6,1.1-1.1v-134.7l-2.1-59.4-.7-37,85.4,230.2c.3.8,1.1,1.9,2.5,1.9h44.8c1.4,0,2.2-1.1,2.5-1.9l77.8-221.5v27.4l-2.2,60.4v134.7c0,.4.7,1.1,1.1,1.1h58.6c.4,0,1.1-.6,1.1-1.1l-.9-147.2.9-147.3c0-.4-.6-1-1.1-1Z" fill="#000" stroke-width="0"/>
    <path d="M1058.3,391.7h-58.6c-.4,0-1.1.6-1.1,1.1l1.3,147.2-1.3,147.3c0,.4.6,1,1.1,1h58.6c.4,0,1.1-.6,1.1-1.1l-1.3-147.2,1.3-147.3c0-.4-.6-1-1.1-1Z" fill="#000" stroke-width="0"/>
    <path d="M603.2,540c0-71.8-48.1-132.3-113.7-151.2v50.8c38.7,16.9,65.9,55.5,65.9,100.4s-35.9,95-84.1,106.5v-296.1h-50.9v34.3c-74.8,12.2-131.9,77-131.9,155.3s48.1,132.3,113.7,151.2v-50.8c-38.7-16.9-65.9-55.5-65.9-100.4s35.9-95,84.1-106.5v296.1h50.9v-34.3c74.8-12.2,131.9-77,131.9-155.3Z" fill="#000" stroke-width="0"/>
  </g>
</svg>