<svg xmlns="http://www.w3.org/2000/svg" width="187" height="34" viewBox="0 0 187 34">
    <defs>
        <linearGradient id="a" x1="57.615%" x2="21.492%" y1="20.435%" y2="167.594%">
            <stop offset="0%" stop-color="#FFF"/>
            <stop offset="44.383%" stop-color="#C2C1C1"/>
            <stop offset="100%" stop-color="#323232"/>
        </linearGradient>
        <linearGradient id="b" x1="57.495%" x2="31.102%" y1="20.8%" y2="131.641%">
            <stop offset="0%" stop-color="#FFF"/>
            <stop offset="100%" stop-color="#A5A5A5"/>
        </linearGradient>
        <linearGradient id="c" x1="50%" x2="23.607%" y1="57.108%" y2="-53.698%">
            <stop offset="0%" stop-color="#DCDCDC"/>
            <stop offset="100%" stop-color="#A5A5A5"/>
        </linearGradient>
    </defs>
    <g fill="none" fill-rule="nonzero">
        <path fill="#FFF" d="M90.869 28.858V1.36h-5.5v31.96h21.682v-4.462z"/>
        <path fill="url(#a)" d="M33.2 1.385l-6.862-.025-12.787 31.96 6.909-.098z"/>
        <path fill="url(#b)" d="M117.214 33.222l12.77-31.837 6.878-.025-12.822 31.96z"/>
        <path fill="#FFF" d="M46.072 14.96h22.359v4.76H46.072v-4.76zm0 13.6h22.359v4.76H46.072v-4.76zm136.51-19.772l3.446-4.216S183.731.092 174.45.002c-9.28-.09-12.64 4.57-12.818 10.015-.178 5.445 4.43 9.491 14.24 10.192 0 0 5.656.965 4.772 4.568-.883 3.602-4.507 4.567-7.249 4.303-2.74-.264-7.423-2.811-8.737-5.008l-4.08 4.378s2.72 5.886 14.3 5.535C186.457 33.635 187 25.391 187 22.93c0 0 .24-6.217-8.113-7.719-9.022-1.634-11.686-3.422-11.242-6.847.443-3.426 7.954-5.288 14.938.424h-.001z"/>
        <path fill="#B144EF" d="M46.072.68h22.359v4.76H46.072V.68zm91.602.78l12.739 31.835-6.858.025-12.79-31.96 6.909.1z"/>
        <path fill="url(#c)" d="M0 1.385l6.861-.025L19.65 33.32l-6.91-.098z"/>
    </g>
</svg>
