<svg id="a9f6c0d8-de43-4214-b67b-695b33c143c9" data-name="ba9ee284-43f9-428d-a095-c53ac9a78a4e" xmlns="http://www.w3.org/2000/svg" xmlns:xlink="http://www.w3.org/1999/xlink" viewBox="0 0 1109.33 201.88"><defs><style>.efbaf74b-1696-48aa-ad7f-a21c0b60b355{fill:url(#e3fc3d9d-2aa1-4d4a-990d-07052f7dec99);}.a3476f20-f889-48dd-a246-7c007799735b{fill:#9d41eb;}.fcc3af4c-bd92-46cc-85cf-4d9a8cdf077c{fill:url(#ea162fa2-be86-41e0-8b05-e3de36dff5ee);}.a897f114-6299-4978-9e58-31f73fb1e47b{fill:url(#a2a6a900-9e3b-45f4-89b8-8e2c14b1c942);}.a428871e-83c4-4f6e-a44c-bac15fbeb727{fill:url(#eb67108f-d901-4704-bd8c-c5a12c1f86a7);}.bc4eba84-c025-4a42-91e8-77dbc8188d1a{fill:url(#a8474e80-fee7-4194-9ede-13b9f0bd145f);}.ec0aec68-d4fd-4b03-a3ce-02a7e2b5c472{fill:url(#b7a8bd25-0252-4151-bce4-18ebd72b6226);}.aaf3bc57-384b-4cd6-92ce-07338c8b2292{fill:url(#a8aeb09f-f076-443e-89c4-a23b781e6131);}</style><linearGradient id="e3fc3d9d-2aa1-4d4a-990d-07052f7dec99" x1="788" y1="122.15" x2="692.79" y2="122.15" gradientTransform="translate(0 -18)" gradientUnits="userSpaceOnUse"><stop offset="0" stop-color="#e6e7e8"/><stop offset="0.22" stop-color="#e3e4e5"/><stop offset="0.41" stop-color="#d8d9da"/><stop offset="0.6" stop-color="#c6c7c9"/><stop offset="0.77" stop-color="#adaeb1"/><stop offset="0.94" stop-color="#8d8f91"/><stop offset="1" stop-color="#808285"/></linearGradient><linearGradient id="ea162fa2-be86-41e0-8b05-e3de36dff5ee" x1="3096.47" y1="-9804.61" x2="3191.75" y2="-9804.61" gradientTransform="matrix(-1, 0, 0, 1, 3292.75, 9905.18)" xlink:href="#e3fc3d9d-2aa1-4d4a-990d-07052f7dec99"/><linearGradient id="a2a6a900-9e3b-45f4-89b8-8e2c14b1c942" x1="3173.16" y1="-9804.61" x2="3292.75" y2="-9804.61" gradientTransform="matrix(-1, 0, 0, 1, 3292.75, 9905.18)" xlink:href="#e3fc3d9d-2aa1-4d4a-990d-07052f7dec99"/><linearGradient id="eb67108f-d901-4704-bd8c-c5a12c1f86a7" x1="256.71" y1="826.16" x2="590.29" y2="743.77" gradientTransform="matrix(1, 0, 0, -1, 0, 988)" gradientUnits="userSpaceOnUse"><stop offset="0" stop-color="#e6e7e8"/><stop offset="1" stop-color="#f2f2f2"/></linearGradient><linearGradient id="a8474e80-fee7-4194-9ede-13b9f0bd145f" x1="276.34" y1="905.65" x2="609.92" y2="823.25" xlink:href="#eb67108f-d901-4704-bd8c-c5a12c1f86a7"/><linearGradient id="b7a8bd25-0252-4151-bce4-18ebd72b6226" x1="777.74" y1="323.21" x2="1111.32" y2="240.82" gradientTransform="matrix(1, 0, 0, -1, -491.58, 365.8)" xlink:href="#eb67108f-d901-4704-bd8c-c5a12c1f86a7"/><linearGradient id="a8aeb09f-f076-443e-89c4-a23b781e6131" x1="807.03" y1="441.83" x2="1140.62" y2="359.43" gradientTransform="matrix(1, 0, 0, -1, -491.58, 365.8)" xlink:href="#eb67108f-d901-4704-bd8c-c5a12c1f86a7"/></defs><title>violet_name_logo_velas</title><path class="efbaf74b-1696-48aa-ad7f-a21c0b60b355" d="M769.48,6.43,692.79,201.86h38.93L788,51.35Z" transform="translate(0 0)"/><polygon class="a3476f20-f889-48dd-a246-7c007799735b" points="889.07 201.86 850.17 201.86 788.04 51.35 769.48 6.42 812.26 6.42 889.07 201.86"/><path class="fcc3af4c-bd92-46cc-85cf-4d9a8cdf077c" d="M119.59,198.28,196.28,2.85H157.35L101,153.36Z" transform="translate(0 0)"/><polygon class="a897f114-6299-4978-9e58-31f73fb1e47b" points="0 2.85 38.91 2.85 101.04 153.36 119.59 198.28 76.82 198.28 0 2.85"/><rect class="a428871e-83c4-4f6e-a44c-bac15fbeb727" x="276.19" y="168.09" width="133.91" height="30.19"/><rect class="bc4eba84-c025-4a42-91e8-77dbc8188d1a" x="276.19" y="83.76" width="133.91" height="30.19"/><path class="ec0aec68-d4fd-4b03-a3ce-02a7e2b5c472" d="M503.74,198.28V2.86h34.34V168.1H624.2v30.18Z" transform="translate(0 0)"/><path class="aaf3bc57-384b-4cd6-92ce-07338c8b2292" d="M954,171l19-26.41a89.54,89.54,0,0,0,27,19.52,79.75,79.75,0,0,0,34.91,7.6q19.6,0,29.4-8t9.8-18.91a17.73,17.73,0,0,0-3.94-11.5,28.92,28.92,0,0,0-10.52-8,96.74,96.74,0,0,0-15.12-5.46l-17.89-5-18.93-5.23a95.14,95.14,0,0,1-18.08-7,73.57,73.57,0,0,1-15.09-10.17A41.68,41.68,0,0,1,964,77.63,50.86,50.86,0,0,1,960.07,57q0-24.43,19.82-40.73T1031.42,0q45.36,0,73.5,27l-19.76,25.52a72.79,72.79,0,0,0-25.86-16.71,85.23,85.23,0,0,0-30.74-5.67q-15,0-24.1,6.7a21.08,21.08,0,0,0-9.09,17.81,15,15,0,0,0,3.85,10.17A28.53,28.53,0,0,0,1009.63,72a125.85,125.85,0,0,0,15.1,5.22l18,5.06,18.86,5.32a92.82,92.82,0,0,1,18.1,7.24,74.94,74.94,0,0,1,15.3,10.58,42.35,42.35,0,0,1,10.43,15.28,53.39,53.39,0,0,1,3.9,21,58.69,58.69,0,0,1-4.52,23.1,55.89,55.89,0,0,1-13.5,19.11q-9,8.42-23.84,13.19t-34.1,4.78Q983.16,201.87,954,171Z" transform="translate(0 0)"/><rect class="a3476f20-f889-48dd-a246-7c007799735b" x="276.19" y="2.86" width="133.91" height="30.19"/></svg>