<?xml version="1.0" encoding="UTF-8"?>
<svg width="256px" height="256px" viewBox="0 0 256 256" version="1.1" xmlns="http://www.w3.org/2000/svg" xmlns:xlink="http://www.w3.org/1999/xlink">
    <!-- Generator: Sketch 58 (84663) - https://sketch.com -->
    <title>Logo_VHuman_b2_bo</title>
    <desc>Created with Sketch.</desc>
    <g id="Logo_VHuman_b2_bo" stroke="none" stroke-width="1" fill="none" fill-rule="evenodd">
        <path d="M7.5,128.001106 C7.5,194.549732 61.4507345,248.5 128,248.5 C194.549265,248.5 248.5,194.549732 248.5,128.001106 C248.5,61.4505904 194.549587,7.5 128,7.5 C61.4504126,7.5 7.5,61.4505904 7.5,128.001106 Z" id="Fill-10" stroke="#253248" stroke-width="15" fill="#FF9802"></path>
        <path d="M28,128.000864 C28,183.228033 72.7723542,228 128,228 C183.227646,228 228,183.228033 228,128.000864 C228,72.7719674 183.227646,28 128,28 C72.7723542,28 28,72.7719674 28,128.000864 Z" id="Fill-10" stroke="#253248" stroke-width="9" fill="#FF9802"></path>
        <rect id="Rectangle" fill="#253248" x="110" y="150" width="37" height="29"></rect>
        <polyline id="Path-3" stroke="#253248" stroke-width="24" stroke-linecap="round" stroke-linejoin="round" points="71 98 127.554455 194 184.108911 98"></polyline>
        <circle id="Oval" fill="#FF9802" cx="127.5" cy="143.5" r="13.5"></circle>
        <path d="M128,84.8196601 L145.09017,119 L110.90983,119 L128,84.8196601 Z" id="Triangle" stroke="#253248" stroke-width="10" fill="#253248" stroke-linejoin="round" transform="translate(128.000000, 105.000000) scale(1, -1) translate(-128.000000, -105.000000) "></path>
    </g>
</svg>