<svg fill="none" height="26" viewBox="0 0 105 26" width="105" xmlns="http://www.w3.org/2000/svg"><path clip-rule="evenodd" d="m9.94947 0h-9.94947v5.15898h9.94947zm15.10843 0h-9.9494v5.15898h9.9494zm-9.9494 19.8989h4.7904v-4.7904h5.159v4.7904 5.159h-5.159-4.7904zm-5.15903 0h-4.79049v-4.7904h-5.15898v4.7904 5.159h5.15898 4.79049z" fill="#62a7a5" fill-rule="evenodd"/><g fill="#252a30"><path d="m39.5813 10.9936 1.2984-2.07586h2.2044l-2.1973 3.40616 2.29 3.5476h-2.2115l-1.3769-2.1851-1.3697 2.1851h-2.2187l2.29-3.5476-2.1901-3.40616h2.2115z"/><path d="m44.2112 15.8715v-9.35736h3.1961c.9131 0 1.7288.18637 2.4469.55912.7229.36847 1.2865.89546 1.6908 1.58098.4042.68124.6064 1.45676.6064 2.32646v.4306c0 .8698-.1998 1.6431-.5993 2.3201-.3947.6769-.9536 1.2018-1.6765 1.5745-.7229.3728-1.5385.5613-2.4469.5656zm2.1402-7.79566v6.24676h1.0345c.837 0 1.4767-.2463 1.919-.7391.4423-.4927.6682-1.1975.6777-2.1143v-.4949c0-.9512-.2187-1.67096-.6563-2.15939-.4375-.49272-1.0772-.73907-1.919-.73907z"/><path d="m58.0512 15.8715c-.0951-.1671-.1641-.3749-.2069-.6234-.4994.5013-1.1486.7519-1.9476.7519-.7562 0-1.384-.1971-1.8834-.5913-.4946-.3941-.7419-.8911-.7419-1.491 0-.7369.302-1.3024.906-1.6966.6088-.3942 1.4863-.5934 2.6325-.5977h.9488v-.3985c0-.3213-.0928-.5784-.2782-.7712-.1808-.1928-.4685-.2892-.8633-.2892-.3471 0-.6206.075-.8204.225-.195.1499-.2925.3556-.2925.6169h-2.0617c0-.4027.1379-.7755.4138-1.11823.2758-.34275.6658-.61053 1.17-.80334.5041-.19708 1.0701-.29563 1.6979-.29563.9512 0 1.705.21637 2.2614.6491.5612.42845.8418 1.0326.8418 1.8123v3.0142c.0048.6598.1071 1.1589.3068 1.4974v.1093zm-1.705-1.2918c.3043 0 .5849-.06.8418-.18.2568-.1242.447-.2892.5707-.4948v-1.1954h-.7705c-1.032 0-1.5814.3213-1.6479.964l-.0072.1093c0 .2313.0904.422.2711.572.1807.1499.4281.2249.742.2249z"/><path d="m63.5872 15.8715h-2.0689v-6.95376h2.0689zm-2.1902-8.75325c0-.27849.1023-.50771.3068-.68766.2092-.17995.4922-.26992.8489-.26992.352 0 .6326.08997.8418.26992.2093.17995.3139.40917.3139.68766 0 .28278-.107.51414-.321.69409-.2093.17995-.4875.26992-.8347.26992s-.6278-.08997-.8418-.26992c-.2092-.17995-.3139-.41131-.3139-.69409z"/><path d="m77.2202 12.7545c-.0808 1.0069-.4946 1.7995-1.2413 2.3779-.7419.5784-1.7217.8676-2.9392.8676-1.3317 0-2.3804-.4027-3.1461-1.2082-.7609-.8098-1.1414-1.9195-1.1414-3.3291v-.572c0-.8997.1759-1.69233.5279-2.37785.3519-.68551.8537-1.21036 1.5053-1.57455.6563-.36846 1.4172-.5527 2.2828-.5527 1.1985 0 2.164.28921 2.8964.86761.7325.57841 1.1557 1.39032 1.2699 2.43574h-2.1402c-.0523-.60412-.2402-1.04113-.5636-1.31106-.3186-.27421-.8061-.41131-1.4625-.41131-.7134 0-1.2484.23136-1.6051.69409-.352.45844-.5327 1.17181-.5422 2.14013v.7069c0 1.0112.1688 1.7502.5065 2.2172.3425.467.8799.7006 1.6123.7006.6611 0 1.1533-.135 1.4767-.4049.3282-.2742.5161-.6963.5636-1.2661z"/><path d="m80.5019 9.67609c.5469-.59126 1.2341-.88689 2.0617-.88689 1.6741 0 2.523.87618 2.5468 2.6285v4.4538h-2.0617v-4.4023c0-.3985-.0951-.692-.2854-.8805-.1902-.1928-.5065-.2892-.9488-.2892-.604 0-1.0415.2099-1.3126.6298v4.9422h-2.0618v-9.8715h2.0618z"/><path d="m91.1386 15.8715c-.0951-.1671-.164-.3749-.2068-.6234-.4994.5013-1.1486.7519-1.9476.7519-.7562 0-1.384-.1971-1.8834-.5913-.4946-.3941-.7419-.8911-.7419-1.491 0-.7369.302-1.3024.906-1.6966.6088-.3942 1.4862-.5934 2.6324-.5977h.9489v-.3985c0-.3213-.0928-.5784-.2783-.7712-.1807-.1928-.4684-.2892-.8632-.2892-.3472 0-.6206.075-.8204.225-.195.1499-.2925.3556-.2925.6169h-2.0617c0-.4027.1379-.7755.4138-1.11823.2758-.34275.6658-.61053 1.1699-.80334.5042-.19708 1.0701-.29563 1.6979-.29563.9512 0 1.705.21637 2.2615.6491.5612.42845.8418 1.0326.8418 1.8123v3.0142c.0048.6598.107 1.1589.3068 1.4974v.1093zm-1.705-1.2918c.3044 0 .585-.06.8418-.18.2569-.1242.4471-.2892.5708-.4948v-1.1954h-.7705c-1.0321 0-1.5814.3213-1.648.964l-.0071.1093c0 .2313.0904.422.2711.572.1807.1499.428.2249.7419.2249z"/><path d="m96.6746 15.8715h-2.0688v-6.95376h2.0688zm-2.1901-8.75325c0-.27849.1022-.50771.3068-.68766.2092-.17995.4922-.26992.8489-.26992.3519 0 .6325.08997.8418.26992s.3139.40917.3139.68766c0 .28278-.107.51414-.321.69409-.2093.17995-.4875.26992-.8347.26992s-.6278-.08997-.8418-.26992c-.2093-.17995-.3139-.41131-.3139-.69409z"/><path d="m100.277 8.91774.065.80334c.551-.62125 1.291-.93188 2.218-.93188.818 0 1.427.21637 1.826.6491.4.43274.604 1.0797.614 1.9409v4.4923h-2.062v-4.4473c0-.3942-.095-.6791-.285-.8548-.19-.1799-.507-.2699-.949-.2699-.58 0-1.015.2228-1.305.6684v4.9036h-2.0622v-6.95376z"/></g></svg>