<svg height="36" width="101" xmlns="http://www.w3.org/2000/svg"><g fill-rule="evenodd"><path d="m29.079 27.848-10.126 6.457c-3.496 2.231-3.496 2.231-6.989.003l-10.154-6.475c-1.807-1.28-1.807-3.322-1.807-3.322v-13.047s0-2.222 1.823-3.337l10.138-6.465c3.493-2.225 3.493-2.225 6.992.005l10.123 6.455c1.833 1.177 1.831 3.338 1.831 3.338v13.052s.002 2.139-1.831 3.336zm-9.629-15.965c-.429 0-.8.204-1.057.508l-.013-.01-2.294 2.85h-.01a.611.611 0 0 1 -.45.201.608.608 0 0 1 -.45-.201h-.027l-2.294-2.85-.012.01a1.381 1.381 0 0 0 -1.058-.508h-3.088l5.042 6.264-5.042 6.264h3.088c.43 0 .801-.204 1.058-.509l.013.011 2.281-2.834h.019a.608.608 0 0 1 .47-.23c.192 0 .356.093.469.23h.003l2.282 2.834.012-.011c.258.305.629.509 1.058.509h3.088l-5.041-6.264 5.041-6.264z" fill="#12ac97"/><path d="m99.961 30.953-2.563-3.675h-.028l.018.206c.033.39.05.748.05 1.072v2.397h-.774v-4.611h1.034l2.556 3.655h.021a19.955 19.955 0 0 1 -.029-.528 16.461 16.461 0 0 1 -.021-.712v-2.415h.781v4.611zm-2.741-10.152h-2.952v-12.025h-3.78v-2.577h10.512v2.577h-3.78zm-6.64 10.152-.521-1.281h-1.992l-.51 1.281h-.898l1.949-4.63h.927l1.95 4.63zm-1.234-3.186a7.578 7.578 0 0 1 -.148-.397 7.769 7.769 0 0 1 -.13-.398 6.502 6.502 0 0 1 -.281.849l-.471 1.202h1.519zm-7.989-6.966h-3.941v-14.602h4.37c2.272 0 4.037.63 5.294 1.888 1.257 1.259 1.885 3.016 1.885 5.274 0 2.403-.652 4.244-1.957 5.523-1.304 1.278-3.188 1.917-5.651 1.917zm.581-12.065h-1.571v9.508h1.266c2.844 0 4.266-1.601 4.266-4.804 0-3.136-1.32-4.704-3.961-4.704zm-3.57 18.463a5.145 5.145 0 0 0 -.558-.194 2.277 2.277 0 0 0 -.618-.083c-.49 0-.875.153-1.155.46-.281.308-.421.731-.421 1.271 0 .567.135.994.405 1.284.269.291.66.436 1.171.436.221 0 .435-.02.641-.059a8.21 8.21 0 0 0 .645-.15v.647a4.36 4.36 0 0 1 -1.39.205c-.763 0-1.348-.205-1.757-.613-.409-.409-.613-.995-.613-1.756 0-.479.099-.899.297-1.258a2 2 0 0 1 .861-.827c.376-.191.817-.287 1.323-.287a3.63 3.63 0 0 1 1.475.297zm-8.746-15.851c.264.19.887.531 1.871 1.024 1.301.652 2.193 1.307 2.676 1.962.482.656.723 1.46.723 2.412 0 1.319-.452 2.357-1.356 3.116-.905.759-2.163 1.139-3.776 1.139-1.485 0-2.799-.293-3.942-.879v-2.876c.94.439 1.735.749 2.386.929.65.179 1.245.269 1.785.269.647 0 1.144-.13 1.49-.389.346-.26.519-.646.519-1.159 0-.286-.076-.541-.229-.764a2.598 2.598 0 0 0 -.671-.644c-.295-.206-.897-.536-1.804-.989-.851-.419-1.489-.822-1.914-1.208a4.513 4.513 0 0 1 -1.019-1.349c-.254-.512-.381-1.112-.381-1.797 0-1.292.418-2.308 1.252-3.047.835-.739 1.989-1.108 3.461-1.108.724 0 1.414.09 2.071.269.657.18 1.344.433 2.062.759l-.952 2.407c-.743-.319-1.357-.542-1.843-.669a5.687 5.687 0 0 0 -1.433-.19c-.558 0-.987.137-1.285.41-.299.273-.448.629-.448 1.069 0 .273.061.511.181.714.121.203.313.399.576.589zm-7.969 14.994h.851v3.964h2.207v.647h-3.058zm-1.071-5.99c-.87.433-1.898.649-3.085.649-1.79 0-3.18-.481-4.171-1.443-.99-.962-1.485-2.279-1.485-3.95v-9.409h2.942v8.939c0 1.126.216 1.951.648 2.477.431.526 1.145.789 2.142.789.965 0 1.665-.264 2.099-.794.435-.529.653-1.36.653-2.492v-8.919h2.942v9.449c0 1.078-.23 2.024-.691 2.836-.46.813-1.125 1.435-1.994 1.868zm-6.7 10.601h-.905l-.521-1.281h-1.992l-.51 1.281h-.898l1.95-4.63h.926zm-2.286-3.583a8.04 8.04 0 0 1 -.131-.398 6.502 6.502 0 0 1 -.281.849l-.471 1.202h1.519l-.489-1.256a7.792 7.792 0 0 1 -.147-.397zm-4.811-6.569-2.237-3.825-2.247 3.825h-3.295l3.609-5.703-3.428-5.463h3.295l2.066 3.556 2.085-3.556h3.294l-3.465 5.463 3.627 5.703zm-6.277 9.578c.338 0 .587-.057.747-.17a.534.534 0 0 0 .241-.458.55.55 0 0 0 -.221-.439c-.148-.119-.452-.261-.913-.425-.475-.17-.81-.365-1.005-.583a1.145 1.145 0 0 1 -.292-.789c0-.385.154-.688.463-.909.309-.22.724-.331 1.244-.331.499 0 .996.097 1.49.291l-.271.614c-.463-.172-.877-.258-1.24-.258-.276 0-.485.053-.628.159a.503.503 0 0 0 -.213.422.54.54 0 0 0 .085.307.837.837 0 0 0 .282.241c.13.076.366.176.706.3.382.141.662.272.841.394.178.122.309.26.392.413.083.154.125.335.125.543 0 .41-.168.731-.503.965-.335.233-.797.35-1.387.35-.589 0-1.071-.081-1.447-.243v-.713c.238.099.49.177.758.234.267.056.516.085.746.085zm7.306-3.391h-1.533v3.965h-.852v-3.965h-1.533v-.646h3.918zm10.991-.369c.319.185.479.477.479.877a.982.982 0 0 1 -.235.672c-.157.179-.383.291-.677.337v.032c.366.061.635.181.807.361s.258.423.258.73c0 .415-.163.739-.49.973-.327.235-.781.352-1.363.352h-1.882v-4.611h1.547c.717 0 1.236.092 1.556.277zm-2.251 3.7h.905c.356 0 .626-.061.807-.181.182-.121.273-.313.273-.573 0-.24-.093-.417-.278-.533s-.467-.173-.845-.173h-.862zm0-2.072h.82c.356 0 .616-.05.78-.15s.246-.27.246-.509c0-.217-.088-.374-.265-.471-.178-.096-.458-.145-.843-.145h-.738zm13.135-1.268h-2.096v1.255h1.964v.631h-1.964v1.448h2.096v.64h-2.948v-4.611h2.948zm11.896 1.249h2.402v-1.886h.856v4.611h-.856v-2.079h-2.402v2.079h-.852v-4.611h.852zm12.572 2.725h-.852v-4.611h.852z" fill="#333"/></g></svg>