<svg width="1623" height="469" viewBox="0 0 1623 469" fill="none" xmlns="http://www.w3.org/2000/svg">
<path fill-rule="evenodd" clip-rule="evenodd" d="M567 234.5L409.441 77V192.347L253 307.833L409.441 307.942V392L567 234.5Z" fill="#4E529A"/>
<path fill-rule="evenodd" clip-rule="evenodd" d="M11 234.5L168.632 392V277.874L324 162.311L168.632 162.204V77L11 234.5Z" fill="#8C8DFC"/>
<path d="M809 328H688V293.043L757.27 215.359H689.784V181H807.811V214.165L736.459 293.341H809V328Z" fill="black" fill-opacity="0.9"/>
<path d="M975.803 181.216L916.826 242.973L977 328H928.202L889.283 271.912L872.818 289.216V328H833V112H872.818V235.812L923.711 181.216H975.803Z" fill="black" fill-opacity="0.9"/>
<path d="M1147.02 166.777L1110.14 178.09C1108.76 170.548 1104.99 163.701 1098.85 157.548C1092.7 151.396 1083.67 148.32 1071.78 148.32C1062.07 148.32 1054.14 150.999 1047.99 156.358C1041.85 161.518 1038.77 167.77 1038.77 175.113C1038.77 188.013 1046.41 195.952 1061.67 198.928L1091.11 204.585C1109.74 208.158 1124.22 215.6 1134.53 226.913C1144.84 238.225 1150 251.522 1150 266.804C1150 284.27 1143.06 299.551 1129.18 312.65C1115.5 325.551 1097.06 332 1073.86 332C1060.58 332 1048.58 330.016 1037.88 326.047C1027.17 322.077 1018.55 316.818 1012.01 310.268C1005.46 303.521 1000.31 296.474 996.542 289.132C992.974 281.589 990.793 273.849 990 265.911L1028.07 255.789C1029.06 267.102 1033.42 276.529 1041.15 284.071C1049.08 291.612 1060.09 295.383 1074.16 295.383C1084.86 295.383 1093.2 293.002 1099.14 288.238C1105.29 283.475 1108.36 277.223 1108.36 269.483C1108.36 263.331 1106.08 258.072 1101.52 253.705C1097.16 249.14 1090.92 246.065 1082.79 244.477L1053.34 238.523C1036.29 234.95 1022.81 227.905 1012.9 217.386C1002.99 206.867 998.03 193.769 998.03 178.09C998.03 159.434 1005.17 143.756 1019.44 131.054C1033.92 118.352 1051.27 112 1071.48 112C1083.58 112 1094.39 113.687 1103.9 117.061C1113.41 120.435 1121.05 124.999 1126.79 130.755C1132.55 136.313 1137 142.069 1140.18 148.022C1143.35 153.976 1145.63 160.228 1147.02 166.777Z" fill="black" fill-opacity="0.9"/>
<path d="M1216.81 386H1174.75L1209.35 309.499L1147 181H1191.45L1230.54 267.064L1266.64 181H1309L1216.81 386Z" fill="black" fill-opacity="0.9"/>
<path d="M1363.4 243.94V328H1324V181.861H1362.21V199.981C1366.35 192.852 1372.28 187.406 1379.98 183.643C1387.69 179.881 1395.78 178 1404.27 178C1421.45 178 1434.48 183.446 1443.37 194.336C1452.46 205.03 1457 218.89 1457 235.921V328H1417.6V242.752C1417.6 234.04 1415.33 227.009 1410.79 221.663C1406.44 216.317 1399.73 213.644 1390.64 213.644C1382.36 213.644 1375.74 216.515 1370.81 222.258C1365.86 227.999 1363.4 235.228 1363.4 243.94Z" fill="black" fill-opacity="0.9"/>
<path d="M1554.03 213.524C1543.48 213.524 1534.62 217.185 1527.46 224.51C1520.29 231.834 1516.7 241.831 1516.7 254.501C1516.7 267.17 1520.29 277.266 1527.46 284.787C1534.82 292.112 1543.78 295.774 1554.33 295.774C1563.68 295.774 1571.15 293.399 1576.73 288.647C1582.29 283.699 1586.08 277.859 1588.07 271.128L1623 282.71C1619.42 296.17 1611.66 307.751 1599.71 317.451C1587.77 327.15 1572.64 332 1554.33 332C1532.43 332 1514.02 324.676 1499.09 310.028C1484.36 295.181 1477 276.671 1477 254.501C1477 232.131 1484.26 213.622 1498.79 198.974C1513.53 184.325 1531.64 177 1553.13 177C1571.85 177 1587.17 181.851 1599.12 191.55C1611.06 201.052 1618.72 212.632 1622.1 226.291L1586.57 238.169C1581.8 221.738 1570.95 213.524 1554.03 213.524Z" fill="black" fill-opacity="0.9"/>
</svg>
