<svg viewBox="0 0 14 16" xmlns="http://www.w3.org/2000/svg" width="14" height="16">
    <path fill="#7DD79F" fill-rule="evenodd" d="M14 11c0 .026-.013.049-.015.074.004.382-.159.757-.481.962l-5.897 3.743-.004.002-.099.063a.983.983 0 0 1-.299.115c-.01.002-.019.009-.03.011-.013.002-.027.001-.04.003-.046.006-.087.027-.135.027-.048 0-.089-.021-.135-.027-.013-.002-.027-.001-.04-.003-.011-.002-.02-.009-.03-.011a.983.983 0 0 1-.299-.115l-.099-.063-.004-.002-5.897-3.743c-.322-.205-.485-.58-.481-.962C.013 11.049 0 11.026 0 11V5a.98.98 0 0 1 .085-.398c.066-.256.184-.494.411-.638L6.393.221l.004-.002.114-.073c.022-.013.046-.013.068-.025A.924.924 0 0 1 6.825.03.86.86 0 0 1 7 .017a.86.86 0 0 1 .175.013c.087.017.166.05.246.091.022.012.046.012.068.025l.114.073.004.002 5.897 3.743c.227.144.345.382.411.638A.98.98 0 0 1 14 5v6zm-6 2.01l4-2.539V6.99L8 9.529v3.481zm-6-2.539l4 2.539V9.529L2 6.99v3.481zm5-8.116L2.834 5 7 7.645 11.166 5 7 2.355z"/>
</svg>
