<svg xmlns="http://www.w3.org/2000/svg" width="34" height="68">
    <path fill="#4786FF" fill-rule="evenodd" d="M29.931 44.657A.98.98 0 0 1 30 45v13h3a1 1 0 0 1 1 1v8a1 1 0 0 1-1 1H1a1 1 0 0 1-1-1v-8a1 1 0 0 1 1-1h3V45a.98.98 0 0 1 .069-.343c.495-4.824 3.633-8.86 7.938-10.654a13.005 13.005 0 0 1-7.924-10.607A1.006 1.006 0 0 1 4 23V10H1a1 1 0 0 1-1-1V1a1 1 0 0 1 1-1h32a1 1 0 0 1 1 1v8a1 1 0 0 1-1 1h-3v13c0 .141-.031.274-.083.396a13.005 13.005 0 0 1-7.924 10.607c4.305 1.794 7.443 5.83 7.938 10.654zM2 66h30v-2H2v2zm0-6v2h30v-2H2zM2 2v2h30V2H2zm30 6V6H2v2h30zm-4 14V10H6v12c0 6.075 4.925 11 11 11s11-4.925 11-11zm0 24c0-6.075-4.925-11-11-11S6 39.925 6 46v12h22V46zm-5 7a1 1 0 1 1 0 2 1 1 0 0 1 0-2zm-4 2a1 1 0 1 1 0-2 1 1 0 0 1 0 2zm0-4a1 1 0 1 1 0-2 1 1 0 0 1 0 2zm-2-4a1 1 0 1 1 0-2 1 1 0 0 1 0 2zm-2 4a1 1 0 1 1 0-2 1 1 0 0 1 0 2zm-4 4a1 1 0 1 1 0-2 1 1 0 0 1 0 2zm4-2a1 1 0 1 1 0 2 1 1 0 0 1 0-2zm1-24a1 1 0 1 1 2 0 1 1 0 0 1-2 0zm3-5a1 1 0 1 1 0 2 1 1 0 0 1 0-2zm-4 2a1 1 0 1 1 0-2 1 1 0 0 1 0 2z"/>
</svg>
