<svg xmlns="http://www.w3.org/2000/svg" width="32" height="36">
    <defs>
        <linearGradient id="a" x1="0%" y1="0%" y2="0%">
            <stop offset="0%" stop-color="#FFF" stop-opacity=".8"/>
            <stop offset="100%" stop-color="#FFF" stop-opacity=".349"/>
        </linearGradient>
    </defs>
    <path fill="none" d="M30.428 26.99l-13.856 8a3 3 0 1 1-3-5.196l13.856-8a3 3 0 0 1 3 5.196zm-6-10.392l-13.856 8a3 3 0 0 1-3-5.196l13.856-8a3 3 0 1 1 3 5.196zm-6-10.392l-13.856 8a3 3 0 0 1-3-5.196l13.856-8a3 3 0 1 1 3 5.196z"/>
    <path fill="url(#a)" d="M30.428 26.99l-13.856 8a3 3 0 1 1-3-5.196l13.856-8a3 3 0 0 1 3 5.196zm-6-10.392l-13.856 8a3 3 0 0 1-3-5.196l13.856-8a3 3 0 1 1 3 5.196zm-6-10.392l-13.856 8a3 3 0 0 1-3-5.196l13.856-8a3 3 0 1 1 3 5.196z"/>
    <path fill="#FFF" fill-rule="evenodd" d="M1.572 9.01a3 3 0 0 1 4.098 1.098l12 20.784a3 3 0 0 1-5.196 3l-12-20.784A3 3 0 0 1 1.572 9.01z" opacity=".6"/>
</svg>
