<svg xmlns="http://www.w3.org/2000/svg" width="22" height="24">
    <path fill="#cdcdcc" fill-rule="evenodd" d="M21.998 17.936c0 .006-.004.011-.004.017.009.185-.013.374-.105.547a.892.892 0 0 1-.816.485c-.019.002-.036.011-.055.011l-9.467 4.887a1.11 1.11 0 0 1-.519.111A.113.113 0 0 1 11 24c-.011 0-.021-.006-.032-.006-.052 0-.104-.009-.156-.014-.018-.004-.038-.001-.056-.005a.984.984 0 0 1-.308-.092l-9.425-4.888c-.008 0-.015.005-.023.005-.03 0-.055-.013-.084-.015a.895.895 0 0 1-.805-.485 1.038 1.038 0 0 1-.105-.547c-.002-.01-.006-.019-.006-.03v-.046c.001-.031-.005-.061 0-.092V6.188c-.005-.031.001-.061 0-.092v-.019l.002-.013c0-.043.004-.086.01-.128a.788.788 0 0 1 .114-.459.98.98 0 0 1 .407-.336.928.928 0 0 1 .18-.079c.038-.01.074-.017.112-.024.053-.01.103-.03.157-.034L10.448.117c.156-.081.323-.103.49-.105C10.96.011 10.978 0 11 0s.04.011.062.012c.167.002.334.024.489.104l9.537 4.902c.179.021.343.09.483.199a.613.613 0 0 1 .058.042c.042.037.08.073.116.116.042.044.095.078.129.131.072.111.098.23.109.349A.826.826 0 0 1 22 6.16v11.652c.005.031-.001.062 0 .093v.018l-.002.013zM2 16.159l1.633-1.025c.44-.276 1.002-.112 1.256.366s.103 1.09-.337 1.366l-1.565.983L10 21.486v-8.645l-1.633 1.025c-.44.276-1.002.112-1.256-.366s-.103-1.09.337-1.366l1.573-.988L2 7.522v8.637zM12 2.492V4a1 1 0 0 1-2 0V2.503L3.226 6 10 9.497V8a1 1 0 0 1 2 0v1.508L18.825 6 12 2.492zm8 5.05l-7.017 3.606 1.569.986c.44.276.591.888.337 1.366-.254.478-.816.642-1.256.366L12 12.841v8.656l7.037-3.633-1.589-.998c-.44-.276-.591-.888-.337-1.366.254-.478.816-.642 1.256-.366L20 16.159V7.542z"/>
</svg>
