<svg width="405" height="253" viewBox="0 0 405 253" fill="none" xmlns="http://www.w3.org/2000/svg">
<rect x="4.57764e-05" width="405" height="253" fill="url(#paint0_linear)"/>
<path d="M10 0C4.4772 0 4.26769e-05 5.6636 4.26769e-05 12.65V240.35C4.26769e-05 247.336 1.52588e-05 253 1.52588e-05 253H32.6085C46.3927 239.133 61.8096 213.867 77.5 168.878C109.843 76.1396 140.5 63.25 200 63.25C258.887 63.25 281.533 20.5015 281.993 0H10Z" fill="url(#paint1_linear)"/>
<path d="M10 0C4.4772 0 4.55379e-05 5.6636 4.55379e-05 12.65V240.35C4.55379e-05 247.336 3.05176e-05 253 3.05176e-05 253H109.529C119.764 241.058 128.648 226.304 135 208.092C167.343 115.355 231 108.79 290.5 108.79C347.682 108.79 397.099 25.5423 400.335 1.94844C398.791 0.714287 396.961 0 395 0H10Z" fill="url(#paint2_linear)"/>
<defs>
<linearGradient id="paint0_linear" x1="4.57764e-05" y1="0" x2="428.826" y2="202.559" gradientUnits="userSpaceOnUse">
<stop stop-color="#FF675E"/>
<stop offset="1" stop-color="#FFA44F"/>
</linearGradient>
<linearGradient id="paint1_linear" x1="1.47133e-05" y1="-1.265" x2="241.997" y2="153.82" gradientUnits="userSpaceOnUse">
<stop stop-color="white" stop-opacity="0.1"/>
<stop offset="1" stop-color="white" stop-opacity="0.3"/>
</linearGradient>
<linearGradient id="paint2_linear" x1="2.04059e-05" y1="-1.26491" x2="241.997" y2="153.82" gradientUnits="userSpaceOnUse">
<stop offset="0.598958" stop-color="white" stop-opacity="0.05"/>
<stop offset="1" stop-color="white" stop-opacity="0.2"/>
</linearGradient>
</defs>
</svg>
