<svg fill="none" height="158" viewBox="0 0 156 158" width="156" xmlns="http://www.w3.org/2000/svg"><path d="m66.5 95.5999-11.9 2.6-1.5-5.5 12.6-2.3z" fill="#00f"/><path d="m54.6 98.2001-10.3 3.4999-2.2-5.7999 11.1-3.3z" fill="#00f"/><path d="m65.7 90.3001-12.6 2.3-1.3-6.5 13.3-2z" fill="#0028ff"/><path d="m53.1 92.6001-11.1 3.3-2-6.8 11.7-3z" fill="#0018ff"/><path d="m67.3 99.8001-11.1 2.8999-1.6-4.4999 11.9-2.6z" fill="#0000f1"/><path d="m56.2 102.7-9.5 3.7-2.4-4.7 10.3-3.5z" fill="#0000da"/><path d="m65.1 84.1999-13.3 2-1.1-7.2 13.8-1.6z" fill="#0058ff"/><path d="m51.8 86.1999-11.7 3-1.7-7.6 12.3-2.7z" fill="#0048ff"/><path d="m79.4 93.9-13 1.7-.7-5.2 13.6-1.4z" fill="#0014ff"/><path d="m68.1 102.9-10.3 3.1-1.7-3.3 11.1-2.9z" fill="#0000da"/><path d="m44.3 101.7-8.4 4.3-3-6 9.2-4.2z" fill="#0000e8"/><path d="m57.8 106-8.7 3.8-2.5-3.5 9.5-3.7z" fill="#0000c4"/><path d="m79.4 89.0001-13.6 1.4-.7-6.1001 14.3-1z" fill="#003cff"/><path d="m42.1 95.9001-9.2 4.1999-2.7-6.9999 9.9-4z" fill="#0008ff"/><path d="m79.5 97.7999-12.2 2-.8-4.2 13-1.7z" fill="#00f"/><path d="m46.7 106.4-7.7 4.5-3.2-4.8 8.4-4.3z" fill="#0000c8"/><path d="m64.5 77.2999-13.8 1.6-.9-7.8 14.3-1.2z" fill="#0090ff"/><path d="m50.7 78.9001-12.3 2.7-1.4-8.2 12.8-2.3z" fill="#0084ff"/><path d="m79.3 83.2001-14.3 1-.6-6.9001 14.8-.5z" fill="#0068ff"/><path d="m40.1 89.1001-9.9 4-2.3-7.8 10.4-3.7z" fill="#003cff"/><path d="m79.6 100.6-11.5 2.3-.8-3.1 12.2-2z" fill="#0000f6"/><path d="m68.9 104.8-9.4 3.2-1.7-2.1 10.3-3.1z" fill="#0000d1"/><path d="m49.2 109.8-6.8 4.5-3.3-3.5 7.7-4.5z" fill="#0000ad"/><path d="m59.5 108.1-7.8 3.9-2.5-2.2 8.7-3.8z" fill="#00b"/><path d="m79.3 76.8-14.8.5-.5-7.3999 15.3-.1001z" fill="#009cff"/><path d="m38.3 81.5999-10.4 3.7-1.9-8.5 10.9-3.4z" fill="#0078ff"/><path d="m79.6 102.4-10.7 2.5-.9-1.9 11.5-2.3z" fill="#0000ed"/><path d="m64 69.9001-14.3 1.2-.7-8.3 14.7-.7z" fill="#0cf"/><path d="m92.9 93-13.5.9v-4.9l14.1-.5z" fill="#002cff"/><path d="m49.7 71.0999-12.8 2.3-1.1-8.6 13.2-1.9z" fill="#00c4ff"/><path d="m92.3 96.6-12.8 1.2-.1-3.9 13.5-.9z" fill="#0014ff"/><path d="m93.5 88.5001-14.1.5v-5.7001h14.6z" fill="#0050ff"/><path d="m35.8 106-6.4 5.1-3.7-6.1 7.1-5z" fill="#0000da"/><path d="m32.9 100.1-7.1 5-3.3-7.1001 7.8-4.7999z" fill="#00f"/><path d="m51.7 112-6 4.6-3.4-2.2 6.8-4.5z" fill="#0000a4"/><path d="m39 110.8-5.7 5.1-3.9-4.9 6.4-5.1z" fill="#0000b6"/><path d="m69.8 105.5-8.6 3.3-1.7-.7 9.4-3.2z" fill="#0000d6"/><path d="m91.7 99.1-12.1 1.5-.1-2.9 12.8-1.2z" fill="#0004ff"/><path d="m94 83.2001h-14.6v-6.4001l15.1.4001z" fill="#0078ff"/><path d="m61.2 108.8-6.9 4-2.5-.8 7.8-3.9z" fill="#0000bf"/><path d="m79.3 69.8001-15.3.1-.3-7.8 15.6.4z" fill="#00d8ff"/><path d="m30.2 93.0999-7.8 4.8-2.9-8 8.3-4.6999z" fill="#0034ff"/><path d="m79.7 102.9-9.9 2.6-.9-.7 10.7-2.5z" fill="#0000f1"/><path d="m42.4 114.4-4.9 5.1-4.1-3.6 5.7-5.1z" fill="#00009f"/><path d="m36.9 73.4001-10.9 3.3999-1.5-8.8999 11.3-3.1001z" fill="#00bcff"/><path d="m91.1 100.7-11.5 1.7-.1-1.7 12.1-1.5z" fill="#00f"/><path d="m63.7 62.1-14.7.7-.5-8.5 14.9-.3z" fill="#23ffd4"/><path d="m94.4 77.2001-15.1-.4001v-7l15.5.9001z" fill="#00acff"/><path d="m49 62.8-13.2 1.9001-.7-8.8 13.5-1.6001z" fill="#1cffdb"/><path d="m54.3 112.8-5.1 4.6-3.4-.8 6-4.6z" fill="#0000ad"/><path d="m27.9 85.3-8.3 4.7001-2.4-8.7001 8.8-4.5z" fill="#0070ff"/><path d="m70.6 104.9-7.8 3.3-1.6.6 8.6-3.3z" fill="#0000e8"/><path d="m45.8 116.6-4.1 5.1-4.2-2.2 4.9-5.1z" fill="#000096"/><path d="m79.3 62.5001-15.6-.4-.2-8 15.8.9z" fill="#26ffd1"/><path d="m90.5 101.1-10.8 1.9-.1-.6 11.5-1.7z" fill="#00f"/><path d="m106.2 92.9-13.3.1.6-4.5 13.8.3z" fill="#04f"/><path d="m105.1 96.0999-12.8.5.6-3.6 13.3-.1z" fill="#002cff"/><path d="m62.8 108.2-6.1 4-2.5.6 6.9-4z" fill="#0000d1"/><path d="m94.8 70.6999-15.5-.9v-7.4l15.8 1.4z" fill="#00e0fb"/><path d="m79.8 102.3-9.2 2.6-.8.6 9.9-2.6z" fill="#00f"/><path d="m107.3 88.7999-13.8-.3.5-5.2999 14.3.7999z" fill="#0064ff"/><path d="m35.8 64.7999-11.3 3.1-1-9.2 11.5-2.8z" fill="#19ffde"/><path d="m103.9 98.4001-12.2.8.6-2.6 12.8-.5z" fill="#001cff"/><path d="m29.4 111.1-4.5 5.6-4.3-6.1 5.1-5.6z" fill="#0000d1"/><path d="m33.3 115.9-3.8 5.6-4.6-4.8 4.5-5.6z" fill="#0000a8"/><path d="m63.5 54.0001-14.9.2999-.2-8.5 15.1.1001z" fill="#5aff9d"/><path d="m108.3 83.9999-14.3-.7999.5-6 14.7 1.2999z" fill="#008cff"/><path d="m25.7 105-5.1 5.6-3.9-7.1 5.6-5.6001z" fill="#00f"/><path d="m26 76.7999-8.8 4.5-1.8-9.1 9.1-4.3z" fill="#00b8ff"/><path d="m48.6 54.3-13.5 1.6001-.3-8.9 13.6-1.2001z" fill="#5aff9d"/><path d="m102.7 99.6999-11.6 1.0001.6-1.5001 12.2-.8z" fill="#0018ff"/><path d="m56.7 112.2-4.3 4.5-3.3.7 5.1-4.6z" fill="#0000bf"/><path d="m49.1 117.3-3.4 5-4.2-.7 4.1-5.1z" fill="#00009b"/><path d="m37.4 119.5-3.1 5.5-4.8-3.5 3.8-5.6z" fill="#000092"/><path d="m89.9 100.4-10.1 1.9-.1.6 10.8-1.9z" fill="#000cff"/><path d="m22.4 97.9-5.6 5.6-3.3-8 6.1-5.5z" fill="#002cff"/><path d="m79.3 54.9-15.8-.9-.1-8 15.9 1.3z" fill="#5dff9a"/><path d="m95.1 63.8999-15.8-1.4v-7.6l16 1.9z" fill="#2cffca"/><path d="m109.2 78.4999-14.7-1.2999.4-6.5 15.1 1.7999z" fill="#00b8ff"/><path d="m71.4 103-7 3.3-1.5 1.9 7.8-3.3z" fill="#00f"/><path d="m79.9 100.4-8.5 2.6-.8 1.9 9.2-2.6z" fill="#000cff"/><path d="m101.5 99.8999-11 1.2001.6-.4 11.6-1z" fill="#0018ff"/><path d="m64.4 106.3-5.3 3.9-2.3 2 6.1-4z" fill="#0000f1"/><path d="m35.1 55.9-11.5 2.8-.4-9.2 11.7-2.5z" fill="#56ffa0"/><path d="m41.6 121.7-2.5 5.4-4.9-2.1 3.1-5.5z" fill="#000089"/><path d="m19.6 90.0001-6.1 5.5-2.8-8.8 6.5-5.4001z" fill="#006cff"/><path d="m24.5 67.9001-9.1 4.3-1.2-9.4001 9.3-4z" fill="#16ffe1"/><path d="m109.9 72.5001-15.1-1.8.3-6.9001 15.3 2.3001z" fill="#06ecf1"/><path d="m63.4 46.0001-15.1-.1.1-8.3 15 .5z" fill="#94ff63"/><path d="m89.4 98.5-9.5 1.9-.1 1.8 10.1-1.9z" fill="#0024ff"/><path d="m52.4 116.7-2.6 4.9-4 .8 3.4-5z" fill="#0000ad"/><path d="m117.1 96.2999-12-.2 1.1-3.2 12.4.6z" fill="#04f"/><path d="m118.7 93.3999-12.4-.6 1.1-4.0999 12.9 1z" fill="#005cff"/><path d="m95.4 56.8-16-1.8999v-7.6001l16.1 2.4001z" fill="#5dff9a"/><path d="m48.4 45.9001-13.6 1.1.1-8.6 13.6-.8z" fill="#94ff63"/><path d="m100.4 99.1001-10.5 1.1999.6.7 11-1.1999z" fill="#0028ff"/><path d="m59.1 110.2-3.6 4.4-3.1 2.1 4.3-4.5z" fill="#0000df"/><path d="m115.4 98.3001-11.5.1 1.2-2.3 12 .2z" fill="#0038ff"/><path d="m120.2 89.8-12.9-1 1-4.8 13.2 1.4z" fill="#0078ff"/><path d="m79.4 47.3001-16-1.3.1-7.9 15.9 1.8z" fill="#90ff66"/><path d="m45.8 122.4-1.8 5.3-4.8-.6 2.5-5.4z" fill="#00008d"/><path d="m72.1 99.8999-6.3 3.1001-1.4 3.2 7-3.3z" fill="#001cff"/><path d="m113.8 99.3-11.1.4001 1.2-1.3 11.5-.1001z" fill="#0034ff"/><path d="m80 97.3999-7.8 2.5-.7 3.1001 8.5-2.6z" fill="#0030ff"/><path d="m121.5 85.4-13.2-1.4.9-5.5 13.6 1.9z" fill="#00a0ff"/><path d="m110.5 66.2001-15.3-2.3.2-7.1001 15.5 2.8001z" fill="#33ffc4"/><path d="m17.2 81.3001-6.5 5.4-2.10002-9.3 6.80002-5.3z" fill="#00b0ff"/><path d="m24.9 116.7-2.6 6-4.7-6 3.1-6.1z" fill="#0000c8"/><path d="m29.5 121.5-2.1 5.9-5.1-4.7 2.6-6z" fill="#0000a4"/><path d="m65.8 103.1-4.6 3.7-2.1 3.4 5.3-3.9z" fill="#0008ff"/><path d="m20.7 110.7-3.1 6.1-4.3-7.1 3.6-6.1z" fill="#00f"/><path d="m34.8 47.0999-11.7 2.5.1-9 11.6-2.2z" fill="#94ff63"/><path d="m112.1 99.3999-10.6.5 1.2-.3 11.1-.3999z" fill="#0034ff"/><path d="m99.3 97.3-10 1.2001.5 1.7999 10.5-1.1999z" fill="#003cff"/><path d="m23.6 58.7-9.3 4-.5-9.4 9.4-3.8z" fill="#56ffa0"/><path d="m34.3 125-1.6 5.7-5.3-3.3 2.1-5.9z" fill="#000089"/><path d="m88.9 95.6001-8.9 1.8-.1 2.9999 9.5-1.8999z" fill="#04f"/><path d="m122.7 80.4-13.6-1.9.7-6 13.8 2.5z" fill="#00c8ff"/><path d="m95.5 49.6999-16.1-2.4v-7.4l16.1 2.9z" fill="#90ff66"/><path d="m63.5 38.0999-15-.5.3-7.8999 14.9.8999z" fill="#caff2c"/><path d="m55.5 114.5-1.9 4.8-3.8 2.3 2.6-4.9z" fill="#0000cd"/><path d="m16.8 103.5-3.6 6.1-3.7-8 3.9-6.1z" fill="#0028ff"/><path d="m48.4 37.6001-13.6.8.5-8.2 13.4-.4001z" fill="#ceff29"/><path d="m79.4 39.9001-15.9-1.8.2-7.5 15.8 2.2z" fill="#c7ff30"/><path d="m49.8 121.6-1.1 5.1-4.7.9 1.8-5.3z" fill="#00009f"/><path d="m110.9 59.5999-15.5-2.8.1-7.0999 15.6 3.2999z" fill="#60ff97"/><path d="m110.6 98.5-10.2.6 1.1.8 10.6-.5z" fill="#0040ff"/><path d="m61.2 106.8-2.9 4.2-2.8 3.5 3.6-4.4z" fill="#00f"/><path d="m39.2 127.1-1 5.6-5.4-1.9 1.6-5.7z" fill="#000080"/><path d="m15.4 72.0999-6.79999 5.3-1.4-9.6 6.99999-5.0999z" fill="#16ffe1"/><path d="m123.7 74.9999-13.8-2.5.6-6.2999 14 3z" fill="#0ff8e7"/><path d="m80.1 93.3-7.3 2.3001-.6 4.3 7.8-2.5z" fill="#0058ff"/><path d="m72.8 95.6001-5.7 2.9-1.2 4.4999 6.3-3.0999z" fill="#0048ff"/><path d="m98.4 94.5-9.5 1.1.5 2.9 10-1.2z" fill="#0058ff"/><path d="m13.5 95.4999-3.9 6.1001-3.1-8.8001 4.3-6.0999z" fill="#0068ff"/><path d="m127.6 97-10.5-.7 1.6-2.8 10.8 1.1z" fill="#0060ff"/><path d="m125.6 98.7001-10.2-.4001 1.6-2 10.5.7001z" fill="#0054ff"/><path d="m129.5 94.4999-10.8-1.1 1.5-3.6999 11.1 1.5z" fill="#0074ff"/><path d="m88.5 91.7-8.4 1.5999-.1 4.1 8.9-1.8z" fill="#006cff"/><path d="m67 98.6001-4 3.4999-1.9 4.7 4.6-3.7z" fill="#0038ff"/><path d="m109.1 96.7-9.7.5999 1.1 1.8 10.2-.6z" fill="#0054ff"/><path d="m95.5 42.8-16.1-2.8999.1-7.1001 16 3.3001z" fill="#c1ff36"/><path d="m44 127.7-.5 5.4-5.4-.4 1-5.6z" fill="#000084"/><path d="m23.1 49.5001-9.4 3.8.1-9.2 9.4-3.5z" fill="#97ff60"/><path d="m123.6 99.5001-9.8-.2001 1.7-1 10.2.4001z" fill="#004cff"/><path d="m34.9 38.4001-11.6 2.2.7-8.5 11.5-1.8001z" fill="#d1ff26"/><path d="m131.3 91.2999-11.1-1.5 1.4-4.4 11.4 2z" fill="#0090ff"/><path d="m124.5 69.2-14-3 .4-6.5 14.2 3.5z" fill="#36ffc1"/><path d="m111.1 53.0001-15.6-3.3v-6.9001l15.6 3.8001z" fill="#8dff6a"/><path d="m63.7 30.7001-14.9-.9.6-7.2 14.6 1.3z" fill="#ffea00"/><path d="m58.3 111-1.2 4.6-3.5 3.7 1.9-4.8z" fill="#00f"/><path d="m121.6 99.4999h-9.5l1.6-.1 9.8.2z" fill="#0050ff"/><path d="m53.6 119.3-.5 5-4.4 2.4 1.1-5.1z" fill="#0000c4"/><path d="m132.9 87.3999-11.4-2 1.2-5 11.7 2.5z" fill="#00b0ff"/><path d="m79.5 32.7999-15.8-2.2.3-6.8999 15.5 2.5999z" fill="#fbf100"/><path d="m97.6 90.8-9.1.9001.4 3.9 9.5-1.1z" fill="#0080ff"/><path d="m48.8 29.6999-13.4.4.9-7.6 13.1-.1z" fill="#ffe200"/><path d="m14.2 62.7001-7.00002 5.0999-.6-9.5999 7.10002-4.9001z" fill="#53ffa4"/><path d="m10.7 86.6999-4.30003 6.1-2.29999-9.3 4.5-6.1z" fill="#00b0ff"/><path d="m63.1 102.1-2.2 4-2.5 4.9 2.9-4.2z" fill="#002cff"/><path d="m107.8 94-9.4.5.9 2.8 9.7-.6z" fill="#0070ff"/><path d="m27.4 127.4-.5 5.7-5.3-4.6.7-5.8z" fill="#00009f"/><path d="m22.3 122.7-.7 5.8-4.9-5.9.9-5.8z" fill="#0000c8"/><path d="m80.2 88.3-6.8 2-.5 5.3001 7.3-2.3001z" fill="#008cff"/><path d="m119.7 98.5h-9.1l1.6.9h9.5z" fill="#005cff"/><path d="m73.3 90.3-5.2 2.7001-1 5.6 5.7-2.9z" fill="#007cff"/><path d="m134.4 82.8999-11.7-2.5 1-5.5 11.9 3z" fill="#00d8ff"/><path d="m32.7 130.8-.2 5.6-5.5-3.3.5-5.7z" fill="#000089"/><path d="m48.7 126.7v5.2l-5.2 1.1.5-5.4z" fill="#00009b"/><path d="m125 63.1-14.2-3.5.2-6.6 14.2 4z" fill="#63ff94"/><path d="m17.5 116.7-.9 5.8-4.5-7 1-5.9z" fill="#0000fa"/><path d="m88.2 86.8999-8 1.4-.1 5.1 8.4-1.6z" fill="#009cff"/><path d="m95.5 36.1001-16-3.3001.1-6.5 15.8 3.7001z" fill="#f1fc06"/><path d="m111.1 46.5999-15.6-3.8-.1-6.5999 15.5 4.1999z" fill="#beff39"/><path d="m68.1 93-3.5 3.3-1.6 5.8 4-3.5z" fill="#0070ff"/><path d="m38.1 132.6v5.5l-5.6-1.8.2-5.6z" fill="#000080"/><path d="m117.9 96.7h-8.8l1.5 1.7999h9.1z" fill="#006cff"/><path d="m23.2 40.6001-9.4 3.5.8-8.8 9.3-3.2z" fill="#d4ff23"/><path d="m135.6 77.9001-11.9-3 .8-5.8 12 3.5z" fill="#19ffde"/><path d="m35.4 30.2001-11.5 1.8 1.2-7.9 11.2-1.5z" fill="#ffdb00"/><path d="m13.3 109.6-1 5.9-3.89998-8 1.20001-5.9z" fill="#0024ff"/><path d="m106.6 90.5-9 .3.8 3.7 9.4-.5z" fill="#0094ff"/><path d="m96.9 86.2-8.7.6999.3 4.8001 9.1-.9001z" fill="#00acff"/><path d="m64 23.8001-14.6-1.3.9-6.4 14.2 1.6z" fill="#ffb200"/><path d="m8.59998 77.4001-4.5 6.1-1.5-9.7001 4.6-6z" fill="#13fce4"/><path d="m57.1 115.6.1 4.8-4.1 3.9.5-5z" fill="#0000f1"/><path d="m79.5 26.2999-15.5-2.5.5-6.0999 15.2 2.9z" fill="#ffbd00"/><path d="m60.8 106.1-.7 4.4-3.1 5.1 1.2-4.6z" fill="#0020ff"/><path d="m125.3 57-14.2-4v-6.5l14.2 4.5z" fill="#8dff6a"/><path d="m133.7 99.6-8.1-.9 2-1.7 8.3 1.2z" fill="#006cff"/><path d="m135.9 98.2-8.3-1.2 1.9-2.5 8.6 1.5z" fill="#0078ff"/><path d="m13.7 53.3-7.10002 4.9.19999-9.5 7.00003-4.7z" fill="#97ff60"/><path d="m131.5 100.2-7.9-.7001 2-.7999 8.1.8999z" fill="#0068ff"/><path d="m138 96.0999-8.6-1.5 1.8-3.2 8.8 1.9z" fill="#008cff"/><path d="m49.4 22.4999-13.1.1 1.3-6.7 12.7.2z" fill="#ffa700"/><path d="m80.2 82.3-6.5 1.7001-.4 6.2999 6.8-2z" fill="#00c4ff"/><path d="m43.5 133 .2 5.4-5.6-.3v-5.5z" fill="#000084"/><path d="m53.1 124.3.5 5-4.9 2.6v-5.2z" fill="#00b"/><path d="m116.3 94.1-8.6-.1 1.3 2.7h8.8z" fill="#0084ff"/><path d="m64.6 96.3-1.7 3.8-2.1 6.1 2.2-4z" fill="#0068ff"/><path d="m136.5 72.6001-12-3.5.5-6 12.1 4z" fill="#3cffba"/><path d="m87.9 81.3-7.7 1-.1 6 8-1.3999z" fill="#00d0ff"/><path d="m9.49998 101.6-1.20001 5.9-3.19999-8.7999 1.29999-5.9001z" fill="#0064ff"/><path d="m129.2 100-7.7-.5 2 .1 7.9.7z" fill="#0068ff"/><path d="m73.8 84-4.8 2.4-.8 6.6 5.2-2.7z" fill="#00b8ff"/><path d="m140 93.1999-8.8-1.9 1.6-3.9 8.9 2.4z" fill="#00a4ff"/><path d="m110.9 40.4001-15.5-4.2-.2-6.1 15.3 4.6z" fill="#ebff0c"/><path d="m95.3 30-15.8-3.7.1-5.8 15.4 4z" fill="#ffc800"/><path d="m105.7 86.2-8.8.0999.7 4.6 9-.3z" fill="#00bcff"/><path d="m127.1 99-7.4-.5 1.9.9 7.7.5z" fill="#0074ff"/><path d="m141.9 89.7001-8.9-2.4001 1.4-4.5 9.1 2.8001z" fill="#00c4ff"/><path d="m96.4 80.8999-8.5.3.2 5.6 8.7-.7z" fill="#00dcfe"/><path d="m68.9 86.3999-3.1 3-1.2 6.9 3.5-3.3z" fill="#00b0ff"/><path d="m125.3 51.0999-14.2-4.5-.2-6.2 14.1 4.9z" fill="#b7ff40"/><path d="m114.9 90.6999-8.3-.3 1.1 3.5 8.6.1z" fill="#00a4ff"/><path d="m137.1 67.1-12.1-4 .3-6.1 12.1 4.5z" fill="#63ff94"/><path d="m48.7 131.9.4 5.3-5.4 1.2-.2-5.4z" fill="#000096"/><path d="m7.20003 67.8001-4.6 6-.70001-9.8 4.70001-5.9z" fill="#53ffa4"/><path d="m23.9 32.0001-9.3 3.2 1.5-8.2 9-2.9z" fill="#ffd700"/><path d="m64.5 17.7-14.2-1.6 1.1-5.4 13.7 1.9z" fill="#ff7a00"/><path d="m36.3 22.5999-11.2 1.5 1.7-7 10.8-1.2z" fill="#ff9c00"/><path d="m79.6 20.6-15.2-2.9.6-5.2 14.7 3.1z" fill="#ff8900"/><path d="m125.2 97.2-7.2-.5 1.8 1.7999 7.4.5z" fill="#0084ff"/><path d="m26.9 133.1.6 5.2-5.3-4.6-.7-5.2z" fill="#00009f"/><path d="m143.5 85.6999-9.1-2.8 1.2-5 9.2 3.3z" fill="#00e4f8"/><path d="m21.6 128.5.7 5.2-4.9-5.9-.7-5.2z" fill="#0000c8"/><path d="m60.2 110.5.6 4.6-3.6 5.3-.1-4.8z" fill="#0018ff"/><path d="m6.49999 92.8-1.3 5.9-2.4-9.3 1.4-5.9z" fill="#00acff"/><path d="m32.5 136.4.6 5.2-5.5-3.3-.6-5.2z" fill="#000089"/><path d="m62.9 100.1-.2 4.1-2.6 6.3.7-4.4z" fill="#005cff"/><path d="m80.3 75.6001-6.2 1.3-.3 7.1 6.5-1.7z" fill="#16ffe1"/><path d="m57.2 120.4 1 4.8-4.5 4.1-.5-5z" fill="#0000ed"/><path d="m110.6 34.7001-15.3-4.6-.3-5.5 15 5z" fill="#ffd700"/><path d="m87.8 75-7.5.6-.1 6.7 7.7-1z" fill="#1cffdb"/><path d="m13.8 43.9999-7.00001 4.7001.9-9 6.90001-4.5z" fill="#d7ff1f"/><path d="m16.7 122.6.7 5.2-4.5-7-.7-5.2z" fill="#0000fa"/><path d="m105 81.1999-8.6-.3.5 5.3h8.8z" fill="#02e8f4"/><path d="m50.2 16.1-12.7-.2001 1.6-5.6999 12.1.5z" fill="#ff6f00"/><path d="m95 24.6-15.4-4 .1-4.9 15 4.3z" fill="#ff9800"/><path d="m74.1 76.8999-4.6 2-.6 7.4 4.8-2.4z" fill="#13fce4"/><path d="m123.4 94.7001-7.1-.6 1.6 2.6 7.2.5z" fill="#009cff"/><path d="m65.8 89.3999-1.3 3.5-1.6 7.2001 1.7-3.8001z" fill="#00a8ff"/><path d="m113.8 86.7-8.1-.5.9 4.2999 8.3.3z" fill="#0cf"/><path d="m144.8 81.2999-9.2-3.3.9-5.2999 9.3 3.7999z" fill="#1fffd7"/><path d="m38.1 138.1.6 5.2-5.6-1.8-.6-5.2z" fill="#000080"/><path d="m137.5 61.6001-12.1-4.5v-6l12.1 5z" fill="#8dff6a"/><path d="m125.1 45.2999-14.1-4.9-.4-5.6999 14 5.2999z" fill="#e1ff16"/><path d="m96.1 75.1-8.3-.1.1 6.3 8.5-.3z" fill="#23ffd4"/><path d="m12.2 115.5.7 5.2-3.90001-8-.7-5.3z" fill="#0024ff"/><path d="m139.2 100.8-5.5-1.2999 2.2-1.4 5.6 1.5z" fill="#0084ff"/><path d="m53.7 129.2.6 5.2-5.1 2.8-.4-5.3z" fill="#00b"/><path d="m136.8 101.2-5.4-1.1 2.2-.6 5.5 1.3z" fill="#0080ff"/><path d="m141.5 99.7001-5.6-1.5 2.1-2.1 5.7 1.8z" fill="#0090ff"/><path d="m134.5 100.9-5.3-.9 2.2.2 5.4 1.1z" fill="#0084ff"/><path d="m143.8 97.9001-5.7-1.8 2-2.8001 5.8 2.2001z" fill="#00a0ff"/><path d="m69.5 78.8999-2.8 2.7-.8 7.8 3.1-3z" fill="#0cf4eb"/><path d="m4.09998 83.5001-1.4 5.9-1.6-9.7 1.5-5.9001z" fill="#13fce4"/><path d="m121.8 91.5001-6.9-.7001 1.4 3.4001 7.1.5999z" fill="#00b8ff"/><path d="m79.7 15.5999-14.7-3.1.7-4.1 14.1 3.3z" fill="#ff6000"/><path d="m145.8 76.4999-9.3-3.7999.6-5.5 9.4 4.2999z" fill="#43ffb4"/><path d="m6.60003 58.2001-4.70001 5.9.20001-9.6 4.69999-5.7001z" fill="#97ff60"/><path d="m43.7 138.4.6 5.2-5.6-.3-.6-5.2z" fill="#000084"/><path d="m65 12.5-13.7-1.8999 1.3-4.30005 13 2.09999z" fill="#ff4e00"/><path d="m110 29.4999-15-5-.3-4.6 14.6 5.2z" fill="#ffab00"/><path d="m132.3 99.7999-5.1-.9 2.1 1 5.3.9001z" fill="#008cff"/><path d="m104.5 75.8001-8.4-.7.3 5.9 8.6.3z" fill="#2cffca"/><path d="m145.9 95.3999-5.8-2.1999 1.8-3.5 5.9 2.5999z" fill="#00b8ff"/><path d="m25.1 24.1-9 2.9 2.1-7.3 8.6-2.7z" fill="#ff9400"/><path d="m37.6 15.8999-10.8 1.2001 2.2-5.9 10.2-1z" fill="#ff6400"/><path d="m113 82.1001-8-.8001.7 5 8.1.5z" fill="#0cf4eb"/><path d="m87.8 68.2-7.4.1999-.1 7.3001 7.5-.6001z" fill="#50ffa7"/><path d="m80.3 68.3-6.1.9001-.2 7.7 6.2-1.3z" fill="#4dffaa"/><path d="m137.5 56.0001-12.1-5-.3-5.7001 12.1 5.4001z" fill="#b4ff43"/><path d="m62.7 104.2 1 4.4-3 6.5-.6-4.6z" fill="#0058ff"/><path d="m94.7 19.8999-15-4.2999.1-3.9 14.5 4.5z" fill="#ff6f00"/><path d="m8.29997 107.5.70001 5.3-3.20001-8.7-.69999-5.3z" fill="#0068ff"/><path d="m124.5 40.0001-14-5.3-.5-5.1 13.7 5.7z" fill="#ffe200"/><path d="m60.8 115.1 1.4 4.6-4 5.5-1-4.8z" fill="#0014ff"/><path d="m64.5 92.8999.2 3.9-2 7.4001.2-4.1z" fill="#00a0ff"/><path d="m130.2 98.0999-5-.8999 2 1.7999 5.1.9z" fill="#009cff"/><path d="m96 68.7-8.2-.5v6.7999l8.3.1z" fill="#53ffa4"/><path d="m147.8 92.2999-5.9-2.5999 1.6-4 6 3z" fill="#00d4ff"/><path d="m51.3 10.7-12.1-.5 2-4.50005 11.5.7z" fill="#ff3f00"/><path d="m14.6 35.2001-6.89999 4.5 1.7-8.4 6.69999-4.2z" fill="#ffd300"/><path d="m74.2 69.2-4.5 1.5999-.3 8.1 4.6-2z" fill="#49ffad"/><path d="m120.6 87.7-6.8-1 1.1 4 6.9.6999z" fill="#00dcfe"/><path d="m146.5 71.4-9.4-4.3.3-5.6 9.4 4.8z" fill="#66ff90"/><path d="m66.7 81.6001-1 3.2-1.1 8.1 1.3-3.5z" fill="#09f0ee"/><path d="m49.2 137.2.6 5.2-5.4 1.2-.6-5.2z" fill="#00009b"/><path d="m58.2 125.1.8 5.1-4.7 4.2-.6-5.2z" fill="#0000e8"/><path d="m128.3 95.6001-4.9-1 1.8 2.5 5 .9z" fill="#00b0ff"/><path d="m149.5 88.7-6-3 1.3-4.5 6.1 3.5z" fill="#0cf4eb"/><path d="m112.4 77.0001-7.9-1.2001.4 5.5 8 .8001z" fill="#33ffc4"/><path d="m104.4 69.8999-8.4-1.1999.1 6.2999 8.4.7001z" fill="#56ffa0"/><path d="m79.8 11.8001-14.1-3.30001.8-2.89999 13.4 3.5z" fill="#ff3b00"/><path d="m27.6 138.3 1 4.7-5.2-4.6-1.1-4.7z" fill="#0000a8"/><path d="m137.1 50.7-12.1-5.4-.5-5.3 11.9 5.8z" fill="#d7ff1f"/><path d="m109.3 25.1-14.6-5.2001-.4-3.6999 14.2 5.4z" fill="#ff8600"/><path d="m22.3 133.7 1.1 4.7-4.9-5.8-1.1-4.8z" fill="#0000cd"/><path d="m2.60003 73.8-1.5 5.9-.700006-9.8 1.499996-5.9z" fill="#53ffa4"/><path d="m69.8 70.8-2.7 2.3001-.4 8.5 2.8-2.7z" fill="#46ffb1"/><path d="m65.7 8.40004-13-2.09999 1.5-3 12.3 2.2z" fill="#ff2900"/><path d="m5.10001 98.8.7 5.3-2.4-9.3-.7-5.3z" fill="#00b0ff"/><path d="m87.8 60.9999-7.4-.2999v7.5999l7.4-.2z" fill="#80ff77"/><path d="m33.1 141.5.9 4.6-5.5-3.2-1-4.7z" fill="#000092"/><path d="m123.8 35.2001-13.7-5.7-.7-4.4 13.4 5.9z" fill="#ffb900"/><path d="m80.4 60.7-6.1.3999v8.1001l6.1-.9001z" fill="#80ff77"/><path d="m119.6 83.4001-6.7-1.3.9 4.6 6.8 1z" fill="#16ffe1"/><path d="m94.3 16.1999-14.5-4.5.1-2.8 13.9 4.6z" fill="#ff4e00"/><path d="m146.9 66.3-9.4-4.8v-5.5l9.4 5.2z" fill="#8aff6d"/><path d="m6.79997 48.7001-4.69999 5.7 1.1-9.2 4.59999-5.6z" fill="#d7ff1f"/><path d="m17.4 127.8 1.1 4.8-4.4-6.9-1.2-4.9z" fill="#00f"/><path d="m126.7 92.6-4.8-1.1 1.5 3.2 4.9 1z" fill="#00c8ff"/><path d="m96.1 62.1-8.2-1.1-.1 7.1 8.2.5z" fill="#80ff77"/><path d="m150.9 84.6999-6.1-3.5 1-4.8 6.1 3.9z" fill="#29ffce"/><path d="m39.2 10.2-10.2 1 2.6-4.70005 9.6-.8z" fill="#ff3000"/><path d="m26.8 17.1-8.6 2.7 2.7-6.2 8.1-2.4z" fill="#ff5900"/><path d="m139.3 102.6-2.5-1.4 2.4-.4 2.5 1.5z" fill="#0098ff"/><path d="m141.7 102.4-2.5-1.5 2.3-1.1 2.5 1.8z" fill="#009cff"/><path d="m38.7 143.3.9 4.6-5.6-1.8-.9-4.6z" fill="#000084"/><path d="m136.9 102.1-2.4-1.2 2.3.3 2.5 1.4z" fill="#0098ff"/><path d="m74.3 61.1001-4.5 1.2v8.6l4.5-1.6z" fill="#80ff77"/><path d="m144.1 101.5-2.5-1.8001 2.3-1.8 2.6 2z" fill="#00a4ff"/><path d="m64.7 96.8 1.4 4.1-2.3 7.6-1-4.4z" fill="#009cff"/><path d="m54.3 134.4.6 5.2-5.1 2.7-.6-5.2z" fill="#00b"/><path d="m63.7 108.6 1.7 4.4-3.3 6.7-1.4-4.6z" fill="#0054ff"/><path d="m52.7 6.39999-11.5-.69999 2.2-3.2 10.7.8z" fill="#ff1600"/><path d="m112.2 71.5999-7.8-1.7.2 5.9 7.9 1.2z" fill="#5aff9d"/><path d="m134.6 101-2.4-1.2 2.2 1.1 2.4 1.2z" fill="#00a0ff"/><path d="m12.9 120.8 1.2 4.9-3.8-7.9-1.20002-4.9z" fill="#0028ff"/><path d="m65.6 84.8.5 3.6001-1.4 8.3-.2-3.9001z" fill="#06ecf1"/><path d="m136.5 45.7999-11.9-5.8-.8-4.7999 11.8 6.0999z" fill="#fbf100"/><path d="m104.5 63.8001-8.4-1.7-.1 6.6 8.4 1.2z" fill="#80ff77"/><path d="m146.3 99.8999-2.6-2 2.1-2.5 2.6 2.4z" fill="#00b4ff"/><path d="m125.3 89.0999-4.8-1.3999 1.3 3.7999 4.8 1.1z" fill="#02e8f4"/><path d="m108.4 21.6001-14.2-5.4-.5-2.6 13.7 5.5z" fill="#ff6400"/><path d="m16.1 27.1001-6.69998 4.1999 2.49998-7.5 6.3-4z" fill="#ff9100"/><path d="m152 80.4-6.1-3.9.7-5 6.2 4.4z" fill="#46ffb1"/><path d="m119 78.7-6.6-1.7.5 5.1 6.7 1.3z" fill="#39ffbe"/><path d="m79.9 8.99991-13.4-3.5.8-1.60001 12.7 3.5z" fill="#f20"/><path d="m146.9 61.3-9.4-5.1999-.3-5.3001 9.3 5.6001z" fill="#adff49"/><path d="m67.1 73.1001-.9 2.9-.6 8.8 1-3.2z" fill="#43ffb4"/><path d="m132.5 99.3001-2.3-1.2 2.1 1.8 2.4 1.1999z" fill="#00b0ff"/><path d="m122.8 31.0999-13.4-5.8999-.9-3.5 13.1 6.0999z" fill="#ff9800"/><path d="m62.2 119.7 1 5-4.1 5.6-.8-5.1z" fill="#0014ff"/><path d="m88 53.7999-7.6-.9v7.8l7.4.3z" fill="#b4ff43"/><path d="m148.5 97.8-2.6-2.3999 1.9-3.1001 2.6 2.7001z" fill="#00c8ff"/><path d="m44.3 143.6.8 4.6-5.5-.3-.9-4.6z" fill="#00008d"/><path d="m93.8 13.6-13.9-4.6.1-1.5 13.2 4.6z" fill="#ff3800"/><path d="m2.69998 89.4001.69999 5.3-1.6-9.7-.69999-5.4z" fill="#13fce4"/><path d="m96.3 55.4001-8.3-1.6001-.2 7.3001 8.2 1.1z" fill="#adff49"/><path d="m80.4 52.9001-6.3-.1001.1 8.3001 6.1-.4z" fill="#b7ff40"/><path d="m66.5 5.49995-12.3-2.19999 1.6-1.60001 11.5 2.2z" fill="#f60b00"/><path d="m69.8 62.3-2.7 1.9001v8.9l2.7-2.3001z" fill="#80ff77"/><path d="m1.90002 64.1-1.499996 5.9.200001-9.7 1.500005-5.8z" fill="#97ff60"/><path d="m130.6 96.9001-2.3-1.3 1.9 2.4 2.3 1.2z" fill="#00c0ff"/><path d="m8.99999 112.8 1.20001 4.9-3.20001-8.6-1.2-5z" fill="#0068ff"/><path d="m124.3 85.0999-4.7-1.7 1 4.3 4.8 1.4z" fill="#1fffd7"/><path d="m150.4 95.1001-2.6-2.7 1.7-3.6001 2.6 3.1001z" fill="#00e0fb"/><path d="m112.3 66.0001-7.8-2.2001-.1 6.1001 7.8 1.7z" fill="#80ff77"/><path d="m152.7 75.8-6.2-4.3999.3-5.1001 6.2 4.8001z" fill="#66ff90"/><path d="m135.5 41.3001-11.8-6.1-1-4.1 11.5 6.4z" fill="#fc0"/><path d="m104.8 57.5999-8.5-2.2-.3 6.7 8.4 1.7z" fill="#aaff4d"/><path d="m74.1 52.8-4.6.7001.3 8.7999 4.5-1.1999z" fill="#baff3c"/><path d="m118.7 73.7001-6.6-2.1.2 5.4 6.6 1.7z" fill="#5aff9d"/><path d="m107.4 19.1001-13.7-5.5-.6-1.5 13.1 5.5z" fill="#ff4e00"/><path d="m7.69998 39.7001-4.6 5.5999 1.9-8.5999 4.39999-5.4001z" fill="#ffd000"/><path d="m146.5 56.4001-9.3-5.6001-.6-5 9.3 6z" fill="#d1ff26"/><path d="m41.2 5.70009-9.6.8 3-3.3 8.8-.59999z" fill="#f10800"/><path d="m129 94.1001-2.3-1.5 1.6 3 2.3 1.3z" fill="#00d8ff"/><path d="m59 130.2.6 5.3-4.7 4.2-.6-5.2z" fill="#0000ed"/><path d="m121.5 27.7001-13.1-6.1-1-2.5 12.7 6.2z" fill="#ff7a00"/><path d="m54.1 3.3999-10.7-.79999 2.4-1.700008 9.9.900008z" fill="#df0000"/><path d="m88.3 46.5001-7.8-1.4v7.8l7.6.9z" fill="#e4ff13"/><path d="m80 7.50005-12.7-3.5.9-.2 11.9 3.5z" fill="#fa0f00"/><path d="m29 11.2-8.1 2.4 3.2-4.9 7.5-2.2z" fill="#ff2500"/><path d="m152.1 91.9001-2.6-3.1001 1.4-4 2.7 3.5z" fill="#16ffe1"/><path d="m49.8 142.4.8 4.7-5.4 1.2-.8-4.6z" fill="#00009f"/><path d="m93.2 12.1-13.2-4.60005.1-.3 12.6 4.50005z" fill="#ff2500"/><path d="m96.8 48.7-8.6-2.2-.3 7.2 8.3 1.6z" fill="#dbff1c"/><path d="m80.4 45.1-6.6-.6.3 8.3 6.3.1z" fill="#ebff0c"/><path d="m66.1 88.3999 1.6 3.9-1.6 8.6001-1.4-4.1001z" fill="#02e8f4"/><path d="m123.7 80.7-4.7-2 .6 4.6999 4.7 1.7z" fill="#3cffba"/><path d="m66.1 100.9 2 4.2-2.6 7.8-1.7-4.4z" fill="#0098ff"/><path d="m66.2 76 .6 3.4-.7 9.1-.5-3.6z" fill="#43ffb4"/><path d="m67.3 4.00009-11.5-2.2 1.7-.19999 10.7 2.19999z" fill="#df0000"/><path d="m28.6 143 1 3.9-5.1-4.5-1.1-4z" fill="#0000b2"/><path d="m153.1 71.2001-6.2-4.8v-5.1001l6.2 5.3001z" fill="#8aff6d"/><path d="m23.3 138.4 1.1 4-4.8-5.7-1.2-4.1z" fill="#0000da"/><path d="m112.7 60.3001-7.9-2.7-.4 6.2 7.8 2.2z" fill="#a7ff50"/><path d="m67.1 64.2-.9 2.5v9.2999l.9-2.9z" fill="#80ff77"/><path d="m127.6 90.7-2.3-1.7 1.3 3.6 2.3 1.5z" fill="#0cf4eb"/><path d="m138.6 104.2.7-1.6 2.4-.2-.7 1.8z" fill="#00a8ff"/><path d="m134.3 37.3999-11.5-6.4-1.2-3.2999 11.3 6.5z" fill="#ffab00"/><path d="m5.79999 104.1 1.2 5-2.4-9.2001-1.3-5.1999z" fill="#00b0ff"/><path d="m105.5 51.4999-8.6-2.7999-.5 6.6999 8.5 2.2z" fill="#d4ff23"/><path d="m136.3 103.7.7-1.5 2.4.4-.7 1.6z" fill="#00acff"/><path d="m18.2 19.8001-6.3 4 3.1-6.4 5.9-3.8z" fill="#f50"/><path d="m1.10003 79.6999.69999 5.4-.69999-9.8-.700006-5.4z" fill="#53ffa4"/><path d="m34.1 146.2.9 3.8-5.4-3.2-1-3.9z" fill="#00009b"/><path d="m106.3 17.6001-13.1-5.5-.6-.3001 12.5 5.4z" fill="#ff3f00"/><path d="m141 104.1.7-1.8 2.4-.9-.7 2z" fill="#00acff"/><path d="m69.5 53.5-2.8 1.5.4 9.2 2.7-1.9z" fill="#beff39"/><path d="m65.5 112.9 1.1 4.9-3.5 6.8-1-5z" fill="#0050ff"/><path d="m118.9 68.6-6.6-2.6-.1 5.6 6.6 2.1z" fill="#80ff77"/><path d="m153.6 88.3-2.7-3.5 1.1-4.3 2.7 3.9z" fill="#30ffc7"/><path d="m145.7 51.8-9.3-6-1-4.5 9.1 6.3001z" fill="#f1fc06"/><path d="m134 102.5.6-1.5 2.3 1.1-.7 1.5z" fill="#00b4ff"/><path d="m18.5 132.6 1.2 4.1-4.3-6.8-1.3-4.2z" fill="#00f"/><path d="m120.1 25.3001-12.7-6.2-1.1-1.5 12.3 6.2z" fill="#ff6400"/><path d="m143.3 103.4.7-2 2.3-1.5001-.8 2.2001z" fill="#00b8ff"/><path d="m88.6 39.6001-8.2-2v7.5l7.8 1.4z" fill="#ffd700"/><path d="m73.9 44.5-4.9.2.6 8.8 4.6-.7z" fill="#f1fc06"/><path d="m80.1 7.19995-11.9-3.5.9 1.10001 11.1 3.3z" fill="#ed0400"/><path d="m92.6 11.7-12.6-4.50005.1 1 11.8 4.40005z" fill="#ff1e00"/><path d="m97.5 42.3001-8.9-2.7-.4 7 8.6 2.2z" fill="#ffe200"/><path d="m131.9 100.8.6-1.5 2.1 1.7-.6 1.5z" fill="#00c0ff"/><path d="m2.09998 54.5001-1.500004 5.7999 1.100004-9.2999 1.5-5.7001z" fill="#d7ff1f"/><path d="m39.6 148 .8 3.8-5.5-1.8-.9-3.8z" fill="#000092"/><path d="m80.4 37.6-7-1.1.4 8 6.6.6z" fill="#fc0"/><path d="m145.6 102.1.8-2.2001 2.1-2.1999-.8 2.5z" fill="#00c4ff"/><path d="m123.4 76.2001-4.6-2.4001.3 5 4.7 2z" fill="#5dff9a"/><path d="m126.6 87.0001-2.2-1.9 1 4 2.3 1.7z" fill="#26ffd1"/><path d="m153 66.5001-6.2-5.3-.4-4.9001 6.1 5.7001z" fill="#aaff4d"/><path d="m55.8 1.70009-9.9-.899995 2.6-.199997 9.1.899992z" fill="#c80000"/><path d="m54.9 139.7.7 4.7-5.1 2.7-.8-4.7z" fill="#0000c4"/><path d="m130 98.4999.6-1.6 1.9 2.3-.6 1.5001z" fill="#00d0ff"/><path d="m43.4 2.50005-8.8.6 3.2-1.8 8-.500001z" fill="#cd0000"/><path d="m113.5 54.8-8-3.3-.6 6.1 7.9 2.7z" fill="#ceff29"/><path d="m105.1 17.2-12.5-5.4-.6.9 11.9 5.3z" fill="#ff3800"/><path d="m106.3 45.5999-8.9-3.3999-.6 6.3999 8.6 2.8z" fill="#fbf100"/><path d="m154.6 84.3-2.7-3.8999.7-4.6001 2.7 4.4001z" fill="#4dffaa"/><path d="m14 125.6 1.3 4.2-3.8-7.7-1.3-4.4z" fill="#0030ff"/><path d="m68.1 3.7-10.7-2.2 1.8 1.2 9.8 2.1z" fill="#d10000"/><path d="m132.8 34.3-11.3-6.5-1.4-2.5 11 6.6001z" fill="#ff9100"/><path d="m63.1 124.6.6 5.3-4.1 5.5-.6-5.3z" fill="#0014ff"/><path d="m89 33-8.6-2.5v7.1l8.2 2z" fill="#ffa700"/><path d="m147.7 100.3.8-2.4999 2-2.7-.8 2.8z" fill="#00d8ff"/><path d="m119.3 63.4999-6.6-3.1-.4 5.6 6.6 2.6z" fill="#a4ff53"/><path d="m118.6 23.7999-12.3-6.1999-1.2-.4 11.8 6.0999z" fill="#f50"/><path d="m144.7 47.5999-9.1-6.3-1.2-3.9 9 6.6z" fill="#ffdb00"/><path d="m92 12.6-11.8-4.40005.1 2.30005 11.1 4.1z" fill="#ff1e00"/><path d="m9.4 31.3-4.4 5.4001 2.7-7.7 4.1-5.2001z" fill="#ff8d00"/><path d="m98.3 36.3-9.3-3.3-.4 6.5 8.9 2.7z" fill="#ffb600"/><path d="m80.1 8.19991-11.1-3.30001.9 2.5 10.3 3.1z" fill="#f10800"/><path d="m31.6 6.49995-7.5 2.2 3.7-3.5 6.8-2z" fill="#e40000"/><path d="m128.4 95.8001.6-1.7 1.7 2.9-.6 1.6z" fill="#02e8f4"/><path d="m73.5 36.5001-5.4-.2001.8 8.5 4.9-.1999z" fill="#ffc100"/><path d="m80.4 30.4999-7.5-1.6.5 7.6 7 1.1z" fill="#ff9800"/><path d="m45.2 148.3.7 3.8-5.4-.3-.8-3.8z" fill="#000096"/><path d="m69 44.8-3.1 1.1001.9 9.2 2.8-1.5z" fill="#f8f500"/><path d="m125.9 82.9999-2.2-2.2999.7 4.2999 2.2 1.9z" fill="#43ffb4"/><path d="m3.39999 94.7001 1.3 5.2-1.6-9.5-1.3-5.3z" fill="#13fce4"/><path d="m103.9 17.8-11.9-5.3-.6 2 11.3 5z" fill="#ff3800"/><path d="m66.7 55-1.1 2.2.6 9.5.9-2.5z" fill="#c1ff36"/><path d="m123.5 71.5001-4.6-2.9-.1 5.1 4.6 2.4z" fill="#80ff77"/><path d="m89.5 27.1001-9.2-3v6.4l8.6 2.5z" fill="#ff7e00"/><path d="m149.6 97.8999.8-2.8 1.7-3.2-.8 3.1z" fill="#09f0ee"/><path d="m66.2 66.7.6 3.0999v9.5l-.6-3.4z" fill="#83ff73"/><path d="m107.5 40.2001-9.2-3.9001-.8 6 8.9 3.4001z" fill="#ffc400"/><path d="m91.3 14.6-11.1-4.1.1 3.5 10.4 3.8z" fill="#ff2900"/><path d="m66.8 79.3999 1.7 3.7-.8 9.3-1.6-3.9z" fill="#40ffb7"/><path d="m99.2 30.9001-9.7-3.8-.5 5.9 9.2 3.3z" fill="#ff9100"/><path d="m152.6 61.9999-6.1-5.7-.7-4.5999 6.1 6z" fill="#caff2c"/><path d="m155.4 80.2001-2.7-4.4.4-4.7 2.7 4.8z" fill="#6aff8d"/><path d="m114.5 49.4999-8.2-3.7999-.9 5.7999 8 3.3z" fill="#f1fc06"/><path d="m67.7 92.3999 2.2 4-1.8 8.7001-2-4.2z" fill="#00e4f8"/><path d="m131.1 31.9001-11-6.6001-1.5-1.5 10.7 6.6001z" fill="#ff7a00"/><path d="m116.9 23.2999-11.8-6.0999-1.2.6999 11.3 5.9z" fill="#ff4e00"/><path d="m80.2 10.4999-10.3-3.1.9 3.8 9.5 2.8z" fill="#ff1300"/><path d="m69 4.90004-9.8-2.09999 1.8 2.59999 8.9 2z" fill="#d60000"/><path d="m90.1 22.0001-9.8-3.4v5.6l9.2 3z" fill="#ff5900"/><path d="m.400024 69.9001.700006 5.3999.19999-9.5999-.699995-5.4001z" fill="#97ff60"/><path d="m90.7 17.8-10.4-3.8.1 4.6 9.8 3.4z" fill="#ff3b00"/><path d="m10.2 117.7 1.3 4.4-3.1-8.5-1.4-4.6z" fill="#0070ff"/><path d="m127 92.5999.6-1.8999 1.4 3.2999-.6 1.7001z" fill="#16ffe1"/><path d="m102.7 19.6001-11.3-5-.6 3.2 10.7 4.7z" fill="#ff4300"/><path d="m80.4 24.1-8.1-2.1.6 6.9 7.5 1.6z" fill="#ff6c00"/><path d="m100.3 26.1999-10.2-4.3-.6 5.1 9.7 3.8z" fill="#ff6f00"/><path d="m120.2 58.4001-6.7-3.6001-.8 5.5 6.6 3.1001z" fill="#c7ff30"/><path d="m20.9 13.6-5.9 3.7999 3.8-5.0999 5.3-3.60005z" fill="#ff1e00"/><path d="m57.5 1.50009-9.1-.899992 2.7 1.299992 8.2.9z" fill="#b00"/><path d="m143.3 43.9999-9-6.6-1.5-3.1999 8.8 6.6999z" fill="#ffbd00"/><path d="m101.5 22.3999-10.7-4.6999-.6 4.1999 10.2 4.3001z" fill="#f50"/><path d="m68.1 105.1 1.2 4.8-2.7 7.9-1.1-4.9z" fill="#0098ff"/><path d="m80.3 13.9001-9.5-2.8.8 4.9 8.8 2.5z" fill="#ff2900"/><path d="m80.3 18.5-8.8-2.5.7 6 8.1 2.1z" fill="#ff4700"/><path d="m108.8 35.2999-9.5-4.4-1 5.4 9.2 3.9z" fill="#ffa300"/><path d="m73 28.8999-5.9-.6999 1.1 8 5.4.1999z" fill="#ff8900"/><path d="m151.3 95.0001.8-3.1 1.4-3.6001-.9 3.5z" fill="#1cffdb"/><path d="m115.2 23.7999-11.3-5.9-1.2 1.8 10.8 5.7z" fill="#ff5200"/><path d="m125.6 78.7999-2.2-2.5999.3 4.5999 2.2 2.3z" fill="#60ff97"/><path d="m132.5 105.4 3.7-1.8 2.3.5-3.8 1.8z" fill="#00bcff"/><path d="m45.8.800095-8 .499995 3.4-.3 7.2-.399992z" fill="#b20000"/><path d="m134.8 106 3.8-1.8 2.4-.1-3.9 2z" fill="#00b8ff"/><path d="m59.6 135.5.7 4.8-4.6 4.1-.7-4.7z" fill="#0000f1"/><path d="m130.4 104.2 3.7-1.7 2.2 1.2-3.7 1.8z" fill="#00c4ff"/><path d="m115.9 44.5999-8.4-4.3999-1.1 5.3999 8.2 3.8z" fill="#ffd700"/><path d="m124 66.7999-4.7-3.4-.5 5.1 4.6 2.9z" fill="#a0ff56"/><path d="m129.2 30.4001-10.7-6.6001-1.6-.5 10.3 6.5z" fill="#ff6f00"/><path d="m69.9 7.30005-8.9-2 1.7 4 8.1 1.69995z" fill="#e40000"/><path d="m110.2 31.0999-9.9-4.8999-1.1 4.6999 9.5 4.4z" fill="#ff8200"/><path d="m3.09998 45.2-1.5 5.7 2-8.7 1.4-5.7z" fill="#ffd000"/><path d="m50.5 147.1.6 3.9-5.3 1.2-.7-3.8z" fill="#0000a8"/><path d="m68.1 36.3-3.6.7001 1.3 8.9 3.1-1.1001z" fill="#ffb900"/><path d="m126 89.1.6-2.1 1 3.7-.6 1.9z" fill="#30ffc7"/><path d="m137.1 106.1 3.9-2 2.3-.7-3.9 2.1z" fill="#00bcff"/><path d="m155.7 75.9-2.7-4.8v-4.6l2.7 5.1z" fill="#87ff70"/><path d="m113.5 25.3001-10.8-5.7-1.2 2.8 10.4 5.3z" fill="#ff5900"/><path d="m151.8 57.8001-6.1-6-1.1-4.2 6 6.3z" fill="#e7ff0f"/><path d="m128.3 102.5 3.6-1.7 2.1 1.7-3.7 1.7z" fill="#00d0ff"/><path d="m111.8 27.8-10.4-5.3-1.2 3.8 9.9 4.9z" fill="#ff6c00"/><path d="m72.3 22.1-6.5-1.1 1.3 7.3 5.9.7z" fill="#ff5d00"/><path d="m29.6 146.9.7 3-5-4.4-.8-3.1z" fill="#0000c4"/><path d="m121.3 53.7-6.8-4.2-1.1 5.3 6.7 3.6z" fill="#e7ff0f"/><path d="m139.4 105.6 3.9-2.1 2.3-1.3-4 2.3z" fill="#00c4ff"/><path d="m141.6 40.9999-8.8-6.7-1.7-2.4 8.6 6.8z" fill="#ffa700"/><path d="m70.8 11.0999-8.1-1.7 1.6 5.3 7.3 1.4z" fill="#ff1300"/><path d="m24.4 142.4.8 3.1-4.7-5.5-1-3.3z" fill="#0000e8"/><path d="m152.7 91.7001.9-3.5 1.1-3.9001-.9 3.8001z" fill="#36ffc1"/><path d="m126.5 100.3 3.5-1.8 1.9 2.3-3.6 1.7z" fill="#00e0fb"/><path d="m71.6 16.1-7.3-1.4 1.5 6.4 6.5 1.1z" fill="#ff3400"/><path d="m65.8 45.8-1.3 1.9001 1.1 9.5 1.1-2.2z" fill="#fbf100"/><path d="m66.6 117.8.6 5.3-3.5 6.8-.6-5.3z" fill="#0054ff"/><path d="m34.5 3.20004-6.8 2 4-2 6-1.89999z" fill="#b00"/><path d="m59.2 2.70004-8.2-.89999 2.7 2.8 7.3.7z" fill="#bf0000"/><path d="m117.4 40.2001-8.7-4.9001-1.3 4.9001 8.4 4.4z" fill="#ffb600"/><path d="m127.3 29.8-10.3-6.5-1.7.5 10 6.4001z" fill="#ff6800"/><path d="m34.9 150 .5 2.9-5.2-3.1-.7-3z" fill="#0000ad"/><path d="m7.09999 109.1 1.4 4.6-2.3-9-1.4-4.8001z" fill="#00b4ff"/><path d="m1.79997 85.0999 1.30001 5.3-.70001-9.6-1.29999-5.4z" fill="#53ffa4"/><path d="m125.7 74.5-2.2-3-.1 4.7 2.2 2.6z" fill="#7dff7a"/><path d="m11.9 23.7999-4.10001 5.2 3.50001-6.6 3.7-5z" fill="#ff4e00"/><path d="m141.6 104.5 4-2.3 2.1-1.9-4.1 2.6z" fill="#00d4ff"/><path d="m19.6 136.7 1 3.3-4.2-6.6-1.1-3.4z" fill="#0004ff"/><path d="m125.4 85.4.5-2.4.7 4-.6 2.1z" fill="#49ffad"/><path d="m65.6 57.2.5 2.7999.7 9.8-.6-3.0999z" fill="#c1ff36"/><path d="m124.9 97.5999 3.5-1.8999 1.6 2.6999-3.5 1.8001z" fill="#0cf4eb"/><path d="m124.9 62.3-4.7-3.8-.8 5 4.7 3.4z" fill="#c1ff36"/><path d="m119.2 36.5001-9-5.4-1.5 4.2 8.7 4.9z" fill="#ff9800"/><path d="m67.1 28.3-4.1.3001 1.6 8.4 3.6-.7001z" fill="#ff7e00"/><path d="m125.2 30.0999-10-6.3999-1.7 1.5 9.6 6.0999z" fill="#ff6c00"/><path d="m155.7 71.7001-2.7-5.1-.4-4.5 2.6 5.5z" fill="#a7ff50"/><path d="m150.7 53.9-6-6.3-1.4-3.6 5.9 6.5z" fill="#ffea00"/><path d="m122.8 49.3001-6.9-4.7-1.3 4.9 6.8 4.2z" fill="#ffe600"/><path d="m139.7 38.6999-8.6-6.8-1.9-1.5 8.4 6.8z" fill="#ff9400"/><path d="m66.8 69.8 1.7 3.5v9.7001l-1.7-3.7001z" fill="#83ff73"/><path d="m121.1 33.4999-9.3-5.7999-1.6 3.3999 9 5.4z" fill="#ff8200"/><path d="m123.1 31.4001-9.6-6.1001-1.7 2.5 9.3 5.8001z" fill="#ff7300"/><path d="m40.4 151.8.4 2.8-5.3-1.7-.5-2.9z" fill="#0000a4"/><path d="m48.4.600098-7.2.399992 3.5 1.3 6.3-.4z" fill="#a40000"/><path d="m153.8 88.2001.9-3.8.7-4.1001-.9 4.2001z" fill="#50ffa7"/><path d="m143.6 102.8 4.1-2.6 1.9-2.4-4.1 2.8z" fill="#00e4f8"/><path d="m61 5.39995-7.3-.7 2.6 4.2 6.4.6z" fill="#cd0000"/><path d="m68.5 83.1001 2.3 3.9-.9 9.4-2.2-4z" fill="#40ffb7"/><path d="m123.6 94.6001 3.5-2 1.3 3.2-3.5 1.9z" fill="#1fffd7"/><path d="m.599976 60.3.699994 5.4 1.1-9.2-.69999-5.5z" fill="#d7ff1f"/><path d="m24.1 8.69995-5.3 3.60005 4.3-3.70004 4.7-3.40001z" fill="#da0000"/><path d="m55.6 144.4.5 3.9-5 2.6-.6-3.9z" fill="#0000cd"/><path d="m15.3 129.9 1.1 3.4-3.6-7.5-1.2-3.7z" fill="#003cff"/><path d="m65.8 21h-4.8l2 7.6 4.1-.3z" fill="#ff4e00"/><path d="m126.2 70.2001-2.2-3.4001-.5 4.7001 2.2 3z" fill="#9dff5a"/><path d="m125.1 81.5001.6-2.7001.3 4.2001-.5 2.4z" fill="#63ff94"/><path d="m62.7 9.40004-6.4-.59999 2.4 5.49995 5.5.3001z" fill="#e80000"/><path d="m124.5 45.3999-7.1-5.1999-1.6 4.3999 6.9 4.7z" fill="#ffc400"/><path d="m64.6 36.8999-1.8 1.6 1.7 9.2 1.3-1.9z" fill="#ffae00"/><path d="m137.7 37.2001-8.4-6.8-2-.6001 8.2 6.7001z" fill="#ff8600"/><path d="m126.1 57.9999-4.8-4.2999-1.2 4.7999 4.7 3.8z" fill="#deff19"/><path d="m69.9 96.3999 1.3 4.7001-1.9 8.8-1.2-4.8z" fill="#00e4f8"/><path d="m64.3 14.6001-5.5-.3001 2.2 6.7h4.8z" fill="#f20"/><path d="m63.7 129.9.6 4.8-4.1 5.5-.7-4.8z" fill="#0018ff"/><path d="m149.2 50.5-5.9-6.5-1.7-3 5.8 6.7z" fill="#ffd000"/><path d="m145.5 100.7 4.1-2.8 1.7-2.9-4.2 3.1z" fill="#0ff8e7"/><path d="m155.3 67.4999-2.6-5.5-.8-4.2999 2.6 5.7999z" fill="#c1ff36"/><path d="m122.6 91.3001 3.4-2.2 1 3.5-3.5 2z" fill="#33ffc4"/><path d="m45.8 152.1.2 2.8-5.3-.3-.4-2.8z" fill="#0000a8"/><path d="m154.5 84.3999.9-4.2.3-4.3-.9 4.5z" fill="#6aff8d"/><path d="m37.8 1.3-6 1.9 4.2-.4 5.2-1.8z" fill="#9f0000"/><path d="m126 107.4 6.6-2 2.3.6-6.7 2.1z" fill="#00c8ff"/><path d="m126.5 42.1-7.3-5.6-1.8 3.7 7.1 5.2z" fill="#ffab00"/><path d="m123.9 106.2 6.5-1.9 2.2 1.2-6.6 2z" fill="#00d0ff"/><path d="m135.4 36.5001-8.2-6.7001-2.1.3001 7.9 6.6z" fill="#ff8200"/><path d="m4.69998 99.8999 1.4 4.8001-1.5-9.3001-1.5-5z" fill="#16ffe1"/><path d="m5.10001 36.7-1.4 5.7 2.9-7.8 1.2-5.6z" fill="#ff8d00"/><path d="m128.2 108.1 6.7-2.1 2.3.1-6.8 2.2z" fill="#00c8ff"/><path d="m121.9 104.4 6.4-1.9 2 1.7-6.5 1.9z" fill="#00d8ff"/><path d="m51.1 1.8999-6.3.40001 3.5 2.8 5.4-.5z" fill="#a80000"/><path d="m64.5 47.7.2 2.5999 1.4 9.7-.5-2.7999z" fill="#feed00"/><path d="m128.6 39.5-7.5-6-1.9 3 7.3 5.6z" fill="#ff9800"/><path d="m133.2 36.7001-7.9-6.6-2.1 1.3 7.7 6.3z" fill="#ff8200"/><path d="m125.2 77.5.6-3-.1 4.3-.6 2.7z" fill="#7dff7a"/><path d="m127.1 66.0999-2.2-3.8999-.9 4.5 2.2 3.3999z" fill="#baff3c"/><path d="m127.6 54.1001-4.8-4.8001-1.5 4.4001 4.8 4.3z" fill="#fbf100"/><path d="m130.4 108.3 6.8-2.2 2.3-.5-6.8 2.3z" fill="#00c8ff"/><path d="m147.1 98.0999 4.2-3.1 1.4-3.2999-4.2 3.3999z" fill="#26ffd1"/><path d="m120.2 102.2 6.3-2 1.8 2.2-6.4 1.9z" fill="#02e8f4"/><path d="m11.5 122.1 1.2 3.7-2.99997-8.2-1.30001-3.9z" fill="#0078ff"/><path d="m130.9 37.6999-7.7-6.3-2 2.1 7.5 6z" fill="#ff8900"/><path d="m147.5 47.6001-5.8-6.7-1.9-2.3 5.7 6.7z" fill="#ffb900"/><path d="m69.3 109.9.6 5.4-2.7 7.9-.6-5.3z" fill="#0098ff"/><path d="m1.09998 75.2999 1.29999 5.4001.20001-9.5-1.30001-5.5z" fill="#97ff60"/><path d="m62.9 28.6001-2.3 1.3 2.2 8.7 1.8-1.6z" fill="#ff7300"/><path d="m121.9 87.7999 3.4-2.4.7 3.7-3.4 2.2z" fill="#4dffaa"/><path d="m154.4 63.5999-2.6-5.8-1.1-3.9 2.6 6z" fill="#deff19"/><path d="m15 17.4-3.7 5 4.2-5.2999 3.3-4.8001z" fill="#ff1a00"/><path d="m132.5 107.9 6.8-2.3 2.2-1.1-6.9 2.5z" fill="#00d0ff"/><path d="m118.6 99.7 6.3-2 1.6 2.6-6.3 2z" fill="#13fce4"/><path d="m154.8 80.4999.9-4.5v-4.2999l-.9 4.8999z" fill="#87ff70"/><path d="m66.1 60 1.6 3.3.8 10-1.7-3.5z" fill="#c4ff33"/><path d="m53.7 4.6001-5.4.5 3.5 4.29999 4.5-.6z" fill="#b60000"/><path d="m129.4 50.5999-4.9-5.2-1.7 3.9 4.8 4.8z" fill="#ffd700"/><path d="m145.5 45.3999-5.7-6.6999-2.1-1.5 5.6 6.6999z" fill="#ffa700"/><path d="m60.3 140.2.4 4-4.6 4-.5-3.9z" fill="#0000fa"/><path d="m51.1 150.9.1 2.9-5.1 1.1-.2-2.8z" fill="#00b"/><path d="m148.5 95.1001 4.2-3.4 1.1-3.6-4.3 3.7z" fill="#3cffba"/><path d="m134.6 106.9 6.9-2.5 2.1-1.6-7 2.7z" fill="#00dcfe"/><path d="m128.3 62.3-2.2-4.3-1.2 4.3 2.2 3.9z" fill="#d4ff23"/><path d="m61 21-3 1 2.6 7.9 2.3-1.3z" fill="#ff3f00"/><path d="m125.6 73.5999.6-3.3999-.5 4.2999-.6 3z" fill="#9aff5d"/><path d="m27.8 5.19995-4.7 3.40001 4.7-2.20001 4-3.2z" fill="#b20000"/><path d="m30.2 149.8.2 1.9-4.8-4.2-.4-2.1z" fill="#0000d6"/><path d="m117.4 96.7001 6.2-2.1 1.3 3-6.3 2z" fill="#26ffd1"/><path d="m25.2 145.5.4 2.1-4.5-5.3-.6-2.3z" fill="#0000fa"/><path d="m121.6 84.2 3.4-2.7.3 3.9-3.4 2.4z" fill="#63ff94"/><path d="m68.5 73.3 2.3 3.8001v9.9l-2.3-3.9z" fill="#83ff73"/><path d="m56.3 8.80005-4.5.59999 3.3 5.70006 3.7-.8001z" fill="#d60000"/><path d="m41.2 1-5.2 1.8 4.4 1.2 4.4-1.7z" fill="#960000"/><path d="m153.3 59.9-2.6-6-1.5-3.4 2.5 6.2z" fill="#f4f802"/><path d="m58.7 14.3-3.7.8001 3 6.8999 3-1z" fill="#ff1300"/><path d="m35.5 152.9v1.8l-5-3-.2-1.9z" fill="#0000bf"/><path d="m131.5 47.7001-5-5.6-2 3.3 4.9 5.2z" fill="#ffc100"/><path d="m1.70001 50.9999.7 5.5 2-8.6-.7-5.5z" fill="#ffd000"/><path d="m143.3 43.9-5.6-6.7-2.2-.7 5.5 6.7z" fill="#ff9c00"/><path d="m154.8 76.4999.9-4.9-.4-4.2-.9 5.2z" fill="#a0ff56"/><path d="m62.8 38.5-.2 2.4 2.1 9.4-.2-2.6z" fill="#ffab00"/><path d="m20.6 139.9.6 2.3-4-6.4-.7-2.5z" fill="#0014ff"/><path d="m136.6 105.5 7-2.7 1.9-2.1-7.1 2.9z" fill="#06ecf1"/><path d="m8.39997 113.7 1.30001 3.9-2.30001-8.7-1.29999-4.2z" fill="#00bcff"/><path d="m67.2 123.2.6 4.9-3.4 6.7-.6-4.8z" fill="#0054ff"/><path d="m116.4 93.5999 6.2-2.2 1 3.3-6.2 2.1z" fill="#39ffbe"/><path d="m133.7 45.5-5.1-6-2.1 2.6 5 5.6z" fill="#ffae00"/><path d="m70.8 87 1.3 4.7-1 9.5-1.3-4.7z" fill="#40ffb7"/><path d="m140.9 43.2-5.5-6.7-2.3.2 5.4 6.5z" fill="#ff9800"/><path d="m3.10003 90.4001 1.5 5-.70001-9.4-1.5-5.2001z" fill="#56ffa0"/><path d="m149.5 91.8 4.3-3.6999.7-3.8001-4.3 4z" fill="#53ffa4"/><path d="m129.9 58.8001-2.2-4.7-1.5 3.9 2.2 4.3z" fill="#eeff09"/><path d="m136.1 43.9999-5.2-6.2999-2.2 1.7999 5.1 6z" fill="#ff9f00"/><path d="m138.5 43.2-5.4-6.5-2.3 1 5.2 6.2999z" fill="#ff9800"/><path d="m126.5 69.9001.6-3.8-.9 4.1-.6 3.4z" fill="#b4ff43"/><path d="m40.8 154.6-.2 1.7-5.1-1.6v-1.8z" fill="#0000b6"/><path d="m115 108.3 8.9-2.2 2.1 1.2-9 2.2z" fill="#00d8ff"/><path d="m151.8 56.7-2.5-6.2001-1.8-2.7999 2.5 6.3999z" fill="#ffde00"/><path d="m121.7 80.5001 3.4-2.9-.1 3.9-3.4 2.7z" fill="#7dff7a"/><path d="m117 109.6 9-2.2 2.2.7-9.1 2.3z" fill="#00d0ff"/><path d="m113.2 106.6 8.8-2.1 2 1.7-8.9 2.2z" fill="#00e0fb"/><path d="m119.1 110.4 9.1-2.3 2.2.2-9.2 2.4z" fill="#00d0ff"/><path d="m7.79997 28.9999-1.19999 5.6 3.70002-6.7 1.1-5.5z" fill="#ff4e00"/><path d="m111.5 104.4 8.7-2.1 1.8 2.2-8.8 2.1z" fill="#09f0ee"/><path d="m138.4 103.5 7.1-2.9 1.6-2.6-7.2 3.1z" fill="#19ffde"/><path d="m16.4 133.3.7 2.5-3.5-7.2-.9-2.8z" fill="#0048ff"/><path d="m115.8 90.2001 6.2-2.4001.7 3.5-6.2 2.2001z" fill="#50ffa7"/><path d="m154.3 72.7001.9-5.2-.8-3.9-.9 5.4z" fill="#beff39"/><path d="m44.8 2.30005-4.4 1.7 4.4 2.8 3.6-1.7z" fill="#960000"/><path d="m131.7 55.7001-2.3-5.1-1.8 3.4 2.2 4.7z" fill="#ffe600"/><path d="m56.1 148.3-.1 3-4.8 2.5-.1-2.9z" fill="#0000da"/><path d="m121.2 110.7 9.2-2.4 2.2-.4-9.3 2.5z" fill="#00d0ff"/><path d="m64.7 50.3 1.4 3.2001 1.6 9.9-1.6-3.3z" fill="#ffea00"/><path d="m110 101.8 8.6-2.1 1.5 2.6-8.7 2.1z" fill="#16ffe1"/><path d="m60.6 29.8-.7 2.2001 2.7 8.9.2-2.4z" fill="#ff6c00"/><path d="m1.29999 65.6999 1.3 5.5 1.1-9.1-1.3-5.7z" fill="#d7ff1f"/><path d="m150.2 88.2999 4.3-4 .3-3.9-4.3 4.2z" fill="#6dff8a"/><path d="m18.8 12.3001-3.3 4.8 4.8-3.9 2.8-4.6z" fill="#d10000"/><path d="m150 53.9999-2.5-6.4-2-2.2 2.5 6.4z" fill="#fc0"/><path d="m71.2 101.1.6 5.4-1.9 8.8-.6-5.4z" fill="#00e4f8"/><path d="m127.7 66.4001.6-4.1001-1.2 3.9001-.6 3.8z" fill="#ceff29"/><path d="m31.8 3.20004-4 3.2 5-.5 3.3-3.09999z" fill="#960000"/><path d="m122.2 76.8999 3.5-3.1999-.5 3.8999-3.4 2.9z" fill="#97ff60"/><path d="m46 154.9-.4 1.7-5.1-.3.2-1.7z" fill="#00b"/><path d="m123.3 110.4 9.3-2.5 2.1-.9-9.4 2.6z" fill="#00d8ff"/><path d="m64.3 134.8.3 4.1-4 5.3-.4-4z" fill="#0020ff"/><path d="m139.9 101.2 7.2-3.0999 1.3-3-7.3 3.3z" fill="#29ffce"/><path d="m108.8 98.8999 8.6-2.1999 1.3 2.8999-8.6 2.1001z" fill="#29ffce"/><path d="m133.8 53.2-2.3-5.5-2.1 2.8999 2.3 5.1001z" fill="#ffd000"/><path d="m115.5 86.7001 6.2-2.6.3 3.6-6.2 2.4z" fill="#66ff90"/><path d="m153.5 69 .9-5.4-1.2-3.6-.9 5.6z" fill="#d4ff23"/><path d="m147.9 51.9-2.5-6.4-2.2-1.5 2.4 6.5z" fill="#ffb900"/><path d="m48.3 5.1001-3.6 1.69999 4.3 4.30001 2.7-1.80001z" fill="#a80000"/><path d="m6.1 104.7 1.3 4.2-1.5-9.1-1.4-4.5z" fill="#19ffde"/><path d="m67.7 63.3999 2.2 3.7.9 10-2.3-3.8z" fill="#c4ff33"/><path d="m58 22-1.3 2 3.2 8 .7-2.2z" fill="#ff3400"/><path d="m12.7 125.8.9 2.8-2.9-7.9-.99999-3.1z" fill="#0080ff"/><path d="m136 51.3-2.3-5.8-2.2 2.2 2.3 5.5z" fill="#ffc100"/><path d="m125.3 109.6 9.4-2.6 2-1.5-9.5 2.8z" fill="#00e4f8"/><path d="m150.5 84.7001 4.3-4.2-.1-3.9-4.3 4.5z" fill="#87ff70"/><path d="m107.9 95.8001 8.5-2.2 1 3.2-8.6 2.2z" fill="#3cffba"/><path d="m129.2 63.3.6-4.5-1.6 3.5-.6 4.1001z" fill="#e4ff13"/><path d="m145.7 50.4001-2.4-6.5-2.3-.8 2.4 6.4z" fill="#ffb200"/><path d="m51.8 9.3999-2.7 1.8 4 5.8 2-1.9z" fill="#c80000"/><path d="m55 15.1001-2 1.9 3.7 7 1.3-2z" fill="#f10800"/><path d="m123 73.3999 3.5-3.5-.9 3.7-3.5 3.2z" fill="#b1ff46"/><path d="m138.4 50-2.3-6-2.4 1.5 2.3 5.8z" fill="#ffb200"/><path d="m3.70001 42.2999.7 5.5 2.9-7.8-.7-5.6z" fill="#ff8d00"/><path d="m141.2 98.4001 7.3-3.3 1-3.3001-7.3 3.5z" fill="#40ffb7"/><path d="m143.3 49.5001-2.4-6.4h-2.4l2.4 6.3z" fill="#ffab00"/><path d="m140.9 49.4001-2.4-6.3-2.4.8 2.3 6z" fill="#ffae00"/><path d="m115.5 83.3 6.2-2.8-.1 3.7-6.2 2.6z" fill="#7dff7a"/><path d="m104.4 110.7 10.6-2.4 2 1.3-10.7 2.5z" fill="#00dcfe"/><path d="m102.6 108.9 10.5-2.4 1.9 1.8-10.6 2.4z" fill="#00e4f8"/><path d="m2.40002 80.7 1.5 5.1999.20001-9.3-1.5-5.3999z" fill="#97ff60"/><path d="m152.3 65.6001.9-5.6-1.5-3.2001-.9 5.8001z" fill="#ebff0c"/><path d="m30.5 151.7-.2.8-4.6-4v-.9z" fill="#0000ed"/><path d="m69.9 115.3.6 5-2.7 7.8-.6-4.9z" fill="#009cff"/><path d="m70.8 77.1001 1.4 4.6v9.9l-1.3-4.7z" fill="#83ff73"/><path d="m106.3 112.1 10.7-2.5 2.1.8-10.8 2.6z" fill="#00d4ff"/><path d="m25.6 147.5v.9l-4.3-5.1-.2-1.2z" fill="#00f"/><path d="m62.6 40.8999 1 3 2.4 9.6-1.4-3.2z" fill="#ffa300"/><path d="m101 106.7 10.5-2.3 1.7 2.2-10.5 2.4z" fill="#0cf4eb"/><path d="m127.1 108.2 9.5-2.8 1.8-1.9-9.6 2.9z" fill="#0cf4eb"/><path d="m51.2 153.8-.5 1.8-4.9 1.1.4-1.7z" fill="#0000cd"/><path d="m107.3 92.4999 8.5-2.2999.6 3.3999-8.5 2.2z" fill="#50ffa7"/><path d="m35.5 154.7-.4.6-4.8-2.8.2-.8z" fill="#0000d6"/><path d="m131 60.6001.7-4.8001-1.8 3.1001-.6 4.5z" fill="#f8f500"/><path d="m108.3 113 10.8-2.6 2.1.3-10.9 2.7z" fill="#00d4ff"/><path d="m36 2.80005-3.3 3.09999 5.1 1.10001 2.6-2.9z" fill="#890000"/><path d="m99.6 104.1 10.4-2.3 1.5 2.6-10.5 2.3z" fill="#19ffde"/><path d="m60.6 144.3-.2 3.1-4.4 3.9.1-3z" fill="#00f"/><path d="m150.4 81.0001 4.3-4.5-.4-3.9-4.3 4.7z" fill="#a0ff56"/><path d="m21.2 142.2.2 1.2-3.9-6.1-.4-1.5z" fill="#0024ff"/><path d="m11.3 22.4001-1.1 5.5 4.4-5.4.9-5.4z" fill="#ff1600"/><path d="m124.1 70.3 3.5-3.8-1.2 3.5-3.5 3.5z" fill="#c7ff30"/><path d="m150.8 62.5.9-5.8-1.7-2.7-.9 5.9z" fill="#feed00"/><path d="m142.2 95.3999 7.3-3.5.7-3.5-7.3 3.7z" fill="#56ffa0"/><path d="m23.1 8.60001-2.8 4.59999 5.2-2.3 2.2-4.4z" fill="#a80000"/><path d="m110.2 113.3 10.9-2.7 2.1-.3-11.1 2.8z" fill="#00d4ff"/><path d="m116 79.8999 6.2-3-.5 3.6-6.2 2.8z" fill="#97ff60"/><path d="m98.5 101.2 10.3-2.2 1.2 2.9-10.4 2.3z" fill="#29ffce"/><path d="m9.70003 117.6.99997 3.1-2.19998-8.4-1.1-3.4z" fill="#00c4ff"/><path d="m128.8 106.5 9.6-2.9 1.5-2.4-9.6 3.1z" fill="#1cffdb"/><path d="m40.6 156.3-.7.5-4.9-1.6.4-.6z" fill="#0000cd"/><path d="m107 89.2001 8.5-2.4001.3 3.5-8.5 2.3001z" fill="#66ff90"/><path d="m133.1 58.2999.7-5.0999-2.1 2.5-.7 4.7999z" fill="#ffde00"/><path d="m2.40002 56.4999 1.30001 5.7 2-8.5-1.30001-5.8z" fill="#ffd300"/><path d="m72.2 91.7.6 5.5-1 9.4-.6-5.4z" fill="#40ffb7"/><path d="m112.2 113.1 11.1-2.8 2-.8-11.2 2.8z" fill="#00dcfe"/><path d="m149.1 59.8999.9-5.9-2-2.1-.9 6z" fill="#ffdb00"/><path d="m150 77.4 4.3-4.7-.8-3.7-4.3 4.9z" fill="#b7ff40"/><path d="m66.1 53.5 2 3.6 1.8 10-2.2-3.7z" fill="#ffe600"/><path d="m17.1 135.8.4 1.5-3.4-6.9-.6-1.8z" fill="#0054ff"/><path d="m4.60003 95.3 1.39999 4.5-.7-9.1-1.4-4.7z" fill="#56ffa0"/><path d="m97.6 98.0001 10.3-2.2001.9 3.1001-10.3 2.1999z" fill="#3cffba"/><path d="m67.8 128.1.2 4.3-3.4 6.5-.3-4.1z" fill="#005cff"/><path d="m59.9 32 .6 2.9 3.1 9-1-3z" fill="#ff6400"/><path d="m135.3 56.7001.7-5.4001-2.3 1.9001-.7 5.0999z" fill="#ffd000"/><path d="m125.6 67.4001 3.6-4.1001-1.5 3.1001-3.5 3.8z" fill="#deff19"/><path d="m40.4 4-2.6 2.89999 5.1 2.70002 1.9-2.90001z" fill="#890000"/><path d="m142.8 92.1001 7.3-3.7.3-3.6001-7.4 3.9001z" fill="#6dff8a"/><path d="m147 57.8.9-6-2.2-1.5-.9 6z" fill="#fc0"/><path d="m116.7 76.7 6.2-3.2-.8 3.4-6.2 3z" fill="#adff49"/><path d="m130.3 104.2 9.6-3.1 1.3-2.8-9.7 3.2z" fill="#2cffca"/><path d="m107 85.7999 8.5-2.5999-.1 3.5-8.5 2.3999z" fill="#7dff7a"/><path d="m93.4 114.4 12-2.9-1.8-1.6-12 2.9z" fill="#00dcfe"/><path d="m91.5 112.7 12-2.9-1.7-2-12 2.8z" fill="#02e8f4"/><path d="m137.7 55.6.8-5.6-2.4 1.3-.7 5.4z" fill="#ffc400"/><path d="m56 151.2-.7 1.9-4.7 2.4.5-1.8z" fill="#0000ed"/><path d="m114.1 112.4 11.2-2.8 1.9-1.3-11.3 2.9z" fill="#02e8f4"/><path d="m95.3 115.5 11.9-2.9-1.9-1.1-12 2.9z" fill="#00d4ff"/><path d="m45.7 156.6-.9.5-4.9-.3.7-.5z" fill="#0000d1"/><path d="m144.8 56.4001.9-6-2.4-.8-.8 5.9z" fill="#ffc400"/><path d="m97 94.8001 10.3-2.2.6 3.3-10.3 2.2z" fill="#53ffa4"/><path d="m89.8 110.7 12-2.8-1.5-2.4-12 2.8z" fill="#0ff8e7"/><path d="m140.1 55.1999.8-5.8-2.4.6-.8 5.6z" fill="#ffc100"/><path d="m149.2 73.9001 4.3-4.9-1.2-3.4-4.3 5.1z" fill="#ceff29"/><path d="m142.5 55.5.8-5.9-2.4-.1-.8 5.8z" fill="#ffbd00"/><path d="m97.4 116.1 11.9-2.9-2-.6-11.9 2.9z" fill="#00d4ff"/><path d="m127.4 65.0001 3.7-4.4-1.8 2.7-3.6 4.1z" fill="#f1fc06"/><path d="m56.7 23.8999.1 2.9 3.7 8.1-.6-2.9z" fill="#ff2d00"/><path d="m88.3 108.2 12-2.8-1.3-2.8-12.1 2.7z" fill="#1cffdb"/><path d="m6.59998 34.5001.69999 5.6 3.70003-6.7-.7-5.6001z" fill="#ff4e00"/><path d="m69.9 67.1001 1.3 4.6.9 10.1-1.4-4.6z" fill="#c4ff33"/><path d="m44.8 6.8999-1.9 2.90001 5 4.29999 1.2-2.8z" fill="#9b0000"/><path d="m2.59998 71.2001 1.5 5.4 1.1-8.9-1.5-5.6z" fill="#d4ff23"/><path d="m13.6 128.6.6 1.8-2.8-7.5-.7-2.2z" fill="#008cff"/><path d="m143.1 88.6 7.4-3.9-.1-3.7-7.4 4.1z" fill="#87ff70"/><path d="m99.4 116.2 11.9-2.9-2-.1-11.9 2.9z" fill="#00d4ff"/><path d="m27.7 6.3999-2.2 4.4 5.5-.7 1.7-4.2z" fill="#8d0000"/><path d="m117.8 73.7001 6.3-3.4001-1.2 3.2001-6.2 3.2z" fill="#c4ff33"/><path d="m131.5 101.6 9.7-3.1999 1-3.1001-9.8 3.4001z" fill="#43ffb4"/><path d="m115.9 111.2 11.3-2.9 1.7-1.8-11.4 3z" fill="#0ff8e7"/><path d="m64.6 138.9-.3 3.2-3.9 5.2.2-3.1z" fill="#0028ff"/><path d="m71.8 106.5.6 5.1-1.8 8.6-.6-5z" fill="#02e8f4"/><path d="m107.4 82.5999 8.5-2.7-.4 3.4-8.5 2.6z" fill="#94ff63"/><path d="m7.4 108.9 1.1 3.4-1.4-8.7-1.1-3.8z" fill="#1cffdb"/><path d="m30.2 152.5-.5-.4-4.3-3.8.3.2z" fill="#00f"/><path d="m96.7 91.4001 10.3-2.3.3 3.4-10.3 2.2z" fill="#66ff90"/><path d="m25.6 148.5-.3-.2-4-4.8v-.1z" fill="#0010ff"/><path d="m86.9 105.4 12.1-2.7-1-3-12.1 2.7z" fill="#30ffc7"/><path d="m148 70.7001 4.3-5.1-1.5-3-4.3 5.2z" fill="#e4ff13"/><path d="m53 17-.5 2.8 4.3 7-.1-2.9z" fill="#e80000"/><path d="m49 11.2-1.2 2.8 4.7 5.8.5-2.8z" fill="#b00"/><path d="m15.5 17.0001-.9 5.4 5-4 .7-5.3z" fill="#d10000"/><path d="m129.3 63.0001 3.7-4.7001-2 2.2001-3.7 4.4z" fill="#feed00"/><path d="m35 155.3-.8-.5-4.5-2.7.5.4z" fill="#0000f1"/><path d="m63.7 43.8999 1.8 3.6 2.7 9.6-2-3.6z" fill="#ff9f00"/><path d="m101.3 115.7 11.9-2.9-1.9.5-11.9 2.9z" fill="#00d8ff"/><path d="m21.4 143.4v.1l-3.7-5.7-.2-.4z" fill="#0038ff"/><path d="m50.6 155.5-1.1.6-4.7 1 .9-.5z" fill="#0000e3"/><path d="m143 85.0999 7.4-4.1-.4-3.6-7.4 4.3z" fill="#9dff5a"/><path d="m85.9 102.3 12.1-2.7001-.7-3.2-12.1 2.6z" fill="#43ffb4"/><path d="m146.6 67.8 4.3-5.2-1.8-2.6-4.2 5.3z" fill="#f4f802"/><path d="m117.5 109.5 11.4-3 1.5-2.2-11.4 3.1z" fill="#1fffd7"/><path d="m119.2 71.0999 6.4-3.7-1.5 2.9-6.3 3.4z" fill="#d7ff1f"/><path d="m81.1 117.6 12.3-3.2-1.9-1.6-12.4 3.1z" fill="#00d8ff"/><path d="m132.4 98.7 9.8-3.4.6-3.3-9.8 3.5z" fill="#56ffa0"/><path d="m79.1 115.9 12.4-3.1-1.7-2.1-12.5 3z" fill="#00e4f8"/><path d="m131.5 61.5999 3.8-4.8999-2.2 1.6999-3.7 4.7z" fill="#ffde00"/><path d="m96.8 88.1001 10.3-2.3001-.1 3.3001-10.3 2.3z" fill="#7dff7a"/><path d="m108.1 79.4999 8.6-2.7999-.8 3.1999-8.5 2.7z" fill="#aaff4d"/><path d="m39.9 156.9-1-.6-4.6-1.5.8.5z" fill="#0000e8"/><path d="m83.1 118.7 12.2-3.2-2-1.1-12.3 3.2z" fill="#00d0ff"/><path d="m3.90002 85.9001 1.4 4.7.2-9-1.39999-5z" fill="#94ff63"/><path d="m77.3 113.7 12.5-3-1.5-2.5-12.5 2.9z" fill="#0cf4eb"/><path d="m103.2 114.8 11.8-2.9-1.8 1-11.9 2.9z" fill="#00e4f8"/><path d="m72.2 81.8.6 5.5v9.9001l-.6-5.5z" fill="#83ff73"/><path d="m4.40002 47.8999 1.30001 5.8001 2.79999-7.6001-1.2-5.8999z" fill="#ff9100"/><path d="m60.4 147.3-.9 2-4.3 3.8.7-1.9z" fill="#0008ff"/><path d="m144.8 65.2999 4.2-5.3-2-2.1-4.2 5.4z" fill="#ffe600"/><path d="m85.2 119.4 12.2-3.3-2-.6-12.2 3.2z" fill="#0cf"/><path d="m70.5 120.3.2 4.5-2.6 7.6-.2-4.3z" fill="#00a0ff"/><path d="m10.7 120.7.7 2.2-2.1-8-.8-2.6z" fill="#0cf"/><path d="m133.8 60.7001 3.9-5.1-2.4 1-3.8 4.9z" fill="#ffd300"/><path d="m17.5 137.3.2.4-3.2-6.5-.4-.8z" fill="#0064ff"/><path d="m75.7 111.1 12.5-2.9-1.3-2.8-12.6 2.8z" fill="#1cffdb"/><path d="m85.1 99.0999 12.1-2.6-.4-3.2999-12.1 2.5999z" fill="#5aff9d"/><path d="m32.7 5.8999-1.7 4.2 5.7 1 1.1-3.99999z" fill="#800000"/><path d="m142.6 81.6999 7.4-4.3-.8-3.5-7.3 4.4z" fill="#b4ff43"/><path d="m142.9 63.2001 4.2-5.4001-2.2-1.5-4.1 5.4001z" fill="#ffdb00"/><path d="m120.9 68.7999 6.5-3.9-1.7 2.4-6.4 3.7z" fill="#e7ff0f"/><path d="m136.1 60.5001 4-5.2001-2.4.4001-3.9 5.0999z" fill="#ffd000"/><path d="m87.3 119.5 12.1-3.3-2-.1-12.2 3.3z" fill="#00d0ff"/><path d="m118.8 107.3 11.4-3.1 1.2-2.6-11.5 3.2z" fill="#30ffc7"/><path d="m140.7 61.6999 4.1-5.4-2.3-.9-4 5.3z" fill="#ffd000"/><path d="m138.4 60.8 4-5.2999-2.4-.2001-4 5.2001z" fill="#fc0"/><path d="m133 95.5001 9.8-3.5.3-3.4-9.8 3.6z" fill="#6dff8a"/><path d="m97.1 84.9 10.3-2.4-.4 3.3-10.3 2.3z" fill="#94ff63"/><path d="m109.2 76.7 8.7-3-1.1 3-8.6 2.7999z" fill="#c1ff36"/><path d="m104.9 113.3 11.8-2.9-1.7 1.5-11.8 2.9z" fill="#0cf4eb"/><path d="m74.4 108.2 12.6-2.8-1.1-3.1-12.7 2.7z" fill="#2cffca"/><path d="m60.6 34.8999 1.4 3.6 3.5 9-1.8-3.6z" fill="#ff6000"/><path d="m68.1 57.1001 1.3 4.6 1.9 10-1.3-4.6z" fill="#ffe600"/><path d="m44.8 157.2-1.3-.6-4.6-.3 1 .6z" fill="#0000ed"/><path d="m5.99999 99.7999 1.1 3.8001-.6-8.8001-1.2-4.0999z" fill="#56ffa0"/><path d="m84.7 95.7001 12.1-2.6-.1-3.3001-12.2 2.5z" fill="#6dff8a"/><path d="m89.3 119 12-3.2-2 .5-12.1 3.3z" fill="#00d4ff"/><path d="m10.2 27.7999.7 5.6 4.4-5.4-.7-5.6z" fill="#ff1a00"/><path d="m141.8 78.2999 7.3-4.4-1.1-3.1999-7.3 4.5z" fill="#caff2c"/><path d="m29.7 152.1-.5-1.5-4.1-3.6.2 1.2z" fill="#000cff"/><path d="m55.3 153.1-1.4.7-4.4 2.3 1.1-.6z" fill="#00f"/><path d="m69.1 121.1 11.9-3.5-1.9-1.7-12.1 3.4z" fill="#00d0ff"/><path d="m67.1 119.3 12.1-3.4-1.8-2.2-12.2 3.3z" fill="#00dcfe"/><path d="m25.4 148.3-.2-1.2-3.8-4.5v.9z" fill="#0028ff"/><path d="m122.8 67.1 6.5-4.1-2 2-6.5 3.9z" fill="#f8f500"/><path d="m20.3 13.1-.7 5.2999 5.4-2.5.5-5.1999z" fill="#a40000"/><path d="m71.3 122.3 11.8-3.6-2-1.2-11.9 3.5z" fill="#00c8ff"/><path d="m68 132.4-.4 3.4-3.3 6.3.3-3.2z" fill="#0064ff"/><path d="m3.70001 62.1001 1.5 5.6 2-8.3-1.5-5.8z" fill="#ffd700"/><path d="m14.2 130.4.4.8-2.6-7.1-.5-1.2z" fill="#0098ff"/><path d="m73.3 105 12.6-2.7-.8-3.3-12.7 2.6z" fill="#43ffb4"/><path d="m65.2 117 12.2-3.3-1.6-2.6-12.3 3.1z" fill="#06ecf1"/><path d="m34.3 154.8-.8-1.6-4.2-2.5.5 1.5z" fill="#00f"/><path d="m120 104.8 11.5-3.2.9-2.9-11.6 3.3z" fill="#43ffb4"/><path d="m133.3 92.2001 9.8-3.6-.1-3.5-9.9 3.7z" fill="#83ff73"/><path d="m37.8 7-1.1 4 5.7 2.6.5-3.9z" fill="#840000"/><path d="m106.4 111.3 11.8-2.8-1.5 1.9-11.8 2.9z" fill="#19ffde"/><path d="m72.7 97.1001.5 5.2999-1 9.3-.6-5.1z" fill="#40ffb7"/><path d="m73.5 123 11.7-3.6-2.1-.6-11.8 3.6z" fill="#00c4ff"/><path d="m110.5 74.2001 8.7-3.1-1.4 2.6-8.7 3z" fill="#d4ff23"/><path d="m97.8 81.9 10.4-2.4-.7 3.1-10.3 2.4z" fill="#aaff4d"/><path d="m21.3 143.5v-.9l-3.4-5.4-.3.5z" fill="#004cff"/><path d="m91.2 118 12-3.2-1.8 1-12 3.2z" fill="#00e0fb"/><path d="m63.5 114.2 12.3-3.1-1.4-2.9-12.4 2.9z" fill="#16ffe1"/><path d="m140.7 75.2001 7.3-4.5-1.5-2.9001-7.3 4.6001z" fill="#deff19"/><path d="m56.8 26.8 1 3.6001 4.2 8.1-1.4-3.6z" fill="#ff2900"/><path d="m124.8 65.8 6.6-4.3-2.2 1.4-6.5 4.1z" fill="#ffea00"/><path d="m84.5 92.3 12.2-2.5.2-3.3-12.2 2.5z" fill="#83ff73"/><path d="m8.5 112.3.8 2.6-1.4-8.3-.9-3z" fill="#1fffd7"/><path d="m38.9 156.3-1.1-1.7-4.3-1.4.8 1.6z" fill="#00f"/><path d="m75.7 123.1 11.6-3.6-2.1-.1-11.7 3.6z" fill="#00c4ff"/><path d="m72.4 101.6 12.7-2.5999-.5-3.4-12.7 2.4z" fill="#56ffa0"/><path d="m49.5 156.1-1.6-.6-4.4 1 1.3.6z" fill="#00f"/><path d="m62 111.1 12.4-2.9-1.1-3.2-12.4 2.7z" fill="#29ffce"/><path d="m139.3 72.4001 7.3-4.6001-1.7-2.5-7.2 4.7001z" fill="#eeff09"/><path d="m42.9 9.69995-.5 3.90005 5.5 4.2v-3.8z" fill="#920000"/><path d="m64.3 142.2-1 2.2-3.8 5 .9-2z" fill="#0038ff"/><path d="m127 65.0999 6.7-4.3999-2.3.8999-6.6 4.3z" fill="#ffde00"/><path d="m133.2 88.8001 9.9-3.7-.4-3.5-9.8 3.8z" fill="#9aff5d"/><path d="m17.7 137.7.3-.5-3-6.1-.5.1z" fill="#0074ff"/><path d="m120.8 102 11.6-3.3.6-3.2-11.6 3.3z" fill="#5aff9d"/><path d="m58.2 124.9 10.9-3.8-2.1-1.8-11 3.6z" fill="#00c4ff"/><path d="m56 122.9 11.1-3.7-1.9-2.3-11.2 3.5z" fill="#00d0ff"/><path d="m4.09998 76.5999 1.4 5 1.1-8.6-1.4-5.2999z" fill="#d1ff26"/><path d="m112.1 72.1001 8.8-3.3001-1.7 2.2001-8.7 3.1z" fill="#e4ff13"/><path d="m52.5 19.8.6 3.7 4.8 7-1-3.6z" fill="#df0000"/><path d="m107.6 108.9 11.8-2.8-1.3 2.3-11.8 2.8z" fill="#29ffce"/><path d="m71.2 71.7.6 5.5.9 10-.6-5.5z" fill="#c4ff33"/><path d="m60.6 126.2 10.7-3.9-2.2-1.3-10.9 3.8z" fill="#00bcff"/><path d="m92.9 116.4 11.9-3.2-1.7 1.5-12 3.2z" fill="#09f0ee"/><path d="m98.8 79.2 10.4-2.5-1 2.7999-10.4 2.4z" fill="#beff39"/><path d="m47.8 14v3.8l5.2 5.7-.6-3.7z" fill="#b20000"/><path d="m77.8 122.6 11.5-3.6-2 .5-11.6 3.6z" fill="#0cf"/><path d="m53.9 120.4 11.2-3.5-1.7-2.7-11.4 3.3z" fill="#00e0fb"/><path d="m137.6 69.8999 7.2-4.6999-2-2-7.1 4.6999z" fill="#fbf100"/><path d="m7.29999 40.0999 1.2 5.9 3.60001-6.6-1.2-6z" fill="#ff5200"/><path d="m129.3 65 6.8-4.5-2.3.3-6.7 4.4z" fill="#ffdb00"/><path d="m65.5 47.5 1.2 4.6 2.8 9.6-1.3-4.6z" fill="#ff9f00"/><path d="m11.4 122.9.5 1.2-2.00001-7.6-.6-1.7z" fill="#00d4ff"/><path d="m29.2 150.6-.1-2.4-3.8-3.3-.2 2.1z" fill="#0028ff"/><path d="m62.9 127 10.6-4-2.2-.7-10.7 3.9z" fill="#00b8ff"/><path d="m84.7 88.9999 12.2-2.5.5-3.1-12.2 2.5z" fill="#9aff5d"/><path d="m72.3 111.7.1 4.6-1.8 8.4-.2-4.5z" fill="#02e8f4"/><path d="m25.2 147.1.2-2.1-3.5-4.2-.5 1.8z" fill="#0040ff"/><path d="m71.9 98.1001 12.7-2.4-.1-3.4001-12.7 2.3001z" fill="#6dff8a"/><path d="m60.8 107.7 12.4-2.7-.8-3.4-12.5 2.5z" fill="#40ffb7"/><path d="m135.7 67.8999 7.1-4.6999-2.2-1.5-7 4.6999z" fill="#ffe600"/><path d="m131.5 65.4 6.9-4.6-2.3-.3-6.8 4.5z" fill="#ffd700"/><path d="m43.5 156.5-1.4-1.7-4.3-.2 1.1 1.7z" fill="#00f"/><path d="m133.7 66.4001 7-4.7-2.3-.9001-6.9 4.6001z" fill="#ffdb00"/><path d="m52.1 117.5 11.4-3.3-1.5-3.1-11.5 3z" fill="#0ff8e7"/><path d="m33.5 153.1-.4-2.6-3.9-2.3.1 2.4z" fill="#0018ff"/><path d="m25.5 10.8001-.5 5.2 5.8-.8.3-5.1z" fill="#890000"/><path d="m59.5 149.3-1.6.9-4.1 3.6 1.4-.7z" fill="#0018ff"/><path d="m132.8 85.4999 9.8-3.8-.8-3.3-9.8 3.9z" fill="#b1ff46"/><path d="m113.9 70.5001 8.9-3.4-1.9 1.8-8.8 3.3z" fill="#f1fc06"/><path d="m21.4 142.6.5-1.8-3.2-5-.7 1.4z" fill="#0060ff"/><path d="m121.4 98.9001 11.6-3.3.3-3.3001-11.6 3.3001z" fill="#6dff8a"/><path d="m65.3 127.1 10.4-4-2.2-.1-10.6 4z" fill="#00b8ff"/><path d="m5.29999 90.7001 1.2 4.1.2-8.7-1.2-4.5z" fill="#94ff63"/><path d="m79.9 121.5 11.3-3.5-1.9 1-11.5 3.6z" fill="#00d8ff"/><path d="m48.8 128.9 9.4-4.1-2.2-1.9-9.6 3.9z" fill="#00b4ff"/><path d="m108.6 106.2 11.8-2.8-1 2.7-11.8 2.8z" fill="#3cffba"/><path d="m94.5 114.4 11.9-3.1-1.5 2-11.9 3.2z" fill="#16ffe1"/><path d="m46.4 126.8 9.6-3.9-2.1-2.5-9.8 3.7z" fill="#00c0ff"/><path d="m14.5 131.2.5-.1-2.4-6.7-.6-.3z" fill="#00a8ff"/><path d="m100 76.7999 10.5-2.5999-1.3 2.5-10.4 2.5z" fill="#d1ff26"/><path d="m14.6 22.4.7 5.6 5-4-.7-5.7z" fill="#d10000"/><path d="m51.4 130.4 9.2-4.2-2.3-1.4-9.4 4.1z" fill="#00a8ff"/><path d="m50.5 114.2 11.5-3-1.2-3.4-11.6 2.8z" fill="#23ffd4"/><path d="m37.8 154.5-.7-2.7-4-1.3.4 2.6z" fill="#0010ff"/><path d="m44.2 124.1 9.8-3.7-1.9-2.9-9.9 3.4z" fill="#00d4ff"/><path d="m59.9 104.1 12.5-2.5-.5-3.4999-12.6 2.2999z" fill="#56ffa0"/><path d="m53.9 153.8-1.8-.5-4.2 2.2 1.6.6z" fill="#0008ff"/><path d="m71.8 94.6 12.7-2.3.2-3.3-12.7 2.2z" fill="#83ff73"/><path d="m85.2 85.7999 12.2-2.5.8-2.9-12.2 2.4z" fill="#b1ff46"/><path d="m132 82.2 9.8-3.9001-1.1-3.0999-9.8 3.8999z" fill="#c4ff33"/><path d="m54 131.2 9-4.2-2.4-.7-9.2 4.2z" fill="#00a8ff"/><path d="m115.8 69.4001 9-3.6001-2.1 1.3001-8.9 3.4z" fill="#feed00"/><path d="m70.6 124.8-.5 3.7-2.6 7.4.4-3.4z" fill="#00a8ff"/><path d="m67.6 126.5 10.2-3.9-2.1.5-10.4 4z" fill="#00c0ff"/><path d="m29.2 148.3.8-3.1-3.5-3-1.1 2.9z" fill="#0040ff"/><path d="m18 137.2.7-1.4-2.8-5.7-.9 1z" fill="#08f"/><path d="m7.1 103.6.9 3-.6-8.3999-.9-3.4001z" fill="#5aff9d"/><path d="m25.4 144.9 1.1-2.9-3.3-3.9-1.3 2.6z" fill="#0058ff"/><path d="m5.70001 53.5999 1.5 5.8 2.79999-7.5-1.39999-6z" fill="#ff9400"/><path d="m42.1 120.9 9.9-3.4-1.6-3.3-10.1 3.1z" fill="#06ecf1"/><path d="m41.3 133.1 7.5-4.2-2.4-2.1-7.8 4z" fill="#00a0ff"/><path d="m81.7 119.9 11.3-3.4-1.7 1.5-11.3 3.5z" fill="#02e8f4"/><path d="m38.6 130.8 7.8-4-2.3-2.7-8 3.7z" fill="#00b0ff"/><path d="m72.8 87.3.5 5.4001v9.6999l-.5-5.2999z" fill="#83ff73"/><path d="m33.1 150.6.5-3.3-3.6-2.1-.8 3.1z" fill="#0034ff"/><path d="m121.6 95.5999 11.6-3.3-.1-3.4-11.7 3.4z" fill="#83ff73"/><path d="m47.9 155.5-1.6-1.7-4.2.9 1.4 1.7z" fill="#0008ff"/><path d="m49.2 110.5 11.6-2.8-.9-3.6-11.7 2.5z" fill="#39ffbe"/><path d="m62 38.5 1 4.7 3.6 8.9-1.2-4.6z" fill="#ff6000"/><path d="m44.1 134.7 7.3-4.3-2.5-1.5-7.5 4.2z" fill="#0094ff"/><path d="m101.5 74.8001 10.6-2.7-1.6 2.1-10.5 2.6z" fill="#e1ff16"/><path d="m95.8 111.9 11.8-3-1.3 2.4-11.9 3.1z" fill="#29ffce"/><path d="m109.3 103.2 11.8-2.7-.7 3-11.8 2.8z" fill="#53ffa4"/><path d="m21.9 140.8 1.3-2.6-2.9-4.6-1.6 2.2z" fill="#0074ff"/><path d="m56.5 131.3 8.8-4.3-2.4-.1-9 4.2z" fill="#00a8ff"/><path d="m130.9 79.0999 9.8-3.9-1.4-2.8-9.7 4z" fill="#d7ff1f"/><path d="m36.2 127.8 8-3.7-2-3.2-8.2 3.4z" fill="#00c4ff"/><path d="m117.9 68.8001 9.1-3.7-2.2.7-9 3.6z" fill="#ffe600"/><path d="m9.30002 114.9.6 1.7-1.29999-7.8-.70001-2.1z" fill="#26ffd1"/><path d="m42.1 154.8-1-2.7-4-.2.7 2.7z" fill="#0014ff"/><path d="m59.4 100.4 12.6-2.2999-.2-3.5-12.6 2.1z" fill="#6dff8a"/><path d="m31 10.1001-.3 5.1 5.9.9v-5z" fill="#800000"/><path d="m29.9 145.1 2.1-3.7-3.2-2.8-2.3 3.5z" fill="#005cff"/><path d="m35.7 137.3 5.6-4.2-2.7-2.3-5.9 4z" fill="#008cff"/><path d="m26.5 142.1 2.3-3.5-3-3.6-2.6 3.1z" fill="#0070ff"/><path d="m40.4 117.2 10.1-3.1-1.3-3.7-10.2 2.9z" fill="#1cffdb"/><path d="m32.8 134.8 5.9-4-2.5-3-6.1 3.7z" fill="#009cff"/><path d="m46.9 135.6 7.1-4.4-2.6-.8-7.3 4.3z" fill="#0094ff"/><path d="m37.1 151.9.2-3.4-3.7-1.2-.5 3.3z" fill="#002cff"/><path d="m69.4 61.7.6 5.5999 1.9 9.9001-.6-5.5z" fill="#ffe600"/><path d="m69.8 125.4 10.1-3.9-2 1.1-10.2 3.9z" fill="#0cf"/><path d="m67.6 135.8-1.2 2.5-3.1 6.1 1-2.2z" fill="#0070ff"/><path d="m72 91.2001 12.8-2.2.5-3.2001-12.8 2z" fill="#9aff5d"/><path d="m86 82.8999 12.2-2.4 1.1-2.6-12.2 2.4z" fill="#c4ff33"/><path d="m32 141.4 3.7-4.1-2.9-2.5-4 3.8z" fill="#0074ff"/><path d="m38.8 139.1 5.3-4.4-2.8-1.6-5.6 4.2z" fill="#0080ff"/><path d="m33.6 147.2 1.8-3.9-3.3-2-2.1 3.7z" fill="#004cff"/><path d="m11.9 124.1.6.3-1.8-7.1-.79998-.8z" fill="#00e0fb"/><path d="m129.6 76.3999 9.7-4-1.7-2.5-9.6 4z" fill="#e7ff0f"/><path d="m28.8 138.6 4-3.8-2.7-3.2-4.2 3.5z" fill="#0084ff"/><path d="m120 68.8 9.3-3.8-2.2.1-9.1 3.7z" fill="#ffe200"/><path d="m33.9 124.3 8.2-3.4-1.7-3.6-8.4 3.1z" fill="#00e0fb"/><path d="m30.1 131.5 6.1-3.7-2.2-3.5-6.3 3.4z" fill="#00b4ff"/><path d="m23.2 138.2 2.6-3.1-2.7-4.2-2.9 2.8z" fill="#008cff"/><path d="m15 131.1.9-1-2.3-6.2-1.1.5z" fill="#00b4ff"/><path d="m35.3 143.4 3.4-4.2-3-1.8-3.7 4.1z" fill="#0068ff"/><path d="m121.5 92.1999 11.7-3.4-.4-3.4-11.6 3.4z" fill="#9aff5d"/><path d="m18.7 135.8 1.6-2.2-2.5-5.2-1.8 1.7z" fill="#009cff"/><path d="m83.3 117.7 11.2-3.3-1.5 2-11.3 3.4z" fill="#13fce4"/><path d="m59 130.7 8.6-4.2-2.3.5-8.8 4.3z" fill="#00b0ff"/><path d="m5.20001 67.6999 1.4 5.3 1.9-8-1.3-5.6z" fill="#ffdb00"/><path d="m48.3 106.6 11.7-2.5-.5-3.7-11.7 2.2z" fill="#53ffa4"/><path d="m103.2 73.2 10.7-2.7-1.8 1.6-10.6 2.7z" fill="#eeff09"/><path d="m128 73.8999 9.6-4-1.9-2-9.6 4z" fill="#f4f802"/><path d="m25.8 135 4.2-3.5-2.4-3.9-4.5 3.1z" fill="#00a0ff"/><path d="m122.1 69.3 9.4-3.9-2.2-.4-9.3 3.8z" fill="#ffe200"/><path d="m41.9 140.1 5-4.5-2.8-.9-5.3 4.4z" fill="#007cff"/><path d="m49.7 135.8 6.8-4.4-2.6-.1-7.1 4.4z" fill="#0094ff"/><path d="m63.3 144.4-1.7 1.1-3.6 4.7 1.6-.9z" fill="#04f"/><path d="m10.9 33.4 1.2 6 4.3-5.3-1.2-6.1z" fill="#ff1e00"/><path d="m109.7 99.8999 11.8-2.6999-.4 3.2-11.8 2.7z" fill="#66ff90"/><path d="m37.3 148.4 1.4-4-3.4-1.1-1.8 3.9z" fill="#0048ff"/><path d="m126.2 71.8999 9.6-4-2.1-1.5-9.5 3.9z" fill="#feed00"/><path d="m96.8 109.1 11.8-2.9-1 2.7-11.8 3z" fill="#3cffba"/><path d="m124.2 70.2999 9.5-3.9-2.2-1-9.4 3.9z" fill="#ffe200"/><path d="m39 113.3 10.2-2.8-1-3.9-10.3 2.4z" fill="#36ffc1"/><path d="m38.7 144.4 3.1-4.3-3.1-1-3.4 4.2z" fill="#0064ff"/><path d="m27.6 127.7 6.3-3.4-1.9-4-6.5 3z" fill="#00d0ff"/><path d="m57.8 30.5.9 4.7 4.3 8-1-4.7z" fill="#ff2900"/><path d="m59.2 96.7 12.6-2.1001.2-3.3999-12.6 1.7999z" fill="#87ff70"/><path d="m41.1 152.1-.2-3.5-3.7-.2-.2 3.4z" fill="#0030ff"/><path d="m32 120.3 8.4-3.1-1.4-4-8.5 2.7z" fill="#13fce4"/><path d="m73.3 102.4.1 4.8-.9 9.1-.1-4.6z" fill="#43ffb4"/><path d="m20.3 133.6 2.9-2.8-2.3-4.8-3.1 2.3z" fill="#00acff"/><path d="m58 150.2-2-.3-3.8 3.4 1.8.5z" fill="#002cff"/><path d="m19.6 18.4.7 5.7 5.4-2.4-.7-5.7z" fill="#a80000"/><path d="m71.7 123.6 10-3.7-1.8 1.6-10.1 3.9z" fill="#00dcfe"/><path d="m36.7 11v5l5.9 2.5-.2-4.9z" fill="#800000"/><path d="m46.3 153.9-1.3-2.6-3.9.9 1 2.7z" fill="#0020ff"/><path d="m87.2 80.2999 12.2-2.4 1.4-2.1999-12.2 2.2999z" fill="#d7ff1f"/><path d="m23.1 130.8 4.5-3.1-2.1-4.4-4.7 2.7z" fill="#00c0ff"/><path d="m52.1 153.3-1.9-1.5-3.9 2.1 1.6 1.7z" fill="#0020ff"/><path d="m72.5 87.9 12.8-2 .8-2.9-12.7 1.9z" fill="#b1ff46"/><path d="m121.1 88.8999 11.6-3.4-.8-3.2999-11.6 3.3999z" fill="#b1ff46"/><path d="m5.5 81.7001 1.2 4.5 1-8.3-1.1-4.8z" fill="#ceff29"/><path d="m44.9 140.3 4.8-4.5-2.8-.1-5 4.5z" fill="#007cff"/><path d="m105 72.1999 10.8-2.8-2 1.1-10.7 2.7z" fill="#fbf100"/><path d="m61.4 129.5 8.4-4.1-2.2 1.2-8.6 4.2z" fill="#00bcff"/><path d="m15.9 130.1 1.8-1.7-2.1-5.7-2 1.3z" fill="#00c4ff"/><path d="m52.4 135.1 6.6-4.4-2.5.6-6.8 4.4z" fill="#009cff"/><path d="m47.7 102.6 11.7-2.2-.2-3.7-11.8 1.8999z" fill="#6dff8a"/><path d="m41 148.6 1.1-4-3.4-.2-1.4 4z" fill="#004cff"/><path d="m84.7 115.1 11.1-3.2-1.3 2.5-11.2 3.3z" fill="#23ffd4"/><path d="m42.1 144.6 2.8-4.4-3.1-.2-3.1 4.3z" fill="#0064ff"/><path d="m25.5 123.3 6.5-3-1.6-4.4-6.7 2.5z" fill="#09f0ee"/><path d="m53.1 23.5.7 4.7 4.9 6.9-.9-4.7z" fill="#df0000"/><path d="m109.8 96.4999 11.9-2.6-.1 3.3-11.8 2.7z" fill="#7dff7a"/><path d="m12.6 124.4 1.1-.5-1.7-6.6h-1.2z" fill="#02e8f4"/><path d="m6.5 94.7999.9 3.4001.2-8.2001-.9-3.7999z" fill="#94ff63"/><path d="m42.4 13.6001.2 4.9 5.7 4.1-.4-4.8z" fill="#920000"/><path d="m97.5 105.9 11.8-2.8-.7 3-11.8 2.9z" fill="#50ffa7"/><path d="m37.9 109 10.3-2.4-.6-4-10.4 2.1z" fill="#50ffa7"/><path d="m30.5 116 8.5-2.7-1.1-4.2-8.6 2.3z" fill="#30ffc7"/><path d="m120.4 85.6001 11.6-3.4-1.1-3.1-11.6 3.4z" fill="#c4ff33"/><path d="m9.99999 116.5.80001.8-1.20001-7.3-.8-1.3z" fill="#2cffca"/><path d="m17.7 128.3 3.1-2.3-1.9-5.2-3.3 1.8z" fill="#00d4ff"/><path d="m7.99999 106.6.7 2.1-.6-7.9-.8-2.6z" fill="#5aff9d"/><path d="m47.9 17.8.4 4.8001 5.4 5.6-.7-4.7001z" fill="#b20000"/><path d="m20.8 126 4.7-2.7-1.7-4.8-4.9 2.3z" fill="#00e4f8"/><path d="m107 71.7001 10.9-2.9001-2.1.6001-10.8 2.8z" fill="#ffea00"/><path d="m59.4 93.0001 12.6-1.9.5-3.3001-12.6 1.7001z" fill="#9dff5a"/><path d="m88.5 78.1 12.2-2.3 1.6-1.8-12.2 2.3z" fill="#e7ff0f"/><path d="m73.5 121.3 9.9-3.6-1.6 2.2-10 3.7z" fill="#09f0ee"/><path d="m72.5 116.3-.5 3.9-1.8 8.2.5-3.7z" fill="#06ecf1"/><path d="m45 151.2-.5-3.4-3.6.8.2 3.5z" fill="#003cff"/><path d="m47.9 139.6 4.5-4.4-2.7.6-4.8 4.5z" fill="#08f"/><path d="m71.8 77.2.6 5.5.9 9.8999-.5-5.3999z" fill="#c4ff33"/><path d="m66.6 52.1001.6 5.6 2.8 9.6-.6-5.6z" fill="#ff9f00"/><path d="m73.3 84.8 12.7-1.8999 1.1-2.6001-12.7 1.8001z" fill="#c7ff30"/><path d="m8.5 46 1.4 6 3.6-6.4-1.3-6.1z" fill="#ff5900"/><path d="m63.5 127.6 8.2-4-2 1.8-8.4 4.1z" fill="#00d0ff"/><path d="m119.4 82.5001 11.6-3.4-1.4-2.8001-11.5 3.3001z" fill="#d7ff1f"/><path d="m55 133.8 6.4-4.3-2.3 1.3-6.6 4.4z" fill="#00acff"/><path d="m109 71.8 11-3h-2.1l-10.9 2.9001z" fill="#ffe600"/><path d="m45.4 143.9 2.5-4.3-3 .7-2.8 4.4z" fill="#0070ff"/><path d="m44.5 147.8.8-4-3.3.7-1.1 4z" fill="#0054ff"/><path d="m47.4 98.6 11.8-1.9.2-3.7-11.8 1.6z" fill="#87ff70"/><path d="m109.5 93.1 11.9-2.6.2 3.4-11.9 2.6z" fill="#94ff63"/><path d="m23.8 118.5 6.7-2.5-1.2-4.6-6.8 2.1z" fill="#26ffd1"/><path d="m85.8 112.1 11.1-3-1 2.8-11.1 3.2z" fill="#39ffbe"/><path d="m50.2 151.8-1.6-2.5-3.6 1.9 1.3 2.6z" fill="#0038ff"/><path d="m13.7 123.9 2-1.3-1.6-6.1-2.1.8z" fill="#0cf4eb"/><path d="m97.9 102.5 11.8-2.6001-.4 3.2001-11.8 2.8z" fill="#66ff90"/><path d="m70.2 128.5-1.3 2.7-2.5 7.1 1.2-2.5z" fill="#00b0ff"/><path d="m118.1 79.7 11.5-3.3-1.6-2.4-11.4 3.3z" fill="#e4ff13"/><path d="m37.2 104.7 10.4-2.1-.2-3.9999-10.4 1.6999z" fill="#6aff8d"/><path d="m111 72.4001 11.1-3.1001-2.1-.5-11 3z" fill="#ffe600"/><path d="m29.3 111.3 8.6-2.3-.7-4.4-8.7 1.9z" fill="#49ffad"/><path d="m90.1 76.2999 12.2-2.3 1.8-1.2999-12.2 2.2999z" fill="#f4f802"/><path d="m25 15.9001.7 5.7 5.7-.8-.7-5.7z" fill="#8d0000"/><path d="m55.9 150-2.2-1.3-3.6 3.2 1.9 1.5z" fill="#0040ff"/><path d="m18.9 120.8 4.9-2.3-1.3-5.1-5 1.8z" fill="#1fffd7"/><path d="m15.6 122.6 3.3-1.8-1.4-5.6-3.4 1.3z" fill="#16ffe1"/><path d="m116.6 77.1999 11.4-3.3-1.8-2-11.3 3.2z" fill="#f1fc06"/><path d="m59.9 89.5001 12.6-1.7001.8-3-12.6 1.5z" fill="#b4ff43"/><path d="m113 73.4999 11.2-3.2-2.1-1.0999-11.1 3.0999z" fill="#ffe600"/><path d="m66.4 138.3-1.9 1.4-3 5.8 1.7-1.1z" fill="#007cff"/><path d="m114.8 75.1001 11.3-3.2-2-1.6001-11.2 3.2001z" fill="#feed00"/><path d="m74.9 118.5 9.8-3.4-1.4 2.6-9.9 3.6z" fill="#1cffdb"/><path d="m61.5 145.5h-2.2l-3.4 4.5 2 .3z" fill="#0054ff"/><path d="m15.3 28.0001 1.2 6.1 4.9-3.9-1.1-6.1z" fill="#d60000"/><path d="m50.7 138.1 4.3-4.3-2.6 1.4-4.5 4.4z" fill="#0098ff"/><path d="m74.4 82.1001 12.7-1.8 1.4-2.2-12.7 1.7z" fill="#d7ff1f"/><path d="m7.09998 59.4 1.29999 5.6 2.70003-7.2-1.30003-5.8z" fill="#ff9c00"/><path d="m10.7 117.3h1.2l-1.1-6.8-1.3-.5z" fill="#30ffc7"/><path d="m108.9 89.8 11.9-2.5.6 3.3001-11.9 2.6z" fill="#aaff4d"/><path d="m48.6 149.3-.7-3.3-3.4 1.8.5 3.4z" fill="#0050ff"/><path d="m65.4 125 8.1-3.8-1.7 2.3-8.2 4z" fill="#00e4f8"/><path d="m57.3 131.7 6.2-4.1-2.1 1.9-6.4 4.3z" fill="#00c0ff"/><path d="m91.9 74.9999 12.2-2.3 1.9-.8-12.1 2.3z" fill="#feed00"/><path d="m47.6 94.6 11.8-1.6.5-3.5-11.8 1.3z" fill="#a0ff56"/><path d="m86.5 108.7 11-2.8-.7 3.2-11.1 3z" fill="#50ffa7"/><path d="m48.4 142.2 2.3-4.2-2.8 1.5-2.5 4.3z" fill="#0080ff"/><path d="m22.5 113.4 6.8-2.1-.7-4.8-6.9 1.6z" fill="#46ffb1"/><path d="m73.3 92.7.1 5.0999v9.5001l-.1-4.8z" fill="#83ff73"/><path d="m98 99 11.8-2.5-.1 3.4-11.8 2.6z" fill="#7dff7a"/><path d="m47.9 146.1.6-3.8-3.1 1.6-.8 4z" fill="#0068ff"/><path d="m8.69998 108.7.8 1.3-.5-7.4-.9-1.8z" fill="#5dff9a"/><path d="m63 43.2.6 5.6999 3.6 8.9-.6-5.5999z" fill="#ff6000"/><path d="m6.59998 72.9999 1.1 4.8 1.8-7.7-1.10001-5.2z" fill="#ffe200"/><path d="m37 100.3 10.4-1.6999.2-4-10.5 1.4z" fill="#87ff70"/><path d="m28.5 106.5 8.7-1.9-.3-4.4-8.8 1.5z" fill="#6aff8d"/><path d="m108 86.5 11.9-2.5.9 3.2-11.9 2.5z" fill="#beff39"/><path d="m12 117.3 2.1-.8-1-6.3-2.2.2z" fill="#36ffc1"/><path d="m60.8 86.3001 12.6-1.5 1.1-2.7-12.5 1.3z" fill="#caff2c"/><path d="m75.8 79.8 12.7-1.6999 1.6-1.8001-12.6 1.7001z" fill="#e7ff0f"/><path d="m7.40002 98.1999.80001 2.6001.19999-7.8001-.69999-3.1z" fill="#90ff66"/><path d="m6.70001 86.1001.9 3.8 1-7.9-.8-4.2001z" fill="#caff2c"/><path d="m17.5 115.2 5-1.8-.8-5.3-5.1 1.3z" fill="#40ffb7"/><path d="m93.8 74.2 12.1-2.3001 2-.1999-12.1 2.2999z" fill="#ffe600"/><path d="m53.8 148.6-1.8-2.3-3.3 3 1.6 2.5z" fill="#0054ff"/><path d="m76.1 115.2 9.7-3.1-1.1 3-9.8 3.4z" fill="#33ffc4"/><path d="m14.1 116.6 3.4-1.3-.9-5.8-3.5.8z" fill="#3cffba"/><path d="m53.3 135.8 4.1-4.1-2.3 2.1-4.3 4.3z" fill="#00acff"/><path d="m30.7 15.1001.7 5.7 5.9.9-.7-5.7z" fill="#800000"/><path d="m70 67.3.6 5.7001 1.8 9.7999-.6-5.5z" fill="#ffea00"/><path d="m106.8 83.5001 11.9-2.4 1.2 3-11.9 2.5z" fill="#d1ff26"/><path d="m97.7 95.5001 11.8-2.4.3 3.4-11.8 2.5z" fill="#94ff63"/><path d="m67 122 8-3.5-1.5 2.8-8.1 3.8z" fill="#16ffe1"/><path d="m59.4 128.9 6-3.9-1.9 2.5-6.2 4.1z" fill="#00d8ff"/><path d="m86.9 105.1 11-2.6-.4 3.4-11 2.8z" fill="#66ff90"/><path d="m95.8 73.9999 12.1-2.2999 2 .2999-12.1 2.3z" fill="#ffe200"/><path d="m48.1 90.8999 11.8-1.3.9-3.2-11.8 1z" fill="#b7ff40"/><path d="m73.4 107.2-.6 4.2-.9 8.8.5-3.9z" fill="#43ffb4"/><path d="m12.1 39.4001 1.3 6.1 4.2-5.2-1.3-6.2z" fill="#ff2500"/><path d="m21.6 108.2 6.9-1.6-.3-4.8-6.9 1.2z" fill="#66ff90"/><path d="m51.2 139.7 2-3.9-2.6 2.3-2.3 4.2z" fill="#0098ff"/><path d="m59.3 145.5-2.4-1-3.1 4.2 2.2 1.3z" fill="#0068ff"/><path d="m105.4 80.7999 12-2.4 1.4 2.7-11.9 2.4z" fill="#e1ff16"/><path d="m77.5 77.8999 12.6-1.7 1.8-1.3-12.6 1.6z" fill="#f8f500"/><path d="m51.9 146.4-1-3-3.1 2.7.7 3.3z" fill="#006cff"/><path d="m58.7 35.1001.6 5.7 4.3 8-.6-5.7z" fill="#ff2900"/><path d="m9.50002 110 1.29998.5-.5-6.9-1.39998-1z" fill="#60ff97"/><path d="m97.9 74.3 12.1-2.3 2 .9-12.1 2.3z" fill="#ffe600"/><path d="m61.9 83.4001 12.5-1.3 1.4-2.3001-12.4 1.2001z" fill="#deff19"/><path d="m37.1 95.9999 10.4-1.3.5-3.8-10.4 1z" fill="#a4ff53"/><path d="m50.9 143.3.3-3.6-2.8 2.5-.6 3.8z" fill="#0080ff"/><path d="m28.2 101.7 8.8-1.5.2-4.3001-8.8 1z" fill="#87ff70"/><path d="m103.7 78.5001 12-2.4 1.6 2.3-12 2.4z" fill="#eeff09"/><path d="m99.9 75.1999 12.1-2.3 1.9 1.4-12 2.3z" fill="#ffea00"/><path d="m20.3 24 1.1 6.1 5.4-2.4-1.1-6.2z" fill="#ad0000"/><path d="m101.9 76.6001 12-2.3001 1.8 1.9001-12 2.4z" fill="#fbf100"/><path d="m71.9 120.3-1.3 3.1-1.7 7.9 1.3-2.7z" fill="#0cf4eb"/><path d="m97 92.0001 11.9-2.2001.6 3.4001-11.8 2.4z" fill="#aaff4d"/><path d="m76.8 111.6 9.7-2.9-.7 3.3-9.7 3.1z" fill="#4dffaa"/><path d="m64.5 139.7-2.4.3-2.8 5.5h2.2z" fill="#08f"/><path d="m36.7 16 .7 5.7 5.9 2.5-.6-5.7z" fill="#800000"/><path d="m16.5 109.5 5.1-1.3-.3-5.3-5.1.8z" fill="#66ff90"/><path d="m68.9 131.2-2 1.7-2.3 6.7 1.9-1.4z" fill="#00b8ff"/><path d="m55.5 132.8 3.9-3.8-2.1 2.8-4.1 4.1z" fill="#00c8ff"/><path d="m86.9 101.4 11-2.4v3.5l-11 2.6z" fill="#7dff7a"/><path d="m10.8 110.5 2.2-.2-.4-6.3-2.3-.3z" fill="#60ff97"/><path d="m79.3 76.5999 12.6-1.6 1.9-.7999-12.5 1.5999z" fill="#ffea00"/><path d="m53.7 28.2.6 5.6999 4.9 6.9-.6-5.7z" fill="#df0000"/><path d="m13.1 110.3 3.5-.8-.4-5.8-3.5.3z" fill="#63ff94"/><path d="m8.09998 100.8.9 1.8.2-7.3-.90001-2.3z" fill="#90ff66"/><path d="m68.2 118.4 7.9-3.2-1.1 3.3-8 3.5z" fill="#2cffca"/><path d="m49 87.3999 11.7-1.1 1.2-2.9-11.6.8z" fill="#d1ff26"/><path d="m9.90002 51.9 1.29998 5.8 3.5-6.2-1.2-6z" fill="#ff6000"/><path d="m61.1 125.5 5.9-3.5-1.6 3.1-6 3.9z" fill="#0cf4eb"/><path d="m42.6 18.5.6 5.7 5.7 4.1-.6-5.7z" fill="#920000"/><path d="m63.4 80.9999 12.4-1.2 1.6-1.9-12.3 1.1z" fill="#eeff09"/><path d="m96.1 88.6 11.9-2.1.9 3.2-11.9 2.3z" fill="#c1ff36"/><path d="m56.9 144.4-2.1-2-2.9 3.9 1.8 2.3z" fill="#007cff"/><path d="m48.3 22.6001.6 5.7 5.4 5.6-.6-5.7z" fill="#b20000"/><path d="m72.4 82.8.1 5.3001.9 9.6999-.1-5.0999z" fill="#c1ff36"/><path d="m21.3 102.9 6.9-1.2.2-4.7-6.9.7z" fill="#8aff6d"/><path d="m81.3 75.8 12.5-1.6 2-.2-12.4 1.6z" fill="#ffe200"/><path d="m37.7 91.8999 10.4-1 .9-3.5-10.3.6z" fill="#beff39"/><path d="m53.7 136.4 1.8-3.7-2.2 3-2 3.9z" fill="#00b4ff"/><path d="m67.2 57.8.6 5.8001 2.7 9.4-.6-5.7001z" fill="#ffa300"/><path d="m7.5 89.9999.7 3.1.9-7.3999-.7-3.5z" fill="#c7ff30"/><path d="m28.4 96.9999 8.8-1 .6-4.1-8.7.6z" fill="#a7ff50"/><path d="m8.5 65.0001 1.1 5.2 2.6-6.9001-1-5.5z" fill="#ffa300"/><path d="m77.2 107.7 9.6-2.6-.4 3.6-9.7 2.9z" fill="#63ff94"/><path d="m86.6 97.5999 11.1-2.2.3 3.6-11 2.4001z" fill="#97ff60"/><path d="m7.70001 77.8001.8 4.2 1.79999-7.3-.79999-4.6z" fill="#ffea00"/><path d="m94.8 85.5 12-2 1.2 3-11.9 2.1z" fill="#d4ff23"/><path d="m54.9 142.4-1.2-2.7-2.7 3.6 1 3z" fill="#0090ff"/><path d="m53.6 139.7.1-3.3-2.5 3.3-.3 3.6z" fill="#00a0ff"/><path d="m83.4 75.4999 12.4-1.6 2 .3-12.4 1.6z" fill="#ffde00"/><path d="m9 102.6 1.4 1 .2-6.7001-1.4-1.5z" fill="#8dff6a"/><path d="m50.3 84.3 11.6-.8 1.5-2.5-11.5.6z" fill="#e4ff13"/><path d="m65.1 79 12.3-1.1 1.8-1.4-12.2 1z" fill="#feed00"/><path d="m16.2 103.7 5.1-.8.2-5.2-5.1.2999z" fill="#8aff6d"/><path d="m57.4 129.1 3.7-3.5-1.7 3.4-3.9 3.8z" fill="#02e8f4"/><path d="m62.1 140-2.6-.7-2.6 5.1 2.4 1z" fill="#0098ff"/><path d="m69 114.5 7.8-2.9-.8 3.6-7.9 3.2z" fill="#46ffb1"/><path d="m93.3 82.7001 12.1-1.9001 1.4 2.7001-12 2z" fill="#e4ff13"/><path d="m25.7 21.6001 1.1 6.1999 5.7-.7999-1-6.2001z" fill="#920000"/><path d="m16.5 34.0999 1.3 6.2 4.8-3.8-1.2-6.2999z" fill="#df0000"/><path d="m85.5 75.9001 12.4-1.6001 2 .9001-12.3 1.5999z" fill="#ffde00"/><path d="m62.4 121.7 5.8-3.2-1.2 3.5-5.9 3.6z" fill="#26ffd1"/><path d="m73.4 97.7-.6 4.5v9.2l.6-4.2z" fill="#83ff73"/><path d="m91.6 80.1999 12.1-1.8 1.7 2.3-12.1 1.9z" fill="#f1fc06"/><path d="m87.6 76.7999 12.3-1.5999 2 1.3999-12.2 1.7z" fill="#ffe600"/><path d="m10.4 103.6 2.3.3.2-6.1999-2.2-.9001z" fill="#8dff6a"/><path d="m12.6 103.9 3.5-.3.2-5.7001-3.5-.1999z" fill="#8dff6a"/><path d="m85.9 93.9 11.1-1.9.6 3.5-11.1 2.2z" fill="#adff49"/><path d="m89.7 78.3001 12.2-1.7 1.8 1.9-12.1 1.8z" fill="#feed00"/><path d="m38.7 87.9999 10.4-.7 1.3-3.0999-10.4.3999z" fill="#d7ff1f"/><path d="m77.3 103.7 9.7-2.3v3.7l-9.6 2.6z" fill="#7dff7a"/><path d="m21.4 97.7 6.9-.7.6-4.5-6.9.2z" fill="#aaff4d"/><path d="m66.9 132.9-2.6.7-2.2 6.4 2.4-.3z" fill="#00c4ff"/><path d="m67.1 77.4999 12.2-1 2-.7999-12.1.8999z" fill="#ffe200"/><path d="m29 92.5001 8.7-.6 1-3.8-8.7.3z" fill="#c4ff33"/><path d="m55.8 132.4 1.6-3.3-1.9 3.7-1.8 3.7z" fill="#00d8ff"/><path d="m72.8 111.4-1.4 3.4-.9 8.5 1.3-3.1z" fill="#46ffb1"/><path d="m8.29999 93 .9 2.3.90001-7-.80001-2.8z" fill="#c1ff36"/><path d="m63.6 48.8.7 5.9001 3.5 8.8-.6-5.8z" fill="#ff6400"/><path d="m51.9 81.6 11.5-.6 1.7-2-11.4.5z" fill="#f8f500"/><path d="m59.5 139.3-2.3-1.6-2.4 4.8 2.1 2z" fill="#00a8ff"/><path d="m70.6 123.3-2.1 2.1-1.6 7.5 2-1.7z" fill="#0ff8e7"/><path d="m84.9 90.3001 11.2-1.7 1 3.4-11.1 1.9z" fill="#c4ff33"/><path d="m69.5 110.3 7.8-2.5-.4 3.9-7.8 2.9z" fill="#63ff94"/><path d="m70.5 73 .2 5.5 1.8 9.6-.1-5.3z" fill="#ffea00"/><path d="m13.5 45.5001 1.2 6 4.1-5-1-6.2001z" fill="#ff3000"/><path d="m55.9 135.3-.1-2.9-2.1 4-.1 3.3z" fill="#00c8ff"/><path d="m69.2 76.7001 12.1-.9 2.1-.2-12 .9z" fill="#ffdb00"/><path d="m57.3 137.7-1.4-2.4-2.2 4.4 1.2 2.7z" fill="#00b8ff"/><path d="m58.9 124.8 3.6-3.1-1.3 3.9-3.7 3.5z" fill="#1cffdb"/><path d="m16.3 98 5.1-.3.7-5-5.1-.2z" fill="#adff49"/><path d="m31.4 20.8 1 6.2001 5.8.9-.9-6.2z" fill="#840000"/><path d="m76.9 99.6001 9.7-2 .3 3.7999-9.7 2.3z" fill="#97ff60"/><path d="m63.3 117.3 5.7-2.9-.8 3.9-5.8 3.2z" fill="#43ffb4"/><path d="m8.5 82.1001.7 3.5 1.7-6.9-.6-3.9001z" fill="#fbf100"/><path d="m83.5 87 11.3-1.5 1.2 3.1-11.2 1.7z" fill="#d7ff1f"/><path d="m40 84.6 10.3-.4 1.6-2.7-10.1.1z" fill="#eeff09"/><path d="m9.20001 95.3 1.39999 1.5.8-6.5-1.3-2z" fill="#beff39"/><path d="m53.7 79.5001 11.4-.5 1.9-1.4-11.3.4z" fill="#ffe600"/><path d="m71.4 76.4 12-.9 2.1.3-11.9.9z" fill="#ffd700"/><path d="m11.2 57.7 1 5.5 3.3-6-.8-5.7z" fill="#ff6c00"/><path d="m22.1 92.7001 6.9-.2 1.1-4.2-6.8-.2z" fill="#caff2c"/><path d="m12.8 97.7001 3.5.2.7-5.4-3.5-.7001z" fill="#b4ff43"/><path d="m9.5 70.0999.8 4.6001 2.5-6.6001-.6-4.8999z" fill="#ffae00"/><path d="m30 88.3 8.7-.3 1.4-3.4-8.5-.1z" fill="#deff19"/><path d="m59.3 40.8.7 6 4.3 7.9001-.7-5.9001z" fill="#ff2d00"/><path d="m81.9 84.0001 11.4-1.4 1.5 2.8-11.3 1.6z" fill="#ebff0c"/><path d="m64.3 133.6-2.7-.3-2 5.9 2.6.7z" fill="#0cf"/><path d="m21.4 30.2001 1.2 6.3 5.3-2.3-1.1-6.4001z" fill="#b00"/><path d="m10.5 96.9 2.2.9.8-5.9-2.2-1.4z" fill="#b7ff40"/><path d="m73.6 76.7999 11.9-.9 2.1.9-11.8 1z" fill="#ffd700"/><path d="m69.5 105.9 7.8-2.2v4l-7.8 2.5z" fill="#7dff7a"/><path d="m76.1 95.5999 9.8-1.7.7 3.7-9.7 2z" fill="#b1ff46"/><path d="m57.3 127.7 1.5-2.9-1.5 4.3-1.6 3.3z" fill="#16ffe1"/><path d="m80.1 81.3999 11.5-1.1999 1.7 2.3999-11.4 1.4z" fill="#f8f500"/><path d="m75.9 77.8 11.8-1 2 1.5-11.7 1z" fill="#ffdb00"/><path d="m37.3 21.7.9 6.1999 5.8 2.5-.9-6.1999z" fill="#890000"/><path d="m78 79.2999 11.6-1.0999 1.9 2-11.5 1.1999z" fill="#ffe600"/><path d="m72.5 88-.5 4.8.9 9.4.6-4.5z" fill="#c1ff36"/><path d="m55.8 77.9001 11.3-.4 2.1-.9-11.1.4z" fill="#ffd700"/><path d="m41.7 81.6999 10.1-.1 1.9-2.1-10-.1z" fill="#ffea00"/><path d="m63.8 112.7 5.7-2.4-.4 4.2-5.7 2.9z" fill="#60ff97"/><path d="m59.8 120.1 3.5-2.7-.9 4.3-3.6 3.1z" fill="#3cffba"/><path d="m54.4 33.8999.8 6.1 4.9 6.8-.7-6z" fill="#e40000"/><path d="m61.6 133.3-2.4-1.2-1.9 5.5 2.3 1.6z" fill="#00d8ff"/><path d="m68.5 125.4-2.6 1.1-1.5 7.1 2.6-.7z" fill="#16ffe1"/><path d="m57.6 130.2-.3-2.5-1.6 4.7.1 2.9z" fill="#0cf4eb"/><path d="m17 92.4999 5.1.2 1.1-4.6-5-.7z" fill="#d1ff26"/><path d="m43.2 24.2.9 6.1999 5.7 4.1-.8-6.1z" fill="#9b0000"/><path d="m9.20001 85.5999.79999 2.8 1.6-6.5-.7-3.1999z" fill="#f4f802"/><path d="m75 91.7001 9.9-1.4001 1 3.6001-9.8 1.7z" fill="#c7ff30"/><path d="m67.8 63.5.2 5.7 2.7 9.2-.2-5.5z" fill="#ffa700"/><path d="m49 28.3.8 6.1001 5.4 5.5-.8-6.1001z" fill="#b00"/><path d="m59.2 132.1-1.6-1.9-1.7 5.1 1.4 2.4z" fill="#02e8f4"/><path d="m72.8 102.2-1.4 3.8v8.9l1.4-3.4z" fill="#80ff77"/><path d="m31.5 84.5999 8.5.1 1.7-2.9-8.4-.4z" fill="#f8f500"/><path d="m69 101.4 7.8-1.7999.4 4.0999-7.8 2.2z" fill="#9aff5d"/><path d="m71.4 114.9-2.2 2.5-.8 8.1 2.1-2.1z" fill="#49ffad"/><path d="m58.1 77 11.1-.3 2.2-.2-11 .3z" fill="#ffd000"/><path d="m23.2 88.1001 6.8.2 1.5-3.7-6.7-.5z" fill="#e7ff0f"/><path d="m17.7 40.3 1 6.2 4.7-3.7-.9-6.3z" fill="#f10800"/><path d="m13.5 91.8 3.5.7001 1.2-5-3.4-1.2001z" fill="#dbff1c"/><path d="m73.6 88.1 10-1.1 1.3 3.3-9.9 1.4z" fill="#deff19"/><path d="m43.7 79.3999 10 .1 2.1-1.6-9.8-.1999z" fill="#ffd700"/><path d="m10 88.3999 1.3 2 1.4-6-1.2-2.5z" fill="#ebff0c"/><path d="m26.7 27.8001 1.1 6.4 5.6-.7-.9-6.4z" fill="#9f0000"/><path d="m58.4 122.5 1.4-2.5-1 4.7-1.5 2.9z" fill="#36ffc1"/><path d="m10.3 74.7001.6 3.9 2.4-6.2-.5-4.3z" fill="#ffb900"/><path d="m60.4 76.6999 11-.3 2.3.4-10.8.3z" fill="#fc0"/><path d="m63.8 107.9 5.7-2v4.4l-5.7 2.4z" fill="#80ff77"/><path d="m11.3 90.4 2.2 1.4 1.3-5.5-2.1-1.8z" fill="#e1ff16"/><path d="m71.8 84.9 10.1-.9 1.6 3-10 1.1z" fill="#f1fc06"/><path d="m60.3 115 3.5-2.3-.5 4.6-3.5 2.7z" fill="#5dff9a"/><path d="m14.6 51.5.8 5.7 4-4.8-.7-5.9z" fill="#ff3b00"/><path d="m65.8 126.6-2.8.2-1.4 6.6 2.7.3z" fill="#1cffdb"/><path d="m68.2 97.0001 7.9-1.4.8 4-7.8 1.7999z" fill="#b7ff40"/><path d="m62.9 77.1001 10.8-.3001 2.2 1-10.6.4001z" fill="#fc0"/><path d="m12.1 63.2.6 4.8999 3.2-5.7-.5-5.1999z" fill="#ff7a00"/><path d="m69.8 82.0999 10.3-.7 1.8 2.6-10.1.9z" fill="#ffea00"/><path d="m33.4 81.3999 8.4.4 2-2.3-8.2-.6z" fill="#ffdb00"/><path d="m65.3 78.2001 10.6-.4001 2.2 1.6001-10.4.5z" fill="#ffd000"/><path d="m18.2 87.5 5 .7 1.6-4.1-4.8-1.1z" fill="#f4f802"/><path d="m67.6 79.8 10.4-.5 2 2.1001-10.3.7z" fill="#ffdb00"/><path d="m46 77.7 9.8.1999 2.3-.9-9.6-.2999z" fill="#ffc800"/><path d="m64.3 54.7.3 5.8999 3.5 8.6001-.2-5.7001z" fill="#ff6c00"/><path d="m70.7 78.5-.5 5.1 1.8 9.3.5-4.8z" fill="#fbf100"/><path d="m58.8 124.6-.4-2-1.1 5.2.3 2.5z" fill="#30ffc7"/><path d="m24.8 83.9999 6.7.5 1.9-3.2-6.5-.9z" fill="#ffe600"/><path d="m63 126.7-2.5-.7-1.3 6.1 2.4 1.2z" fill="#23ffd4"/><path d="m60.5 126-1.7-1.5-1.2 5.7 1.6 1.9z" fill="#29ffce"/><path d="m67 92.7999 8-1.0999 1.1 3.8999-7.9 1.4z" fill="#d1ff26"/><path d="m63.3 103 5.7-1.6.4 4.5-5.7 2z" fill="#9dff5a"/><path d="m10.9 78.7.7 3.2 2.2-5.8-.6-3.6z" fill="#ffc400"/><path d="m69.3 117.4-2.7 1.6-.8 7.6 2.6-1.1z" fill="#4dffaa"/><path d="m32.4 27 .9 6.4 5.7.9-.8-6.4z" fill="#920000"/><path d="m48.5 76.6999 9.6.3 2.4-.3-9.4-.3z" fill="#ffc100"/><path d="m14.9 86.2999 3.4 1.2 1.7-4.5-3.2-1.6z" fill="#feed00"/><path d="m59 116.9 1.4-2-.5 5.1-1.4 2.5z" fill="#5aff9d"/><path d="m22.5 36.4999.9 6.3 5.1-2.2-.8-6.3999z" fill="#c80000"/><path d="m72 92.8-1.4 4.2001.8 8.9999 1.4-3.8z" fill="#beff39"/><path d="m60.3 109.7 3.5-1.8v4.8l-3.5 2.3z" fill="#80ff77"/><path d="m35.5 78.7999 8.2.6 2.3-1.7-8-.8z" fill="#ffc800"/><path d="m71.5 106-2.2 2.9v8.4l2.2-2.5z" fill="#80ff77"/><path d="m65.4 88.8999 8.2-.6999 1.5 3.5999-8 1.1z" fill="#e7ff0f"/><path d="m11.6 81.9001 1.2 2.5 2.1-5.4-1-2.9z" fill="#ffd300"/><path d="m60 46.8.4 6 4.2 7.8001-.3-5.9z" fill="#ff3400"/><path d="m12.8 84.4 2.1 1.8 1.9-4.9-1.9-2.3z" fill="#ffde00"/><path d="m51 76.3999 9.4.3 2.4.4-9.2-.3z" fill="#ffb900"/><path d="m20 82.9999 4.8 1.1 2-3.5-4.7-1.3999z" fill="#ffd700"/><path d="m26.9 80.4999 6.5.9 2.2-2.6-6.3-1.0999z" fill="#fc0"/><path d="m12.8 68.0999.5 4.3 3-5.3-.3-4.7z" fill="#ff8600"/><path d="m62.4 98.2 5.8-1.2.8 4.4-5.7 1.6z" fill="#baff3c"/><path d="m38.3 27.8999.8 6.4 5.7 2.5-.7-6.4z" fill="#960000"/><path d="m63.5 85.2999 8.4-.4 1.7 3.2-8.2.7z" fill="#fbf100"/><path d="m59.4 118.5-.4-1.5-.5 5.6.4 2z" fill="#56ffa0"/><path d="m66.6 118.9-2.9.6-.7 7.1 2.8-.2z" fill="#4dffaa"/><path d="m18.8 46.5001.7 5.9 4.5-3.5-.5-6.1001z" fill="#ff1300"/><path d="m53.7 76.8 9.2.3001 2.4 1.1-9-.2z" fill="#ffbd00"/><path d="m68.1 69.2-.4 5.3999 2.6 8.9.5-5.1z" fill="#ffae00"/><path d="m55.1 40 .5 6.2 4.8 6.7-.4-6z" fill="#f10800"/><path d="m38 76.9001 8 .8 2.5-1-7.8-.9001z" fill="#ffb900"/><path d="m61.3 82.3001 8.5-.2 2 2.8-8.4.4z" fill="#ffdb00"/><path d="m15.5 57.2001.5 5.2 3.8-4.6001-.3-5.5z" fill="#ff4a00"/><path d="m56.3 78 9 .2 2.3 1.7h-8.7z" fill="#ffc100"/><path d="m58.9 79.8h8.7l2.2 2.3001-8.5.1999z" fill="#fc0"/><path d="m44.1 30.3999.7 6.4 5.6 4-.6-6.3z" fill="#a40000"/><path d="m59.8 104.3 3.5-1.3.5 4.9-3.5 1.8z" fill="#a0ff56"/><path d="m49.8 34.5.6 6.3 5.2 5.4-.5-6.2z" fill="#c40000"/><path d="m61.1 119.4-1.7-.9-.6 6.1 1.7 1.5z" fill="#53ffa4"/><path d="m58.9 111.1 1.4-1.4v5.3l-1.4 2z" fill="#80ff77"/><path d="m63.7 119.6-2.6-.2-.6 6.6 2.5.7z" fill="#50ffa7"/><path d="m61 93.5999 5.9-.7 1.2 4.2-5.8 1.2z" fill="#d7ff1f"/><path d="m16.8 81.3001 3.2 1.7 2.2-3.9-3-2z" fill="#ffc800"/><path d="m27.8 34.2.8 6.4 5.4-.7-.6-6.4z" fill="#ad0000"/><path d="m13.2 72.5001.6 3.6 2.8-5-.4-4z" fill="#ff9800"/><path d="m29.2 77.7001 6.3 1.1 2.5-1.9-6.1-1.3z" fill="#ffb600"/><path d="m69.3 108.9-2.7 2.1v8l2.7-1.6z" fill="#80ff77"/><path d="m40.7 75.8 7.8.9 2.6-.3-7.5-.9z" fill="#ffae00"/><path d="m22.2 79.1 4.7 1.4 2.4-2.8-4.4-1.7z" fill="#ffb900"/><path d="m70.2 83.6001-1.3 4.5 1.7 8.9 1.4-4.2z" fill="#f8f500"/><path d="m14.8 79.1001 1.9 2.3 2.4-4.2-1.7-2.6z" fill="#ffb600"/><path d="m13.8 76.1001 1 2.9 2.6-4.6-.8-3.3z" fill="#ffa700"/><path d="m70.6 97-2.1 3.4.8 8.6 2.2-2.9z" fill="#baff3c"/><path d="m59.3 89.2001 6.1-.4001 1.6 3.9001-5.9.7z" fill="#f1fc06"/><path d="m58.8 98.9999 3.6-.7999.9 4.8-3.5 1.3z" fill="#c1ff36"/><path d="m59.3 112.1-.4-1v5.8l.4 1.5z" fill="#80ff77"/><path d="m64.6 60.6001-.3 5.6 3.4 8.4.4-5.4z" fill="#ff7300"/><path d="m43.5 75.5 7.5.9 2.6.4-7.3-.8z" fill="#ffa700"/><path d="m16 62.5.3 4.7 3.6-4.3-.1-4.9z" fill="#ff5d00"/><path d="m58.4 105.2 1.4-.9.5 5.4-1.4 1.4z" fill="#a4ff53"/><path d="m23.4 42.8001.5 6.1 4.9-2.1-.3-6.2z" fill="#da0000"/><path d="m57.2 85.3999h6.3l1.9 3.5-6.1.4z" fill="#ffe200"/><path d="m31.9 75.5999 6.1 1.3 2.7-1.1-5.8-1.4z" fill="#ffa300"/><path d="m66.6 111-2.9 1.2v7.4l2.9-.6z" fill="#80ff77"/><path d="m33.4 33.3999.6 6.4 5.6.9-.4-6.4z" fill="#a40000"/><path d="m46.4 76 7.3.8 2.6 1.2-7-.7z" fill="#ffab00"/><path d="m19.2 77.0999 3 2 2.6-3.1-2.8-2.2999z" fill="#ffa700"/><path d="m61.1 112.5-1.8-.4v6.3l1.7.9z" fill="#80ff77"/><path d="m19.4 52.3999.3 5.5 4.3-3.3-.1-5.7z" fill="#ff2500"/><path d="m54.7 82 6.5.3 2.2 3h-6.3z" fill="#fc0"/><path d="m49.3 77.3 7 .7001 2.6 1.7999-6.8-.5z" fill="#ffae00"/><path d="m63.7 112.2-2.6.3v6.9l2.6.2z" fill="#80ff77"/><path d="m24.8 75.9999 4.4 1.7001 2.7-2.1001-4.2-1.8999z" fill="#ff9f00"/><path d="m52.1 79.3 6.8.5 2.4 2.5-6.5-.2999z" fill="#ffbd00"/><path d="m57.3 93.9 3.8-.4 1.4 4.6-3.6.8z" fill="#e1ff16"/><path d="m60.4 52.8999-.2 5.9 4.1 7.5.3-5.6z" fill="#ff3f00"/><path d="m16.2 67.1001.4 4 3.3-4-.1-4.3001z" fill="#ff6f00"/><path d="m67.6 74.6001-1.2 4.9 2.5 8.6 1.3-4.5z" fill="#ffb600"/><path d="m34.9 74.4 5.8 1.4 2.8-.3-5.5-1.5z" fill="#ff9800"/><path d="m17.4 74.5001 1.7 2.6 2.9-3.4-1.5-2.9001z" fill="#ff9400"/><path d="m68.5 100.4-2.7 2.5.8 8.1 2.7-2.1z" fill="#b7ff40"/><path d="m39.1 34.3.4 6.4001 5.6 2.4-.3-6.4z" fill="#a40000"/><path d="m58.7 105.7-.3-.4.6 5.9.4 1z" fill="#a7ff50"/><path d="m57.2 99.4 1.5-.4 1 5.3-1.4.9z" fill="#c7ff30"/><path d="m16.6 71.1001.8 3.3 3.1-3.7-.6-3.6z" fill="#ff8200"/><path d="m68.9 88.1001-2.1 3.8 1.6 8.4999 2.1-3.3999z" fill="#f1fc06"/><path d="m55.3 89.2 3.9.0999 1.8 4.3-3.8.4z" fill="#fbf100"/><path d="m55.6 46.2-.1 6.0999 4.6 6.5.2-5.9z" fill="#ff1300"/><path d="m28.6 40.5999.3 6.2 5.2-.7-.1-6.2z" fill="#c40000"/><path d="m44.8 36.8.3 6.4001 5.4 3.9-.1-6.2z" fill="#b60000"/><path d="m38 74.1001 5.5 1.5 2.9.5-5.2-1.4z" fill="#ff9400"/><path d="m27.8 73.6999 4.2 1.9 2.9-1.2-3.9-2z" fill="#ff8d00"/><path d="m22 73.7 2.8 2.2999 3-2.2999-2.5-2.5z" fill="#ff8d00"/><path d="m50.4 40.8.1 6.2001 5.1 5.2999.1-6.0999z" fill="#d10000"/><path d="m19.7 57.9001.1 4.9 4-3.1.2-5.1z" fill="#ff3800"/><path d="m60.4 105.5-1.7.2.6 6.4 1.8.4z" fill="#adff49"/><path d="m65.8 102.9-2.8 1.7.7 7.6 2.9-1.2z" fill="#b4ff43"/><path d="m53 84.8999 4.2.5 2.1 3.9-3.9-.1z" fill="#ffd300"/><path d="m23.9 48.9001.1 5.7 4.7-2 .2-5.8001z" fill="#f10800"/><path d="m41.2 74.6001 5.2 1.4 2.9 1.3-4.9-1.3z" fill="#ff9400"/><path d="m63 104.6-2.5.9.7 7 2.6-.3z" fill="#b1ff46"/><path d="m55.6 93.8 1.7.1001 1.5 5.1-1.5.4z" fill="#ebff0c"/><path d="m64.3 66.3-1.1 5.2001 3.2 8 1.2-4.9z" fill="#ff7e00"/><path d="m50.3 81.2 4.4.7999 2.4 3.4-4.2-.5z" fill="#ffb900"/><path d="m44.4 76 4.9 1.3 2.8 2-4.7-1.1z" fill="#ff9c00"/><path d="m57.5 99.3-.2.1001 1.1 5.7999.3.4z" fill="#ceff29"/><path d="m47.4 78.2 4.7 1.0999 2.6 2.7-4.4-.7999z" fill="#ffa700"/><path d="m20.5 70.8 1.5 2.9 3.2-2.5-1.2-3.2z" fill="#f70"/><path d="m31 72.3999 3.9 2 3.1-.4-3.6-2.1z" fill="#ff8200"/><path d="m19.8 62.7999.1 4.3 3.8-2.8999.1-4.5z" fill="#ff4a00"/><path d="m34 39.8999.1 6.2 5.3.8.1-6.2z" fill="#b60000"/><path d="m66.9 91.8999-2.6 3 1.5 8.0001 2.7-2.5z" fill="#ebff0c"/><path d="m20 67.0999.6 3.6001 3.5-2.7001-.3-3.7999z" fill="#ff6000"/><path d="m25.3 71.2001 2.5 2.5 3.2-1.3-2.2-2.6001z" fill="#f70"/><path d="m66.4 79.5-1.9 4.2 2.4 8.2 2.1-3.8z" fill="#ffc100"/><path d="m53.4 88.6001 1.9.6 1.9 4.8-1.7-.1z" fill="#ffe200"/><path d="m59.1 98.6001-1.6.7 1.2 6.3999 1.7-.2z" fill="#d7ff1f"/><path d="m60.2 58.7-.9 5.5 3.9 7.1999 1.1-5.1999z" fill="#ff4a00"/><path d="m34.4 72 3.6 2.1 3.2.5-3.3-2z" fill="#ff7a00"/><path d="m24 54.6-.2 5.1 4.4-1.9.4-5.3z" fill="#ff1a00"/><path d="m28.9 46.7999-.2 5.8 5-.6.4-5.7999z" fill="#da0000"/><path d="m55.7 93.2-.1.5999 1.7 5.6.2-.1z" fill="#f4f802"/><path d="m64.3 94.8999-2.8 2.2 1.4 7.5001 2.8-1.7z" fill="#e4ff13"/><path d="m39.5 40.7-.1 6.1999 5.3 2.3001.3-6.1001z" fill="#b00"/><path d="m50.9 83.8999 2.1 1 2.3 4.3-1.9-.6z" fill="#ffc100"/><path d="m61.5 97.1001-2.4 1.4 1.3 6.8999 2.5-.9z" fill="#deff19"/><path d="m24 68.1 1.2 3.2 3.5-1.5-.9-3.3z" fill="#ff6000"/><path d="m37.9 72.6001 3.3 2 3.2 1.4-3-1.9z" fill="#ff7e00"/><path d="m28.8 69.7 2.2 2.5999 3.4-.4-1.9-2.6999z" fill="#ff6c00"/><path d="m55.6 52.3-.7 5.8001 4.5 6.1999.9-5.5z" fill="#ff1e00"/><path d="m48 79.8 2.4 1.4001 2.7 3.7-2.1-1z" fill="#ffa700"/><path d="m45.1 43.1001-.3 6.1 5.2 3.7.5-6z" fill="#c80000"/><path d="m41.4 74.1001 3 1.9 3.1 2.2-2.7-1.7z" fill="#ff8600"/><path d="m23.9 59.7001-.1 4.5 4.1-1.8.4-4.6001z" fill="#ff3000"/><path d="m63.2 71.5-1.8 4.6 3.1 7.6 1.9-4.2z" fill="#ff8900"/><path d="m44.8 76.5 2.7 1.7 2.9 3-2.4-1.4z" fill="#ff9400"/><path d="m50.5 47-.5 6 4.9 5 .7-5.8z" fill="#e40000"/><path d="m64.5 83.7-2.5 3.5 2.3 7.6999 2.6-3z" fill="#ffc800"/><path d="m23.7 64.1999.3 3.8 3.8-1.6v-4z" fill="#ff4a00"/><path d="m53.3 87.5.1 1.1 2.1 5.2.1-.6z" fill="#ffd300"/><path d="m57.1 91.8999-1.4 1.3 1.8 6.1 1.6-.7z" fill="#feed00"/><path d="m34.1 46.1001-.4 5.8 5.1.8.7-5.8z" fill="#cd0000"/><path d="m32.5 69.3 1.9 2.7001 3.5.6-1.6-2.6z" fill="#ff6400"/><path d="m28.7 52.6-.4 5.3 4.7-.6.7-5.3z" fill="#f10800"/><path d="m62 87.2-2.6 2.6999 2.1 7.2 2.8-2.2z" fill="#ffd300"/><path d="m27.9 66.4.9 3.3 3.7-.4-.6-3.3z" fill="#ff5200"/><path d="m59.4 89.8999-2.3 2 2 6.7 2.4-1.4z" fill="#ffe200"/><path d="m50.5 82.3.4 1.6001 2.6 4.7-.1-1.1z" fill="#ffb200"/><path d="m59.3 64.2-1.6 5 3.7 6.8999 1.8-4.6z" fill="#ff5900"/><path d="m36.3 69.8999 1.6 2.6 3.5 1.5-1.2-2.5z" fill="#ff6400"/><path d="m28.3 57.7999-.4 4.6 4.4-.5.7-4.6999z" fill="#f20"/><path d="m54.6 85.7-1.2 1.7999 2.3 5.7001 1.4-1.3001z" fill="#ffc400"/><path d="m27.9 62.5v4l4-.5.3-4z" fill="#ff3800"/><path d="m61.4 76.1001-2.3 3.9 2.9 7.2 2.5-3.5z" fill="#ff9400"/><path d="m39.4 46.8999-.7 5.8 5.1 2.2.9-5.7z" fill="#d10000"/><path d="m47.3 77.8999.6 2 2.9 4.1-.4-1.6z" fill="#ff9400"/><path d="m40.1 71.6001 1.2 2.5 3.4 2.4-.9-2.3z" fill="#ff6c00"/><path d="m43.8 74.3.9 2.3001 3.2 3.3-.6-2z" fill="#ff7e00"/><path d="m54.8 58-1.4 5.3 4.2 5.9 1.6-5z" fill="#ff3000"/><path d="m31.9 66 .6 3.3 3.8.6-.2-3.3z" fill="#ff4a00"/><path d="m33.7 51.8999-.7 5.3 4.8.8 1-5.3z" fill="#e80000"/><path d="m44.7 49.2-.9 5.6999 4.9 3.6 1.2-5.5z" fill="#df0000"/><path d="m56.7 83.2-2.1 2.5 2.5 6.1999 2.3-2z" fill="#ffb200"/><path d="m49.9 53-1.2 5.5 4.7 4.8 1.4-5.3z" fill="#fa0f00"/><path d="m59.1 80-2.4 3.2 2.7 6.7 2.6-2.7z" fill="#ffa300"/><path d="m51.5 80.1001-1 2.2 2.8 5.1 1.2-1.8z" fill="#ff9f00"/><path d="m57.7 69.2-2.1 4.2999 3.5 6.5 2.3-3.9z" fill="#ff6800"/><path d="m32.2 61.8999-.3 4 4.2.7.6-4z" fill="#ff3000"/><path d="m36.1 66.6001.2 3.3 3.8 1.7.1-3.2z" fill="#ff4a00"/><path d="m32.9 57.2-.7 4.6999 4.5.7 1-4.6z" fill="#ff1a00"/><path d="m48.1 75.3-.7 2.6001 3.2 4.3999 1-2.1999z" fill="#ff7e00"/><path d="m38.7 52.7-1 5.2999 4.8 2.1 1.3-5.1z" fill="#ed0400"/><path d="m40.2 68.3999-.1 3.2 3.7 2.7.4-2.9z" fill="#f50"/><path d="m53.4 77.2-1.9 2.8999 3 5.6001 2.1-2.5z" fill="#ff8d00"/><path d="m44.3 71.3-.4 2.9001 3.5 3.5999.7-2.5999z" fill="#ff6800"/><path d="m55.6 73.6001-2.2 3.6 3.3 6 2.4-3.2z" fill="#ff7a00"/><path d="m53.4 63.3-1.8 4.7001 4 5.6 2.1-4.3001z" fill="#ff4300"/><path d="m36.7 62.7-.6 4 4.1 1.7999 1-3.7999z" fill="#ff3400"/><path d="m43.8 54.8999-1.3 5.1 4.7 3.4 1.6-4.9z" fill="#fa0f00"/><path d="m37.7 58-1 4.6 4.5 2 1.3-4.5z" fill="#ff1a00"/><path d="m48.8 58.5-1.6 4.9 4.4 4.5 1.8-4.7z" fill="#f20"/><path d="m49.6 72-1.6 3.3 3.5 4.8 1.9-2.9z" fill="#ff6800"/><path d="m51.6 68-1.9 4 3.7 5.2 2.2-3.6z" fill="#f50"/><path d="m41.2 64.6001-1 3.8 4 2.9 1.3-3.6z" fill="#ff3b00"/><path d="m45.5 67.7-1.3 3.5999 3.8 3.9001 1.6-3.3001z" fill="#ff4e00"/><path d="m42.5 60.1001-1.3 4.5 4.4 3.1 1.7-4.3z" fill="#ff2500"/><path d="m47.2 63.3999-1.7 4.3 4.1 4.2 1.9-4z" fill="#ff3800"/></svg>