<svg width="290" height="291" viewBox="0 0 290 291" fill="none" xmlns="http://www.w3.org/2000/svg">
<path d="M16.2135 171.715C17.9638 156.699 22.1093 142.42 28.6499 128.971C28.9263 128.418 28.5578 127.773 28.0051 127.681C19.2535 125.838 10.594 123.259 2.11881 120.035C0.736976 128.142 0 136.525 0 145.092C0 170.241 6.44854 193.917 17.6874 214.552C17.7795 214.736 18.0559 214.644 18.0559 214.46C15.2001 200.457 14.5553 185.994 16.2135 171.715Z" fill="#8DE995"/>
<path d="M41.9163 120.864C42.5612 120.956 42.9297 121.693 42.5612 122.246L40.0739 126.76C32.2435 141.039 27.2689 156.515 25.3344 172.821C22.9392 192.811 25.5186 213.078 32.5199 231.779C32.612 232.055 32.7963 232.239 33.0726 232.332C41.3636 235.28 49.9309 237.306 58.7747 238.135C48.5491 217.408 44.7721 193.732 48.1806 170.702C50.2073 156.976 54.6292 143.895 61.3541 131.827C55.0898 122.338 50.3916 112.297 47.2594 101.887C34.4545 100.597 21.8337 97.3729 9.85788 92.3983C7.55483 98.3862 5.62027 104.558 4.0542 110.915C14.6482 115.152 25.7029 118.192 36.8496 120.035L41.9163 120.864Z" fill="#8DE995"/>
<path d="M122.522 16.7662C134.498 18.6086 146.105 21.925 156.975 26.7154C157.528 26.9917 158.173 26.6233 158.265 26.0705C159.739 17.5953 161.858 9.39644 164.529 1.28971C158.173 0.46061 151.632 0 145 0C119.85 0 96.267 6.35642 75.6317 17.5953C75.4474 17.6874 75.5396 17.9638 75.7238 17.9638C91.1082 14.9238 106.953 14.4632 122.522 16.7662Z" fill="#8DE995"/>
<path d="M272.681 119.851C271.207 132.564 267.982 144.908 263.008 156.515C262.732 157.16 263.1 157.805 263.745 157.897C272.22 159.279 280.511 161.398 288.618 164.069C288.71 164.069 288.802 164.069 288.802 163.977C289.631 157.805 290 151.449 290 145C290 118.008 282.63 92.6748 269.733 71.0262C269.641 70.8419 269.364 70.934 269.364 71.2104C273.51 87.0554 274.615 103.545 272.681 119.851Z" fill="#8DE995"/>
<path d="M165.635 39.7966C165.543 40.4414 164.898 40.8099 164.346 40.5336L159.74 38.1384C147.764 31.9662 134.775 27.8207 121.233 25.794C99.8603 22.5698 78.0274 24.9649 58.0369 32.5189C54.9969 40.9021 52.9702 49.6536 52.1411 58.4973C72.9607 48.2718 96.5439 44.5869 119.574 47.9954C133.301 50.0221 146.382 54.5361 158.358 61.261C166.649 55.7337 175.492 51.404 184.705 48.2718C185.442 34.6378 188.39 21.0958 193.272 8.10663C187.008 5.8957 180.467 4.05326 173.834 2.76355C170.242 13.0812 167.754 23.6752 166.372 34.5456L165.635 39.7966Z" fill="#8DE995"/>
<path d="M107.23 160.66C105.941 124.917 121.601 90.3712 149.514 67.8013C149.791 67.617 149.699 67.1564 149.422 67.0643C139.565 62.1819 129.063 58.8655 118.101 57.2073C95.623 53.7987 72.5004 57.9442 52.5099 68.7225C51.8651 69.091 51.4966 69.7359 51.4966 70.3807C51.7729 91.6609 58.4057 112.941 71.9477 131.365C81.252 143.986 93.1357 154.12 106.493 161.305C106.862 161.305 107.23 161.029 107.23 160.66Z" fill="#8DE995"/>
<path d="M166.556 171.807C172.175 157.344 174.662 141.683 173.557 125.838C173.465 124.825 172.82 123.904 171.807 123.443C157.436 117.824 141.683 115.336 125.838 116.442C124.824 116.534 123.903 117.179 123.443 118.192C117.823 132.655 115.336 148.316 116.441 164.161C116.534 165.174 117.178 166.096 118.192 166.556C132.563 172.176 148.316 174.663 164.161 173.557C165.266 173.465 166.187 172.821 166.556 171.807Z" fill="#8DE995"/>
<path d="M161.121 183.599C161.305 183.323 161.029 182.862 160.66 182.955C159.371 183.047 157.989 183.047 156.699 183.047C122.338 183.047 89.4501 167.478 67.7093 140.671C67.525 140.394 67.0644 140.486 66.9723 140.763C62.0898 150.62 58.7734 161.122 57.1153 172.084C53.7067 194.838 57.9444 218.145 68.999 238.228C69.1832 238.504 69.4596 238.688 69.8281 238.688C79.2245 238.596 88.8052 237.306 98.1095 234.543C109.993 231.042 121.14 225.607 131.181 218.145C143.802 208.841 153.935 196.957 161.121 183.599Z" fill="#8DE995"/>
<path d="M158.911 72.0392C146.291 81.3435 136.249 93.2272 128.972 106.585C128.787 106.861 129.064 107.322 129.432 107.23C164.807 105.94 199.077 121.324 221.646 148.685C221.831 148.961 222.291 148.869 222.383 148.593C227.174 138.735 230.398 128.141 231.964 117.179C235.096 94.6091 231.135 72.4077 220.357 52.5093C219.988 51.8645 219.343 51.496 218.699 51.496C197.234 51.9566 176.507 59.05 158.911 72.0392Z" fill="#8DE995"/>
<path d="M250.204 165.359C249.559 165.267 249.19 164.622 249.467 164.069L251.77 159.463C258.034 146.75 261.995 133.116 263.653 118.837C266.141 98.0175 263.285 76.8295 255.547 57.576C255.455 57.2996 255.27 57.1154 254.994 57.0233C249.19 55.0887 243.202 53.6147 237.03 52.6935C235.096 52.4172 233.161 52.1408 231.226 51.9565C230.858 51.9565 230.582 52.325 230.766 52.6014C240.715 73.0525 244.308 95.5302 241.084 118.376C239.149 132.103 234.819 145.092 228.279 157.068C228.186 157.252 228.186 157.436 228.279 157.528C234.082 166.096 238.504 175.216 241.728 184.612C241.82 184.612 241.82 184.612 241.913 184.612C255.639 185.257 269.089 188.021 281.986 192.903C284.197 186.547 286.039 180.006 287.329 173.281C276.919 169.688 266.233 167.293 255.27 166.004L250.204 165.359Z" fill="#8DE995"/>
<path d="M182.954 129.432C184.151 164.714 168.951 198.892 141.683 221.554C141.407 221.738 141.499 222.199 141.775 222.291C151.632 227.081 162.226 230.305 173.281 231.871C195.759 235.003 217.96 230.95 237.674 220.264C238.319 219.895 238.687 219.251 238.687 218.606C238.135 197.786 231.502 176.967 218.236 159.095C208.932 146.474 197.048 136.341 183.691 129.155C183.23 128.787 182.862 129.063 182.954 129.432Z" fill="#8DE995"/>
<path d="M170.425 272.589C156.883 271.023 143.71 267.43 131.457 261.995C130.905 261.718 130.26 262.087 130.168 262.64C128.602 271.483 126.391 280.051 123.443 288.434C130.536 289.539 137.722 290.092 145.092 290.092C172.268 290.092 197.693 282.63 219.342 269.641C219.526 269.549 219.434 269.272 219.158 269.272C203.313 273.326 186.823 274.523 170.425 272.589Z" fill="#8DE995"/>
<path d="M122.891 248.914C122.983 248.269 123.628 247.9 124.273 248.177L128.971 250.664C142.236 257.481 156.607 261.811 171.531 263.561C192.443 266.048 213.631 263.1 233.069 255.27C235.832 247.163 237.583 238.688 238.32 230.121C222.567 237.951 205.524 241.912 188.021 241.912C182.678 241.912 177.335 241.544 171.992 240.807C158.174 238.872 145.092 234.542 133.024 228.002C123.996 234.174 114.231 238.964 103.914 242.281C103.914 242.557 103.914 242.926 103.822 243.018C103.085 256.191 100.413 269.088 95.7148 281.433C101.703 283.643 107.967 285.394 114.323 286.776C118.1 276.182 120.772 265.311 122.246 254.072L122.891 248.914Z" fill="#8DE995"/>
<path d="M87.2392 278.116C91.2926 267.43 93.6877 256.376 94.5168 244.86C86.0416 246.795 77.5664 247.808 69.0912 247.808C58.7735 247.808 48.548 246.426 38.6909 243.663C52.2328 258.218 68.7227 270.102 87.2392 278.116Z" fill="#8DE995"/>
<path d="M193.916 45.6004C208.287 42.0997 223.303 41.3627 238.319 43.5737C242.741 44.2185 247.07 45.1397 251.308 46.3373C237.49 31.5057 220.631 19.5298 201.654 11.4231C197.509 22.5699 194.837 34.0851 193.916 45.6004Z" fill="#8DE995"/>
<path d="M13.4487 84.0153C23.49 88.1608 34.0841 90.9245 44.7702 92.3984C44.0332 88.8978 43.4805 85.305 43.0199 81.7123C41.3617 67.3413 42.5593 52.6939 46.3363 38.7834C32.6101 51.4963 21.3712 66.8806 13.4487 84.0153Z" fill="#8DE995"/>
<path d="M243.663 251.401C258.586 237.491 270.654 220.54 278.761 201.379C267.706 197.141 256.283 194.746 244.4 193.917C249.098 212.986 248.729 232.792 243.663 251.401Z" fill="#8DE995"/>
</svg>
