<svg width="408" height="408" viewBox="0 0 408 408" fill="none" xmlns="http://www.w3.org/2000/svg">
<circle cx="204" cy="204" r="180" transform="rotate(-8 204 204)" fill="#5326EC"/>
<path d="M351.691 207.725C351.386 211.835 351.268 215.972 350.746 220.052C345.212 263.373 324.767 298.044 289.019 323.378C262.316 342.307 232.227 351.095 199.499 349.882C161.651 348.487 129.074 334.377 101.814 308.232C101.563 307.991 101.573 307.03 101.82 306.774C136.086 272.837 170.385 238.935 204.715 205.066C205.527 204.332 206.574 203.909 207.67 203.874C255.686 203.94 303.701 204.05 351.716 204.202L351.691 207.725Z" fill="#FCFCFF"/>
<path d="M208.926 57.4882C212.962 57.8041 217.006 57.9926 221.027 58.4357C244.572 61.0389 266.234 68.8359 286.015 81.8265C286.149 81.9275 286.277 82.0358 286.399 82.1509L273.812 94.5708C271.072 97.2741 268.35 99.9956 265.578 102.664C265.403 102.776 265.203 102.844 264.996 102.861C264.789 102.879 264.581 102.846 264.39 102.764C244.469 91.2786 222.998 85.9635 199.977 86.8194C148.471 88.7498 103.43 124.935 90.8828 174.684C83.116 205.507 87.2506 234.82 102.879 262.518C103.028 262.781 103.034 263.361 102.853 263.529C95.9929 270.361 89.1095 277.177 82.2025 283.974C82.1352 284.041 82.0517 284.095 81.8948 284.22C81.2511 283.22 80.6031 282.252 79.9938 281.264C63.1295 253.908 55.7555 224.205 58.3085 192.171C63.6296 125.578 113.655 71.1421 179.976 59.7285C186.682 58.5759 193.537 58.2967 200.32 57.6132L201.705 57.4693L208.926 57.4882Z" fill="#FCFCFF"/>
<path d="M283.001 145.937C283.037 139.854 285.189 133.969 289.092 129.283C292.995 124.598 298.407 121.401 304.406 120.237C310.406 119.073 316.623 120.014 321.998 122.899C327.374 125.785 331.576 130.437 333.89 136.064C336.203 141.691 336.486 147.945 334.688 153.761C332.891 159.577 329.125 164.596 324.031 167.964C318.938 171.331 312.832 172.84 306.752 172.232C300.672 171.624 294.995 168.937 290.687 164.629C288.233 162.172 286.291 159.255 284.972 156.048C283.653 152.84 282.983 149.404 283.001 145.937Z" fill="#FCFCFF"/>
</svg>
