<svg fill="none" height="80" viewBox="0 0 89 80" width="89" xmlns="http://www.w3.org/2000/svg"><path clip-rule="evenodd" d="m29.9049 2.09445c2.7926-2.7926 7.3203-2.7926 10.1129 0l23.3861 23.38615-9.4808 9.4809-18.9617-18.9617-18.9617 18.9617 9.4808 9.4807 9.4809-9.4807 9.4808 9.4807-9.4808 9.4809 14.2212 14.2212c2.6181 2.6181 2.6181 6.8629 0 9.481-2.618 2.618-6.8627 2.618-9.4808 0l-37.60737-37.6074c-2.792575-2.7926-2.792575-7.3204 0-10.113z" fill="#3ceaaa" fill-rule="evenodd"/><path clip-rule="evenodd" d="m48.8665 2.0944c2.7926-2.7926 7.3203-2.7925 10.1129.0001l27.8104 27.8104c2.7926 2.7926 2.7926 7.3203 0 10.1129l-37.2913 37.2913c-2.7926 2.7926-7.3203 2.7926-10.1129 0l-4.4244-4.4243 18.9617-18.9617-18.9617-18.9617 9.4809-9.4809 18.9617 18.9617 9.4808-9.4808-28.4425-28.4426z" fill="#03bce4" fill-rule="evenodd"/><path d="m44.4422 25.481-9.4808-9.4808-9.4808 9.4808 9.4808 9.4808z" fill="#029abb"/><path d="m63.4036 25.481-9.4808-9.4808-9.4808 9.4808 9.4808 9.4808z" fill="#3ceaaa" opacity=".95"/></svg>