<svg width="18" height="18" viewBox="0 0 18 18" fill="none" xmlns="http://www.w3.org/2000/svg">
<path d="M9 12.2308V15.6923C4.66669 15.6923 1.15385 12.1795 1.15385 7.84615C1.15385 3.51284 4.66669 0 9 0C6.19609 0 3.92308 2.27302 3.92308 5.07692C3.92308 6.65348 4.64169 8.0622 5.76924 8.99339C5.76923 8.9956 5.76923 8.9978 5.76923 9C5.76923 10.7843 7.2157 12.2308 9 12.2308Z" fill="#44F1A6"/>
<path d="M5.76923 9H2.30769C2.30769 4.66669 5.82054 1.15385 10.1538 1.15385C14.4872 1.15385 18 4.66669 18 9C18 6.19609 15.727 3.92308 12.9231 3.92308C11.3465 3.92308 9.9378 4.64169 9.00661 5.76924C9.00441 5.76923 9.0022 5.76923 9 5.76923C7.2157 5.76923 5.76923 7.2157 5.76923 9Z" fill="#44F1A6"/>
<path d="M9 5.76923L9 2.30769C13.3333 2.30769 16.8462 5.82054 16.8462 10.1538C16.8462 14.4872 13.3333 18 9 18C11.8039 18 14.0769 15.727 14.0769 12.9231C14.0769 11.3465 13.3583 9.9378 12.2308 9.00661C12.2308 9.0044 12.2308 9.0022 12.2308 9C12.2308 7.21569 10.7843 5.76923 9 5.76923Z" fill="#44F1A6"/>
<path d="M12.2308 9H15.6923C15.6923 13.3333 12.1795 16.8462 7.84615 16.8462C3.51284 16.8462 1.89415e-07 13.3333 0 9C1.22563e-07 11.8039 2.27302 14.0769 5.07692 14.0769C6.65348 14.0769 8.0622 13.3583 8.99339 12.2308C8.9956 12.2308 8.9978 12.2308 9 12.2308C10.7843 12.2308 12.2308 10.7843 12.2308 9Z" fill="#44F1A6"/>
</svg>
