<?xml version="1.0" encoding="UTF-8" ?>
<!DOCTYPE svg PUBLIC "-//W3C//DTD SVG 1.1//EN" "http://www.w3.org/Graphics/SVG/1.1/DTD/svg11.dtd">
<svg viewBox="0 0 400 400" version="1.1" xmlns="http://www.w3.org/2000/svg">
<path fill="#000000" stroke="#000000" stroke-width="0.09375" opacity="1.00" d=" M 261.33 35.39 C 265.36 30.33 271.36 26.51 278.01 26.66 C 289.16 25.92 299.14 32.75 306.15 40.81 C 310.46 47.26 314.69 54.14 315.95 61.94 C 318.18 72.73 314.59 83.80 309.24 93.12 C 306.04 99.89 301.69 106.09 296.18 111.18 C 297.99 115.07 300.87 118.38 302.47 122.39 C 306.16 130.05 305.84 139.19 310.56 146.40 C 313.54 149.45 317.10 151.89 320.12 154.93 C 328.79 163.97 334.58 175.56 336.86 187.87 C 338.29 192.49 337.02 197.28 337.60 201.98 C 338.03 205.58 337.36 209.35 335.51 212.49 C 333.93 213.56 331.79 213.74 330.01 213.11 C 328.03 211.68 326.58 209.67 324.92 207.92 C 323.77 223.54 318.43 239.22 308.23 251.28 C 305.05 255.43 301.79 259.53 298.50 263.60 C 297.09 265.43 294.29 265.32 292.34 264.57 C 290.04 263.71 290.16 260.94 289.59 258.98 C 285.45 261.35 279.91 261.69 277.13 266.00 C 268.45 277.00 255.98 285.43 242.01 287.71 C 242.82 290.71 243.89 293.80 243.32 296.95 C 243.09 299.76 241.63 302.57 242.54 305.40 C 243.53 310.61 247.68 314.88 252.62 316.58 C 260.24 319.70 268.75 320.08 276.08 323.97 C 289.58 330.57 300.02 342.91 304.77 357.12 C 309.23 371.11 312.80 385.42 314.66 400.00 L 309.44 400.00 C 307.92 392.11 306.80 384.11 304.50 376.39 C 304.07 374.35 301.87 373.51 300.03 373.29 C 296.12 372.67 292.51 374.65 288.85 375.65 C 282.93 377.35 276.83 378.85 270.62 378.57 C 272.95 376.17 276.13 374.89 278.57 372.63 C 285.59 366.17 291.31 358.43 295.58 349.91 C 293.17 345.13 289.75 340.90 285.70 337.41 C 284.03 335.83 281.48 336.12 279.44 336.62 C 276.87 337.49 275.70 340.15 274.18 342.18 C 270.31 348.09 265.68 353.75 259.28 357.03 C 259.47 353.06 262.38 349.97 263.14 346.14 C 264.72 339.23 262.79 332.23 262.33 325.31 C 256.49 323.48 250.21 322.41 245.16 318.73 C 241.53 316.23 239.46 312.24 237.09 308.65 C 238.06 303.76 239.22 298.90 240.08 293.99 C 240.10 292.09 237.91 289.19 235.89 290.80 C 233.55 293.31 234.46 297.52 232.18 300.16 C 228.62 304.36 224.66 308.29 221.77 313.02 C 225.01 312.81 228.23 312.39 231.43 311.84 L 231.19 312.81 C 230.15 313.21 229.10 313.58 228.05 313.92 C 225.33 314.66 222.50 314.48 219.74 314.14 C 220.43 310.79 223.06 308.51 225.14 306.00 C 228.76 301.85 231.25 296.53 231.57 291.01 C 231.73 287.56 228.53 285.29 227.93 282.10 C 228.52 281.99 229.70 281.77 230.29 281.66 C 236.17 283.40 242.48 282.71 248.16 280.62 C 258.16 277.21 266.86 270.49 273.29 262.19 C 279.98 253.22 280.83 241.22 288.00 232.57 C 287.39 234.84 286.45 237.00 285.37 239.09 C 283.01 243.16 281.52 247.83 282.65 252.56 C 285.76 252.56 289.23 252.46 291.66 250.22 C 293.19 250.65 294.71 251.09 296.24 251.54 C 296.34 253.40 296.38 255.28 296.45 257.15 C 299.56 253.65 302.31 249.86 305.25 246.23 C 311.80 238.50 315.36 228.75 317.84 219.06 C 319.30 212.50 321.03 205.07 317.07 199.02 C 322.87 199.74 327.99 202.74 332.07 206.84 C 332.39 203.95 332.52 201.04 332.43 198.14 C 330.11 197.88 327.74 197.64 325.66 196.53 C 327.96 196.39 330.28 196.40 332.60 196.44 C 332.02 192.36 331.23 188.31 330.53 184.25 C 326.79 190.56 319.88 194.33 312.84 195.73 C 308.16 196.56 303.10 198.36 298.50 196.30 C 303.49 193.14 309.11 190.58 312.81 185.79 C 316.78 180.74 322.09 176.42 323.86 169.98 C 317.28 173.47 312.22 179.06 306.79 184.03 C 307.37 182.61 308.01 181.15 309.19 180.11 C 313.53 176.03 318.05 172.12 322.99 168.77 C 322.67 167.81 322.35 166.85 322.03 165.89 C 321.22 166.85 320.40 167.81 319.57 168.76 C 319.69 166.97 319.93 165.17 319.67 163.39 C 318.41 160.80 315.96 159.11 313.86 157.26 C 311.95 161.12 310.58 165.36 307.62 168.59 C 304.96 171.49 301.93 174.06 299.61 177.26 C 303.21 176.92 306.78 175.94 309.81 173.90 C 312.71 172.24 315.23 169.39 318.83 169.44 C 311.33 176.34 301.16 180.41 290.93 179.87 C 300.83 174.84 309.34 166.39 312.65 155.59 C 310.19 152.95 306.44 151.43 305.12 147.85 C 303.78 144.76 302.68 141.57 301.73 138.35 C 299.96 132.35 299.08 125.91 295.60 120.58 C 292.94 116.38 290.33 112.14 287.20 108.27 C 287.22 107.88 287.26 107.11 287.28 106.72 C 287.76 107.16 288.72 108.05 289.20 108.49 C 296.46 105.57 300.31 98.26 303.90 91.80 C 308.74 83.15 312.81 73.11 310.73 63.05 C 309.62 56.56 306.23 50.80 302.73 45.33 C 300.22 41.50 296.42 38.81 292.72 36.23 C 287.34 32.40 280.24 31.27 273.87 32.81 C 269.94 33.65 267.18 36.78 264.67 39.67 C 259.05 46.00 256.32 54.20 253.60 62.05 C 251.61 67.30 249.21 72.66 244.78 76.32 C 249.22 77.70 253.47 79.63 257.98 80.79 C 257.67 81.19 257.06 81.99 256.75 82.39 C 252.95 80.14 248.76 78.63 244.42 77.88 C 240.26 77.06 236.08 76.39 231.86 76.03 C 233.88 79.20 235.76 82.55 236.43 86.30 L 236.66 87.71 C 236.14 87.43 235.10 86.85 234.58 86.56 C 232.29 85.33 230.04 83.87 227.46 83.35 C 225.44 82.94 222.73 84.00 222.61 86.32 C 222.24 90.33 222.27 94.37 221.73 98.36 C 220.61 103.73 219.38 109.20 216.39 113.88 C 213.75 109.40 212.76 103.84 208.72 100.29 C 204.43 96.15 199.39 92.88 193.93 90.50 C 199.87 90.30 204.55 94.69 208.86 98.19 C 212.89 101.35 214.12 106.50 216.86 110.60 C 220.43 103.19 221.36 94.59 219.65 86.56 C 218.94 83.44 216.50 81.19 214.88 78.55 C 221.77 80.18 228.57 82.10 235.04 85.04 C 233.59 79.13 228.64 75.14 223.42 72.59 C 217.17 69.14 209.51 68.37 202.75 70.70 C 205.71 65.84 209.09 60.88 209.35 55.00 C 210.19 47.31 207.45 38.06 200.18 34.33 C 198.87 44.78 191.92 53.54 183.72 59.70 C 177.91 64.53 170.81 67.41 163.69 69.70 C 155.88 72.13 147.64 73.02 139.97 75.94 C 137.51 76.80 135.44 78.43 133.59 80.21 C 134.60 83.92 134.72 88.17 132.21 91.34 C 131.49 87.89 131.66 83.73 128.72 81.24 C 125.57 79.32 121.91 78.34 118.97 76.04 C 114.93 73.48 112.22 69.42 108.46 66.54 C 103.08 62.81 96.75 59.94 90.07 60.24 C 84.25 60.23 78.77 62.65 73.91 65.68 C 69.28 68.53 66.72 73.54 63.66 77.85 C 57.76 86.68 55.09 97.20 54.59 107.72 C 56.51 108.08 58.43 108.44 60.35 108.80 C 60.60 110.72 60.85 112.65 61.10 114.58 C 58.89 114.43 56.68 114.30 54.46 114.21 C 54.55 117.44 54.71 120.67 55.01 123.89 C 56.89 123.74 58.78 123.59 60.67 123.42 C 61.26 125.06 61.71 126.75 62.09 128.45 C 60.11 128.82 58.13 129.20 56.16 129.60 C 60.04 147.78 76.60 163.49 95.58 163.98 C 95.55 160.55 95.55 157.12 95.52 153.69 C 86.79 153.40 79.40 147.50 74.11 141.00 C 66.56 130.82 65.32 117.29 67.21 105.09 C 68.38 98.40 69.10 91.06 73.71 85.69 C 76.72 82.14 80.17 78.30 84.95 77.36 C 90.28 75.91 96.05 78.39 99.59 82.43 C 103.43 86.62 107.22 90.88 110.62 95.45 C 112.65 97.81 114.72 100.64 117.94 101.33 C 121.12 102.10 124.25 100.95 127.04 99.50 C 126.85 99.97 126.49 100.91 126.30 101.38 C 122.45 103.03 118.22 102.78 114.31 101.48 C 102.58 102.34 92.05 96.49 81.30 92.84 C 81.59 97.88 82.94 102.91 85.68 107.18 C 87.55 110.21 90.86 111.83 93.36 114.26 C 89.79 115.33 86.14 116.10 82.54 117.05 C 86.02 120.20 90.90 120.52 95.17 121.92 C 90.80 123.70 87.22 127.04 85.92 131.68 C 87.84 130.78 89.72 129.76 91.72 129.02 C 94.77 128.67 98.22 127.72 100.89 129.81 C 100.25 132.30 99.81 134.83 99.47 137.38 C 98.06 142.83 97.36 148.43 96.81 154.03 C 96.12 160.82 98.08 167.62 97.08 174.41 C 96.47 177.83 94.85 180.94 93.37 184.05 C 94.14 185.21 94.90 186.37 95.72 187.51 C 97.20 189.27 99.00 190.74 100.89 192.06 C 105.91 195.44 110.66 199.31 116.29 201.69 C 123.95 205.13 131.49 209.56 140.03 210.24 C 143.02 210.62 146.20 210.17 148.99 211.53 C 131.16 218.61 110.85 222.50 92.30 215.73 C 89.24 213.92 85.56 214.76 84.06 218.11 C 85.96 218.43 87.87 218.72 89.78 218.99 C 91.94 219.26 94.10 219.65 96.14 220.46 C 94.82 220.47 93.50 220.45 92.19 220.41 C 89.29 220.07 86.41 219.72 83.50 219.51 C 83.69 223.81 84.33 228.10 85.64 232.22 C 87.74 231.69 89.84 231.17 91.93 230.61 C 93.46 230.19 94.99 229.74 96.52 229.30 C 99.00 228.60 101.51 228.00 104.05 227.51 C 107.83 226.83 111.56 225.89 115.38 225.45 C 112.52 228.14 108.09 227.37 104.58 228.72 C 98.35 230.32 91.97 231.39 86.02 233.94 C 87.80 238.87 89.48 244.13 92.98 248.13 C 97.22 243.90 99.22 237.99 102.11 232.84 C 102.63 234.69 103.12 236.55 103.62 238.41 C 105.01 239.16 106.39 239.92 107.80 240.65 C 108.37 240.89 109.51 241.37 110.08 241.61 C 115.91 238.70 120.85 234.00 127.26 232.24 C 125.91 234.01 123.77 234.81 121.88 235.85 C 118.34 237.70 115.06 240.01 111.77 242.27 C 120.96 246.15 131.19 246.58 141.02 246.11 C 150.34 245.70 159.28 242.58 167.59 238.52 C 169.86 237.34 172.35 236.67 174.90 236.44 C 168.46 250.15 153.23 256.82 139.26 260.12 C 134.52 260.65 129.84 261.79 125.05 261.75 C 123.04 261.76 121.01 261.70 119.05 262.20 L 117.97 262.46 C 117.21 264.51 116.33 267.12 118.06 268.95 C 122.15 273.55 126.86 277.94 132.68 280.20 C 132.52 279.66 132.20 278.58 132.03 278.04 C 132.08 276.19 132.20 274.35 132.31 272.52 C 133.28 271.91 134.26 271.30 135.24 270.69 C 149.81 283.70 170.12 288.44 189.26 288.16 C 187.99 285.94 186.68 283.74 185.44 281.50 C 194.78 284.51 206.06 287.39 214.78 281.21 L 214.61 279.65 C 211.76 276.56 207.50 275.63 203.77 274.03 C 199.49 272.17 194.94 271.05 190.68 269.16 C 195.99 269.10 200.72 271.75 205.57 273.51 C 211.62 275.76 217.41 278.82 223.81 280.00 C 224.84 280.28 225.50 280.85 225.81 281.72 C 214.24 286.66 201.13 287.67 188.98 284.35 C 190.22 285.96 191.48 287.56 192.72 289.18 C 182.40 290.61 171.87 287.50 161.68 289.96 C 164.18 293.77 167.34 297.06 170.30 300.52 C 174.53 305.23 178.12 310.45 182.10 315.36 C 181.60 315.17 180.62 314.79 180.12 314.61 C 172.59 304.55 164.40 295.00 155.87 285.79 C 155.27 285.65 154.07 285.38 153.47 285.24 C 151.68 288.29 154.01 291.19 155.89 293.49 C 155.81 294.05 155.67 295.16 155.60 295.71 C 155.85 295.96 156.35 296.44 156.60 296.68 L 156.10 296.80 C 154.15 296.94 153.40 299.18 153.41 300.85 C 153.96 303.36 155.84 305.28 157.22 307.37 C 156.89 307.55 156.22 307.91 155.89 308.09 C 153.84 305.68 152.76 302.39 149.96 300.68 C 149.82 304.82 146.16 307.21 143.73 310.09 C 145.72 311.29 147.75 312.42 149.80 313.51 C 149.47 313.86 148.81 314.54 148.48 314.89 C 144.82 314.28 140.92 313.79 137.40 315.32 C 130.72 318.02 123.95 320.53 116.88 322.05 C 117.31 324.00 117.73 325.97 118.48 327.83 C 121.76 333.67 126.19 338.79 131.34 343.07 C 127.97 343.38 124.60 343.64 121.22 343.55 L 120.95 341.98 C 122.96 342.02 124.97 341.93 126.98 341.84 C 123.28 337.69 119.77 333.32 117.16 328.38 C 116.26 326.66 115.45 324.89 114.64 323.13 C 108.66 325.05 102.03 324.82 96.58 328.23 C 98.24 331.04 100.93 332.90 103.33 335.02 C 103.32 335.45 103.30 336.31 103.28 336.74 C 99.64 333.68 94.99 330.91 90.03 331.94 C 84.06 332.72 79.12 337.02 76.17 342.07 C 76.60 343.53 77.30 344.90 78.00 346.26 C 77.61 346.31 76.84 346.42 76.45 346.47 C 75.77 345.68 75.08 344.90 74.40 344.11 C 70.90 351.57 64.31 357.53 62.75 365.84 C 65.65 367.83 68.86 369.55 71.21 372.20 C 71.24 372.63 71.31 373.49 71.35 373.91 C 68.89 372.92 66.67 369.50 63.80 370.63 C 59.52 374.91 58.05 381.18 57.16 386.96 C 57.95 391.95 61.41 396.14 64.50 400.00 L 48.30 400.00 C 49.28 394.65 50.42 389.32 51.85 384.07 C 55.57 371.65 58.79 358.83 65.73 347.72 C 70.02 340.97 74.22 333.68 81.14 329.28 C 94.08 320.15 110.32 318.95 124.96 314.00 C 135.67 311.51 143.45 302.93 149.52 294.29 C 147.90 291.54 147.76 288.33 147.72 285.23 C 144.74 283.99 141.84 282.55 139.04 280.95 C 137.75 282.45 136.62 284.17 134.90 285.22 C 132.80 285.91 130.36 285.78 128.44 284.63 C 121.31 280.65 115.47 274.77 110.42 268.44 C 105.79 262.09 103.01 254.65 100.35 247.33 C 98.90 249.84 97.66 252.85 94.87 254.16 C 92.40 255.26 89.65 253.83 88.34 251.66 C 83.62 244.53 80.84 236.29 78.86 228.03 C 77.86 218.20 77.21 207.88 80.72 198.43 C 83.17 191.87 86.16 185.52 89.52 179.39 C 91.17 176.31 91.65 172.81 92.06 169.40 C 86.95 168.44 81.72 167.41 77.16 164.75 C 73.66 162.68 70.31 160.36 67.04 157.95 C 63.60 155.37 61.27 151.70 58.82 148.25 C 56.43 148.05 53.94 148.21 51.66 147.38 C 45.39 144.81 42.04 136.96 44.31 130.62 C 40.56 126.35 39.27 120.28 41.08 114.88 C 42.71 110.84 46.28 108.08 49.45 105.27 C 49.70 93.52 54.03 82.24 60.64 72.64 C 63.52 68.63 66.11 64.13 70.43 61.50 C 74.95 58.79 79.66 56.12 84.94 55.27 C 94.63 53.24 104.58 56.89 112.32 62.64 C 115.89 65.40 118.38 69.35 122.21 71.81 C 124.58 73.44 127.31 74.42 129.98 75.45 C 134.00 72.74 138.28 70.28 143.04 69.14 C 155.00 66.06 167.74 64.21 178.18 57.12 C 183.24 53.26 188.31 49.08 191.45 43.43 C 193.40 40.32 193.95 36.65 195.31 33.30 C 196.18 31.00 198.33 28.98 200.94 29.21 C 204.80 29.28 207.35 32.73 209.55 35.47 C 215.87 43.35 215.87 54.52 212.97 63.76 C 217.75 64.53 222.55 65.70 226.71 68.27 C 230.66 70.86 235.58 70.67 240.09 71.30 C 244.02 71.67 245.19 67.23 246.67 64.50 C 250.77 54.48 253.52 43.36 261.33 35.39 M 83.10 79.01 C 79.64 80.72 77.17 83.83 74.67 86.67 C 70.54 91.44 69.97 98.00 68.94 103.96 C 67.44 115.65 67.18 128.62 74.12 138.77 C 79.17 145.70 86.66 151.61 95.40 152.63 C 96.86 145.77 97.45 138.74 96.28 131.79 C 91.87 128.62 87.75 132.58 84.25 135.03 C 84.10 129.98 87.29 125.78 90.40 122.13 C 86.72 120.75 81.58 120.17 79.85 116.14 C 83.29 115.32 86.77 114.69 90.20 113.82 C 83.21 108.51 79.40 99.65 80.24 90.92 C 87.34 92.89 93.78 96.95 101.03 98.48 C 102.97 98.60 105.38 98.50 106.59 96.73 C 107.29 91.57 102.37 88.16 99.65 84.41 C 95.89 79.39 89.13 76.80 83.10 79.01 M 45.82 122.05 C 46.11 125.39 49.23 127.03 51.45 129.05 C 50.90 129.71 49.79 131.04 49.24 131.71 C 48.75 133.83 48.65 136.01 48.59 138.18 C 50.31 139.94 51.72 142.11 53.72 143.68 C 53.63 143.39 53.47 142.81 53.39 142.51 C 55.51 142.38 60.30 143.61 58.50 139.88 C 56.63 139.56 54.72 139.50 52.83 139.38 C 51.47 136.96 50.55 133.83 52.23 131.32 C 53.87 128.20 57.48 127.02 60.82 127.15 C 60.06 123.18 55.02 125.59 53.13 127.32 C 49.39 125.13 46.82 120.27 49.15 116.19 C 51.29 112.53 55.84 111.60 59.72 112.59 C 59.57 111.89 59.27 110.48 59.12 109.77 C 52.09 107.35 44.14 114.85 45.82 122.05 M 313.88 186.82 C 311.60 190.47 307.45 192.07 304.62 195.15 C 309.11 195.22 313.50 194.01 317.76 192.70 C 320.97 191.50 324.95 189.20 324.33 185.16 C 323.45 185.08 321.68 184.92 320.80 184.84 C 321.93 183.80 323.08 182.80 324.27 181.83 C 324.40 179.77 324.32 177.70 324.05 175.66 C 320.14 178.85 317.44 183.25 313.88 186.82 M 95.11 190.05 C 92.54 197.63 89.49 205.33 89.33 213.43 C 106.02 219.71 124.66 218.68 141.21 212.50 C 137.21 211.00 132.77 211.06 128.90 209.13 C 121.20 205.66 112.98 202.95 106.28 197.65 C 102.66 194.97 98.95 192.41 95.11 190.05 M 101.09 237.23 C 99.49 240.18 104.42 237.46 101.09 237.23 M 145.95 247.22 C 137.45 248.04 128.80 248.01 120.39 246.47 C 116.82 245.85 113.48 244.29 109.86 243.96 C 111.42 249.36 112.59 255.33 116.22 259.74 C 128.21 261.65 140.55 258.95 151.73 254.57 C 159.34 251.09 167.33 246.58 171.41 238.96 C 163.04 242.02 154.95 246.28 145.95 247.22 M 264.01 325.89 C 264.07 331.27 265.66 336.55 265.30 341.95 C 265.10 345.53 263.72 348.89 262.91 352.35 C 265.81 351.30 267.40 348.52 269.30 346.29 C 272.80 341.73 276.32 336.94 277.95 331.36 C 273.44 329.23 269.02 326.62 264.01 325.89 M 288.45 364.42 C 285.20 368.70 280.78 371.91 277.61 376.25 C 284.86 375.88 291.72 373.16 298.40 370.53 C 299.78 369.79 302.58 369.24 301.69 367.05 C 300.02 362.11 299.41 356.48 296.00 352.36 C 293.62 356.46 291.53 360.77 288.45 364.42 Z" />
<path fill="#ffa400" stroke="#ffa400" stroke-width="0.09375" opacity="1.00" d=" M 273.87 32.81 C 280.24 31.27 287.34 32.40 292.72 36.23 C 296.42 38.81 300.22 41.50 302.73 45.33 C 306.23 50.80 309.62 56.56 310.73 63.05 C 312.81 73.11 308.74 83.15 303.90 91.80 C 300.31 98.26 296.46 105.57 289.20 108.49 C 288.72 108.05 287.76 107.16 287.28 106.72 L 287.34 105.77 C 295.94 96.66 302.34 84.77 302.63 72.02 C 302.97 64.40 301.09 56.07 295.32 50.70 C 292.24 47.69 288.51 44.53 283.92 44.78 C 279.62 45.36 276.78 49.01 273.96 51.93 C 268.65 57.78 268.71 66.25 265.08 72.97 C 263.39 76.14 260.27 78.11 257.98 80.79 C 253.47 79.63 249.22 77.70 244.78 76.32 C 249.21 72.66 251.61 67.30 253.60 62.05 C 256.32 54.20 259.05 46.00 264.67 39.67 C 267.18 36.78 269.94 33.65 273.87 32.81 Z" />
<path fill="#ffa400" stroke="#ffa400" stroke-width="0.09375" opacity="1.00" d=" M 200.18 34.33 C 207.45 38.06 210.19 47.31 209.35 55.00 C 209.09 60.88 205.71 65.84 202.75 70.70 C 209.51 68.37 217.17 69.14 223.42 72.59 C 228.64 75.14 233.59 79.13 235.04 85.04 C 228.57 82.10 221.77 80.18 214.88 78.55 C 216.50 81.19 218.94 83.44 219.65 86.56 C 221.36 94.59 220.43 103.19 216.86 110.60 C 214.12 106.50 212.89 101.35 208.86 98.19 C 204.55 94.69 199.87 90.30 193.93 90.50 C 199.39 92.88 204.43 96.15 208.72 100.29 C 212.76 103.84 213.75 109.40 216.39 113.88 C 219.38 109.20 220.61 103.73 221.73 98.36 C 225.01 93.39 230.32 90.54 234.58 86.56 C 235.10 86.85 236.14 87.43 236.66 87.71 L 236.43 86.30 C 236.78 81.76 243.21 82.22 244.42 77.88 C 248.76 78.63 252.95 80.14 256.75 82.39 C 257.69 82.90 258.64 83.41 259.62 83.87 C 266.72 87.37 273.84 91.39 279.16 97.38 C 280.39 98.66 281.73 99.85 283.06 101.04 C 283.21 101.51 283.50 102.46 283.64 102.94 C 284.49 104.92 285.86 106.60 287.20 108.27 C 290.33 112.14 292.94 116.38 295.60 120.58 C 299.08 125.91 299.96 132.35 301.73 138.35 C 301.35 138.38 300.58 138.45 300.20 138.49 C 297.79 136.61 295.95 134.10 293.52 132.24 C 292.17 127.31 288.87 123.26 285.50 119.54 C 282.37 116.02 277.69 114.01 272.97 114.23 C 265.03 114.10 258.07 119.53 253.88 125.90 C 245.90 140.90 248.07 161.49 260.72 173.32 C 262.15 174.89 263.95 176.06 265.89 176.91 C 265.31 176.10 264.14 174.49 263.55 173.69 C 266.49 170.96 270.47 172.84 273.95 172.97 C 280.08 173.74 285.85 171.00 291.11 168.21 C 299.14 164.47 301.71 155.03 303.30 147.06 C 303.75 147.26 304.67 147.65 305.12 147.85 C 306.44 151.43 310.19 152.95 312.65 155.59 C 309.34 166.39 300.83 174.84 290.93 179.87 C 301.16 180.41 311.33 176.34 318.83 169.44 C 319.07 169.21 319.32 168.99 319.57 168.76 C 320.40 167.81 321.22 166.85 322.03 165.89 C 322.35 166.85 322.67 167.81 322.99 168.77 C 318.05 172.12 313.53 176.03 309.19 180.11 C 308.01 181.15 307.37 182.61 306.79 184.03 C 312.22 179.06 317.28 173.47 323.86 169.98 C 322.09 176.42 316.78 180.74 312.81 185.79 C 309.11 190.58 303.49 193.14 298.50 196.30 C 303.10 198.36 308.16 196.56 312.84 195.73 C 313.42 195.81 314.58 195.97 315.16 196.05 C 315.48 208.83 312.01 221.33 307.02 232.99 L 306.64 233.84 C 305.52 235.62 304.25 237.74 302.01 238.17 C 300.15 237.80 298.49 236.87 296.79 236.09 C 294.55 237.90 292.60 240.17 289.96 241.42 C 287.96 242.12 286.60 240.30 285.37 239.09 C 286.45 237.00 287.39 234.84 288.00 232.57 C 280.83 241.22 279.98 253.22 273.29 262.19 C 266.86 270.49 258.16 277.21 248.16 280.62 C 242.48 282.71 236.17 283.40 230.29 281.66 C 228.18 280.94 226.01 280.38 223.81 280.00 C 217.41 278.82 211.62 275.76 205.57 273.51 C 200.72 271.75 195.99 269.10 190.68 269.16 C 194.94 271.05 199.49 272.17 203.77 274.03 C 207.50 275.63 211.76 276.56 214.61 279.65 C 209.75 280.33 204.86 280.96 199.95 281.13 C 193.37 281.34 186.95 279.23 180.36 279.64 C 180.60 281.09 180.83 282.55 181.07 284.02 C 174.48 283.62 168.53 280.63 162.35 278.64 C 150.73 275.17 139.48 269.86 129.96 262.31 C 133.14 261.95 136.27 261.26 139.26 260.12 C 153.23 256.82 168.46 250.15 174.90 236.44 C 172.35 236.67 169.86 237.34 167.59 238.52 C 159.28 242.58 150.34 245.70 141.02 246.11 C 131.19 246.58 120.96 246.15 111.77 242.27 C 115.06 240.01 118.34 237.70 121.88 235.85 C 123.77 234.81 125.91 234.01 127.26 232.24 C 120.85 234.00 115.91 238.70 110.08 241.61 C 109.51 241.37 108.37 240.89 107.80 240.65 C 106.60 236.71 105.35 232.77 104.58 228.72 C 108.09 227.37 112.52 228.14 115.38 225.45 C 111.56 225.89 107.83 226.83 104.05 227.51 C 103.69 225.54 103.32 223.57 102.94 221.61 C 99.84 223.23 97.92 226.19 96.52 229.30 C 94.99 229.74 93.46 230.19 91.93 230.61 C 91.12 227.47 90.36 224.31 90.00 221.08 C 90.54 220.92 91.64 220.58 92.19 220.41 C 93.50 220.45 94.82 220.47 96.14 220.46 C 94.10 219.65 91.94 219.26 89.78 218.99 C 89.51 217.94 89.24 216.91 88.97 215.87 C 89.80 215.83 91.47 215.76 92.30 215.73 C 110.85 222.50 131.16 218.61 148.99 211.53 C 146.20 210.17 143.02 210.62 140.03 210.24 C 131.49 209.56 123.95 205.13 116.29 201.69 C 110.66 199.31 105.91 195.44 100.89 192.06 C 99.00 190.74 97.20 189.27 95.72 187.51 C 99.25 181.91 102.30 175.73 102.32 168.95 C 102.57 158.37 100.66 147.87 99.47 137.38 C 99.81 134.83 100.25 132.30 100.89 129.81 C 102.57 124.52 104.74 119.36 107.74 114.68 C 109.51 111.72 111.93 109.08 112.90 105.70 C 113.39 104.30 113.85 102.88 114.31 101.48 C 118.22 102.78 122.45 103.03 126.30 101.38 C 126.49 100.91 126.85 99.97 127.04 99.50 C 124.25 100.95 121.12 102.10 117.94 101.33 C 114.72 100.64 112.65 97.81 110.62 95.45 C 107.22 90.88 103.43 86.62 99.59 82.43 C 96.05 78.39 90.28 75.91 84.95 77.36 C 80.17 78.30 76.72 82.14 73.71 85.69 C 69.10 91.06 68.38 98.40 67.21 105.09 C 65.32 117.29 66.56 130.82 74.11 141.00 C 79.40 147.50 86.79 153.40 95.52 153.69 C 95.55 157.12 95.55 160.55 95.58 163.98 C 76.60 163.49 60.04 147.78 56.16 129.60 C 58.13 129.20 60.11 128.82 62.09 128.45 C 61.71 126.75 61.26 125.06 60.67 123.42 C 58.78 123.59 56.89 123.74 55.01 123.89 C 54.71 120.67 54.55 117.44 54.46 114.21 C 56.68 114.30 58.89 114.43 61.10 114.58 C 60.85 112.65 60.60 110.72 60.35 108.80 C 58.43 108.44 56.51 108.08 54.59 107.72 C 55.09 97.20 57.76 86.68 63.66 77.85 C 66.72 73.54 69.28 68.53 73.91 65.68 C 78.77 62.65 84.25 60.23 90.07 60.24 C 96.75 59.94 103.08 62.81 108.46 66.54 C 112.22 69.42 114.93 73.48 118.97 76.04 C 121.91 78.34 125.57 79.32 128.72 81.24 C 131.66 83.73 131.49 87.89 132.21 91.34 C 134.72 88.17 134.60 83.92 133.59 80.21 C 135.44 78.43 137.51 76.80 139.97 75.94 C 147.64 73.02 155.88 72.13 163.69 69.70 C 170.81 67.41 177.91 64.53 183.72 59.70 C 191.92 53.54 198.87 44.78 200.18 34.33 M 193.98 65.06 C 184.59 70.12 174.29 73.15 164.01 75.80 C 161.31 76.45 158.54 76.70 155.78 76.88 C 155.65 77.25 155.40 78.00 155.28 78.37 C 162.90 78.34 170.14 75.66 177.37 73.55 C 183.85 71.65 189.97 68.75 196.06 65.87 C 193.15 71.62 186.81 74.28 182.67 78.88 C 187.80 78.48 192.79 76.71 198.01 77.32 C 196.56 79.14 194.46 80.68 194.09 83.13 C 196.84 81.10 199.28 78.66 202.33 77.06 L 202.09 76.18 C 197.67 75.45 193.18 75.88 188.74 75.91 C 193.11 71.84 198.10 67.90 200.04 62.00 C 197.71 62.28 195.97 63.98 193.98 65.06 M 242.51 108.86 C 237.24 109.59 232.35 111.98 227.97 114.92 C 224.53 117.24 221.23 120.16 217.01 120.92 C 210.03 122.46 203.19 119.65 196.44 118.30 C 179.69 115.43 162.50 119.26 147.24 126.25 C 143.26 127.92 139.97 130.81 136.85 133.72 C 143.36 132.70 149.40 129.80 155.83 128.34 C 162.50 126.87 169.24 125.56 176.07 125.06 C 185.49 124.07 194.89 126.02 204.02 128.13 C 209.68 129.46 215.09 132.45 221.03 132.21 C 227.26 131.63 231.06 126.27 235.05 122.11 C 243.07 113.51 255.28 109.75 266.82 110.12 L 266.49 108.77 C 258.60 106.92 250.45 108.01 242.51 108.86 M 220.80 137.81 C 215.88 140.28 211.62 144.08 208.72 148.77 C 208.16 149.55 207.86 151.64 209.27 151.67 C 215.32 152.76 220.86 149.49 226.35 147.52 C 231.75 145.23 237.50 143.90 243.30 143.10 C 243.40 141.80 244.27 140.09 242.90 139.16 C 236.59 134.42 227.80 134.96 220.80 137.81 M 143.09 142.69 C 137.57 144.44 131.56 146.07 127.53 150.50 C 123.04 155.34 118.55 160.56 116.67 167.02 C 117.90 167.32 119.12 167.62 120.35 167.92 C 118.70 172.19 117.20 176.55 116.61 181.12 C 116.48 182.56 116.01 184.51 117.42 185.52 C 126.11 192.96 135.79 199.45 146.56 203.47 C 157.91 207.34 170.16 204.65 181.32 201.42 C 190.85 198.85 196.49 189.33 206.28 187.32 C 206.83 186.49 207.37 185.67 207.91 184.85 C 210.58 187.87 214.45 190.20 218.53 190.41 C 219.84 190.62 219.99 188.69 219.00 188.25 C 216.93 186.58 214.67 185.10 212.95 183.04 C 208.33 177.91 206.66 170.98 202.75 165.38 C 197.74 155.49 189.88 146.25 179.02 142.76 C 167.49 138.51 154.77 139.57 143.09 142.69 M 243.06 183.57 C 232.88 187.00 222.25 190.66 214.60 198.58 C 213.04 200.13 213.81 202.39 213.98 204.29 C 209.66 205.70 205.29 207.56 202.21 211.03 C 196.32 217.98 192.88 226.94 192.59 236.05 C 192.45 241.01 194.01 246.03 196.93 250.04 C 201.54 255.93 209.59 257.30 216.62 257.72 C 218.43 259.56 221.10 259.87 223.51 260.40 C 235.50 262.38 247.65 260.65 259.62 259.35 C 265.60 258.27 271.32 254.79 274.42 249.47 C 277.07 245.12 279.98 240.66 280.84 235.55 C 283.74 232.24 286.79 228.93 288.61 224.86 C 290.78 220.08 293.66 215.36 293.72 209.95 C 294.32 202.35 291.24 194.40 284.75 190.11 C 283.90 184.72 279.34 180.26 273.94 179.57 C 263.52 178.65 252.86 179.83 243.06 183.57 M 304.26 233.16 C 306.16 231.78 306.64 229.40 306.01 227.19 C 304.03 228.53 304.59 231.13 304.26 233.16 M 172.34 257.13 C 172.38 259.14 173.03 261.11 174.91 262.10 C 174.31 260.40 174.56 257.60 172.34 257.13 M 169.39 269.21 C 168.94 270.72 171.19 272.45 172.58 271.79 C 172.95 270.34 170.71 268.73 169.39 269.21 Z" />
<path fill="#1f0d00" stroke="#1f0d00" stroke-width="0.09375" opacity="1.00" d=" M 273.96 51.93 C 276.78 49.01 279.62 45.36 283.92 44.78 C 288.51 44.53 292.24 47.69 295.32 50.70 C 301.09 56.07 302.97 64.40 302.63 72.02 C 302.34 84.77 295.94 96.66 287.34 105.77 L 287.28 106.72 C 287.26 107.11 287.22 107.88 287.20 108.27 C 285.86 106.60 284.49 104.92 283.64 102.94 C 284.69 103.60 285.73 104.27 286.78 104.94 C 294.63 95.30 301.13 83.76 301.35 71.04 C 301.08 64.59 299.86 57.58 295.13 52.81 C 291.96 49.51 288.05 45.50 283.01 46.41 C 280.19 47.54 278.09 49.87 275.89 51.88 C 270.05 57.09 270.56 65.69 267.08 72.24 C 265.38 76.21 261.79 78.74 258.73 81.57 C 259.39 82.01 260.71 82.90 261.38 83.34 C 260.94 83.47 260.06 83.74 259.62 83.87 C 258.64 83.41 257.69 82.90 256.75 82.39 C 257.06 81.99 257.67 81.19 257.98 80.79 C 260.27 78.11 263.39 76.14 265.08 72.97 C 268.71 66.25 268.65 57.78 273.96 51.93 Z" />
<path fill="#c16100" stroke="#c16100" stroke-width="0.09375" opacity="1.00" d=" M 275.89 51.88 C 278.09 49.87 280.19 47.54 283.01 46.41 C 288.05 45.50 291.96 49.51 295.13 52.81 C 299.86 57.58 301.08 64.59 301.35 71.04 C 301.13 83.76 294.63 95.30 286.78 104.94 C 285.73 104.27 284.69 103.60 283.64 102.94 C 283.50 102.46 283.21 101.51 283.06 101.04 C 281.73 99.85 280.39 98.66 279.16 97.38 C 282.92 94.08 287.28 91.51 292.28 90.69 C 291.36 88.00 289.67 85.70 287.83 83.57 C 288.95 83.57 291.20 83.58 292.32 83.58 C 290.52 78.82 285.78 76.22 280.82 76.25 C 283.16 71.91 287.78 69.56 292.32 68.21 C 290.30 65.66 286.61 66.21 283.77 66.70 C 279.18 67.98 275.34 70.96 271.49 73.65 C 267.62 76.36 265.26 80.65 261.38 83.34 C 260.71 82.90 259.39 82.01 258.73 81.57 C 261.79 78.74 265.38 76.21 267.08 72.24 C 270.56 65.69 270.05 57.09 275.89 51.88 Z" />
<path fill="#401d00" stroke="#401d00" stroke-width="0.09375" opacity="1.00" d=" M 193.98 65.06 C 195.97 63.98 197.71 62.28 200.04 62.00 C 198.10 67.90 193.11 71.84 188.74 75.91 C 193.18 75.88 197.67 75.45 202.09 76.18 L 202.33 77.06 C 199.28 78.66 196.84 81.10 194.09 83.13 C 194.46 80.68 196.56 79.14 198.01 77.32 C 192.79 76.71 187.80 78.48 182.67 78.88 C 186.81 74.28 193.15 71.62 196.06 65.87 C 189.97 68.75 183.85 71.65 177.37 73.55 C 170.14 75.66 162.90 78.34 155.28 78.37 C 155.40 78.00 155.65 77.25 155.78 76.88 C 158.54 76.70 161.31 76.45 164.01 75.80 C 174.29 73.15 184.59 70.12 193.98 65.06 Z" />
<path fill="#000000" stroke="#000000" stroke-width="0.09375" opacity="1.00" d=" M 283.77 66.70 C 286.61 66.21 290.30 65.66 292.32 68.21 C 287.78 69.56 283.16 71.91 280.82 76.25 C 285.78 76.22 290.52 78.82 292.32 83.58 C 291.20 83.58 288.95 83.57 287.83 83.57 C 289.67 85.70 291.36 88.00 292.28 90.69 C 287.28 91.51 282.92 94.08 279.16 97.38 C 273.84 91.39 266.72 87.37 259.62 83.87 C 260.06 83.74 260.94 83.47 261.38 83.34 C 265.26 80.65 267.62 76.36 271.49 73.65 C 275.34 70.96 279.18 67.98 283.77 66.70 M 277.96 70.95 C 275.30 72.91 271.27 74.07 270.60 77.76 C 269.58 81.69 270.09 86.14 272.32 89.57 C 274.77 91.59 277.09 93.99 279.87 95.47 C 282.58 92.52 286.14 90.54 290.10 89.87 C 289.78 86.71 286.95 84.66 283.95 84.29 C 284.76 81.70 288.01 82.79 290.00 82.17 C 287.76 78.14 282.31 76.76 278.27 78.83 C 278.17 73.37 284.42 71.60 286.90 68.00 C 283.93 67.24 280.65 69.52 277.96 70.95 Z" />
<path fill="#ffc859" stroke="#ffc859" stroke-width="0.09375" opacity="1.00" d=" M 277.96 70.95 C 280.65 69.52 283.93 67.24 286.90 68.00 C 284.42 71.60 278.17 73.37 278.27 78.83 C 282.31 76.76 287.76 78.14 290.00 82.17 C 288.01 82.79 284.76 81.70 283.95 84.29 C 286.95 84.66 289.78 86.71 290.10 89.87 C 286.14 90.54 282.58 92.52 279.87 95.47 C 277.09 93.99 274.77 91.59 272.32 89.57 C 270.09 86.14 269.58 81.69 270.60 77.76 C 271.27 74.07 275.30 72.91 277.96 70.95 Z" />
<path fill="#c16100" stroke="#c16100" stroke-width="0.09375" opacity="1.00" d=" M 231.86 76.03 C 236.08 76.39 240.26 77.06 244.42 77.88 C 243.21 82.22 236.78 81.76 236.43 86.30 C 235.76 82.55 233.88 79.20 231.86 76.03 Z" />
<path fill="#c16100" stroke="#c16100" stroke-width="0.09375" opacity="1.00" d=" M 83.10 79.01 C 89.13 76.80 95.89 79.39 99.65 84.41 C 102.37 88.16 107.29 91.57 106.59 96.73 C 105.38 98.50 102.97 98.60 101.03 98.48 C 93.78 96.95 87.34 92.89 80.24 90.92 C 79.40 99.65 83.21 108.51 90.20 113.82 C 86.77 114.69 83.29 115.32 79.85 116.14 C 81.58 120.17 86.72 120.75 90.40 122.13 C 87.29 125.78 84.10 129.98 84.25 135.03 C 87.75 132.58 91.87 128.62 96.28 131.79 C 97.45 138.74 96.86 145.77 95.40 152.63 C 86.66 151.61 79.17 145.70 74.12 138.77 C 67.18 128.62 67.44 115.65 68.94 103.96 C 69.97 98.00 70.54 91.44 74.67 86.67 C 77.17 83.83 79.64 80.72 83.10 79.01 Z" />
<path fill="#c16100" stroke="#c16100" stroke-width="0.09375" opacity="1.00" d=" M 222.61 86.32 C 222.73 84.00 225.44 82.94 227.46 83.35 C 230.04 83.87 232.29 85.33 234.58 86.56 C 230.32 90.54 225.01 93.39 221.73 98.36 C 222.27 94.37 222.24 90.33 222.61 86.32 Z" />
<path fill="#ffc859" stroke="#ffc859" stroke-width="0.09375" opacity="1.00" d=" M 81.30 92.84 C 92.05 96.49 102.58 102.34 114.31 101.48 C 113.85 102.88 113.39 104.30 112.90 105.70 C 106.46 111.36 102.95 119.63 100.08 127.54 C 97.25 127.74 94.39 128.01 91.72 129.02 C 89.72 129.76 87.84 130.78 85.92 131.68 C 87.22 127.04 90.80 123.70 95.17 121.92 C 90.90 120.52 86.02 120.20 82.54 117.05 C 86.14 116.10 89.79 115.33 93.36 114.26 C 90.86 111.83 87.55 110.21 85.68 107.18 C 82.94 102.91 81.59 97.88 81.30 92.84 Z" />
<path fill="#401d00" stroke="#401d00" stroke-width="0.09375" opacity="1.00" d=" M 100.08 127.54 C 102.95 119.63 106.46 111.36 112.90 105.70 C 111.93 109.08 109.51 111.72 107.74 114.68 C 104.74 119.36 102.57 124.52 100.89 129.81 C 98.22 127.72 94.77 128.67 91.72 129.02 C 94.39 128.01 97.25 127.74 100.08 127.54 Z" />
<path fill="#0e0c0e" stroke="#0e0c0e" stroke-width="0.09375" opacity="1.00" d=" M 242.51 108.86 C 250.45 108.01 258.60 106.92 266.49 108.77 L 266.82 110.12 C 255.28 109.75 243.07 113.51 235.05 122.11 C 231.06 126.27 227.26 131.63 221.03 132.21 C 215.09 132.45 209.68 129.46 204.02 128.13 C 194.89 126.02 185.49 124.07 176.07 125.06 C 169.24 125.56 162.50 126.87 155.83 128.34 C 149.40 129.80 143.36 132.70 136.85 133.72 C 139.97 130.81 143.26 127.92 147.24 126.25 C 162.50 119.26 179.69 115.43 196.44 118.30 C 203.19 119.65 210.03 122.46 217.01 120.92 C 221.23 120.16 224.53 117.24 227.97 114.92 C 232.35 111.98 237.24 109.59 242.51 108.86 M 232.99 114.06 C 227.47 116.80 223.09 121.98 216.70 122.76 C 210.27 124.22 203.92 121.84 197.69 120.55 C 187.70 118.14 177.31 119.53 167.38 121.50 C 161.05 123.05 154.49 124.42 148.88 127.89 C 159.82 125.88 170.74 122.86 181.97 122.99 C 190.93 123.36 199.80 125.02 208.40 127.51 C 212.20 128.63 215.90 130.37 219.90 130.59 C 225.32 129.93 229.74 126.07 232.89 121.83 C 237.50 116.12 244.19 112.79 250.93 110.27 C 244.75 109.94 238.37 110.85 232.99 114.06 Z" />
<path fill="#b2b2b2" stroke="#b2b2b2" stroke-width="0.09375" opacity="1.00" d=" M 45.82 122.05 C 44.14 114.85 52.09 107.35 59.12 109.77 C 59.27 110.48 59.57 111.89 59.72 112.59 C 55.84 111.60 51.29 112.53 49.15 116.19 C 46.82 120.27 49.39 125.13 53.13 127.32 C 55.02 125.59 60.06 123.18 60.82 127.15 C 57.48 127.02 53.87 128.20 52.23 131.32 C 50.55 133.83 51.47 136.96 52.83 139.38 C 52.94 139.91 53.18 140.99 53.29 141.53 C 49.42 139.85 49.46 135.29 49.24 131.71 C 49.79 131.04 50.90 129.71 51.45 129.05 C 49.23 127.03 46.11 125.39 45.82 122.05 Z" />
<path fill="#1e1e26" stroke="#1e1e26" stroke-width="0.09375" opacity="1.00" d=" M 232.99 114.06 C 238.37 110.85 244.75 109.94 250.93 110.27 C 244.19 112.79 237.50 116.12 232.89 121.83 C 229.74 126.07 225.32 129.93 219.90 130.59 C 215.90 130.37 212.20 128.63 208.40 127.51 C 199.80 125.02 190.93 123.36 181.97 122.99 C 170.74 122.86 159.82 125.88 148.88 127.89 C 154.49 124.42 161.05 123.05 167.38 121.50 C 177.31 119.53 187.70 118.14 197.69 120.55 C 203.92 121.84 210.27 124.22 216.70 122.76 C 223.09 121.98 227.47 116.80 232.99 114.06 Z" />
<path fill="#3e240a" stroke="#3e240a" stroke-width="0.09375" opacity="1.00" d=" M 253.88 125.90 C 258.07 119.53 265.03 114.10 272.97 114.23 C 277.69 114.01 282.37 116.02 285.50 119.54 C 288.87 123.26 292.17 127.31 293.52 132.24 C 289.06 131.13 284.74 129.04 280.04 129.27 C 273.46 129.42 266.48 130.93 261.48 135.47 C 258.50 138.12 257.29 142.16 256.93 146.02 C 256.36 152.00 256.29 158.05 256.79 164.04 C 256.91 168.36 261.00 170.75 263.55 173.69 C 264.14 174.49 265.31 176.10 265.89 176.91 C 263.95 176.06 262.15 174.89 260.72 173.32 C 248.07 161.49 245.90 140.90 253.88 125.90 M 254.67 127.64 C 249.63 138.33 249.31 151.41 254.53 162.10 C 254.85 154.79 254.20 147.30 256.25 140.18 C 257.47 135.60 261.63 132.71 265.58 130.59 C 273.49 127.08 282.95 126.35 291.02 129.73 C 287.58 123.92 283.28 117.15 276.04 116.00 C 267.30 114.46 258.78 120.23 254.67 127.64 Z" />
<path fill="#ffc859" stroke="#ffc859" stroke-width="0.09375" opacity="1.00" d=" M 254.67 127.64 C 258.78 120.23 267.30 114.46 276.04 116.00 C 283.28 117.15 287.58 123.92 291.02 129.73 C 282.95 126.35 273.49 127.08 265.58 130.59 C 261.63 132.71 257.47 135.60 256.25 140.18 C 254.20 147.30 254.85 154.79 254.53 162.10 C 249.31 151.41 249.63 138.33 254.67 127.64 Z" />
<path fill="#c16100" stroke="#c16100" stroke-width="0.09375" opacity="1.00" d=" M 261.48 135.47 C 266.48 130.93 273.46 129.42 280.04 129.27 C 284.74 129.04 289.06 131.13 293.52 132.24 C 295.95 134.10 297.79 136.61 300.20 138.49 C 300.58 138.45 301.35 138.38 301.73 138.35 C 302.68 141.57 303.78 144.76 305.12 147.85 C 304.67 147.65 303.75 147.26 303.30 147.06 C 301.71 155.03 299.14 164.47 291.11 168.21 C 285.85 171.00 280.08 173.74 273.95 172.97 C 270.47 172.84 266.49 170.96 263.55 173.69 C 261.00 170.75 256.91 168.36 256.79 164.04 C 256.29 158.05 256.36 152.00 256.93 146.02 C 257.29 142.16 258.50 138.12 261.48 135.47 M 265.71 143.78 C 262.37 145.68 259.92 149.15 259.68 153.04 C 259.27 158.76 260.25 165.45 265.34 168.96 C 271.16 172.26 278.88 173.05 285.00 170.11 C 289.99 168.34 292.40 163.36 294.50 158.90 C 296.87 152.82 295.78 146.08 294.73 139.83 C 294.59 137.48 292.10 136.18 289.94 136.44 C 281.41 136.47 272.67 138.69 265.71 143.78 Z" />
<path fill="#828282" stroke="#828282" stroke-width="0.09375" opacity="1.00" d=" M 48.59 138.18 C 48.65 136.01 48.75 133.83 49.24 131.71 C 49.46 135.29 49.42 139.85 53.29 141.53 C 53.18 140.99 52.94 139.91 52.83 139.38 C 54.72 139.50 56.63 139.56 58.50 139.88 C 60.30 143.61 55.51 142.38 53.39 142.51 C 53.47 142.81 53.63 143.39 53.72 143.68 C 51.72 142.11 50.31 139.94 48.59 138.18 Z" />
<path fill="#000000" stroke="#000000" stroke-width="0.09375" opacity="1.00" d=" M 220.80 137.81 C 227.80 134.96 236.59 134.42 242.90 139.16 C 244.27 140.09 243.40 141.80 243.30 143.10 C 237.50 143.90 231.75 145.23 226.35 147.52 C 220.86 149.49 215.32 152.76 209.27 151.67 C 207.86 151.64 208.16 149.55 208.72 148.77 C 211.62 144.08 215.88 140.28 220.80 137.81 M 227.11 137.74 C 219.81 138.56 213.52 143.73 210.00 150.00 C 212.43 150.53 214.93 150.29 217.24 149.37 C 225.04 146.56 232.65 142.98 240.96 141.88 C 242.92 141.85 241.79 139.71 240.65 139.37 C 236.45 137.47 231.65 137.08 227.11 137.74 Z" />
<path fill="#1e1e26" stroke="#1e1e26" stroke-width="0.09375" opacity="1.00" d=" M 227.11 137.74 C 231.65 137.08 236.45 137.47 240.65 139.37 C 241.79 139.71 242.92 141.85 240.96 141.88 C 232.65 142.98 225.04 146.56 217.24 149.37 C 214.93 150.29 212.43 150.53 210.00 150.00 C 213.52 143.73 219.81 138.56 227.11 137.74 Z" />
<path fill="#4c453e" stroke="#4c453e" stroke-width="0.09375" opacity="1.00" d=" M 265.71 143.78 C 272.67 138.69 281.41 136.47 289.94 136.44 C 292.10 136.18 294.59 137.48 294.73 139.83 C 295.78 146.08 296.87 152.82 294.50 158.90 C 292.40 163.36 289.99 168.34 285.00 170.11 C 285.11 169.70 285.33 168.88 285.44 168.47 C 290.55 164.23 294.14 157.77 293.94 151.01 C 293.95 147.01 293.77 142.93 292.56 139.09 C 291.40 138.36 289.95 138.59 288.65 138.46 C 279.58 138.40 270.38 141.53 263.78 147.86 C 262.78 148.94 262.27 150.35 261.69 151.68 C 260.92 156.39 261.32 161.92 264.54 165.69 C 263.03 161.33 264.36 156.42 267.33 153.00 C 267.28 153.54 267.17 154.62 267.11 155.16 C 266.74 156.82 266.23 158.45 265.77 160.09 C 264.97 162.45 265.86 164.85 266.89 166.99 C 266.50 167.48 265.73 168.46 265.34 168.96 C 260.25 165.45 259.27 158.76 259.68 153.04 C 259.92 149.15 262.37 145.68 265.71 143.78 Z" />
<path fill="#c16100" stroke="#c16100" stroke-width="0.09375" opacity="1.00" d=" M 99.47 137.38 C 100.66 147.87 102.57 158.37 102.32 168.95 C 102.30 175.73 99.25 181.91 95.72 187.51 C 94.90 186.37 94.14 185.21 93.37 184.05 C 94.85 180.94 96.47 177.83 97.08 174.41 C 98.08 167.62 96.12 160.82 96.81 154.03 C 97.36 148.43 98.06 142.83 99.47 137.38 Z" />
<path fill="#b3b3b3" stroke="#b3b3b3" stroke-width="0.09375" opacity="1.00" d=" M 263.78 147.86 C 270.38 141.53 279.58 138.40 288.65 138.46 C 284.89 141.41 279.78 141.38 275.71 143.77 C 270.69 145.81 266.84 149.96 261.69 151.68 C 262.27 150.35 262.78 148.94 263.78 147.86 Z" />
<path fill="#ffffff" stroke="#ffffff" stroke-width="0.09375" opacity="1.00" d=" M 288.65 138.46 C 289.95 138.59 291.40 138.36 292.56 139.09 C 293.77 142.93 293.95 147.01 293.94 151.01 C 294.14 157.77 290.55 164.23 285.44 168.47 C 286.12 165.66 287.09 162.90 287.37 160.01 C 287.29 154.04 281.77 149.09 275.98 148.74 C 272.73 149.11 269.58 150.61 267.33 153.00 C 264.36 156.42 263.03 161.33 264.54 165.69 C 261.32 161.92 260.92 156.39 261.69 151.68 C 266.84 149.96 270.69 145.81 275.71 143.77 C 279.78 141.38 284.89 141.41 288.65 138.46 Z" />
<path fill="#583609" stroke="#583609" stroke-width="0.09375" opacity="1.00" d=" M 143.09 142.69 C 154.77 139.57 167.49 138.51 179.02 142.76 C 189.88 146.25 197.74 155.49 202.75 165.38 C 206.66 170.98 208.33 177.91 212.95 183.04 C 214.67 185.10 216.93 186.58 219.00 188.25 C 219.99 188.69 219.84 190.62 218.53 190.41 C 214.45 190.20 210.58 187.87 207.91 184.85 C 202.41 178.35 198.59 170.44 191.98 164.89 C 186.70 160.25 180.00 157.08 172.92 156.67 C 158.62 155.55 145.08 161.22 131.92 165.98 C 127.05 167.87 121.76 167.27 116.67 167.02 C 118.55 160.56 123.04 155.34 127.53 150.50 C 131.56 146.07 137.57 144.44 143.09 142.69 M 143.91 144.20 C 138.53 145.88 132.69 147.47 128.73 151.75 C 124.86 155.89 120.95 160.25 119.00 165.68 C 125.50 165.95 132.28 164.69 137.90 161.36 C 138.98 162.54 142.22 161.56 141.66 159.80 C 145.09 159.68 148.23 158.13 151.51 157.30 C 162.31 154.16 174.56 152.76 184.99 157.90 C 193.64 161.85 199.54 169.69 204.66 177.39 C 207.47 181.03 209.54 185.86 214.28 187.34 C 212.36 184.71 210.07 182.35 208.37 179.55 C 202.32 167.99 196.92 154.87 185.43 147.60 C 172.98 140.12 157.54 140.74 143.91 144.20 Z" />
<path fill="#ffc859" stroke="#ffc859" stroke-width="0.09375" opacity="1.00" d=" M 143.91 144.20 C 157.54 140.74 172.98 140.12 185.43 147.60 C 196.92 154.87 202.32 167.99 208.37 179.55 C 210.07 182.35 212.36 184.71 214.28 187.34 C 209.54 185.86 207.47 181.03 204.66 177.39 C 199.54 169.69 193.64 161.85 184.99 157.90 C 174.56 152.76 162.31 154.16 151.51 157.30 C 148.23 158.13 145.09 159.68 141.66 159.80 C 140.20 159.66 138.91 160.36 137.90 161.36 C 132.28 164.69 125.50 165.95 119.00 165.68 C 120.95 160.25 124.86 155.89 128.73 151.75 C 132.69 147.47 138.53 145.88 143.91 144.20 Z" />
<path fill="#000000" stroke="#000000" stroke-width="0.09375" opacity="1.00" d=" M 267.33 153.00 C 269.58 150.61 272.73 149.11 275.98 148.74 C 281.77 149.09 287.29 154.04 287.37 160.01 C 287.09 162.90 286.12 165.66 285.44 168.47 C 285.33 168.88 285.11 169.70 285.00 170.11 C 278.88 173.05 271.16 172.26 265.34 168.96 C 265.73 168.46 266.50 167.48 266.89 166.99 C 268.06 167.82 269.25 168.61 270.45 169.41 C 269.13 166.75 268.10 163.90 268.33 160.88 C 268.76 159.71 269.25 158.56 269.78 157.43 C 272.12 152.95 279.28 151.97 281.85 156.73 C 282.36 157.75 282.83 158.78 283.32 159.81 C 282.62 162.87 280.91 167.20 276.93 166.28 C 273.83 165.59 274.30 162.05 274.05 159.66 C 275.01 159.17 275.98 158.68 276.95 158.18 C 277.47 158.54 278.52 159.26 279.05 159.61 C 279.00 160.17 278.91 161.28 278.86 161.84 C 277.78 161.25 276.79 159.93 275.41 160.44 C 275.23 162.03 275.09 164.61 277.26 164.79 C 280.37 165.49 281.64 161.86 281.81 159.41 C 280.74 157.48 279.57 154.93 276.95 155.09 C 273.75 154.35 271.55 156.95 270.21 159.46 C 269.64 161.94 269.16 164.91 271.00 167.01 C 273.65 170.03 278.61 171.47 282.16 169.19 C 285.18 167.01 285.59 162.98 286.06 159.58 C 285.74 158.10 285.35 156.63 284.84 155.21 C 282.52 152.76 279.64 150.10 276.02 150.25 C 272.41 150.17 269.32 152.54 267.32 155.36 L 267.11 155.16 C 267.17 154.62 267.28 153.54 267.33 153.00 Z" />
<path fill="#f3cf00" stroke="#f3cf00" stroke-width="0.09375" opacity="1.00" d=" M 267.32 155.36 C 269.32 152.54 272.41 150.17 276.02 150.25 C 279.64 150.10 282.52 152.76 284.84 155.21 C 284.01 156.03 282.95 156.46 281.85 156.73 C 279.28 151.97 272.12 152.95 269.78 157.43 C 268.95 156.75 268.13 156.06 267.32 155.36 Z" />
<path fill="#8acd00" stroke="#8acd00" stroke-width="0.09375" opacity="1.00" d=" M 267.11 155.16 L 267.32 155.36 C 268.13 156.06 268.95 156.75 269.78 157.43 C 269.25 158.56 268.76 159.71 268.33 160.88 C 267.69 160.68 266.41 160.28 265.77 160.09 C 266.23 158.45 266.74 156.82 267.11 155.16 Z" />
<path fill="#a1cd00" stroke="#a1cd00" stroke-width="0.09375" opacity="1.00" d=" M 270.21 159.46 C 271.55 156.95 273.75 154.35 276.95 155.09 C 279.57 154.93 280.74 157.48 281.81 159.41 C 281.12 159.46 279.74 159.56 279.05 159.61 C 278.52 159.26 277.47 158.54 276.95 158.18 C 275.98 158.68 275.01 159.17 274.05 159.66 C 273.09 159.61 271.17 159.51 270.21 159.46 Z" />
<path fill="#66ad00" stroke="#66ad00" stroke-width="0.09375" opacity="1.00" d=" M 284.84 155.21 C 285.35 156.63 285.74 158.10 286.06 159.58 C 285.37 159.64 284.01 159.75 283.32 159.81 C 282.83 158.78 282.36 157.75 281.85 156.73 C 282.95 156.46 284.01 156.03 284.84 155.21 Z" />
<path fill="#c16100" stroke="#c16100" stroke-width="0.09375" opacity="1.00" d=" M 131.92 165.98 C 145.08 161.22 158.62 155.55 172.92 156.67 C 180.00 157.08 186.70 160.25 191.98 164.89 C 198.59 170.44 202.41 178.35 207.91 184.85 C 207.37 185.67 206.83 186.49 206.28 187.32 C 196.49 189.33 190.85 198.85 181.32 201.42 C 170.16 204.65 157.91 207.34 146.56 203.47 C 135.79 199.45 126.11 192.96 117.42 185.52 C 116.01 184.51 116.48 182.56 116.61 181.12 C 117.20 176.55 118.70 172.19 120.35 167.92 C 119.12 167.62 117.90 167.32 116.67 167.02 C 121.76 167.27 127.05 167.87 131.92 165.98 M 155.52 164.87 C 148.82 165.83 141.81 166.49 135.75 169.76 C 133.61 170.56 132.60 172.79 133.39 174.96 C 135.77 183.19 137.73 192.46 144.59 198.25 C 151.09 203.66 160.62 202.32 167.65 198.70 C 174.41 195.96 178.93 189.07 179.34 181.86 C 179.52 177.43 180.05 172.38 177.64 168.47 C 170.89 165.03 163.00 164.16 155.52 164.87 Z" />
<path fill="#1e1e26" stroke="#1e1e26" stroke-width="0.09375" opacity="1.00" d=" M 307.62 168.59 C 310.58 165.36 311.95 161.12 313.86 157.26 C 315.96 159.11 318.41 160.80 319.67 163.39 C 319.93 165.17 319.69 166.97 319.57 168.76 C 319.32 168.99 319.07 169.21 318.83 169.44 C 315.23 169.39 312.71 172.24 309.81 173.90 C 306.78 175.94 303.21 176.92 299.61 177.26 C 301.93 174.06 304.96 171.49 307.62 168.59 Z" />
<path fill="#bd7f27" stroke="#bd7f27" stroke-width="0.09375" opacity="1.00" d=" M 137.90 161.36 C 138.91 160.36 140.20 159.66 141.66 159.80 C 142.22 161.56 138.98 162.54 137.90 161.36 Z" />
<path fill="#00ca00" stroke="#00ca00" stroke-width="0.09375" opacity="1.00" d=" M 266.89 166.99 C 265.86 164.85 264.97 162.45 265.77 160.09 C 266.41 160.28 267.69 160.68 268.33 160.88 C 268.10 163.90 269.13 166.75 270.45 169.41 C 269.25 168.61 268.06 167.82 266.89 166.99 Z" />
<path fill="#00ca00" stroke="#00ca00" stroke-width="0.09375" opacity="1.00" d=" M 271.00 167.01 C 269.16 164.91 269.64 161.94 270.21 159.46 C 271.17 159.51 273.09 159.61 274.05 159.66 C 274.30 162.05 273.83 165.59 276.93 166.28 C 280.91 167.20 282.62 162.87 283.32 159.81 C 284.01 159.75 285.37 159.64 286.06 159.58 C 285.59 162.98 285.18 167.01 282.16 169.19 C 278.61 171.47 273.65 170.03 271.00 167.01 Z" />
<path fill="#00ca00" stroke="#00ca00" stroke-width="0.09375" opacity="1.00" d=" M 275.41 160.44 C 276.79 159.93 277.78 161.25 278.86 161.84 C 278.91 161.28 279.00 160.17 279.05 159.61 C 279.74 159.56 281.12 159.46 281.81 159.41 C 281.64 161.86 280.37 165.49 277.26 164.79 C 275.09 164.61 275.23 162.03 275.41 160.44 Z" />
<path fill="#002800" stroke="#002800" stroke-width="0.09375" opacity="1.00" d=" M 155.52 164.87 C 163.00 164.16 170.89 165.03 177.64 168.47 C 180.05 172.38 179.52 177.43 179.34 181.86 C 178.93 189.07 174.41 195.96 167.65 198.70 C 160.62 202.32 151.09 203.66 144.59 198.25 C 137.73 192.46 135.77 183.19 133.39 174.96 C 132.60 172.79 133.61 170.56 135.75 169.76 C 141.81 166.49 148.82 165.83 155.52 164.87 M 143.85 168.31 C 141.41 168.97 138.67 169.35 136.85 171.28 C 136.23 171.41 135.00 171.66 134.38 171.79 C 135.06 177.57 137.29 183.02 139.25 188.46 C 141.98 195.58 149.06 201.59 157.05 200.53 C 154.28 199.24 151.37 197.99 149.44 195.52 C 145.98 192.05 145.71 186.58 147.08 182.13 C 150.30 173.69 162.28 169.45 169.46 175.51 C 174.53 179.20 174.27 186.18 174.36 191.80 C 175.41 190.05 176.52 188.28 176.93 186.26 C 178.50 183.14 178.26 179.49 178.34 176.10 C 178.19 173.30 177.63 169.62 174.58 168.57 C 164.73 164.88 153.88 166.02 143.85 168.31 M 148.19 183.58 L 147.97 183.62 C 147.85 185.01 147.73 186.40 147.61 187.79 C 148.34 194.06 154.05 199.32 160.45 198.99 C 158.11 197.24 155.22 195.98 153.71 193.36 C 152.42 191.18 152.33 188.58 151.86 186.17 C 152.97 185.12 153.31 183.39 154.04 182.05 C 155.44 181.38 156.76 180.55 158.13 179.82 C 160.64 179.83 163.06 180.46 165.46 181.11 C 165.90 181.49 166.76 182.26 167.19 182.65 C 167.61 185.25 168.58 188.37 166.56 190.58 C 164.88 193.10 160.68 193.88 158.60 191.47 C 156.77 189.59 157.29 186.79 157.22 184.43 C 158.78 184.01 160.26 183.28 161.86 182.96 C 162.67 184.46 164.29 185.91 163.74 187.79 C 163.53 189.64 161.07 189.20 159.79 189.06 C 160.72 188.33 161.66 187.62 162.61 186.92 C 162.12 185.68 161.27 184.92 160.06 184.61 C 156.92 186.51 159.32 192.52 162.97 191.23 C 166.76 190.36 167.45 184.67 164.43 182.51 C 161.09 180.29 156.12 181.16 154.31 184.93 C 151.16 192.97 162.22 200.98 168.98 195.81 C 173.62 193.42 172.65 187.53 172.45 183.23 C 172.21 182.75 171.75 181.78 171.51 181.29 C 171.30 180.62 170.89 179.28 170.68 178.61 C 164.51 170.80 150.66 174.08 148.19 183.58 Z" />
<path fill="#b3b3b3" stroke="#b3b3b3" stroke-width="0.09375" opacity="1.00" d=" M 143.85 168.31 C 153.88 166.02 164.73 164.88 174.58 168.57 C 177.63 169.62 178.19 173.30 178.34 176.10 C 178.26 179.49 178.50 183.14 176.93 186.26 C 177.19 182.47 177.95 178.66 177.54 174.87 C 177.26 171.15 172.83 170.87 170.03 170.01 C 159.06 167.23 147.78 169.59 136.85 171.28 C 138.67 169.35 141.41 168.97 143.85 168.31 Z" />
<path fill="#ffffff" stroke="#ffffff" stroke-width="0.09375" opacity="1.00" d=" M 136.85 171.28 C 147.78 169.59 159.06 167.23 170.03 170.01 C 172.83 170.87 177.26 171.15 177.54 174.87 C 177.95 178.66 177.19 182.47 176.93 186.26 C 176.52 188.28 175.41 190.05 174.36 191.80 C 174.27 186.18 174.53 179.20 169.46 175.51 C 162.28 169.45 150.30 173.69 147.08 182.13 C 145.71 186.58 145.98 192.05 149.44 195.52 C 151.37 197.99 154.28 199.24 157.05 200.53 C 149.06 201.59 141.98 195.58 139.25 188.46 C 137.29 183.02 135.06 177.57 134.38 171.79 C 135.00 171.66 136.23 171.41 136.85 171.28 Z" />
<path fill="#e5ce00" stroke="#e5ce00" stroke-width="0.09375" opacity="1.00" d=" M 148.19 183.58 C 150.66 174.08 164.51 170.80 170.68 178.61 C 166.50 178.82 162.12 178.28 158.13 179.82 C 156.76 180.55 155.44 181.38 154.04 182.05 C 152.15 182.79 150.18 183.26 148.19 183.58 Z" />
<path fill="#1e1e26" stroke="#1e1e26" stroke-width="0.09375" opacity="1.00" d=" M 313.88 186.82 C 317.44 183.25 320.14 178.85 324.05 175.66 C 324.32 177.70 324.40 179.77 324.27 181.83 C 323.08 182.80 321.93 183.80 320.80 184.84 C 321.68 184.92 323.45 185.08 324.33 185.16 C 324.95 189.20 320.97 191.50 317.76 192.70 C 313.50 194.01 309.11 195.22 304.62 195.15 C 307.45 192.07 311.60 190.47 313.88 186.82 Z" />
<path fill="#a9c500" stroke="#a9c500" stroke-width="0.09375" opacity="1.00" d=" M 158.13 179.82 C 162.12 178.28 166.50 178.82 170.68 178.61 C 170.89 179.28 171.30 180.62 171.51 181.29 C 169.49 181.22 167.48 181.22 165.46 181.11 C 163.06 180.46 160.64 179.83 158.13 179.82 Z" />
<path fill="#000000" stroke="#000000" stroke-width="0.09375" opacity="1.00" d=" M 243.06 183.57 C 252.86 179.83 263.52 178.65 273.94 179.57 C 279.34 180.26 283.90 184.72 284.75 190.11 C 291.24 194.40 294.32 202.35 293.72 209.95 C 293.66 215.36 290.78 220.08 288.61 224.86 C 286.79 228.93 283.74 232.24 280.84 235.55 C 276.74 240.44 270.94 243.26 265.50 246.35 C 257.99 250.59 249.48 252.45 241.14 254.26 C 233.06 255.94 224.91 257.69 216.62 257.72 C 209.59 257.30 201.54 255.93 196.93 250.04 C 194.01 246.03 192.45 241.01 192.59 236.05 C 192.88 226.94 196.32 217.98 202.21 211.03 C 205.29 207.56 209.66 205.70 213.98 204.29 C 213.81 202.39 213.04 200.13 214.60 198.58 C 222.25 190.66 232.88 187.00 243.06 183.57 M 249.27 183.30 C 237.82 186.93 225.83 190.51 216.74 198.78 C 214.33 200.10 215.27 203.44 217.13 204.80 C 221.25 208.21 226.86 208.32 231.95 208.73 C 230.96 207.20 229.98 205.65 229.02 204.10 C 230.24 203.52 231.56 202.47 232.98 203.21 C 238.52 204.90 243.12 208.66 248.65 210.38 C 251.57 211.23 254.49 213.59 257.63 212.59 C 261.33 209.39 263.57 204.96 265.73 200.66 C 267.01 198.50 268.90 195.66 271.81 196.18 C 273.27 197.53 272.13 199.61 272.16 201.28 C 277.76 199.48 282.94 194.23 282.35 188.00 C 281.29 184.31 277.59 181.73 273.92 181.06 C 265.66 179.78 257.27 181.15 249.27 183.30 M 284.04 191.96 C 281.88 198.58 275.47 203.57 268.43 203.47 C 269.13 201.54 270.08 199.72 270.98 197.88 C 268.05 199.29 266.91 202.64 265.44 205.32 C 263.67 209.93 259.91 213.49 258.70 218.34 C 258.47 218.74 258.02 219.54 257.80 219.94 C 256.98 219.75 256.16 219.56 255.35 219.38 C 255.11 218.96 254.62 218.12 254.38 217.70 C 251.53 214.38 247.60 212.23 243.79 210.21 C 239.55 208.20 235.51 205.76 231.10 204.14 C 232.37 206.00 234.31 207.18 236.24 208.27 C 235.92 208.78 235.29 209.78 234.97 210.29 C 228.07 210.91 220.68 209.71 215.00 205.51 C 213.00 206.05 211.02 206.63 209.05 207.25 C 199.39 212.87 194.79 224.23 193.79 234.92 C 193.18 242.94 197.30 252.27 205.61 254.52 C 213.82 257.70 222.66 255.97 231.08 254.83 C 240.70 252.94 250.47 251.26 259.63 247.65 C 263.31 246.26 266.50 243.94 269.99 242.17 C 281.24 236.29 288.74 224.98 292.18 213.01 C 293.54 206.20 291.92 198.44 286.85 193.48 L 286.97 193.07 C 285.99 192.70 285.01 192.33 284.04 191.96 Z" />
<path fill="#47ac00" stroke="#47ac00" stroke-width="0.09375" opacity="1.00" d=" M 154.31 184.93 C 156.12 181.16 161.09 180.29 164.43 182.51 C 163.79 182.63 162.50 182.85 161.86 182.96 C 160.26 183.28 158.78 184.01 157.22 184.43 C 156.49 184.55 155.04 184.80 154.31 184.93 Z" />
<path fill="#64c500" stroke="#64c500" stroke-width="0.09375" opacity="1.00" d=" M 165.46 181.11 C 167.48 181.22 169.49 181.22 171.51 181.29 C 171.75 181.78 172.21 182.75 172.45 183.23 C 170.69 183.06 168.94 182.90 167.19 182.65 C 166.76 182.26 165.90 181.49 165.46 181.11 Z" />
<path fill="#1e1e26" stroke="#1e1e26" stroke-width="0.09375" opacity="1.00" d=" M 249.27 183.30 C 257.27 181.15 265.66 179.78 273.92 181.06 C 277.59 181.73 281.29 184.31 282.35 188.00 C 282.94 194.23 277.76 199.48 272.16 201.28 C 272.13 199.61 273.27 197.53 271.81 196.18 C 268.90 195.66 267.01 198.50 265.73 200.66 C 263.57 204.96 261.33 209.39 257.63 212.59 C 254.49 213.59 251.57 211.23 248.65 210.38 C 243.12 208.66 238.52 204.90 232.98 203.21 C 231.56 202.47 230.24 203.52 229.02 204.10 C 229.98 205.65 230.96 207.20 231.95 208.73 C 226.86 208.32 221.25 208.21 217.13 204.80 C 215.27 203.44 214.33 200.10 216.74 198.78 C 225.83 190.51 237.82 186.93 249.27 183.30 Z" />
<path fill="#8acd00" stroke="#8acd00" stroke-width="0.09375" opacity="1.00" d=" M 148.19 183.58 C 150.18 183.26 152.15 182.79 154.04 182.05 C 153.31 183.39 152.97 185.12 151.86 186.17 C 150.45 186.74 149.03 187.26 147.61 187.79 C 147.73 186.40 147.85 185.01 147.97 183.62 L 148.19 183.58 Z" />
<path fill="#00b000" stroke="#00b000" stroke-width="0.09375" opacity="1.00" d=" M 161.86 182.96 C 162.50 182.85 163.79 182.63 164.43 182.51 C 167.45 184.67 166.76 190.36 162.97 191.23 C 159.32 192.52 156.92 186.51 160.06 184.61 C 161.27 184.92 162.12 185.68 162.61 186.92 C 161.66 187.62 160.72 188.33 159.79 189.06 C 161.07 189.20 163.53 189.64 163.74 187.79 C 164.29 185.91 162.67 184.46 161.86 182.96 Z" />
<path fill="#00ca00" stroke="#00ca00" stroke-width="0.09375" opacity="1.00" d=" M 167.19 182.65 C 168.94 182.90 170.69 183.06 172.45 183.23 C 172.65 187.53 173.62 193.42 168.98 195.81 C 162.22 200.98 151.16 192.97 154.31 184.93 C 155.04 184.80 156.49 184.55 157.22 184.43 C 157.29 186.79 156.77 189.59 158.60 191.47 C 160.68 193.88 164.88 193.10 166.56 190.58 C 168.58 188.37 167.61 185.25 167.19 182.65 Z" />
<path fill="#c16100" stroke="#c16100" stroke-width="0.09375" opacity="1.00" d=" M 312.84 195.73 C 319.88 194.33 326.79 190.56 330.53 184.25 C 331.23 188.31 332.02 192.36 332.60 196.44 C 330.28 196.40 327.96 196.39 325.66 196.53 C 327.74 197.64 330.11 197.88 332.43 198.14 C 332.52 201.04 332.39 203.95 332.07 206.84 C 327.99 202.74 322.87 199.74 317.07 199.02 C 321.03 205.07 319.30 212.50 317.84 219.06 C 315.36 228.75 311.80 238.50 305.25 246.23 C 302.31 249.86 299.56 253.65 296.45 257.15 C 296.38 255.28 296.34 253.40 296.24 251.54 C 295.87 250.13 296.26 247.25 294.21 247.12 C 293.29 248.09 292.50 249.18 291.66 250.22 C 289.23 252.46 285.76 252.56 282.65 252.56 C 281.52 247.83 283.01 243.16 285.37 239.09 C 286.60 240.30 287.96 242.12 289.96 241.42 C 292.60 240.17 294.55 237.90 296.79 236.09 C 298.49 236.87 300.15 237.80 302.01 238.17 C 304.25 237.74 305.52 235.62 306.64 233.84 C 306.86 235.87 310.18 234.79 308.78 233.12 C 308.34 233.09 307.46 233.02 307.02 232.99 C 312.01 221.33 315.48 208.83 315.16 196.05 C 314.58 195.97 313.42 195.81 312.84 195.73 Z" />
<path fill="#00cb00" stroke="#00cb00" stroke-width="0.09375" opacity="1.00" d=" M 147.61 187.79 C 149.03 187.26 150.45 186.74 151.86 186.17 C 152.33 188.58 152.42 191.18 153.71 193.36 C 155.22 195.98 158.11 197.24 160.45 198.99 C 154.05 199.32 148.34 194.06 147.61 187.79 Z" />
<path fill="#1e1e26" stroke="#1e1e26" stroke-width="0.09375" opacity="1.00" d=" M 95.11 190.05 C 98.95 192.41 102.66 194.97 106.28 197.65 C 112.98 202.95 121.20 205.66 128.90 209.13 C 132.77 211.06 137.21 211.00 141.21 212.50 C 124.66 218.68 106.02 219.71 89.33 213.43 C 89.49 205.33 92.54 197.63 95.11 190.05 Z" />
<path fill="#b2792e" stroke="#b2792e" stroke-width="0.09375" opacity="1.00" d=" M 284.04 191.96 C 285.01 192.33 285.99 192.70 286.97 193.07 L 286.85 193.48 C 285.85 196.93 284.96 200.70 282.16 203.17 C 279.01 206.67 273.59 206.05 270.26 209.27 C 266.59 212.53 263.66 216.90 258.70 218.34 C 259.91 213.49 263.67 209.93 265.44 205.32 C 266.91 202.64 268.05 199.29 270.98 197.88 C 270.08 199.72 269.13 201.54 268.43 203.47 C 275.47 203.57 281.88 198.58 284.04 191.96 Z" />
<path fill="#ffc859" stroke="#ffc859" stroke-width="0.09375" opacity="1.00" d=" M 282.16 203.17 C 284.96 200.70 285.85 196.93 286.85 193.48 C 291.92 198.44 293.54 206.20 292.18 213.01 C 288.74 224.98 281.24 236.29 269.99 242.17 C 266.50 243.94 263.31 246.26 259.63 247.65 C 250.47 251.26 240.70 252.94 231.08 254.83 C 222.66 255.97 213.82 257.70 205.61 254.52 C 197.30 252.27 193.18 242.94 193.79 234.92 C 194.79 224.23 199.39 212.87 209.05 207.25 C 212.80 210.53 216.59 214.13 221.56 215.44 C 232.24 218.79 243.50 215.74 254.38 217.70 C 254.62 218.12 255.11 218.96 255.35 219.38 C 254.16 224.15 251.07 228.32 246.80 230.76 C 237.67 236.14 226.74 236.66 217.00 240.42 C 222.86 240.55 228.51 238.82 234.10 237.31 C 240.21 235.61 246.54 233.70 251.37 229.39 C 253.91 227.16 255.29 223.99 256.70 221.00 C 258.80 224.59 262.91 226.44 266.98 226.46 C 270.49 226.40 274.62 226.82 277.39 224.18 C 271.71 224.34 265.34 226.24 260.26 222.79 C 258.65 221.89 259.03 219.85 258.70 218.34 C 263.66 216.90 266.59 212.53 270.26 209.27 C 273.59 206.05 279.01 206.67 282.16 203.17 Z" />
<path fill="#b2792e" stroke="#b2792e" stroke-width="0.09375" opacity="1.00" d=" M 231.10 204.14 C 235.51 205.76 239.55 208.20 243.79 210.21 C 247.60 212.23 251.53 214.38 254.38 217.70 C 243.50 215.74 232.24 218.79 221.56 215.44 C 216.59 214.13 212.80 210.53 209.05 207.25 C 211.02 206.63 213.00 206.05 215.00 205.51 C 220.68 209.71 228.07 210.91 234.97 210.29 C 235.29 209.78 235.92 208.78 236.24 208.27 C 234.31 207.18 232.37 206.00 231.10 204.14 Z" />
<path fill="#aa5500" stroke="#aa5500" stroke-width="0.09375" opacity="1.00" d=" M 84.06 218.11 C 85.56 214.76 89.24 213.92 92.30 215.73 C 91.47 215.76 89.80 215.83 88.97 215.87 C 89.24 216.91 89.51 217.94 89.78 218.99 C 87.87 218.72 85.96 218.43 84.06 218.11 Z" />
<path fill="#3f250b" stroke="#3f250b" stroke-width="0.09375" opacity="1.00" d=" M 257.80 219.94 C 258.02 219.54 258.47 218.74 258.70 218.34 C 259.03 219.85 258.65 221.89 260.26 222.79 C 265.34 226.24 271.71 224.34 277.39 224.18 C 274.62 226.82 270.49 226.40 266.98 226.46 C 262.91 226.44 258.80 224.59 256.70 221.00 C 255.29 223.99 253.91 227.16 251.37 229.39 C 246.54 233.70 240.21 235.61 234.10 237.31 C 228.51 238.82 222.86 240.55 217.00 240.42 C 226.74 236.66 237.67 236.14 246.80 230.76 C 251.07 228.32 254.16 224.15 255.35 219.38 C 256.16 219.56 256.98 219.75 257.80 219.94 Z" />
<path fill="#c16100" stroke="#c16100" stroke-width="0.09375" opacity="1.00" d=" M 83.50 219.51 C 86.41 219.72 89.29 220.07 92.19 220.41 C 91.64 220.58 90.54 220.92 90.00 221.08 C 90.36 224.31 91.12 227.47 91.93 230.61 C 89.84 231.17 87.74 231.69 85.64 232.22 C 84.33 228.10 83.69 223.81 83.50 219.51 Z" />
<path fill="#c16100" stroke="#c16100" stroke-width="0.09375" opacity="1.00" d=" M 96.52 229.30 C 97.92 226.19 99.84 223.23 102.94 221.61 C 103.32 223.57 103.69 225.54 104.05 227.51 C 101.51 228.00 99.00 228.60 96.52 229.30 Z" />
<path fill="#401d00" stroke="#401d00" stroke-width="0.09375" opacity="1.00" d=" M 304.26 233.16 C 304.59 231.13 304.03 228.53 306.01 227.19 C 306.64 229.40 306.16 231.78 304.26 233.16 Z" />
<path fill="#c16100" stroke="#c16100" stroke-width="0.09375" opacity="1.00" d=" M 86.02 233.94 C 91.97 231.39 98.35 230.32 104.58 228.72 C 105.35 232.77 106.60 236.71 107.80 240.65 C 106.39 239.92 105.01 239.16 103.62 238.41 C 103.12 236.55 102.63 234.69 102.11 232.84 C 99.22 237.99 97.22 243.90 92.98 248.13 C 89.48 244.13 87.80 238.87 86.02 233.94 Z" />
<path fill="#6d3100" stroke="#6d3100" stroke-width="0.09375" opacity="1.00" d=" M 307.02 232.99 C 307.46 233.02 308.34 233.09 308.78 233.12 C 310.18 234.79 306.86 235.87 306.64 233.84 L 307.02 232.99 Z" />
<path fill="#c16100" stroke="#c16100" stroke-width="0.09375" opacity="1.00" d=" M 265.50 246.35 C 270.94 243.26 276.74 240.44 280.84 235.55 C 279.98 240.66 277.07 245.12 274.42 249.47 C 271.32 254.79 265.60 258.27 259.62 259.35 C 247.65 260.65 235.50 262.38 223.51 260.40 C 221.10 259.87 218.43 259.56 216.62 257.72 C 224.91 257.69 233.06 255.94 241.14 254.26 C 249.48 252.45 257.99 250.59 265.50 246.35 Z" />
<path fill="#4d2100" stroke="#4d2100" stroke-width="0.09375" opacity="1.00" d=" M 101.09 237.23 C 104.42 237.46 99.49 240.18 101.09 237.23 Z" />
<path fill="#1e1e26" stroke="#1e1e26" stroke-width="0.09375" opacity="1.00" d=" M 145.95 247.22 C 154.95 246.28 163.04 242.02 171.41 238.96 C 167.33 246.58 159.34 251.09 151.73 254.57 C 140.55 258.95 128.21 261.65 116.22 259.74 C 112.59 255.33 111.42 249.36 109.86 243.96 C 113.48 244.29 116.82 245.85 120.39 246.47 C 128.80 248.01 137.45 248.04 145.95 247.22 Z" />
<path fill="#391800" stroke="#391800" stroke-width="0.09375" opacity="1.00" d=" M 294.21 247.12 C 296.26 247.25 295.87 250.13 296.24 251.54 C 294.71 251.09 293.19 250.65 291.66 250.22 C 292.50 249.18 293.29 248.09 294.21 247.12 Z" />
<path fill="#401d00" stroke="#401d00" stroke-width="0.09375" opacity="1.00" d=" M 172.34 257.13 C 174.56 257.60 174.31 260.40 174.91 262.10 C 173.03 261.11 172.38 259.14 172.34 257.13 Z" />
<path fill="#c16100" stroke="#c16100" stroke-width="0.09375" opacity="1.00" d=" M 125.05 261.75 C 129.84 261.79 134.52 260.65 139.26 260.12 C 136.27 261.26 133.14 261.95 129.96 262.31 C 139.48 269.86 150.73 275.17 162.35 278.64 C 168.53 280.63 174.48 283.62 181.07 284.02 C 180.83 282.55 180.60 281.09 180.36 279.64 C 186.95 279.23 193.37 281.34 199.95 281.13 C 204.86 280.96 209.75 280.33 214.61 279.65 L 214.78 281.21 C 206.06 287.39 194.78 284.51 185.44 281.50 C 186.68 283.74 187.99 285.94 189.26 288.16 C 170.12 288.44 149.81 283.70 135.24 270.69 C 133.70 269.29 132.08 267.99 130.40 266.76 C 130.46 270.57 130.65 274.44 132.03 278.04 C 132.20 278.58 132.52 279.66 132.68 280.20 C 126.86 277.94 122.15 273.55 118.06 268.95 C 116.33 267.12 117.21 264.51 117.97 262.46 C 120.09 265.00 121.97 269.55 125.91 269.09 C 125.87 267.35 125.86 265.52 125.09 263.92 C 124.24 261.50 121.02 262.56 119.05 262.20 C 121.01 261.70 123.04 261.76 125.05 261.75 Z" />
<path fill="#ffa400" stroke="#ffa400" stroke-width="0.09375" opacity="1.00" d=" M 119.05 262.20 C 121.02 262.56 124.24 261.50 125.09 263.92 C 125.86 265.52 125.87 267.35 125.91 269.09 C 121.97 269.55 120.09 265.00 117.97 262.46 L 119.05 262.20 Z" />
<path fill="#1f0d00" stroke="#1f0d00" stroke-width="0.09375" opacity="1.00" d=" M 130.40 266.76 C 132.08 267.99 133.70 269.29 135.24 270.69 C 134.26 271.30 133.28 271.91 132.31 272.52 C 132.20 274.35 132.08 276.19 132.03 278.04 C 130.65 274.44 130.46 270.57 130.40 266.76 Z" />
<path fill="#6a3000" stroke="#6a3000" stroke-width="0.09375" opacity="1.00" d=" M 169.39 269.21 C 170.71 268.73 172.95 270.34 172.58 271.79 C 171.19 272.45 168.94 270.72 169.39 269.21 Z" />
<path fill="#c16100" stroke="#c16100" stroke-width="0.09375" opacity="1.00" d=" M 223.81 280.00 C 226.01 280.38 228.18 280.94 230.29 281.66 C 229.70 281.77 228.52 281.99 227.93 282.10 C 228.53 285.29 231.73 287.56 231.57 291.01 C 231.25 296.53 228.76 301.85 225.14 306.00 C 225.21 305.42 225.35 304.25 225.43 303.67 C 215.27 305.37 204.80 305.44 194.67 303.45 C 188.05 302.35 181.57 300.45 174.89 299.67 C 173.28 299.32 171.74 299.88 170.30 300.52 C 167.34 297.06 164.18 293.77 161.68 289.96 C 171.87 287.50 182.40 290.61 192.72 289.18 C 191.48 287.56 190.22 285.96 188.98 284.35 C 201.13 287.67 214.24 286.66 225.81 281.72 C 225.50 280.85 224.84 280.28 223.81 280.00 Z" />
<path fill="#a5a5a5" stroke="#a5a5a5" stroke-width="0.09375" opacity="1.00" d=" M 155.89 293.49 C 154.01 291.19 151.68 288.29 153.47 285.24 C 161.66 295.73 169.49 306.58 178.86 316.08 C 181.54 318.95 184.25 321.87 187.69 323.85 C 187.97 324.10 188.52 324.60 188.80 324.85 C 196.05 332.27 204.52 340.44 215.58 340.64 C 215.52 341.48 215.40 343.16 215.33 344.00 C 206.07 344.22 198.03 338.53 191.31 332.74 C 185.24 327.32 179.21 321.84 173.86 315.68 C 173.48 315.26 173.11 314.85 172.73 314.44 C 166.49 307.96 161.17 300.74 155.89 293.49 Z" />
<path fill="#ffffff" stroke="#ffffff" stroke-width="0.09375" opacity="1.00" d=" M 153.47 285.24 C 154.07 285.38 155.27 285.65 155.87 285.79 C 164.40 295.00 172.59 304.55 180.12 314.61 C 182.46 317.83 184.95 320.95 187.69 323.85 C 184.25 321.87 181.54 318.95 178.86 316.08 C 169.49 306.58 161.66 295.73 153.47 285.24 Z" />
<path fill="#1e1e26" stroke="#1e1e26" stroke-width="0.09375" opacity="1.00" d=" M 235.89 290.80 C 237.91 289.19 240.10 292.09 240.08 293.99 C 239.22 298.90 238.06 303.76 237.09 308.65 C 234.59 318.55 231.04 328.23 225.83 337.04 C 225.34 337.23 224.35 337.63 223.86 337.82 C 227.04 331.79 230.63 325.89 232.68 319.35 C 235.15 310.68 237.70 301.88 238.36 292.87 C 237.72 292.44 236.42 291.59 235.77 291.17 C 235.51 293.89 235.67 296.70 234.86 299.35 C 233.22 303.37 232.42 307.64 231.43 311.84 C 228.23 312.39 225.01 312.81 221.77 313.02 C 224.66 308.29 228.62 304.36 232.18 300.16 C 234.46 297.52 233.55 293.31 235.89 290.80 Z" />
<path fill="#ffffff" stroke="#ffffff" stroke-width="0.09375" opacity="1.00" d=" M 235.77 291.17 C 236.42 291.59 237.72 292.44 238.36 292.87 C 237.70 301.88 235.15 310.68 232.68 319.35 C 232.62 312.60 237.11 306.03 234.86 299.35 C 235.67 296.70 235.51 293.89 235.77 291.17 Z" />
<path fill="#101015" stroke="#101015" stroke-width="0.09375" opacity="1.00" d=" M 155.89 293.49 C 161.17 300.74 166.49 307.96 172.73 314.44 C 166.77 316.61 161.25 312.04 156.44 309.08 C 155.34 310.94 154.25 312.79 153.17 314.66 C 157.02 315.66 160.92 317.05 164.96 316.59 C 167.93 316.26 170.88 315.81 173.86 315.68 C 179.21 321.84 185.24 327.32 191.31 332.74 C 198.03 338.53 206.07 344.22 215.33 344.00 C 215.40 343.16 215.52 341.48 215.58 340.64 C 204.52 340.44 196.05 332.27 188.80 324.85 C 189.15 324.77 189.85 324.59 190.20 324.50 C 192.24 326.83 194.46 328.99 196.81 331.01 C 200.03 328.99 203.39 327.19 206.86 325.64 C 208.37 325.31 209.91 325.19 211.46 325.06 C 209.71 326.21 207.93 327.34 206.46 328.86 C 211.90 329.64 217.23 331.35 221.63 334.76 C 225.58 328.28 227.84 320.89 229.68 313.58 L 228.05 313.92 C 229.10 313.58 230.15 313.21 231.19 312.81 C 229.67 319.59 227.38 326.21 224.48 332.53 C 222.95 335.93 218.29 337.95 219.62 342.28 C 221.17 340.93 222.69 339.52 223.86 337.82 C 224.35 337.63 225.34 337.23 225.83 337.04 C 232.40 337.59 238.17 341.07 243.76 344.28 C 248.12 347.90 252.03 352.31 254.69 357.34 C 260.74 370.72 263.25 385.44 264.32 400.00 L 262.85 400.00 C 262.14 386.23 259.63 372.41 254.29 359.65 C 252.34 354.70 248.63 350.75 244.97 347.00 C 239.50 341.98 231.96 340.21 224.81 339.14 C 223.12 340.84 221.38 342.52 219.61 344.14 C 218.53 351.87 223.29 358.60 223.85 366.12 C 222.43 372.09 218.12 376.83 214.85 381.88 C 211.99 378.12 209.09 374.36 206.74 370.26 C 204.92 366.97 207.10 363.42 208.54 360.45 C 210.71 355.60 213.33 350.84 214.18 345.54 C 201.46 344.44 191.95 335.08 182.96 327.01 C 170.78 330.50 159.10 335.79 148.89 343.35 C 143.77 346.24 139.58 350.43 134.98 354.04 C 129.38 358.62 127.94 366.15 127.01 372.95 C 125.78 381.91 124.94 390.94 125.01 400.00 L 123.55 400.00 C 123.14 391.72 124.33 383.46 125.28 375.25 C 126.60 367.84 127.10 359.36 132.93 353.85 C 146.76 341.03 163.57 331.46 181.60 325.95 C 178.98 322.95 176.28 320.00 173.29 317.36 C 165.93 319.29 158.08 318.86 151.08 315.83 C 150.21 315.50 149.35 315.19 148.48 314.89 C 148.81 314.54 149.47 313.86 149.80 313.51 C 147.75 312.42 145.72 311.29 143.73 310.09 C 146.16 307.21 149.82 304.82 149.96 300.68 C 152.76 302.39 153.84 305.68 155.89 308.09 C 156.22 307.91 156.89 307.55 157.22 307.37 L 157.37 307.17 C 160.97 310.03 165.04 312.39 169.61 313.26 C 166.90 309.45 163.49 306.19 160.80 302.36 C 159.45 300.44 158.15 298.46 156.60 296.68 C 156.35 296.44 155.85 295.96 155.60 295.71 C 155.67 295.16 155.81 294.05 155.89 293.49 M 199.46 332.88 C 202.70 335.24 206.11 337.51 209.99 338.67 C 212.37 336.81 215.04 335.39 217.84 334.27 C 212.25 331.55 205.14 328.93 199.46 332.88 M 215.30 337.40 C 216.77 339.51 216.79 342.12 217.15 344.58 C 216.48 345.57 215.11 346.26 215.27 347.63 C 216.46 347.69 217.66 347.73 218.87 347.73 C 218.86 346.49 218.32 345.64 217.24 345.19 L 217.63 343.99 C 219.28 342.21 218.20 339.55 217.35 337.64 C 216.83 337.58 215.81 337.46 215.30 337.40 M 214.70 349.60 C 212.40 354.74 210.45 360.05 207.68 364.98 L 207.22 366.24 L 207.82 367.08 C 211.16 367.21 214.53 367.19 217.84 367.78 C 217.78 366.74 217.67 364.66 217.62 363.62 C 217.30 358.73 217.87 353.68 216.27 348.97 C 215.88 349.13 215.10 349.44 214.70 349.60 M 218.37 350.85 C 218.52 355.95 218.84 361.05 219.19 366.14 C 218.96 367.33 219.80 368.22 220.41 369.11 L 218.97 369.68 C 218.95 370.29 218.90 371.50 218.88 372.10 L 218.26 372.15 C 217.26 372.86 216.46 374.42 216.99 375.61 C 218.28 375.69 219.26 374.05 219.54 372.94 L 219.30 372.55 C 220.27 371.22 221.13 369.82 221.98 368.42 C 221.44 367.97 220.92 367.53 220.39 367.09 C 223.03 367.10 222.30 364.49 221.99 363.01 C 220.96 358.91 220.08 354.73 218.37 350.85 M 206.97 368.25 C 208.97 371.53 210.98 374.83 213.36 377.86 C 213.63 377.82 214.18 377.75 214.46 377.72 C 215.83 374.88 216.99 371.93 217.79 368.87 C 214.20 368.40 210.59 368.19 206.97 368.25 Z" />
<path fill="#e57600" stroke="#e57600" stroke-width="0.09375" opacity="1.00" d=" M 153.41 300.85 C 153.40 299.18 154.15 296.94 156.10 296.80 L 156.60 296.68 C 158.15 298.46 159.45 300.44 160.80 302.36 C 159.52 303.85 158.42 305.49 157.37 307.17 L 157.22 307.37 C 155.84 305.28 153.96 303.36 153.41 300.85 Z" />
<path fill="#ffa400" stroke="#ffa400" stroke-width="0.09375" opacity="1.00" d=" M 170.30 300.52 C 171.74 299.88 173.28 299.32 174.89 299.67 C 181.57 300.45 188.05 302.35 194.67 303.45 C 204.80 305.44 215.27 305.37 225.43 303.67 C 225.35 304.25 225.21 305.42 225.14 306.00 C 223.06 308.51 220.43 310.79 219.74 314.14 C 222.50 314.48 225.33 314.66 228.05 313.92 L 229.68 313.58 C 227.84 320.89 225.58 328.28 221.63 334.76 C 217.23 331.35 211.90 329.64 206.46 328.86 C 207.93 327.34 209.71 326.21 211.46 325.06 C 207.59 324.01 203.85 322.44 199.86 321.86 C 196.19 321.33 192.64 322.61 189.02 322.91 C 186.28 320.83 184.47 317.82 182.10 315.36 C 178.12 310.45 174.53 305.23 170.30 300.52 Z" />
<path fill="#a5a5a5" stroke="#a5a5a5" stroke-width="0.09375" opacity="1.00" d=" M 231.43 311.84 C 232.42 307.64 233.22 303.37 234.86 299.35 C 237.11 306.03 232.62 312.60 232.68 319.35 C 230.63 325.89 227.04 331.79 223.86 337.82 C 222.69 339.52 221.17 340.93 219.62 342.28 C 218.29 337.95 222.95 335.93 224.48 332.53 C 227.38 326.21 229.67 319.59 231.19 312.81 L 231.43 311.84 Z" />
<path fill="#ffa400" stroke="#ffa400" stroke-width="0.09375" opacity="1.00" d=" M 157.37 307.17 C 158.42 305.49 159.52 303.85 160.80 302.36 C 163.49 306.19 166.90 309.45 169.61 313.26 C 165.04 312.39 160.97 310.03 157.37 307.17 Z" />
<path fill="#1e1e26" stroke="#1e1e26" stroke-width="0.09375" opacity="1.00" d=" M 156.44 309.08 C 161.25 312.04 166.77 316.61 172.73 314.44 C 173.11 314.85 173.48 315.26 173.86 315.68 C 170.88 315.81 167.93 316.26 164.96 316.59 C 160.92 317.05 157.02 315.66 153.17 314.66 C 154.25 312.79 155.34 310.94 156.44 309.08 Z" />
<path fill="#ffa400" stroke="#ffa400" stroke-width="0.09375" opacity="1.00" d=" M 237.09 308.65 C 239.46 312.24 241.53 316.23 245.16 318.73 C 250.21 322.41 256.49 323.48 262.33 325.31 C 262.79 332.23 264.72 339.23 263.14 346.14 C 262.38 349.97 259.47 353.06 259.28 357.03 C 265.68 353.75 270.31 348.09 274.18 342.18 C 275.70 340.15 276.87 337.49 279.44 336.62 C 281.48 336.12 284.03 335.83 285.70 337.41 C 289.75 340.90 293.17 345.13 295.58 349.91 C 291.31 358.43 285.59 366.17 278.57 372.63 C 276.13 374.89 272.95 376.17 270.62 378.57 C 276.83 378.85 282.93 377.35 288.85 375.65 C 292.51 374.65 296.12 372.67 300.03 373.29 C 301.87 373.51 304.07 374.35 304.50 376.39 C 306.80 384.11 307.92 392.11 309.44 400.00 L 264.32 400.00 C 263.25 385.44 260.74 370.72 254.69 357.34 C 252.03 352.31 248.12 347.90 243.76 344.28 C 238.17 341.07 232.40 337.59 225.83 337.04 C 231.04 328.23 234.59 318.55 237.09 308.65 Z" />
<path fill="#e57600" stroke="#e57600" stroke-width="0.09375" opacity="1.00" d=" M 137.40 315.32 C 140.92 313.79 144.82 314.28 148.48 314.89 C 149.35 315.19 150.21 315.50 151.08 315.83 C 146.05 318.01 141.06 320.30 135.82 321.96 C 130.07 324.00 123.92 324.95 118.48 327.83 C 117.73 325.97 117.31 324.00 116.88 322.05 C 123.95 320.53 130.72 318.02 137.40 315.32 Z" />
<path fill="#3e2004" stroke="#3e2004" stroke-width="0.09375" opacity="1.00" d=" M 180.12 314.61 C 180.62 314.79 181.60 315.17 182.10 315.36 C 184.47 317.82 186.28 320.83 189.02 322.91 C 192.64 322.61 196.19 321.33 199.86 321.86 C 203.85 322.44 207.59 324.01 211.46 325.06 C 209.91 325.19 208.37 325.31 206.86 325.64 C 201.81 322.69 195.64 322.85 190.20 324.50 C 189.85 324.59 189.15 324.77 188.80 324.85 C 188.52 324.60 187.97 324.10 187.69 323.85 C 184.95 320.95 182.46 317.83 180.12 314.61 Z" />
<path fill="#ffa400" stroke="#ffa400" stroke-width="0.09375" opacity="1.00" d=" M 135.82 321.96 C 141.06 320.30 146.05 318.01 151.08 315.83 C 158.08 318.86 165.93 319.29 173.29 317.36 C 176.28 320.00 178.98 322.95 181.60 325.95 C 163.57 331.46 146.76 341.03 132.93 353.85 C 127.10 359.36 126.60 367.84 125.28 375.25 C 124.33 383.46 123.14 391.72 123.55 400.00 L 68.03 400.00 C 70.49 391.92 72.35 383.66 75.29 375.73 C 86.19 379.77 98.07 380.85 109.48 378.43 C 106.26 375.16 101.68 373.79 98.30 370.72 C 93.37 366.44 88.43 362.05 84.53 356.79 C 86.89 350.89 91.19 346.03 95.57 341.55 C 97.79 339.55 99.94 336.73 103.28 337.02 C 108.56 340.69 114.73 343.30 121.22 343.55 C 124.60 343.64 127.97 343.38 131.34 343.07 C 126.19 338.79 121.76 333.67 118.48 327.83 C 123.92 324.95 130.07 324.00 135.82 321.96 Z" />
<path fill="#0e0e15" stroke="#0e0e15" stroke-width="0.09375" opacity="1.00" d=" M 96.58 328.23 C 102.03 324.82 108.66 325.05 114.64 323.13 C 115.45 324.89 116.26 326.66 117.16 328.38 C 112.59 329.89 108.47 332.40 104.53 335.11 C 108.91 339.48 115.21 340.49 120.95 341.98 L 121.22 343.55 C 114.73 343.30 108.56 340.69 103.28 337.02 L 103.28 336.74 C 103.30 336.31 103.32 335.45 103.33 335.02 C 100.93 332.90 98.24 331.04 96.58 328.23 Z" />
<path fill="#ffc859" stroke="#ffc859" stroke-width="0.09375" opacity="1.00" d=" M 190.20 324.50 C 195.64 322.85 201.81 322.69 206.86 325.64 C 203.39 327.19 200.03 328.99 196.81 331.01 C 194.46 328.99 192.24 326.83 190.20 324.50 Z" />
<path fill="#1e1e26" stroke="#1e1e26" stroke-width="0.09375" opacity="1.00" d=" M 264.01 325.89 C 269.02 326.62 273.44 329.23 277.95 331.36 C 276.32 336.94 272.80 341.73 269.30 346.29 C 267.40 348.52 265.81 351.30 262.91 352.35 C 263.72 348.89 265.10 345.53 265.30 341.95 C 265.66 336.55 264.07 331.27 264.01 325.89 Z" />
<path fill="#ffc859" stroke="#ffc859" stroke-width="0.09375" opacity="1.00" d=" M 148.89 343.35 C 159.10 335.79 170.78 330.50 182.96 327.01 C 191.95 335.08 201.46 344.44 214.18 345.54 C 213.33 350.84 210.71 355.60 208.54 360.45 C 207.10 363.42 204.92 366.97 206.74 370.26 C 209.09 374.36 211.99 378.12 214.85 381.88 C 218.12 376.83 222.43 372.09 223.85 366.12 C 223.29 358.60 218.53 351.87 219.61 344.14 C 221.38 342.52 223.12 340.84 224.81 339.14 C 231.96 340.21 239.50 341.98 244.97 347.00 C 248.63 350.75 252.34 354.70 254.29 359.65 C 259.63 372.41 262.14 386.23 262.85 400.00 L 131.29 400.00 C 133.31 389.60 133.97 378.85 137.78 368.86 C 140.59 359.97 145.31 351.90 148.89 343.35 Z" />
<path fill="#1e1e26" stroke="#1e1e26" stroke-width="0.09375" opacity="1.00" d=" M 104.53 335.11 C 108.47 332.40 112.59 329.89 117.16 328.38 C 119.77 333.32 123.28 337.69 126.98 341.84 C 124.97 341.93 122.96 342.02 120.95 341.98 C 115.21 340.49 108.91 339.48 104.53 335.11 Z" />
<path fill="#ffc859" stroke="#ffc859" stroke-width="0.09375" opacity="1.00" d=" M 199.46 332.88 C 205.14 328.93 212.25 331.55 217.84 334.27 C 215.04 335.39 212.37 336.81 209.99 338.67 C 206.11 337.51 202.70 335.24 199.46 332.88 Z" />
<path fill="#db7100" stroke="#db7100" stroke-width="0.09375" opacity="1.00" d=" M 76.17 342.07 C 79.12 337.02 84.06 332.72 90.03 331.94 C 94.99 330.91 99.64 333.68 103.28 336.74 L 103.28 337.02 C 99.94 336.73 97.79 339.55 95.57 341.55 C 91.19 346.03 86.89 350.89 84.53 356.79 C 82.24 353.35 79.98 349.88 78.00 346.26 C 77.30 344.90 76.60 343.53 76.17 342.07 Z" />
<path fill="#ffffff" stroke="#ffffff" stroke-width="0.09375" opacity="1.00" d=" M 215.30 337.40 C 215.81 337.46 216.83 337.58 217.35 337.64 C 218.20 339.55 219.28 342.21 217.63 343.99 L 217.15 344.58 C 216.79 342.12 216.77 339.51 215.30 337.40 Z" />
<path fill="#0c0c12" stroke="#0c0c12" stroke-width="0.09375" opacity="1.00" d=" M 74.40 344.11 C 75.08 344.90 75.77 345.68 76.45 346.47 C 76.84 346.42 77.61 346.31 78.00 346.26 C 79.98 349.88 82.24 353.35 84.53 356.79 C 88.43 362.05 93.37 366.44 98.30 370.72 C 101.68 373.79 106.26 375.16 109.48 378.43 C 98.07 380.85 86.19 379.77 75.29 375.73 C 73.94 375.20 72.61 374.62 71.35 373.91 C 71.31 373.49 71.24 372.63 71.21 372.20 C 68.86 369.55 65.65 367.83 62.75 365.84 C 64.31 357.53 70.90 351.57 74.40 344.11 M 76.50 372.42 C 75.52 374.49 78.51 374.75 79.81 375.29 C 87.59 377.85 95.99 378.88 104.05 377.01 C 96.04 372.11 89.14 365.53 83.30 358.22 C 80.21 362.49 78.28 367.49 76.50 372.42 Z" />
<path fill="#b2792e" stroke="#b2792e" stroke-width="0.09375" opacity="1.00" d=" M 134.98 354.04 C 139.58 350.43 143.77 346.24 148.89 343.35 C 145.31 351.90 140.59 359.97 137.78 368.86 C 133.97 378.85 133.31 389.60 131.29 400.00 L 125.01 400.00 C 124.94 390.94 125.78 381.91 127.01 372.95 C 127.94 366.15 129.38 358.62 134.98 354.04 Z" />
<path fill="#cf6cfe" stroke="#cf6cfe" stroke-width="0.09375" opacity="1.00" d=" M 217.15 344.58 L 217.63 343.99 L 217.24 345.19 C 218.32 345.64 218.86 346.49 218.87 347.73 C 217.66 347.73 216.46 347.69 215.27 347.63 C 215.11 346.26 216.48 345.57 217.15 344.58 Z" />
<path fill="#a6a5a8" stroke="#a6a5a8" stroke-width="0.09375" opacity="1.00" d=" M 214.70 349.60 C 215.10 349.44 215.88 349.13 216.27 348.97 C 217.87 353.68 217.30 358.73 217.62 363.62 C 214.32 364.16 210.99 364.52 207.68 364.98 C 210.45 360.05 212.40 354.74 214.70 349.60 Z" />
<path fill="#ffffff" stroke="#ffffff" stroke-width="0.09375" opacity="1.00" d=" M 218.37 350.85 C 220.08 354.73 220.96 358.91 221.99 363.01 C 222.30 364.49 223.03 367.10 220.39 367.09 C 220.92 367.53 221.44 367.97 221.98 368.42 C 221.13 369.82 220.27 371.22 219.30 372.55 L 218.88 372.10 C 218.90 371.50 218.95 370.29 218.97 369.68 L 220.41 369.11 C 219.80 368.22 218.96 367.33 219.19 366.14 C 218.84 361.05 218.52 355.95 218.37 350.85 Z" />
<path fill="#1e1e26" stroke="#1e1e26" stroke-width="0.09375" opacity="1.00" d=" M 288.45 364.42 C 291.53 360.77 293.62 356.46 296.00 352.36 C 299.41 356.48 300.02 362.11 301.69 367.05 C 302.58 369.24 299.78 369.79 298.40 370.53 C 291.72 373.16 284.86 375.88 277.61 376.25 C 280.78 371.91 285.20 368.70 288.45 364.42 Z" />
<path fill="#1e1e26" stroke="#1e1e26" stroke-width="0.09375" opacity="1.00" d=" M 76.50 372.42 C 78.28 367.49 80.21 362.49 83.30 358.22 C 89.14 365.53 96.04 372.11 104.05 377.01 C 95.99 378.88 87.59 377.85 79.81 375.29 C 78.51 374.75 75.52 374.49 76.50 372.42 Z" />
<path fill="#b783cf" stroke="#b783cf" stroke-width="0.09375" opacity="1.00" d=" M 207.68 364.98 C 210.99 364.52 214.32 364.16 217.62 363.62 C 217.67 364.66 217.78 366.74 217.84 367.78 C 214.53 367.19 211.16 367.21 207.82 367.08 L 207.22 366.24 L 207.68 364.98 Z" />
<path fill="#cf6cfe" stroke="#cf6cfe" stroke-width="0.09375" opacity="1.00" d=" M 206.97 368.25 C 210.59 368.19 214.20 368.40 217.79 368.87 C 216.99 371.93 215.83 374.88 214.46 377.72 C 214.18 377.75 213.63 377.82 213.36 377.86 C 210.98 374.83 208.97 371.53 206.97 368.25 Z" />
<path fill="#da7100" stroke="#da7100" stroke-width="0.09375" opacity="1.00" d=" M 63.80 370.63 C 66.67 369.50 68.89 372.92 71.35 373.91 C 72.61 374.62 73.94 375.20 75.29 375.73 C 72.35 383.66 70.49 391.92 68.03 400.00 L 64.50 400.00 C 61.41 396.14 57.95 391.95 57.16 386.96 C 58.05 381.18 59.52 374.91 63.80 370.63 Z" />
<path fill="#9953ba" stroke="#9953ba" stroke-width="0.09375" opacity="1.00" d=" M 218.26 372.15 L 218.88 372.10 L 219.30 372.55 L 219.54 372.94 C 219.26 374.05 218.28 375.69 216.99 375.61 C 216.46 374.42 217.26 372.86 218.26 372.15 Z" />
</svg>
